%TF.GenerationSoftware,KiCad,Pcbnew,8.0.8*%
%TF.CreationDate,2025-04-05T01:12:44-04:00*%
%TF.ProjectId,splitter,73706c69-7474-4657-922e-6b696361645f,rev?*%
%TF.SameCoordinates,Original*%
%TF.FileFunction,Legend,Top*%
%TF.FilePolarity,Positive*%
%FSLAX46Y46*%
G04 Gerber Fmt 4.6, Leading zero omitted, Abs format (unit mm)*
G04 Created by KiCad (PCBNEW 8.0.8) date 2025-04-05 01:12:44*
%MOMM*%
%LPD*%
G01*
G04 APERTURE LIST*
%ADD10C,0.150000*%
%ADD11C,0.120000*%
G04 APERTURE END LIST*
D10*
X38507200Y-89055618D02*
X38554819Y-88912761D01*
X38554819Y-88912761D02*
X38554819Y-88674666D01*
X38554819Y-88674666D02*
X38507200Y-88579428D01*
X38507200Y-88579428D02*
X38459580Y-88531809D01*
X38459580Y-88531809D02*
X38364342Y-88484190D01*
X38364342Y-88484190D02*
X38269104Y-88484190D01*
X38269104Y-88484190D02*
X38173866Y-88531809D01*
X38173866Y-88531809D02*
X38126247Y-88579428D01*
X38126247Y-88579428D02*
X38078628Y-88674666D01*
X38078628Y-88674666D02*
X38031009Y-88865142D01*
X38031009Y-88865142D02*
X37983390Y-88960380D01*
X37983390Y-88960380D02*
X37935771Y-89007999D01*
X37935771Y-89007999D02*
X37840533Y-89055618D01*
X37840533Y-89055618D02*
X37745295Y-89055618D01*
X37745295Y-89055618D02*
X37650057Y-89007999D01*
X37650057Y-89007999D02*
X37602438Y-88960380D01*
X37602438Y-88960380D02*
X37554819Y-88865142D01*
X37554819Y-88865142D02*
X37554819Y-88627047D01*
X37554819Y-88627047D02*
X37602438Y-88484190D01*
X37554819Y-88150856D02*
X38554819Y-87912761D01*
X38554819Y-87912761D02*
X37840533Y-87722285D01*
X37840533Y-87722285D02*
X38554819Y-87531809D01*
X38554819Y-87531809D02*
X37554819Y-87293714D01*
X38650057Y-87150857D02*
X38650057Y-86388952D01*
X38031009Y-85817523D02*
X38078628Y-85674666D01*
X38078628Y-85674666D02*
X38126247Y-85627047D01*
X38126247Y-85627047D02*
X38221485Y-85579428D01*
X38221485Y-85579428D02*
X38364342Y-85579428D01*
X38364342Y-85579428D02*
X38459580Y-85627047D01*
X38459580Y-85627047D02*
X38507200Y-85674666D01*
X38507200Y-85674666D02*
X38554819Y-85769904D01*
X38554819Y-85769904D02*
X38554819Y-86150856D01*
X38554819Y-86150856D02*
X37554819Y-86150856D01*
X37554819Y-86150856D02*
X37554819Y-85817523D01*
X37554819Y-85817523D02*
X37602438Y-85722285D01*
X37602438Y-85722285D02*
X37650057Y-85674666D01*
X37650057Y-85674666D02*
X37745295Y-85627047D01*
X37745295Y-85627047D02*
X37840533Y-85627047D01*
X37840533Y-85627047D02*
X37935771Y-85674666D01*
X37935771Y-85674666D02*
X37983390Y-85722285D01*
X37983390Y-85722285D02*
X38031009Y-85817523D01*
X38031009Y-85817523D02*
X38031009Y-86150856D01*
X38078628Y-84960380D02*
X38554819Y-84960380D01*
X37554819Y-85293713D02*
X38078628Y-84960380D01*
X38078628Y-84960380D02*
X37554819Y-84627047D01*
X38554819Y-84293713D02*
X37554819Y-84293713D01*
X37554819Y-84293713D02*
X37554819Y-83912761D01*
X37554819Y-83912761D02*
X37602438Y-83817523D01*
X37602438Y-83817523D02*
X37650057Y-83769904D01*
X37650057Y-83769904D02*
X37745295Y-83722285D01*
X37745295Y-83722285D02*
X37888152Y-83722285D01*
X37888152Y-83722285D02*
X37983390Y-83769904D01*
X37983390Y-83769904D02*
X38031009Y-83817523D01*
X38031009Y-83817523D02*
X38078628Y-83912761D01*
X38078628Y-83912761D02*
X38078628Y-84293713D01*
X38269104Y-83341332D02*
X38269104Y-82865142D01*
X38554819Y-83436570D02*
X37554819Y-83103237D01*
X37554819Y-83103237D02*
X38554819Y-82769904D01*
X38507200Y-82484189D02*
X38554819Y-82341332D01*
X38554819Y-82341332D02*
X38554819Y-82103237D01*
X38554819Y-82103237D02*
X38507200Y-82007999D01*
X38507200Y-82007999D02*
X38459580Y-81960380D01*
X38459580Y-81960380D02*
X38364342Y-81912761D01*
X38364342Y-81912761D02*
X38269104Y-81912761D01*
X38269104Y-81912761D02*
X38173866Y-81960380D01*
X38173866Y-81960380D02*
X38126247Y-82007999D01*
X38126247Y-82007999D02*
X38078628Y-82103237D01*
X38078628Y-82103237D02*
X38031009Y-82293713D01*
X38031009Y-82293713D02*
X37983390Y-82388951D01*
X37983390Y-82388951D02*
X37935771Y-82436570D01*
X37935771Y-82436570D02*
X37840533Y-82484189D01*
X37840533Y-82484189D02*
X37745295Y-82484189D01*
X37745295Y-82484189D02*
X37650057Y-82436570D01*
X37650057Y-82436570D02*
X37602438Y-82388951D01*
X37602438Y-82388951D02*
X37554819Y-82293713D01*
X37554819Y-82293713D02*
X37554819Y-82055618D01*
X37554819Y-82055618D02*
X37602438Y-81912761D01*
X38507200Y-81531808D02*
X38554819Y-81388951D01*
X38554819Y-81388951D02*
X38554819Y-81150856D01*
X38554819Y-81150856D02*
X38507200Y-81055618D01*
X38507200Y-81055618D02*
X38459580Y-81007999D01*
X38459580Y-81007999D02*
X38364342Y-80960380D01*
X38364342Y-80960380D02*
X38269104Y-80960380D01*
X38269104Y-80960380D02*
X38173866Y-81007999D01*
X38173866Y-81007999D02*
X38126247Y-81055618D01*
X38126247Y-81055618D02*
X38078628Y-81150856D01*
X38078628Y-81150856D02*
X38031009Y-81341332D01*
X38031009Y-81341332D02*
X37983390Y-81436570D01*
X37983390Y-81436570D02*
X37935771Y-81484189D01*
X37935771Y-81484189D02*
X37840533Y-81531808D01*
X37840533Y-81531808D02*
X37745295Y-81531808D01*
X37745295Y-81531808D02*
X37650057Y-81484189D01*
X37650057Y-81484189D02*
X37602438Y-81436570D01*
X37602438Y-81436570D02*
X37554819Y-81341332D01*
X37554819Y-81341332D02*
X37554819Y-81103237D01*
X37554819Y-81103237D02*
X37602438Y-80960380D01*
D11*
%TO.C,J9*%
X40388500Y-76078000D02*
X49508500Y-76078000D01*
X40388500Y-94118000D02*
X40388500Y-76078000D01*
X41698500Y-77378000D02*
X48198500Y-77378000D01*
X41698500Y-92818000D02*
X41698500Y-77378000D01*
X48198500Y-77378000D02*
X48198500Y-83048000D01*
X48198500Y-83048000D02*
X48198500Y-83048000D01*
X48198500Y-83048000D02*
X49508500Y-83048000D01*
X48198500Y-87148000D02*
X48198500Y-92818000D01*
X48198500Y-92818000D02*
X41698500Y-92818000D01*
X49508500Y-76078000D02*
X49508500Y-94118000D01*
X49508500Y-87148000D02*
X48198500Y-87148000D01*
X49508500Y-94118000D02*
X40388500Y-94118000D01*
X49898500Y-88908000D02*
X50898500Y-89408000D01*
X50898500Y-88408000D02*
X49898500Y-88908000D01*
X50898500Y-89408000D02*
X50898500Y-88408000D01*
%TO.C,SW1*%
X20050000Y-76408000D02*
X20050000Y-93608000D01*
X39950000Y-76408000D02*
X20050000Y-76408000D01*
X39950000Y-76408000D02*
X40000000Y-93608000D01*
X39950000Y-93608000D02*
X20050000Y-93608000D01*
%TD*%
M02*
