M48
; DRILL file {KiCad 9.0.4} date 2026-08-06T07:55:36-0400
; FORMAT={-:-/ absolute / metric / decimal}
; #@! TF.CreationDate,2026-08-06T07:55:36-04:00
; #@! TF.GenerationSoftware,Kicad,Pcbnew,9.0.4
; #@! TF.FileFunction,Plated,1,2,PTH
FMAT,2
METRIC
; #@! TA.AperFunction,Plated,PTH,ViaDrill
T1C0.300
; #@! TA.AperFunction,Plated,PTH,ComponentDrill
T2C0.750
; #@! TA.AperFunction,Plated,PTH,ComponentDrill
T3C0.800
; #@! TA.AperFunction,Plated,PTH,ComponentDrill
T4C0.900
; #@! TA.AperFunction,Plated,PTH,ComponentDrill
T5C1.000
; #@! TA.AperFunction,Plated,PTH,ComponentDrill
T6C1.100
; #@! TA.AperFunction,Plated,PTH,ComponentDrill
T7C1.230
; #@! TA.AperFunction,Plated,PTH,ComponentDrill
T8C1.400
%
G90
G05
T1
X147.828Y-61.722
T2
X141.986Y-82.804
X143.256Y-82.804
X144.526Y-82.804
X157.48Y-64.516
X157.48Y-65.786
X157.48Y-67.056
X163.068Y-64.516
X163.068Y-65.786
X163.068Y-67.056
X181.102Y-88.392
X182.372Y-88.392
X183.642Y-88.392
T3
X133.136Y-82.804
X133.136Y-86.106
X133.136Y-89.408
X138.136Y-82.804
X138.136Y-86.106
X138.136Y-89.408
X141.732Y-87.122
X141.732Y-89.662
X145.288Y-87.122
X145.288Y-89.662
X148.122Y-53.34
X148.336Y-58.246
X148.336Y-63.246
X149.352Y-67.31
X149.352Y-77.978
X149.352Y-81.534
X149.802Y-85.09
X151.892Y-67.31
X151.892Y-77.978
X151.892Y-81.534
X152.342Y-85.09
X152.4Y-58.246
X152.4Y-63.246
X153.122Y-53.34
X155.927Y-85.09
X156.972Y-70.779
X156.972Y-75.779
X156.972Y-78.994
X156.972Y-81.534
X157.48Y-58.616
X157.48Y-61.156
X158.467Y-85.09
X158.496Y-93.443
X158.496Y-95.983
X158.496Y-102.05
X158.496Y-104.59
X162.052Y-85.09
X162.56Y-93.443
X162.56Y-95.983
X162.56Y-99.608
X162.56Y-104.608
X163.068Y-58.616
X163.068Y-61.156
X163.068Y-70.779
X163.068Y-75.779
X163.068Y-78.994
X163.068Y-81.534
X163.664Y-52.578
X164.592Y-85.09
X166.164Y-52.578
X167.64Y-58.246
X167.64Y-63.246
X168.148Y-67.31
X168.148Y-77.978
X168.148Y-81.534
X168.148Y-85.09
X170.688Y-67.31
X170.688Y-77.978
X170.688Y-81.534
X170.688Y-85.09
X171.704Y-52.832
X171.704Y-55.372
X171.704Y-58.246
X171.704Y-63.246
X173.99Y-86.643
X173.99Y-89.183
X174.538Y-83.312
X177.8Y-86.614
X177.8Y-89.154
X179.538Y-83.312
X182.92Y-83.312
X187.452Y-86.643
X187.452Y-89.183
X187.92Y-83.312
T4
X149.352Y-70.866
X149.352Y-74.422
X151.892Y-70.866
X151.892Y-74.422
X158.496Y-108.712
X161.036Y-108.712
X168.148Y-70.866
X168.148Y-74.422
X170.688Y-70.866
X170.688Y-74.422
T5
X137.454Y-64.008
X137.454Y-79.385
X139.954Y-64.008
X139.954Y-79.385
X142.454Y-64.008
X142.454Y-79.385
X153.67Y-115.824
X153.899Y-88.875
X156.21Y-115.824
X156.439Y-88.875
X156.484Y-52.603
X158.75Y-115.824
X158.979Y-88.875
X159.024Y-52.603
X161.29Y-115.824
X161.519Y-88.875
X163.83Y-115.824
X164.059Y-88.875
X166.37Y-115.824
X166.599Y-88.875
X177.586Y-64.008
X177.586Y-79.382
X180.086Y-64.008
X180.086Y-79.382
X182.586Y-64.008
X182.586Y-79.382
T8
X133.398Y-93.485
X133.398Y-109.715
X139.748Y-93.485
X139.748Y-109.715
X146.097Y-93.485
X146.097Y-109.715
X173.942Y-93.485
X173.942Y-109.715
X180.292Y-93.485
X180.292Y-109.715
X186.642Y-93.485
X186.642Y-109.715
T6
X135.154Y-56.858G85X135.154Y-56.158
G05
X135.154Y-72.235G85X135.154Y-71.535
G05
X144.754Y-56.858G85X144.754Y-56.158
G05
X144.754Y-72.235G85X144.754Y-71.535
G05
X175.286Y-56.858G85X175.286Y-56.158
G05
X175.286Y-72.232G85X175.286Y-71.532
G05
X184.886Y-56.858G85X184.886Y-56.158
G05
X184.886Y-72.232G85X184.886Y-71.532
G05
T7
X154.196Y-122.554G85X155.526Y-122.554
G05
X154.196Y-127.254G85X155.526Y-127.254
G05
X154.196Y-131.954G85X155.526Y-131.954
G05
X159.296Y-122.554G85X160.626Y-122.554
G05
X159.296Y-127.254G85X160.626Y-127.254
G05
X159.296Y-131.954G85X160.626Y-131.954
G05
X164.396Y-122.554G85X165.726Y-122.554
G05
X164.396Y-127.254G85X165.726Y-127.254
G05
X164.396Y-131.954G85X165.726Y-131.954
G05
M30
