%TF.GenerationSoftware,KiCad,Pcbnew,9.0.4*%
%TF.CreationDate,2026-08-06T07:55:32-04:00*%
%TF.ProjectId,dynafuzz,64796e61-6675-47a7-9a2e-6b696361645f,rev?*%
%TF.SameCoordinates,Original*%
%TF.FileFunction,Legend,Top*%
%TF.FilePolarity,Positive*%
%FSLAX46Y46*%
G04 Gerber Fmt 4.6, Leading zero omitted, Abs format (unit mm)*
G04 Created by KiCad (PCBNEW 9.0.4) date 2026-08-06 07:55:32*
%MOMM*%
%LPD*%
G01*
G04 APERTURE LIST*
%ADD10C,0.100000*%
%ADD11C,0.150000*%
%ADD12C,0.120000*%
G04 APERTURE END LIST*
D10*
X161593884Y-109727466D02*
X162355789Y-109727466D01*
X161974836Y-110108419D02*
X161974836Y-109346514D01*
D11*
X131772819Y-86748857D02*
X131772819Y-87320285D01*
X131772819Y-87034571D02*
X130772819Y-87034571D01*
X130772819Y-87034571D02*
X130915676Y-87129809D01*
X130915676Y-87129809D02*
X131010914Y-87225047D01*
X131010914Y-87225047D02*
X131058533Y-87320285D01*
X130772819Y-86129809D02*
X130772819Y-86034571D01*
X130772819Y-86034571D02*
X130820438Y-85939333D01*
X130820438Y-85939333D02*
X130868057Y-85891714D01*
X130868057Y-85891714D02*
X130963295Y-85844095D01*
X130963295Y-85844095D02*
X131153771Y-85796476D01*
X131153771Y-85796476D02*
X131391866Y-85796476D01*
X131391866Y-85796476D02*
X131582342Y-85844095D01*
X131582342Y-85844095D02*
X131677580Y-85891714D01*
X131677580Y-85891714D02*
X131725200Y-85939333D01*
X131725200Y-85939333D02*
X131772819Y-86034571D01*
X131772819Y-86034571D02*
X131772819Y-86129809D01*
X131772819Y-86129809D02*
X131725200Y-86225047D01*
X131725200Y-86225047D02*
X131677580Y-86272666D01*
X131677580Y-86272666D02*
X131582342Y-86320285D01*
X131582342Y-86320285D02*
X131391866Y-86367904D01*
X131391866Y-86367904D02*
X131153771Y-86367904D01*
X131153771Y-86367904D02*
X130963295Y-86320285D01*
X130963295Y-86320285D02*
X130868057Y-86272666D01*
X130868057Y-86272666D02*
X130820438Y-86225047D01*
X130820438Y-86225047D02*
X130772819Y-86129809D01*
X131106152Y-85367904D02*
X131772819Y-85367904D01*
X131201390Y-85367904D02*
X131153771Y-85320285D01*
X131153771Y-85320285D02*
X131106152Y-85225047D01*
X131106152Y-85225047D02*
X131106152Y-85082190D01*
X131106152Y-85082190D02*
X131153771Y-84986952D01*
X131153771Y-84986952D02*
X131249009Y-84939333D01*
X131249009Y-84939333D02*
X131772819Y-84939333D01*
X133042819Y-64602762D02*
X132566628Y-64936095D01*
X133042819Y-65174190D02*
X132042819Y-65174190D01*
X132042819Y-65174190D02*
X132042819Y-64793238D01*
X132042819Y-64793238D02*
X132090438Y-64698000D01*
X132090438Y-64698000D02*
X132138057Y-64650381D01*
X132138057Y-64650381D02*
X132233295Y-64602762D01*
X132233295Y-64602762D02*
X132376152Y-64602762D01*
X132376152Y-64602762D02*
X132471390Y-64650381D01*
X132471390Y-64650381D02*
X132519009Y-64698000D01*
X132519009Y-64698000D02*
X132566628Y-64793238D01*
X132566628Y-64793238D02*
X132566628Y-65174190D01*
X133138057Y-64412286D02*
X133138057Y-63650381D01*
X132042819Y-63555142D02*
X133042819Y-63221809D01*
X133042819Y-63221809D02*
X132042819Y-62888476D01*
X132042819Y-62364666D02*
X132042819Y-62174190D01*
X132042819Y-62174190D02*
X132090438Y-62078952D01*
X132090438Y-62078952D02*
X132185676Y-61983714D01*
X132185676Y-61983714D02*
X132376152Y-61936095D01*
X132376152Y-61936095D02*
X132709485Y-61936095D01*
X132709485Y-61936095D02*
X132899961Y-61983714D01*
X132899961Y-61983714D02*
X132995200Y-62078952D01*
X132995200Y-62078952D02*
X133042819Y-62174190D01*
X133042819Y-62174190D02*
X133042819Y-62364666D01*
X133042819Y-62364666D02*
X132995200Y-62459904D01*
X132995200Y-62459904D02*
X132899961Y-62555142D01*
X132899961Y-62555142D02*
X132709485Y-62602761D01*
X132709485Y-62602761D02*
X132376152Y-62602761D01*
X132376152Y-62602761D02*
X132185676Y-62555142D01*
X132185676Y-62555142D02*
X132090438Y-62459904D01*
X132090438Y-62459904D02*
X132042819Y-62364666D01*
X133042819Y-61031333D02*
X133042819Y-61507523D01*
X133042819Y-61507523D02*
X132042819Y-61507523D01*
X132661866Y-60697999D02*
X132661866Y-59936095D01*
X132757104Y-59507523D02*
X132757104Y-59031333D01*
X133042819Y-59602761D02*
X132042819Y-59269428D01*
X132042819Y-59269428D02*
X133042819Y-58936095D01*
X133042819Y-58078952D02*
X133042819Y-58650380D01*
X133042819Y-58364666D02*
X132042819Y-58364666D01*
X132042819Y-58364666D02*
X132185676Y-58459904D01*
X132185676Y-58459904D02*
X132280914Y-58555142D01*
X132280914Y-58555142D02*
X132328533Y-58650380D01*
X132042819Y-57459904D02*
X132042819Y-57364666D01*
X132042819Y-57364666D02*
X132090438Y-57269428D01*
X132090438Y-57269428D02*
X132138057Y-57221809D01*
X132138057Y-57221809D02*
X132233295Y-57174190D01*
X132233295Y-57174190D02*
X132423771Y-57126571D01*
X132423771Y-57126571D02*
X132661866Y-57126571D01*
X132661866Y-57126571D02*
X132852342Y-57174190D01*
X132852342Y-57174190D02*
X132947580Y-57221809D01*
X132947580Y-57221809D02*
X132995200Y-57269428D01*
X132995200Y-57269428D02*
X133042819Y-57364666D01*
X133042819Y-57364666D02*
X133042819Y-57459904D01*
X133042819Y-57459904D02*
X132995200Y-57555142D01*
X132995200Y-57555142D02*
X132947580Y-57602761D01*
X132947580Y-57602761D02*
X132852342Y-57650380D01*
X132852342Y-57650380D02*
X132661866Y-57697999D01*
X132661866Y-57697999D02*
X132423771Y-57697999D01*
X132423771Y-57697999D02*
X132233295Y-57650380D01*
X132233295Y-57650380D02*
X132138057Y-57602761D01*
X132138057Y-57602761D02*
X132090438Y-57555142D01*
X132090438Y-57555142D02*
X132042819Y-57459904D01*
X132042819Y-56507523D02*
X132042819Y-56412285D01*
X132042819Y-56412285D02*
X132090438Y-56317047D01*
X132090438Y-56317047D02*
X132138057Y-56269428D01*
X132138057Y-56269428D02*
X132233295Y-56221809D01*
X132233295Y-56221809D02*
X132423771Y-56174190D01*
X132423771Y-56174190D02*
X132661866Y-56174190D01*
X132661866Y-56174190D02*
X132852342Y-56221809D01*
X132852342Y-56221809D02*
X132947580Y-56269428D01*
X132947580Y-56269428D02*
X132995200Y-56317047D01*
X132995200Y-56317047D02*
X133042819Y-56412285D01*
X133042819Y-56412285D02*
X133042819Y-56507523D01*
X133042819Y-56507523D02*
X132995200Y-56602761D01*
X132995200Y-56602761D02*
X132947580Y-56650380D01*
X132947580Y-56650380D02*
X132852342Y-56697999D01*
X132852342Y-56697999D02*
X132661866Y-56745618D01*
X132661866Y-56745618D02*
X132423771Y-56745618D01*
X132423771Y-56745618D02*
X132233295Y-56697999D01*
X132233295Y-56697999D02*
X132138057Y-56650380D01*
X132138057Y-56650380D02*
X132090438Y-56602761D01*
X132090438Y-56602761D02*
X132042819Y-56507523D01*
X133042819Y-55745618D02*
X132042819Y-55745618D01*
X133042819Y-55174190D02*
X132471390Y-55602761D01*
X132042819Y-55174190D02*
X132614247Y-55745618D01*
X133042819Y-77390000D02*
X132566628Y-77723333D01*
X133042819Y-77961428D02*
X132042819Y-77961428D01*
X132042819Y-77961428D02*
X132042819Y-77580476D01*
X132042819Y-77580476D02*
X132090438Y-77485238D01*
X132090438Y-77485238D02*
X132138057Y-77437619D01*
X132138057Y-77437619D02*
X132233295Y-77390000D01*
X132233295Y-77390000D02*
X132376152Y-77390000D01*
X132376152Y-77390000D02*
X132471390Y-77437619D01*
X132471390Y-77437619D02*
X132519009Y-77485238D01*
X132519009Y-77485238D02*
X132566628Y-77580476D01*
X132566628Y-77580476D02*
X132566628Y-77961428D01*
X133138057Y-77199524D02*
X133138057Y-76437619D01*
X132042819Y-76342380D02*
X132042819Y-75770952D01*
X133042819Y-76056666D02*
X132042819Y-76056666D01*
X132042819Y-75247142D02*
X132042819Y-75056666D01*
X132042819Y-75056666D02*
X132090438Y-74961428D01*
X132090438Y-74961428D02*
X132185676Y-74866190D01*
X132185676Y-74866190D02*
X132376152Y-74818571D01*
X132376152Y-74818571D02*
X132709485Y-74818571D01*
X132709485Y-74818571D02*
X132899961Y-74866190D01*
X132899961Y-74866190D02*
X132995200Y-74961428D01*
X132995200Y-74961428D02*
X133042819Y-75056666D01*
X133042819Y-75056666D02*
X133042819Y-75247142D01*
X133042819Y-75247142D02*
X132995200Y-75342380D01*
X132995200Y-75342380D02*
X132899961Y-75437618D01*
X132899961Y-75437618D02*
X132709485Y-75485237D01*
X132709485Y-75485237D02*
X132376152Y-75485237D01*
X132376152Y-75485237D02*
X132185676Y-75437618D01*
X132185676Y-75437618D02*
X132090438Y-75342380D01*
X132090438Y-75342380D02*
X132042819Y-75247142D01*
X133042819Y-74389999D02*
X132042819Y-74389999D01*
X132042819Y-74389999D02*
X133042819Y-73818571D01*
X133042819Y-73818571D02*
X132042819Y-73818571D01*
X132519009Y-73342380D02*
X132519009Y-73009047D01*
X133042819Y-72866190D02*
X133042819Y-73342380D01*
X133042819Y-73342380D02*
X132042819Y-73342380D01*
X132042819Y-73342380D02*
X132042819Y-72866190D01*
X132661866Y-72437618D02*
X132661866Y-71675714D01*
X132519009Y-70866190D02*
X132566628Y-70723333D01*
X132566628Y-70723333D02*
X132614247Y-70675714D01*
X132614247Y-70675714D02*
X132709485Y-70628095D01*
X132709485Y-70628095D02*
X132852342Y-70628095D01*
X132852342Y-70628095D02*
X132947580Y-70675714D01*
X132947580Y-70675714D02*
X132995200Y-70723333D01*
X132995200Y-70723333D02*
X133042819Y-70818571D01*
X133042819Y-70818571D02*
X133042819Y-71199523D01*
X133042819Y-71199523D02*
X132042819Y-71199523D01*
X132042819Y-71199523D02*
X132042819Y-70866190D01*
X132042819Y-70866190D02*
X132090438Y-70770952D01*
X132090438Y-70770952D02*
X132138057Y-70723333D01*
X132138057Y-70723333D02*
X132233295Y-70675714D01*
X132233295Y-70675714D02*
X132328533Y-70675714D01*
X132328533Y-70675714D02*
X132423771Y-70723333D01*
X132423771Y-70723333D02*
X132471390Y-70770952D01*
X132471390Y-70770952D02*
X132519009Y-70866190D01*
X132519009Y-70866190D02*
X132519009Y-71199523D01*
X133042819Y-69675714D02*
X133042819Y-70247142D01*
X133042819Y-69961428D02*
X132042819Y-69961428D01*
X132042819Y-69961428D02*
X132185676Y-70056666D01*
X132185676Y-70056666D02*
X132280914Y-70151904D01*
X132280914Y-70151904D02*
X132328533Y-70247142D01*
X132042819Y-69056666D02*
X132042819Y-68961428D01*
X132042819Y-68961428D02*
X132090438Y-68866190D01*
X132090438Y-68866190D02*
X132138057Y-68818571D01*
X132138057Y-68818571D02*
X132233295Y-68770952D01*
X132233295Y-68770952D02*
X132423771Y-68723333D01*
X132423771Y-68723333D02*
X132661866Y-68723333D01*
X132661866Y-68723333D02*
X132852342Y-68770952D01*
X132852342Y-68770952D02*
X132947580Y-68818571D01*
X132947580Y-68818571D02*
X132995200Y-68866190D01*
X132995200Y-68866190D02*
X133042819Y-68961428D01*
X133042819Y-68961428D02*
X133042819Y-69056666D01*
X133042819Y-69056666D02*
X132995200Y-69151904D01*
X132995200Y-69151904D02*
X132947580Y-69199523D01*
X132947580Y-69199523D02*
X132852342Y-69247142D01*
X132852342Y-69247142D02*
X132661866Y-69294761D01*
X132661866Y-69294761D02*
X132423771Y-69294761D01*
X132423771Y-69294761D02*
X132233295Y-69247142D01*
X132233295Y-69247142D02*
X132138057Y-69199523D01*
X132138057Y-69199523D02*
X132090438Y-69151904D01*
X132090438Y-69151904D02*
X132042819Y-69056666D01*
X132042819Y-68104285D02*
X132042819Y-68009047D01*
X132042819Y-68009047D02*
X132090438Y-67913809D01*
X132090438Y-67913809D02*
X132138057Y-67866190D01*
X132138057Y-67866190D02*
X132233295Y-67818571D01*
X132233295Y-67818571D02*
X132423771Y-67770952D01*
X132423771Y-67770952D02*
X132661866Y-67770952D01*
X132661866Y-67770952D02*
X132852342Y-67818571D01*
X132852342Y-67818571D02*
X132947580Y-67866190D01*
X132947580Y-67866190D02*
X132995200Y-67913809D01*
X132995200Y-67913809D02*
X133042819Y-68009047D01*
X133042819Y-68009047D02*
X133042819Y-68104285D01*
X133042819Y-68104285D02*
X132995200Y-68199523D01*
X132995200Y-68199523D02*
X132947580Y-68247142D01*
X132947580Y-68247142D02*
X132852342Y-68294761D01*
X132852342Y-68294761D02*
X132661866Y-68342380D01*
X132661866Y-68342380D02*
X132423771Y-68342380D01*
X132423771Y-68342380D02*
X132233295Y-68294761D01*
X132233295Y-68294761D02*
X132138057Y-68247142D01*
X132138057Y-68247142D02*
X132090438Y-68199523D01*
X132090438Y-68199523D02*
X132042819Y-68104285D01*
X133042819Y-67342380D02*
X132042819Y-67342380D01*
X133042819Y-66770952D02*
X132471390Y-67199523D01*
X132042819Y-66770952D02*
X132614247Y-67342380D01*
X176172952Y-81734819D02*
X175601524Y-81734819D01*
X175887238Y-81734819D02*
X175887238Y-80734819D01*
X175887238Y-80734819D02*
X175792000Y-80877676D01*
X175792000Y-80877676D02*
X175696762Y-80972914D01*
X175696762Y-80972914D02*
X175601524Y-81020533D01*
X176792000Y-80734819D02*
X176887238Y-80734819D01*
X176887238Y-80734819D02*
X176982476Y-80782438D01*
X176982476Y-80782438D02*
X177030095Y-80830057D01*
X177030095Y-80830057D02*
X177077714Y-80925295D01*
X177077714Y-80925295D02*
X177125333Y-81115771D01*
X177125333Y-81115771D02*
X177125333Y-81353866D01*
X177125333Y-81353866D02*
X177077714Y-81544342D01*
X177077714Y-81544342D02*
X177030095Y-81639580D01*
X177030095Y-81639580D02*
X176982476Y-81687200D01*
X176982476Y-81687200D02*
X176887238Y-81734819D01*
X176887238Y-81734819D02*
X176792000Y-81734819D01*
X176792000Y-81734819D02*
X176696762Y-81687200D01*
X176696762Y-81687200D02*
X176649143Y-81639580D01*
X176649143Y-81639580D02*
X176601524Y-81544342D01*
X176601524Y-81544342D02*
X176553905Y-81353866D01*
X176553905Y-81353866D02*
X176553905Y-81115771D01*
X176553905Y-81115771D02*
X176601524Y-80925295D01*
X176601524Y-80925295D02*
X176649143Y-80830057D01*
X176649143Y-80830057D02*
X176696762Y-80782438D01*
X176696762Y-80782438D02*
X176792000Y-80734819D01*
X177744381Y-80734819D02*
X177839619Y-80734819D01*
X177839619Y-80734819D02*
X177934857Y-80782438D01*
X177934857Y-80782438D02*
X177982476Y-80830057D01*
X177982476Y-80830057D02*
X178030095Y-80925295D01*
X178030095Y-80925295D02*
X178077714Y-81115771D01*
X178077714Y-81115771D02*
X178077714Y-81353866D01*
X178077714Y-81353866D02*
X178030095Y-81544342D01*
X178030095Y-81544342D02*
X177982476Y-81639580D01*
X177982476Y-81639580D02*
X177934857Y-81687200D01*
X177934857Y-81687200D02*
X177839619Y-81734819D01*
X177839619Y-81734819D02*
X177744381Y-81734819D01*
X177744381Y-81734819D02*
X177649143Y-81687200D01*
X177649143Y-81687200D02*
X177601524Y-81639580D01*
X177601524Y-81639580D02*
X177553905Y-81544342D01*
X177553905Y-81544342D02*
X177506286Y-81353866D01*
X177506286Y-81353866D02*
X177506286Y-81115771D01*
X177506286Y-81115771D02*
X177553905Y-80925295D01*
X177553905Y-80925295D02*
X177601524Y-80830057D01*
X177601524Y-80830057D02*
X177649143Y-80782438D01*
X177649143Y-80782438D02*
X177744381Y-80734819D01*
X178506286Y-81068152D02*
X178506286Y-81734819D01*
X178506286Y-81163390D02*
X178553905Y-81115771D01*
X178553905Y-81115771D02*
X178649143Y-81068152D01*
X178649143Y-81068152D02*
X178792000Y-81068152D01*
X178792000Y-81068152D02*
X178887238Y-81115771D01*
X178887238Y-81115771D02*
X178934857Y-81211009D01*
X178934857Y-81211009D02*
X178934857Y-81734819D01*
X161091714Y-86068819D02*
X161710761Y-86068819D01*
X161710761Y-86068819D02*
X161377428Y-86449771D01*
X161377428Y-86449771D02*
X161520285Y-86449771D01*
X161520285Y-86449771D02*
X161615523Y-86497390D01*
X161615523Y-86497390D02*
X161663142Y-86545009D01*
X161663142Y-86545009D02*
X161710761Y-86640247D01*
X161710761Y-86640247D02*
X161710761Y-86878342D01*
X161710761Y-86878342D02*
X161663142Y-86973580D01*
X161663142Y-86973580D02*
X161615523Y-87021200D01*
X161615523Y-87021200D02*
X161520285Y-87068819D01*
X161520285Y-87068819D02*
X161234571Y-87068819D01*
X161234571Y-87068819D02*
X161139333Y-87021200D01*
X161139333Y-87021200D02*
X161091714Y-86973580D01*
X162044095Y-86068819D02*
X162663142Y-86068819D01*
X162663142Y-86068819D02*
X162329809Y-86449771D01*
X162329809Y-86449771D02*
X162472666Y-86449771D01*
X162472666Y-86449771D02*
X162567904Y-86497390D01*
X162567904Y-86497390D02*
X162615523Y-86545009D01*
X162615523Y-86545009D02*
X162663142Y-86640247D01*
X162663142Y-86640247D02*
X162663142Y-86878342D01*
X162663142Y-86878342D02*
X162615523Y-86973580D01*
X162615523Y-86973580D02*
X162567904Y-87021200D01*
X162567904Y-87021200D02*
X162472666Y-87068819D01*
X162472666Y-87068819D02*
X162186952Y-87068819D01*
X162186952Y-87068819D02*
X162091714Y-87021200D01*
X162091714Y-87021200D02*
X162044095Y-86973580D01*
X163091714Y-87068819D02*
X163091714Y-86068819D01*
X163186952Y-86687866D02*
X163472666Y-87068819D01*
X163472666Y-86402152D02*
X163091714Y-86783104D01*
X160824152Y-74620285D02*
X161490819Y-74620285D01*
X160443200Y-74858380D02*
X161157485Y-75096475D01*
X161157485Y-75096475D02*
X161157485Y-74477428D01*
X160490819Y-74191713D02*
X160490819Y-73525047D01*
X160490819Y-73525047D02*
X161490819Y-73953618D01*
X160490819Y-72953618D02*
X160490819Y-72858380D01*
X160490819Y-72858380D02*
X160538438Y-72763142D01*
X160538438Y-72763142D02*
X160586057Y-72715523D01*
X160586057Y-72715523D02*
X160681295Y-72667904D01*
X160681295Y-72667904D02*
X160871771Y-72620285D01*
X160871771Y-72620285D02*
X161109866Y-72620285D01*
X161109866Y-72620285D02*
X161300342Y-72667904D01*
X161300342Y-72667904D02*
X161395580Y-72715523D01*
X161395580Y-72715523D02*
X161443200Y-72763142D01*
X161443200Y-72763142D02*
X161490819Y-72858380D01*
X161490819Y-72858380D02*
X161490819Y-72953618D01*
X161490819Y-72953618D02*
X161443200Y-73048856D01*
X161443200Y-73048856D02*
X161395580Y-73096475D01*
X161395580Y-73096475D02*
X161300342Y-73144094D01*
X161300342Y-73144094D02*
X161109866Y-73191713D01*
X161109866Y-73191713D02*
X160871771Y-73191713D01*
X160871771Y-73191713D02*
X160681295Y-73144094D01*
X160681295Y-73144094D02*
X160586057Y-73096475D01*
X160586057Y-73096475D02*
X160538438Y-73048856D01*
X160538438Y-73048856D02*
X160490819Y-72953618D01*
X160824152Y-72191713D02*
X161824152Y-72191713D01*
X160871771Y-72191713D02*
X160824152Y-72096475D01*
X160824152Y-72096475D02*
X160824152Y-71905999D01*
X160824152Y-71905999D02*
X160871771Y-71810761D01*
X160871771Y-71810761D02*
X160919390Y-71763142D01*
X160919390Y-71763142D02*
X161014628Y-71715523D01*
X161014628Y-71715523D02*
X161300342Y-71715523D01*
X161300342Y-71715523D02*
X161395580Y-71763142D01*
X161395580Y-71763142D02*
X161443200Y-71810761D01*
X161443200Y-71810761D02*
X161490819Y-71905999D01*
X161490819Y-71905999D02*
X161490819Y-72096475D01*
X161490819Y-72096475D02*
X161443200Y-72191713D01*
X158792152Y-82700666D02*
X159458819Y-82700666D01*
X158411200Y-82938761D02*
X159125485Y-83176856D01*
X159125485Y-83176856D02*
X159125485Y-82557809D01*
X158458819Y-82272094D02*
X158458819Y-81605428D01*
X158458819Y-81605428D02*
X159458819Y-82033999D01*
X158458819Y-81033999D02*
X158458819Y-80938761D01*
X158458819Y-80938761D02*
X158506438Y-80843523D01*
X158506438Y-80843523D02*
X158554057Y-80795904D01*
X158554057Y-80795904D02*
X158649295Y-80748285D01*
X158649295Y-80748285D02*
X158839771Y-80700666D01*
X158839771Y-80700666D02*
X159077866Y-80700666D01*
X159077866Y-80700666D02*
X159268342Y-80748285D01*
X159268342Y-80748285D02*
X159363580Y-80795904D01*
X159363580Y-80795904D02*
X159411200Y-80843523D01*
X159411200Y-80843523D02*
X159458819Y-80938761D01*
X159458819Y-80938761D02*
X159458819Y-81033999D01*
X159458819Y-81033999D02*
X159411200Y-81129237D01*
X159411200Y-81129237D02*
X159363580Y-81176856D01*
X159363580Y-81176856D02*
X159268342Y-81224475D01*
X159268342Y-81224475D02*
X159077866Y-81272094D01*
X159077866Y-81272094D02*
X158839771Y-81272094D01*
X158839771Y-81272094D02*
X158649295Y-81224475D01*
X158649295Y-81224475D02*
X158554057Y-81176856D01*
X158554057Y-81176856D02*
X158506438Y-81129237D01*
X158506438Y-81129237D02*
X158458819Y-81033999D01*
X159458819Y-80272094D02*
X158458819Y-80272094D01*
X159077866Y-80176856D02*
X159458819Y-79891142D01*
X158792152Y-79891142D02*
X159173104Y-80272094D01*
X158792152Y-74620285D02*
X159458819Y-74620285D01*
X158411200Y-74858380D02*
X159125485Y-75096475D01*
X159125485Y-75096475D02*
X159125485Y-74477428D01*
X158458819Y-74191713D02*
X158458819Y-73525047D01*
X158458819Y-73525047D02*
X159458819Y-73953618D01*
X158458819Y-72953618D02*
X158458819Y-72858380D01*
X158458819Y-72858380D02*
X158506438Y-72763142D01*
X158506438Y-72763142D02*
X158554057Y-72715523D01*
X158554057Y-72715523D02*
X158649295Y-72667904D01*
X158649295Y-72667904D02*
X158839771Y-72620285D01*
X158839771Y-72620285D02*
X159077866Y-72620285D01*
X159077866Y-72620285D02*
X159268342Y-72667904D01*
X159268342Y-72667904D02*
X159363580Y-72715523D01*
X159363580Y-72715523D02*
X159411200Y-72763142D01*
X159411200Y-72763142D02*
X159458819Y-72858380D01*
X159458819Y-72858380D02*
X159458819Y-72953618D01*
X159458819Y-72953618D02*
X159411200Y-73048856D01*
X159411200Y-73048856D02*
X159363580Y-73096475D01*
X159363580Y-73096475D02*
X159268342Y-73144094D01*
X159268342Y-73144094D02*
X159077866Y-73191713D01*
X159077866Y-73191713D02*
X158839771Y-73191713D01*
X158839771Y-73191713D02*
X158649295Y-73144094D01*
X158649295Y-73144094D02*
X158554057Y-73096475D01*
X158554057Y-73096475D02*
X158506438Y-73048856D01*
X158506438Y-73048856D02*
X158458819Y-72953618D01*
X158792152Y-72191713D02*
X159792152Y-72191713D01*
X158839771Y-72191713D02*
X158792152Y-72096475D01*
X158792152Y-72096475D02*
X158792152Y-71905999D01*
X158792152Y-71905999D02*
X158839771Y-71810761D01*
X158839771Y-71810761D02*
X158887390Y-71763142D01*
X158887390Y-71763142D02*
X158982628Y-71715523D01*
X158982628Y-71715523D02*
X159268342Y-71715523D01*
X159268342Y-71715523D02*
X159363580Y-71763142D01*
X159363580Y-71763142D02*
X159411200Y-71810761D01*
X159411200Y-71810761D02*
X159458819Y-71905999D01*
X159458819Y-71905999D02*
X159458819Y-72096475D01*
X159458819Y-72096475D02*
X159411200Y-72191713D01*
X166062819Y-61825047D02*
X166062819Y-62396475D01*
X166062819Y-62110761D02*
X165062819Y-62110761D01*
X165062819Y-62110761D02*
X165205676Y-62205999D01*
X165205676Y-62205999D02*
X165300914Y-62301237D01*
X165300914Y-62301237D02*
X165348533Y-62396475D01*
X165062819Y-61205999D02*
X165062819Y-61110761D01*
X165062819Y-61110761D02*
X165110438Y-61015523D01*
X165110438Y-61015523D02*
X165158057Y-60967904D01*
X165158057Y-60967904D02*
X165253295Y-60920285D01*
X165253295Y-60920285D02*
X165443771Y-60872666D01*
X165443771Y-60872666D02*
X165681866Y-60872666D01*
X165681866Y-60872666D02*
X165872342Y-60920285D01*
X165872342Y-60920285D02*
X165967580Y-60967904D01*
X165967580Y-60967904D02*
X166015200Y-61015523D01*
X166015200Y-61015523D02*
X166062819Y-61110761D01*
X166062819Y-61110761D02*
X166062819Y-61205999D01*
X166062819Y-61205999D02*
X166015200Y-61301237D01*
X166015200Y-61301237D02*
X165967580Y-61348856D01*
X165967580Y-61348856D02*
X165872342Y-61396475D01*
X165872342Y-61396475D02*
X165681866Y-61444094D01*
X165681866Y-61444094D02*
X165443771Y-61444094D01*
X165443771Y-61444094D02*
X165253295Y-61396475D01*
X165253295Y-61396475D02*
X165158057Y-61348856D01*
X165158057Y-61348856D02*
X165110438Y-61301237D01*
X165110438Y-61301237D02*
X165062819Y-61205999D01*
X165062819Y-60253618D02*
X165062819Y-60158380D01*
X165062819Y-60158380D02*
X165110438Y-60063142D01*
X165110438Y-60063142D02*
X165158057Y-60015523D01*
X165158057Y-60015523D02*
X165253295Y-59967904D01*
X165253295Y-59967904D02*
X165443771Y-59920285D01*
X165443771Y-59920285D02*
X165681866Y-59920285D01*
X165681866Y-59920285D02*
X165872342Y-59967904D01*
X165872342Y-59967904D02*
X165967580Y-60015523D01*
X165967580Y-60015523D02*
X166015200Y-60063142D01*
X166015200Y-60063142D02*
X166062819Y-60158380D01*
X166062819Y-60158380D02*
X166062819Y-60253618D01*
X166062819Y-60253618D02*
X166015200Y-60348856D01*
X166015200Y-60348856D02*
X165967580Y-60396475D01*
X165967580Y-60396475D02*
X165872342Y-60444094D01*
X165872342Y-60444094D02*
X165681866Y-60491713D01*
X165681866Y-60491713D02*
X165443771Y-60491713D01*
X165443771Y-60491713D02*
X165253295Y-60444094D01*
X165253295Y-60444094D02*
X165158057Y-60396475D01*
X165158057Y-60396475D02*
X165110438Y-60348856D01*
X165110438Y-60348856D02*
X165062819Y-60253618D01*
X165396152Y-59491713D02*
X166062819Y-59491713D01*
X165491390Y-59491713D02*
X165443771Y-59444094D01*
X165443771Y-59444094D02*
X165396152Y-59348856D01*
X165396152Y-59348856D02*
X165396152Y-59205999D01*
X165396152Y-59205999D02*
X165443771Y-59110761D01*
X165443771Y-59110761D02*
X165539009Y-59063142D01*
X165539009Y-59063142D02*
X166062819Y-59063142D01*
X150822819Y-61825047D02*
X150822819Y-62396475D01*
X150822819Y-62110761D02*
X149822819Y-62110761D01*
X149822819Y-62110761D02*
X149965676Y-62205999D01*
X149965676Y-62205999D02*
X150060914Y-62301237D01*
X150060914Y-62301237D02*
X150108533Y-62396475D01*
X149822819Y-61205999D02*
X149822819Y-61110761D01*
X149822819Y-61110761D02*
X149870438Y-61015523D01*
X149870438Y-61015523D02*
X149918057Y-60967904D01*
X149918057Y-60967904D02*
X150013295Y-60920285D01*
X150013295Y-60920285D02*
X150203771Y-60872666D01*
X150203771Y-60872666D02*
X150441866Y-60872666D01*
X150441866Y-60872666D02*
X150632342Y-60920285D01*
X150632342Y-60920285D02*
X150727580Y-60967904D01*
X150727580Y-60967904D02*
X150775200Y-61015523D01*
X150775200Y-61015523D02*
X150822819Y-61110761D01*
X150822819Y-61110761D02*
X150822819Y-61205999D01*
X150822819Y-61205999D02*
X150775200Y-61301237D01*
X150775200Y-61301237D02*
X150727580Y-61348856D01*
X150727580Y-61348856D02*
X150632342Y-61396475D01*
X150632342Y-61396475D02*
X150441866Y-61444094D01*
X150441866Y-61444094D02*
X150203771Y-61444094D01*
X150203771Y-61444094D02*
X150013295Y-61396475D01*
X150013295Y-61396475D02*
X149918057Y-61348856D01*
X149918057Y-61348856D02*
X149870438Y-61301237D01*
X149870438Y-61301237D02*
X149822819Y-61205999D01*
X149822819Y-60253618D02*
X149822819Y-60158380D01*
X149822819Y-60158380D02*
X149870438Y-60063142D01*
X149870438Y-60063142D02*
X149918057Y-60015523D01*
X149918057Y-60015523D02*
X150013295Y-59967904D01*
X150013295Y-59967904D02*
X150203771Y-59920285D01*
X150203771Y-59920285D02*
X150441866Y-59920285D01*
X150441866Y-59920285D02*
X150632342Y-59967904D01*
X150632342Y-59967904D02*
X150727580Y-60015523D01*
X150727580Y-60015523D02*
X150775200Y-60063142D01*
X150775200Y-60063142D02*
X150822819Y-60158380D01*
X150822819Y-60158380D02*
X150822819Y-60253618D01*
X150822819Y-60253618D02*
X150775200Y-60348856D01*
X150775200Y-60348856D02*
X150727580Y-60396475D01*
X150727580Y-60396475D02*
X150632342Y-60444094D01*
X150632342Y-60444094D02*
X150441866Y-60491713D01*
X150441866Y-60491713D02*
X150203771Y-60491713D01*
X150203771Y-60491713D02*
X150013295Y-60444094D01*
X150013295Y-60444094D02*
X149918057Y-60396475D01*
X149918057Y-60396475D02*
X149870438Y-60348856D01*
X149870438Y-60348856D02*
X149822819Y-60253618D01*
X150156152Y-59491713D02*
X150822819Y-59491713D01*
X150251390Y-59491713D02*
X150203771Y-59444094D01*
X150203771Y-59444094D02*
X150156152Y-59348856D01*
X150156152Y-59348856D02*
X150156152Y-59205999D01*
X150156152Y-59205999D02*
X150203771Y-59110761D01*
X150203771Y-59110761D02*
X150299009Y-59063142D01*
X150299009Y-59063142D02*
X150822819Y-59063142D01*
X147616152Y-86256666D02*
X148282819Y-86256666D01*
X147235200Y-86494761D02*
X147949485Y-86732856D01*
X147949485Y-86732856D02*
X147949485Y-86113809D01*
X147282819Y-85828094D02*
X147282819Y-85161428D01*
X147282819Y-85161428D02*
X148282819Y-85589999D01*
X147282819Y-84589999D02*
X147282819Y-84494761D01*
X147282819Y-84494761D02*
X147330438Y-84399523D01*
X147330438Y-84399523D02*
X147378057Y-84351904D01*
X147378057Y-84351904D02*
X147473295Y-84304285D01*
X147473295Y-84304285D02*
X147663771Y-84256666D01*
X147663771Y-84256666D02*
X147901866Y-84256666D01*
X147901866Y-84256666D02*
X148092342Y-84304285D01*
X148092342Y-84304285D02*
X148187580Y-84351904D01*
X148187580Y-84351904D02*
X148235200Y-84399523D01*
X148235200Y-84399523D02*
X148282819Y-84494761D01*
X148282819Y-84494761D02*
X148282819Y-84589999D01*
X148282819Y-84589999D02*
X148235200Y-84685237D01*
X148235200Y-84685237D02*
X148187580Y-84732856D01*
X148187580Y-84732856D02*
X148092342Y-84780475D01*
X148092342Y-84780475D02*
X147901866Y-84828094D01*
X147901866Y-84828094D02*
X147663771Y-84828094D01*
X147663771Y-84828094D02*
X147473295Y-84780475D01*
X147473295Y-84780475D02*
X147378057Y-84732856D01*
X147378057Y-84732856D02*
X147330438Y-84685237D01*
X147330438Y-84685237D02*
X147282819Y-84589999D01*
X148282819Y-83828094D02*
X147282819Y-83828094D01*
X147901866Y-83732856D02*
X148282819Y-83447142D01*
X147616152Y-83447142D02*
X147997104Y-83828094D01*
X147774819Y-71604094D02*
X146774819Y-71604094D01*
X146774819Y-71604094D02*
X146774819Y-71365999D01*
X146774819Y-71365999D02*
X146822438Y-71223142D01*
X146822438Y-71223142D02*
X146917676Y-71127904D01*
X146917676Y-71127904D02*
X147012914Y-71080285D01*
X147012914Y-71080285D02*
X147203390Y-71032666D01*
X147203390Y-71032666D02*
X147346247Y-71032666D01*
X147346247Y-71032666D02*
X147536723Y-71080285D01*
X147536723Y-71080285D02*
X147631961Y-71127904D01*
X147631961Y-71127904D02*
X147727200Y-71223142D01*
X147727200Y-71223142D02*
X147774819Y-71365999D01*
X147774819Y-71365999D02*
X147774819Y-71604094D01*
X147108152Y-70175523D02*
X147774819Y-70175523D01*
X146727200Y-70413618D02*
X147441485Y-70651713D01*
X147441485Y-70651713D02*
X147441485Y-70032666D01*
X187900819Y-64515238D02*
X187424628Y-64848571D01*
X187900819Y-65086666D02*
X186900819Y-65086666D01*
X186900819Y-65086666D02*
X186900819Y-64705714D01*
X186900819Y-64705714D02*
X186948438Y-64610476D01*
X186948438Y-64610476D02*
X186996057Y-64562857D01*
X186996057Y-64562857D02*
X187091295Y-64515238D01*
X187091295Y-64515238D02*
X187234152Y-64515238D01*
X187234152Y-64515238D02*
X187329390Y-64562857D01*
X187329390Y-64562857D02*
X187377009Y-64610476D01*
X187377009Y-64610476D02*
X187424628Y-64705714D01*
X187424628Y-64705714D02*
X187424628Y-65086666D01*
X187996057Y-64324762D02*
X187996057Y-63562857D01*
X187853200Y-63372380D02*
X187900819Y-63229523D01*
X187900819Y-63229523D02*
X187900819Y-62991428D01*
X187900819Y-62991428D02*
X187853200Y-62896190D01*
X187853200Y-62896190D02*
X187805580Y-62848571D01*
X187805580Y-62848571D02*
X187710342Y-62800952D01*
X187710342Y-62800952D02*
X187615104Y-62800952D01*
X187615104Y-62800952D02*
X187519866Y-62848571D01*
X187519866Y-62848571D02*
X187472247Y-62896190D01*
X187472247Y-62896190D02*
X187424628Y-62991428D01*
X187424628Y-62991428D02*
X187377009Y-63181904D01*
X187377009Y-63181904D02*
X187329390Y-63277142D01*
X187329390Y-63277142D02*
X187281771Y-63324761D01*
X187281771Y-63324761D02*
X187186533Y-63372380D01*
X187186533Y-63372380D02*
X187091295Y-63372380D01*
X187091295Y-63372380D02*
X186996057Y-63324761D01*
X186996057Y-63324761D02*
X186948438Y-63277142D01*
X186948438Y-63277142D02*
X186900819Y-63181904D01*
X186900819Y-63181904D02*
X186900819Y-62943809D01*
X186900819Y-62943809D02*
X186948438Y-62800952D01*
X186900819Y-62372380D02*
X187710342Y-62372380D01*
X187710342Y-62372380D02*
X187805580Y-62324761D01*
X187805580Y-62324761D02*
X187853200Y-62277142D01*
X187853200Y-62277142D02*
X187900819Y-62181904D01*
X187900819Y-62181904D02*
X187900819Y-61991428D01*
X187900819Y-61991428D02*
X187853200Y-61896190D01*
X187853200Y-61896190D02*
X187805580Y-61848571D01*
X187805580Y-61848571D02*
X187710342Y-61800952D01*
X187710342Y-61800952D02*
X186900819Y-61800952D01*
X187853200Y-61372380D02*
X187900819Y-61229523D01*
X187900819Y-61229523D02*
X187900819Y-60991428D01*
X187900819Y-60991428D02*
X187853200Y-60896190D01*
X187853200Y-60896190D02*
X187805580Y-60848571D01*
X187805580Y-60848571D02*
X187710342Y-60800952D01*
X187710342Y-60800952D02*
X187615104Y-60800952D01*
X187615104Y-60800952D02*
X187519866Y-60848571D01*
X187519866Y-60848571D02*
X187472247Y-60896190D01*
X187472247Y-60896190D02*
X187424628Y-60991428D01*
X187424628Y-60991428D02*
X187377009Y-61181904D01*
X187377009Y-61181904D02*
X187329390Y-61277142D01*
X187329390Y-61277142D02*
X187281771Y-61324761D01*
X187281771Y-61324761D02*
X187186533Y-61372380D01*
X187186533Y-61372380D02*
X187091295Y-61372380D01*
X187091295Y-61372380D02*
X186996057Y-61324761D01*
X186996057Y-61324761D02*
X186948438Y-61277142D01*
X186948438Y-61277142D02*
X186900819Y-61181904D01*
X186900819Y-61181904D02*
X186900819Y-60943809D01*
X186900819Y-60943809D02*
X186948438Y-60800952D01*
X186900819Y-60515237D02*
X186900819Y-59943809D01*
X187900819Y-60229523D02*
X186900819Y-60229523D01*
X187615104Y-59658094D02*
X187615104Y-59181904D01*
X187900819Y-59753332D02*
X186900819Y-59419999D01*
X186900819Y-59419999D02*
X187900819Y-59086666D01*
X187900819Y-58753332D02*
X186900819Y-58753332D01*
X187900819Y-58277142D02*
X186900819Y-58277142D01*
X186900819Y-58277142D02*
X187900819Y-57705714D01*
X187900819Y-57705714D02*
X186900819Y-57705714D01*
X187519866Y-57229523D02*
X187519866Y-56467619D01*
X187615104Y-56039047D02*
X187615104Y-55562857D01*
X187900819Y-56134285D02*
X186900819Y-55800952D01*
X186900819Y-55800952D02*
X187900819Y-55467619D01*
X187900819Y-54610476D02*
X187900819Y-55181904D01*
X187900819Y-54896190D02*
X186900819Y-54896190D01*
X186900819Y-54896190D02*
X187043676Y-54991428D01*
X187043676Y-54991428D02*
X187138914Y-55086666D01*
X187138914Y-55086666D02*
X187186533Y-55181904D01*
X186900819Y-53991428D02*
X186900819Y-53896190D01*
X186900819Y-53896190D02*
X186948438Y-53800952D01*
X186948438Y-53800952D02*
X186996057Y-53753333D01*
X186996057Y-53753333D02*
X187091295Y-53705714D01*
X187091295Y-53705714D02*
X187281771Y-53658095D01*
X187281771Y-53658095D02*
X187519866Y-53658095D01*
X187519866Y-53658095D02*
X187710342Y-53705714D01*
X187710342Y-53705714D02*
X187805580Y-53753333D01*
X187805580Y-53753333D02*
X187853200Y-53800952D01*
X187853200Y-53800952D02*
X187900819Y-53896190D01*
X187900819Y-53896190D02*
X187900819Y-53991428D01*
X187900819Y-53991428D02*
X187853200Y-54086666D01*
X187853200Y-54086666D02*
X187805580Y-54134285D01*
X187805580Y-54134285D02*
X187710342Y-54181904D01*
X187710342Y-54181904D02*
X187519866Y-54229523D01*
X187519866Y-54229523D02*
X187281771Y-54229523D01*
X187281771Y-54229523D02*
X187091295Y-54181904D01*
X187091295Y-54181904D02*
X186996057Y-54134285D01*
X186996057Y-54134285D02*
X186948438Y-54086666D01*
X186948438Y-54086666D02*
X186900819Y-53991428D01*
X186900819Y-53039047D02*
X186900819Y-52943809D01*
X186900819Y-52943809D02*
X186948438Y-52848571D01*
X186948438Y-52848571D02*
X186996057Y-52800952D01*
X186996057Y-52800952D02*
X187091295Y-52753333D01*
X187091295Y-52753333D02*
X187281771Y-52705714D01*
X187281771Y-52705714D02*
X187519866Y-52705714D01*
X187519866Y-52705714D02*
X187710342Y-52753333D01*
X187710342Y-52753333D02*
X187805580Y-52800952D01*
X187805580Y-52800952D02*
X187853200Y-52848571D01*
X187853200Y-52848571D02*
X187900819Y-52943809D01*
X187900819Y-52943809D02*
X187900819Y-53039047D01*
X187900819Y-53039047D02*
X187853200Y-53134285D01*
X187853200Y-53134285D02*
X187805580Y-53181904D01*
X187805580Y-53181904D02*
X187710342Y-53229523D01*
X187710342Y-53229523D02*
X187519866Y-53277142D01*
X187519866Y-53277142D02*
X187281771Y-53277142D01*
X187281771Y-53277142D02*
X187091295Y-53229523D01*
X187091295Y-53229523D02*
X186996057Y-53181904D01*
X186996057Y-53181904D02*
X186948438Y-53134285D01*
X186948438Y-53134285D02*
X186900819Y-53039047D01*
X187900819Y-52277142D02*
X186900819Y-52277142D01*
X187900819Y-51705714D02*
X187329390Y-52134285D01*
X186900819Y-51705714D02*
X187472247Y-52277142D01*
X177133333Y-91582819D02*
X176561905Y-91582819D01*
X176847619Y-91582819D02*
X176847619Y-90582819D01*
X176847619Y-90582819D02*
X176752381Y-90725676D01*
X176752381Y-90725676D02*
X176657143Y-90820914D01*
X176657143Y-90820914D02*
X176561905Y-90868533D01*
X177752381Y-90582819D02*
X177847619Y-90582819D01*
X177847619Y-90582819D02*
X177942857Y-90630438D01*
X177942857Y-90630438D02*
X177990476Y-90678057D01*
X177990476Y-90678057D02*
X178038095Y-90773295D01*
X178038095Y-90773295D02*
X178085714Y-90963771D01*
X178085714Y-90963771D02*
X178085714Y-91201866D01*
X178085714Y-91201866D02*
X178038095Y-91392342D01*
X178038095Y-91392342D02*
X177990476Y-91487580D01*
X177990476Y-91487580D02*
X177942857Y-91535200D01*
X177942857Y-91535200D02*
X177847619Y-91582819D01*
X177847619Y-91582819D02*
X177752381Y-91582819D01*
X177752381Y-91582819D02*
X177657143Y-91535200D01*
X177657143Y-91535200D02*
X177609524Y-91487580D01*
X177609524Y-91487580D02*
X177561905Y-91392342D01*
X177561905Y-91392342D02*
X177514286Y-91201866D01*
X177514286Y-91201866D02*
X177514286Y-90963771D01*
X177514286Y-90963771D02*
X177561905Y-90773295D01*
X177561905Y-90773295D02*
X177609524Y-90678057D01*
X177609524Y-90678057D02*
X177657143Y-90630438D01*
X177657143Y-90630438D02*
X177752381Y-90582819D01*
X178704762Y-90582819D02*
X178800000Y-90582819D01*
X178800000Y-90582819D02*
X178895238Y-90630438D01*
X178895238Y-90630438D02*
X178942857Y-90678057D01*
X178942857Y-90678057D02*
X178990476Y-90773295D01*
X178990476Y-90773295D02*
X179038095Y-90963771D01*
X179038095Y-90963771D02*
X179038095Y-91201866D01*
X179038095Y-91201866D02*
X178990476Y-91392342D01*
X178990476Y-91392342D02*
X178942857Y-91487580D01*
X178942857Y-91487580D02*
X178895238Y-91535200D01*
X178895238Y-91535200D02*
X178800000Y-91582819D01*
X178800000Y-91582819D02*
X178704762Y-91582819D01*
X178704762Y-91582819D02*
X178609524Y-91535200D01*
X178609524Y-91535200D02*
X178561905Y-91487580D01*
X178561905Y-91487580D02*
X178514286Y-91392342D01*
X178514286Y-91392342D02*
X178466667Y-91201866D01*
X178466667Y-91201866D02*
X178466667Y-90963771D01*
X178466667Y-90963771D02*
X178514286Y-90773295D01*
X178514286Y-90773295D02*
X178561905Y-90678057D01*
X178561905Y-90678057D02*
X178609524Y-90630438D01*
X178609524Y-90630438D02*
X178704762Y-90582819D01*
X170126819Y-53046285D02*
X170126819Y-53617713D01*
X170126819Y-53331999D02*
X169126819Y-53331999D01*
X169126819Y-53331999D02*
X169269676Y-53427237D01*
X169269676Y-53427237D02*
X169364914Y-53522475D01*
X169364914Y-53522475D02*
X169412533Y-53617713D01*
X170126819Y-52617713D02*
X169126819Y-52617713D01*
X170126819Y-52046285D02*
X169555390Y-52474856D01*
X169126819Y-52046285D02*
X169698247Y-52617713D01*
X157172819Y-109450094D02*
X156172819Y-109450094D01*
X156172819Y-109450094D02*
X156172819Y-109211999D01*
X156172819Y-109211999D02*
X156220438Y-109069142D01*
X156220438Y-109069142D02*
X156315676Y-108973904D01*
X156315676Y-108973904D02*
X156410914Y-108926285D01*
X156410914Y-108926285D02*
X156601390Y-108878666D01*
X156601390Y-108878666D02*
X156744247Y-108878666D01*
X156744247Y-108878666D02*
X156934723Y-108926285D01*
X156934723Y-108926285D02*
X157029961Y-108973904D01*
X157029961Y-108973904D02*
X157125200Y-109069142D01*
X157125200Y-109069142D02*
X157172819Y-109211999D01*
X157172819Y-109211999D02*
X157172819Y-109450094D01*
X156172819Y-107973904D02*
X156172819Y-108450094D01*
X156172819Y-108450094D02*
X156649009Y-108497713D01*
X156649009Y-108497713D02*
X156601390Y-108450094D01*
X156601390Y-108450094D02*
X156553771Y-108354856D01*
X156553771Y-108354856D02*
X156553771Y-108116761D01*
X156553771Y-108116761D02*
X156601390Y-108021523D01*
X156601390Y-108021523D02*
X156649009Y-107973904D01*
X156649009Y-107973904D02*
X156744247Y-107926285D01*
X156744247Y-107926285D02*
X156982342Y-107926285D01*
X156982342Y-107926285D02*
X157077580Y-107973904D01*
X157077580Y-107973904D02*
X157125200Y-108021523D01*
X157125200Y-108021523D02*
X157172819Y-108116761D01*
X157172819Y-108116761D02*
X157172819Y-108354856D01*
X157172819Y-108354856D02*
X157125200Y-108450094D01*
X157125200Y-108450094D02*
X157077580Y-108497713D01*
X186285333Y-90974152D02*
X186285333Y-91640819D01*
X186047238Y-90593200D02*
X185809143Y-91307485D01*
X185809143Y-91307485D02*
X186428190Y-91307485D01*
X186713905Y-90640819D02*
X187380571Y-90640819D01*
X187380571Y-90640819D02*
X186952000Y-91640819D01*
X187952000Y-90640819D02*
X188047238Y-90640819D01*
X188047238Y-90640819D02*
X188142476Y-90688438D01*
X188142476Y-90688438D02*
X188190095Y-90736057D01*
X188190095Y-90736057D02*
X188237714Y-90831295D01*
X188237714Y-90831295D02*
X188285333Y-91021771D01*
X188285333Y-91021771D02*
X188285333Y-91259866D01*
X188285333Y-91259866D02*
X188237714Y-91450342D01*
X188237714Y-91450342D02*
X188190095Y-91545580D01*
X188190095Y-91545580D02*
X188142476Y-91593200D01*
X188142476Y-91593200D02*
X188047238Y-91640819D01*
X188047238Y-91640819D02*
X187952000Y-91640819D01*
X187952000Y-91640819D02*
X187856762Y-91593200D01*
X187856762Y-91593200D02*
X187809143Y-91545580D01*
X187809143Y-91545580D02*
X187761524Y-91450342D01*
X187761524Y-91450342D02*
X187713905Y-91259866D01*
X187713905Y-91259866D02*
X187713905Y-91021771D01*
X187713905Y-91021771D02*
X187761524Y-90831295D01*
X187761524Y-90831295D02*
X187809143Y-90736057D01*
X187809143Y-90736057D02*
X187856762Y-90688438D01*
X187856762Y-90688438D02*
X187952000Y-90640819D01*
X188713905Y-91640819D02*
X188713905Y-90640819D01*
X188809143Y-91259866D02*
X189094857Y-91640819D01*
X189094857Y-90974152D02*
X188713905Y-91355104D01*
X131772819Y-90781047D02*
X131772819Y-91352475D01*
X131772819Y-91066761D02*
X130772819Y-91066761D01*
X130772819Y-91066761D02*
X130915676Y-91161999D01*
X130915676Y-91161999D02*
X131010914Y-91257237D01*
X131010914Y-91257237D02*
X131058533Y-91352475D01*
X130772819Y-90161999D02*
X130772819Y-90066761D01*
X130772819Y-90066761D02*
X130820438Y-89971523D01*
X130820438Y-89971523D02*
X130868057Y-89923904D01*
X130868057Y-89923904D02*
X130963295Y-89876285D01*
X130963295Y-89876285D02*
X131153771Y-89828666D01*
X131153771Y-89828666D02*
X131391866Y-89828666D01*
X131391866Y-89828666D02*
X131582342Y-89876285D01*
X131582342Y-89876285D02*
X131677580Y-89923904D01*
X131677580Y-89923904D02*
X131725200Y-89971523D01*
X131725200Y-89971523D02*
X131772819Y-90066761D01*
X131772819Y-90066761D02*
X131772819Y-90161999D01*
X131772819Y-90161999D02*
X131725200Y-90257237D01*
X131725200Y-90257237D02*
X131677580Y-90304856D01*
X131677580Y-90304856D02*
X131582342Y-90352475D01*
X131582342Y-90352475D02*
X131391866Y-90400094D01*
X131391866Y-90400094D02*
X131153771Y-90400094D01*
X131153771Y-90400094D02*
X130963295Y-90352475D01*
X130963295Y-90352475D02*
X130868057Y-90304856D01*
X130868057Y-90304856D02*
X130820438Y-90257237D01*
X130820438Y-90257237D02*
X130772819Y-90161999D01*
X130772819Y-89209618D02*
X130772819Y-89114380D01*
X130772819Y-89114380D02*
X130820438Y-89019142D01*
X130820438Y-89019142D02*
X130868057Y-88971523D01*
X130868057Y-88971523D02*
X130963295Y-88923904D01*
X130963295Y-88923904D02*
X131153771Y-88876285D01*
X131153771Y-88876285D02*
X131391866Y-88876285D01*
X131391866Y-88876285D02*
X131582342Y-88923904D01*
X131582342Y-88923904D02*
X131677580Y-88971523D01*
X131677580Y-88971523D02*
X131725200Y-89019142D01*
X131725200Y-89019142D02*
X131772819Y-89114380D01*
X131772819Y-89114380D02*
X131772819Y-89209618D01*
X131772819Y-89209618D02*
X131725200Y-89304856D01*
X131725200Y-89304856D02*
X131677580Y-89352475D01*
X131677580Y-89352475D02*
X131582342Y-89400094D01*
X131582342Y-89400094D02*
X131391866Y-89447713D01*
X131391866Y-89447713D02*
X131153771Y-89447713D01*
X131153771Y-89447713D02*
X130963295Y-89400094D01*
X130963295Y-89400094D02*
X130868057Y-89352475D01*
X130868057Y-89352475D02*
X130820438Y-89304856D01*
X130820438Y-89304856D02*
X130772819Y-89209618D01*
X131106152Y-88447713D02*
X131772819Y-88447713D01*
X131201390Y-88447713D02*
X131153771Y-88400094D01*
X131153771Y-88400094D02*
X131106152Y-88304856D01*
X131106152Y-88304856D02*
X131106152Y-88161999D01*
X131106152Y-88161999D02*
X131153771Y-88066761D01*
X131153771Y-88066761D02*
X131249009Y-88019142D01*
X131249009Y-88019142D02*
X131772819Y-88019142D01*
X154378819Y-82605428D02*
X154378819Y-83176856D01*
X154378819Y-82891142D02*
X153378819Y-82891142D01*
X153378819Y-82891142D02*
X153521676Y-82986380D01*
X153521676Y-82986380D02*
X153616914Y-83081618D01*
X153616914Y-83081618D02*
X153664533Y-83176856D01*
X153378819Y-81986380D02*
X153378819Y-81891142D01*
X153378819Y-81891142D02*
X153426438Y-81795904D01*
X153426438Y-81795904D02*
X153474057Y-81748285D01*
X153474057Y-81748285D02*
X153569295Y-81700666D01*
X153569295Y-81700666D02*
X153759771Y-81653047D01*
X153759771Y-81653047D02*
X153997866Y-81653047D01*
X153997866Y-81653047D02*
X154188342Y-81700666D01*
X154188342Y-81700666D02*
X154283580Y-81748285D01*
X154283580Y-81748285D02*
X154331200Y-81795904D01*
X154331200Y-81795904D02*
X154378819Y-81891142D01*
X154378819Y-81891142D02*
X154378819Y-81986380D01*
X154378819Y-81986380D02*
X154331200Y-82081618D01*
X154331200Y-82081618D02*
X154283580Y-82129237D01*
X154283580Y-82129237D02*
X154188342Y-82176856D01*
X154188342Y-82176856D02*
X153997866Y-82224475D01*
X153997866Y-82224475D02*
X153759771Y-82224475D01*
X153759771Y-82224475D02*
X153569295Y-82176856D01*
X153569295Y-82176856D02*
X153474057Y-82129237D01*
X153474057Y-82129237D02*
X153426438Y-82081618D01*
X153426438Y-82081618D02*
X153378819Y-81986380D01*
X153378819Y-81033999D02*
X153378819Y-80938761D01*
X153378819Y-80938761D02*
X153426438Y-80843523D01*
X153426438Y-80843523D02*
X153474057Y-80795904D01*
X153474057Y-80795904D02*
X153569295Y-80748285D01*
X153569295Y-80748285D02*
X153759771Y-80700666D01*
X153759771Y-80700666D02*
X153997866Y-80700666D01*
X153997866Y-80700666D02*
X154188342Y-80748285D01*
X154188342Y-80748285D02*
X154283580Y-80795904D01*
X154283580Y-80795904D02*
X154331200Y-80843523D01*
X154331200Y-80843523D02*
X154378819Y-80938761D01*
X154378819Y-80938761D02*
X154378819Y-81033999D01*
X154378819Y-81033999D02*
X154331200Y-81129237D01*
X154331200Y-81129237D02*
X154283580Y-81176856D01*
X154283580Y-81176856D02*
X154188342Y-81224475D01*
X154188342Y-81224475D02*
X153997866Y-81272094D01*
X153997866Y-81272094D02*
X153759771Y-81272094D01*
X153759771Y-81272094D02*
X153569295Y-81224475D01*
X153569295Y-81224475D02*
X153474057Y-81176856D01*
X153474057Y-81176856D02*
X153426438Y-81129237D01*
X153426438Y-81129237D02*
X153378819Y-81033999D01*
X154378819Y-80272094D02*
X153378819Y-80272094D01*
X153997866Y-80176856D02*
X154378819Y-79891142D01*
X153712152Y-79891142D02*
X154093104Y-80272094D01*
X165300819Y-103227047D02*
X165300819Y-103798475D01*
X165300819Y-103512761D02*
X164300819Y-103512761D01*
X164300819Y-103512761D02*
X164443676Y-103607999D01*
X164443676Y-103607999D02*
X164538914Y-103703237D01*
X164538914Y-103703237D02*
X164586533Y-103798475D01*
X164300819Y-102607999D02*
X164300819Y-102512761D01*
X164300819Y-102512761D02*
X164348438Y-102417523D01*
X164348438Y-102417523D02*
X164396057Y-102369904D01*
X164396057Y-102369904D02*
X164491295Y-102322285D01*
X164491295Y-102322285D02*
X164681771Y-102274666D01*
X164681771Y-102274666D02*
X164919866Y-102274666D01*
X164919866Y-102274666D02*
X165110342Y-102322285D01*
X165110342Y-102322285D02*
X165205580Y-102369904D01*
X165205580Y-102369904D02*
X165253200Y-102417523D01*
X165253200Y-102417523D02*
X165300819Y-102512761D01*
X165300819Y-102512761D02*
X165300819Y-102607999D01*
X165300819Y-102607999D02*
X165253200Y-102703237D01*
X165253200Y-102703237D02*
X165205580Y-102750856D01*
X165205580Y-102750856D02*
X165110342Y-102798475D01*
X165110342Y-102798475D02*
X164919866Y-102846094D01*
X164919866Y-102846094D02*
X164681771Y-102846094D01*
X164681771Y-102846094D02*
X164491295Y-102798475D01*
X164491295Y-102798475D02*
X164396057Y-102750856D01*
X164396057Y-102750856D02*
X164348438Y-102703237D01*
X164348438Y-102703237D02*
X164300819Y-102607999D01*
X164300819Y-101655618D02*
X164300819Y-101560380D01*
X164300819Y-101560380D02*
X164348438Y-101465142D01*
X164348438Y-101465142D02*
X164396057Y-101417523D01*
X164396057Y-101417523D02*
X164491295Y-101369904D01*
X164491295Y-101369904D02*
X164681771Y-101322285D01*
X164681771Y-101322285D02*
X164919866Y-101322285D01*
X164919866Y-101322285D02*
X165110342Y-101369904D01*
X165110342Y-101369904D02*
X165205580Y-101417523D01*
X165205580Y-101417523D02*
X165253200Y-101465142D01*
X165253200Y-101465142D02*
X165300819Y-101560380D01*
X165300819Y-101560380D02*
X165300819Y-101655618D01*
X165300819Y-101655618D02*
X165253200Y-101750856D01*
X165253200Y-101750856D02*
X165205580Y-101798475D01*
X165205580Y-101798475D02*
X165110342Y-101846094D01*
X165110342Y-101846094D02*
X164919866Y-101893713D01*
X164919866Y-101893713D02*
X164681771Y-101893713D01*
X164681771Y-101893713D02*
X164491295Y-101846094D01*
X164491295Y-101846094D02*
X164396057Y-101798475D01*
X164396057Y-101798475D02*
X164348438Y-101750856D01*
X164348438Y-101750856D02*
X164300819Y-101655618D01*
X164634152Y-100893713D02*
X165300819Y-100893713D01*
X164729390Y-100893713D02*
X164681771Y-100846094D01*
X164681771Y-100846094D02*
X164634152Y-100750856D01*
X164634152Y-100750856D02*
X164634152Y-100607999D01*
X164634152Y-100607999D02*
X164681771Y-100512761D01*
X164681771Y-100512761D02*
X164777009Y-100465142D01*
X164777009Y-100465142D02*
X165300819Y-100465142D01*
X147203390Y-79192285D02*
X147155771Y-79287523D01*
X147155771Y-79287523D02*
X147108152Y-79335142D01*
X147108152Y-79335142D02*
X147012914Y-79382761D01*
X147012914Y-79382761D02*
X146965295Y-79382761D01*
X146965295Y-79382761D02*
X146870057Y-79335142D01*
X146870057Y-79335142D02*
X146822438Y-79287523D01*
X146822438Y-79287523D02*
X146774819Y-79192285D01*
X146774819Y-79192285D02*
X146774819Y-79001809D01*
X146774819Y-79001809D02*
X146822438Y-78906571D01*
X146822438Y-78906571D02*
X146870057Y-78858952D01*
X146870057Y-78858952D02*
X146965295Y-78811333D01*
X146965295Y-78811333D02*
X147012914Y-78811333D01*
X147012914Y-78811333D02*
X147108152Y-78858952D01*
X147108152Y-78858952D02*
X147155771Y-78906571D01*
X147155771Y-78906571D02*
X147203390Y-79001809D01*
X147203390Y-79001809D02*
X147203390Y-79192285D01*
X147203390Y-79192285D02*
X147251009Y-79287523D01*
X147251009Y-79287523D02*
X147298628Y-79335142D01*
X147298628Y-79335142D02*
X147393866Y-79382761D01*
X147393866Y-79382761D02*
X147584342Y-79382761D01*
X147584342Y-79382761D02*
X147679580Y-79335142D01*
X147679580Y-79335142D02*
X147727200Y-79287523D01*
X147727200Y-79287523D02*
X147774819Y-79192285D01*
X147774819Y-79192285D02*
X147774819Y-79001809D01*
X147774819Y-79001809D02*
X147727200Y-78906571D01*
X147727200Y-78906571D02*
X147679580Y-78858952D01*
X147679580Y-78858952D02*
X147584342Y-78811333D01*
X147584342Y-78811333D02*
X147393866Y-78811333D01*
X147393866Y-78811333D02*
X147298628Y-78858952D01*
X147298628Y-78858952D02*
X147251009Y-78906571D01*
X147251009Y-78906571D02*
X147203390Y-79001809D01*
X147679580Y-78382761D02*
X147727200Y-78335142D01*
X147727200Y-78335142D02*
X147774819Y-78382761D01*
X147774819Y-78382761D02*
X147727200Y-78430380D01*
X147727200Y-78430380D02*
X147679580Y-78382761D01*
X147679580Y-78382761D02*
X147774819Y-78382761D01*
X146870057Y-77954190D02*
X146822438Y-77906571D01*
X146822438Y-77906571D02*
X146774819Y-77811333D01*
X146774819Y-77811333D02*
X146774819Y-77573238D01*
X146774819Y-77573238D02*
X146822438Y-77478000D01*
X146822438Y-77478000D02*
X146870057Y-77430381D01*
X146870057Y-77430381D02*
X146965295Y-77382762D01*
X146965295Y-77382762D02*
X147060533Y-77382762D01*
X147060533Y-77382762D02*
X147203390Y-77430381D01*
X147203390Y-77430381D02*
X147774819Y-78001809D01*
X147774819Y-78001809D02*
X147774819Y-77382762D01*
X147774819Y-76954190D02*
X146774819Y-76954190D01*
X147393866Y-76858952D02*
X147774819Y-76573238D01*
X147108152Y-76573238D02*
X147489104Y-76954190D01*
X160559761Y-69003057D02*
X160464523Y-68955438D01*
X160464523Y-68955438D02*
X160369285Y-68860200D01*
X160369285Y-68860200D02*
X160226428Y-68717342D01*
X160226428Y-68717342D02*
X160131190Y-68669723D01*
X160131190Y-68669723D02*
X160035952Y-68669723D01*
X160083571Y-68907819D02*
X159988333Y-68860200D01*
X159988333Y-68860200D02*
X159893095Y-68764961D01*
X159893095Y-68764961D02*
X159845476Y-68574485D01*
X159845476Y-68574485D02*
X159845476Y-68241152D01*
X159845476Y-68241152D02*
X159893095Y-68050676D01*
X159893095Y-68050676D02*
X159988333Y-67955438D01*
X159988333Y-67955438D02*
X160083571Y-67907819D01*
X160083571Y-67907819D02*
X160274047Y-67907819D01*
X160274047Y-67907819D02*
X160369285Y-67955438D01*
X160369285Y-67955438D02*
X160464523Y-68050676D01*
X160464523Y-68050676D02*
X160512142Y-68241152D01*
X160512142Y-68241152D02*
X160512142Y-68574485D01*
X160512142Y-68574485D02*
X160464523Y-68764961D01*
X160464523Y-68764961D02*
X160369285Y-68860200D01*
X160369285Y-68860200D02*
X160274047Y-68907819D01*
X160274047Y-68907819D02*
X160083571Y-68907819D01*
X160893095Y-68003057D02*
X160940714Y-67955438D01*
X160940714Y-67955438D02*
X161035952Y-67907819D01*
X161035952Y-67907819D02*
X161274047Y-67907819D01*
X161274047Y-67907819D02*
X161369285Y-67955438D01*
X161369285Y-67955438D02*
X161416904Y-68003057D01*
X161416904Y-68003057D02*
X161464523Y-68098295D01*
X161464523Y-68098295D02*
X161464523Y-68193533D01*
X161464523Y-68193533D02*
X161416904Y-68336390D01*
X161416904Y-68336390D02*
X160845476Y-68907819D01*
X160845476Y-68907819D02*
X161464523Y-68907819D01*
X172603390Y-78938285D02*
X172555771Y-79033523D01*
X172555771Y-79033523D02*
X172508152Y-79081142D01*
X172508152Y-79081142D02*
X172412914Y-79128761D01*
X172412914Y-79128761D02*
X172365295Y-79128761D01*
X172365295Y-79128761D02*
X172270057Y-79081142D01*
X172270057Y-79081142D02*
X172222438Y-79033523D01*
X172222438Y-79033523D02*
X172174819Y-78938285D01*
X172174819Y-78938285D02*
X172174819Y-78747809D01*
X172174819Y-78747809D02*
X172222438Y-78652571D01*
X172222438Y-78652571D02*
X172270057Y-78604952D01*
X172270057Y-78604952D02*
X172365295Y-78557333D01*
X172365295Y-78557333D02*
X172412914Y-78557333D01*
X172412914Y-78557333D02*
X172508152Y-78604952D01*
X172508152Y-78604952D02*
X172555771Y-78652571D01*
X172555771Y-78652571D02*
X172603390Y-78747809D01*
X172603390Y-78747809D02*
X172603390Y-78938285D01*
X172603390Y-78938285D02*
X172651009Y-79033523D01*
X172651009Y-79033523D02*
X172698628Y-79081142D01*
X172698628Y-79081142D02*
X172793866Y-79128761D01*
X172793866Y-79128761D02*
X172984342Y-79128761D01*
X172984342Y-79128761D02*
X173079580Y-79081142D01*
X173079580Y-79081142D02*
X173127200Y-79033523D01*
X173127200Y-79033523D02*
X173174819Y-78938285D01*
X173174819Y-78938285D02*
X173174819Y-78747809D01*
X173174819Y-78747809D02*
X173127200Y-78652571D01*
X173127200Y-78652571D02*
X173079580Y-78604952D01*
X173079580Y-78604952D02*
X172984342Y-78557333D01*
X172984342Y-78557333D02*
X172793866Y-78557333D01*
X172793866Y-78557333D02*
X172698628Y-78604952D01*
X172698628Y-78604952D02*
X172651009Y-78652571D01*
X172651009Y-78652571D02*
X172603390Y-78747809D01*
X173079580Y-78128761D02*
X173127200Y-78081142D01*
X173127200Y-78081142D02*
X173174819Y-78128761D01*
X173174819Y-78128761D02*
X173127200Y-78176380D01*
X173127200Y-78176380D02*
X173079580Y-78128761D01*
X173079580Y-78128761D02*
X173174819Y-78128761D01*
X172270057Y-77700190D02*
X172222438Y-77652571D01*
X172222438Y-77652571D02*
X172174819Y-77557333D01*
X172174819Y-77557333D02*
X172174819Y-77319238D01*
X172174819Y-77319238D02*
X172222438Y-77224000D01*
X172222438Y-77224000D02*
X172270057Y-77176381D01*
X172270057Y-77176381D02*
X172365295Y-77128762D01*
X172365295Y-77128762D02*
X172460533Y-77128762D01*
X172460533Y-77128762D02*
X172603390Y-77176381D01*
X172603390Y-77176381D02*
X173174819Y-77747809D01*
X173174819Y-77747809D02*
X173174819Y-77128762D01*
X173174819Y-76700190D02*
X172174819Y-76700190D01*
X172793866Y-76604952D02*
X173174819Y-76319238D01*
X172508152Y-76319238D02*
X172889104Y-76700190D01*
X172174819Y-86034380D02*
X172174819Y-85415333D01*
X172174819Y-85415333D02*
X172555771Y-85748666D01*
X172555771Y-85748666D02*
X172555771Y-85605809D01*
X172555771Y-85605809D02*
X172603390Y-85510571D01*
X172603390Y-85510571D02*
X172651009Y-85462952D01*
X172651009Y-85462952D02*
X172746247Y-85415333D01*
X172746247Y-85415333D02*
X172984342Y-85415333D01*
X172984342Y-85415333D02*
X173079580Y-85462952D01*
X173079580Y-85462952D02*
X173127200Y-85510571D01*
X173127200Y-85510571D02*
X173174819Y-85605809D01*
X173174819Y-85605809D02*
X173174819Y-85891523D01*
X173174819Y-85891523D02*
X173127200Y-85986761D01*
X173127200Y-85986761D02*
X173079580Y-86034380D01*
X173079580Y-84986761D02*
X173127200Y-84939142D01*
X173127200Y-84939142D02*
X173174819Y-84986761D01*
X173174819Y-84986761D02*
X173127200Y-85034380D01*
X173127200Y-85034380D02*
X173079580Y-84986761D01*
X173079580Y-84986761D02*
X173174819Y-84986761D01*
X172174819Y-84605809D02*
X172174819Y-83986762D01*
X172174819Y-83986762D02*
X172555771Y-84320095D01*
X172555771Y-84320095D02*
X172555771Y-84177238D01*
X172555771Y-84177238D02*
X172603390Y-84082000D01*
X172603390Y-84082000D02*
X172651009Y-84034381D01*
X172651009Y-84034381D02*
X172746247Y-83986762D01*
X172746247Y-83986762D02*
X172984342Y-83986762D01*
X172984342Y-83986762D02*
X173079580Y-84034381D01*
X173079580Y-84034381D02*
X173127200Y-84082000D01*
X173127200Y-84082000D02*
X173174819Y-84177238D01*
X173174819Y-84177238D02*
X173174819Y-84462952D01*
X173174819Y-84462952D02*
X173127200Y-84558190D01*
X173127200Y-84558190D02*
X173079580Y-84605809D01*
X173174819Y-83558190D02*
X172174819Y-83558190D01*
X172793866Y-83462952D02*
X173174819Y-83177238D01*
X172508152Y-83177238D02*
X172889104Y-83558190D01*
X170126819Y-61825047D02*
X170126819Y-62396475D01*
X170126819Y-62110761D02*
X169126819Y-62110761D01*
X169126819Y-62110761D02*
X169269676Y-62205999D01*
X169269676Y-62205999D02*
X169364914Y-62301237D01*
X169364914Y-62301237D02*
X169412533Y-62396475D01*
X169126819Y-61205999D02*
X169126819Y-61110761D01*
X169126819Y-61110761D02*
X169174438Y-61015523D01*
X169174438Y-61015523D02*
X169222057Y-60967904D01*
X169222057Y-60967904D02*
X169317295Y-60920285D01*
X169317295Y-60920285D02*
X169507771Y-60872666D01*
X169507771Y-60872666D02*
X169745866Y-60872666D01*
X169745866Y-60872666D02*
X169936342Y-60920285D01*
X169936342Y-60920285D02*
X170031580Y-60967904D01*
X170031580Y-60967904D02*
X170079200Y-61015523D01*
X170079200Y-61015523D02*
X170126819Y-61110761D01*
X170126819Y-61110761D02*
X170126819Y-61205999D01*
X170126819Y-61205999D02*
X170079200Y-61301237D01*
X170079200Y-61301237D02*
X170031580Y-61348856D01*
X170031580Y-61348856D02*
X169936342Y-61396475D01*
X169936342Y-61396475D02*
X169745866Y-61444094D01*
X169745866Y-61444094D02*
X169507771Y-61444094D01*
X169507771Y-61444094D02*
X169317295Y-61396475D01*
X169317295Y-61396475D02*
X169222057Y-61348856D01*
X169222057Y-61348856D02*
X169174438Y-61301237D01*
X169174438Y-61301237D02*
X169126819Y-61205999D01*
X169126819Y-60253618D02*
X169126819Y-60158380D01*
X169126819Y-60158380D02*
X169174438Y-60063142D01*
X169174438Y-60063142D02*
X169222057Y-60015523D01*
X169222057Y-60015523D02*
X169317295Y-59967904D01*
X169317295Y-59967904D02*
X169507771Y-59920285D01*
X169507771Y-59920285D02*
X169745866Y-59920285D01*
X169745866Y-59920285D02*
X169936342Y-59967904D01*
X169936342Y-59967904D02*
X170031580Y-60015523D01*
X170031580Y-60015523D02*
X170079200Y-60063142D01*
X170079200Y-60063142D02*
X170126819Y-60158380D01*
X170126819Y-60158380D02*
X170126819Y-60253618D01*
X170126819Y-60253618D02*
X170079200Y-60348856D01*
X170079200Y-60348856D02*
X170031580Y-60396475D01*
X170031580Y-60396475D02*
X169936342Y-60444094D01*
X169936342Y-60444094D02*
X169745866Y-60491713D01*
X169745866Y-60491713D02*
X169507771Y-60491713D01*
X169507771Y-60491713D02*
X169317295Y-60444094D01*
X169317295Y-60444094D02*
X169222057Y-60396475D01*
X169222057Y-60396475D02*
X169174438Y-60348856D01*
X169174438Y-60348856D02*
X169126819Y-60253618D01*
X169460152Y-59491713D02*
X170126819Y-59491713D01*
X169555390Y-59491713D02*
X169507771Y-59444094D01*
X169507771Y-59444094D02*
X169460152Y-59348856D01*
X169460152Y-59348856D02*
X169460152Y-59205999D01*
X169460152Y-59205999D02*
X169507771Y-59110761D01*
X169507771Y-59110761D02*
X169603009Y-59063142D01*
X169603009Y-59063142D02*
X170126819Y-59063142D01*
X173394761Y-91640819D02*
X172823333Y-91640819D01*
X173109047Y-91640819D02*
X173109047Y-90640819D01*
X173109047Y-90640819D02*
X173013809Y-90783676D01*
X173013809Y-90783676D02*
X172918571Y-90878914D01*
X172918571Y-90878914D02*
X172823333Y-90926533D01*
X174013809Y-90640819D02*
X174109047Y-90640819D01*
X174109047Y-90640819D02*
X174204285Y-90688438D01*
X174204285Y-90688438D02*
X174251904Y-90736057D01*
X174251904Y-90736057D02*
X174299523Y-90831295D01*
X174299523Y-90831295D02*
X174347142Y-91021771D01*
X174347142Y-91021771D02*
X174347142Y-91259866D01*
X174347142Y-91259866D02*
X174299523Y-91450342D01*
X174299523Y-91450342D02*
X174251904Y-91545580D01*
X174251904Y-91545580D02*
X174204285Y-91593200D01*
X174204285Y-91593200D02*
X174109047Y-91640819D01*
X174109047Y-91640819D02*
X174013809Y-91640819D01*
X174013809Y-91640819D02*
X173918571Y-91593200D01*
X173918571Y-91593200D02*
X173870952Y-91545580D01*
X173870952Y-91545580D02*
X173823333Y-91450342D01*
X173823333Y-91450342D02*
X173775714Y-91259866D01*
X173775714Y-91259866D02*
X173775714Y-91021771D01*
X173775714Y-91021771D02*
X173823333Y-90831295D01*
X173823333Y-90831295D02*
X173870952Y-90736057D01*
X173870952Y-90736057D02*
X173918571Y-90688438D01*
X173918571Y-90688438D02*
X174013809Y-90640819D01*
X174775714Y-91640819D02*
X174775714Y-90640819D01*
X174870952Y-91259866D02*
X175156666Y-91640819D01*
X175156666Y-90974152D02*
X174775714Y-91355104D01*
X161345714Y-90894819D02*
X161964761Y-90894819D01*
X161964761Y-90894819D02*
X161631428Y-91275771D01*
X161631428Y-91275771D02*
X161774285Y-91275771D01*
X161774285Y-91275771D02*
X161869523Y-91323390D01*
X161869523Y-91323390D02*
X161917142Y-91371009D01*
X161917142Y-91371009D02*
X161964761Y-91466247D01*
X161964761Y-91466247D02*
X161964761Y-91704342D01*
X161964761Y-91704342D02*
X161917142Y-91799580D01*
X161917142Y-91799580D02*
X161869523Y-91847200D01*
X161869523Y-91847200D02*
X161774285Y-91894819D01*
X161774285Y-91894819D02*
X161488571Y-91894819D01*
X161488571Y-91894819D02*
X161393333Y-91847200D01*
X161393333Y-91847200D02*
X161345714Y-91799580D01*
X162298095Y-90894819D02*
X162917142Y-90894819D01*
X162917142Y-90894819D02*
X162583809Y-91275771D01*
X162583809Y-91275771D02*
X162726666Y-91275771D01*
X162726666Y-91275771D02*
X162821904Y-91323390D01*
X162821904Y-91323390D02*
X162869523Y-91371009D01*
X162869523Y-91371009D02*
X162917142Y-91466247D01*
X162917142Y-91466247D02*
X162917142Y-91704342D01*
X162917142Y-91704342D02*
X162869523Y-91799580D01*
X162869523Y-91799580D02*
X162821904Y-91847200D01*
X162821904Y-91847200D02*
X162726666Y-91894819D01*
X162726666Y-91894819D02*
X162440952Y-91894819D01*
X162440952Y-91894819D02*
X162345714Y-91847200D01*
X162345714Y-91847200D02*
X162298095Y-91799580D01*
X163345714Y-91894819D02*
X163345714Y-90894819D01*
X163440952Y-91513866D02*
X163726666Y-91894819D01*
X163726666Y-91228152D02*
X163345714Y-91609104D01*
X154886819Y-61825047D02*
X154886819Y-62396475D01*
X154886819Y-62110761D02*
X153886819Y-62110761D01*
X153886819Y-62110761D02*
X154029676Y-62205999D01*
X154029676Y-62205999D02*
X154124914Y-62301237D01*
X154124914Y-62301237D02*
X154172533Y-62396475D01*
X153886819Y-61205999D02*
X153886819Y-61110761D01*
X153886819Y-61110761D02*
X153934438Y-61015523D01*
X153934438Y-61015523D02*
X153982057Y-60967904D01*
X153982057Y-60967904D02*
X154077295Y-60920285D01*
X154077295Y-60920285D02*
X154267771Y-60872666D01*
X154267771Y-60872666D02*
X154505866Y-60872666D01*
X154505866Y-60872666D02*
X154696342Y-60920285D01*
X154696342Y-60920285D02*
X154791580Y-60967904D01*
X154791580Y-60967904D02*
X154839200Y-61015523D01*
X154839200Y-61015523D02*
X154886819Y-61110761D01*
X154886819Y-61110761D02*
X154886819Y-61205999D01*
X154886819Y-61205999D02*
X154839200Y-61301237D01*
X154839200Y-61301237D02*
X154791580Y-61348856D01*
X154791580Y-61348856D02*
X154696342Y-61396475D01*
X154696342Y-61396475D02*
X154505866Y-61444094D01*
X154505866Y-61444094D02*
X154267771Y-61444094D01*
X154267771Y-61444094D02*
X154077295Y-61396475D01*
X154077295Y-61396475D02*
X153982057Y-61348856D01*
X153982057Y-61348856D02*
X153934438Y-61301237D01*
X153934438Y-61301237D02*
X153886819Y-61205999D01*
X153886819Y-60253618D02*
X153886819Y-60158380D01*
X153886819Y-60158380D02*
X153934438Y-60063142D01*
X153934438Y-60063142D02*
X153982057Y-60015523D01*
X153982057Y-60015523D02*
X154077295Y-59967904D01*
X154077295Y-59967904D02*
X154267771Y-59920285D01*
X154267771Y-59920285D02*
X154505866Y-59920285D01*
X154505866Y-59920285D02*
X154696342Y-59967904D01*
X154696342Y-59967904D02*
X154791580Y-60015523D01*
X154791580Y-60015523D02*
X154839200Y-60063142D01*
X154839200Y-60063142D02*
X154886819Y-60158380D01*
X154886819Y-60158380D02*
X154886819Y-60253618D01*
X154886819Y-60253618D02*
X154839200Y-60348856D01*
X154839200Y-60348856D02*
X154791580Y-60396475D01*
X154791580Y-60396475D02*
X154696342Y-60444094D01*
X154696342Y-60444094D02*
X154505866Y-60491713D01*
X154505866Y-60491713D02*
X154267771Y-60491713D01*
X154267771Y-60491713D02*
X154077295Y-60444094D01*
X154077295Y-60444094D02*
X153982057Y-60396475D01*
X153982057Y-60396475D02*
X153934438Y-60348856D01*
X153934438Y-60348856D02*
X153886819Y-60253618D01*
X154220152Y-59491713D02*
X154886819Y-59491713D01*
X154315390Y-59491713D02*
X154267771Y-59444094D01*
X154267771Y-59444094D02*
X154220152Y-59348856D01*
X154220152Y-59348856D02*
X154220152Y-59205999D01*
X154220152Y-59205999D02*
X154267771Y-59110761D01*
X154267771Y-59110761D02*
X154363009Y-59063142D01*
X154363009Y-59063142D02*
X154886819Y-59063142D01*
X144684761Y-80814057D02*
X144589523Y-80766438D01*
X144589523Y-80766438D02*
X144494285Y-80671200D01*
X144494285Y-80671200D02*
X144351428Y-80528342D01*
X144351428Y-80528342D02*
X144256190Y-80480723D01*
X144256190Y-80480723D02*
X144160952Y-80480723D01*
X144208571Y-80718819D02*
X144113333Y-80671200D01*
X144113333Y-80671200D02*
X144018095Y-80575961D01*
X144018095Y-80575961D02*
X143970476Y-80385485D01*
X143970476Y-80385485D02*
X143970476Y-80052152D01*
X143970476Y-80052152D02*
X144018095Y-79861676D01*
X144018095Y-79861676D02*
X144113333Y-79766438D01*
X144113333Y-79766438D02*
X144208571Y-79718819D01*
X144208571Y-79718819D02*
X144399047Y-79718819D01*
X144399047Y-79718819D02*
X144494285Y-79766438D01*
X144494285Y-79766438D02*
X144589523Y-79861676D01*
X144589523Y-79861676D02*
X144637142Y-80052152D01*
X144637142Y-80052152D02*
X144637142Y-80385485D01*
X144637142Y-80385485D02*
X144589523Y-80575961D01*
X144589523Y-80575961D02*
X144494285Y-80671200D01*
X144494285Y-80671200D02*
X144399047Y-80718819D01*
X144399047Y-80718819D02*
X144208571Y-80718819D01*
X145494285Y-80052152D02*
X145494285Y-80718819D01*
X145256190Y-79671200D02*
X145018095Y-80385485D01*
X145018095Y-80385485D02*
X145637142Y-80385485D01*
X187900819Y-75326380D02*
X187424628Y-75659713D01*
X187900819Y-75897808D02*
X186900819Y-75897808D01*
X186900819Y-75897808D02*
X186900819Y-75516856D01*
X186900819Y-75516856D02*
X186948438Y-75421618D01*
X186948438Y-75421618D02*
X186996057Y-75373999D01*
X186996057Y-75373999D02*
X187091295Y-75326380D01*
X187091295Y-75326380D02*
X187234152Y-75326380D01*
X187234152Y-75326380D02*
X187329390Y-75373999D01*
X187329390Y-75373999D02*
X187377009Y-75421618D01*
X187377009Y-75421618D02*
X187424628Y-75516856D01*
X187424628Y-75516856D02*
X187424628Y-75897808D01*
X187996057Y-75135904D02*
X187996057Y-74373999D01*
X187900819Y-74135903D02*
X186900819Y-74135903D01*
X186900819Y-74135903D02*
X187615104Y-73802570D01*
X187615104Y-73802570D02*
X186900819Y-73469237D01*
X186900819Y-73469237D02*
X187900819Y-73469237D01*
X187900819Y-72993046D02*
X186900819Y-72993046D01*
X187900819Y-72516856D02*
X186900819Y-72516856D01*
X186900819Y-72516856D02*
X186900819Y-72278761D01*
X186900819Y-72278761D02*
X186948438Y-72135904D01*
X186948438Y-72135904D02*
X187043676Y-72040666D01*
X187043676Y-72040666D02*
X187138914Y-71993047D01*
X187138914Y-71993047D02*
X187329390Y-71945428D01*
X187329390Y-71945428D02*
X187472247Y-71945428D01*
X187472247Y-71945428D02*
X187662723Y-71993047D01*
X187662723Y-71993047D02*
X187757961Y-72040666D01*
X187757961Y-72040666D02*
X187853200Y-72135904D01*
X187853200Y-72135904D02*
X187900819Y-72278761D01*
X187900819Y-72278761D02*
X187900819Y-72516856D01*
X187519866Y-71516856D02*
X187519866Y-70754952D01*
X187377009Y-69945428D02*
X187424628Y-69802571D01*
X187424628Y-69802571D02*
X187472247Y-69754952D01*
X187472247Y-69754952D02*
X187567485Y-69707333D01*
X187567485Y-69707333D02*
X187710342Y-69707333D01*
X187710342Y-69707333D02*
X187805580Y-69754952D01*
X187805580Y-69754952D02*
X187853200Y-69802571D01*
X187853200Y-69802571D02*
X187900819Y-69897809D01*
X187900819Y-69897809D02*
X187900819Y-70278761D01*
X187900819Y-70278761D02*
X186900819Y-70278761D01*
X186900819Y-70278761D02*
X186900819Y-69945428D01*
X186900819Y-69945428D02*
X186948438Y-69850190D01*
X186948438Y-69850190D02*
X186996057Y-69802571D01*
X186996057Y-69802571D02*
X187091295Y-69754952D01*
X187091295Y-69754952D02*
X187186533Y-69754952D01*
X187186533Y-69754952D02*
X187281771Y-69802571D01*
X187281771Y-69802571D02*
X187329390Y-69850190D01*
X187329390Y-69850190D02*
X187377009Y-69945428D01*
X187377009Y-69945428D02*
X187377009Y-70278761D01*
X186996057Y-69326380D02*
X186948438Y-69278761D01*
X186948438Y-69278761D02*
X186900819Y-69183523D01*
X186900819Y-69183523D02*
X186900819Y-68945428D01*
X186900819Y-68945428D02*
X186948438Y-68850190D01*
X186948438Y-68850190D02*
X186996057Y-68802571D01*
X186996057Y-68802571D02*
X187091295Y-68754952D01*
X187091295Y-68754952D02*
X187186533Y-68754952D01*
X187186533Y-68754952D02*
X187329390Y-68802571D01*
X187329390Y-68802571D02*
X187900819Y-69373999D01*
X187900819Y-69373999D02*
X187900819Y-68754952D01*
X186900819Y-67850190D02*
X186900819Y-68326380D01*
X186900819Y-68326380D02*
X187377009Y-68373999D01*
X187377009Y-68373999D02*
X187329390Y-68326380D01*
X187329390Y-68326380D02*
X187281771Y-68231142D01*
X187281771Y-68231142D02*
X187281771Y-67993047D01*
X187281771Y-67993047D02*
X187329390Y-67897809D01*
X187329390Y-67897809D02*
X187377009Y-67850190D01*
X187377009Y-67850190D02*
X187472247Y-67802571D01*
X187472247Y-67802571D02*
X187710342Y-67802571D01*
X187710342Y-67802571D02*
X187805580Y-67850190D01*
X187805580Y-67850190D02*
X187853200Y-67897809D01*
X187853200Y-67897809D02*
X187900819Y-67993047D01*
X187900819Y-67993047D02*
X187900819Y-68231142D01*
X187900819Y-68231142D02*
X187853200Y-68326380D01*
X187853200Y-68326380D02*
X187805580Y-68373999D01*
X187900819Y-67373999D02*
X186900819Y-67373999D01*
X187900819Y-66802571D02*
X187329390Y-67231142D01*
X186900819Y-66802571D02*
X187472247Y-67373999D01*
X157424571Y-91894819D02*
X156853143Y-91894819D01*
X157138857Y-91894819D02*
X157138857Y-90894819D01*
X157138857Y-90894819D02*
X157043619Y-91037676D01*
X157043619Y-91037676D02*
X156948381Y-91132914D01*
X156948381Y-91132914D02*
X156853143Y-91180533D01*
X158043619Y-90894819D02*
X158138857Y-90894819D01*
X158138857Y-90894819D02*
X158234095Y-90942438D01*
X158234095Y-90942438D02*
X158281714Y-90990057D01*
X158281714Y-90990057D02*
X158329333Y-91085295D01*
X158329333Y-91085295D02*
X158376952Y-91275771D01*
X158376952Y-91275771D02*
X158376952Y-91513866D01*
X158376952Y-91513866D02*
X158329333Y-91704342D01*
X158329333Y-91704342D02*
X158281714Y-91799580D01*
X158281714Y-91799580D02*
X158234095Y-91847200D01*
X158234095Y-91847200D02*
X158138857Y-91894819D01*
X158138857Y-91894819D02*
X158043619Y-91894819D01*
X158043619Y-91894819D02*
X157948381Y-91847200D01*
X157948381Y-91847200D02*
X157900762Y-91799580D01*
X157900762Y-91799580D02*
X157853143Y-91704342D01*
X157853143Y-91704342D02*
X157805524Y-91513866D01*
X157805524Y-91513866D02*
X157805524Y-91275771D01*
X157805524Y-91275771D02*
X157853143Y-91085295D01*
X157853143Y-91085295D02*
X157900762Y-90990057D01*
X157900762Y-90990057D02*
X157948381Y-90942438D01*
X157948381Y-90942438D02*
X158043619Y-90894819D01*
X158996000Y-90894819D02*
X159091238Y-90894819D01*
X159091238Y-90894819D02*
X159186476Y-90942438D01*
X159186476Y-90942438D02*
X159234095Y-90990057D01*
X159234095Y-90990057D02*
X159281714Y-91085295D01*
X159281714Y-91085295D02*
X159329333Y-91275771D01*
X159329333Y-91275771D02*
X159329333Y-91513866D01*
X159329333Y-91513866D02*
X159281714Y-91704342D01*
X159281714Y-91704342D02*
X159234095Y-91799580D01*
X159234095Y-91799580D02*
X159186476Y-91847200D01*
X159186476Y-91847200D02*
X159091238Y-91894819D01*
X159091238Y-91894819D02*
X158996000Y-91894819D01*
X158996000Y-91894819D02*
X158900762Y-91847200D01*
X158900762Y-91847200D02*
X158853143Y-91799580D01*
X158853143Y-91799580D02*
X158805524Y-91704342D01*
X158805524Y-91704342D02*
X158757905Y-91513866D01*
X158757905Y-91513866D02*
X158757905Y-91275771D01*
X158757905Y-91275771D02*
X158805524Y-91085295D01*
X158805524Y-91085295D02*
X158853143Y-90990057D01*
X158853143Y-90990057D02*
X158900762Y-90942438D01*
X158900762Y-90942438D02*
X158996000Y-90894819D01*
X159757905Y-91894819D02*
X159757905Y-90894819D01*
X159853143Y-91513866D02*
X160138857Y-91894819D01*
X160138857Y-91228152D02*
X159757905Y-91609104D01*
X183546761Y-91482057D02*
X183451523Y-91434438D01*
X183451523Y-91434438D02*
X183356285Y-91339200D01*
X183356285Y-91339200D02*
X183213428Y-91196342D01*
X183213428Y-91196342D02*
X183118190Y-91148723D01*
X183118190Y-91148723D02*
X183022952Y-91148723D01*
X183070571Y-91386819D02*
X182975333Y-91339200D01*
X182975333Y-91339200D02*
X182880095Y-91243961D01*
X182880095Y-91243961D02*
X182832476Y-91053485D01*
X182832476Y-91053485D02*
X182832476Y-90720152D01*
X182832476Y-90720152D02*
X182880095Y-90529676D01*
X182880095Y-90529676D02*
X182975333Y-90434438D01*
X182975333Y-90434438D02*
X183070571Y-90386819D01*
X183070571Y-90386819D02*
X183261047Y-90386819D01*
X183261047Y-90386819D02*
X183356285Y-90434438D01*
X183356285Y-90434438D02*
X183451523Y-90529676D01*
X183451523Y-90529676D02*
X183499142Y-90720152D01*
X183499142Y-90720152D02*
X183499142Y-91053485D01*
X183499142Y-91053485D02*
X183451523Y-91243961D01*
X183451523Y-91243961D02*
X183356285Y-91339200D01*
X183356285Y-91339200D02*
X183261047Y-91386819D01*
X183261047Y-91386819D02*
X183070571Y-91386819D01*
X184451523Y-91386819D02*
X183880095Y-91386819D01*
X184165809Y-91386819D02*
X184165809Y-90386819D01*
X184165809Y-90386819D02*
X184070571Y-90529676D01*
X184070571Y-90529676D02*
X183975333Y-90624914D01*
X183975333Y-90624914D02*
X183880095Y-90672533D01*
X154378819Y-75160094D02*
X153378819Y-75160094D01*
X153378819Y-75160094D02*
X153378819Y-74921999D01*
X153378819Y-74921999D02*
X153426438Y-74779142D01*
X153426438Y-74779142D02*
X153521676Y-74683904D01*
X153521676Y-74683904D02*
X153616914Y-74636285D01*
X153616914Y-74636285D02*
X153807390Y-74588666D01*
X153807390Y-74588666D02*
X153950247Y-74588666D01*
X153950247Y-74588666D02*
X154140723Y-74636285D01*
X154140723Y-74636285D02*
X154235961Y-74683904D01*
X154235961Y-74683904D02*
X154331200Y-74779142D01*
X154331200Y-74779142D02*
X154378819Y-74921999D01*
X154378819Y-74921999D02*
X154378819Y-75160094D01*
X153378819Y-74255332D02*
X153378819Y-73636285D01*
X153378819Y-73636285D02*
X153759771Y-73969618D01*
X153759771Y-73969618D02*
X153759771Y-73826761D01*
X153759771Y-73826761D02*
X153807390Y-73731523D01*
X153807390Y-73731523D02*
X153855009Y-73683904D01*
X153855009Y-73683904D02*
X153950247Y-73636285D01*
X153950247Y-73636285D02*
X154188342Y-73636285D01*
X154188342Y-73636285D02*
X154283580Y-73683904D01*
X154283580Y-73683904D02*
X154331200Y-73731523D01*
X154331200Y-73731523D02*
X154378819Y-73826761D01*
X154378819Y-73826761D02*
X154378819Y-74112475D01*
X154378819Y-74112475D02*
X154331200Y-74207713D01*
X154331200Y-74207713D02*
X154283580Y-74255332D01*
X160824152Y-82700666D02*
X161490819Y-82700666D01*
X160443200Y-82938761D02*
X161157485Y-83176856D01*
X161157485Y-83176856D02*
X161157485Y-82557809D01*
X160490819Y-82272094D02*
X160490819Y-81605428D01*
X160490819Y-81605428D02*
X161490819Y-82033999D01*
X160490819Y-81033999D02*
X160490819Y-80938761D01*
X160490819Y-80938761D02*
X160538438Y-80843523D01*
X160538438Y-80843523D02*
X160586057Y-80795904D01*
X160586057Y-80795904D02*
X160681295Y-80748285D01*
X160681295Y-80748285D02*
X160871771Y-80700666D01*
X160871771Y-80700666D02*
X161109866Y-80700666D01*
X161109866Y-80700666D02*
X161300342Y-80748285D01*
X161300342Y-80748285D02*
X161395580Y-80795904D01*
X161395580Y-80795904D02*
X161443200Y-80843523D01*
X161443200Y-80843523D02*
X161490819Y-80938761D01*
X161490819Y-80938761D02*
X161490819Y-81033999D01*
X161490819Y-81033999D02*
X161443200Y-81129237D01*
X161443200Y-81129237D02*
X161395580Y-81176856D01*
X161395580Y-81176856D02*
X161300342Y-81224475D01*
X161300342Y-81224475D02*
X161109866Y-81272094D01*
X161109866Y-81272094D02*
X160871771Y-81272094D01*
X160871771Y-81272094D02*
X160681295Y-81224475D01*
X160681295Y-81224475D02*
X160586057Y-81176856D01*
X160586057Y-81176856D02*
X160538438Y-81129237D01*
X160538438Y-81129237D02*
X160490819Y-81033999D01*
X161490819Y-80272094D02*
X160490819Y-80272094D01*
X161109866Y-80176856D02*
X161490819Y-79891142D01*
X160824152Y-79891142D02*
X161205104Y-80272094D01*
X161236819Y-53220857D02*
X161236819Y-53792285D01*
X161236819Y-53506571D02*
X160236819Y-53506571D01*
X160236819Y-53506571D02*
X160379676Y-53601809D01*
X160379676Y-53601809D02*
X160474914Y-53697047D01*
X160474914Y-53697047D02*
X160522533Y-53792285D01*
X160236819Y-52601809D02*
X160236819Y-52506571D01*
X160236819Y-52506571D02*
X160284438Y-52411333D01*
X160284438Y-52411333D02*
X160332057Y-52363714D01*
X160332057Y-52363714D02*
X160427295Y-52316095D01*
X160427295Y-52316095D02*
X160617771Y-52268476D01*
X160617771Y-52268476D02*
X160855866Y-52268476D01*
X160855866Y-52268476D02*
X161046342Y-52316095D01*
X161046342Y-52316095D02*
X161141580Y-52363714D01*
X161141580Y-52363714D02*
X161189200Y-52411333D01*
X161189200Y-52411333D02*
X161236819Y-52506571D01*
X161236819Y-52506571D02*
X161236819Y-52601809D01*
X161236819Y-52601809D02*
X161189200Y-52697047D01*
X161189200Y-52697047D02*
X161141580Y-52744666D01*
X161141580Y-52744666D02*
X161046342Y-52792285D01*
X161046342Y-52792285D02*
X160855866Y-52839904D01*
X160855866Y-52839904D02*
X160617771Y-52839904D01*
X160617771Y-52839904D02*
X160427295Y-52792285D01*
X160427295Y-52792285D02*
X160332057Y-52744666D01*
X160332057Y-52744666D02*
X160284438Y-52697047D01*
X160284438Y-52697047D02*
X160236819Y-52601809D01*
X160570152Y-51411333D02*
X161236819Y-51411333D01*
X160570152Y-51839904D02*
X161093961Y-51839904D01*
X161093961Y-51839904D02*
X161189200Y-51792285D01*
X161189200Y-51792285D02*
X161236819Y-51697047D01*
X161236819Y-51697047D02*
X161236819Y-51554190D01*
X161236819Y-51554190D02*
X161189200Y-51458952D01*
X161189200Y-51458952D02*
X161141580Y-51411333D01*
X166570819Y-67976666D02*
X166570819Y-68548094D01*
X166570819Y-68262380D02*
X165570819Y-68262380D01*
X165570819Y-68262380D02*
X165713676Y-68357618D01*
X165713676Y-68357618D02*
X165808914Y-68452856D01*
X165808914Y-68452856D02*
X165856533Y-68548094D01*
X165570819Y-67357618D02*
X165570819Y-67262380D01*
X165570819Y-67262380D02*
X165618438Y-67167142D01*
X165618438Y-67167142D02*
X165666057Y-67119523D01*
X165666057Y-67119523D02*
X165761295Y-67071904D01*
X165761295Y-67071904D02*
X165951771Y-67024285D01*
X165951771Y-67024285D02*
X166189866Y-67024285D01*
X166189866Y-67024285D02*
X166380342Y-67071904D01*
X166380342Y-67071904D02*
X166475580Y-67119523D01*
X166475580Y-67119523D02*
X166523200Y-67167142D01*
X166523200Y-67167142D02*
X166570819Y-67262380D01*
X166570819Y-67262380D02*
X166570819Y-67357618D01*
X166570819Y-67357618D02*
X166523200Y-67452856D01*
X166523200Y-67452856D02*
X166475580Y-67500475D01*
X166475580Y-67500475D02*
X166380342Y-67548094D01*
X166380342Y-67548094D02*
X166189866Y-67595713D01*
X166189866Y-67595713D02*
X165951771Y-67595713D01*
X165951771Y-67595713D02*
X165761295Y-67548094D01*
X165761295Y-67548094D02*
X165666057Y-67500475D01*
X165666057Y-67500475D02*
X165618438Y-67452856D01*
X165618438Y-67452856D02*
X165570819Y-67357618D01*
X165570819Y-66405237D02*
X165570819Y-66309999D01*
X165570819Y-66309999D02*
X165618438Y-66214761D01*
X165618438Y-66214761D02*
X165666057Y-66167142D01*
X165666057Y-66167142D02*
X165761295Y-66119523D01*
X165761295Y-66119523D02*
X165951771Y-66071904D01*
X165951771Y-66071904D02*
X166189866Y-66071904D01*
X166189866Y-66071904D02*
X166380342Y-66119523D01*
X166380342Y-66119523D02*
X166475580Y-66167142D01*
X166475580Y-66167142D02*
X166523200Y-66214761D01*
X166523200Y-66214761D02*
X166570819Y-66309999D01*
X166570819Y-66309999D02*
X166570819Y-66405237D01*
X166570819Y-66405237D02*
X166523200Y-66500475D01*
X166523200Y-66500475D02*
X166475580Y-66548094D01*
X166475580Y-66548094D02*
X166380342Y-66595713D01*
X166380342Y-66595713D02*
X166189866Y-66643332D01*
X166189866Y-66643332D02*
X165951771Y-66643332D01*
X165951771Y-66643332D02*
X165761295Y-66595713D01*
X165761295Y-66595713D02*
X165666057Y-66548094D01*
X165666057Y-66548094D02*
X165618438Y-66500475D01*
X165618438Y-66500475D02*
X165570819Y-66405237D01*
X157829333Y-87068819D02*
X157257905Y-87068819D01*
X157543619Y-87068819D02*
X157543619Y-86068819D01*
X157543619Y-86068819D02*
X157448381Y-86211676D01*
X157448381Y-86211676D02*
X157353143Y-86306914D01*
X157353143Y-86306914D02*
X157257905Y-86354533D01*
X158448381Y-86068819D02*
X158543619Y-86068819D01*
X158543619Y-86068819D02*
X158638857Y-86116438D01*
X158638857Y-86116438D02*
X158686476Y-86164057D01*
X158686476Y-86164057D02*
X158734095Y-86259295D01*
X158734095Y-86259295D02*
X158781714Y-86449771D01*
X158781714Y-86449771D02*
X158781714Y-86687866D01*
X158781714Y-86687866D02*
X158734095Y-86878342D01*
X158734095Y-86878342D02*
X158686476Y-86973580D01*
X158686476Y-86973580D02*
X158638857Y-87021200D01*
X158638857Y-87021200D02*
X158543619Y-87068819D01*
X158543619Y-87068819D02*
X158448381Y-87068819D01*
X158448381Y-87068819D02*
X158353143Y-87021200D01*
X158353143Y-87021200D02*
X158305524Y-86973580D01*
X158305524Y-86973580D02*
X158257905Y-86878342D01*
X158257905Y-86878342D02*
X158210286Y-86687866D01*
X158210286Y-86687866D02*
X158210286Y-86449771D01*
X158210286Y-86449771D02*
X158257905Y-86259295D01*
X158257905Y-86259295D02*
X158305524Y-86164057D01*
X158305524Y-86164057D02*
X158353143Y-86116438D01*
X158353143Y-86116438D02*
X158448381Y-86068819D01*
X159400762Y-86068819D02*
X159496000Y-86068819D01*
X159496000Y-86068819D02*
X159591238Y-86116438D01*
X159591238Y-86116438D02*
X159638857Y-86164057D01*
X159638857Y-86164057D02*
X159686476Y-86259295D01*
X159686476Y-86259295D02*
X159734095Y-86449771D01*
X159734095Y-86449771D02*
X159734095Y-86687866D01*
X159734095Y-86687866D02*
X159686476Y-86878342D01*
X159686476Y-86878342D02*
X159638857Y-86973580D01*
X159638857Y-86973580D02*
X159591238Y-87021200D01*
X159591238Y-87021200D02*
X159496000Y-87068819D01*
X159496000Y-87068819D02*
X159400762Y-87068819D01*
X159400762Y-87068819D02*
X159305524Y-87021200D01*
X159305524Y-87021200D02*
X159257905Y-86973580D01*
X159257905Y-86973580D02*
X159210286Y-86878342D01*
X159210286Y-86878342D02*
X159162667Y-86687866D01*
X159162667Y-86687866D02*
X159162667Y-86449771D01*
X159162667Y-86449771D02*
X159210286Y-86259295D01*
X159210286Y-86259295D02*
X159257905Y-86164057D01*
X159257905Y-86164057D02*
X159305524Y-86116438D01*
X159305524Y-86116438D02*
X159400762Y-86068819D01*
X166570819Y-82605428D02*
X166570819Y-83176856D01*
X166570819Y-82891142D02*
X165570819Y-82891142D01*
X165570819Y-82891142D02*
X165713676Y-82986380D01*
X165713676Y-82986380D02*
X165808914Y-83081618D01*
X165808914Y-83081618D02*
X165856533Y-83176856D01*
X165570819Y-81986380D02*
X165570819Y-81891142D01*
X165570819Y-81891142D02*
X165618438Y-81795904D01*
X165618438Y-81795904D02*
X165666057Y-81748285D01*
X165666057Y-81748285D02*
X165761295Y-81700666D01*
X165761295Y-81700666D02*
X165951771Y-81653047D01*
X165951771Y-81653047D02*
X166189866Y-81653047D01*
X166189866Y-81653047D02*
X166380342Y-81700666D01*
X166380342Y-81700666D02*
X166475580Y-81748285D01*
X166475580Y-81748285D02*
X166523200Y-81795904D01*
X166523200Y-81795904D02*
X166570819Y-81891142D01*
X166570819Y-81891142D02*
X166570819Y-81986380D01*
X166570819Y-81986380D02*
X166523200Y-82081618D01*
X166523200Y-82081618D02*
X166475580Y-82129237D01*
X166475580Y-82129237D02*
X166380342Y-82176856D01*
X166380342Y-82176856D02*
X166189866Y-82224475D01*
X166189866Y-82224475D02*
X165951771Y-82224475D01*
X165951771Y-82224475D02*
X165761295Y-82176856D01*
X165761295Y-82176856D02*
X165666057Y-82129237D01*
X165666057Y-82129237D02*
X165618438Y-82081618D01*
X165618438Y-82081618D02*
X165570819Y-81986380D01*
X165570819Y-81033999D02*
X165570819Y-80938761D01*
X165570819Y-80938761D02*
X165618438Y-80843523D01*
X165618438Y-80843523D02*
X165666057Y-80795904D01*
X165666057Y-80795904D02*
X165761295Y-80748285D01*
X165761295Y-80748285D02*
X165951771Y-80700666D01*
X165951771Y-80700666D02*
X166189866Y-80700666D01*
X166189866Y-80700666D02*
X166380342Y-80748285D01*
X166380342Y-80748285D02*
X166475580Y-80795904D01*
X166475580Y-80795904D02*
X166523200Y-80843523D01*
X166523200Y-80843523D02*
X166570819Y-80938761D01*
X166570819Y-80938761D02*
X166570819Y-81033999D01*
X166570819Y-81033999D02*
X166523200Y-81129237D01*
X166523200Y-81129237D02*
X166475580Y-81176856D01*
X166475580Y-81176856D02*
X166380342Y-81224475D01*
X166380342Y-81224475D02*
X166189866Y-81272094D01*
X166189866Y-81272094D02*
X165951771Y-81272094D01*
X165951771Y-81272094D02*
X165761295Y-81224475D01*
X165761295Y-81224475D02*
X165666057Y-81176856D01*
X165666057Y-81176856D02*
X165618438Y-81129237D01*
X165618438Y-81129237D02*
X165570819Y-81033999D01*
X166570819Y-80272094D02*
X165570819Y-80272094D01*
X166189866Y-80176856D02*
X166570819Y-79891142D01*
X165904152Y-79891142D02*
X166285104Y-80272094D01*
X156884761Y-57096819D02*
X156313333Y-57096819D01*
X156599047Y-57096819D02*
X156599047Y-56096819D01*
X156599047Y-56096819D02*
X156503809Y-56239676D01*
X156503809Y-56239676D02*
X156408571Y-56334914D01*
X156408571Y-56334914D02*
X156313333Y-56382533D01*
X157456190Y-56525390D02*
X157360952Y-56477771D01*
X157360952Y-56477771D02*
X157313333Y-56430152D01*
X157313333Y-56430152D02*
X157265714Y-56334914D01*
X157265714Y-56334914D02*
X157265714Y-56287295D01*
X157265714Y-56287295D02*
X157313333Y-56192057D01*
X157313333Y-56192057D02*
X157360952Y-56144438D01*
X157360952Y-56144438D02*
X157456190Y-56096819D01*
X157456190Y-56096819D02*
X157646666Y-56096819D01*
X157646666Y-56096819D02*
X157741904Y-56144438D01*
X157741904Y-56144438D02*
X157789523Y-56192057D01*
X157789523Y-56192057D02*
X157837142Y-56287295D01*
X157837142Y-56287295D02*
X157837142Y-56334914D01*
X157837142Y-56334914D02*
X157789523Y-56430152D01*
X157789523Y-56430152D02*
X157741904Y-56477771D01*
X157741904Y-56477771D02*
X157646666Y-56525390D01*
X157646666Y-56525390D02*
X157456190Y-56525390D01*
X157456190Y-56525390D02*
X157360952Y-56573009D01*
X157360952Y-56573009D02*
X157313333Y-56620628D01*
X157313333Y-56620628D02*
X157265714Y-56715866D01*
X157265714Y-56715866D02*
X157265714Y-56906342D01*
X157265714Y-56906342D02*
X157313333Y-57001580D01*
X157313333Y-57001580D02*
X157360952Y-57049200D01*
X157360952Y-57049200D02*
X157456190Y-57096819D01*
X157456190Y-57096819D02*
X157646666Y-57096819D01*
X157646666Y-57096819D02*
X157741904Y-57049200D01*
X157741904Y-57049200D02*
X157789523Y-57001580D01*
X157789523Y-57001580D02*
X157837142Y-56906342D01*
X157837142Y-56906342D02*
X157837142Y-56715866D01*
X157837142Y-56715866D02*
X157789523Y-56620628D01*
X157789523Y-56620628D02*
X157741904Y-56573009D01*
X157741904Y-56573009D02*
X157646666Y-56525390D01*
X158265714Y-57096819D02*
X158265714Y-56096819D01*
X158360952Y-56715866D02*
X158646666Y-57096819D01*
X158646666Y-56430152D02*
X158265714Y-56811104D01*
X184459714Y-81068152D02*
X184459714Y-81734819D01*
X184221619Y-80687200D02*
X183983524Y-81401485D01*
X183983524Y-81401485D02*
X184602571Y-81401485D01*
X184888286Y-80734819D02*
X185554952Y-80734819D01*
X185554952Y-80734819D02*
X185126381Y-81734819D01*
X186126381Y-80734819D02*
X186221619Y-80734819D01*
X186221619Y-80734819D02*
X186316857Y-80782438D01*
X186316857Y-80782438D02*
X186364476Y-80830057D01*
X186364476Y-80830057D02*
X186412095Y-80925295D01*
X186412095Y-80925295D02*
X186459714Y-81115771D01*
X186459714Y-81115771D02*
X186459714Y-81353866D01*
X186459714Y-81353866D02*
X186412095Y-81544342D01*
X186412095Y-81544342D02*
X186364476Y-81639580D01*
X186364476Y-81639580D02*
X186316857Y-81687200D01*
X186316857Y-81687200D02*
X186221619Y-81734819D01*
X186221619Y-81734819D02*
X186126381Y-81734819D01*
X186126381Y-81734819D02*
X186031143Y-81687200D01*
X186031143Y-81687200D02*
X185983524Y-81639580D01*
X185983524Y-81639580D02*
X185935905Y-81544342D01*
X185935905Y-81544342D02*
X185888286Y-81353866D01*
X185888286Y-81353866D02*
X185888286Y-81115771D01*
X185888286Y-81115771D02*
X185935905Y-80925295D01*
X185935905Y-80925295D02*
X185983524Y-80830057D01*
X185983524Y-80830057D02*
X186031143Y-80782438D01*
X186031143Y-80782438D02*
X186126381Y-80734819D01*
X186888286Y-81068152D02*
X186888286Y-82068152D01*
X186888286Y-81115771D02*
X186983524Y-81068152D01*
X186983524Y-81068152D02*
X187174000Y-81068152D01*
X187174000Y-81068152D02*
X187269238Y-81115771D01*
X187269238Y-81115771D02*
X187316857Y-81163390D01*
X187316857Y-81163390D02*
X187364476Y-81258628D01*
X187364476Y-81258628D02*
X187364476Y-81544342D01*
X187364476Y-81544342D02*
X187316857Y-81639580D01*
X187316857Y-81639580D02*
X187269238Y-81687200D01*
X187269238Y-81687200D02*
X187174000Y-81734819D01*
X187174000Y-81734819D02*
X186983524Y-81734819D01*
X186983524Y-81734819D02*
X186888286Y-81687200D01*
X162472761Y-57096819D02*
X161901333Y-57096819D01*
X162187047Y-57096819D02*
X162187047Y-56096819D01*
X162187047Y-56096819D02*
X162091809Y-56239676D01*
X162091809Y-56239676D02*
X161996571Y-56334914D01*
X161996571Y-56334914D02*
X161901333Y-56382533D01*
X163044190Y-56525390D02*
X162948952Y-56477771D01*
X162948952Y-56477771D02*
X162901333Y-56430152D01*
X162901333Y-56430152D02*
X162853714Y-56334914D01*
X162853714Y-56334914D02*
X162853714Y-56287295D01*
X162853714Y-56287295D02*
X162901333Y-56192057D01*
X162901333Y-56192057D02*
X162948952Y-56144438D01*
X162948952Y-56144438D02*
X163044190Y-56096819D01*
X163044190Y-56096819D02*
X163234666Y-56096819D01*
X163234666Y-56096819D02*
X163329904Y-56144438D01*
X163329904Y-56144438D02*
X163377523Y-56192057D01*
X163377523Y-56192057D02*
X163425142Y-56287295D01*
X163425142Y-56287295D02*
X163425142Y-56334914D01*
X163425142Y-56334914D02*
X163377523Y-56430152D01*
X163377523Y-56430152D02*
X163329904Y-56477771D01*
X163329904Y-56477771D02*
X163234666Y-56525390D01*
X163234666Y-56525390D02*
X163044190Y-56525390D01*
X163044190Y-56525390D02*
X162948952Y-56573009D01*
X162948952Y-56573009D02*
X162901333Y-56620628D01*
X162901333Y-56620628D02*
X162853714Y-56715866D01*
X162853714Y-56715866D02*
X162853714Y-56906342D01*
X162853714Y-56906342D02*
X162901333Y-57001580D01*
X162901333Y-57001580D02*
X162948952Y-57049200D01*
X162948952Y-57049200D02*
X163044190Y-57096819D01*
X163044190Y-57096819D02*
X163234666Y-57096819D01*
X163234666Y-57096819D02*
X163329904Y-57049200D01*
X163329904Y-57049200D02*
X163377523Y-57001580D01*
X163377523Y-57001580D02*
X163425142Y-56906342D01*
X163425142Y-56906342D02*
X163425142Y-56715866D01*
X163425142Y-56715866D02*
X163377523Y-56620628D01*
X163377523Y-56620628D02*
X163329904Y-56573009D01*
X163329904Y-56573009D02*
X163234666Y-56525390D01*
X163853714Y-57096819D02*
X163853714Y-56096819D01*
X163948952Y-56715866D02*
X164234666Y-57096819D01*
X164234666Y-56430152D02*
X163853714Y-56811104D01*
X149502952Y-55826819D02*
X148931524Y-55826819D01*
X149217238Y-55826819D02*
X149217238Y-54826819D01*
X149217238Y-54826819D02*
X149122000Y-54969676D01*
X149122000Y-54969676D02*
X149026762Y-55064914D01*
X149026762Y-55064914D02*
X148931524Y-55112533D01*
X150122000Y-54826819D02*
X150217238Y-54826819D01*
X150217238Y-54826819D02*
X150312476Y-54874438D01*
X150312476Y-54874438D02*
X150360095Y-54922057D01*
X150360095Y-54922057D02*
X150407714Y-55017295D01*
X150407714Y-55017295D02*
X150455333Y-55207771D01*
X150455333Y-55207771D02*
X150455333Y-55445866D01*
X150455333Y-55445866D02*
X150407714Y-55636342D01*
X150407714Y-55636342D02*
X150360095Y-55731580D01*
X150360095Y-55731580D02*
X150312476Y-55779200D01*
X150312476Y-55779200D02*
X150217238Y-55826819D01*
X150217238Y-55826819D02*
X150122000Y-55826819D01*
X150122000Y-55826819D02*
X150026762Y-55779200D01*
X150026762Y-55779200D02*
X149979143Y-55731580D01*
X149979143Y-55731580D02*
X149931524Y-55636342D01*
X149931524Y-55636342D02*
X149883905Y-55445866D01*
X149883905Y-55445866D02*
X149883905Y-55207771D01*
X149883905Y-55207771D02*
X149931524Y-55017295D01*
X149931524Y-55017295D02*
X149979143Y-54922057D01*
X149979143Y-54922057D02*
X150026762Y-54874438D01*
X150026762Y-54874438D02*
X150122000Y-54826819D01*
X151074381Y-54826819D02*
X151169619Y-54826819D01*
X151169619Y-54826819D02*
X151264857Y-54874438D01*
X151264857Y-54874438D02*
X151312476Y-54922057D01*
X151312476Y-54922057D02*
X151360095Y-55017295D01*
X151360095Y-55017295D02*
X151407714Y-55207771D01*
X151407714Y-55207771D02*
X151407714Y-55445866D01*
X151407714Y-55445866D02*
X151360095Y-55636342D01*
X151360095Y-55636342D02*
X151312476Y-55731580D01*
X151312476Y-55731580D02*
X151264857Y-55779200D01*
X151264857Y-55779200D02*
X151169619Y-55826819D01*
X151169619Y-55826819D02*
X151074381Y-55826819D01*
X151074381Y-55826819D02*
X150979143Y-55779200D01*
X150979143Y-55779200D02*
X150931524Y-55731580D01*
X150931524Y-55731580D02*
X150883905Y-55636342D01*
X150883905Y-55636342D02*
X150836286Y-55445866D01*
X150836286Y-55445866D02*
X150836286Y-55207771D01*
X150836286Y-55207771D02*
X150883905Y-55017295D01*
X150883905Y-55017295D02*
X150931524Y-54922057D01*
X150931524Y-54922057D02*
X150979143Y-54874438D01*
X150979143Y-54874438D02*
X151074381Y-54826819D01*
X151836286Y-55160152D02*
X151836286Y-55826819D01*
X151836286Y-55255390D02*
X151883905Y-55207771D01*
X151883905Y-55207771D02*
X151979143Y-55160152D01*
X151979143Y-55160152D02*
X152122000Y-55160152D01*
X152122000Y-55160152D02*
X152217238Y-55207771D01*
X152217238Y-55207771D02*
X152264857Y-55303009D01*
X152264857Y-55303009D02*
X152264857Y-55826819D01*
X141422571Y-92148819D02*
X140851143Y-92148819D01*
X141136857Y-92148819D02*
X141136857Y-91148819D01*
X141136857Y-91148819D02*
X141041619Y-91291676D01*
X141041619Y-91291676D02*
X140946381Y-91386914D01*
X140946381Y-91386914D02*
X140851143Y-91434533D01*
X142041619Y-91148819D02*
X142136857Y-91148819D01*
X142136857Y-91148819D02*
X142232095Y-91196438D01*
X142232095Y-91196438D02*
X142279714Y-91244057D01*
X142279714Y-91244057D02*
X142327333Y-91339295D01*
X142327333Y-91339295D02*
X142374952Y-91529771D01*
X142374952Y-91529771D02*
X142374952Y-91767866D01*
X142374952Y-91767866D02*
X142327333Y-91958342D01*
X142327333Y-91958342D02*
X142279714Y-92053580D01*
X142279714Y-92053580D02*
X142232095Y-92101200D01*
X142232095Y-92101200D02*
X142136857Y-92148819D01*
X142136857Y-92148819D02*
X142041619Y-92148819D01*
X142041619Y-92148819D02*
X141946381Y-92101200D01*
X141946381Y-92101200D02*
X141898762Y-92053580D01*
X141898762Y-92053580D02*
X141851143Y-91958342D01*
X141851143Y-91958342D02*
X141803524Y-91767866D01*
X141803524Y-91767866D02*
X141803524Y-91529771D01*
X141803524Y-91529771D02*
X141851143Y-91339295D01*
X141851143Y-91339295D02*
X141898762Y-91244057D01*
X141898762Y-91244057D02*
X141946381Y-91196438D01*
X141946381Y-91196438D02*
X142041619Y-91148819D01*
X142994000Y-91148819D02*
X143089238Y-91148819D01*
X143089238Y-91148819D02*
X143184476Y-91196438D01*
X143184476Y-91196438D02*
X143232095Y-91244057D01*
X143232095Y-91244057D02*
X143279714Y-91339295D01*
X143279714Y-91339295D02*
X143327333Y-91529771D01*
X143327333Y-91529771D02*
X143327333Y-91767866D01*
X143327333Y-91767866D02*
X143279714Y-91958342D01*
X143279714Y-91958342D02*
X143232095Y-92053580D01*
X143232095Y-92053580D02*
X143184476Y-92101200D01*
X143184476Y-92101200D02*
X143089238Y-92148819D01*
X143089238Y-92148819D02*
X142994000Y-92148819D01*
X142994000Y-92148819D02*
X142898762Y-92101200D01*
X142898762Y-92101200D02*
X142851143Y-92053580D01*
X142851143Y-92053580D02*
X142803524Y-91958342D01*
X142803524Y-91958342D02*
X142755905Y-91767866D01*
X142755905Y-91767866D02*
X142755905Y-91529771D01*
X142755905Y-91529771D02*
X142803524Y-91339295D01*
X142803524Y-91339295D02*
X142851143Y-91244057D01*
X142851143Y-91244057D02*
X142898762Y-91196438D01*
X142898762Y-91196438D02*
X142994000Y-91148819D01*
X143755905Y-92148819D02*
X143755905Y-91148819D01*
X143851143Y-91767866D02*
X144136857Y-92148819D01*
X144136857Y-91482152D02*
X143755905Y-91863104D01*
X159289761Y-63542057D02*
X159194523Y-63494438D01*
X159194523Y-63494438D02*
X159099285Y-63399200D01*
X159099285Y-63399200D02*
X158956428Y-63256342D01*
X158956428Y-63256342D02*
X158861190Y-63208723D01*
X158861190Y-63208723D02*
X158765952Y-63208723D01*
X158813571Y-63446819D02*
X158718333Y-63399200D01*
X158718333Y-63399200D02*
X158623095Y-63303961D01*
X158623095Y-63303961D02*
X158575476Y-63113485D01*
X158575476Y-63113485D02*
X158575476Y-62780152D01*
X158575476Y-62780152D02*
X158623095Y-62589676D01*
X158623095Y-62589676D02*
X158718333Y-62494438D01*
X158718333Y-62494438D02*
X158813571Y-62446819D01*
X158813571Y-62446819D02*
X159004047Y-62446819D01*
X159004047Y-62446819D02*
X159099285Y-62494438D01*
X159099285Y-62494438D02*
X159194523Y-62589676D01*
X159194523Y-62589676D02*
X159242142Y-62780152D01*
X159242142Y-62780152D02*
X159242142Y-63113485D01*
X159242142Y-63113485D02*
X159194523Y-63303961D01*
X159194523Y-63303961D02*
X159099285Y-63399200D01*
X159099285Y-63399200D02*
X159004047Y-63446819D01*
X159004047Y-63446819D02*
X158813571Y-63446819D01*
X159575476Y-62446819D02*
X160194523Y-62446819D01*
X160194523Y-62446819D02*
X159861190Y-62827771D01*
X159861190Y-62827771D02*
X160004047Y-62827771D01*
X160004047Y-62827771D02*
X160099285Y-62875390D01*
X160099285Y-62875390D02*
X160146904Y-62923009D01*
X160146904Y-62923009D02*
X160194523Y-63018247D01*
X160194523Y-63018247D02*
X160194523Y-63256342D01*
X160194523Y-63256342D02*
X160146904Y-63351580D01*
X160146904Y-63351580D02*
X160099285Y-63399200D01*
X160099285Y-63399200D02*
X160004047Y-63446819D01*
X160004047Y-63446819D02*
X159718333Y-63446819D01*
X159718333Y-63446819D02*
X159623095Y-63399200D01*
X159623095Y-63399200D02*
X159575476Y-63351580D01*
X158281714Y-100472819D02*
X157710286Y-100472819D01*
X157996000Y-100472819D02*
X157996000Y-99472819D01*
X157996000Y-99472819D02*
X157900762Y-99615676D01*
X157900762Y-99615676D02*
X157805524Y-99710914D01*
X157805524Y-99710914D02*
X157710286Y-99758533D01*
X158710286Y-100472819D02*
X158710286Y-99472819D01*
X159281714Y-100472819D02*
X158853143Y-99901390D01*
X159281714Y-99472819D02*
X158710286Y-100044247D01*
X154378819Y-67976666D02*
X154378819Y-68548094D01*
X154378819Y-68262380D02*
X153378819Y-68262380D01*
X153378819Y-68262380D02*
X153521676Y-68357618D01*
X153521676Y-68357618D02*
X153616914Y-68452856D01*
X153616914Y-68452856D02*
X153664533Y-68548094D01*
X153378819Y-67357618D02*
X153378819Y-67262380D01*
X153378819Y-67262380D02*
X153426438Y-67167142D01*
X153426438Y-67167142D02*
X153474057Y-67119523D01*
X153474057Y-67119523D02*
X153569295Y-67071904D01*
X153569295Y-67071904D02*
X153759771Y-67024285D01*
X153759771Y-67024285D02*
X153997866Y-67024285D01*
X153997866Y-67024285D02*
X154188342Y-67071904D01*
X154188342Y-67071904D02*
X154283580Y-67119523D01*
X154283580Y-67119523D02*
X154331200Y-67167142D01*
X154331200Y-67167142D02*
X154378819Y-67262380D01*
X154378819Y-67262380D02*
X154378819Y-67357618D01*
X154378819Y-67357618D02*
X154331200Y-67452856D01*
X154331200Y-67452856D02*
X154283580Y-67500475D01*
X154283580Y-67500475D02*
X154188342Y-67548094D01*
X154188342Y-67548094D02*
X153997866Y-67595713D01*
X153997866Y-67595713D02*
X153759771Y-67595713D01*
X153759771Y-67595713D02*
X153569295Y-67548094D01*
X153569295Y-67548094D02*
X153474057Y-67500475D01*
X153474057Y-67500475D02*
X153426438Y-67452856D01*
X153426438Y-67452856D02*
X153378819Y-67357618D01*
X153378819Y-66405237D02*
X153378819Y-66309999D01*
X153378819Y-66309999D02*
X153426438Y-66214761D01*
X153426438Y-66214761D02*
X153474057Y-66167142D01*
X153474057Y-66167142D02*
X153569295Y-66119523D01*
X153569295Y-66119523D02*
X153759771Y-66071904D01*
X153759771Y-66071904D02*
X153997866Y-66071904D01*
X153997866Y-66071904D02*
X154188342Y-66119523D01*
X154188342Y-66119523D02*
X154283580Y-66167142D01*
X154283580Y-66167142D02*
X154331200Y-66214761D01*
X154331200Y-66214761D02*
X154378819Y-66309999D01*
X154378819Y-66309999D02*
X154378819Y-66405237D01*
X154378819Y-66405237D02*
X154331200Y-66500475D01*
X154331200Y-66500475D02*
X154283580Y-66548094D01*
X154283580Y-66548094D02*
X154188342Y-66595713D01*
X154188342Y-66595713D02*
X153997866Y-66643332D01*
X153997866Y-66643332D02*
X153759771Y-66643332D01*
X153759771Y-66643332D02*
X153569295Y-66595713D01*
X153569295Y-66595713D02*
X153474057Y-66548094D01*
X153474057Y-66548094D02*
X153426438Y-66500475D01*
X153426438Y-66500475D02*
X153378819Y-66405237D01*
X147520819Y-89495238D02*
X147520819Y-90066666D01*
X147520819Y-89780952D02*
X146520819Y-89780952D01*
X146520819Y-89780952D02*
X146663676Y-89876190D01*
X146663676Y-89876190D02*
X146758914Y-89971428D01*
X146758914Y-89971428D02*
X146806533Y-90066666D01*
X146520819Y-88876190D02*
X146520819Y-88780952D01*
X146520819Y-88780952D02*
X146568438Y-88685714D01*
X146568438Y-88685714D02*
X146616057Y-88638095D01*
X146616057Y-88638095D02*
X146711295Y-88590476D01*
X146711295Y-88590476D02*
X146901771Y-88542857D01*
X146901771Y-88542857D02*
X147139866Y-88542857D01*
X147139866Y-88542857D02*
X147330342Y-88590476D01*
X147330342Y-88590476D02*
X147425580Y-88638095D01*
X147425580Y-88638095D02*
X147473200Y-88685714D01*
X147473200Y-88685714D02*
X147520819Y-88780952D01*
X147520819Y-88780952D02*
X147520819Y-88876190D01*
X147520819Y-88876190D02*
X147473200Y-88971428D01*
X147473200Y-88971428D02*
X147425580Y-89019047D01*
X147425580Y-89019047D02*
X147330342Y-89066666D01*
X147330342Y-89066666D02*
X147139866Y-89114285D01*
X147139866Y-89114285D02*
X146901771Y-89114285D01*
X146901771Y-89114285D02*
X146711295Y-89066666D01*
X146711295Y-89066666D02*
X146616057Y-89019047D01*
X146616057Y-89019047D02*
X146568438Y-88971428D01*
X146568438Y-88971428D02*
X146520819Y-88876190D01*
X147520819Y-88114285D02*
X146520819Y-88114285D01*
X147139866Y-88019047D02*
X147520819Y-87733333D01*
X146854152Y-87733333D02*
X147235104Y-88114285D01*
X131772819Y-83474857D02*
X131772819Y-84046285D01*
X131772819Y-83760571D02*
X130772819Y-83760571D01*
X130772819Y-83760571D02*
X130915676Y-83855809D01*
X130915676Y-83855809D02*
X131010914Y-83951047D01*
X131010914Y-83951047D02*
X131058533Y-84046285D01*
X130772819Y-82855809D02*
X130772819Y-82760571D01*
X130772819Y-82760571D02*
X130820438Y-82665333D01*
X130820438Y-82665333D02*
X130868057Y-82617714D01*
X130868057Y-82617714D02*
X130963295Y-82570095D01*
X130963295Y-82570095D02*
X131153771Y-82522476D01*
X131153771Y-82522476D02*
X131391866Y-82522476D01*
X131391866Y-82522476D02*
X131582342Y-82570095D01*
X131582342Y-82570095D02*
X131677580Y-82617714D01*
X131677580Y-82617714D02*
X131725200Y-82665333D01*
X131725200Y-82665333D02*
X131772819Y-82760571D01*
X131772819Y-82760571D02*
X131772819Y-82855809D01*
X131772819Y-82855809D02*
X131725200Y-82951047D01*
X131725200Y-82951047D02*
X131677580Y-82998666D01*
X131677580Y-82998666D02*
X131582342Y-83046285D01*
X131582342Y-83046285D02*
X131391866Y-83093904D01*
X131391866Y-83093904D02*
X131153771Y-83093904D01*
X131153771Y-83093904D02*
X130963295Y-83046285D01*
X130963295Y-83046285D02*
X130868057Y-82998666D01*
X130868057Y-82998666D02*
X130820438Y-82951047D01*
X130820438Y-82951047D02*
X130772819Y-82855809D01*
X131106152Y-82093904D02*
X131772819Y-82093904D01*
X131201390Y-82093904D02*
X131153771Y-82046285D01*
X131153771Y-82046285D02*
X131106152Y-81951047D01*
X131106152Y-81951047D02*
X131106152Y-81808190D01*
X131106152Y-81808190D02*
X131153771Y-81712952D01*
X131153771Y-81712952D02*
X131249009Y-81665333D01*
X131249009Y-81665333D02*
X131772819Y-81665333D01*
X173174819Y-71604094D02*
X172174819Y-71604094D01*
X172174819Y-71604094D02*
X172174819Y-71365999D01*
X172174819Y-71365999D02*
X172222438Y-71223142D01*
X172222438Y-71223142D02*
X172317676Y-71127904D01*
X172317676Y-71127904D02*
X172412914Y-71080285D01*
X172412914Y-71080285D02*
X172603390Y-71032666D01*
X172603390Y-71032666D02*
X172746247Y-71032666D01*
X172746247Y-71032666D02*
X172936723Y-71080285D01*
X172936723Y-71080285D02*
X173031961Y-71127904D01*
X173031961Y-71127904D02*
X173127200Y-71223142D01*
X173127200Y-71223142D02*
X173174819Y-71365999D01*
X173174819Y-71365999D02*
X173174819Y-71604094D01*
X172270057Y-70651713D02*
X172222438Y-70604094D01*
X172222438Y-70604094D02*
X172174819Y-70508856D01*
X172174819Y-70508856D02*
X172174819Y-70270761D01*
X172174819Y-70270761D02*
X172222438Y-70175523D01*
X172222438Y-70175523D02*
X172270057Y-70127904D01*
X172270057Y-70127904D02*
X172365295Y-70080285D01*
X172365295Y-70080285D02*
X172460533Y-70080285D01*
X172460533Y-70080285D02*
X172603390Y-70127904D01*
X172603390Y-70127904D02*
X173174819Y-70699332D01*
X173174819Y-70699332D02*
X173174819Y-70080285D01*
X166570819Y-75160094D02*
X165570819Y-75160094D01*
X165570819Y-75160094D02*
X165570819Y-74921999D01*
X165570819Y-74921999D02*
X165618438Y-74779142D01*
X165618438Y-74779142D02*
X165713676Y-74683904D01*
X165713676Y-74683904D02*
X165808914Y-74636285D01*
X165808914Y-74636285D02*
X165999390Y-74588666D01*
X165999390Y-74588666D02*
X166142247Y-74588666D01*
X166142247Y-74588666D02*
X166332723Y-74636285D01*
X166332723Y-74636285D02*
X166427961Y-74683904D01*
X166427961Y-74683904D02*
X166523200Y-74779142D01*
X166523200Y-74779142D02*
X166570819Y-74921999D01*
X166570819Y-74921999D02*
X166570819Y-75160094D01*
X166570819Y-73636285D02*
X166570819Y-74207713D01*
X166570819Y-73921999D02*
X165570819Y-73921999D01*
X165570819Y-73921999D02*
X165713676Y-74017237D01*
X165713676Y-74017237D02*
X165808914Y-74112475D01*
X165808914Y-74112475D02*
X165856533Y-74207713D01*
D12*
%TO.C,C11*%
X132016000Y-84736000D02*
X139256000Y-84736000D01*
X132016000Y-87476000D02*
X132016000Y-84736000D01*
X139256000Y-84736000D02*
X139256000Y-87476000D01*
X139256000Y-87476000D02*
X132016000Y-87476000D01*
%TO.C,RV4*%
X135074000Y-63128000D02*
X135074000Y-58408000D01*
X135084000Y-54598000D02*
X135084000Y-51538000D01*
X136264000Y-63128000D02*
X135084000Y-63128000D01*
X139164000Y-63128000D02*
X138634000Y-63128000D01*
X141614000Y-63128000D02*
X140784000Y-63128000D01*
X144824000Y-51538000D02*
X135084000Y-51538000D01*
X144824000Y-54598000D02*
X144824000Y-51538000D01*
X144824000Y-63128000D02*
X143334000Y-63128000D01*
X144824000Y-63128000D02*
X144824000Y-58408000D01*
%TO.C,RV3*%
X135074000Y-78505000D02*
X135074000Y-73785000D01*
X135084000Y-69975000D02*
X135084000Y-66915000D01*
X136264000Y-78505000D02*
X135084000Y-78505000D01*
X139164000Y-78505000D02*
X138634000Y-78505000D01*
X141614000Y-78505000D02*
X140784000Y-78505000D01*
X144824000Y-66915000D02*
X135084000Y-66915000D01*
X144824000Y-69975000D02*
X144824000Y-66915000D01*
X144824000Y-78505000D02*
X143334000Y-78505000D01*
X144824000Y-78505000D02*
X144824000Y-73785000D01*
%TO.C,C3*%
X173418000Y-81942000D02*
X180658000Y-81942000D01*
X173418000Y-84682000D02*
X173418000Y-81942000D01*
X180658000Y-81942000D02*
X180658000Y-84682000D01*
X180658000Y-84682000D02*
X173418000Y-84682000D01*
%TO.C,R17*%
X163222000Y-85090000D02*
X163152000Y-85090000D01*
X165962000Y-85090000D02*
G75*
G02*
X163222000Y-85090000I-1370000J0D01*
G01*
X163222000Y-85090000D02*
G75*
G02*
X165962000Y-85090000I1370000J0D01*
G01*
%TO.C,C6*%
X161698000Y-69659000D02*
X164438000Y-69659000D01*
X161698000Y-76899000D02*
X161698000Y-69659000D01*
X164438000Y-69659000D02*
X164438000Y-76899000D01*
X164438000Y-76899000D02*
X161698000Y-76899000D01*
%TO.C,R14*%
X156972000Y-80164000D02*
X156972000Y-80094000D01*
X158342000Y-81534000D02*
G75*
G02*
X155602000Y-81534000I-1370000J0D01*
G01*
X155602000Y-81534000D02*
G75*
G02*
X158342000Y-81534000I1370000J0D01*
G01*
%TO.C,C9*%
X155602000Y-69659000D02*
X158342000Y-69659000D01*
X155602000Y-76899000D02*
X155602000Y-69659000D01*
X158342000Y-69659000D02*
X158342000Y-76899000D01*
X158342000Y-76899000D02*
X155602000Y-76899000D01*
%TO.C,C5*%
X166270000Y-57126000D02*
X169010000Y-57126000D01*
X166270000Y-64366000D02*
X166270000Y-57126000D01*
X169010000Y-57126000D02*
X169010000Y-64366000D01*
X169010000Y-64366000D02*
X166270000Y-64366000D01*
%TO.C,C7*%
X146966000Y-57126000D02*
X149706000Y-57126000D01*
X146966000Y-64366000D02*
X146966000Y-57126000D01*
X149706000Y-57126000D02*
X149706000Y-64366000D01*
X149706000Y-64366000D02*
X146966000Y-64366000D01*
%TO.C,R20*%
X151172000Y-85090000D02*
X151242000Y-85090000D01*
X151172000Y-85090000D02*
G75*
G02*
X148432000Y-85090000I-1370000J0D01*
G01*
X148432000Y-85090000D02*
G75*
G02*
X151172000Y-85090000I1370000J0D01*
G01*
%TO.C,D4*%
X150410537Y-71886000D02*
G75*
G02*
X150410537Y-69846000I-1058537J1020000D01*
G01*
%TO.C,RV1*%
X175206000Y-63128000D02*
X175206000Y-58408000D01*
X175216000Y-54598000D02*
X175216000Y-51538000D01*
X176396000Y-63128000D02*
X175216000Y-63128000D01*
X179296000Y-63128000D02*
X178766000Y-63128000D01*
X181746000Y-63128000D02*
X180916000Y-63128000D01*
X184956000Y-51538000D02*
X175216000Y-51538000D01*
X184956000Y-54598000D02*
X184956000Y-51538000D01*
X184956000Y-63128000D02*
X183466000Y-63128000D01*
X184956000Y-63128000D02*
X184956000Y-58408000D01*
%TO.C,R5*%
X177800000Y-87784000D02*
X177800000Y-87714000D01*
X179170000Y-89154000D02*
G75*
G02*
X176430000Y-89154000I-1370000J0D01*
G01*
X176430000Y-89154000D02*
G75*
G02*
X179170000Y-89154000I1370000J0D01*
G01*
%TO.C,R6*%
X171704000Y-54202000D02*
X171704000Y-54272000D01*
X173074000Y-52832000D02*
G75*
G02*
X170334000Y-52832000I-1370000J0D01*
G01*
X170334000Y-52832000D02*
G75*
G02*
X173074000Y-52832000I1370000J0D01*
G01*
%TO.C,D5*%
X158206000Y-107476000D02*
X158206000Y-107632000D01*
X158206000Y-109792000D02*
X158206000Y-109948000D01*
X158206000Y-107476484D02*
G75*
G02*
X161437437Y-107632000I1560000J-1235516D01*
G01*
X158725039Y-107632000D02*
G75*
G02*
X160806961Y-107632000I1040961J-1080000D01*
G01*
X160806961Y-109792000D02*
G75*
G02*
X158725039Y-109792000I-1040961J1080000D01*
G01*
X161437437Y-109792000D02*
G75*
G02*
X158206000Y-109947516I-1671437J1080000D01*
G01*
%TO.C,R3*%
X187452000Y-87813000D02*
X187452000Y-87743000D01*
X188822000Y-89183000D02*
G75*
G02*
X186082000Y-89183000I-1370000J0D01*
G01*
X186082000Y-89183000D02*
G75*
G02*
X188822000Y-89183000I1370000J0D01*
G01*
%TO.C,C12*%
X132016000Y-88038000D02*
X139256000Y-88038000D01*
X132016000Y-90778000D02*
X132016000Y-88038000D01*
X139256000Y-88038000D02*
X139256000Y-90778000D01*
X139256000Y-90778000D02*
X132016000Y-90778000D01*
%TO.C,R13*%
X150522000Y-81534000D02*
X150452000Y-81534000D01*
X153262000Y-81534000D02*
G75*
G02*
X150522000Y-81534000I-1370000J0D01*
G01*
X150522000Y-81534000D02*
G75*
G02*
X153262000Y-81534000I1370000J0D01*
G01*
%TO.C,C1*%
X161190000Y-98488000D02*
X163930000Y-98488000D01*
X161190000Y-105728000D02*
X161190000Y-98488000D01*
X163930000Y-98488000D02*
X163930000Y-105728000D01*
X163930000Y-105728000D02*
X161190000Y-105728000D01*
%TO.C,R12*%
X150722000Y-77978000D02*
X150792000Y-77978000D01*
X150722000Y-77978000D02*
G75*
G02*
X147982000Y-77978000I-1370000J0D01*
G01*
X147982000Y-77978000D02*
G75*
G02*
X150722000Y-77978000I1370000J0D01*
G01*
%TO.C,Q2*%
X164918000Y-67586000D02*
X164918000Y-63986000D01*
X160468000Y-65786000D02*
G75*
G02*
X164906478Y-63947522I2600000J0D01*
G01*
X164906478Y-67624478D02*
G75*
G02*
X160467999Y-65786000I-1838478J1838478D01*
G01*
%TO.C,R7*%
X169318000Y-77978000D02*
X169248000Y-77978000D01*
X172058000Y-77978000D02*
G75*
G02*
X169318000Y-77978000I-1370000J0D01*
G01*
X169318000Y-77978000D02*
G75*
G02*
X172058000Y-77978000I1370000J0D01*
G01*
%TO.C,SW1*%
X169911000Y-135854000D02*
X169911000Y-118654000D01*
X150011000Y-135854000D02*
X169911000Y-135854000D01*
X150011000Y-135854000D02*
X149961000Y-118654000D01*
X150011000Y-118654000D02*
X169911000Y-118654000D01*
%TO.C,R19*%
X169318000Y-85090000D02*
X169248000Y-85090000D01*
X172058000Y-85090000D02*
G75*
G02*
X169318000Y-85090000I-1370000J0D01*
G01*
X169318000Y-85090000D02*
G75*
G02*
X172058000Y-85090000I1370000J0D01*
G01*
%TO.C,C4*%
X170334000Y-57126000D02*
X173074000Y-57126000D01*
X170334000Y-64366000D02*
X170334000Y-57126000D01*
X173074000Y-57126000D02*
X173074000Y-64366000D01*
X173074000Y-64366000D02*
X170334000Y-64366000D01*
%TO.C,R4*%
X173990000Y-87813000D02*
X173990000Y-87743000D01*
X175360000Y-89183000D02*
G75*
G02*
X172620000Y-89183000I-1370000J0D01*
G01*
X172620000Y-89183000D02*
G75*
G02*
X175360000Y-89183000I1370000J0D01*
G01*
%TO.C,R1*%
X162560000Y-94813000D02*
X162560000Y-94883000D01*
X163930000Y-93443000D02*
G75*
G02*
X161190000Y-93443000I-1370000J0D01*
G01*
X161190000Y-93443000D02*
G75*
G02*
X163930000Y-93443000I1370000J0D01*
G01*
%TO.C,C8*%
X151030000Y-57126000D02*
X153770000Y-57126000D01*
X151030000Y-64366000D02*
X151030000Y-57126000D01*
X153770000Y-57126000D02*
X153770000Y-64366000D01*
X153770000Y-64366000D02*
X151030000Y-64366000D01*
%TO.C,Q4*%
X145056000Y-80954000D02*
X141456000Y-80954000D01*
X143256000Y-85404000D02*
G75*
G02*
X141417522Y-80965522I0J2600000D01*
G01*
X145094478Y-80965522D02*
G75*
G02*
X143256000Y-85404001I-1838478J-1838478D01*
G01*
%TO.C,RV2*%
X175206000Y-78502000D02*
X175206000Y-73782000D01*
X175216000Y-69972000D02*
X175216000Y-66912000D01*
X176396000Y-78502000D02*
X175216000Y-78502000D01*
X179296000Y-78502000D02*
X178766000Y-78502000D01*
X181746000Y-78502000D02*
X180916000Y-78502000D01*
X184956000Y-66912000D02*
X175216000Y-66912000D01*
X184956000Y-69972000D02*
X184956000Y-66912000D01*
X184956000Y-78502000D02*
X183466000Y-78502000D01*
X184956000Y-78502000D02*
X184956000Y-73782000D01*
%TO.C,R2*%
X158496000Y-94813000D02*
X158496000Y-94883000D01*
X159866000Y-93443000D02*
G75*
G02*
X157126000Y-93443000I-1370000J0D01*
G01*
X157126000Y-93443000D02*
G75*
G02*
X159866000Y-93443000I1370000J0D01*
G01*
%TO.C,Q1*%
X180572000Y-90242000D02*
X184172000Y-90242000D01*
X180533522Y-90230478D02*
G75*
G02*
X182372000Y-85791999I1838478J1838478D01*
G01*
X182372000Y-85792000D02*
G75*
G02*
X184210478Y-90230478I0J-2600000D01*
G01*
%TO.C,D3*%
X150833463Y-73402000D02*
G75*
G02*
X150833463Y-75442000I1058537J-1020000D01*
G01*
%TO.C,R9*%
X163068000Y-80164000D02*
X163068000Y-80094000D01*
X164438000Y-81534000D02*
G75*
G02*
X161698000Y-81534000I-1370000J0D01*
G01*
X161698000Y-81534000D02*
G75*
G02*
X164438000Y-81534000I1370000J0D01*
G01*
%TO.C,C14*%
X161413380Y-50739000D02*
X162043380Y-50739000D01*
X161728380Y-50424000D02*
X161728380Y-51054000D01*
X164913621Y-49348000D02*
X164913621Y-55808000D01*
X164953621Y-49348000D02*
X164953621Y-55808000D01*
X164993621Y-49349000D02*
X164993621Y-55807000D01*
X165033621Y-49350000D02*
X165033621Y-55806000D01*
X165073621Y-49352000D02*
X165073621Y-55804000D01*
X165113621Y-49354000D02*
X165113621Y-55802000D01*
X165153621Y-49357000D02*
X165153621Y-51538000D01*
X165153621Y-53618000D02*
X165153621Y-55799000D01*
X165193621Y-49360000D02*
X165193621Y-51538000D01*
X165193621Y-53618000D02*
X165193621Y-55796000D01*
X165233621Y-49364000D02*
X165233621Y-51538000D01*
X165233621Y-53618000D02*
X165233621Y-55792000D01*
X165273621Y-49368000D02*
X165273621Y-51538000D01*
X165273621Y-53618000D02*
X165273621Y-55788000D01*
X165313621Y-49373000D02*
X165313621Y-51538000D01*
X165313621Y-53618000D02*
X165313621Y-55783000D01*
X165353621Y-49378000D02*
X165353621Y-51538000D01*
X165353621Y-53618000D02*
X165353621Y-55778000D01*
X165393621Y-49383000D02*
X165393621Y-51538000D01*
X165393621Y-53618000D02*
X165393621Y-55773000D01*
X165433621Y-49390000D02*
X165433621Y-51538000D01*
X165433621Y-53618000D02*
X165433621Y-55766000D01*
X165473621Y-49396000D02*
X165473621Y-51538000D01*
X165473621Y-53618000D02*
X165473621Y-55760000D01*
X165513621Y-49404000D02*
X165513621Y-51538000D01*
X165513621Y-53618000D02*
X165513621Y-55752000D01*
X165553621Y-49411000D02*
X165553621Y-51538000D01*
X165553621Y-53618000D02*
X165553621Y-55745000D01*
X165593621Y-49419000D02*
X165593621Y-51538000D01*
X165593621Y-53618000D02*
X165593621Y-55737000D01*
X165633621Y-49428000D02*
X165633621Y-51538000D01*
X165633621Y-53618000D02*
X165633621Y-55728000D01*
X165673621Y-49438000D02*
X165673621Y-51538000D01*
X165673621Y-53618000D02*
X165673621Y-55718000D01*
X165713621Y-49447000D02*
X165713621Y-51538000D01*
X165713621Y-53618000D02*
X165713621Y-55709000D01*
X165753621Y-49458000D02*
X165753621Y-51538000D01*
X165753621Y-53618000D02*
X165753621Y-55698000D01*
X165793621Y-49469000D02*
X165793621Y-51538000D01*
X165793621Y-53618000D02*
X165793621Y-55687000D01*
X165833621Y-49480000D02*
X165833621Y-51538000D01*
X165833621Y-53618000D02*
X165833621Y-55676000D01*
X165873621Y-49492000D02*
X165873621Y-51538000D01*
X165873621Y-53618000D02*
X165873621Y-55664000D01*
X165913621Y-49505000D02*
X165913621Y-51538000D01*
X165913621Y-53618000D02*
X165913621Y-55651000D01*
X165953621Y-49518000D02*
X165953621Y-51538000D01*
X165953621Y-53618000D02*
X165953621Y-55638000D01*
X165993621Y-49531000D02*
X165993621Y-51538000D01*
X165993621Y-53618000D02*
X165993621Y-55625000D01*
X166033621Y-49546000D02*
X166033621Y-51538000D01*
X166033621Y-53618000D02*
X166033621Y-55610000D01*
X166073621Y-49561000D02*
X166073621Y-51538000D01*
X166073621Y-53618000D02*
X166073621Y-55595000D01*
X166113621Y-49576000D02*
X166113621Y-51538000D01*
X166113621Y-53618000D02*
X166113621Y-55580000D01*
X166153621Y-49592000D02*
X166153621Y-51538000D01*
X166153621Y-53618000D02*
X166153621Y-55564000D01*
X166193621Y-49609000D02*
X166193621Y-51538000D01*
X166193621Y-53618000D02*
X166193621Y-55547000D01*
X166233621Y-49626000D02*
X166233621Y-51538000D01*
X166233621Y-53618000D02*
X166233621Y-55530000D01*
X166273621Y-49644000D02*
X166273621Y-51538000D01*
X166273621Y-53618000D02*
X166273621Y-55512000D01*
X166313621Y-49663000D02*
X166313621Y-51538000D01*
X166313621Y-53618000D02*
X166313621Y-55493000D01*
X166353621Y-49682000D02*
X166353621Y-51538000D01*
X166353621Y-53618000D02*
X166353621Y-55474000D01*
X166393621Y-49702000D02*
X166393621Y-51538000D01*
X166393621Y-53618000D02*
X166393621Y-55454000D01*
X166433621Y-49723000D02*
X166433621Y-51538000D01*
X166433621Y-53618000D02*
X166433621Y-55433000D01*
X166473621Y-49744000D02*
X166473621Y-51538000D01*
X166473621Y-53618000D02*
X166473621Y-55412000D01*
X166513621Y-49766000D02*
X166513621Y-51538000D01*
X166513621Y-53618000D02*
X166513621Y-55390000D01*
X166553621Y-49789000D02*
X166553621Y-51538000D01*
X166553621Y-53618000D02*
X166553621Y-55367000D01*
X166593621Y-49813000D02*
X166593621Y-51538000D01*
X166593621Y-53618000D02*
X166593621Y-55343000D01*
X166633621Y-49837000D02*
X166633621Y-51538000D01*
X166633621Y-53618000D02*
X166633621Y-55319000D01*
X166673621Y-49862000D02*
X166673621Y-51538000D01*
X166673621Y-53618000D02*
X166673621Y-55294000D01*
X166713621Y-49888000D02*
X166713621Y-51538000D01*
X166713621Y-53618000D02*
X166713621Y-55268000D01*
X166753621Y-49915000D02*
X166753621Y-51538000D01*
X166753621Y-53618000D02*
X166753621Y-55241000D01*
X166793621Y-49942000D02*
X166793621Y-51538000D01*
X166793621Y-53618000D02*
X166793621Y-55214000D01*
X166833621Y-49971000D02*
X166833621Y-51538000D01*
X166833621Y-53618000D02*
X166833621Y-55185000D01*
X166873621Y-50001000D02*
X166873621Y-51538000D01*
X166873621Y-53618000D02*
X166873621Y-55155000D01*
X166913621Y-50031000D02*
X166913621Y-51538000D01*
X166913621Y-53618000D02*
X166913621Y-55125000D01*
X166953621Y-50062000D02*
X166953621Y-51538000D01*
X166953621Y-53618000D02*
X166953621Y-55094000D01*
X166993621Y-50095000D02*
X166993621Y-51538000D01*
X166993621Y-53618000D02*
X166993621Y-55061000D01*
X167033621Y-50128000D02*
X167033621Y-51538000D01*
X167033621Y-53618000D02*
X167033621Y-55028000D01*
X167073621Y-50163000D02*
X167073621Y-51538000D01*
X167073621Y-53618000D02*
X167073621Y-54993000D01*
X167113621Y-50199000D02*
X167113621Y-51538000D01*
X167113621Y-53618000D02*
X167113621Y-54957000D01*
X167153621Y-50236000D02*
X167153621Y-51538000D01*
X167153621Y-53618000D02*
X167153621Y-54920000D01*
X167193621Y-50274000D02*
X167193621Y-51538000D01*
X167193621Y-53618000D02*
X167193621Y-54882000D01*
X167233621Y-50314000D02*
X167233621Y-54842000D01*
X167273621Y-50355000D02*
X167273621Y-54801000D01*
X167313621Y-50397000D02*
X167313621Y-54759000D01*
X167353621Y-50441000D02*
X167353621Y-54715000D01*
X167393621Y-50487000D02*
X167393621Y-54669000D01*
X167433621Y-50534000D02*
X167433621Y-54622000D01*
X167473621Y-50583000D02*
X167473621Y-54573000D01*
X167513621Y-50635000D02*
X167513621Y-54521000D01*
X167553621Y-50688000D02*
X167553621Y-54468000D01*
X167593621Y-50744000D02*
X167593621Y-54412000D01*
X167633621Y-50803000D02*
X167633621Y-54353000D01*
X167673621Y-50864000D02*
X167673621Y-54292000D01*
X167713621Y-50929000D02*
X167713621Y-54227000D01*
X167753621Y-50997000D02*
X167753621Y-54159000D01*
X167793621Y-51069000D02*
X167793621Y-54087000D01*
X167833621Y-51146000D02*
X167833621Y-54010000D01*
X167873621Y-51228000D02*
X167873621Y-53928000D01*
X167913621Y-51317000D02*
X167913621Y-53839000D01*
X167953621Y-51413000D02*
X167953621Y-53743000D01*
X167993621Y-51520000D02*
X167993621Y-53636000D01*
X168033621Y-51639000D02*
X168033621Y-53517000D01*
X168073621Y-51777000D02*
X168073621Y-53379000D01*
X168113621Y-51945000D02*
X168113621Y-53211000D01*
X168153621Y-52176000D02*
X168153621Y-52980000D01*
X168183621Y-52578000D02*
G75*
G02*
X161643621Y-52578000I-3270000J0D01*
G01*
X161643621Y-52578000D02*
G75*
G02*
X168183621Y-52578000I3270000J0D01*
G01*
%TO.C,R11*%
X169518000Y-67310000D02*
X169588000Y-67310000D01*
X169518000Y-67310000D02*
G75*
G02*
X166778000Y-67310000I-1370000J0D01*
G01*
X166778000Y-67310000D02*
G75*
G02*
X169518000Y-67310000I1370000J0D01*
G01*
%TO.C,R23*%
X157297000Y-85090000D02*
X157367000Y-85090000D01*
X157297000Y-85090000D02*
G75*
G02*
X154557000Y-85090000I-1370000J0D01*
G01*
X154557000Y-85090000D02*
G75*
G02*
X157297000Y-85090000I1370000J0D01*
G01*
%TO.C,R8*%
X169518000Y-81534000D02*
X169588000Y-81534000D01*
X169518000Y-81534000D02*
G75*
G02*
X166778000Y-81534000I-1370000J0D01*
G01*
X166778000Y-81534000D02*
G75*
G02*
X169518000Y-81534000I1370000J0D01*
G01*
%TO.C,R15*%
X157480000Y-59986000D02*
X157480000Y-60056000D01*
X158850000Y-58616000D02*
G75*
G02*
X156110000Y-58616000I-1370000J0D01*
G01*
X156110000Y-58616000D02*
G75*
G02*
X158850000Y-58616000I1370000J0D01*
G01*
%TO.C,C2*%
X181800000Y-81942000D02*
X189040000Y-81942000D01*
X181800000Y-84682000D02*
X181800000Y-81942000D01*
X189040000Y-81942000D02*
X189040000Y-84682000D01*
X189040000Y-84682000D02*
X181800000Y-84682000D01*
%TO.C,R10*%
X163068000Y-59986000D02*
X163068000Y-60056000D01*
X164438000Y-58616000D02*
G75*
G02*
X161698000Y-58616000I-1370000J0D01*
G01*
X161698000Y-58616000D02*
G75*
G02*
X164438000Y-58616000I1370000J0D01*
G01*
%TO.C,C13*%
X147002000Y-51970000D02*
X154242000Y-51970000D01*
X147002000Y-54710000D02*
X147002000Y-51970000D01*
X154242000Y-51970000D02*
X154242000Y-54710000D01*
X154242000Y-54710000D02*
X147002000Y-54710000D01*
%TO.C,R21*%
X145288000Y-88492000D02*
X145288000Y-88562000D01*
X146658000Y-87122000D02*
G75*
G02*
X143918000Y-87122000I-1370000J0D01*
G01*
X143918000Y-87122000D02*
G75*
G02*
X146658000Y-87122000I1370000J0D01*
G01*
%TO.C,Q3*%
X159330000Y-67586000D02*
X159330000Y-63986000D01*
X154880000Y-65786000D02*
G75*
G02*
X159318478Y-63947522I2600000J0D01*
G01*
X159318478Y-67624478D02*
G75*
G02*
X154879999Y-65786000I-1838478J1838478D01*
G01*
%TO.C,R18*%
X158496000Y-103420000D02*
X158496000Y-103490000D01*
X159866000Y-102050000D02*
G75*
G02*
X157126000Y-102050000I-1370000J0D01*
G01*
X157126000Y-102050000D02*
G75*
G02*
X159866000Y-102050000I1370000J0D01*
G01*
%TO.C,R16*%
X150522000Y-67310000D02*
X150452000Y-67310000D01*
X153262000Y-67310000D02*
G75*
G02*
X150522000Y-67310000I-1370000J0D01*
G01*
X150522000Y-67310000D02*
G75*
G02*
X153262000Y-67310000I1370000J0D01*
G01*
%TO.C,R22*%
X141732000Y-88292000D02*
X141732000Y-88222000D01*
X143102000Y-89662000D02*
G75*
G02*
X140362000Y-89662000I-1370000J0D01*
G01*
X140362000Y-89662000D02*
G75*
G02*
X143102000Y-89662000I1370000J0D01*
G01*
%TO.C,C10*%
X139256000Y-84174000D02*
X132016000Y-84174000D01*
X139256000Y-81434000D02*
X139256000Y-84174000D01*
X132016000Y-84174000D02*
X132016000Y-81434000D01*
X132016000Y-81434000D02*
X139256000Y-81434000D01*
%TO.C,D2*%
X169629463Y-69846000D02*
G75*
G02*
X169629463Y-71886000I1058537J-1020000D01*
G01*
%TO.C,D1*%
X169206537Y-75442000D02*
G75*
G02*
X169206537Y-73402000I-1058537J1020000D01*
G01*
%TD*%
M02*
