%TF.GenerationSoftware,KiCad,Pcbnew,9.0.4*%
%TF.CreationDate,2026-08-06T07:55:32-04:00*%
%TF.ProjectId,dynafuzz,64796e61-6675-47a7-9a2e-6b696361645f,rev?*%
%TF.SameCoordinates,Original*%
%TF.FileFunction,Legend,Bot*%
%TF.FilePolarity,Positive*%
%FSLAX46Y46*%
G04 Gerber Fmt 4.6, Leading zero omitted, Abs format (unit mm)*
G04 Created by KiCad (PCBNEW 9.0.4) date 2026-08-06 07:55:32*
%MOMM*%
%LPD*%
G01*
G04 APERTURE LIST*
%ADD10C,0.000000*%
%ADD11C,0.100000*%
%ADD12C,0.120000*%
G04 APERTURE END LIST*
D10*
G36*
X163067659Y-73646724D02*
G01*
X163067527Y-73655198D01*
X163067133Y-73662952D01*
X163066837Y-73666559D01*
X163066476Y-73669986D01*
X163066049Y-73673233D01*
X163065556Y-73676300D01*
X163064998Y-73679188D01*
X163064373Y-73681895D01*
X163063683Y-73684422D01*
X163062928Y-73686769D01*
X163062106Y-73688936D01*
X163061219Y-73690924D01*
X163060267Y-73692731D01*
X163059248Y-73694359D01*
X163058173Y-73695847D01*
X163057048Y-73697239D01*
X163055875Y-73698535D01*
X163054654Y-73699735D01*
X163053384Y-73700839D01*
X163052065Y-73701847D01*
X163051387Y-73702315D01*
X163050698Y-73702759D01*
X163049996Y-73703179D01*
X163049282Y-73703575D01*
X163048555Y-73703947D01*
X163047817Y-73704295D01*
X163047066Y-73704619D01*
X163046304Y-73704919D01*
X163045529Y-73705195D01*
X163044742Y-73705447D01*
X163043131Y-73705880D01*
X163041472Y-73706216D01*
X163039764Y-73706456D01*
X163038008Y-73706600D01*
X163036203Y-73706648D01*
X163034685Y-73706629D01*
X163033202Y-73706575D01*
X163031756Y-73706484D01*
X163030346Y-73706357D01*
X163028971Y-73706193D01*
X163027633Y-73705994D01*
X163026330Y-73705757D01*
X163025064Y-73705485D01*
X163023833Y-73705176D01*
X163022639Y-73704831D01*
X163021480Y-73704449D01*
X163020357Y-73704031D01*
X163019270Y-73703577D01*
X163018219Y-73703087D01*
X163017204Y-73702560D01*
X163016225Y-73701997D01*
X163015702Y-73701693D01*
X163015185Y-73701365D01*
X163014674Y-73701011D01*
X163014169Y-73700632D01*
X163013670Y-73700227D01*
X163013176Y-73699797D01*
X163012688Y-73699342D01*
X163012206Y-73698861D01*
X163011730Y-73698355D01*
X163011260Y-73697824D01*
X163010337Y-73696685D01*
X163009437Y-73695445D01*
X163008561Y-73694104D01*
X163007708Y-73692661D01*
X163006879Y-73691117D01*
X163006073Y-73689471D01*
X163005290Y-73687725D01*
X163004530Y-73685876D01*
X163003794Y-73683927D01*
X163003082Y-73681876D01*
X163002392Y-73679724D01*
X163001745Y-73677440D01*
X163001140Y-73675006D01*
X163000576Y-73672421D01*
X163000054Y-73669687D01*
X162999574Y-73666803D01*
X162999136Y-73663769D01*
X162998384Y-73657250D01*
X162997800Y-73650131D01*
X162997383Y-73642412D01*
X162997132Y-73634093D01*
X162997049Y-73625173D01*
X162991986Y-73630203D01*
X162986786Y-73635112D01*
X162981448Y-73639902D01*
X162975971Y-73644571D01*
X162970357Y-73649121D01*
X162964604Y-73653550D01*
X162958714Y-73657860D01*
X162952685Y-73662049D01*
X162946518Y-73666118D01*
X162940213Y-73670067D01*
X162933770Y-73673896D01*
X162927189Y-73677605D01*
X162920470Y-73681194D01*
X162913613Y-73684663D01*
X162906617Y-73688012D01*
X162899484Y-73691241D01*
X162892237Y-73694311D01*
X162884899Y-73697183D01*
X162877472Y-73699857D01*
X162869955Y-73702332D01*
X162862347Y-73704610D01*
X162854650Y-73706690D01*
X162846862Y-73708571D01*
X162838984Y-73710255D01*
X162831017Y-73711740D01*
X162822959Y-73713028D01*
X162814811Y-73714117D01*
X162806574Y-73715008D01*
X162798246Y-73715701D01*
X162789828Y-73716196D01*
X162781320Y-73716494D01*
X162772723Y-73716593D01*
X162761772Y-73716434D01*
X162751007Y-73715956D01*
X162740428Y-73715161D01*
X162730036Y-73714048D01*
X162719829Y-73712616D01*
X162709809Y-73710867D01*
X162699975Y-73708799D01*
X162690327Y-73706413D01*
X162680865Y-73703709D01*
X162671589Y-73700687D01*
X162662499Y-73697347D01*
X162653596Y-73693689D01*
X162644878Y-73689712D01*
X162636347Y-73685418D01*
X162628002Y-73680805D01*
X162619843Y-73675875D01*
X162611800Y-73670662D01*
X162603997Y-73665203D01*
X162596434Y-73659498D01*
X162589111Y-73653547D01*
X162582028Y-73647350D01*
X162575186Y-73640907D01*
X162568584Y-73634218D01*
X162562222Y-73627282D01*
X162556100Y-73620101D01*
X162550218Y-73612674D01*
X162544576Y-73605000D01*
X162539174Y-73597081D01*
X162534013Y-73588915D01*
X162529092Y-73580504D01*
X162524411Y-73571846D01*
X162519970Y-73562942D01*
X162515784Y-73553835D01*
X162511867Y-73544565D01*
X162508221Y-73535133D01*
X162504844Y-73525539D01*
X162501738Y-73515783D01*
X162498902Y-73505865D01*
X162496336Y-73495784D01*
X162494040Y-73485542D01*
X162492015Y-73475138D01*
X162490259Y-73464571D01*
X162488774Y-73453843D01*
X162487558Y-73442952D01*
X162486613Y-73431899D01*
X162485938Y-73420685D01*
X162485533Y-73409308D01*
X162485399Y-73397834D01*
X162559026Y-73397834D01*
X162559122Y-73406621D01*
X162559410Y-73415312D01*
X162559891Y-73423906D01*
X162560563Y-73432405D01*
X162561427Y-73440808D01*
X162562484Y-73449115D01*
X162563733Y-73457326D01*
X162565173Y-73465440D01*
X162566806Y-73473459D01*
X162568631Y-73481382D01*
X162570648Y-73489208D01*
X162572857Y-73496939D01*
X162575259Y-73504573D01*
X162577852Y-73512111D01*
X162580637Y-73519554D01*
X162583615Y-73526900D01*
X162586780Y-73534012D01*
X162590132Y-73540945D01*
X162593670Y-73547697D01*
X162597394Y-73554269D01*
X162601304Y-73560661D01*
X162605400Y-73566873D01*
X162609683Y-73572905D01*
X162614151Y-73578757D01*
X162618806Y-73584429D01*
X162623647Y-73589921D01*
X162628674Y-73595232D01*
X162633887Y-73600364D01*
X162639286Y-73605316D01*
X162644871Y-73610088D01*
X162650643Y-73614679D01*
X162656600Y-73619091D01*
X162662731Y-73623278D01*
X162669024Y-73627194D01*
X162675479Y-73630841D01*
X162682095Y-73634217D01*
X162688874Y-73637323D01*
X162695815Y-73640159D01*
X162702919Y-73642725D01*
X162710184Y-73645021D01*
X162717611Y-73647047D01*
X162725201Y-73648803D01*
X162732952Y-73650288D01*
X162740866Y-73651504D01*
X162748941Y-73652449D01*
X162757179Y-73653124D01*
X162765579Y-73653529D01*
X162774141Y-73653664D01*
X162774131Y-73653665D01*
X162783279Y-73653548D01*
X162792282Y-73653197D01*
X162801142Y-73652612D01*
X162809857Y-73651793D01*
X162818428Y-73650739D01*
X162826855Y-73649452D01*
X162835138Y-73647930D01*
X162843276Y-73646175D01*
X162851271Y-73644185D01*
X162859121Y-73641961D01*
X162866828Y-73639503D01*
X162874390Y-73636811D01*
X162881808Y-73633885D01*
X162889082Y-73630725D01*
X162896212Y-73627331D01*
X162903198Y-73623703D01*
X162909943Y-73619874D01*
X162916545Y-73615876D01*
X162923003Y-73611711D01*
X162929317Y-73607377D01*
X162935487Y-73602876D01*
X162941513Y-73598206D01*
X162947395Y-73593369D01*
X162953133Y-73588363D01*
X162958727Y-73583189D01*
X162964177Y-73577848D01*
X162969484Y-73572338D01*
X162974646Y-73566660D01*
X162979664Y-73560814D01*
X162984539Y-73554800D01*
X162989269Y-73548618D01*
X162993856Y-73542268D01*
X162993856Y-73241115D01*
X162983748Y-73229114D01*
X162973209Y-73217888D01*
X162962237Y-73207435D01*
X162950834Y-73197757D01*
X162938998Y-73188853D01*
X162926730Y-73180724D01*
X162914029Y-73173368D01*
X162900897Y-73166787D01*
X162887333Y-73160980D01*
X162873336Y-73155948D01*
X162858907Y-73151689D01*
X162844047Y-73148205D01*
X162828754Y-73145496D01*
X162813029Y-73143560D01*
X162796872Y-73142399D01*
X162780282Y-73142011D01*
X162771529Y-73142146D01*
X162762937Y-73142552D01*
X162754507Y-73143227D01*
X162746239Y-73144172D01*
X162738134Y-73145388D01*
X162730190Y-73146873D01*
X162722408Y-73148629D01*
X162714789Y-73150655D01*
X162707332Y-73152950D01*
X162700036Y-73155516D01*
X162692903Y-73158352D01*
X162685932Y-73161459D01*
X162679123Y-73164835D01*
X162672476Y-73168481D01*
X162665991Y-73172398D01*
X162659668Y-73176584D01*
X162653522Y-73180999D01*
X162647567Y-73185599D01*
X162641805Y-73190386D01*
X162636235Y-73195359D01*
X162630857Y-73200517D01*
X162625671Y-73205862D01*
X162620677Y-73211393D01*
X162615875Y-73217109D01*
X162611266Y-73223012D01*
X162606848Y-73229100D01*
X162602623Y-73235375D01*
X162598590Y-73241835D01*
X162594748Y-73248482D01*
X162591099Y-73255314D01*
X162587642Y-73262332D01*
X162584378Y-73269537D01*
X162581308Y-73276881D01*
X162578436Y-73284314D01*
X162575762Y-73291838D01*
X162573286Y-73299452D01*
X162571009Y-73307155D01*
X162568929Y-73314949D01*
X162567047Y-73322833D01*
X162565364Y-73330806D01*
X162563879Y-73338870D01*
X162562591Y-73347023D01*
X162561502Y-73355267D01*
X162560611Y-73363600D01*
X162559917Y-73372024D01*
X162559422Y-73380537D01*
X162559125Y-73389140D01*
X162559026Y-73397834D01*
X162485399Y-73397834D01*
X162485398Y-73397769D01*
X162485536Y-73386416D01*
X162485950Y-73375214D01*
X162486640Y-73364162D01*
X162487606Y-73353259D01*
X162488848Y-73342507D01*
X162490367Y-73331905D01*
X162492161Y-73321453D01*
X162494231Y-73311150D01*
X162496578Y-73300998D01*
X162499200Y-73290996D01*
X162502099Y-73281144D01*
X162505273Y-73271442D01*
X162508724Y-73261890D01*
X162512451Y-73252488D01*
X162516453Y-73243236D01*
X162520732Y-73234134D01*
X162525269Y-73225136D01*
X162530046Y-73216391D01*
X162535064Y-73207898D01*
X162540321Y-73199657D01*
X162545818Y-73191669D01*
X162551556Y-73183932D01*
X162557534Y-73176448D01*
X162563752Y-73169215D01*
X162570210Y-73162235D01*
X162576908Y-73155507D01*
X162583847Y-73149031D01*
X162591025Y-73142807D01*
X162598444Y-73136835D01*
X162606102Y-73131115D01*
X162614001Y-73125647D01*
X162622140Y-73120432D01*
X162630393Y-73115409D01*
X162638825Y-73110710D01*
X162647438Y-73106335D01*
X162656230Y-73102285D01*
X162665203Y-73098558D01*
X162674356Y-73095155D01*
X162683689Y-73092077D01*
X162693202Y-73089322D01*
X162702895Y-73086892D01*
X162712768Y-73084786D01*
X162722821Y-73083003D01*
X162733055Y-73081545D01*
X162743468Y-73080411D01*
X162754062Y-73079601D01*
X162764836Y-73079115D01*
X162775790Y-73078953D01*
X162792979Y-73079277D01*
X162809591Y-73080249D01*
X162817682Y-73080978D01*
X162825628Y-73081869D01*
X162833431Y-73082922D01*
X162841089Y-73084137D01*
X162848604Y-73085515D01*
X162855974Y-73087054D01*
X162863201Y-73088755D01*
X162870283Y-73090619D01*
X162877221Y-73092644D01*
X162884016Y-73094831D01*
X162890666Y-73097181D01*
X162897172Y-73099692D01*
X162903492Y-73102360D01*
X162909776Y-73105177D01*
X162916024Y-73108145D01*
X162922235Y-73111262D01*
X162928411Y-73114530D01*
X162934551Y-73117948D01*
X162940655Y-73121515D01*
X162946723Y-73125233D01*
X162952755Y-73129101D01*
X162958752Y-73133119D01*
X162964712Y-73137287D01*
X162970636Y-73141605D01*
X162976525Y-73146073D01*
X162982377Y-73150692D01*
X162988193Y-73155460D01*
X162993974Y-73160378D01*
X162993974Y-72826959D01*
X162994005Y-72825116D01*
X162994097Y-72823331D01*
X162994251Y-72821605D01*
X162994466Y-72819937D01*
X162994743Y-72818328D01*
X162995081Y-72816777D01*
X162995481Y-72815285D01*
X162995942Y-72813851D01*
X162996465Y-72812476D01*
X162997050Y-72811159D01*
X162997696Y-72809901D01*
X162998403Y-72808701D01*
X162999172Y-72807560D01*
X163000002Y-72806478D01*
X163000894Y-72805454D01*
X163001848Y-72804488D01*
X163002863Y-72803581D01*
X163003939Y-72802733D01*
X163005077Y-72801943D01*
X163006277Y-72801211D01*
X163007538Y-72800538D01*
X163008861Y-72799924D01*
X163010245Y-72799368D01*
X163011690Y-72798870D01*
X163013197Y-72798431D01*
X163014766Y-72798051D01*
X163016396Y-72797729D01*
X163018088Y-72797466D01*
X163019841Y-72797261D01*
X163021656Y-72797115D01*
X163023532Y-72797027D01*
X163025470Y-72796998D01*
X163025440Y-72797016D01*
X163025409Y-72797034D01*
X163025348Y-72797071D01*
X163026259Y-72797096D01*
X163027459Y-72797170D01*
X163028947Y-72797294D01*
X163030723Y-72797467D01*
X163032788Y-72797690D01*
X163035142Y-72797962D01*
X163040715Y-72798654D01*
X163185913Y-72813249D01*
X163187519Y-72813561D01*
X163189071Y-72813927D01*
X163190568Y-72814348D01*
X163192012Y-72814823D01*
X163193401Y-72815353D01*
X163194736Y-72815937D01*
X163196018Y-72816576D01*
X163197245Y-72817269D01*
X163198419Y-72818017D01*
X163199538Y-72818819D01*
X163200603Y-72819676D01*
X163201615Y-72820587D01*
X163202572Y-72821552D01*
X163203475Y-72822573D01*
X163204324Y-72823647D01*
X163205119Y-72824776D01*
X163205862Y-72825933D01*
X163206557Y-72827102D01*
X163207204Y-72828283D01*
X163207803Y-72829476D01*
X163208354Y-72830682D01*
X163208858Y-72831900D01*
X163209313Y-72833130D01*
X163209720Y-72834372D01*
X163210080Y-72835627D01*
X163210392Y-72836894D01*
X163210655Y-72838174D01*
X163210871Y-72839465D01*
X163211039Y-72840769D01*
X163211159Y-72842086D01*
X163211230Y-72843414D01*
X163211254Y-72844755D01*
X163211222Y-72846276D01*
X163211123Y-72847767D01*
X163210959Y-72849229D01*
X163210729Y-72850660D01*
X163210433Y-72852061D01*
X163210072Y-72853432D01*
X163209644Y-72854773D01*
X163209152Y-72856085D01*
X163208593Y-72857366D01*
X163207969Y-72858617D01*
X163207279Y-72859838D01*
X163206523Y-72861030D01*
X163205702Y-72862191D01*
X163204814Y-72863322D01*
X163203862Y-72864423D01*
X163202843Y-72865495D01*
X163201773Y-72866513D01*
X163200667Y-72867466D01*
X163199524Y-72868353D01*
X163198345Y-72869174D01*
X163197128Y-72869930D01*
X163195876Y-72870620D01*
X163194586Y-72871244D01*
X163193260Y-72871803D01*
X163191897Y-72872295D01*
X163190498Y-72872722D01*
X163189061Y-72873084D01*
X163187589Y-72873379D01*
X163186079Y-72873609D01*
X163184534Y-72873774D01*
X163182951Y-72873872D01*
X163181332Y-72873905D01*
X163180183Y-72873893D01*
X163179062Y-72873857D01*
X163177969Y-72873797D01*
X163176904Y-72873713D01*
X163175866Y-72873605D01*
X163174857Y-72873472D01*
X163173875Y-72873316D01*
X163172921Y-72873136D01*
X163171041Y-72872749D01*
X163169260Y-72872357D01*
X163167578Y-72871958D01*
X163165994Y-72871553D01*
X163067659Y-72865418D01*
X163067659Y-73241115D01*
X163067659Y-73646724D01*
G37*
G36*
X156093634Y-72804058D02*
G01*
X156096819Y-72804274D01*
X156099949Y-72804634D01*
X156103025Y-72805138D01*
X156106047Y-72805787D01*
X156109015Y-72806579D01*
X156111929Y-72807515D01*
X156114789Y-72808595D01*
X156117595Y-72809819D01*
X156120347Y-72811187D01*
X156123045Y-72812699D01*
X156125689Y-72814356D01*
X156128279Y-72816156D01*
X156130815Y-72818100D01*
X156133297Y-72820189D01*
X156135724Y-72822421D01*
X156137957Y-72824758D01*
X156140045Y-72827161D01*
X156141989Y-72829631D01*
X156143789Y-72832167D01*
X156145445Y-72834768D01*
X156146958Y-72837436D01*
X156148326Y-72840170D01*
X156149550Y-72842970D01*
X156150630Y-72845836D01*
X156151566Y-72848768D01*
X156152359Y-72851766D01*
X156153007Y-72854831D01*
X156153511Y-72857961D01*
X156153871Y-72861158D01*
X156154087Y-72864420D01*
X156154159Y-72867749D01*
X156154087Y-72870984D01*
X156153871Y-72874160D01*
X156153511Y-72877275D01*
X156153007Y-72880330D01*
X156152359Y-72883325D01*
X156151566Y-72886260D01*
X156150630Y-72889135D01*
X156149550Y-72891950D01*
X156148326Y-72894704D01*
X156146958Y-72897399D01*
X156145445Y-72900034D01*
X156143789Y-72902608D01*
X156141989Y-72905123D01*
X156140045Y-72907577D01*
X156137957Y-72909971D01*
X156135724Y-72912306D01*
X156133387Y-72914538D01*
X156130984Y-72916626D01*
X156128515Y-72918570D01*
X156125980Y-72920370D01*
X156123378Y-72922027D01*
X156120711Y-72923539D01*
X156117977Y-72924907D01*
X156115177Y-72926131D01*
X156112311Y-72927211D01*
X156109378Y-72928148D01*
X156106380Y-72928940D01*
X156103316Y-72929588D01*
X156100185Y-72930092D01*
X156096988Y-72930452D01*
X156093725Y-72930668D01*
X156090396Y-72930740D01*
X156087071Y-72930668D01*
X156083818Y-72930452D01*
X156080638Y-72930092D01*
X156077529Y-72929588D01*
X156074492Y-72928940D01*
X156071527Y-72928148D01*
X156068634Y-72927211D01*
X156065814Y-72926131D01*
X156063065Y-72924907D01*
X156060388Y-72923539D01*
X156057783Y-72922027D01*
X156055250Y-72920370D01*
X156052790Y-72918570D01*
X156050401Y-72916626D01*
X156048084Y-72914538D01*
X156045839Y-72912306D01*
X156043606Y-72909971D01*
X156041518Y-72907577D01*
X156039574Y-72905123D01*
X156037774Y-72902608D01*
X156036118Y-72900034D01*
X156034605Y-72897399D01*
X156033237Y-72894704D01*
X156032013Y-72891950D01*
X156030933Y-72889135D01*
X156029997Y-72886260D01*
X156029205Y-72883325D01*
X156028556Y-72880330D01*
X156028052Y-72877275D01*
X156027692Y-72874160D01*
X156027476Y-72870984D01*
X156027404Y-72867749D01*
X156027476Y-72864422D01*
X156027692Y-72861160D01*
X156028052Y-72857964D01*
X156028556Y-72854835D01*
X156029205Y-72851771D01*
X156029997Y-72848773D01*
X156030933Y-72845841D01*
X156032013Y-72842975D01*
X156033237Y-72840175D01*
X156034605Y-72837441D01*
X156036118Y-72834773D01*
X156037774Y-72832170D01*
X156039574Y-72829634D01*
X156041518Y-72827164D01*
X156043606Y-72824759D01*
X156045839Y-72822421D01*
X156048173Y-72820189D01*
X156050567Y-72818100D01*
X156053021Y-72816156D01*
X156055535Y-72814356D01*
X156058110Y-72812699D01*
X156060745Y-72811187D01*
X156063439Y-72809819D01*
X156066194Y-72808595D01*
X156069009Y-72807515D01*
X156071884Y-72806579D01*
X156074819Y-72805787D01*
X156077815Y-72805138D01*
X156080870Y-72804634D01*
X156083985Y-72804274D01*
X156087161Y-72804058D01*
X156090396Y-72803986D01*
X156093634Y-72804058D01*
G37*
G36*
X155518662Y-73409748D02*
G01*
X155518185Y-73421473D01*
X155517390Y-73433012D01*
X155516276Y-73444365D01*
X155514845Y-73455531D01*
X155513095Y-73466512D01*
X155511028Y-73477306D01*
X155508642Y-73487914D01*
X155505938Y-73498336D01*
X155502916Y-73508573D01*
X155499576Y-73518623D01*
X155495918Y-73528487D01*
X155491942Y-73538165D01*
X155487648Y-73547657D01*
X155483035Y-73556963D01*
X155478105Y-73566083D01*
X155472886Y-73574981D01*
X155467409Y-73583620D01*
X155461674Y-73592002D01*
X155455681Y-73600126D01*
X155449430Y-73607991D01*
X155442921Y-73615598D01*
X155436154Y-73622948D01*
X155429129Y-73630039D01*
X155421845Y-73636872D01*
X155414304Y-73643447D01*
X155406504Y-73649764D01*
X155398447Y-73655823D01*
X155390131Y-73661624D01*
X155381557Y-73667167D01*
X155372725Y-73672452D01*
X155363635Y-73677479D01*
X155354326Y-73682224D01*
X155344836Y-73686663D01*
X155335167Y-73690796D01*
X155325317Y-73694622D01*
X155315287Y-73698143D01*
X155305078Y-73701357D01*
X155294688Y-73704265D01*
X155284119Y-73706867D01*
X155273370Y-73709163D01*
X155262440Y-73711153D01*
X155251331Y-73712837D01*
X155240041Y-73714214D01*
X155228572Y-73715286D01*
X155216923Y-73716051D01*
X155205093Y-73716510D01*
X155193084Y-73716663D01*
X155181074Y-73716510D01*
X155169244Y-73716051D01*
X155157594Y-73715286D01*
X155146124Y-73714214D01*
X155134834Y-73712837D01*
X155123725Y-73711153D01*
X155112795Y-73709163D01*
X155102046Y-73706867D01*
X155091476Y-73704265D01*
X155081087Y-73701357D01*
X155070878Y-73698143D01*
X155060849Y-73694622D01*
X155051000Y-73690796D01*
X155041331Y-73686663D01*
X155031842Y-73682224D01*
X155022533Y-73677479D01*
X155013443Y-73672452D01*
X155004610Y-73667166D01*
X154996036Y-73661623D01*
X154987720Y-73655822D01*
X154979662Y-73649763D01*
X154971863Y-73643446D01*
X154964321Y-73636871D01*
X154957038Y-73630038D01*
X154950012Y-73622946D01*
X154943245Y-73615597D01*
X154936736Y-73607990D01*
X154930485Y-73600124D01*
X154924492Y-73592001D01*
X154918758Y-73583620D01*
X154913281Y-73574980D01*
X154908063Y-73566083D01*
X154903133Y-73556963D01*
X154898520Y-73547657D01*
X154894226Y-73538165D01*
X154890249Y-73528487D01*
X154886591Y-73518623D01*
X154883251Y-73508573D01*
X154880229Y-73498337D01*
X154877526Y-73487915D01*
X154875140Y-73477307D01*
X154873072Y-73466512D01*
X154871323Y-73455532D01*
X154869892Y-73444365D01*
X154868778Y-73433012D01*
X154867983Y-73421473D01*
X154867506Y-73409749D01*
X154867347Y-73397837D01*
X154950317Y-73397837D01*
X154950431Y-73407183D01*
X154950773Y-73416396D01*
X154951343Y-73425477D01*
X154952141Y-73434427D01*
X154953167Y-73443244D01*
X154954421Y-73451928D01*
X154955904Y-73460481D01*
X154957614Y-73468902D01*
X154959552Y-73477190D01*
X154961719Y-73485347D01*
X154964113Y-73493371D01*
X154966736Y-73501264D01*
X154969587Y-73509024D01*
X154972665Y-73516652D01*
X154975972Y-73524148D01*
X154979507Y-73531512D01*
X154983165Y-73538615D01*
X154987034Y-73545521D01*
X154991112Y-73552228D01*
X154995401Y-73558737D01*
X154999900Y-73565048D01*
X155004608Y-73571161D01*
X155009527Y-73577076D01*
X155014656Y-73582793D01*
X155019995Y-73588312D01*
X155025543Y-73593633D01*
X155031302Y-73598756D01*
X155037271Y-73603680D01*
X155043450Y-73608407D01*
X155049839Y-73612936D01*
X155056438Y-73617266D01*
X155063247Y-73621399D01*
X155070146Y-73625306D01*
X155077206Y-73628961D01*
X155084429Y-73632364D01*
X155091814Y-73635515D01*
X155099361Y-73638414D01*
X155107070Y-73641061D01*
X155114942Y-73643456D01*
X155122975Y-73645599D01*
X155131171Y-73647489D01*
X155139529Y-73649128D01*
X155148049Y-73650514D01*
X155156731Y-73651649D01*
X155165575Y-73652531D01*
X155174581Y-73653161D01*
X155183750Y-73653539D01*
X155193080Y-73653665D01*
X155202414Y-73653539D01*
X155211591Y-73653161D01*
X155220612Y-73652531D01*
X155229477Y-73651649D01*
X155238186Y-73650514D01*
X155246739Y-73649128D01*
X155255135Y-73647489D01*
X155263376Y-73645599D01*
X155271460Y-73643456D01*
X155279389Y-73641061D01*
X155287161Y-73638414D01*
X155294778Y-73635515D01*
X155302238Y-73632364D01*
X155309542Y-73628961D01*
X155316690Y-73625306D01*
X155323682Y-73621399D01*
X155330402Y-73617266D01*
X155336924Y-73612936D01*
X155343247Y-73608407D01*
X155349372Y-73603680D01*
X155355300Y-73598756D01*
X155361029Y-73593633D01*
X155366560Y-73588312D01*
X155371892Y-73582793D01*
X155377027Y-73577076D01*
X155381963Y-73571161D01*
X155386702Y-73565048D01*
X155391242Y-73558737D01*
X155395584Y-73552228D01*
X155399728Y-73545521D01*
X155403674Y-73538615D01*
X155407422Y-73531512D01*
X155410865Y-73524147D01*
X155414085Y-73516651D01*
X155417083Y-73509022D01*
X155419860Y-73501262D01*
X155422414Y-73493369D01*
X155424746Y-73485344D01*
X155426856Y-73477188D01*
X155428744Y-73468899D01*
X155430410Y-73460478D01*
X155431853Y-73451926D01*
X155433075Y-73443241D01*
X155434074Y-73434424D01*
X155434852Y-73425476D01*
X155435407Y-73416395D01*
X155435740Y-73407182D01*
X155435851Y-73397837D01*
X155435740Y-73388589D01*
X155435407Y-73379472D01*
X155434852Y-73370487D01*
X155434074Y-73361635D01*
X155433075Y-73352914D01*
X155431853Y-73344325D01*
X155430410Y-73335869D01*
X155428744Y-73327544D01*
X155426856Y-73319351D01*
X155424746Y-73311291D01*
X155422414Y-73303362D01*
X155419860Y-73295566D01*
X155417083Y-73287901D01*
X155414085Y-73280368D01*
X155410865Y-73272968D01*
X155407422Y-73265699D01*
X155403674Y-73258503D01*
X155399728Y-73251510D01*
X155395584Y-73244722D01*
X155391242Y-73238138D01*
X155386702Y-73231758D01*
X155381963Y-73225582D01*
X155377027Y-73219610D01*
X155371892Y-73213843D01*
X155366560Y-73208279D01*
X155361029Y-73202920D01*
X155355300Y-73197765D01*
X155349372Y-73192814D01*
X155343247Y-73188067D01*
X155336924Y-73183524D01*
X155330402Y-73179186D01*
X155323682Y-73175051D01*
X155316690Y-73171051D01*
X155309541Y-73167308D01*
X155302237Y-73163823D01*
X155294777Y-73160597D01*
X155287160Y-73157629D01*
X155279388Y-73154918D01*
X155271460Y-73152466D01*
X155263375Y-73150272D01*
X155255135Y-73148336D01*
X155246738Y-73146659D01*
X155238185Y-73145239D01*
X155229477Y-73144077D01*
X155220612Y-73143174D01*
X155211591Y-73142529D01*
X155202414Y-73142141D01*
X155193080Y-73142012D01*
X155183750Y-73142141D01*
X155174582Y-73142529D01*
X155165576Y-73143174D01*
X155156732Y-73144077D01*
X155148050Y-73145239D01*
X155139530Y-73146659D01*
X155131172Y-73148336D01*
X155122977Y-73150272D01*
X155114943Y-73152466D01*
X155107072Y-73154918D01*
X155099362Y-73157629D01*
X155091815Y-73160597D01*
X155084430Y-73163823D01*
X155077207Y-73167308D01*
X155070146Y-73171051D01*
X155063247Y-73175051D01*
X155056438Y-73179187D01*
X155049838Y-73183526D01*
X155043449Y-73188070D01*
X155037270Y-73192817D01*
X155031301Y-73197769D01*
X155025542Y-73202924D01*
X155019993Y-73208284D01*
X155014654Y-73213847D01*
X155009526Y-73219615D01*
X155004607Y-73225586D01*
X154999898Y-73231762D01*
X154995400Y-73238141D01*
X154991111Y-73244725D01*
X154987033Y-73251512D01*
X154983165Y-73258504D01*
X154979507Y-73265699D01*
X154975972Y-73272968D01*
X154972665Y-73280368D01*
X154969587Y-73287901D01*
X154966736Y-73295565D01*
X154964113Y-73303362D01*
X154961719Y-73311290D01*
X154959552Y-73319351D01*
X154957614Y-73327543D01*
X154955904Y-73335868D01*
X154954421Y-73344325D01*
X154953167Y-73352913D01*
X154952141Y-73361634D01*
X154951343Y-73370487D01*
X154950773Y-73379472D01*
X154950431Y-73388589D01*
X154950317Y-73397837D01*
X154867347Y-73397837D01*
X154867506Y-73385833D01*
X154867983Y-73374021D01*
X154868778Y-73362401D01*
X154869892Y-73350974D01*
X154871323Y-73339738D01*
X154873072Y-73328694D01*
X154875140Y-73317843D01*
X154877526Y-73307183D01*
X154880229Y-73296716D01*
X154883251Y-73286441D01*
X154886591Y-73276358D01*
X154890249Y-73266467D01*
X154894226Y-73256768D01*
X154898520Y-73247261D01*
X154903133Y-73237947D01*
X154908063Y-73228824D01*
X154913282Y-73219930D01*
X154918759Y-73211299D01*
X154924494Y-73202933D01*
X154930487Y-73194830D01*
X154936738Y-73186992D01*
X154943247Y-73179417D01*
X154950014Y-73172107D01*
X154957040Y-73165061D01*
X154964323Y-73158278D01*
X154971865Y-73151760D01*
X154979664Y-73145506D01*
X154987722Y-73139516D01*
X154996037Y-73133790D01*
X155004611Y-73128328D01*
X155013443Y-73123130D01*
X155022533Y-73118196D01*
X155031841Y-73113451D01*
X155041330Y-73109012D01*
X155050999Y-73104880D01*
X155060848Y-73101053D01*
X155070877Y-73097533D01*
X155081086Y-73094318D01*
X155091475Y-73091410D01*
X155102044Y-73088808D01*
X155112794Y-73086512D01*
X155123723Y-73084522D01*
X155134833Y-73082838D01*
X155146123Y-73081461D01*
X155157593Y-73080389D01*
X155169243Y-73079624D01*
X155181074Y-73079165D01*
X155193084Y-73079012D01*
X155205094Y-73079165D01*
X155216924Y-73079624D01*
X155228574Y-73080389D01*
X155240044Y-73081461D01*
X155251334Y-73082838D01*
X155262444Y-73084522D01*
X155273373Y-73086512D01*
X155284123Y-73088808D01*
X155294692Y-73091410D01*
X155305081Y-73094318D01*
X155315290Y-73097533D01*
X155325319Y-73101053D01*
X155335168Y-73104880D01*
X155344837Y-73109012D01*
X155354326Y-73113451D01*
X155363635Y-73118196D01*
X155372725Y-73123130D01*
X155381556Y-73128328D01*
X155390129Y-73133789D01*
X155398444Y-73139515D01*
X155406502Y-73145505D01*
X155414301Y-73151759D01*
X155421842Y-73158277D01*
X155429126Y-73165060D01*
X155436151Y-73172106D01*
X155442918Y-73179416D01*
X155449428Y-73186991D01*
X155455679Y-73194829D01*
X155461673Y-73202932D01*
X155467408Y-73211299D01*
X155472885Y-73219930D01*
X155478105Y-73228824D01*
X155483035Y-73237947D01*
X155487648Y-73247262D01*
X155491942Y-73256769D01*
X155495918Y-73266468D01*
X155499576Y-73276359D01*
X155502916Y-73286442D01*
X155505938Y-73296717D01*
X155508642Y-73307184D01*
X155511028Y-73317844D01*
X155513095Y-73328695D01*
X155514845Y-73339739D01*
X155516276Y-73350974D01*
X155517390Y-73362402D01*
X155518185Y-73374022D01*
X155518662Y-73385833D01*
X155518821Y-73397837D01*
X155518662Y-73409748D01*
G37*
G36*
X164508916Y-73079531D02*
G01*
X164534136Y-73081107D01*
X164558371Y-73083733D01*
X164581623Y-73087409D01*
X164603890Y-73092135D01*
X164625173Y-73097912D01*
X164645471Y-73104739D01*
X164664785Y-73112617D01*
X164683115Y-73121545D01*
X164700461Y-73131523D01*
X164716822Y-73142552D01*
X164732199Y-73154631D01*
X164746591Y-73167760D01*
X164760000Y-73181939D01*
X164772424Y-73197169D01*
X164783863Y-73213449D01*
X164786931Y-73133547D01*
X164787208Y-73128337D01*
X164787652Y-73123463D01*
X164787938Y-73121153D01*
X164788265Y-73118926D01*
X164788635Y-73116783D01*
X164789047Y-73114725D01*
X164789501Y-73112750D01*
X164789997Y-73110859D01*
X164790535Y-73109052D01*
X164791115Y-73107330D01*
X164791738Y-73105691D01*
X164792402Y-73104136D01*
X164793109Y-73102666D01*
X164793858Y-73101279D01*
X164794203Y-73100617D01*
X164794571Y-73099977D01*
X164794962Y-73099357D01*
X164795375Y-73098758D01*
X164795811Y-73098180D01*
X164796269Y-73097624D01*
X164796750Y-73097088D01*
X164797254Y-73096573D01*
X164797781Y-73096080D01*
X164798330Y-73095607D01*
X164798901Y-73095155D01*
X164799496Y-73094725D01*
X164800113Y-73094315D01*
X164800753Y-73093926D01*
X164801415Y-73093559D01*
X164802100Y-73093212D01*
X164802808Y-73092887D01*
X164803538Y-73092582D01*
X164804291Y-73092299D01*
X164805067Y-73092036D01*
X164805865Y-73091794D01*
X164806686Y-73091574D01*
X164807530Y-73091374D01*
X164808396Y-73091196D01*
X164809285Y-73091038D01*
X164810196Y-73090902D01*
X164811130Y-73090786D01*
X164812087Y-73090692D01*
X164813067Y-73090618D01*
X164814069Y-73090566D01*
X164816141Y-73090524D01*
X164818106Y-73090559D01*
X164820140Y-73090666D01*
X164822244Y-73090844D01*
X164824418Y-73091093D01*
X164826662Y-73091413D01*
X164828976Y-73091804D01*
X164831360Y-73092266D01*
X164833814Y-73092800D01*
X164965185Y-73118922D01*
X164966511Y-73119231D01*
X164967801Y-73119588D01*
X164969056Y-73119994D01*
X164970274Y-73120448D01*
X164971457Y-73120950D01*
X164972603Y-73121501D01*
X164973713Y-73122101D01*
X164974788Y-73122749D01*
X164975826Y-73123445D01*
X164976828Y-73124190D01*
X164977794Y-73124984D01*
X164978724Y-73125825D01*
X164979618Y-73126716D01*
X164980477Y-73127655D01*
X164981299Y-73128642D01*
X164982085Y-73129678D01*
X164982828Y-73130654D01*
X164983523Y-73131654D01*
X164984170Y-73132678D01*
X164984769Y-73133724D01*
X164985320Y-73134795D01*
X164985823Y-73135888D01*
X164986279Y-73137005D01*
X164986686Y-73138146D01*
X164987045Y-73139309D01*
X164987357Y-73140497D01*
X164987621Y-73141707D01*
X164987836Y-73142941D01*
X164988004Y-73144199D01*
X164988124Y-73145480D01*
X164988196Y-73146784D01*
X164988220Y-73148112D01*
X164988189Y-73149636D01*
X164988099Y-73151137D01*
X164987948Y-73152613D01*
X164987737Y-73154065D01*
X164987466Y-73155494D01*
X164987134Y-73156898D01*
X164986743Y-73158278D01*
X164986290Y-73159635D01*
X164985778Y-73160967D01*
X164985205Y-73162276D01*
X164984572Y-73163561D01*
X164983878Y-73164821D01*
X164983125Y-73166058D01*
X164982311Y-73167271D01*
X164981436Y-73168459D01*
X164980502Y-73169624D01*
X164979426Y-73170738D01*
X164978301Y-73171781D01*
X164977129Y-73172751D01*
X164975907Y-73173650D01*
X164974637Y-73174476D01*
X164973318Y-73175231D01*
X164971951Y-73175914D01*
X164970535Y-73176525D01*
X164969070Y-73177065D01*
X164967557Y-73177532D01*
X164965995Y-73177927D01*
X164964385Y-73178251D01*
X164962726Y-73178503D01*
X164961018Y-73178682D01*
X164959262Y-73178790D01*
X164957457Y-73178826D01*
X164955971Y-73178814D01*
X164954581Y-73178778D01*
X164953287Y-73178718D01*
X164952088Y-73178634D01*
X164950986Y-73178526D01*
X164949979Y-73178394D01*
X164949069Y-73178238D01*
X164948254Y-73178058D01*
X164854529Y-73158852D01*
X164854529Y-73640542D01*
X164995118Y-73640542D01*
X164997012Y-73640578D01*
X164998852Y-73640686D01*
X165000638Y-73640865D01*
X165002370Y-73641117D01*
X165004047Y-73641440D01*
X165005671Y-73641836D01*
X165007241Y-73642303D01*
X165008756Y-73642842D01*
X165010218Y-73643453D01*
X165011625Y-73644136D01*
X165012979Y-73644891D01*
X165014278Y-73645718D01*
X165015524Y-73646616D01*
X165016715Y-73647587D01*
X165017852Y-73648629D01*
X165018936Y-73649744D01*
X165019954Y-73650906D01*
X165020907Y-73652093D01*
X165021794Y-73653304D01*
X165022616Y-73654539D01*
X165023371Y-73655799D01*
X165024061Y-73657083D01*
X165024686Y-73658391D01*
X165025244Y-73659723D01*
X165025737Y-73661080D01*
X165026164Y-73662461D01*
X165026526Y-73663866D01*
X165026821Y-73665295D01*
X165027051Y-73666749D01*
X165027216Y-73668227D01*
X165027314Y-73669729D01*
X165027347Y-73671256D01*
X165027311Y-73672876D01*
X165027203Y-73674473D01*
X165027023Y-73676045D01*
X165026772Y-73677594D01*
X165026448Y-73679118D01*
X165026053Y-73680619D01*
X165025585Y-73682095D01*
X165025046Y-73683547D01*
X165024435Y-73684976D01*
X165023752Y-73686380D01*
X165022997Y-73687760D01*
X165022170Y-73689116D01*
X165021271Y-73690448D01*
X165020301Y-73691756D01*
X165019258Y-73693040D01*
X165018144Y-73694300D01*
X165016964Y-73695415D01*
X165015723Y-73696457D01*
X165014422Y-73697428D01*
X165013060Y-73698327D01*
X165011639Y-73699153D01*
X165010157Y-73699908D01*
X165008615Y-73700591D01*
X165007012Y-73701203D01*
X165005349Y-73701742D01*
X165003626Y-73702209D01*
X165001843Y-73702605D01*
X164999999Y-73702928D01*
X164998095Y-73703180D01*
X164996131Y-73703360D01*
X164994107Y-73703467D01*
X164992022Y-73703503D01*
X164523391Y-73703503D01*
X164521591Y-73703467D01*
X164519839Y-73703360D01*
X164518134Y-73703180D01*
X164516478Y-73702928D01*
X164514870Y-73702605D01*
X164513309Y-73702209D01*
X164511797Y-73701742D01*
X164510333Y-73701203D01*
X164508917Y-73700591D01*
X164507548Y-73699908D01*
X164506228Y-73699153D01*
X164504956Y-73698327D01*
X164503731Y-73697428D01*
X164502555Y-73696457D01*
X164501427Y-73695415D01*
X164500347Y-73694300D01*
X164499328Y-73693043D01*
X164498375Y-73691768D01*
X164497488Y-73690475D01*
X164496667Y-73689164D01*
X164495911Y-73687834D01*
X164495221Y-73686487D01*
X164494597Y-73685121D01*
X164494038Y-73683738D01*
X164493546Y-73682336D01*
X164493119Y-73680916D01*
X164492757Y-73679478D01*
X164492462Y-73678022D01*
X164492232Y-73676548D01*
X164492067Y-73675056D01*
X164491969Y-73673545D01*
X164491936Y-73672017D01*
X164491969Y-73670399D01*
X164492067Y-73668812D01*
X164492232Y-73667254D01*
X164492462Y-73665726D01*
X164492757Y-73664229D01*
X164493119Y-73662761D01*
X164493546Y-73661323D01*
X164494038Y-73659916D01*
X164494597Y-73658538D01*
X164495221Y-73657190D01*
X164495911Y-73655872D01*
X164496667Y-73654585D01*
X164497488Y-73653327D01*
X164498375Y-73652099D01*
X164499328Y-73650901D01*
X164500347Y-73649733D01*
X164501338Y-73648619D01*
X164502383Y-73647577D01*
X164503482Y-73646606D01*
X164504634Y-73645708D01*
X164505839Y-73644881D01*
X164507098Y-73644126D01*
X164508411Y-73643443D01*
X164509777Y-73642832D01*
X164511196Y-73642293D01*
X164512669Y-73641826D01*
X164514195Y-73641430D01*
X164515775Y-73641107D01*
X164517409Y-73640855D01*
X164519096Y-73640675D01*
X164520836Y-73640567D01*
X164522630Y-73640531D01*
X164780760Y-73640531D01*
X164780760Y-73299431D01*
X164776729Y-73289972D01*
X164772321Y-73280801D01*
X164767534Y-73271918D01*
X164762369Y-73263323D01*
X164756826Y-73255016D01*
X164750905Y-73246998D01*
X164744606Y-73239267D01*
X164737929Y-73231825D01*
X164730873Y-73224671D01*
X164723440Y-73217804D01*
X164715629Y-73211226D01*
X164707439Y-73204936D01*
X164698872Y-73198934D01*
X164689926Y-73193220D01*
X164680602Y-73187795D01*
X164670901Y-73182657D01*
X164660917Y-73177726D01*
X164650746Y-73173114D01*
X164640390Y-73168819D01*
X164629848Y-73164843D01*
X164619119Y-73161185D01*
X164608205Y-73157844D01*
X164597104Y-73154822D01*
X164585818Y-73152118D01*
X164574345Y-73149733D01*
X164562686Y-73147665D01*
X164550842Y-73145915D01*
X164538811Y-73144484D01*
X164526594Y-73143370D01*
X164514191Y-73142575D01*
X164501602Y-73142098D01*
X164488827Y-73141939D01*
X164488857Y-73234202D01*
X164488815Y-73236570D01*
X164488689Y-73238872D01*
X164488479Y-73241107D01*
X164488184Y-73243277D01*
X164487806Y-73245381D01*
X164487344Y-73247418D01*
X164486798Y-73249390D01*
X164486168Y-73251295D01*
X164485454Y-73253135D01*
X164484655Y-73254909D01*
X164483773Y-73256616D01*
X164482807Y-73258258D01*
X164481756Y-73259833D01*
X164480622Y-73261343D01*
X164479404Y-73262786D01*
X164478101Y-73264164D01*
X164476741Y-73265373D01*
X164475352Y-73266504D01*
X164473932Y-73267557D01*
X164472483Y-73268532D01*
X164471003Y-73269429D01*
X164469494Y-73270248D01*
X164467954Y-73270989D01*
X164466385Y-73271652D01*
X164464785Y-73272237D01*
X164463156Y-73272744D01*
X164461496Y-73273173D01*
X164459807Y-73273524D01*
X164458087Y-73273797D01*
X164456338Y-73273992D01*
X164454559Y-73274109D01*
X164452750Y-73274148D01*
X164450847Y-73274106D01*
X164448980Y-73273980D01*
X164447149Y-73273770D01*
X164445355Y-73273476D01*
X164443596Y-73273097D01*
X164441873Y-73272635D01*
X164440187Y-73272089D01*
X164438536Y-73271459D01*
X164436921Y-73270745D01*
X164435343Y-73269947D01*
X164433800Y-73269064D01*
X164432294Y-73268098D01*
X164430823Y-73267048D01*
X164429389Y-73265913D01*
X164427990Y-73264695D01*
X164426628Y-73263392D01*
X164425231Y-73261915D01*
X164423926Y-73260366D01*
X164422710Y-73258745D01*
X164421584Y-73257052D01*
X164420548Y-73255288D01*
X164419602Y-73253451D01*
X164418747Y-73251542D01*
X164417981Y-73249561D01*
X164417306Y-73247509D01*
X164416721Y-73245384D01*
X164416225Y-73243187D01*
X164415820Y-73240919D01*
X164415505Y-73238578D01*
X164415280Y-73236166D01*
X164415145Y-73233681D01*
X164415099Y-73231125D01*
X164415099Y-73125107D01*
X164415160Y-73122271D01*
X164415340Y-73119525D01*
X164415640Y-73116870D01*
X164416060Y-73114304D01*
X164416600Y-73111828D01*
X164417260Y-73109442D01*
X164418041Y-73107147D01*
X164418941Y-73104941D01*
X164419962Y-73102825D01*
X164421102Y-73100800D01*
X164422363Y-73098864D01*
X164423743Y-73097018D01*
X164425244Y-73095262D01*
X164426865Y-73093596D01*
X164428605Y-73092020D01*
X164430466Y-73090534D01*
X164432471Y-73089138D01*
X164434644Y-73087832D01*
X164436985Y-73086617D01*
X164439494Y-73085491D01*
X164442171Y-73084455D01*
X164445016Y-73083509D01*
X164448029Y-73082654D01*
X164451211Y-73081888D01*
X164454560Y-73081213D01*
X164458077Y-73080627D01*
X164461763Y-73080132D01*
X164465616Y-73079727D01*
X164469638Y-73079411D01*
X164473828Y-73079186D01*
X164478185Y-73079051D01*
X164482711Y-73079006D01*
X164508916Y-73079531D01*
G37*
G36*
X159285529Y-73542288D02*
G01*
X159285340Y-73552056D01*
X159284773Y-73561578D01*
X159283828Y-73570854D01*
X159282505Y-73579884D01*
X159280803Y-73588668D01*
X159278724Y-73597206D01*
X159276266Y-73605498D01*
X159273430Y-73613543D01*
X159270217Y-73621343D01*
X159266625Y-73628896D01*
X159262655Y-73636203D01*
X159258307Y-73643265D01*
X159253580Y-73650080D01*
X159248476Y-73656649D01*
X159242994Y-73662971D01*
X159237133Y-73669048D01*
X159230937Y-73674723D01*
X159224446Y-73680031D01*
X159217661Y-73684974D01*
X159210582Y-73689551D01*
X159203209Y-73693761D01*
X159195542Y-73697605D01*
X159187581Y-73701083D01*
X159179325Y-73704195D01*
X159170776Y-73706941D01*
X159161932Y-73709321D01*
X159152794Y-73711335D01*
X159143362Y-73712983D01*
X159133635Y-73714264D01*
X159123615Y-73715179D01*
X159113300Y-73715729D01*
X159102691Y-73715912D01*
X159092751Y-73715801D01*
X159082908Y-73715467D01*
X159073160Y-73714912D01*
X159063509Y-73714135D01*
X159053953Y-73713135D01*
X159044494Y-73711914D01*
X159035131Y-73710470D01*
X159025864Y-73708804D01*
X159016693Y-73706916D01*
X159007618Y-73704806D01*
X158998640Y-73702474D01*
X158989757Y-73699920D01*
X158980971Y-73697144D01*
X158972280Y-73694146D01*
X158963686Y-73690925D01*
X158955188Y-73687483D01*
X158946761Y-73683875D01*
X158938574Y-73680159D01*
X158930628Y-73676336D01*
X158922921Y-73672404D01*
X158915455Y-73668365D01*
X158908228Y-73664217D01*
X158901242Y-73659962D01*
X158894496Y-73655598D01*
X158887990Y-73651127D01*
X158881724Y-73646547D01*
X158875698Y-73641860D01*
X158869912Y-73637064D01*
X158864366Y-73632161D01*
X158859061Y-73627150D01*
X158853995Y-73622030D01*
X158849170Y-73616803D01*
X158847950Y-73623483D01*
X158846593Y-73629886D01*
X158845096Y-73636014D01*
X158843462Y-73641865D01*
X158841689Y-73647440D01*
X158839778Y-73652740D01*
X158837729Y-73657763D01*
X158835542Y-73662510D01*
X158833216Y-73666981D01*
X158830752Y-73671176D01*
X158828149Y-73675095D01*
X158825409Y-73678738D01*
X158822530Y-73682105D01*
X158819513Y-73685196D01*
X158816358Y-73688011D01*
X158813064Y-73690550D01*
X158809655Y-73692782D01*
X158806150Y-73694870D01*
X158802550Y-73696814D01*
X158798853Y-73698614D01*
X158795060Y-73700271D01*
X158791170Y-73701783D01*
X158787185Y-73703151D01*
X158783104Y-73704375D01*
X158778926Y-73705455D01*
X158774653Y-73706392D01*
X158770283Y-73707184D01*
X158765818Y-73707832D01*
X158761256Y-73708336D01*
X158756599Y-73708696D01*
X158751845Y-73708912D01*
X158746995Y-73708984D01*
X158742685Y-73708927D01*
X158738400Y-73708756D01*
X158734138Y-73708471D01*
X158729900Y-73708072D01*
X158725686Y-73707559D01*
X158721497Y-73706932D01*
X158717331Y-73706191D01*
X158713190Y-73705336D01*
X158709072Y-73704366D01*
X158704979Y-73703283D01*
X158700910Y-73702086D01*
X158696865Y-73700775D01*
X158692843Y-73699349D01*
X158688846Y-73697810D01*
X158684874Y-73696157D01*
X158680925Y-73694389D01*
X158676921Y-73692426D01*
X158672978Y-73690380D01*
X158669095Y-73688249D01*
X158665272Y-73686034D01*
X158661509Y-73683736D01*
X158657806Y-73681353D01*
X158654163Y-73678887D01*
X158650580Y-73676336D01*
X158647057Y-73673702D01*
X158643594Y-73670983D01*
X158640192Y-73668181D01*
X158636849Y-73665295D01*
X158633567Y-73662324D01*
X158630344Y-73659270D01*
X158627182Y-73656132D01*
X158624080Y-73652910D01*
X158623145Y-73651930D01*
X158622271Y-73650921D01*
X158621457Y-73649883D01*
X158620703Y-73648815D01*
X158620010Y-73647718D01*
X158619377Y-73646591D01*
X158618804Y-73645435D01*
X158618292Y-73644249D01*
X158617840Y-73643034D01*
X158617448Y-73641789D01*
X158617116Y-73640515D01*
X158616845Y-73639212D01*
X158616634Y-73637879D01*
X158616483Y-73636517D01*
X158616393Y-73635125D01*
X158616363Y-73633704D01*
X158616396Y-73632177D01*
X158616494Y-73630667D01*
X158616658Y-73629176D01*
X158616888Y-73627703D01*
X158617184Y-73626247D01*
X158617545Y-73624810D01*
X158617972Y-73623390D01*
X158618465Y-73621989D01*
X158619023Y-73620605D01*
X158619647Y-73619239D01*
X158620337Y-73617891D01*
X158621093Y-73616561D01*
X158621914Y-73615249D01*
X158622801Y-73613955D01*
X158623754Y-73612679D01*
X158624772Y-73611420D01*
X158625836Y-73610211D01*
X158626925Y-73609081D01*
X158628038Y-73608028D01*
X158629175Y-73607053D01*
X158630337Y-73606156D01*
X158631524Y-73605337D01*
X158632736Y-73604596D01*
X158633972Y-73603933D01*
X158635233Y-73603348D01*
X158636519Y-73602840D01*
X158637829Y-73602411D01*
X158639164Y-73602060D01*
X158640523Y-73601787D01*
X158641908Y-73601592D01*
X158643316Y-73601475D01*
X158644750Y-73601436D01*
X158645992Y-73601472D01*
X158647222Y-73601580D01*
X158648440Y-73601760D01*
X158649646Y-73602012D01*
X158650840Y-73602335D01*
X158652022Y-73602731D01*
X158653192Y-73603198D01*
X158654350Y-73603737D01*
X158655496Y-73604348D01*
X158656630Y-73605031D01*
X158657752Y-73605786D01*
X158658862Y-73606613D01*
X158659960Y-73607511D01*
X158661046Y-73608482D01*
X158662120Y-73609524D01*
X158663183Y-73610638D01*
X158664851Y-73612362D01*
X158666592Y-73614073D01*
X158668405Y-73615772D01*
X158670290Y-73617459D01*
X158672246Y-73619134D01*
X158674275Y-73620797D01*
X158676375Y-73622447D01*
X158678548Y-73624086D01*
X158680792Y-73625713D01*
X158683108Y-73627327D01*
X158685496Y-73628930D01*
X158687957Y-73630520D01*
X158690489Y-73632099D01*
X158693093Y-73633665D01*
X158695768Y-73635219D01*
X158698516Y-73636761D01*
X158701292Y-73638157D01*
X158704049Y-73639463D01*
X158706789Y-73640679D01*
X158709510Y-73641805D01*
X158712214Y-73642840D01*
X158714899Y-73643786D01*
X158717567Y-73644641D01*
X158720216Y-73645407D01*
X158722848Y-73646082D01*
X158725462Y-73646668D01*
X158728058Y-73647163D01*
X158730635Y-73647568D01*
X158733195Y-73647883D01*
X158735737Y-73648108D01*
X158738262Y-73648243D01*
X158740768Y-73648289D01*
X158743042Y-73648253D01*
X158745256Y-73648145D01*
X158747411Y-73647965D01*
X158749505Y-73647713D01*
X158751539Y-73647390D01*
X158753514Y-73646995D01*
X158755428Y-73646527D01*
X158757283Y-73645988D01*
X158759077Y-73645377D01*
X158760811Y-73644694D01*
X158762486Y-73643939D01*
X158764100Y-73643113D01*
X158765655Y-73642214D01*
X158767149Y-73641243D01*
X158768584Y-73640201D01*
X158769958Y-73639087D01*
X158770620Y-73638446D01*
X158771260Y-73637773D01*
X158772479Y-73636326D01*
X158773613Y-73634748D01*
X158774663Y-73633038D01*
X158775629Y-73631195D01*
X158776512Y-73629221D01*
X158777310Y-73627114D01*
X158778024Y-73624875D01*
X158778655Y-73622504D01*
X158779201Y-73620001D01*
X158779663Y-73617366D01*
X158780041Y-73614598D01*
X158780335Y-73611699D01*
X158780545Y-73608667D01*
X158780671Y-73605504D01*
X158780713Y-73602208D01*
X158780713Y-73395531D01*
X158854539Y-73395531D01*
X158854543Y-73558402D01*
X158859822Y-73563806D01*
X158865287Y-73569072D01*
X158870938Y-73574200D01*
X158876775Y-73579191D01*
X158882798Y-73584043D01*
X158889008Y-73588757D01*
X158895403Y-73593333D01*
X158901984Y-73597772D01*
X158908751Y-73602072D01*
X158915705Y-73606234D01*
X158922844Y-73610258D01*
X158930169Y-73614145D01*
X158937680Y-73617893D01*
X158945377Y-73621503D01*
X158953261Y-73624976D01*
X158961330Y-73628310D01*
X158969411Y-73631380D01*
X158977523Y-73634252D01*
X158985665Y-73636926D01*
X158993837Y-73639401D01*
X159002038Y-73641679D01*
X159010270Y-73643759D01*
X159018532Y-73645640D01*
X159026824Y-73647324D01*
X159035145Y-73648809D01*
X159043497Y-73650096D01*
X159051879Y-73651186D01*
X159060290Y-73652077D01*
X159068732Y-73652770D01*
X159077203Y-73653265D01*
X159085704Y-73653562D01*
X159094236Y-73653662D01*
X159100781Y-73653559D01*
X159107163Y-73653253D01*
X159113384Y-73652743D01*
X159119443Y-73652029D01*
X159125339Y-73651110D01*
X159131074Y-73649988D01*
X159136647Y-73648661D01*
X159142058Y-73647131D01*
X159147306Y-73645396D01*
X159152393Y-73643457D01*
X159157317Y-73641314D01*
X159162080Y-73638967D01*
X159166680Y-73636416D01*
X159171119Y-73633661D01*
X159175395Y-73630702D01*
X159179510Y-73627538D01*
X159183323Y-73624055D01*
X159186891Y-73620325D01*
X159190213Y-73616349D01*
X159193289Y-73612127D01*
X159196119Y-73607659D01*
X159198702Y-73602945D01*
X159201040Y-73597985D01*
X159203131Y-73592778D01*
X159204977Y-73587325D01*
X159206576Y-73581626D01*
X159207930Y-73575681D01*
X159209037Y-73569490D01*
X159209898Y-73563053D01*
X159210513Y-73556370D01*
X159210883Y-73549440D01*
X159211006Y-73542265D01*
X159210862Y-73535644D01*
X159210429Y-73529228D01*
X159209709Y-73523016D01*
X159208701Y-73517008D01*
X159207404Y-73511204D01*
X159205820Y-73505604D01*
X159203947Y-73500208D01*
X159201786Y-73495016D01*
X159199337Y-73490029D01*
X159196600Y-73485245D01*
X159193575Y-73480665D01*
X159190262Y-73476290D01*
X159186660Y-73472118D01*
X159182771Y-73468151D01*
X159178593Y-73464388D01*
X159174127Y-73460829D01*
X159169418Y-73457437D01*
X159164511Y-73454178D01*
X159159407Y-73451051D01*
X159154104Y-73448056D01*
X159148603Y-73445193D01*
X159142904Y-73442463D01*
X159137007Y-73439864D01*
X159130912Y-73437397D01*
X159124619Y-73435062D01*
X159118128Y-73432860D01*
X159111439Y-73430789D01*
X159104552Y-73428851D01*
X159097467Y-73427044D01*
X159090184Y-73425370D01*
X159082702Y-73423827D01*
X159075023Y-73422416D01*
X159058291Y-73419523D01*
X159039590Y-73416605D01*
X159018920Y-73413663D01*
X158996281Y-73410698D01*
X158945096Y-73404696D01*
X158886035Y-73398599D01*
X158854539Y-73395531D01*
X158780713Y-73395531D01*
X158780713Y-73362500D01*
X158781026Y-73339573D01*
X158781962Y-73317654D01*
X158783523Y-73296743D01*
X158785708Y-73276841D01*
X158788517Y-73257947D01*
X158791951Y-73240061D01*
X158796009Y-73223184D01*
X158800691Y-73207314D01*
X158803308Y-73199650D01*
X158806166Y-73192213D01*
X158809263Y-73185005D01*
X158812600Y-73178025D01*
X158816177Y-73171273D01*
X158819995Y-73164749D01*
X158824052Y-73158453D01*
X158828349Y-73152385D01*
X158832887Y-73146545D01*
X158837664Y-73140934D01*
X158842681Y-73135550D01*
X158847939Y-73130395D01*
X158853436Y-73125468D01*
X158859174Y-73120769D01*
X158865152Y-73116298D01*
X158871370Y-73112056D01*
X158877762Y-73108056D01*
X158884455Y-73104315D01*
X158891448Y-73100831D01*
X158898740Y-73097606D01*
X158906333Y-73094638D01*
X158914226Y-73091929D01*
X158922418Y-73089478D01*
X158930911Y-73087284D01*
X158939704Y-73085349D01*
X158948797Y-73083672D01*
X158958189Y-73082253D01*
X158967882Y-73081091D01*
X158977875Y-73080188D01*
X158988168Y-73079543D01*
X158998761Y-73079156D01*
X159009654Y-73079027D01*
X159028968Y-73079351D01*
X159047729Y-73080323D01*
X159065939Y-73081943D01*
X159083596Y-73084212D01*
X159100702Y-73087128D01*
X159117256Y-73090693D01*
X159133258Y-73094906D01*
X159148708Y-73099767D01*
X159156190Y-73102422D01*
X159163461Y-73105204D01*
X159170523Y-73108111D01*
X159177374Y-73111145D01*
X159184016Y-73114305D01*
X159190447Y-73117591D01*
X159196668Y-73121003D01*
X159202679Y-73124541D01*
X159208480Y-73128206D01*
X159214071Y-73131996D01*
X159219452Y-73135912D01*
X159224623Y-73139955D01*
X159229583Y-73144123D01*
X159234334Y-73148418D01*
X159238874Y-73152839D01*
X159243204Y-73157386D01*
X159247298Y-73162031D01*
X159251127Y-73166749D01*
X159254692Y-73171539D01*
X159257993Y-73176400D01*
X159261030Y-73181334D01*
X159263803Y-73186339D01*
X159266312Y-73191417D01*
X159268556Y-73196566D01*
X159270537Y-73201788D01*
X159272253Y-73207082D01*
X159273706Y-73212447D01*
X159274894Y-73217885D01*
X159275818Y-73223394D01*
X159276478Y-73228976D01*
X159276874Y-73234629D01*
X159277006Y-73240354D01*
X159276961Y-73243391D01*
X159276826Y-73246355D01*
X159276601Y-73249248D01*
X159276286Y-73252069D01*
X159275881Y-73254817D01*
X159275385Y-73257494D01*
X159274800Y-73260098D01*
X159274125Y-73262631D01*
X159273359Y-73265092D01*
X159272504Y-73267480D01*
X159271558Y-73269797D01*
X159270522Y-73272042D01*
X159269396Y-73274215D01*
X159268180Y-73276315D01*
X159266874Y-73278344D01*
X159265478Y-73280301D01*
X159263903Y-73282162D01*
X159262250Y-73283902D01*
X159260519Y-73285523D01*
X159258709Y-73287024D01*
X159256822Y-73288404D01*
X159254856Y-73289665D01*
X159252812Y-73290805D01*
X159250690Y-73291826D01*
X159248490Y-73292726D01*
X159246212Y-73293507D01*
X159243856Y-73294167D01*
X159241422Y-73294707D01*
X159238910Y-73295127D01*
X159236320Y-73295427D01*
X159233651Y-73295607D01*
X159230905Y-73295667D01*
X159229287Y-73295638D01*
X159227700Y-73295550D01*
X159226142Y-73295404D01*
X159224615Y-73295199D01*
X159223117Y-73294936D01*
X159221650Y-73294614D01*
X159220212Y-73294234D01*
X159218804Y-73293795D01*
X159217427Y-73293297D01*
X159216079Y-73292741D01*
X159214762Y-73292127D01*
X159213474Y-73291454D01*
X159212217Y-73290722D01*
X159210989Y-73289932D01*
X159209792Y-73289084D01*
X159208624Y-73288177D01*
X159207487Y-73287211D01*
X159206380Y-73286187D01*
X159205302Y-73285104D01*
X159204255Y-73283963D01*
X159203237Y-73282764D01*
X159202250Y-73281505D01*
X159200365Y-73278813D01*
X159198601Y-73275887D01*
X159196956Y-73272727D01*
X159195432Y-73269333D01*
X159194027Y-73265705D01*
X159192713Y-73261846D01*
X159191459Y-73257758D01*
X159190264Y-73253443D01*
X159189129Y-73248899D01*
X159188055Y-73244128D01*
X159187040Y-73239128D01*
X159185191Y-73228445D01*
X159183581Y-73216850D01*
X159182212Y-73204342D01*
X159181083Y-73190923D01*
X159180193Y-73176591D01*
X159170026Y-73172150D01*
X159159883Y-73168045D01*
X159149764Y-73164276D01*
X159139669Y-73160843D01*
X159129598Y-73157746D01*
X159119551Y-73154984D01*
X159109528Y-73152558D01*
X159099529Y-73150469D01*
X159089229Y-73148497D01*
X159078690Y-73146789D01*
X159067911Y-73145343D01*
X159056892Y-73144161D01*
X159045633Y-73143241D01*
X159034134Y-73142584D01*
X159022395Y-73142190D01*
X159010415Y-73142058D01*
X158999861Y-73142244D01*
X158989708Y-73142802D01*
X158979958Y-73143733D01*
X158970610Y-73145035D01*
X158961664Y-73146710D01*
X158953120Y-73148757D01*
X158944979Y-73151175D01*
X158937239Y-73153966D01*
X158929902Y-73157130D01*
X158922967Y-73160665D01*
X158916434Y-73164572D01*
X158910303Y-73168852D01*
X158904575Y-73173503D01*
X158899248Y-73178527D01*
X158894324Y-73183923D01*
X158889802Y-73189691D01*
X158885522Y-73195811D01*
X158881518Y-73202260D01*
X158877790Y-73209040D01*
X158874339Y-73216149D01*
X158871163Y-73223589D01*
X158868263Y-73231358D01*
X158865640Y-73239458D01*
X158863293Y-73247888D01*
X158861221Y-73256647D01*
X158859426Y-73265737D01*
X158857907Y-73275157D01*
X158856665Y-73284907D01*
X158855698Y-73294987D01*
X158855008Y-73305397D01*
X158854593Y-73316137D01*
X158854455Y-73327207D01*
X158854543Y-73342524D01*
X158910629Y-73346383D01*
X158970071Y-73350882D01*
X159023176Y-73355967D01*
X159047352Y-73358729D01*
X159069943Y-73361638D01*
X159090950Y-73364693D01*
X159110372Y-73367895D01*
X159119500Y-73369636D01*
X159128448Y-73371592D01*
X159137217Y-73373765D01*
X159145805Y-73376154D01*
X159154214Y-73378759D01*
X159162442Y-73381580D01*
X159170490Y-73384617D01*
X159178359Y-73387870D01*
X159186047Y-73391339D01*
X159193556Y-73395024D01*
X159200884Y-73398926D01*
X159208033Y-73403043D01*
X159215002Y-73407377D01*
X159221790Y-73411926D01*
X159228399Y-73416692D01*
X159234827Y-73421674D01*
X159240967Y-73426916D01*
X159246711Y-73432465D01*
X159252058Y-73438320D01*
X159257009Y-73444481D01*
X159261565Y-73450948D01*
X159265724Y-73457721D01*
X159269487Y-73464801D01*
X159272854Y-73472186D01*
X159275825Y-73479877D01*
X159278399Y-73487875D01*
X159280578Y-73496178D01*
X159282361Y-73504788D01*
X159283747Y-73513704D01*
X159284737Y-73522926D01*
X159285331Y-73532454D01*
X159285529Y-73542265D01*
X159285529Y-73542288D01*
G37*
G36*
X156068096Y-73080564D02*
G01*
X156069449Y-73080600D01*
X156070682Y-73080660D01*
X156071793Y-73080744D01*
X156072784Y-73080852D01*
X156073655Y-73080984D01*
X156074404Y-73081140D01*
X156074733Y-73081227D01*
X156075033Y-73081321D01*
X156380794Y-73123571D01*
X156382306Y-73123799D01*
X156383771Y-73124086D01*
X156385187Y-73124432D01*
X156386555Y-73124838D01*
X156387876Y-73125303D01*
X156389148Y-73125827D01*
X156390372Y-73126410D01*
X156391548Y-73127053D01*
X156392676Y-73127754D01*
X156393757Y-73128516D01*
X156394789Y-73129336D01*
X156395773Y-73130216D01*
X156396709Y-73131155D01*
X156397597Y-73132153D01*
X156398437Y-73133211D01*
X156399228Y-73134328D01*
X156399971Y-73135391D01*
X156400666Y-73136480D01*
X156401313Y-73137592D01*
X156401912Y-73138730D01*
X156402464Y-73139892D01*
X156402967Y-73141079D01*
X156403422Y-73142291D01*
X156403830Y-73143527D01*
X156404190Y-73144788D01*
X156404501Y-73146074D01*
X156404765Y-73147384D01*
X156404981Y-73148719D01*
X156405149Y-73150079D01*
X156405268Y-73151463D01*
X156405340Y-73152872D01*
X156405364Y-73154305D01*
X156405332Y-73155926D01*
X156405233Y-73157522D01*
X156405069Y-73159095D01*
X156404839Y-73160643D01*
X156404543Y-73162168D01*
X156404182Y-73163668D01*
X156403754Y-73165145D01*
X156403262Y-73166597D01*
X156402703Y-73168026D01*
X156402079Y-73169430D01*
X156401389Y-73170810D01*
X156400633Y-73172166D01*
X156399812Y-73173499D01*
X156398924Y-73174807D01*
X156397972Y-73176091D01*
X156396953Y-73177351D01*
X156395878Y-73178465D01*
X156394753Y-73179507D01*
X156393581Y-73180478D01*
X156392359Y-73181376D01*
X156391089Y-73182203D01*
X156389770Y-73182958D01*
X156388403Y-73183641D01*
X156386987Y-73184252D01*
X156385522Y-73184791D01*
X156384009Y-73185259D01*
X156382447Y-73185654D01*
X156380837Y-73185978D01*
X156379177Y-73186229D01*
X156377470Y-73186409D01*
X156375713Y-73186517D01*
X156373908Y-73186553D01*
X156368564Y-73185785D01*
X156112739Y-73151212D01*
X156112739Y-73640584D01*
X156398462Y-73640584D01*
X156400356Y-73640620D01*
X156402195Y-73640728D01*
X156403981Y-73640907D01*
X156405713Y-73641159D01*
X156407391Y-73641483D01*
X156409014Y-73641878D01*
X156410584Y-73642345D01*
X156412100Y-73642885D01*
X156413561Y-73643496D01*
X156414969Y-73644179D01*
X156416322Y-73644934D01*
X156417622Y-73645761D01*
X156418867Y-73646659D01*
X156420058Y-73647630D01*
X156421196Y-73648672D01*
X156422279Y-73649787D01*
X156423297Y-73650853D01*
X156424250Y-73651950D01*
X156425137Y-73653078D01*
X156425959Y-73654237D01*
X156426714Y-73655426D01*
X156427404Y-73656645D01*
X156428029Y-73657896D01*
X156428587Y-73659177D01*
X156429080Y-73660488D01*
X156429507Y-73661830D01*
X156429869Y-73663203D01*
X156430164Y-73664606D01*
X156430394Y-73666041D01*
X156430559Y-73667505D01*
X156430657Y-73669000D01*
X156430690Y-73670526D01*
X156430654Y-73672147D01*
X156430546Y-73673743D01*
X156430367Y-73675316D01*
X156430115Y-73676864D01*
X156429792Y-73678389D01*
X156429396Y-73679889D01*
X156428929Y-73681366D01*
X156428390Y-73682818D01*
X156427779Y-73684246D01*
X156427096Y-73685650D01*
X156426341Y-73687031D01*
X156425514Y-73688387D01*
X156424615Y-73689719D01*
X156423644Y-73691027D01*
X156422602Y-73692311D01*
X156421487Y-73693571D01*
X156420307Y-73694780D01*
X156419066Y-73695911D01*
X156417765Y-73696964D01*
X156416403Y-73697939D01*
X156414981Y-73698836D01*
X156413499Y-73699655D01*
X156411957Y-73700396D01*
X156410355Y-73701059D01*
X156408692Y-73701644D01*
X156406969Y-73702151D01*
X156405185Y-73702580D01*
X156403342Y-73702931D01*
X156401438Y-73703204D01*
X156399474Y-73703399D01*
X156397449Y-73703516D01*
X156395364Y-73703555D01*
X155783864Y-73703601D01*
X155782064Y-73703565D01*
X155780312Y-73703457D01*
X155778607Y-73703277D01*
X155776951Y-73703025D01*
X155775343Y-73702702D01*
X155773782Y-73702306D01*
X155772270Y-73701839D01*
X155770805Y-73701300D01*
X155769389Y-73700689D01*
X155768021Y-73700006D01*
X155766700Y-73699251D01*
X155765428Y-73698424D01*
X155764203Y-73697525D01*
X155763027Y-73696555D01*
X155761898Y-73695512D01*
X155760818Y-73694398D01*
X155759799Y-73693232D01*
X155758847Y-73692036D01*
X155757959Y-73690810D01*
X155757138Y-73689554D01*
X155756383Y-73688267D01*
X155755693Y-73686950D01*
X155755069Y-73685603D01*
X155754510Y-73684225D01*
X155754018Y-73682818D01*
X155753591Y-73681379D01*
X155753229Y-73679911D01*
X155752934Y-73678412D01*
X155752704Y-73676883D01*
X155752540Y-73675324D01*
X155752441Y-73673734D01*
X155752408Y-73672114D01*
X155752441Y-73670590D01*
X155752540Y-73669090D01*
X155752704Y-73667613D01*
X155752934Y-73666161D01*
X155753229Y-73664733D01*
X155753591Y-73663328D01*
X155754018Y-73661948D01*
X155754510Y-73660592D01*
X155755069Y-73659259D01*
X155755693Y-73657951D01*
X155756383Y-73656666D01*
X155757138Y-73655405D01*
X155757959Y-73654169D01*
X155758847Y-73652956D01*
X155759799Y-73651768D01*
X155760818Y-73650603D01*
X155761809Y-73649394D01*
X155762854Y-73648263D01*
X155763952Y-73647210D01*
X155765104Y-73646235D01*
X155766310Y-73645338D01*
X155767569Y-73644519D01*
X155768881Y-73643778D01*
X155770247Y-73643115D01*
X155771667Y-73642530D01*
X155773140Y-73642023D01*
X155774666Y-73641594D01*
X155776246Y-73641243D01*
X155777880Y-73640970D01*
X155779567Y-73640775D01*
X155781307Y-73640658D01*
X155783101Y-73640619D01*
X156038928Y-73640619D01*
X156038928Y-73105151D01*
X156038959Y-73103731D01*
X156039049Y-73102353D01*
X156039200Y-73101017D01*
X156039411Y-73099724D01*
X156039682Y-73098472D01*
X156040014Y-73097262D01*
X156040406Y-73096095D01*
X156040858Y-73094969D01*
X156041370Y-73093885D01*
X156041943Y-73092844D01*
X156042576Y-73091844D01*
X156043270Y-73090887D01*
X156044023Y-73089972D01*
X156044837Y-73089099D01*
X156045711Y-73088267D01*
X156046646Y-73087478D01*
X156047628Y-73086640D01*
X156048646Y-73085855D01*
X156049700Y-73085124D01*
X156050788Y-73084448D01*
X156051913Y-73083826D01*
X156053072Y-73083258D01*
X156054268Y-73082743D01*
X156055498Y-73082284D01*
X156056765Y-73081878D01*
X156058066Y-73081526D01*
X156059404Y-73081228D01*
X156060776Y-73080985D01*
X156062185Y-73080795D01*
X156063629Y-73080660D01*
X156065108Y-73080579D01*
X156066623Y-73080552D01*
X156068096Y-73080564D01*
G37*
G36*
X159960489Y-73553880D02*
G01*
X159964685Y-73554150D01*
X159968796Y-73554600D01*
X159972824Y-73555230D01*
X159976767Y-73556040D01*
X159980626Y-73557031D01*
X159984402Y-73558201D01*
X159988093Y-73559551D01*
X159991700Y-73561082D01*
X159995224Y-73562792D01*
X159998663Y-73564683D01*
X160002018Y-73566753D01*
X160005289Y-73569004D01*
X160008477Y-73571434D01*
X160011580Y-73574045D01*
X160014599Y-73576835D01*
X160017390Y-73579764D01*
X160020000Y-73582789D01*
X160022431Y-73585910D01*
X160024681Y-73589127D01*
X160026752Y-73592440D01*
X160028642Y-73595849D01*
X160030353Y-73599354D01*
X160031883Y-73602955D01*
X160033233Y-73606653D01*
X160034403Y-73610446D01*
X160035393Y-73614336D01*
X160036204Y-73618321D01*
X160036834Y-73622403D01*
X160037284Y-73626581D01*
X160037554Y-73630855D01*
X160037644Y-73635225D01*
X160037554Y-73639594D01*
X160037284Y-73643867D01*
X160036834Y-73648044D01*
X160036204Y-73652125D01*
X160035393Y-73656110D01*
X160034403Y-73660000D01*
X160033233Y-73663793D01*
X160031883Y-73667490D01*
X160030353Y-73671092D01*
X160028642Y-73674597D01*
X160026752Y-73678007D01*
X160024681Y-73681320D01*
X160022431Y-73684538D01*
X160020000Y-73687659D01*
X160017390Y-73690685D01*
X160014599Y-73693615D01*
X160011670Y-73696313D01*
X160008646Y-73698837D01*
X160005525Y-73701188D01*
X160002308Y-73703364D01*
X159998995Y-73705366D01*
X159995585Y-73707194D01*
X159992080Y-73708848D01*
X159988479Y-73710327D01*
X159984781Y-73711633D01*
X159980988Y-73712765D01*
X159977098Y-73713722D01*
X159973113Y-73714506D01*
X159969031Y-73715115D01*
X159964853Y-73715550D01*
X159960579Y-73715811D01*
X159956210Y-73715898D01*
X159951933Y-73715808D01*
X159947746Y-73715538D01*
X159943650Y-73715088D01*
X159939643Y-73714458D01*
X159935727Y-73713648D01*
X159931900Y-73712658D01*
X159928164Y-73711487D01*
X159924518Y-73710137D01*
X159920962Y-73708607D01*
X159917496Y-73706896D01*
X159914120Y-73705006D01*
X159910834Y-73702935D01*
X159907638Y-73700685D01*
X159904532Y-73698254D01*
X159901516Y-73695643D01*
X159898590Y-73692853D01*
X159895706Y-73689927D01*
X159893008Y-73686911D01*
X159890496Y-73683805D01*
X159888171Y-73680610D01*
X159886031Y-73677324D01*
X159884077Y-73673948D01*
X159882309Y-73670482D01*
X159880728Y-73666925D01*
X159879332Y-73663279D01*
X159878123Y-73659543D01*
X159877099Y-73655717D01*
X159876262Y-73651800D01*
X159875611Y-73647794D01*
X159875146Y-73643698D01*
X159874866Y-73639511D01*
X159874773Y-73635235D01*
X159874773Y-73635226D01*
X159874866Y-73630949D01*
X159875146Y-73626763D01*
X159875611Y-73622666D01*
X159876262Y-73618660D01*
X159877099Y-73614743D01*
X159878123Y-73610917D01*
X159879332Y-73607181D01*
X159880728Y-73603534D01*
X159882309Y-73599978D01*
X159884077Y-73596512D01*
X159886031Y-73593136D01*
X159888171Y-73589850D01*
X159890496Y-73586654D01*
X159893008Y-73583548D01*
X159895706Y-73580533D01*
X159898590Y-73577607D01*
X159901516Y-73574723D01*
X159904532Y-73572025D01*
X159907638Y-73569513D01*
X159910834Y-73567187D01*
X159914120Y-73565047D01*
X159917496Y-73563094D01*
X159920962Y-73561326D01*
X159924518Y-73559744D01*
X159928164Y-73558349D01*
X159931900Y-73557139D01*
X159935727Y-73556116D01*
X159939643Y-73555278D01*
X159943650Y-73554627D01*
X159947746Y-73554162D01*
X159951933Y-73553883D01*
X159956210Y-73553790D01*
X159960489Y-73553880D01*
G37*
G36*
X164048653Y-73542288D02*
G01*
X164048464Y-73552056D01*
X164047897Y-73561578D01*
X164046952Y-73570854D01*
X164045628Y-73579884D01*
X164043927Y-73588668D01*
X164041847Y-73597206D01*
X164039390Y-73605498D01*
X164036554Y-73613543D01*
X164033340Y-73621343D01*
X164029749Y-73628896D01*
X164025779Y-73636203D01*
X164021430Y-73643265D01*
X164016704Y-73650080D01*
X164011600Y-73656649D01*
X164006117Y-73662971D01*
X164000257Y-73669048D01*
X163994060Y-73674723D01*
X163987569Y-73680031D01*
X163980784Y-73684974D01*
X163973705Y-73689551D01*
X163966332Y-73693761D01*
X163958665Y-73697605D01*
X163950703Y-73701083D01*
X163942448Y-73704195D01*
X163933898Y-73706941D01*
X163925054Y-73709321D01*
X163915916Y-73711335D01*
X163906484Y-73712983D01*
X163896757Y-73714264D01*
X163886737Y-73715179D01*
X163876422Y-73715729D01*
X163865814Y-73715912D01*
X163855874Y-73715801D01*
X163846030Y-73715467D01*
X163836283Y-73714912D01*
X163826631Y-73714135D01*
X163817076Y-73713135D01*
X163807617Y-73711914D01*
X163798254Y-73710470D01*
X163788987Y-73708804D01*
X163779816Y-73706916D01*
X163770741Y-73704806D01*
X163761762Y-73702474D01*
X163752880Y-73699920D01*
X163744093Y-73697144D01*
X163735403Y-73694146D01*
X163726808Y-73690925D01*
X163718310Y-73687483D01*
X163709883Y-73683875D01*
X163701696Y-73680159D01*
X163693750Y-73676336D01*
X163686043Y-73672404D01*
X163678577Y-73668365D01*
X163671351Y-73664217D01*
X163664364Y-73659962D01*
X163657618Y-73655598D01*
X163651112Y-73651127D01*
X163644846Y-73646547D01*
X163638820Y-73641860D01*
X163633034Y-73637064D01*
X163627489Y-73632161D01*
X163622183Y-73627150D01*
X163617117Y-73622030D01*
X163612292Y-73616803D01*
X163611072Y-73623483D01*
X163609715Y-73629886D01*
X163608219Y-73636014D01*
X163606585Y-73641865D01*
X163604812Y-73647440D01*
X163602901Y-73652740D01*
X163600852Y-73657763D01*
X163598664Y-73662510D01*
X163596338Y-73666981D01*
X163593874Y-73671176D01*
X163591272Y-73675095D01*
X163588531Y-73678738D01*
X163585652Y-73682105D01*
X163582634Y-73685196D01*
X163579479Y-73688011D01*
X163576185Y-73690550D01*
X163572776Y-73692782D01*
X163569271Y-73694870D01*
X163565671Y-73696814D01*
X163561974Y-73698614D01*
X163558181Y-73700271D01*
X163554292Y-73701783D01*
X163550307Y-73703151D01*
X163546226Y-73704375D01*
X163542048Y-73705455D01*
X163537775Y-73706392D01*
X163533405Y-73707184D01*
X163528940Y-73707832D01*
X163524378Y-73708336D01*
X163519721Y-73708696D01*
X163514967Y-73708912D01*
X163510117Y-73708984D01*
X163505807Y-73708927D01*
X163501522Y-73708756D01*
X163497260Y-73708471D01*
X163493022Y-73708072D01*
X163488809Y-73707559D01*
X163484620Y-73706932D01*
X163480454Y-73706191D01*
X163476313Y-73705336D01*
X163472196Y-73704366D01*
X163468103Y-73703283D01*
X163464033Y-73702086D01*
X163459988Y-73700775D01*
X163455967Y-73699349D01*
X163451970Y-73697810D01*
X163447997Y-73696157D01*
X163444048Y-73694389D01*
X163440045Y-73692426D01*
X163436102Y-73690380D01*
X163432219Y-73688249D01*
X163428395Y-73686034D01*
X163424632Y-73683736D01*
X163420929Y-73681353D01*
X163417286Y-73678887D01*
X163413703Y-73676336D01*
X163410181Y-73673702D01*
X163406718Y-73670983D01*
X163403315Y-73668181D01*
X163399972Y-73665295D01*
X163396690Y-73662324D01*
X163393467Y-73659270D01*
X163390304Y-73656132D01*
X163387202Y-73652910D01*
X163386267Y-73651930D01*
X163385393Y-73650921D01*
X163384578Y-73649883D01*
X163383825Y-73648815D01*
X163383131Y-73647718D01*
X163382498Y-73646591D01*
X163381925Y-73645435D01*
X163381413Y-73644249D01*
X163380961Y-73643034D01*
X163380569Y-73641789D01*
X163380237Y-73640515D01*
X163379966Y-73639212D01*
X163379755Y-73637879D01*
X163379604Y-73636517D01*
X163379514Y-73635125D01*
X163379484Y-73633704D01*
X163379516Y-73632177D01*
X163379615Y-73630667D01*
X163379779Y-73629176D01*
X163380009Y-73627703D01*
X163380305Y-73626247D01*
X163380666Y-73624810D01*
X163381093Y-73623390D01*
X163381586Y-73621989D01*
X163382145Y-73620605D01*
X163382769Y-73619239D01*
X163383459Y-73617891D01*
X163384215Y-73616561D01*
X163385036Y-73615249D01*
X163385923Y-73613955D01*
X163386876Y-73612679D01*
X163387894Y-73611420D01*
X163388958Y-73610211D01*
X163390046Y-73609081D01*
X163391159Y-73608028D01*
X163392297Y-73607053D01*
X163393459Y-73606156D01*
X163394646Y-73605337D01*
X163395858Y-73604596D01*
X163397094Y-73603933D01*
X163398355Y-73603348D01*
X163399641Y-73602840D01*
X163400951Y-73602411D01*
X163402286Y-73602060D01*
X163403646Y-73601787D01*
X163405030Y-73601592D01*
X163406439Y-73601475D01*
X163407873Y-73601436D01*
X163409114Y-73601472D01*
X163410344Y-73601580D01*
X163411562Y-73601760D01*
X163412768Y-73602012D01*
X163413963Y-73602335D01*
X163415145Y-73602731D01*
X163416315Y-73603198D01*
X163417473Y-73603737D01*
X163418619Y-73604348D01*
X163419753Y-73605031D01*
X163420875Y-73605786D01*
X163421986Y-73606613D01*
X163423084Y-73607511D01*
X163424170Y-73608482D01*
X163425245Y-73609524D01*
X163426307Y-73610638D01*
X163427976Y-73612362D01*
X163429716Y-73614073D01*
X163431529Y-73615772D01*
X163433413Y-73617459D01*
X163435370Y-73619134D01*
X163437398Y-73620797D01*
X163439499Y-73622447D01*
X163441671Y-73624086D01*
X163443916Y-73625713D01*
X163446232Y-73627327D01*
X163448620Y-73628930D01*
X163451081Y-73630520D01*
X163453613Y-73632099D01*
X163456217Y-73633665D01*
X163458893Y-73635219D01*
X163461642Y-73636761D01*
X163464418Y-73638157D01*
X163467177Y-73639463D01*
X163469917Y-73640679D01*
X163472639Y-73641805D01*
X163475343Y-73642840D01*
X163478029Y-73643786D01*
X163480697Y-73644641D01*
X163483346Y-73645407D01*
X163485978Y-73646082D01*
X163488592Y-73646668D01*
X163491187Y-73647163D01*
X163493764Y-73647568D01*
X163496324Y-73647883D01*
X163498865Y-73648108D01*
X163501388Y-73648243D01*
X163503893Y-73648289D01*
X163506167Y-73648253D01*
X163508382Y-73648145D01*
X163510536Y-73647965D01*
X163512630Y-73647713D01*
X163514665Y-73647390D01*
X163516639Y-73646995D01*
X163518553Y-73646527D01*
X163520408Y-73645988D01*
X163522202Y-73645377D01*
X163523936Y-73644694D01*
X163525611Y-73643939D01*
X163527225Y-73643113D01*
X163528780Y-73642214D01*
X163530274Y-73641243D01*
X163531709Y-73640201D01*
X163533083Y-73639087D01*
X163533745Y-73638446D01*
X163534386Y-73637773D01*
X163535604Y-73636326D01*
X163536739Y-73634748D01*
X163537789Y-73633038D01*
X163538755Y-73631195D01*
X163539638Y-73629221D01*
X163540436Y-73627114D01*
X163541150Y-73624875D01*
X163541780Y-73622504D01*
X163542326Y-73620001D01*
X163542789Y-73617366D01*
X163543167Y-73614598D01*
X163543461Y-73611699D01*
X163543671Y-73608667D01*
X163543797Y-73605504D01*
X163543839Y-73602208D01*
X163543839Y-73395531D01*
X163617663Y-73395531D01*
X163617667Y-73558402D01*
X163622946Y-73563806D01*
X163628411Y-73569072D01*
X163634062Y-73574200D01*
X163639899Y-73579191D01*
X163645922Y-73584043D01*
X163652131Y-73588757D01*
X163658526Y-73593333D01*
X163665107Y-73597772D01*
X163671875Y-73602072D01*
X163678828Y-73606234D01*
X163685967Y-73610258D01*
X163693292Y-73614145D01*
X163700803Y-73617893D01*
X163708500Y-73621503D01*
X163716383Y-73624976D01*
X163724452Y-73628310D01*
X163732534Y-73631380D01*
X163740646Y-73634252D01*
X163748788Y-73636926D01*
X163756959Y-73639401D01*
X163765161Y-73641679D01*
X163773393Y-73643759D01*
X163781655Y-73645640D01*
X163789946Y-73647324D01*
X163798268Y-73648809D01*
X163806619Y-73650096D01*
X163815001Y-73651186D01*
X163823412Y-73652077D01*
X163831854Y-73652770D01*
X163840325Y-73653265D01*
X163848827Y-73653562D01*
X163857358Y-73653662D01*
X163863903Y-73653559D01*
X163870286Y-73653253D01*
X163876507Y-73652743D01*
X163882566Y-73652029D01*
X163888463Y-73651110D01*
X163894197Y-73649988D01*
X163899770Y-73648661D01*
X163905181Y-73647131D01*
X163910430Y-73645396D01*
X163915516Y-73643457D01*
X163920441Y-73641314D01*
X163925203Y-73638967D01*
X163929804Y-73636416D01*
X163934242Y-73633661D01*
X163938519Y-73630702D01*
X163942633Y-73627538D01*
X163946447Y-73624055D01*
X163950015Y-73620325D01*
X163953337Y-73616349D01*
X163956412Y-73612127D01*
X163959242Y-73607659D01*
X163961826Y-73602945D01*
X163964163Y-73597985D01*
X163966255Y-73592778D01*
X163968100Y-73587325D01*
X163969700Y-73581626D01*
X163971053Y-73575681D01*
X163972161Y-73569490D01*
X163973022Y-73563053D01*
X163973637Y-73556370D01*
X163974006Y-73549440D01*
X163974129Y-73542265D01*
X163973985Y-73535644D01*
X163973553Y-73529228D01*
X163972832Y-73523016D01*
X163971824Y-73517008D01*
X163970527Y-73511204D01*
X163968943Y-73505604D01*
X163967070Y-73500208D01*
X163964909Y-73495016D01*
X163962460Y-73490029D01*
X163959723Y-73485245D01*
X163956698Y-73480665D01*
X163953384Y-73476290D01*
X163949783Y-73472118D01*
X163945894Y-73468151D01*
X163941716Y-73464388D01*
X163937250Y-73460829D01*
X163932542Y-73457437D01*
X163927635Y-73454178D01*
X163922530Y-73451051D01*
X163917227Y-73448056D01*
X163911727Y-73445193D01*
X163906028Y-73442463D01*
X163900131Y-73439864D01*
X163894036Y-73437397D01*
X163887743Y-73435062D01*
X163881252Y-73432860D01*
X163874562Y-73430789D01*
X163867675Y-73428851D01*
X163860590Y-73427044D01*
X163853307Y-73425370D01*
X163845826Y-73423827D01*
X163838147Y-73422416D01*
X163821412Y-73419523D01*
X163802709Y-73416605D01*
X163782038Y-73413663D01*
X163759399Y-73410698D01*
X163708215Y-73404696D01*
X163649158Y-73398599D01*
X163617663Y-73395531D01*
X163543839Y-73395531D01*
X163543839Y-73362500D01*
X163544151Y-73339573D01*
X163545088Y-73317654D01*
X163546648Y-73296743D01*
X163548833Y-73276841D01*
X163551643Y-73257947D01*
X163555077Y-73240061D01*
X163559135Y-73223184D01*
X163563817Y-73207314D01*
X163566435Y-73199650D01*
X163569292Y-73192213D01*
X163572389Y-73185005D01*
X163575727Y-73178025D01*
X163579304Y-73171273D01*
X163583122Y-73164749D01*
X163587179Y-73158453D01*
X163591476Y-73152385D01*
X163596014Y-73146545D01*
X163600791Y-73140934D01*
X163605809Y-73135550D01*
X163611066Y-73130395D01*
X163616564Y-73125468D01*
X163622302Y-73120769D01*
X163628279Y-73116298D01*
X163634497Y-73112056D01*
X163640890Y-73108056D01*
X163647582Y-73104315D01*
X163654575Y-73100831D01*
X163661868Y-73097606D01*
X163669460Y-73094638D01*
X163677353Y-73091929D01*
X163685546Y-73089478D01*
X163694038Y-73087284D01*
X163702831Y-73085349D01*
X163711924Y-73083672D01*
X163721317Y-73082253D01*
X163731010Y-73081091D01*
X163741003Y-73080188D01*
X163751296Y-73079543D01*
X163761889Y-73079156D01*
X163772782Y-73079027D01*
X163792095Y-73079351D01*
X163810857Y-73080323D01*
X163829066Y-73081943D01*
X163846724Y-73084212D01*
X163863829Y-73087128D01*
X163880383Y-73090693D01*
X163896384Y-73094906D01*
X163911834Y-73099767D01*
X163919315Y-73102422D01*
X163926586Y-73105204D01*
X163933647Y-73108111D01*
X163940497Y-73111145D01*
X163947138Y-73114305D01*
X163953569Y-73117591D01*
X163959790Y-73121003D01*
X163965801Y-73124541D01*
X163971602Y-73128206D01*
X163977193Y-73131996D01*
X163982574Y-73135912D01*
X163987746Y-73139955D01*
X163992707Y-73144123D01*
X163997458Y-73148418D01*
X164001999Y-73152839D01*
X164006331Y-73157386D01*
X164010424Y-73162031D01*
X164014253Y-73166749D01*
X164017818Y-73171539D01*
X164021119Y-73176400D01*
X164024155Y-73181334D01*
X164026928Y-73186339D01*
X164029437Y-73191417D01*
X164031681Y-73196566D01*
X164033662Y-73201788D01*
X164035378Y-73207082D01*
X164036831Y-73212447D01*
X164038019Y-73217885D01*
X164038944Y-73223394D01*
X164039604Y-73228976D01*
X164040000Y-73234629D01*
X164040132Y-73240354D01*
X164040087Y-73243391D01*
X164039952Y-73246355D01*
X164039727Y-73249248D01*
X164039411Y-73252069D01*
X164039006Y-73254817D01*
X164038511Y-73257494D01*
X164037925Y-73260098D01*
X164037250Y-73262631D01*
X164036485Y-73265092D01*
X164035629Y-73267480D01*
X164034683Y-73269797D01*
X164033648Y-73272042D01*
X164032522Y-73274215D01*
X164031306Y-73276315D01*
X164030000Y-73278344D01*
X164028604Y-73280301D01*
X164027029Y-73282162D01*
X164025375Y-73283902D01*
X164023644Y-73285523D01*
X164021835Y-73287024D01*
X164019947Y-73288404D01*
X164017982Y-73289665D01*
X164015938Y-73290805D01*
X164013816Y-73291826D01*
X164011617Y-73292726D01*
X164009339Y-73293507D01*
X164006983Y-73294167D01*
X164004549Y-73294707D01*
X164002036Y-73295127D01*
X163999446Y-73295427D01*
X163996778Y-73295607D01*
X163994031Y-73295667D01*
X163992414Y-73295638D01*
X163990826Y-73295550D01*
X163989268Y-73295404D01*
X163987741Y-73295199D01*
X163986243Y-73294936D01*
X163984776Y-73294614D01*
X163983338Y-73294234D01*
X163981931Y-73293795D01*
X163980553Y-73293297D01*
X163979206Y-73292741D01*
X163977888Y-73292127D01*
X163976601Y-73291454D01*
X163975343Y-73290722D01*
X163974116Y-73289932D01*
X163972918Y-73289084D01*
X163971751Y-73288177D01*
X163970613Y-73287211D01*
X163969506Y-73286187D01*
X163968429Y-73285104D01*
X163967381Y-73283963D01*
X163966364Y-73282764D01*
X163965377Y-73281505D01*
X163963492Y-73278813D01*
X163961727Y-73275887D01*
X163960083Y-73272727D01*
X163958558Y-73269333D01*
X163957154Y-73265705D01*
X163955839Y-73261846D01*
X163954584Y-73257758D01*
X163953390Y-73253443D01*
X163952255Y-73248899D01*
X163951181Y-73244128D01*
X163950166Y-73239128D01*
X163948317Y-73228445D01*
X163946708Y-73216850D01*
X163945339Y-73204342D01*
X163944210Y-73190923D01*
X163943321Y-73176591D01*
X163933153Y-73172150D01*
X163923010Y-73168045D01*
X163912891Y-73164276D01*
X163902796Y-73160843D01*
X163892725Y-73157746D01*
X163882678Y-73154984D01*
X163872655Y-73152558D01*
X163862656Y-73150469D01*
X163852357Y-73148497D01*
X163841818Y-73146789D01*
X163831038Y-73145343D01*
X163820019Y-73144161D01*
X163808760Y-73143241D01*
X163797260Y-73142584D01*
X163785521Y-73142190D01*
X163773542Y-73142058D01*
X163762987Y-73142244D01*
X163752835Y-73142802D01*
X163743085Y-73143733D01*
X163733736Y-73145035D01*
X163724790Y-73146710D01*
X163716247Y-73148757D01*
X163708105Y-73151175D01*
X163700366Y-73153966D01*
X163693028Y-73157130D01*
X163686093Y-73160665D01*
X163679560Y-73164572D01*
X163673429Y-73168852D01*
X163667701Y-73173503D01*
X163662374Y-73178527D01*
X163657450Y-73183923D01*
X163652928Y-73189691D01*
X163648649Y-73195811D01*
X163644646Y-73202260D01*
X163640919Y-73209040D01*
X163637469Y-73216149D01*
X163634294Y-73223589D01*
X163631395Y-73231358D01*
X163628773Y-73239458D01*
X163626426Y-73247888D01*
X163624356Y-73256647D01*
X163622561Y-73265737D01*
X163621043Y-73275157D01*
X163619801Y-73284907D01*
X163618834Y-73294987D01*
X163618144Y-73305397D01*
X163617730Y-73316137D01*
X163617592Y-73327207D01*
X163617667Y-73342524D01*
X163673750Y-73346383D01*
X163733193Y-73350882D01*
X163786299Y-73355967D01*
X163810475Y-73358729D01*
X163833066Y-73361638D01*
X163854073Y-73364693D01*
X163873495Y-73367895D01*
X163882624Y-73369636D01*
X163891572Y-73371592D01*
X163900341Y-73373765D01*
X163908929Y-73376154D01*
X163917337Y-73378759D01*
X163925566Y-73381580D01*
X163933614Y-73384617D01*
X163941483Y-73387870D01*
X163949171Y-73391339D01*
X163956680Y-73395024D01*
X163964008Y-73398926D01*
X163971157Y-73403043D01*
X163978125Y-73407377D01*
X163984914Y-73411926D01*
X163991522Y-73416692D01*
X163997951Y-73421674D01*
X164004091Y-73426916D01*
X164009834Y-73432465D01*
X164015182Y-73438320D01*
X164020133Y-73444481D01*
X164024688Y-73450948D01*
X164028847Y-73457721D01*
X164032610Y-73464801D01*
X164035977Y-73472186D01*
X164038948Y-73479877D01*
X164041523Y-73487875D01*
X164043702Y-73496178D01*
X164045484Y-73504788D01*
X164046870Y-73513704D01*
X164047861Y-73522926D01*
X164048455Y-73532454D01*
X164048653Y-73542265D01*
X164048653Y-73542288D01*
G37*
G36*
X161809383Y-72804058D02*
G01*
X161812568Y-72804274D01*
X161815698Y-72804634D01*
X161818774Y-72805138D01*
X161821796Y-72805787D01*
X161824764Y-72806579D01*
X161827678Y-72807515D01*
X161830538Y-72808595D01*
X161833344Y-72809819D01*
X161836096Y-72811187D01*
X161838794Y-72812699D01*
X161841438Y-72814356D01*
X161844028Y-72816156D01*
X161846564Y-72818100D01*
X161849045Y-72820189D01*
X161851473Y-72822421D01*
X161853705Y-72824758D01*
X161855794Y-72827161D01*
X161857738Y-72829631D01*
X161859538Y-72832167D01*
X161861194Y-72834768D01*
X161862706Y-72837436D01*
X161864075Y-72840170D01*
X161865299Y-72842970D01*
X161866379Y-72845836D01*
X161867315Y-72848768D01*
X161868107Y-72851766D01*
X161868755Y-72854831D01*
X161869260Y-72857961D01*
X161869620Y-72861158D01*
X161869836Y-72864420D01*
X161869908Y-72867749D01*
X161869836Y-72870984D01*
X161869620Y-72874160D01*
X161869260Y-72877275D01*
X161868755Y-72880330D01*
X161868107Y-72883325D01*
X161867315Y-72886260D01*
X161866379Y-72889135D01*
X161865299Y-72891950D01*
X161864075Y-72894704D01*
X161862706Y-72897399D01*
X161861194Y-72900034D01*
X161859538Y-72902608D01*
X161857738Y-72905123D01*
X161855794Y-72907577D01*
X161853705Y-72909971D01*
X161851473Y-72912306D01*
X161849136Y-72914538D01*
X161846733Y-72916626D01*
X161844263Y-72918570D01*
X161841728Y-72920370D01*
X161839126Y-72922027D01*
X161836458Y-72923539D01*
X161833724Y-72924907D01*
X161830924Y-72926131D01*
X161828058Y-72927211D01*
X161825126Y-72928148D01*
X161822128Y-72928940D01*
X161819063Y-72929588D01*
X161815933Y-72930092D01*
X161812736Y-72930452D01*
X161809474Y-72930668D01*
X161806145Y-72930740D01*
X161802820Y-72930668D01*
X161799568Y-72930452D01*
X161796387Y-72930092D01*
X161793278Y-72929588D01*
X161790242Y-72928940D01*
X161787277Y-72928148D01*
X161784384Y-72927211D01*
X161781564Y-72926131D01*
X161778815Y-72924907D01*
X161776138Y-72923539D01*
X161773533Y-72922027D01*
X161771000Y-72920370D01*
X161768539Y-72918570D01*
X161766150Y-72916626D01*
X161763833Y-72914538D01*
X161761588Y-72912306D01*
X161759356Y-72909971D01*
X161757268Y-72907577D01*
X161755324Y-72905123D01*
X161753524Y-72902608D01*
X161751867Y-72900034D01*
X161750355Y-72897399D01*
X161748987Y-72894704D01*
X161747763Y-72891950D01*
X161746683Y-72889135D01*
X161745746Y-72886260D01*
X161744954Y-72883325D01*
X161744306Y-72880330D01*
X161743802Y-72877275D01*
X161743442Y-72874160D01*
X161743226Y-72870984D01*
X161743154Y-72867749D01*
X161743226Y-72864422D01*
X161743442Y-72861160D01*
X161743802Y-72857964D01*
X161744306Y-72854835D01*
X161744954Y-72851771D01*
X161745746Y-72848773D01*
X161746683Y-72845841D01*
X161747763Y-72842975D01*
X161748987Y-72840175D01*
X161750355Y-72837441D01*
X161751867Y-72834773D01*
X161753524Y-72832170D01*
X161755324Y-72829634D01*
X161757268Y-72827164D01*
X161759356Y-72824759D01*
X161761588Y-72822421D01*
X161763923Y-72820189D01*
X161766317Y-72818100D01*
X161768771Y-72816156D01*
X161771286Y-72814356D01*
X161773860Y-72812699D01*
X161776495Y-72811187D01*
X161779190Y-72809819D01*
X161781944Y-72808595D01*
X161784759Y-72807515D01*
X161787634Y-72806579D01*
X161790569Y-72805787D01*
X161793564Y-72805138D01*
X161796619Y-72804634D01*
X161799735Y-72804274D01*
X161802910Y-72804058D01*
X161806145Y-72803986D01*
X161809383Y-72804058D01*
G37*
G36*
X157426320Y-73409276D02*
G01*
X157425906Y-73420652D01*
X157425216Y-73431866D01*
X157424249Y-73442919D01*
X157423007Y-73453809D01*
X157421489Y-73464537D01*
X157419695Y-73475104D01*
X157417624Y-73485508D01*
X157415278Y-73495750D01*
X157412656Y-73505831D01*
X157409757Y-73515749D01*
X157406583Y-73525506D01*
X157403132Y-73535100D01*
X157399405Y-73544533D01*
X157395403Y-73553803D01*
X157391124Y-73562912D01*
X157386590Y-73571815D01*
X157381822Y-73580473D01*
X157376820Y-73588885D01*
X157371584Y-73597050D01*
X157366114Y-73604969D01*
X157360409Y-73612643D01*
X157354470Y-73620070D01*
X157348297Y-73627251D01*
X157341890Y-73634187D01*
X157335249Y-73640876D01*
X157328373Y-73647319D01*
X157321264Y-73653516D01*
X157313920Y-73659467D01*
X157306342Y-73665172D01*
X157298529Y-73670631D01*
X157290483Y-73675844D01*
X157282137Y-73680775D01*
X157273617Y-73685387D01*
X157264924Y-73689681D01*
X157256056Y-73693658D01*
X157247014Y-73697316D01*
X157237798Y-73700656D01*
X157228408Y-73703678D01*
X157218844Y-73706382D01*
X157209106Y-73708767D01*
X157199194Y-73710835D01*
X157189108Y-73712585D01*
X157178848Y-73714016D01*
X157168414Y-73715130D01*
X157157806Y-73715925D01*
X157147024Y-73716402D01*
X157136068Y-73716561D01*
X157127278Y-73716459D01*
X157118577Y-73716153D01*
X157109967Y-73715643D01*
X157101448Y-73714929D01*
X157093018Y-73714010D01*
X157084678Y-73712888D01*
X157076428Y-73711561D01*
X157068268Y-73710031D01*
X157060199Y-73708296D01*
X157052219Y-73706357D01*
X157044330Y-73704214D01*
X157036530Y-73701868D01*
X157028821Y-73699317D01*
X157021201Y-73696561D01*
X157013672Y-73693602D01*
X157006233Y-73690439D01*
X156998838Y-73687018D01*
X156991636Y-73683478D01*
X156984626Y-73679817D01*
X156977808Y-73676036D01*
X156971182Y-73672135D01*
X156964748Y-73668114D01*
X156958506Y-73663972D01*
X156952456Y-73659711D01*
X156946599Y-73655329D01*
X156940933Y-73650827D01*
X156935459Y-73646205D01*
X156930178Y-73641463D01*
X156925089Y-73636601D01*
X156920192Y-73631619D01*
X156915487Y-73626516D01*
X156910974Y-73621294D01*
X156908698Y-73667385D01*
X156908567Y-73669750D01*
X156908363Y-73672042D01*
X156908087Y-73674263D01*
X156907739Y-73676412D01*
X156907318Y-73678488D01*
X156906826Y-73680493D01*
X156906262Y-73682425D01*
X156905626Y-73684286D01*
X156904918Y-73686074D01*
X156904137Y-73687790D01*
X156903285Y-73689434D01*
X156902361Y-73691007D01*
X156901364Y-73692507D01*
X156900296Y-73693935D01*
X156899155Y-73695291D01*
X156897943Y-73696575D01*
X156896674Y-73697689D01*
X156895363Y-73698732D01*
X156894009Y-73699702D01*
X156892614Y-73700601D01*
X156891177Y-73701428D01*
X156889698Y-73702183D01*
X156888176Y-73702866D01*
X156886613Y-73703477D01*
X156885008Y-73704016D01*
X156883360Y-73704483D01*
X156881671Y-73704878D01*
X156879939Y-73705202D01*
X156878165Y-73705453D01*
X156876350Y-73705633D01*
X156874492Y-73705741D01*
X156872592Y-73705777D01*
X156867092Y-73705905D01*
X156724199Y-73690538D01*
X156722493Y-73690131D01*
X156720836Y-73689675D01*
X156719227Y-73689172D01*
X156717666Y-73688620D01*
X156716153Y-73688020D01*
X156714688Y-73687372D01*
X156713272Y-73686676D01*
X156711903Y-73685932D01*
X156710583Y-73685140D01*
X156709311Y-73684300D01*
X156708087Y-73683412D01*
X156706911Y-73682475D01*
X156705783Y-73681491D01*
X156704703Y-73680458D01*
X156703671Y-73679378D01*
X156702688Y-73678249D01*
X156701753Y-73676995D01*
X156700879Y-73675729D01*
X156700065Y-73674451D01*
X156699311Y-73673161D01*
X156698617Y-73671859D01*
X156697984Y-73670544D01*
X156697412Y-73669218D01*
X156696899Y-73667879D01*
X156696447Y-73666529D01*
X156696055Y-73665166D01*
X156695724Y-73663792D01*
X156695453Y-73662405D01*
X156695242Y-73661006D01*
X156695091Y-73659595D01*
X156695001Y-73658172D01*
X156694970Y-73656737D01*
X156695001Y-73655311D01*
X156695091Y-73653915D01*
X156695242Y-73652550D01*
X156695453Y-73651214D01*
X156695724Y-73649908D01*
X156696055Y-73648633D01*
X156696447Y-73647387D01*
X156696899Y-73646172D01*
X156697412Y-73644987D01*
X156697984Y-73643831D01*
X156698617Y-73642706D01*
X156699311Y-73641611D01*
X156700065Y-73640546D01*
X156700879Y-73639511D01*
X156701753Y-73638506D01*
X156702688Y-73637531D01*
X156703682Y-73636596D01*
X156704736Y-73635722D01*
X156705849Y-73634908D01*
X156707021Y-73634154D01*
X156708253Y-73633461D01*
X156709545Y-73632828D01*
X156710896Y-73632255D01*
X156712307Y-73631742D01*
X156713777Y-73631290D01*
X156715306Y-73630898D01*
X156716895Y-73630567D01*
X156718543Y-73630295D01*
X156720251Y-73630084D01*
X156722019Y-73629934D01*
X156723846Y-73629843D01*
X156725732Y-73629813D01*
X156730384Y-73629813D01*
X156844083Y-73638223D01*
X156844083Y-73241117D01*
X156917795Y-73241117D01*
X156917795Y-73542269D01*
X156927735Y-73555759D01*
X156938155Y-73568378D01*
X156949055Y-73580127D01*
X156960435Y-73591005D01*
X156972295Y-73601013D01*
X156984635Y-73610151D01*
X156997455Y-73618419D01*
X157004045Y-73622226D01*
X157010755Y-73625816D01*
X157017586Y-73629189D01*
X157024536Y-73632343D01*
X157038796Y-73638000D01*
X157053537Y-73642787D01*
X157068757Y-73646703D01*
X157084458Y-73649749D01*
X157100639Y-73651925D01*
X157117300Y-73653230D01*
X157134441Y-73653665D01*
X157143006Y-73653530D01*
X157151415Y-73653125D01*
X157159668Y-73652450D01*
X157167765Y-73651505D01*
X157175705Y-73650289D01*
X157183490Y-73648804D01*
X157191118Y-73647048D01*
X157198591Y-73645022D01*
X157205907Y-73642726D01*
X157213067Y-73640160D01*
X157220071Y-73637324D01*
X157226919Y-73634218D01*
X157233611Y-73630842D01*
X157240147Y-73627195D01*
X157246526Y-73623278D01*
X157252750Y-73619092D01*
X157258803Y-73614677D01*
X157264670Y-73610077D01*
X157270351Y-73605290D01*
X157275846Y-73600318D01*
X157281154Y-73595159D01*
X157286277Y-73589814D01*
X157291214Y-73584284D01*
X157295964Y-73578567D01*
X157300528Y-73572665D01*
X157304907Y-73566576D01*
X157309099Y-73560302D01*
X157313105Y-73553841D01*
X157316925Y-73547195D01*
X157320559Y-73540362D01*
X157324006Y-73533344D01*
X157327268Y-73526139D01*
X157330338Y-73518795D01*
X157333210Y-73511361D01*
X157335883Y-73503838D01*
X157338359Y-73496224D01*
X157340637Y-73488520D01*
X157342716Y-73480727D01*
X157344598Y-73472843D01*
X157346281Y-73464870D01*
X157347767Y-73456806D01*
X157349054Y-73448652D01*
X157350143Y-73440409D01*
X157351034Y-73432076D01*
X157351727Y-73423652D01*
X157352222Y-73415139D01*
X157352520Y-73406535D01*
X157352619Y-73397842D01*
X157352520Y-73389149D01*
X157352222Y-73380545D01*
X157351727Y-73372032D01*
X157351034Y-73363608D01*
X157350143Y-73355275D01*
X157349054Y-73347031D01*
X157347767Y-73338878D01*
X157346281Y-73330814D01*
X157344598Y-73322841D01*
X157342716Y-73314957D01*
X157340637Y-73307163D01*
X157338359Y-73299460D01*
X157335883Y-73291846D01*
X157333210Y-73284323D01*
X157330338Y-73276889D01*
X157327268Y-73269545D01*
X157324003Y-73262340D01*
X157320547Y-73255320D01*
X157316898Y-73248487D01*
X157313057Y-73241840D01*
X157309023Y-73235379D01*
X157304798Y-73229104D01*
X157300381Y-73223015D01*
X157295771Y-73217113D01*
X157290969Y-73211396D01*
X157285975Y-73205866D01*
X157280789Y-73200522D01*
X157275411Y-73195364D01*
X157269841Y-73190392D01*
X157264079Y-73185606D01*
X157258124Y-73181006D01*
X157251977Y-73176593D01*
X157245654Y-73172406D01*
X157239169Y-73168490D01*
X157232521Y-73164843D01*
X157225712Y-73161467D01*
X157218741Y-73158361D01*
X157211607Y-73155525D01*
X157204312Y-73152959D01*
X157196855Y-73150663D01*
X157189236Y-73148637D01*
X157181454Y-73146882D01*
X157173511Y-73145396D01*
X157165406Y-73144181D01*
X157157138Y-73143235D01*
X157148709Y-73142560D01*
X157140118Y-73142155D01*
X157131364Y-73142020D01*
X157131368Y-73142013D01*
X157114779Y-73142400D01*
X157098622Y-73143562D01*
X157082897Y-73145497D01*
X157067604Y-73148207D01*
X157052743Y-73151691D01*
X157038314Y-73155950D01*
X157024318Y-73160982D01*
X157010753Y-73166789D01*
X156997621Y-73173370D01*
X156984921Y-73180726D01*
X156972653Y-73188855D01*
X156960817Y-73197759D01*
X156949413Y-73207437D01*
X156938441Y-73217890D01*
X156927902Y-73229116D01*
X156917795Y-73241117D01*
X156844083Y-73241117D01*
X156844083Y-72826956D01*
X156844114Y-72825112D01*
X156844206Y-72823327D01*
X156844360Y-72821601D01*
X156844575Y-72819933D01*
X156844852Y-72818324D01*
X156845190Y-72816773D01*
X156845590Y-72815281D01*
X156846052Y-72813847D01*
X156846574Y-72812472D01*
X156847159Y-72811155D01*
X156847805Y-72809897D01*
X156848512Y-72808698D01*
X156849281Y-72807556D01*
X156850111Y-72806474D01*
X156851003Y-72805450D01*
X156851957Y-72804484D01*
X156852972Y-72803577D01*
X156854048Y-72802729D01*
X156855186Y-72801939D01*
X156856386Y-72801207D01*
X156857647Y-72800534D01*
X156858969Y-72799920D01*
X156860353Y-72799364D01*
X156861799Y-72798867D01*
X156863306Y-72798428D01*
X156864874Y-72798047D01*
X156866504Y-72797725D01*
X156868196Y-72797462D01*
X156869949Y-72797257D01*
X156871764Y-72797111D01*
X156873640Y-72797023D01*
X156875577Y-72796994D01*
X156876488Y-72797019D01*
X156877688Y-72797093D01*
X156879176Y-72797217D01*
X156880953Y-72797390D01*
X156883018Y-72797612D01*
X156885372Y-72797884D01*
X156890945Y-72798577D01*
X157036142Y-72813172D01*
X157037747Y-72813484D01*
X157039299Y-72813850D01*
X157040796Y-72814271D01*
X157042240Y-72814746D01*
X157043629Y-72815276D01*
X157044965Y-72815860D01*
X157046246Y-72816499D01*
X157047474Y-72817192D01*
X157048647Y-72817940D01*
X157049766Y-72818742D01*
X157050832Y-72819598D01*
X157051843Y-72820510D01*
X157052800Y-72821475D01*
X157053703Y-72822495D01*
X157054552Y-72823570D01*
X157055347Y-72824699D01*
X157056090Y-72825856D01*
X157056785Y-72827024D01*
X157057432Y-72828205D01*
X157058031Y-72829399D01*
X157058582Y-72830604D01*
X157059085Y-72831822D01*
X157059541Y-72833053D01*
X157059948Y-72834295D01*
X157060308Y-72835550D01*
X157060620Y-72836817D01*
X157060883Y-72838096D01*
X157061099Y-72839388D01*
X157061267Y-72840692D01*
X157061387Y-72842008D01*
X157061459Y-72843337D01*
X157061483Y-72844678D01*
X157061450Y-72846199D01*
X157061351Y-72847690D01*
X157061187Y-72849151D01*
X157060957Y-72850583D01*
X157060661Y-72851984D01*
X157060300Y-72853355D01*
X157059873Y-72854696D01*
X157059380Y-72856007D01*
X157058822Y-72857289D01*
X157058198Y-72858540D01*
X157057508Y-72859761D01*
X157056752Y-72860952D01*
X157055931Y-72862114D01*
X157055044Y-72863245D01*
X157054092Y-72864346D01*
X157053073Y-72865417D01*
X157052004Y-72866436D01*
X157050897Y-72867389D01*
X157049754Y-72868276D01*
X157048575Y-72869097D01*
X157047358Y-72869853D01*
X157046105Y-72870543D01*
X157044816Y-72871167D01*
X157043490Y-72871725D01*
X157042127Y-72872218D01*
X157040727Y-72872645D01*
X157039291Y-72873007D01*
X157037818Y-72873302D01*
X157036309Y-72873532D01*
X157034763Y-72873696D01*
X157033180Y-72873795D01*
X157031560Y-72873828D01*
X157030412Y-72873816D01*
X157029291Y-72873780D01*
X157028198Y-72873720D01*
X157027133Y-72873635D01*
X157026096Y-72873527D01*
X157025086Y-72873395D01*
X157024105Y-72873239D01*
X157023151Y-72873059D01*
X157021270Y-72872672D01*
X157019489Y-72872279D01*
X157017807Y-72871880D01*
X157016225Y-72871476D01*
X156917888Y-72865341D01*
X156917888Y-73160347D01*
X156923670Y-73155428D01*
X156929495Y-73150660D01*
X156935361Y-73146042D01*
X156941270Y-73141574D01*
X156947220Y-73137256D01*
X156953213Y-73133088D01*
X156959248Y-73129070D01*
X156965324Y-73125202D01*
X156971443Y-73121484D01*
X156977604Y-73117917D01*
X156983807Y-73114499D01*
X156990052Y-73111231D01*
X156996339Y-73108114D01*
X157002668Y-73105146D01*
X157009039Y-73102328D01*
X157015453Y-73099661D01*
X157021866Y-73097149D01*
X157028429Y-73094800D01*
X157035142Y-73092612D01*
X157042005Y-73090587D01*
X157049018Y-73088724D01*
X157056181Y-73087022D01*
X157063495Y-73085483D01*
X157070958Y-73084106D01*
X157078571Y-73082891D01*
X157086335Y-73081838D01*
X157094249Y-73080946D01*
X157102312Y-73080217D01*
X157110526Y-73079650D01*
X157118890Y-73079245D01*
X157127404Y-73079002D01*
X157136068Y-73078921D01*
X157147025Y-73079083D01*
X157157807Y-73079569D01*
X157168416Y-73080379D01*
X157178850Y-73081514D01*
X157189111Y-73082972D01*
X157199197Y-73084754D01*
X157209109Y-73086861D01*
X157218847Y-73089291D01*
X157228411Y-73092046D01*
X157237801Y-73095124D01*
X157247016Y-73098527D01*
X157256058Y-73102254D01*
X157264925Y-73106304D01*
X157273619Y-73110679D01*
X157282138Y-73115378D01*
X157290483Y-73120401D01*
X157298528Y-73125617D01*
X157306339Y-73131085D01*
X157313916Y-73136804D01*
X157321259Y-73142776D01*
X157328368Y-73149000D01*
X157335243Y-73155476D01*
X157341884Y-73162205D01*
X157348292Y-73169185D01*
X157354465Y-73176417D01*
X157360404Y-73183902D01*
X157366109Y-73191638D01*
X157371580Y-73199627D01*
X157376817Y-73207868D01*
X157381820Y-73216360D01*
X157386589Y-73225105D01*
X157391124Y-73234102D01*
X157395403Y-73243204D01*
X157399405Y-73252456D01*
X157403132Y-73261857D01*
X157406583Y-73271409D01*
X157409757Y-73281111D01*
X157412656Y-73290963D01*
X157415278Y-73300966D01*
X157417624Y-73311118D01*
X157419695Y-73321420D01*
X157421489Y-73331872D01*
X157423007Y-73342475D01*
X157424249Y-73353227D01*
X157425216Y-73364130D01*
X157425906Y-73375182D01*
X157426320Y-73386385D01*
X157426458Y-73397737D01*
X157426456Y-73397842D01*
X157426320Y-73409276D01*
G37*
G36*
X161783840Y-73080564D02*
G01*
X161785193Y-73080600D01*
X161786425Y-73080660D01*
X161787537Y-73080744D01*
X161788528Y-73080852D01*
X161789398Y-73080984D01*
X161790148Y-73081140D01*
X161790478Y-73081227D01*
X161790778Y-73081321D01*
X162096539Y-73123571D01*
X162098051Y-73123799D01*
X162099515Y-73124086D01*
X162100931Y-73124432D01*
X162102300Y-73124838D01*
X162103620Y-73125303D01*
X162104892Y-73125827D01*
X162106116Y-73126410D01*
X162107293Y-73127053D01*
X162108421Y-73127754D01*
X162109501Y-73128516D01*
X162110533Y-73129336D01*
X162111517Y-73130216D01*
X162112453Y-73131155D01*
X162113341Y-73132153D01*
X162114181Y-73133211D01*
X162114973Y-73134328D01*
X162115716Y-73135391D01*
X162116411Y-73136480D01*
X162117058Y-73137592D01*
X162117657Y-73138730D01*
X162118208Y-73139892D01*
X162118712Y-73141079D01*
X162119167Y-73142291D01*
X162119574Y-73143527D01*
X162119934Y-73144788D01*
X162120245Y-73146074D01*
X162120509Y-73147384D01*
X162120725Y-73148719D01*
X162120893Y-73150079D01*
X162121013Y-73151463D01*
X162121084Y-73152872D01*
X162121108Y-73154305D01*
X162121076Y-73155926D01*
X162120977Y-73157522D01*
X162120813Y-73159095D01*
X162120583Y-73160643D01*
X162120287Y-73162168D01*
X162119926Y-73163668D01*
X162119498Y-73165145D01*
X162119006Y-73166597D01*
X162118447Y-73168026D01*
X162117823Y-73169430D01*
X162117133Y-73170810D01*
X162116377Y-73172166D01*
X162115556Y-73173499D01*
X162114668Y-73174807D01*
X162113716Y-73176091D01*
X162112697Y-73177351D01*
X162111621Y-73178465D01*
X162110497Y-73179507D01*
X162109324Y-73180478D01*
X162108103Y-73181376D01*
X162106833Y-73182203D01*
X162105514Y-73182958D01*
X162104147Y-73183641D01*
X162102731Y-73184252D01*
X162101266Y-73184791D01*
X162099753Y-73185259D01*
X162098191Y-73185654D01*
X162096581Y-73185978D01*
X162094921Y-73186229D01*
X162093214Y-73186409D01*
X162091457Y-73186517D01*
X162089652Y-73186553D01*
X162084309Y-73185785D01*
X161828483Y-73151212D01*
X161828483Y-73640584D01*
X162114271Y-73640584D01*
X162116164Y-73640620D01*
X162118004Y-73640728D01*
X162119790Y-73640907D01*
X162121521Y-73641159D01*
X162123199Y-73641483D01*
X162124823Y-73641878D01*
X162126392Y-73642345D01*
X162127908Y-73642885D01*
X162129369Y-73643496D01*
X162130777Y-73644179D01*
X162132130Y-73644934D01*
X162133430Y-73645761D01*
X162134675Y-73646659D01*
X162135867Y-73647630D01*
X162137004Y-73648672D01*
X162138088Y-73649787D01*
X162139106Y-73650853D01*
X162140059Y-73651950D01*
X162140946Y-73653078D01*
X162141767Y-73654237D01*
X162142523Y-73655426D01*
X162143213Y-73656645D01*
X162143837Y-73657896D01*
X162144395Y-73659177D01*
X162144888Y-73660488D01*
X162145315Y-73661830D01*
X162145677Y-73663203D01*
X162145972Y-73664606D01*
X162146202Y-73666041D01*
X162146367Y-73667505D01*
X162146465Y-73669000D01*
X162146498Y-73670526D01*
X162146462Y-73672147D01*
X162146354Y-73673743D01*
X162146175Y-73675316D01*
X162145923Y-73676864D01*
X162145599Y-73678389D01*
X162145204Y-73679889D01*
X162144737Y-73681366D01*
X162144197Y-73682818D01*
X162143586Y-73684246D01*
X162142903Y-73685650D01*
X162142148Y-73687031D01*
X162141322Y-73688387D01*
X162140423Y-73689719D01*
X162139453Y-73691027D01*
X162138410Y-73692311D01*
X162137296Y-73693571D01*
X162136116Y-73694780D01*
X162134875Y-73695911D01*
X162133574Y-73696964D01*
X162132212Y-73697939D01*
X162130791Y-73698836D01*
X162129309Y-73699655D01*
X162127767Y-73700396D01*
X162126164Y-73701059D01*
X162124501Y-73701644D01*
X162122778Y-73702151D01*
X162120995Y-73702580D01*
X162119151Y-73702931D01*
X162117247Y-73703204D01*
X162115282Y-73703399D01*
X162113258Y-73703516D01*
X162111173Y-73703555D01*
X161499613Y-73703601D01*
X161497813Y-73703565D01*
X161496060Y-73703457D01*
X161494356Y-73703277D01*
X161492700Y-73703025D01*
X161491091Y-73702702D01*
X161489531Y-73702306D01*
X161488019Y-73701839D01*
X161486554Y-73701300D01*
X161485138Y-73700689D01*
X161483770Y-73700006D01*
X161482449Y-73699251D01*
X161481177Y-73698424D01*
X161479953Y-73697525D01*
X161478776Y-73696555D01*
X161477648Y-73695512D01*
X161476568Y-73694398D01*
X161475549Y-73693232D01*
X161474597Y-73692036D01*
X161473709Y-73690810D01*
X161472888Y-73689554D01*
X161472133Y-73688267D01*
X161471443Y-73686950D01*
X161470818Y-73685603D01*
X161470260Y-73684225D01*
X161469767Y-73682818D01*
X161469340Y-73681379D01*
X161468979Y-73679911D01*
X161468683Y-73678412D01*
X161468453Y-73676883D01*
X161468289Y-73675324D01*
X161468190Y-73673734D01*
X161468157Y-73672114D01*
X161468190Y-73670590D01*
X161468289Y-73669090D01*
X161468453Y-73667613D01*
X161468683Y-73666161D01*
X161468979Y-73664733D01*
X161469340Y-73663328D01*
X161469767Y-73661948D01*
X161470260Y-73660592D01*
X161470818Y-73659259D01*
X161471443Y-73657951D01*
X161472133Y-73656666D01*
X161472888Y-73655405D01*
X161473709Y-73654169D01*
X161474597Y-73652956D01*
X161475549Y-73651768D01*
X161476568Y-73650603D01*
X161477559Y-73649394D01*
X161478604Y-73648263D01*
X161479703Y-73647210D01*
X161480855Y-73646235D01*
X161482061Y-73645338D01*
X161483320Y-73644519D01*
X161484632Y-73643778D01*
X161485998Y-73643115D01*
X161487418Y-73642530D01*
X161488891Y-73642023D01*
X161490417Y-73641594D01*
X161491997Y-73641243D01*
X161493630Y-73640970D01*
X161495317Y-73640775D01*
X161497057Y-73640658D01*
X161498851Y-73640619D01*
X161754670Y-73640619D01*
X161754670Y-73105151D01*
X161754701Y-73103731D01*
X161754791Y-73102353D01*
X161754942Y-73101017D01*
X161755153Y-73099724D01*
X161755424Y-73098472D01*
X161755756Y-73097262D01*
X161756148Y-73096095D01*
X161756600Y-73094969D01*
X161757112Y-73093885D01*
X161757685Y-73092844D01*
X161758318Y-73091844D01*
X161759012Y-73090887D01*
X161759765Y-73089972D01*
X161760579Y-73089099D01*
X161761454Y-73088267D01*
X161762389Y-73087478D01*
X161763371Y-73086640D01*
X161764389Y-73085855D01*
X161765443Y-73085124D01*
X161766532Y-73084448D01*
X161767656Y-73083826D01*
X161768816Y-73083258D01*
X161770011Y-73082743D01*
X161771242Y-73082284D01*
X161772509Y-73081878D01*
X161773810Y-73081526D01*
X161775148Y-73081228D01*
X161776520Y-73080985D01*
X161777929Y-73080795D01*
X161779372Y-73080660D01*
X161780851Y-73080579D01*
X161782366Y-73080552D01*
X161783840Y-73080564D01*
G37*
G36*
X161236823Y-73409276D02*
G01*
X161236409Y-73420652D01*
X161235718Y-73431866D01*
X161234752Y-73442919D01*
X161233510Y-73453809D01*
X161231992Y-73464537D01*
X161230197Y-73475104D01*
X161228127Y-73485508D01*
X161225780Y-73495750D01*
X161223158Y-73505831D01*
X161220259Y-73515749D01*
X161217084Y-73525506D01*
X161213634Y-73535100D01*
X161209907Y-73544533D01*
X161205904Y-73553803D01*
X161201625Y-73562912D01*
X161197091Y-73571815D01*
X161192323Y-73580473D01*
X161187321Y-73588885D01*
X161182085Y-73597050D01*
X161176614Y-73604969D01*
X161170909Y-73612643D01*
X161164971Y-73620070D01*
X161158798Y-73627251D01*
X161152390Y-73634187D01*
X161145749Y-73640876D01*
X161138874Y-73647319D01*
X161131764Y-73653516D01*
X161124420Y-73659467D01*
X161116842Y-73665172D01*
X161109030Y-73670631D01*
X161100984Y-73675844D01*
X161092639Y-73680775D01*
X161084119Y-73685387D01*
X161075425Y-73689681D01*
X161066558Y-73693658D01*
X161057516Y-73697316D01*
X161048300Y-73700656D01*
X161038910Y-73703678D01*
X161029346Y-73706382D01*
X161019608Y-73708767D01*
X161009696Y-73710835D01*
X160999609Y-73712585D01*
X160989349Y-73714016D01*
X160978914Y-73715130D01*
X160968306Y-73715925D01*
X160957523Y-73716402D01*
X160946566Y-73716561D01*
X160937776Y-73716459D01*
X160929076Y-73716153D01*
X160920467Y-73715643D01*
X160911947Y-73714929D01*
X160903517Y-73714010D01*
X160895178Y-73712888D01*
X160886928Y-73711561D01*
X160878768Y-73710031D01*
X160870699Y-73708296D01*
X160862719Y-73706357D01*
X160854830Y-73704214D01*
X160847031Y-73701868D01*
X160839321Y-73699317D01*
X160831702Y-73696561D01*
X160824173Y-73693602D01*
X160816734Y-73690439D01*
X160809339Y-73687018D01*
X160802137Y-73683478D01*
X160795126Y-73679817D01*
X160788308Y-73676036D01*
X160781682Y-73672135D01*
X160775248Y-73668114D01*
X160769006Y-73663972D01*
X160762957Y-73659711D01*
X160757099Y-73655329D01*
X160751434Y-73650827D01*
X160745960Y-73646205D01*
X160740679Y-73641463D01*
X160735590Y-73636601D01*
X160730693Y-73631619D01*
X160725988Y-73626516D01*
X160721475Y-73621294D01*
X160719199Y-73667385D01*
X160719067Y-73669750D01*
X160718862Y-73672042D01*
X160718586Y-73674263D01*
X160718238Y-73676412D01*
X160717818Y-73678488D01*
X160717326Y-73680493D01*
X160716762Y-73682425D01*
X160716125Y-73684286D01*
X160715417Y-73686074D01*
X160714637Y-73687790D01*
X160713785Y-73689434D01*
X160712860Y-73691007D01*
X160711864Y-73692507D01*
X160710796Y-73693935D01*
X160709655Y-73695291D01*
X160708443Y-73696575D01*
X160707174Y-73697689D01*
X160705863Y-73698732D01*
X160704510Y-73699702D01*
X160703115Y-73700601D01*
X160701677Y-73701428D01*
X160700198Y-73702183D01*
X160698677Y-73702866D01*
X160697113Y-73703477D01*
X160695508Y-73704016D01*
X160693860Y-73704483D01*
X160692171Y-73704878D01*
X160690439Y-73705202D01*
X160688665Y-73705453D01*
X160686849Y-73705633D01*
X160684991Y-73705741D01*
X160683092Y-73705777D01*
X160677590Y-73705905D01*
X160534696Y-73690538D01*
X160532991Y-73690131D01*
X160531334Y-73689675D01*
X160529725Y-73689172D01*
X160528164Y-73688620D01*
X160526651Y-73688020D01*
X160525187Y-73687372D01*
X160523770Y-73686676D01*
X160522402Y-73685932D01*
X160521081Y-73685140D01*
X160519809Y-73684300D01*
X160518585Y-73683412D01*
X160517408Y-73682475D01*
X160516280Y-73681491D01*
X160515200Y-73680458D01*
X160514168Y-73679378D01*
X160513184Y-73678249D01*
X160512249Y-73676995D01*
X160511375Y-73675729D01*
X160510561Y-73674451D01*
X160509807Y-73673161D01*
X160509114Y-73671859D01*
X160508481Y-73670544D01*
X160507908Y-73669218D01*
X160507395Y-73667879D01*
X160506943Y-73666529D01*
X160506551Y-73665166D01*
X160506220Y-73663792D01*
X160505948Y-73662405D01*
X160505737Y-73661006D01*
X160505586Y-73659595D01*
X160505496Y-73658172D01*
X160505466Y-73656737D01*
X160505496Y-73655311D01*
X160505586Y-73653915D01*
X160505737Y-73652550D01*
X160505948Y-73651214D01*
X160506220Y-73649908D01*
X160506551Y-73648633D01*
X160506943Y-73647387D01*
X160507395Y-73646172D01*
X160507908Y-73644987D01*
X160508481Y-73643831D01*
X160509114Y-73642706D01*
X160509807Y-73641611D01*
X160510561Y-73640546D01*
X160511375Y-73639511D01*
X160512249Y-73638506D01*
X160513184Y-73637531D01*
X160514179Y-73636596D01*
X160515233Y-73635722D01*
X160516346Y-73634908D01*
X160517519Y-73634154D01*
X160518751Y-73633461D01*
X160520043Y-73632828D01*
X160521394Y-73632255D01*
X160522805Y-73631742D01*
X160524275Y-73631290D01*
X160525804Y-73630898D01*
X160527393Y-73630567D01*
X160529042Y-73630295D01*
X160530749Y-73630084D01*
X160532517Y-73629934D01*
X160534343Y-73629843D01*
X160536229Y-73629813D01*
X160540880Y-73629813D01*
X160654581Y-73638223D01*
X160654581Y-73241117D01*
X160728294Y-73241117D01*
X160728294Y-73542269D01*
X160738233Y-73555759D01*
X160748653Y-73568378D01*
X160759553Y-73580127D01*
X160770932Y-73591005D01*
X160782792Y-73601013D01*
X160795133Y-73610151D01*
X160801483Y-73614394D01*
X160807953Y-73618419D01*
X160814543Y-73622226D01*
X160821253Y-73625816D01*
X160828083Y-73629189D01*
X160835034Y-73632343D01*
X160849294Y-73638000D01*
X160864035Y-73642787D01*
X160879256Y-73646703D01*
X160894957Y-73649749D01*
X160911138Y-73651925D01*
X160927799Y-73653230D01*
X160944940Y-73653665D01*
X160953505Y-73653530D01*
X160961914Y-73653125D01*
X160970167Y-73652450D01*
X160978264Y-73651505D01*
X160986204Y-73650289D01*
X160993989Y-73648804D01*
X161001617Y-73647048D01*
X161009090Y-73645022D01*
X161016406Y-73642726D01*
X161023566Y-73640160D01*
X161030570Y-73637324D01*
X161037418Y-73634218D01*
X161044110Y-73630842D01*
X161050646Y-73627195D01*
X161057025Y-73623278D01*
X161063249Y-73619092D01*
X161069302Y-73614677D01*
X161075169Y-73610077D01*
X161080850Y-73605290D01*
X161086345Y-73600318D01*
X161091653Y-73595159D01*
X161096776Y-73589814D01*
X161101713Y-73584284D01*
X161106463Y-73578567D01*
X161111027Y-73572665D01*
X161115406Y-73566576D01*
X161119598Y-73560302D01*
X161123604Y-73553841D01*
X161127424Y-73547195D01*
X161131058Y-73540362D01*
X161134506Y-73533344D01*
X161137768Y-73526139D01*
X161140838Y-73518795D01*
X161143710Y-73511361D01*
X161146384Y-73503838D01*
X161148859Y-73496224D01*
X161151137Y-73488520D01*
X161153217Y-73480727D01*
X161155098Y-73472843D01*
X161156782Y-73464870D01*
X161158267Y-73456806D01*
X161159555Y-73448652D01*
X161160644Y-73440409D01*
X161161535Y-73432076D01*
X161162228Y-73423652D01*
X161162724Y-73415139D01*
X161163021Y-73406535D01*
X161163120Y-73397842D01*
X161163021Y-73389149D01*
X161162724Y-73380545D01*
X161162228Y-73372032D01*
X161161535Y-73363608D01*
X161160644Y-73355275D01*
X161159555Y-73347031D01*
X161158267Y-73338878D01*
X161156782Y-73330814D01*
X161155098Y-73322841D01*
X161153217Y-73314957D01*
X161151137Y-73307163D01*
X161148859Y-73299460D01*
X161146384Y-73291846D01*
X161143710Y-73284323D01*
X161140838Y-73276889D01*
X161137768Y-73269545D01*
X161134503Y-73262340D01*
X161131046Y-73255320D01*
X161127397Y-73248487D01*
X161123556Y-73241840D01*
X161119522Y-73235379D01*
X161115297Y-73229104D01*
X161110879Y-73223015D01*
X161106270Y-73217113D01*
X161101468Y-73211396D01*
X161096474Y-73205866D01*
X161091288Y-73200522D01*
X161085910Y-73195364D01*
X161080340Y-73190392D01*
X161074578Y-73185606D01*
X161068624Y-73181006D01*
X161062477Y-73176593D01*
X161056154Y-73172406D01*
X161049669Y-73168490D01*
X161043021Y-73164843D01*
X161036212Y-73161467D01*
X161029240Y-73158361D01*
X161022107Y-73155525D01*
X161014811Y-73152959D01*
X161007354Y-73150663D01*
X160999734Y-73148637D01*
X160991953Y-73146882D01*
X160984010Y-73145396D01*
X160975904Y-73144181D01*
X160967637Y-73143235D01*
X160959208Y-73142560D01*
X160950617Y-73142155D01*
X160941863Y-73142020D01*
X160941867Y-73142013D01*
X160925278Y-73142400D01*
X160909121Y-73143562D01*
X160893395Y-73145497D01*
X160878103Y-73148207D01*
X160863242Y-73151691D01*
X160848813Y-73155950D01*
X160834816Y-73160982D01*
X160821252Y-73166789D01*
X160808120Y-73173370D01*
X160795420Y-73180726D01*
X160783152Y-73188855D01*
X160771316Y-73197759D01*
X160759912Y-73207437D01*
X160748941Y-73217890D01*
X160738401Y-73229116D01*
X160728294Y-73241117D01*
X160654581Y-73241117D01*
X160654581Y-72826956D01*
X160654612Y-72825112D01*
X160654704Y-72823327D01*
X160654858Y-72821601D01*
X160655074Y-72819933D01*
X160655350Y-72818324D01*
X160655689Y-72816773D01*
X160656088Y-72815281D01*
X160656550Y-72813847D01*
X160657073Y-72812472D01*
X160657657Y-72811155D01*
X160658303Y-72809897D01*
X160659010Y-72808698D01*
X160659779Y-72807556D01*
X160660610Y-72806474D01*
X160661502Y-72805450D01*
X160662455Y-72804484D01*
X160663470Y-72803577D01*
X160664547Y-72802729D01*
X160665685Y-72801939D01*
X160666884Y-72801207D01*
X160668145Y-72800534D01*
X160669468Y-72799920D01*
X160670852Y-72799364D01*
X160672297Y-72798867D01*
X160673804Y-72798428D01*
X160675373Y-72798047D01*
X160677003Y-72797725D01*
X160678695Y-72797462D01*
X160680448Y-72797257D01*
X160682263Y-72797111D01*
X160684139Y-72797023D01*
X160686077Y-72796994D01*
X160686988Y-72797019D01*
X160688187Y-72797093D01*
X160689675Y-72797217D01*
X160691452Y-72797390D01*
X160693517Y-72797612D01*
X160695870Y-72797884D01*
X160701443Y-72798577D01*
X160846642Y-72813172D01*
X160848247Y-72813484D01*
X160849799Y-72813850D01*
X160851296Y-72814271D01*
X160852740Y-72814746D01*
X160854129Y-72815276D01*
X160855465Y-72815860D01*
X160856746Y-72816499D01*
X160857974Y-72817192D01*
X160859147Y-72817940D01*
X160860266Y-72818742D01*
X160861332Y-72819598D01*
X160862343Y-72820510D01*
X160863300Y-72821475D01*
X160864204Y-72822495D01*
X160865053Y-72823570D01*
X160865848Y-72824699D01*
X160866591Y-72825856D01*
X160867286Y-72827024D01*
X160867933Y-72828205D01*
X160868532Y-72829399D01*
X160869083Y-72830604D01*
X160869586Y-72831822D01*
X160870041Y-72833053D01*
X160870448Y-72834295D01*
X160870808Y-72835550D01*
X160871119Y-72836817D01*
X160871383Y-72838096D01*
X160871599Y-72839388D01*
X160871766Y-72840692D01*
X160871886Y-72842008D01*
X160871958Y-72843337D01*
X160871982Y-72844678D01*
X160871949Y-72846199D01*
X160871851Y-72847690D01*
X160871686Y-72849151D01*
X160871456Y-72850583D01*
X160871161Y-72851984D01*
X160870799Y-72853355D01*
X160870372Y-72854696D01*
X160869880Y-72856007D01*
X160869321Y-72857289D01*
X160868697Y-72858540D01*
X160868007Y-72859761D01*
X160867251Y-72860952D01*
X160866430Y-72862114D01*
X160865543Y-72863245D01*
X160864590Y-72864346D01*
X160863572Y-72865417D01*
X160862502Y-72866436D01*
X160861396Y-72867389D01*
X160860253Y-72868276D01*
X160859073Y-72869097D01*
X160857857Y-72869853D01*
X160856604Y-72870543D01*
X160855314Y-72871167D01*
X160853988Y-72871725D01*
X160852625Y-72872218D01*
X160851226Y-72872645D01*
X160849790Y-72873007D01*
X160848317Y-72873302D01*
X160846808Y-72873532D01*
X160845262Y-72873696D01*
X160843680Y-72873795D01*
X160842060Y-72873828D01*
X160840912Y-72873816D01*
X160839791Y-72873780D01*
X160838698Y-72873720D01*
X160837632Y-72873635D01*
X160836595Y-72873527D01*
X160835585Y-72873395D01*
X160834603Y-72873239D01*
X160833649Y-72873059D01*
X160831769Y-72872672D01*
X160829988Y-72872279D01*
X160828306Y-72871880D01*
X160826722Y-72871476D01*
X160728387Y-72865341D01*
X160728387Y-73160347D01*
X160734170Y-73155428D01*
X160739994Y-73150660D01*
X160745861Y-73146042D01*
X160751769Y-73141574D01*
X160757720Y-73137256D01*
X160763712Y-73133088D01*
X160769747Y-73129070D01*
X160775824Y-73125202D01*
X160781943Y-73121484D01*
X160788103Y-73117917D01*
X160794306Y-73114499D01*
X160800551Y-73111231D01*
X160806838Y-73108114D01*
X160813168Y-73105146D01*
X160819539Y-73102328D01*
X160825952Y-73099661D01*
X160832365Y-73097149D01*
X160838928Y-73094800D01*
X160845640Y-73092612D01*
X160852503Y-73090587D01*
X160859517Y-73088724D01*
X160866680Y-73087022D01*
X160873993Y-73085483D01*
X160881456Y-73084106D01*
X160889070Y-73082891D01*
X160896833Y-73081838D01*
X160904747Y-73080946D01*
X160912811Y-73080217D01*
X160921024Y-73079650D01*
X160929388Y-73079245D01*
X160937902Y-73079002D01*
X160946566Y-73078921D01*
X160957523Y-73079083D01*
X160968306Y-73079569D01*
X160978915Y-73080379D01*
X160989349Y-73081514D01*
X160999610Y-73082972D01*
X161009696Y-73084754D01*
X161019609Y-73086861D01*
X161029347Y-73089291D01*
X161038911Y-73092046D01*
X161048301Y-73095124D01*
X161057517Y-73098527D01*
X161066558Y-73102254D01*
X161075426Y-73106304D01*
X161084119Y-73110679D01*
X161092639Y-73115378D01*
X161100984Y-73120401D01*
X161109029Y-73125617D01*
X161116841Y-73131085D01*
X161124418Y-73136804D01*
X161131761Y-73142776D01*
X161138870Y-73149000D01*
X161145745Y-73155476D01*
X161152386Y-73162205D01*
X161158793Y-73169185D01*
X161164966Y-73176417D01*
X161170905Y-73183902D01*
X161176610Y-73191638D01*
X161182081Y-73199627D01*
X161187318Y-73207868D01*
X161192321Y-73216360D01*
X161197090Y-73225105D01*
X161201625Y-73234102D01*
X161205904Y-73243204D01*
X161209907Y-73252456D01*
X161213634Y-73261857D01*
X161217084Y-73271409D01*
X161220259Y-73281111D01*
X161223158Y-73290963D01*
X161225780Y-73300966D01*
X161228127Y-73311118D01*
X161230197Y-73321420D01*
X161231992Y-73331872D01*
X161233510Y-73342475D01*
X161234752Y-73353227D01*
X161235718Y-73364130D01*
X161236409Y-73375182D01*
X161236823Y-73386385D01*
X161236961Y-73397737D01*
X161236959Y-73397842D01*
X161236823Y-73409276D01*
G37*
G36*
X157814838Y-73087298D02*
G01*
X157815258Y-73087316D01*
X157815701Y-73087347D01*
X157816168Y-73087390D01*
X157817175Y-73087514D01*
X157818277Y-73087687D01*
X157819475Y-73087910D01*
X157820770Y-73088182D01*
X157822160Y-73088504D01*
X157823646Y-73088876D01*
X157957321Y-73115760D01*
X157959118Y-73116164D01*
X157960861Y-73116611D01*
X157962550Y-73117099D01*
X157964185Y-73117630D01*
X157965766Y-73118203D01*
X157967293Y-73118819D01*
X157968767Y-73119476D01*
X157970186Y-73120175D01*
X157971551Y-73120917D01*
X157972862Y-73121701D01*
X157974119Y-73122527D01*
X157975322Y-73123395D01*
X157976471Y-73124305D01*
X157977566Y-73125257D01*
X157978607Y-73126251D01*
X157979595Y-73127288D01*
X157980433Y-73128264D01*
X157981218Y-73129264D01*
X157981948Y-73130288D01*
X157982625Y-73131334D01*
X157983247Y-73132404D01*
X157983815Y-73133498D01*
X157984329Y-73134615D01*
X157984789Y-73135755D01*
X157985195Y-73136919D01*
X157985546Y-73138106D01*
X157985844Y-73139317D01*
X157986087Y-73140551D01*
X157986277Y-73141809D01*
X157986412Y-73143090D01*
X157986493Y-73144394D01*
X157986520Y-73145722D01*
X157986481Y-73147343D01*
X157986364Y-73148939D01*
X157986169Y-73150512D01*
X157985896Y-73152060D01*
X157985546Y-73153585D01*
X157985117Y-73155085D01*
X157984610Y-73156561D01*
X157984025Y-73158014D01*
X157983362Y-73159442D01*
X157982621Y-73160846D01*
X157981802Y-73162226D01*
X157980905Y-73163583D01*
X157979930Y-73164915D01*
X157978877Y-73166223D01*
X157977746Y-73167507D01*
X157976537Y-73168767D01*
X157975265Y-73169976D01*
X157973945Y-73171107D01*
X157972576Y-73172160D01*
X157971160Y-73173135D01*
X157969696Y-73174032D01*
X157968183Y-73174851D01*
X157966623Y-73175592D01*
X157965014Y-73176255D01*
X157963357Y-73176840D01*
X157961653Y-73177347D01*
X157959900Y-73177776D01*
X157958099Y-73178127D01*
X157956250Y-73178400D01*
X157954353Y-73178595D01*
X157952407Y-73178712D01*
X157950414Y-73178751D01*
X157948683Y-73178715D01*
X157946953Y-73178609D01*
X157945223Y-73178431D01*
X157943495Y-73178182D01*
X157941768Y-73177862D01*
X157940041Y-73177471D01*
X157938316Y-73177008D01*
X157936591Y-73176474D01*
X157862073Y-73161108D01*
X157862073Y-73526024D01*
X157864270Y-73530417D01*
X157866634Y-73534762D01*
X157869167Y-73539059D01*
X157871868Y-73543308D01*
X157874736Y-73547509D01*
X157877773Y-73551662D01*
X157880978Y-73555768D01*
X157884351Y-73559825D01*
X157887892Y-73563835D01*
X157891601Y-73567796D01*
X157895479Y-73571710D01*
X157899524Y-73575575D01*
X157903737Y-73579393D01*
X157908119Y-73583163D01*
X157912669Y-73586885D01*
X157917386Y-73590559D01*
X157922130Y-73594159D01*
X157926952Y-73597664D01*
X157931853Y-73601073D01*
X157936831Y-73604386D01*
X157941887Y-73607602D01*
X157947022Y-73610723D01*
X157952234Y-73613748D01*
X157957525Y-73616676D01*
X157962894Y-73619509D01*
X157968340Y-73622246D01*
X157973865Y-73624886D01*
X157979468Y-73627431D01*
X157985149Y-73629880D01*
X157990908Y-73632233D01*
X157996745Y-73634489D01*
X158002660Y-73636650D01*
X158014533Y-73640611D01*
X158026334Y-73644044D01*
X158038062Y-73646949D01*
X158043900Y-73648203D01*
X158049719Y-73649325D01*
X158055520Y-73650316D01*
X158061303Y-73651174D01*
X158067068Y-73651900D01*
X158072815Y-73652494D01*
X158078545Y-73652957D01*
X158084256Y-73653287D01*
X158089949Y-73653485D01*
X158095624Y-73653551D01*
X158104798Y-73653392D01*
X158113690Y-73652915D01*
X158122299Y-73652119D01*
X158130627Y-73651006D01*
X158138673Y-73649575D01*
X158146436Y-73647825D01*
X158153918Y-73645757D01*
X158161117Y-73643371D01*
X158168034Y-73640667D01*
X158174669Y-73637645D01*
X158181023Y-73634305D01*
X158187094Y-73630647D01*
X158192882Y-73626671D01*
X158198389Y-73622376D01*
X158203614Y-73617764D01*
X158208557Y-73612833D01*
X158213115Y-73607548D01*
X158217379Y-73602065D01*
X158221349Y-73596383D01*
X158225025Y-73590504D01*
X158228407Y-73584427D01*
X158231495Y-73578152D01*
X158234288Y-73571679D01*
X158236788Y-73565007D01*
X158238993Y-73558138D01*
X158240905Y-73551071D01*
X158242522Y-73543806D01*
X158243846Y-73536343D01*
X158244875Y-73528681D01*
X158245610Y-73520822D01*
X158246051Y-73512765D01*
X158246198Y-73504510D01*
X158246091Y-73113587D01*
X158246121Y-73112255D01*
X158246212Y-73110946D01*
X158246363Y-73109662D01*
X158246574Y-73108402D01*
X158246845Y-73107165D01*
X158247177Y-73105953D01*
X158247569Y-73104765D01*
X158248021Y-73103601D01*
X158248533Y-73102461D01*
X158249106Y-73101345D01*
X158249739Y-73100253D01*
X158250432Y-73099185D01*
X158251186Y-73098141D01*
X158252000Y-73097121D01*
X158252874Y-73096125D01*
X158253808Y-73095154D01*
X158254692Y-73094219D01*
X158255612Y-73093344D01*
X158256568Y-73092530D01*
X158257559Y-73091777D01*
X158258586Y-73091083D01*
X158259649Y-73090450D01*
X158260747Y-73089877D01*
X158261881Y-73089365D01*
X158263051Y-73088913D01*
X158264257Y-73088521D01*
X158265498Y-73088189D01*
X158266776Y-73087918D01*
X158268089Y-73087707D01*
X158269438Y-73087556D01*
X158270822Y-73087466D01*
X158272243Y-73087436D01*
X158272638Y-73087442D01*
X158273058Y-73087460D01*
X158273501Y-73087491D01*
X158273968Y-73087534D01*
X158274975Y-73087658D01*
X158276077Y-73087831D01*
X158277275Y-73088054D01*
X158278569Y-73088326D01*
X158279960Y-73088647D01*
X158281446Y-73089019D01*
X158415887Y-73115904D01*
X158417588Y-73116305D01*
X158419235Y-73116743D01*
X158420829Y-73117216D01*
X158422368Y-73117726D01*
X158423853Y-73118272D01*
X158425284Y-73118854D01*
X158426662Y-73119472D01*
X158427985Y-73120126D01*
X158429254Y-73120817D01*
X158430469Y-73121543D01*
X158431631Y-73122305D01*
X158432738Y-73123104D01*
X158433792Y-73123939D01*
X158434791Y-73124809D01*
X158435736Y-73125716D01*
X158436628Y-73126659D01*
X158437466Y-73127636D01*
X158438251Y-73128636D01*
X158438982Y-73129659D01*
X158439658Y-73130706D01*
X158440280Y-73131776D01*
X158440848Y-73132870D01*
X158441362Y-73133986D01*
X158441822Y-73135127D01*
X158442228Y-73136291D01*
X158442580Y-73137478D01*
X158442877Y-73138689D01*
X158443121Y-73139923D01*
X158443310Y-73141180D01*
X158443445Y-73142461D01*
X158443526Y-73143766D01*
X158443553Y-73145094D01*
X158443514Y-73146714D01*
X158443397Y-73148311D01*
X158443202Y-73149883D01*
X158442930Y-73151432D01*
X158442579Y-73152956D01*
X158442150Y-73154457D01*
X158441643Y-73155933D01*
X158441058Y-73157385D01*
X158440395Y-73158814D01*
X158439654Y-73160218D01*
X158438835Y-73161598D01*
X158437938Y-73162954D01*
X158436963Y-73164286D01*
X158435910Y-73165594D01*
X158434779Y-73166878D01*
X158433570Y-73168138D01*
X158432301Y-73169347D01*
X158430990Y-73170478D01*
X158429637Y-73171531D01*
X158428242Y-73172506D01*
X158426804Y-73173403D01*
X158425325Y-73174222D01*
X158423804Y-73174963D01*
X158422240Y-73175626D01*
X158420635Y-73176211D01*
X158418988Y-73176718D01*
X158417298Y-73177147D01*
X158415566Y-73177498D01*
X158413793Y-73177771D01*
X158411977Y-73177966D01*
X158410119Y-73178083D01*
X158408220Y-73178122D01*
X158406176Y-73178098D01*
X158404249Y-73178023D01*
X158402440Y-73177900D01*
X158400749Y-73177727D01*
X158399175Y-73177504D01*
X158397719Y-73177232D01*
X158396380Y-73176910D01*
X158395754Y-73176731D01*
X158395158Y-73176539D01*
X158319867Y-73161173D01*
X158319867Y-73502273D01*
X158319765Y-73510184D01*
X158319459Y-73517974D01*
X158318949Y-73525644D01*
X158318235Y-73533195D01*
X158317316Y-73540625D01*
X158316194Y-73547935D01*
X158314867Y-73555126D01*
X158313336Y-73562196D01*
X158311601Y-73569146D01*
X158309663Y-73575976D01*
X158307520Y-73582686D01*
X158305173Y-73589276D01*
X158302622Y-73595746D01*
X158299867Y-73602097D01*
X158296908Y-73608327D01*
X158293744Y-73614437D01*
X158290291Y-73620403D01*
X158286651Y-73626200D01*
X158282825Y-73631830D01*
X158278813Y-73637291D01*
X158274614Y-73642585D01*
X158270230Y-73647711D01*
X158265659Y-73652668D01*
X158260903Y-73657458D01*
X158255960Y-73662080D01*
X158250831Y-73666533D01*
X158245516Y-73670819D01*
X158240014Y-73674937D01*
X158234327Y-73678886D01*
X158228453Y-73682668D01*
X158222394Y-73686282D01*
X158216148Y-73689728D01*
X158209738Y-73692983D01*
X158203184Y-73696029D01*
X158196486Y-73698864D01*
X158189644Y-73701490D01*
X158182658Y-73703905D01*
X158175528Y-73706111D01*
X158168253Y-73708106D01*
X158160835Y-73709891D01*
X158153273Y-73711467D01*
X158145566Y-73712832D01*
X158137716Y-73713987D01*
X158129721Y-73714932D01*
X158121582Y-73715667D01*
X158113299Y-73716193D01*
X158104873Y-73716508D01*
X158096301Y-73716613D01*
X158087296Y-73716484D01*
X158078332Y-73716096D01*
X158069410Y-73715451D01*
X158060530Y-73714548D01*
X158051692Y-73713386D01*
X158042896Y-73711966D01*
X158034143Y-73710288D01*
X158025431Y-73708352D01*
X158016761Y-73706158D01*
X158008134Y-73703706D01*
X157999548Y-73700996D01*
X157991004Y-73698028D01*
X157982503Y-73694801D01*
X157974043Y-73691317D01*
X157965626Y-73687574D01*
X157957250Y-73683574D01*
X157949024Y-73679378D01*
X157941056Y-73675050D01*
X157933346Y-73670590D01*
X157925894Y-73665998D01*
X157918701Y-73661275D01*
X157911765Y-73656419D01*
X157905088Y-73651431D01*
X157898669Y-73646312D01*
X157892508Y-73641060D01*
X157886605Y-73635676D01*
X157880960Y-73630161D01*
X157875574Y-73624513D01*
X157870445Y-73618734D01*
X157865575Y-73612823D01*
X157860963Y-73606779D01*
X157856609Y-73600604D01*
X157852750Y-73667444D01*
X157852618Y-73669809D01*
X157852414Y-73672102D01*
X157852138Y-73674322D01*
X157851790Y-73676471D01*
X157851370Y-73678548D01*
X157850878Y-73680552D01*
X157850314Y-73682485D01*
X157849678Y-73684345D01*
X157848969Y-73686133D01*
X157848189Y-73687850D01*
X157847337Y-73689494D01*
X157846412Y-73691066D01*
X157845416Y-73692566D01*
X157844348Y-73693994D01*
X157843207Y-73695350D01*
X157841995Y-73696634D01*
X157840725Y-73697748D01*
X157839414Y-73698791D01*
X157838061Y-73699762D01*
X157836666Y-73700660D01*
X157835229Y-73701487D01*
X157833749Y-73702242D01*
X157832228Y-73702925D01*
X157830665Y-73703536D01*
X157829059Y-73704075D01*
X157827412Y-73704543D01*
X157825722Y-73704938D01*
X157823991Y-73705262D01*
X157822217Y-73705513D01*
X157820402Y-73705693D01*
X157818544Y-73705801D01*
X157816644Y-73705837D01*
X157811300Y-73705837D01*
X157668409Y-73690470D01*
X157666703Y-73690063D01*
X157665046Y-73689608D01*
X157663437Y-73689104D01*
X157661876Y-73688552D01*
X157660363Y-73687952D01*
X157658898Y-73687305D01*
X157657482Y-73686609D01*
X157656113Y-73685864D01*
X157654793Y-73685072D01*
X157653520Y-73684232D01*
X157652296Y-73683344D01*
X157651120Y-73682407D01*
X157649992Y-73681423D01*
X157648912Y-73680391D01*
X157647880Y-73679310D01*
X157646896Y-73678181D01*
X157645961Y-73676927D01*
X157645087Y-73675661D01*
X157644273Y-73674383D01*
X157643520Y-73673093D01*
X157642826Y-73671791D01*
X157642193Y-73670477D01*
X157641621Y-73669150D01*
X157641108Y-73667812D01*
X157640656Y-73666461D01*
X157640264Y-73665099D01*
X157639932Y-73663724D01*
X157639661Y-73662337D01*
X157639450Y-73660938D01*
X157639299Y-73659527D01*
X157639209Y-73658104D01*
X157639179Y-73656669D01*
X157639209Y-73655244D01*
X157639299Y-73653848D01*
X157639450Y-73652482D01*
X157639661Y-73651146D01*
X157639932Y-73649841D01*
X157640264Y-73648565D01*
X157640656Y-73647320D01*
X157641108Y-73646104D01*
X157641621Y-73644919D01*
X157642193Y-73643764D01*
X157642826Y-73642639D01*
X157643520Y-73641543D01*
X157644273Y-73640478D01*
X157645087Y-73639443D01*
X157645961Y-73638438D01*
X157646896Y-73637463D01*
X157647890Y-73636529D01*
X157648944Y-73635654D01*
X157650058Y-73634840D01*
X157651231Y-73634086D01*
X157652463Y-73633393D01*
X157653755Y-73632760D01*
X157655106Y-73632187D01*
X157656516Y-73631675D01*
X157657986Y-73631222D01*
X157659516Y-73630830D01*
X157661105Y-73630499D01*
X157662754Y-73630228D01*
X157664461Y-73630017D01*
X157666229Y-73629866D01*
X157668056Y-73629775D01*
X157669942Y-73629745D01*
X157674592Y-73629745D01*
X157788291Y-73638156D01*
X157788291Y-73113444D01*
X157788321Y-73112112D01*
X157788412Y-73110803D01*
X157788563Y-73109519D01*
X157788774Y-73108258D01*
X157789045Y-73107022D01*
X157789377Y-73105810D01*
X157789769Y-73104622D01*
X157790221Y-73103458D01*
X157790734Y-73102317D01*
X157791307Y-73101201D01*
X157791940Y-73100109D01*
X157792633Y-73099041D01*
X157793387Y-73097997D01*
X157794201Y-73096977D01*
X157795076Y-73095981D01*
X157796010Y-73095010D01*
X157796894Y-73094075D01*
X157797814Y-73093201D01*
X157798769Y-73092387D01*
X157799760Y-73091633D01*
X157800787Y-73090940D01*
X157801849Y-73090307D01*
X157802947Y-73089734D01*
X157804082Y-73089221D01*
X157805251Y-73088769D01*
X157806457Y-73088377D01*
X157807699Y-73088045D01*
X157808976Y-73087774D01*
X157810289Y-73087563D01*
X157811638Y-73087412D01*
X157813023Y-73087322D01*
X157814443Y-73087292D01*
X157814838Y-73087298D01*
G37*
D11*
X187816609Y-52175217D02*
X187816609Y-51841884D01*
X188340419Y-51841884D02*
X187340419Y-51841884D01*
X187340419Y-51841884D02*
X187340419Y-52318074D01*
X187340419Y-52699027D02*
X188149942Y-52699027D01*
X188149942Y-52699027D02*
X188245180Y-52746646D01*
X188245180Y-52746646D02*
X188292800Y-52794265D01*
X188292800Y-52794265D02*
X188340419Y-52889503D01*
X188340419Y-52889503D02*
X188340419Y-53079979D01*
X188340419Y-53079979D02*
X188292800Y-53175217D01*
X188292800Y-53175217D02*
X188245180Y-53222836D01*
X188245180Y-53222836D02*
X188149942Y-53270455D01*
X188149942Y-53270455D02*
X187340419Y-53270455D01*
X187340419Y-53651408D02*
X187340419Y-54318074D01*
X187340419Y-54318074D02*
X188340419Y-53651408D01*
X188340419Y-53651408D02*
X188340419Y-54318074D01*
X187340419Y-54603789D02*
X187340419Y-55270455D01*
X187340419Y-55270455D02*
X188340419Y-54603789D01*
X188340419Y-54603789D02*
X188340419Y-55270455D01*
X188340419Y-56984741D02*
X187864228Y-56651408D01*
X188340419Y-56413313D02*
X187340419Y-56413313D01*
X187340419Y-56413313D02*
X187340419Y-56794265D01*
X187340419Y-56794265D02*
X187388038Y-56889503D01*
X187388038Y-56889503D02*
X187435657Y-56937122D01*
X187435657Y-56937122D02*
X187530895Y-56984741D01*
X187530895Y-56984741D02*
X187673752Y-56984741D01*
X187673752Y-56984741D02*
X187768990Y-56937122D01*
X187768990Y-56937122D02*
X187816609Y-56889503D01*
X187816609Y-56889503D02*
X187864228Y-56794265D01*
X187864228Y-56794265D02*
X187864228Y-56413313D01*
X188292800Y-57794265D02*
X188340419Y-57699027D01*
X188340419Y-57699027D02*
X188340419Y-57508551D01*
X188340419Y-57508551D02*
X188292800Y-57413313D01*
X188292800Y-57413313D02*
X188197561Y-57365694D01*
X188197561Y-57365694D02*
X187816609Y-57365694D01*
X187816609Y-57365694D02*
X187721371Y-57413313D01*
X187721371Y-57413313D02*
X187673752Y-57508551D01*
X187673752Y-57508551D02*
X187673752Y-57699027D01*
X187673752Y-57699027D02*
X187721371Y-57794265D01*
X187721371Y-57794265D02*
X187816609Y-57841884D01*
X187816609Y-57841884D02*
X187911847Y-57841884D01*
X187911847Y-57841884D02*
X188007085Y-57365694D01*
X187673752Y-58175218D02*
X188340419Y-58413313D01*
X188340419Y-58413313D02*
X187673752Y-58651408D01*
X188054704Y-59746647D02*
X188054704Y-60222837D01*
X188340419Y-59651409D02*
X187340419Y-59984742D01*
X187340419Y-59984742D02*
X188340419Y-60318075D01*
X187435657Y-61365695D02*
X187388038Y-61413314D01*
X187388038Y-61413314D02*
X187340419Y-61508552D01*
X187340419Y-61508552D02*
X187340419Y-61746647D01*
X187340419Y-61746647D02*
X187388038Y-61841885D01*
X187388038Y-61841885D02*
X187435657Y-61889504D01*
X187435657Y-61889504D02*
X187530895Y-61937123D01*
X187530895Y-61937123D02*
X187626133Y-61937123D01*
X187626133Y-61937123D02*
X187768990Y-61889504D01*
X187768990Y-61889504D02*
X188340419Y-61318076D01*
X188340419Y-61318076D02*
X188340419Y-61937123D01*
X187340419Y-62556171D02*
X187340419Y-62651409D01*
X187340419Y-62651409D02*
X187388038Y-62746647D01*
X187388038Y-62746647D02*
X187435657Y-62794266D01*
X187435657Y-62794266D02*
X187530895Y-62841885D01*
X187530895Y-62841885D02*
X187721371Y-62889504D01*
X187721371Y-62889504D02*
X187959466Y-62889504D01*
X187959466Y-62889504D02*
X188149942Y-62841885D01*
X188149942Y-62841885D02*
X188245180Y-62794266D01*
X188245180Y-62794266D02*
X188292800Y-62746647D01*
X188292800Y-62746647D02*
X188340419Y-62651409D01*
X188340419Y-62651409D02*
X188340419Y-62556171D01*
X188340419Y-62556171D02*
X188292800Y-62460933D01*
X188292800Y-62460933D02*
X188245180Y-62413314D01*
X188245180Y-62413314D02*
X188149942Y-62365695D01*
X188149942Y-62365695D02*
X187959466Y-62318076D01*
X187959466Y-62318076D02*
X187721371Y-62318076D01*
X187721371Y-62318076D02*
X187530895Y-62365695D01*
X187530895Y-62365695D02*
X187435657Y-62413314D01*
X187435657Y-62413314D02*
X187388038Y-62460933D01*
X187388038Y-62460933D02*
X187340419Y-62556171D01*
X187435657Y-63270457D02*
X187388038Y-63318076D01*
X187388038Y-63318076D02*
X187340419Y-63413314D01*
X187340419Y-63413314D02*
X187340419Y-63651409D01*
X187340419Y-63651409D02*
X187388038Y-63746647D01*
X187388038Y-63746647D02*
X187435657Y-63794266D01*
X187435657Y-63794266D02*
X187530895Y-63841885D01*
X187530895Y-63841885D02*
X187626133Y-63841885D01*
X187626133Y-63841885D02*
X187768990Y-63794266D01*
X187768990Y-63794266D02*
X188340419Y-63222838D01*
X188340419Y-63222838D02*
X188340419Y-63841885D01*
X187340419Y-64699028D02*
X187340419Y-64508552D01*
X187340419Y-64508552D02*
X187388038Y-64413314D01*
X187388038Y-64413314D02*
X187435657Y-64365695D01*
X187435657Y-64365695D02*
X187578514Y-64270457D01*
X187578514Y-64270457D02*
X187768990Y-64222838D01*
X187768990Y-64222838D02*
X188149942Y-64222838D01*
X188149942Y-64222838D02*
X188245180Y-64270457D01*
X188245180Y-64270457D02*
X188292800Y-64318076D01*
X188292800Y-64318076D02*
X188340419Y-64413314D01*
X188340419Y-64413314D02*
X188340419Y-64603790D01*
X188340419Y-64603790D02*
X188292800Y-64699028D01*
X188292800Y-64699028D02*
X188245180Y-64746647D01*
X188245180Y-64746647D02*
X188149942Y-64794266D01*
X188149942Y-64794266D02*
X187911847Y-64794266D01*
X187911847Y-64794266D02*
X187816609Y-64746647D01*
X187816609Y-64746647D02*
X187768990Y-64699028D01*
X187768990Y-64699028D02*
X187721371Y-64603790D01*
X187721371Y-64603790D02*
X187721371Y-64413314D01*
X187721371Y-64413314D02*
X187768990Y-64318076D01*
X187768990Y-64318076D02*
X187816609Y-64270457D01*
X187816609Y-64270457D02*
X187911847Y-64222838D01*
X187959466Y-65222838D02*
X187959466Y-65984743D01*
X187340419Y-66651409D02*
X187340419Y-66746647D01*
X187340419Y-66746647D02*
X187388038Y-66841885D01*
X187388038Y-66841885D02*
X187435657Y-66889504D01*
X187435657Y-66889504D02*
X187530895Y-66937123D01*
X187530895Y-66937123D02*
X187721371Y-66984742D01*
X187721371Y-66984742D02*
X187959466Y-66984742D01*
X187959466Y-66984742D02*
X188149942Y-66937123D01*
X188149942Y-66937123D02*
X188245180Y-66889504D01*
X188245180Y-66889504D02*
X188292800Y-66841885D01*
X188292800Y-66841885D02*
X188340419Y-66746647D01*
X188340419Y-66746647D02*
X188340419Y-66651409D01*
X188340419Y-66651409D02*
X188292800Y-66556171D01*
X188292800Y-66556171D02*
X188245180Y-66508552D01*
X188245180Y-66508552D02*
X188149942Y-66460933D01*
X188149942Y-66460933D02*
X187959466Y-66413314D01*
X187959466Y-66413314D02*
X187721371Y-66413314D01*
X187721371Y-66413314D02*
X187530895Y-66460933D01*
X187530895Y-66460933D02*
X187435657Y-66508552D01*
X187435657Y-66508552D02*
X187388038Y-66556171D01*
X187388038Y-66556171D02*
X187340419Y-66651409D01*
X187768990Y-67556171D02*
X187721371Y-67460933D01*
X187721371Y-67460933D02*
X187673752Y-67413314D01*
X187673752Y-67413314D02*
X187578514Y-67365695D01*
X187578514Y-67365695D02*
X187530895Y-67365695D01*
X187530895Y-67365695D02*
X187435657Y-67413314D01*
X187435657Y-67413314D02*
X187388038Y-67460933D01*
X187388038Y-67460933D02*
X187340419Y-67556171D01*
X187340419Y-67556171D02*
X187340419Y-67746647D01*
X187340419Y-67746647D02*
X187388038Y-67841885D01*
X187388038Y-67841885D02*
X187435657Y-67889504D01*
X187435657Y-67889504D02*
X187530895Y-67937123D01*
X187530895Y-67937123D02*
X187578514Y-67937123D01*
X187578514Y-67937123D02*
X187673752Y-67889504D01*
X187673752Y-67889504D02*
X187721371Y-67841885D01*
X187721371Y-67841885D02*
X187768990Y-67746647D01*
X187768990Y-67746647D02*
X187768990Y-67556171D01*
X187768990Y-67556171D02*
X187816609Y-67460933D01*
X187816609Y-67460933D02*
X187864228Y-67413314D01*
X187864228Y-67413314D02*
X187959466Y-67365695D01*
X187959466Y-67365695D02*
X188149942Y-67365695D01*
X188149942Y-67365695D02*
X188245180Y-67413314D01*
X188245180Y-67413314D02*
X188292800Y-67460933D01*
X188292800Y-67460933D02*
X188340419Y-67556171D01*
X188340419Y-67556171D02*
X188340419Y-67746647D01*
X188340419Y-67746647D02*
X188292800Y-67841885D01*
X188292800Y-67841885D02*
X188245180Y-67889504D01*
X188245180Y-67889504D02*
X188149942Y-67937123D01*
X188149942Y-67937123D02*
X187959466Y-67937123D01*
X187959466Y-67937123D02*
X187864228Y-67889504D01*
X187864228Y-67889504D02*
X187816609Y-67841885D01*
X187816609Y-67841885D02*
X187768990Y-67746647D01*
X187959466Y-68365695D02*
X187959466Y-69127600D01*
X187340419Y-69794266D02*
X187340419Y-69889504D01*
X187340419Y-69889504D02*
X187388038Y-69984742D01*
X187388038Y-69984742D02*
X187435657Y-70032361D01*
X187435657Y-70032361D02*
X187530895Y-70079980D01*
X187530895Y-70079980D02*
X187721371Y-70127599D01*
X187721371Y-70127599D02*
X187959466Y-70127599D01*
X187959466Y-70127599D02*
X188149942Y-70079980D01*
X188149942Y-70079980D02*
X188245180Y-70032361D01*
X188245180Y-70032361D02*
X188292800Y-69984742D01*
X188292800Y-69984742D02*
X188340419Y-69889504D01*
X188340419Y-69889504D02*
X188340419Y-69794266D01*
X188340419Y-69794266D02*
X188292800Y-69699028D01*
X188292800Y-69699028D02*
X188245180Y-69651409D01*
X188245180Y-69651409D02*
X188149942Y-69603790D01*
X188149942Y-69603790D02*
X187959466Y-69556171D01*
X187959466Y-69556171D02*
X187721371Y-69556171D01*
X187721371Y-69556171D02*
X187530895Y-69603790D01*
X187530895Y-69603790D02*
X187435657Y-69651409D01*
X187435657Y-69651409D02*
X187388038Y-69699028D01*
X187388038Y-69699028D02*
X187340419Y-69794266D01*
X187340419Y-70984742D02*
X187340419Y-70794266D01*
X187340419Y-70794266D02*
X187388038Y-70699028D01*
X187388038Y-70699028D02*
X187435657Y-70651409D01*
X187435657Y-70651409D02*
X187578514Y-70556171D01*
X187578514Y-70556171D02*
X187768990Y-70508552D01*
X187768990Y-70508552D02*
X188149942Y-70508552D01*
X188149942Y-70508552D02*
X188245180Y-70556171D01*
X188245180Y-70556171D02*
X188292800Y-70603790D01*
X188292800Y-70603790D02*
X188340419Y-70699028D01*
X188340419Y-70699028D02*
X188340419Y-70889504D01*
X188340419Y-70889504D02*
X188292800Y-70984742D01*
X188292800Y-70984742D02*
X188245180Y-71032361D01*
X188245180Y-71032361D02*
X188149942Y-71079980D01*
X188149942Y-71079980D02*
X187911847Y-71079980D01*
X187911847Y-71079980D02*
X187816609Y-71032361D01*
X187816609Y-71032361D02*
X187768990Y-70984742D01*
X187768990Y-70984742D02*
X187721371Y-70889504D01*
X187721371Y-70889504D02*
X187721371Y-70699028D01*
X187721371Y-70699028D02*
X187768990Y-70603790D01*
X187768990Y-70603790D02*
X187816609Y-70556171D01*
X187816609Y-70556171D02*
X187911847Y-70508552D01*
X160323884Y-54356533D02*
X161085789Y-54356533D01*
X160704836Y-53975580D02*
X160704836Y-54737485D01*
D12*
%TO.C,J3*%
X155154000Y-52603000D02*
X155154000Y-53933000D01*
X155154000Y-53933000D02*
X156484000Y-53933000D01*
X157754000Y-51273000D02*
X157754000Y-53933000D01*
X157754000Y-51273000D02*
X160354000Y-51273000D01*
X157754000Y-53933000D02*
X160354000Y-53933000D01*
X160354000Y-51273000D02*
X160354000Y-53933000D01*
%TO.C,J5*%
X152340000Y-117154000D02*
X152340000Y-114494000D01*
X165100000Y-114494000D02*
X152340000Y-114494000D01*
X165100000Y-117154000D02*
X152340000Y-117154000D01*
X165100000Y-117154000D02*
X165100000Y-114494000D01*
X167700000Y-114494000D02*
X166370000Y-114494000D01*
X167700000Y-115824000D02*
X167700000Y-114494000D01*
%TO.C,J1*%
X165542500Y-97130000D02*
X168462500Y-97130000D01*
X165542500Y-97170000D02*
X165542500Y-106070000D01*
X165542500Y-106070000D02*
X168462500Y-106070000D01*
X168462500Y-92380000D02*
X168462500Y-97130000D01*
X168462500Y-106070000D02*
X168462500Y-110820000D01*
X168462500Y-110820000D02*
X172592500Y-110820000D01*
X172592500Y-92380000D02*
X168462500Y-92380000D01*
X175292500Y-110820000D02*
X178892500Y-110820000D01*
X178892500Y-92380000D02*
X175292500Y-92380000D01*
X181692500Y-110820000D02*
X185292500Y-110820000D01*
X185292500Y-92380000D02*
X181692500Y-92380000D01*
X189312500Y-92380000D02*
X187992500Y-92380000D01*
X189312500Y-92380000D02*
X189312500Y-95780000D01*
X189312500Y-95780000D02*
X192942500Y-95780000D01*
X189312500Y-107420000D02*
X189312500Y-110820000D01*
X189312500Y-107420000D02*
X192942500Y-107420000D01*
X189312500Y-110820000D02*
X187992500Y-110820000D01*
X192942500Y-95780000D02*
X192942500Y-107420000D01*
%TO.C,J2*%
X127097500Y-107420000D02*
X127097500Y-95780000D01*
X130727500Y-92380000D02*
X132047500Y-92380000D01*
X130727500Y-95780000D02*
X127097500Y-95780000D01*
X130727500Y-95780000D02*
X130727500Y-92380000D01*
X130727500Y-107420000D02*
X127097500Y-107420000D01*
X130727500Y-110820000D02*
X130727500Y-107420000D01*
X130727500Y-110820000D02*
X132047500Y-110820000D01*
X134747500Y-110820000D02*
X138347500Y-110820000D01*
X138347500Y-92380000D02*
X134747500Y-92380000D01*
X141147500Y-110820000D02*
X144747500Y-110820000D01*
X144747500Y-92380000D02*
X141147500Y-92380000D01*
X147447500Y-110820000D02*
X151577500Y-110820000D01*
X151577500Y-92380000D02*
X147447500Y-92380000D01*
X151577500Y-97130000D02*
X151577500Y-92380000D01*
X151577500Y-110820000D02*
X151577500Y-106070000D01*
X154497500Y-97130000D02*
X151577500Y-97130000D01*
X154497500Y-106030000D02*
X154497500Y-97130000D01*
X154497500Y-106070000D02*
X151577500Y-106070000D01*
%TO.C,J4*%
X152569000Y-90205000D02*
X152569000Y-87545000D01*
X165329000Y-87545000D02*
X152569000Y-87545000D01*
X165329000Y-90205000D02*
X152569000Y-90205000D01*
X165329000Y-90205000D02*
X165329000Y-87545000D01*
X167929000Y-87545000D02*
X166599000Y-87545000D01*
X167929000Y-88875000D02*
X167929000Y-87545000D01*
%TD*%
M02*
