%TF.GenerationSoftware,KiCad,Pcbnew,8.0.8*%
%TF.CreationDate,2025-04-05T00:59:39-04:00*%
%TF.ProjectId,splitter,73706c69-7474-4657-922e-6b696361645f,rev?*%
%TF.SameCoordinates,Original*%
%TF.FileFunction,Copper,L2,Bot*%
%TF.FilePolarity,Positive*%
%FSLAX46Y46*%
G04 Gerber Fmt 4.6, Leading zero omitted, Abs format (unit mm)*
G04 Created by KiCad (PCBNEW 8.0.8) date 2025-04-05 00:59:39*
%MOMM*%
%LPD*%
G01*
G04 APERTURE LIST*
G04 Aperture macros list*
%AMRoundRect*
0 Rectangle with rounded corners*
0 $1 Rounding radius*
0 $2 $3 $4 $5 $6 $7 $8 $9 X,Y pos of 4 corners*
0 Add a 4 corners polygon primitive as box body*
4,1,4,$2,$3,$4,$5,$6,$7,$8,$9,$2,$3,0*
0 Add four circle primitives for the rounded corners*
1,1,$1+$1,$2,$3*
1,1,$1+$1,$4,$5*
1,1,$1+$1,$6,$7*
1,1,$1+$1,$8,$9*
0 Add four rect primitives between the rounded corners*
20,1,$1+$1,$2,$3,$4,$5,0*
20,1,$1+$1,$4,$5,$6,$7,0*
20,1,$1+$1,$6,$7,$8,$9,0*
20,1,$1+$1,$8,$9,$2,$3,0*%
G04 Aperture macros list end*
%TA.AperFunction,ComponentPad*%
%ADD10R,1.800000X1.800000*%
%TD*%
%TA.AperFunction,ComponentPad*%
%ADD11C,1.800000*%
%TD*%
%TA.AperFunction,ComponentPad*%
%ADD12R,1.700000X1.700000*%
%TD*%
%TA.AperFunction,ComponentPad*%
%ADD13O,1.700000X1.700000*%
%TD*%
%TA.AperFunction,ComponentPad*%
%ADD14R,1.600000X1.600000*%
%TD*%
%TA.AperFunction,ComponentPad*%
%ADD15O,1.600000X1.600000*%
%TD*%
%TA.AperFunction,ComponentPad*%
%ADD16R,1.500000X1.500000*%
%TD*%
%TA.AperFunction,ComponentPad*%
%ADD17C,1.500000*%
%TD*%
%TA.AperFunction,ComponentPad*%
%ADD18O,2.720000X3.240000*%
%TD*%
%TA.AperFunction,ComponentPad*%
%ADD19O,1.500000X2.000000*%
%TD*%
%TA.AperFunction,ComponentPad*%
%ADD20R,1.400000X1.500000*%
%TD*%
%TA.AperFunction,ComponentPad*%
%ADD21RoundRect,0.250000X0.600000X-0.600000X0.600000X0.600000X-0.600000X0.600000X-0.600000X-0.600000X0*%
%TD*%
%TA.AperFunction,ComponentPad*%
%ADD22C,1.700000*%
%TD*%
%TA.AperFunction,ComponentPad*%
%ADD23C,3.000000*%
%TD*%
%TA.AperFunction,ViaPad*%
%ADD24C,0.800000*%
%TD*%
%TA.AperFunction,Conductor*%
%ADD25C,0.250000*%
%TD*%
G04 APERTURE END LIST*
D10*
%TO.P,D1,1,K*%
%TO.N,Net-(D1-K)*%
X31500000Y-30500000D03*
D11*
%TO.P,D1,2,A*%
%TO.N,/LED*%
X28960000Y-30500000D03*
%TD*%
D12*
%TO.P,J7,1*%
%TO.N,+9V*%
X23876000Y-14462000D03*
D13*
%TO.P,J7,2*%
%TO.N,GNDD*%
X23876000Y-11922000D03*
%TD*%
D14*
%TO.P,U1,1*%
%TO.N,Net-(U1A--)*%
X26250000Y-34760000D03*
D15*
%TO.P,U1,2,-*%
X26250000Y-37300000D03*
%TO.P,U1,3,+*%
%TO.N,Net-(U1A-+)*%
X26250000Y-39840000D03*
%TO.P,U1,4,V+*%
%TO.N,+9V*%
X26250000Y-42380000D03*
%TO.P,U1,5,+*%
%TO.N,GND*%
X26250000Y-44920000D03*
%TO.P,U1,6,-*%
%TO.N,Net-(U1B--)*%
X26250000Y-47460000D03*
%TO.P,U1,7*%
%TO.N,Net-(U1D-+)*%
X26250000Y-50000000D03*
%TO.P,U1,8*%
%TO.N,Net-(C8-Pad1)*%
X33870000Y-50000000D03*
%TO.P,U1,9,-*%
%TO.N,Net-(U1C--)*%
X33870000Y-47460000D03*
%TO.P,U1,10,+*%
%TO.N,GND*%
X33870000Y-44920000D03*
%TO.P,U1,11,V-*%
%TO.N,GNDD*%
X33870000Y-42380000D03*
%TO.P,U1,12,+*%
%TO.N,Net-(U1D-+)*%
X33870000Y-39840000D03*
%TO.P,U1,13,-*%
%TO.N,Net-(U1D--)*%
X33870000Y-37300000D03*
%TO.P,U1,14*%
%TO.N,Net-(C5-Pad1)*%
X33870000Y-34760000D03*
%TD*%
D16*
%TO.P,U2,1,OUT*%
%TO.N,GND*%
X21992000Y-22844000D03*
D17*
%TO.P,U2,2,COMMON*%
%TO.N,GNDD*%
X21992000Y-20304000D03*
%TO.P,U2,3,IN*%
%TO.N,+9V*%
X21992000Y-17764000D03*
%TD*%
D18*
%TO.P,RV2,*%
%TO.N,*%
X42700000Y-15374000D03*
X52300000Y-15374000D03*
D10*
%TO.P,RV2,1,1*%
%TO.N,Net-(R6-Pad1)*%
X45000000Y-22874000D03*
D11*
%TO.P,RV2,2,2*%
%TO.N,GND*%
X47500000Y-22874000D03*
%TO.P,RV2,3,3*%
%TO.N,Net-(R5-Pad2)*%
X50000000Y-22874000D03*
%TD*%
D18*
%TO.P,RV1,*%
%TO.N,*%
X7750000Y-15374000D03*
X17250000Y-15374000D03*
D10*
%TO.P,RV1,1,1*%
%TO.N,Net-(R2-Pad1)*%
X10000000Y-22874000D03*
D11*
%TO.P,RV1,2,2*%
%TO.N,GND*%
X12500000Y-22874000D03*
%TO.P,RV1,3,3*%
X15000000Y-22874000D03*
%TO.P,RV1,4,4*%
%TO.N,Net-(R1-Pad1)*%
X10000000Y-25374000D03*
%TO.P,RV1,5,5*%
%TO.N,Net-(U1A--)*%
X12500000Y-25374000D03*
%TO.P,RV1,6,6*%
X15000000Y-25374000D03*
%TD*%
D19*
%TO.P,SW2,*%
%TO.N,*%
X33000000Y-11250000D03*
X27150000Y-11250000D03*
X32850000Y-26250000D03*
X27150000Y-26250000D03*
D20*
%TO.P,SW2,1,1*%
%TO.N,/HIGH*%
X31250000Y-14750000D03*
D17*
%TO.P,SW2,2,2*%
%TO.N,/IN*%
X31250000Y-16750000D03*
%TO.P,SW2,3,3*%
%TO.N,/SEND_1*%
X31250000Y-18750000D03*
%TO.P,SW2,4,4*%
%TO.N,/LOW*%
X31250000Y-22750000D03*
%TO.P,SW2,5,5*%
X28750000Y-14750000D03*
%TO.P,SW2,6,6*%
%TO.N,/IN*%
X28750000Y-16750000D03*
%TO.P,SW2,7,7*%
%TO.N,/SEND_2*%
X28750000Y-18750000D03*
%TO.P,SW2,8,8*%
%TO.N,/HIGH*%
X28750000Y-22750000D03*
%TD*%
D21*
%TO.P,J8,1,Pin_1*%
%TO.N,+9V*%
X26190000Y-63000000D03*
D22*
%TO.P,J8,2,Pin_2*%
%TO.N,/LED*%
X26190000Y-60460000D03*
%TO.P,J8,3,Pin_3*%
%TO.N,/OUT*%
X28730000Y-63000000D03*
%TO.P,J8,4,Pin_4*%
%TO.N,/RECVR*%
X28730000Y-60460000D03*
%TO.P,J8,5,Pin_5*%
%TO.N,/IN*%
X31270000Y-63000000D03*
%TO.P,J8,6,Pin_6*%
%TO.N,/OUTR*%
X31270000Y-60460000D03*
%TO.P,J8,7,Pin_7*%
%TO.N,/INR*%
X33810000Y-63000000D03*
%TO.P,J8,8,Pin_8*%
%TO.N,/OUTT*%
X33810000Y-60460000D03*
%TD*%
D23*
%TO.P,J1,R*%
%TO.N,/INR*%
X46350000Y-70230000D03*
%TO.P,J1,RN*%
%TO.N,GNDD*%
X46350000Y-54000000D03*
%TO.P,J1,S*%
X52700000Y-70230000D03*
%TO.P,J1,SN*%
X52700000Y-54000000D03*
%TO.P,J1,T*%
%TO.N,/IN*%
X40000000Y-70230000D03*
%TO.P,J1,TN*%
%TO.N,GNDD*%
X40000000Y-54000000D03*
%TD*%
%TO.P,J6,R*%
%TO.N,/OUTR*%
X13650000Y-54000000D03*
%TO.P,J6,RN*%
%TO.N,unconnected-(J6-PadRN)*%
X13650000Y-70230000D03*
%TO.P,J6,S*%
%TO.N,GNDD*%
X7300000Y-54000000D03*
%TO.P,J6,SN*%
X7300000Y-70230000D03*
%TO.P,J6,T*%
%TO.N,/OUTT*%
X20000000Y-54000000D03*
%TO.P,J6,TN*%
%TO.N,unconnected-(J6-PadTN)*%
X20000000Y-70230000D03*
%TD*%
%TO.P,J2,R*%
%TO.N,Net-(JP1-C)*%
X46350000Y-49230000D03*
%TO.P,J2,RN*%
%TO.N,unconnected-(J2-PadRN)*%
X46350000Y-33000000D03*
%TO.P,J2,S*%
%TO.N,GNDD*%
X52700000Y-49230000D03*
%TO.P,J2,SN*%
X52700000Y-33000000D03*
%TO.P,J2,T*%
%TO.N,/SEND_1*%
X40000000Y-49230000D03*
%TO.P,J2,TN*%
%TO.N,unconnected-(J2-PadTN)*%
X40000000Y-33000000D03*
%TD*%
%TO.P,J4,R*%
%TO.N,Net-(JP3-C)*%
X13650000Y-33000000D03*
%TO.P,J4,RN*%
%TO.N,Net-(JP1-C)*%
X13650000Y-49230000D03*
%TO.P,J4,S*%
%TO.N,GNDD*%
X7300000Y-33000000D03*
%TO.P,J4,SN*%
X7300000Y-49230000D03*
%TO.P,J4,T*%
%TO.N,/RECV_1*%
X20000000Y-33000000D03*
%TO.P,J4,TN*%
%TO.N,/SEND_1*%
X20000000Y-49230000D03*
%TD*%
%TO.P,J5,R*%
%TO.N,unconnected-(J5-PadR)*%
X13650000Y-11948000D03*
%TO.P,J5,RN*%
%TO.N,unconnected-(J5-PadRN)*%
X13650000Y-28178000D03*
%TO.P,J5,S*%
%TO.N,GNDD*%
X7300000Y-11948000D03*
%TO.P,J5,SN*%
X7300000Y-28178000D03*
%TO.P,J5,T*%
%TO.N,/RECV_2*%
X20000000Y-11948000D03*
%TO.P,J5,TN*%
%TO.N,/SEND_2*%
X20000000Y-28178000D03*
%TD*%
%TO.P,J3,R*%
%TO.N,unconnected-(J3-PadR)*%
X46350000Y-28178000D03*
%TO.P,J3,RN*%
%TO.N,unconnected-(J3-PadRN)*%
X46350000Y-11948000D03*
%TO.P,J3,S*%
%TO.N,GNDD*%
X52700000Y-28178000D03*
%TO.P,J3,SN*%
X52700000Y-11948000D03*
%TO.P,J3,T*%
%TO.N,/SEND_2*%
X40000000Y-28178000D03*
%TO.P,J3,TN*%
%TO.N,unconnected-(J3-PadTN)*%
X40000000Y-11948000D03*
%TD*%
D24*
%TO.N,GND*%
X35500000Y-28500000D03*
X25000000Y-28500000D03*
%TO.N,+9V*%
X23000000Y-31500000D03*
%TO.N,/IN*%
X17000000Y-39500000D03*
%TO.N,/OUT*%
X43500000Y-45000000D03*
%TO.N,/SEND_2*%
X42500000Y-58500000D03*
%TO.N,/RECV_1*%
X18225000Y-51000000D03*
%TO.N,/RECV_2*%
X41000000Y-39000000D03*
X32500000Y-55000000D03*
X39500000Y-22500000D03*
%TO.N,Net-(U1A--)*%
X38000000Y-46000000D03*
%TO.N,Net-(JP3-C)*%
X17500000Y-56000000D03*
%TD*%
D25*
%TO.N,/LED*%
X28960000Y-30500000D02*
X27687208Y-30500000D01*
X27687208Y-30500000D02*
X23500000Y-34687208D01*
X23500000Y-34687208D02*
X23500000Y-57770000D01*
X23500000Y-57770000D02*
X26190000Y-60460000D01*
%TO.N,GND*%
X21992000Y-22844000D02*
X15030000Y-22844000D01*
X12500000Y-22874000D02*
X15000000Y-22874000D01*
X35500000Y-28500000D02*
X39500000Y-24500000D01*
X25000000Y-28500000D02*
X35500000Y-28500000D01*
X39500000Y-24500000D02*
X45874000Y-24500000D01*
X45874000Y-24500000D02*
X47500000Y-22874000D01*
%TO.N,+9V*%
X26190000Y-63000000D02*
X23000000Y-59810000D01*
X23000000Y-59810000D02*
X23000000Y-31500000D01*
%TO.N,/HIGH*%
X32500000Y-16000000D02*
X31250000Y-14750000D01*
X32500000Y-19000000D02*
X32500000Y-16000000D01*
X28750000Y-22750000D02*
X32500000Y-19000000D01*
%TO.N,/IN*%
X22550000Y-59996396D02*
X22550000Y-61550000D01*
X26500000Y-19000000D02*
X28750000Y-16750000D01*
X17000000Y-39500000D02*
X17000000Y-28597060D01*
X22500000Y-25000000D02*
X26500000Y-21000000D01*
X17000000Y-28597060D02*
X20597060Y-25000000D01*
X17000000Y-54446396D02*
X22550000Y-59996396D01*
X26500000Y-21000000D02*
X26500000Y-19000000D01*
X31230000Y-70230000D02*
X40000000Y-70230000D01*
X22550000Y-61550000D02*
X31230000Y-70230000D01*
X20597060Y-25000000D02*
X22500000Y-25000000D01*
X17000000Y-39500000D02*
X17000000Y-54446396D01*
%TO.N,/OUT*%
X43500000Y-58525306D02*
X42012653Y-60012653D01*
X37025305Y-65000000D02*
X30730000Y-65000000D01*
X30730000Y-65000000D02*
X28730000Y-63000000D01*
X42012653Y-60012653D02*
X37025305Y-65000000D01*
X43500000Y-45000000D02*
X43500000Y-58525306D01*
%TO.N,/SEND_1*%
X31250000Y-18750000D02*
X22000000Y-28000000D01*
X22000000Y-47230000D02*
X20000000Y-49230000D01*
X22000000Y-28000000D02*
X22000000Y-47230000D01*
%TO.N,/SEND_2*%
X42500000Y-30678000D02*
X40000000Y-28178000D01*
X28750000Y-19428000D02*
X28750000Y-18750000D01*
X42500000Y-58500000D02*
X42500000Y-30678000D01*
X20000000Y-28178000D02*
X28750000Y-19428000D01*
%TO.N,/RECV_1*%
X18225000Y-51000000D02*
X18000000Y-50775000D01*
X18000000Y-50775000D02*
X18000000Y-35000000D01*
X18000000Y-35000000D02*
X20000000Y-33000000D01*
%TO.N,/RECV_2*%
X41000000Y-45000000D02*
X40500000Y-45500000D01*
X32500000Y-55000000D02*
X32500000Y-53500000D01*
X21149000Y-13097000D02*
X31647000Y-13097000D01*
X31647000Y-13097000D02*
X39500000Y-20950000D01*
X32500000Y-53500000D02*
X40500000Y-45500000D01*
X41000000Y-39000000D02*
X41000000Y-45000000D01*
X39500000Y-20950000D02*
X39500000Y-22500000D01*
X21149000Y-13097000D02*
X20000000Y-11948000D01*
%TO.N,Net-(U1D-+)*%
X30000000Y-43710000D02*
X30000000Y-46250000D01*
X30000000Y-46250000D02*
X26250000Y-50000000D01*
X33870000Y-39840000D02*
X30000000Y-43710000D01*
%TO.N,Net-(U1A--)*%
X27450000Y-38500000D02*
X37000000Y-38500000D01*
X26250000Y-37300000D02*
X27450000Y-38500000D01*
X38000000Y-39500000D02*
X37000000Y-38500000D01*
X38000000Y-46000000D02*
X38000000Y-39500000D01*
%TO.N,Net-(JP3-C)*%
X16275000Y-35625000D02*
X16275000Y-54775000D01*
X16275000Y-54775000D02*
X17500000Y-56000000D01*
X13650000Y-33000000D02*
X16275000Y-35625000D01*
%TD*%
%TA.AperFunction,Conductor*%
%TO.N,GNDD*%
G36*
X26668863Y-9620002D02*
G01*
X26715356Y-9673658D01*
X26725460Y-9743932D01*
X26695966Y-9808512D01*
X26657947Y-9838265D01*
X26499564Y-9918965D01*
X26490398Y-9923636D01*
X26330139Y-10040071D01*
X26190071Y-10180139D01*
X26073636Y-10340398D01*
X26004194Y-10476686D01*
X25983702Y-10516903D01*
X25922488Y-10705300D01*
X25891500Y-10900954D01*
X25891500Y-11599046D01*
X25922488Y-11794700D01*
X25983702Y-11983097D01*
X26050907Y-12114993D01*
X26073636Y-12159601D01*
X26149079Y-12263439D01*
X26172937Y-12330307D01*
X26156857Y-12399458D01*
X26105943Y-12448938D01*
X26047143Y-12463500D01*
X25301624Y-12463500D01*
X25233503Y-12443498D01*
X25187010Y-12389842D01*
X25176906Y-12319568D01*
X25179480Y-12306569D01*
X25212544Y-12176000D01*
X24306703Y-12176000D01*
X24341925Y-12114993D01*
X24376000Y-11987826D01*
X24376000Y-11856174D01*
X24341925Y-11729007D01*
X24306703Y-11668000D01*
X25212544Y-11668000D01*
X25212544Y-11667999D01*
X25164823Y-11479550D01*
X25164820Y-11479543D01*
X25074419Y-11273451D01*
X24951325Y-11085041D01*
X24798902Y-10919465D01*
X24621301Y-10781232D01*
X24621300Y-10781231D01*
X24423371Y-10674117D01*
X24423369Y-10674116D01*
X24210512Y-10601043D01*
X24210501Y-10601040D01*
X24130000Y-10587606D01*
X24130000Y-11491297D01*
X24068993Y-11456075D01*
X23941826Y-11422000D01*
X23810174Y-11422000D01*
X23683007Y-11456075D01*
X23622000Y-11491297D01*
X23622000Y-10587607D01*
X23621999Y-10587606D01*
X23541498Y-10601040D01*
X23541487Y-10601043D01*
X23328630Y-10674116D01*
X23328628Y-10674117D01*
X23130699Y-10781231D01*
X23130698Y-10781232D01*
X22953097Y-10919465D01*
X22800674Y-11085041D01*
X22677580Y-11273451D01*
X22587179Y-11479543D01*
X22587176Y-11479550D01*
X22539455Y-11667999D01*
X22539456Y-11668000D01*
X23445297Y-11668000D01*
X23410075Y-11729007D01*
X23376000Y-11856174D01*
X23376000Y-11987826D01*
X23410075Y-12114993D01*
X23445297Y-12176000D01*
X22539455Y-12176000D01*
X22572520Y-12306569D01*
X22569853Y-12377515D01*
X22529253Y-12435757D01*
X22463609Y-12462803D01*
X22450376Y-12463500D01*
X22099159Y-12463500D01*
X22031038Y-12443498D01*
X21984545Y-12389842D01*
X21974441Y-12319568D01*
X21975789Y-12311888D01*
X21994442Y-12222130D01*
X21998719Y-12159598D01*
X22013193Y-11948004D01*
X22013193Y-11947995D01*
X21994443Y-11673883D01*
X21994442Y-11673877D01*
X21994442Y-11673870D01*
X21938538Y-11404847D01*
X21846523Y-11145942D01*
X21720111Y-10901977D01*
X21561657Y-10677498D01*
X21374111Y-10476686D01*
X21160969Y-10303282D01*
X20926200Y-10160516D01*
X20926201Y-10160516D01*
X20926197Y-10160514D01*
X20674180Y-10051048D01*
X20674178Y-10051047D01*
X20674177Y-10051047D01*
X20541886Y-10013981D01*
X20409593Y-9976914D01*
X20137395Y-9939500D01*
X20137385Y-9939500D01*
X19862615Y-9939500D01*
X19862604Y-9939500D01*
X19590406Y-9976914D01*
X19325819Y-10051048D01*
X19073802Y-10160514D01*
X18839028Y-10303284D01*
X18625886Y-10476688D01*
X18438343Y-10677498D01*
X18279892Y-10901971D01*
X18153477Y-11145941D01*
X18061462Y-11404845D01*
X18061460Y-11404853D01*
X18005557Y-11673877D01*
X18005556Y-11673883D01*
X17986807Y-11947995D01*
X17986807Y-11948004D01*
X18005556Y-12222116D01*
X18005557Y-12222119D01*
X18005558Y-12222130D01*
X18028038Y-12330307D01*
X18061460Y-12491146D01*
X18061462Y-12491154D01*
X18145463Y-12727510D01*
X18153477Y-12750058D01*
X18279754Y-12993763D01*
X18279892Y-12994028D01*
X18347797Y-13090227D01*
X18438343Y-13218502D01*
X18625889Y-13419314D01*
X18839031Y-13592718D01*
X19070023Y-13733187D01*
X19073802Y-13735485D01*
X19088539Y-13741886D01*
X19325823Y-13844953D01*
X19590404Y-13919085D01*
X19685504Y-13932156D01*
X19862604Y-13956499D01*
X19862615Y-13956500D01*
X20137385Y-13956500D01*
X20137395Y-13956499D01*
X20275611Y-13937501D01*
X20409596Y-13919085D01*
X20674177Y-13844953D01*
X20926200Y-13735484D01*
X20929978Y-13733186D01*
X20998571Y-13714876D01*
X21020027Y-13717256D01*
X21086606Y-13730500D01*
X21211393Y-13730500D01*
X22391500Y-13730500D01*
X22459621Y-13750502D01*
X22506114Y-13804158D01*
X22517500Y-13856500D01*
X22517500Y-15360649D01*
X22524009Y-15421196D01*
X22524011Y-15421204D01*
X22575110Y-15558202D01*
X22575112Y-15558207D01*
X22662738Y-15675261D01*
X22779792Y-15762887D01*
X22779794Y-15762888D01*
X22779796Y-15762889D01*
X22817047Y-15776783D01*
X22916795Y-15813988D01*
X22916803Y-15813990D01*
X22977350Y-15820499D01*
X22977355Y-15820499D01*
X22977362Y-15820500D01*
X22977368Y-15820500D01*
X24774632Y-15820500D01*
X24774638Y-15820500D01*
X24774645Y-15820499D01*
X24774649Y-15820499D01*
X24835196Y-15813990D01*
X24835199Y-15813989D01*
X24835201Y-15813989D01*
X24972204Y-15762889D01*
X24980782Y-15756468D01*
X25089261Y-15675261D01*
X25176887Y-15558207D01*
X25176887Y-15558206D01*
X25176889Y-15558204D01*
X25227989Y-15421201D01*
X25232915Y-15375386D01*
X25234499Y-15360649D01*
X25234500Y-15360632D01*
X25234500Y-13856500D01*
X25254502Y-13788379D01*
X25308158Y-13741886D01*
X25360500Y-13730500D01*
X27686125Y-13730500D01*
X27754246Y-13750502D01*
X27800739Y-13804158D01*
X27810843Y-13874432D01*
X27784675Y-13932944D01*
X27785406Y-13933456D01*
X27782751Y-13937246D01*
X27782638Y-13937501D01*
X27782249Y-13937963D01*
X27655944Y-14118346D01*
X27562881Y-14317920D01*
X27562880Y-14317924D01*
X27505885Y-14530629D01*
X27486693Y-14750000D01*
X27505885Y-14969371D01*
X27562880Y-15182076D01*
X27655944Y-15381654D01*
X27782247Y-15562033D01*
X27782251Y-15562038D01*
X27782254Y-15562042D01*
X27881117Y-15660905D01*
X27915143Y-15723217D01*
X27910078Y-15794032D01*
X27881118Y-15839095D01*
X27782248Y-15937965D01*
X27655944Y-16118346D01*
X27562881Y-16317920D01*
X27562879Y-16317926D01*
X27505885Y-16530629D01*
X27486693Y-16750000D01*
X27505885Y-16969371D01*
X27505885Y-16969373D01*
X27514284Y-17000718D01*
X27512593Y-17071695D01*
X27481672Y-17122422D01*
X26096167Y-18507929D01*
X26007931Y-18596164D01*
X26007926Y-18596171D01*
X25938601Y-18699923D01*
X25890846Y-18815212D01*
X25866500Y-18937603D01*
X25866500Y-20685406D01*
X25846498Y-20753527D01*
X25829595Y-20774501D01*
X23465595Y-23138501D01*
X23403283Y-23172527D01*
X23332468Y-23167462D01*
X23275632Y-23124915D01*
X23250821Y-23058395D01*
X23250500Y-23049406D01*
X23250500Y-22045367D01*
X23250499Y-22045350D01*
X23243990Y-21984803D01*
X23243988Y-21984795D01*
X23205566Y-21881784D01*
X23192889Y-21847796D01*
X23192888Y-21847794D01*
X23192887Y-21847792D01*
X23105261Y-21730738D01*
X22988207Y-21643112D01*
X22988202Y-21643110D01*
X22851204Y-21592011D01*
X22851196Y-21592009D01*
X22790649Y-21585500D01*
X22790638Y-21585500D01*
X22754703Y-21585500D01*
X22686582Y-21565498D01*
X22640089Y-21511842D01*
X22629985Y-21441568D01*
X22659479Y-21376988D01*
X22682430Y-21356289D01*
X22683986Y-21355199D01*
X22683986Y-21355197D01*
X22116947Y-20788158D01*
X22184993Y-20769925D01*
X22299007Y-20704099D01*
X22392099Y-20611007D01*
X22457925Y-20496993D01*
X22476158Y-20428947D01*
X23043197Y-20995986D01*
X23043198Y-20995986D01*
X23085615Y-20935412D01*
X23085619Y-20935405D01*
X23178645Y-20735912D01*
X23178649Y-20735903D01*
X23235619Y-20523287D01*
X23254804Y-20304000D01*
X23235619Y-20084712D01*
X23178649Y-19872096D01*
X23178647Y-19872092D01*
X23085621Y-19672598D01*
X23043198Y-19612012D01*
X23043196Y-19612012D01*
X22476157Y-20179051D01*
X22457925Y-20111007D01*
X22392099Y-19996993D01*
X22299007Y-19903901D01*
X22184993Y-19838075D01*
X22116946Y-19819841D01*
X22683986Y-19252801D01*
X22683986Y-19252800D01*
X22623401Y-19210378D01*
X22623402Y-19210378D01*
X22490640Y-19148470D01*
X22437355Y-19101552D01*
X22417894Y-19033275D01*
X22438436Y-18965315D01*
X22490639Y-18920081D01*
X22623654Y-18858056D01*
X22804038Y-18731749D01*
X22959749Y-18576038D01*
X23086056Y-18395654D01*
X23179120Y-18196076D01*
X23236115Y-17983371D01*
X23255307Y-17764000D01*
X23236115Y-17544629D01*
X23179120Y-17331924D01*
X23086056Y-17132347D01*
X22959749Y-16951962D01*
X22804038Y-16796251D01*
X22623654Y-16669944D01*
X22623650Y-16669942D01*
X22424079Y-16576881D01*
X22424073Y-16576879D01*
X22334178Y-16552791D01*
X22211371Y-16519885D01*
X21992000Y-16500693D01*
X21772629Y-16519885D01*
X21559926Y-16576879D01*
X21559920Y-16576881D01*
X21360346Y-16669944D01*
X21179965Y-16796248D01*
X21179959Y-16796253D01*
X21024253Y-16951959D01*
X21024248Y-16951965D01*
X20897944Y-17132346D01*
X20804881Y-17331920D01*
X20804879Y-17331926D01*
X20784727Y-17407134D01*
X20747885Y-17544629D01*
X20728693Y-17764000D01*
X20747885Y-17983371D01*
X20804880Y-18196076D01*
X20897944Y-18395654D01*
X20992455Y-18530629D01*
X21024251Y-18576038D01*
X21024254Y-18576042D01*
X21179957Y-18731745D01*
X21179961Y-18731748D01*
X21179962Y-18731749D01*
X21360346Y-18858056D01*
X21360351Y-18858058D01*
X21360351Y-18858059D01*
X21493358Y-18920080D01*
X21546644Y-18966997D01*
X21566105Y-19035274D01*
X21545564Y-19103234D01*
X21493360Y-19148469D01*
X21360600Y-19210377D01*
X21300011Y-19252801D01*
X21867052Y-19819842D01*
X21799007Y-19838075D01*
X21684993Y-19903901D01*
X21591901Y-19996993D01*
X21526075Y-20111007D01*
X21507842Y-20179052D01*
X20940801Y-19612011D01*
X20898378Y-19672598D01*
X20805352Y-19872092D01*
X20805350Y-19872096D01*
X20748380Y-20084712D01*
X20729195Y-20304000D01*
X20748380Y-20523287D01*
X20805350Y-20735903D01*
X20805352Y-20735907D01*
X20898378Y-20935402D01*
X20940801Y-20995986D01*
X21507841Y-20428946D01*
X21526075Y-20496993D01*
X21591901Y-20611007D01*
X21684993Y-20704099D01*
X21799007Y-20769925D01*
X21867051Y-20788157D01*
X21300012Y-21355196D01*
X21300012Y-21355198D01*
X21301568Y-21356288D01*
X21345896Y-21411745D01*
X21353204Y-21482365D01*
X21321172Y-21545725D01*
X21259971Y-21581709D01*
X21229296Y-21585500D01*
X21193350Y-21585500D01*
X21132803Y-21592009D01*
X21132795Y-21592011D01*
X20995797Y-21643110D01*
X20995792Y-21643112D01*
X20878738Y-21730738D01*
X20791112Y-21847792D01*
X20791110Y-21847797D01*
X20740011Y-21984795D01*
X20740009Y-21984803D01*
X20733500Y-22045350D01*
X20733500Y-22084500D01*
X20713498Y-22152621D01*
X20659842Y-22199114D01*
X20607500Y-22210500D01*
X16317162Y-22210500D01*
X16249041Y-22190498D01*
X16211679Y-22153415D01*
X16115314Y-22005916D01*
X15957225Y-21834186D01*
X15957221Y-21834182D01*
X15824316Y-21730738D01*
X15773017Y-21690810D01*
X15567727Y-21579713D01*
X15567724Y-21579712D01*
X15567723Y-21579711D01*
X15346955Y-21503921D01*
X15346948Y-21503919D01*
X15243715Y-21486693D01*
X15116712Y-21465500D01*
X14883288Y-21465500D01*
X14768066Y-21484727D01*
X14653051Y-21503919D01*
X14653044Y-21503921D01*
X14432276Y-21579711D01*
X14432273Y-21579713D01*
X14315122Y-21643112D01*
X14226985Y-21690809D01*
X14226983Y-21690810D01*
X14042778Y-21834182D01*
X14042774Y-21834186D01*
X13884685Y-22005916D01*
X13855483Y-22050615D01*
X13801480Y-22096704D01*
X13731132Y-22106279D01*
X13666774Y-22076302D01*
X13644517Y-22050615D01*
X13615314Y-22005916D01*
X13457225Y-21834186D01*
X13457221Y-21834182D01*
X13324316Y-21730738D01*
X13273017Y-21690810D01*
X13067727Y-21579713D01*
X13067724Y-21579712D01*
X13067723Y-21579711D01*
X12846955Y-21503921D01*
X12846948Y-21503919D01*
X12743715Y-21486693D01*
X12616712Y-21465500D01*
X12383288Y-21465500D01*
X12268066Y-21484727D01*
X12153051Y-21503919D01*
X12153044Y-21503921D01*
X11932276Y-21579711D01*
X11932273Y-21579713D01*
X11726983Y-21690810D01*
X11563859Y-21817776D01*
X11560274Y-21820566D01*
X11494232Y-21846622D01*
X11424586Y-21832837D01*
X11373450Y-21783587D01*
X11364828Y-21765167D01*
X11350889Y-21727796D01*
X11350887Y-21727792D01*
X11263261Y-21610738D01*
X11146207Y-21523112D01*
X11146202Y-21523110D01*
X11009204Y-21472011D01*
X11009196Y-21472009D01*
X10948649Y-21465500D01*
X10948638Y-21465500D01*
X9051362Y-21465500D01*
X9051350Y-21465500D01*
X8990803Y-21472009D01*
X8990795Y-21472011D01*
X8853797Y-21523110D01*
X8853792Y-21523112D01*
X8736738Y-21610738D01*
X8649112Y-21727792D01*
X8649110Y-21727797D01*
X8598011Y-21864795D01*
X8598009Y-21864803D01*
X8591500Y-21925350D01*
X8591500Y-23822649D01*
X8598009Y-23883196D01*
X8598011Y-23883204D01*
X8649110Y-24020202D01*
X8649112Y-24020207D01*
X8736738Y-24137261D01*
X8853792Y-24224887D01*
X8853794Y-24224887D01*
X8853796Y-24224889D01*
X8893763Y-24239796D01*
X8950598Y-24282342D01*
X8975409Y-24348862D01*
X8960318Y-24418236D01*
X8942432Y-24443188D01*
X8884683Y-24505920D01*
X8757015Y-24701331D01*
X8663252Y-24915089D01*
X8663249Y-24915096D01*
X8605950Y-25141366D01*
X8605949Y-25141372D01*
X8605949Y-25141374D01*
X8586673Y-25374000D01*
X8598514Y-25516903D01*
X8605950Y-25606633D01*
X8663249Y-25832903D01*
X8663252Y-25832910D01*
X8757015Y-26046668D01*
X8884685Y-26242083D01*
X9042774Y-26413813D01*
X9042778Y-26413817D01*
X9108650Y-26465087D01*
X9226983Y-26557190D01*
X9432273Y-26668287D01*
X9653049Y-26744080D01*
X9883288Y-26782500D01*
X9883292Y-26782500D01*
X10116708Y-26782500D01*
X10116712Y-26782500D01*
X10346951Y-26744080D01*
X10567727Y-26668287D01*
X10773017Y-26557190D01*
X10957220Y-26413818D01*
X10978262Y-26390961D01*
X11017484Y-26348354D01*
X11115314Y-26242083D01*
X11144517Y-26197383D01*
X11198519Y-26151296D01*
X11268867Y-26141720D01*
X11333225Y-26171696D01*
X11355481Y-26197382D01*
X11382010Y-26237987D01*
X11384687Y-26242084D01*
X11542774Y-26413813D01*
X11542778Y-26413817D01*
X11608650Y-26465087D01*
X11726983Y-26557190D01*
X11932273Y-26668287D01*
X12035773Y-26703818D01*
X12093708Y-26744854D01*
X12120260Y-26810699D01*
X12106999Y-26880446D01*
X12090605Y-26903790D01*
X12091059Y-26904159D01*
X12088347Y-26907492D01*
X11929892Y-27131971D01*
X11803477Y-27375941D01*
X11711462Y-27634845D01*
X11711460Y-27634853D01*
X11685766Y-27758500D01*
X11664249Y-27862050D01*
X11655557Y-27903877D01*
X11655556Y-27903883D01*
X11636807Y-28177995D01*
X11636807Y-28178004D01*
X11655556Y-28452116D01*
X11655557Y-28452122D01*
X11655558Y-28452130D01*
X11673238Y-28537210D01*
X11711460Y-28721146D01*
X11711462Y-28721154D01*
X11803408Y-28979865D01*
X11803477Y-28980058D01*
X11929754Y-29223763D01*
X11929892Y-29224028D01*
X11995385Y-29316810D01*
X12088343Y-29448502D01*
X12275889Y-29649314D01*
X12489031Y-29822718D01*
X12723800Y-29965484D01*
X12975823Y-30074953D01*
X13240404Y-30149085D01*
X13335504Y-30162156D01*
X13512604Y-30186499D01*
X13512615Y-30186500D01*
X13787385Y-30186500D01*
X13787395Y-30186499D01*
X13916945Y-30168692D01*
X14059596Y-30149085D01*
X14324177Y-30074953D01*
X14576200Y-29965484D01*
X14810969Y-29822718D01*
X15024111Y-29649314D01*
X15211657Y-29448502D01*
X15370111Y-29224023D01*
X15496523Y-28980058D01*
X15588538Y-28721153D01*
X15644442Y-28452130D01*
X15655054Y-28296985D01*
X15663193Y-28178004D01*
X15663193Y-28177995D01*
X15644443Y-27903883D01*
X15644442Y-27903877D01*
X15644442Y-27903870D01*
X15588538Y-27634847D01*
X15496523Y-27375942D01*
X15370111Y-27131977D01*
X15238422Y-26945416D01*
X15215480Y-26878229D01*
X15232503Y-26809304D01*
X15284089Y-26760524D01*
X15320620Y-26748473D01*
X15346951Y-26744080D01*
X15567727Y-26668287D01*
X15773017Y-26557190D01*
X15957220Y-26413818D01*
X15978262Y-26390961D01*
X16115314Y-26242083D01*
X16142581Y-26200348D01*
X16242984Y-26046669D01*
X16336749Y-25832907D01*
X16394051Y-25606626D01*
X16413327Y-25374000D01*
X16394051Y-25141374D01*
X16368398Y-25040071D01*
X16336750Y-24915096D01*
X16336747Y-24915089D01*
X16242984Y-24701331D01*
X16115314Y-24505916D01*
X15957225Y-24334186D01*
X15957221Y-24334183D01*
X15957212Y-24334176D01*
X15814926Y-24223429D01*
X15773457Y-24165807D01*
X15769723Y-24094909D01*
X15804913Y-24033247D01*
X15814915Y-24024579D01*
X15957220Y-23913818D01*
X15978368Y-23890846D01*
X16115314Y-23742083D01*
X16131215Y-23717745D01*
X16242984Y-23546669D01*
X16242990Y-23546653D01*
X16244686Y-23543524D01*
X16245716Y-23542485D01*
X16245834Y-23542306D01*
X16245871Y-23542330D01*
X16294702Y-23493136D01*
X16355496Y-23477500D01*
X20607500Y-23477500D01*
X20675621Y-23497502D01*
X20722114Y-23551158D01*
X20733500Y-23603500D01*
X20733500Y-23642649D01*
X20740009Y-23703196D01*
X20740011Y-23703204D01*
X20791110Y-23840202D01*
X20791112Y-23840207D01*
X20878738Y-23957261D01*
X20995792Y-24044887D01*
X20995794Y-24044888D01*
X20995796Y-24044889D01*
X21028776Y-24057190D01*
X21132795Y-24095988D01*
X21132803Y-24095990D01*
X21193350Y-24102499D01*
X21193355Y-24102499D01*
X21193362Y-24102500D01*
X22197406Y-24102500D01*
X22265527Y-24122502D01*
X22312020Y-24176158D01*
X22322124Y-24246432D01*
X22292630Y-24311012D01*
X22286501Y-24317595D01*
X22274501Y-24329595D01*
X22212189Y-24363621D01*
X22185406Y-24366500D01*
X20534663Y-24366500D01*
X20461628Y-24381028D01*
X20412275Y-24390845D01*
X20412273Y-24390845D01*
X20412272Y-24390846D01*
X20296983Y-24438601D01*
X20193231Y-24507926D01*
X20193224Y-24507931D01*
X16507931Y-28193224D01*
X16507926Y-28193231D01*
X16468746Y-28251869D01*
X16438600Y-28296985D01*
X16418821Y-28344735D01*
X16397269Y-28396767D01*
X16390845Y-28412275D01*
X16382920Y-28452116D01*
X16366500Y-28534663D01*
X16366500Y-34516405D01*
X16346498Y-34584526D01*
X16292842Y-34631019D01*
X16222568Y-34641123D01*
X16157988Y-34611629D01*
X16151405Y-34605500D01*
X15511016Y-33965111D01*
X15476990Y-33902799D01*
X15482055Y-33831984D01*
X15488235Y-33818052D01*
X15496523Y-33802058D01*
X15588538Y-33543153D01*
X15644442Y-33274130D01*
X15663193Y-33000000D01*
X15658140Y-32926131D01*
X15644443Y-32725883D01*
X15644442Y-32725877D01*
X15644442Y-32725870D01*
X15588538Y-32456847D01*
X15496523Y-32197942D01*
X15370111Y-31953977D01*
X15211657Y-31729498D01*
X15024111Y-31528686D01*
X14810969Y-31355282D01*
X14576200Y-31212516D01*
X14576201Y-31212516D01*
X14576197Y-31212514D01*
X14324180Y-31103048D01*
X14324178Y-31103047D01*
X14324177Y-31103047D01*
X14191886Y-31065981D01*
X14059593Y-31028914D01*
X13787395Y-30991500D01*
X13787385Y-30991500D01*
X13512615Y-30991500D01*
X13512604Y-30991500D01*
X13240406Y-31028914D01*
X12975819Y-31103048D01*
X12723802Y-31212514D01*
X12596940Y-31289661D01*
X12508722Y-31343308D01*
X12489028Y-31355284D01*
X12275886Y-31528688D01*
X12088343Y-31729498D01*
X11929892Y-31953971D01*
X11803477Y-32197941D01*
X11711462Y-32456845D01*
X11711460Y-32456853D01*
X11655557Y-32725877D01*
X11655556Y-32725883D01*
X11636807Y-32999995D01*
X11636807Y-33000000D01*
X11655556Y-33274116D01*
X11655557Y-33274122D01*
X11655558Y-33274130D01*
X11672075Y-33353614D01*
X11711460Y-33543146D01*
X11711462Y-33543154D01*
X11803408Y-33801865D01*
X11803477Y-33802058D01*
X11929754Y-34045763D01*
X11929892Y-34046028D01*
X11981296Y-34118851D01*
X12088343Y-34270502D01*
X12275889Y-34471314D01*
X12489031Y-34644718D01*
X12723800Y-34787484D01*
X12975823Y-34896953D01*
X13240404Y-34971085D01*
X13335504Y-34984156D01*
X13512604Y-35008499D01*
X13512615Y-35008500D01*
X13787385Y-35008500D01*
X13787395Y-35008499D01*
X13916945Y-34990692D01*
X14059596Y-34971085D01*
X14324177Y-34896953D01*
X14473408Y-34832131D01*
X14543856Y-34823338D01*
X14607877Y-34854028D01*
X14612701Y-34858605D01*
X15604595Y-35850499D01*
X15638621Y-35912811D01*
X15641500Y-35939594D01*
X15641500Y-48190691D01*
X15621498Y-48258812D01*
X15567842Y-48305305D01*
X15497568Y-48315409D01*
X15432988Y-48285915D01*
X15403627Y-48248659D01*
X15370111Y-48183976D01*
X15284356Y-48062490D01*
X15211657Y-47959498D01*
X15024111Y-47758686D01*
X14810969Y-47585282D01*
X14576200Y-47442516D01*
X14576201Y-47442516D01*
X14576197Y-47442514D01*
X14324180Y-47333048D01*
X14324178Y-47333047D01*
X14324177Y-47333047D01*
X14191886Y-47295981D01*
X14059593Y-47258914D01*
X13787395Y-47221500D01*
X13787385Y-47221500D01*
X13512615Y-47221500D01*
X13512604Y-47221500D01*
X13240406Y-47258914D01*
X12975819Y-47333048D01*
X12723802Y-47442514D01*
X12489028Y-47585284D01*
X12275886Y-47758688D01*
X12088343Y-47959498D01*
X11929892Y-48183971D01*
X11803477Y-48427941D01*
X11711462Y-48686845D01*
X11711460Y-48686853D01*
X11655557Y-48955877D01*
X11655556Y-48955883D01*
X11636807Y-49229995D01*
X11636807Y-49230004D01*
X11655556Y-49504116D01*
X11655557Y-49504122D01*
X11655558Y-49504130D01*
X11686217Y-49651670D01*
X11711460Y-49773146D01*
X11711462Y-49773154D01*
X11803408Y-50031865D01*
X11803477Y-50032058D01*
X11929754Y-50275763D01*
X11929892Y-50276028D01*
X11981296Y-50348851D01*
X12088343Y-50500502D01*
X12275889Y-50701314D01*
X12489031Y-50874718D01*
X12723800Y-51017484D01*
X12975823Y-51126953D01*
X13240404Y-51201085D01*
X13335504Y-51214156D01*
X13512604Y-51238499D01*
X13512615Y-51238500D01*
X13787385Y-51238500D01*
X13787395Y-51238499D01*
X13916945Y-51220692D01*
X14059596Y-51201085D01*
X14324177Y-51126953D01*
X14576200Y-51017484D01*
X14810969Y-50874718D01*
X15024111Y-50701314D01*
X15211657Y-50500502D01*
X15370111Y-50276023D01*
X15403627Y-50211337D01*
X15452725Y-50160059D01*
X15521755Y-50143463D01*
X15588799Y-50166823D01*
X15632571Y-50222720D01*
X15641500Y-50269308D01*
X15641500Y-52960691D01*
X15621498Y-53028812D01*
X15567842Y-53075305D01*
X15497568Y-53085409D01*
X15432988Y-53055915D01*
X15403627Y-53018659D01*
X15370111Y-52953976D01*
X15284968Y-52833356D01*
X15211657Y-52729498D01*
X15024111Y-52528686D01*
X14810969Y-52355282D01*
X14576200Y-52212516D01*
X14576201Y-52212516D01*
X14576197Y-52212514D01*
X14324180Y-52103048D01*
X14324178Y-52103047D01*
X14324177Y-52103047D01*
X14191886Y-52065981D01*
X14059593Y-52028914D01*
X13787395Y-51991500D01*
X13787385Y-51991500D01*
X13512615Y-51991500D01*
X13512604Y-51991500D01*
X13240406Y-52028914D01*
X12975819Y-52103048D01*
X12723802Y-52212514D01*
X12489028Y-52355284D01*
X12275886Y-52528688D01*
X12088343Y-52729498D01*
X11929892Y-52953971D01*
X11803477Y-53197941D01*
X11711462Y-53456845D01*
X11711460Y-53456853D01*
X11676599Y-53624614D01*
X11655636Y-53725499D01*
X11655557Y-53725877D01*
X11655556Y-53725883D01*
X11636807Y-53999995D01*
X11636807Y-54000004D01*
X11655556Y-54274116D01*
X11655557Y-54274122D01*
X11655558Y-54274130D01*
X11672417Y-54355258D01*
X11711460Y-54543146D01*
X11711462Y-54543154D01*
X11803408Y-54801865D01*
X11803477Y-54802058D01*
X11929754Y-55045763D01*
X11929892Y-55046028D01*
X11980684Y-55117984D01*
X12088343Y-55270502D01*
X12275889Y-55471314D01*
X12489031Y-55644718D01*
X12723800Y-55787484D01*
X12975823Y-55896953D01*
X13240404Y-55971085D01*
X13334905Y-55984074D01*
X13512604Y-56008499D01*
X13512615Y-56008500D01*
X13787385Y-56008500D01*
X13787395Y-56008499D01*
X13916945Y-55990692D01*
X14059596Y-55971085D01*
X14324177Y-55896953D01*
X14576200Y-55787484D01*
X14810969Y-55644718D01*
X15024111Y-55471314D01*
X15211657Y-55270502D01*
X15370111Y-55046023D01*
X15430865Y-54928771D01*
X15479963Y-54877491D01*
X15548993Y-54860895D01*
X15616037Y-54884254D01*
X15659809Y-54940152D01*
X15663882Y-54953922D01*
X15664051Y-54953871D01*
X15665843Y-54959780D01*
X15665844Y-54959784D01*
X15665845Y-54959785D01*
X15713600Y-55075075D01*
X15782929Y-55178833D01*
X16391133Y-55787038D01*
X16552878Y-55948783D01*
X16586903Y-56011095D01*
X16589092Y-56024707D01*
X16606457Y-56189927D01*
X16612644Y-56208967D01*
X16665473Y-56371556D01*
X16665476Y-56371561D01*
X16760958Y-56536941D01*
X16760965Y-56536951D01*
X16888744Y-56678864D01*
X16888747Y-56678866D01*
X17043248Y-56791118D01*
X17217712Y-56868794D01*
X17404513Y-56908500D01*
X17595487Y-56908500D01*
X17782288Y-56868794D01*
X17956752Y-56791118D01*
X18111253Y-56678866D01*
X18129162Y-56658975D01*
X18189606Y-56621737D01*
X18260589Y-56623088D01*
X18311892Y-56654192D01*
X21879595Y-60221895D01*
X21913621Y-60284207D01*
X21916500Y-60310990D01*
X21916500Y-61612396D01*
X21924949Y-61654872D01*
X21940845Y-61734785D01*
X21988600Y-61850075D01*
X22057929Y-61953833D01*
X30826167Y-70722072D01*
X30929925Y-70791401D01*
X31011447Y-70825168D01*
X31045215Y-70839155D01*
X31167606Y-70863500D01*
X31167607Y-70863500D01*
X31292394Y-70863500D01*
X38004631Y-70863500D01*
X38072752Y-70883502D01*
X38119245Y-70937158D01*
X38123352Y-70947295D01*
X38153477Y-71032058D01*
X38279754Y-71275763D01*
X38279892Y-71276028D01*
X38347797Y-71372227D01*
X38438343Y-71500502D01*
X38625889Y-71701314D01*
X38839031Y-71874718D01*
X39073800Y-72017484D01*
X39325823Y-72126953D01*
X39590404Y-72201085D01*
X39685504Y-72214156D01*
X39862604Y-72238499D01*
X39862615Y-72238500D01*
X40137385Y-72238500D01*
X40137395Y-72238499D01*
X40266945Y-72220692D01*
X40409596Y-72201085D01*
X40674177Y-72126953D01*
X40926200Y-72017484D01*
X41160969Y-71874718D01*
X41374111Y-71701314D01*
X41561657Y-71500502D01*
X41720111Y-71276023D01*
X41846523Y-71032058D01*
X41938538Y-70773153D01*
X41994442Y-70504130D01*
X42013193Y-70230000D01*
X42013193Y-70229995D01*
X44336807Y-70229995D01*
X44336807Y-70230004D01*
X44355556Y-70504116D01*
X44355557Y-70504122D01*
X44355558Y-70504130D01*
X44372417Y-70585258D01*
X44411460Y-70773146D01*
X44411462Y-70773154D01*
X44503408Y-71031865D01*
X44503477Y-71032058D01*
X44629754Y-71275763D01*
X44629892Y-71276028D01*
X44697797Y-71372227D01*
X44788343Y-71500502D01*
X44975889Y-71701314D01*
X45189031Y-71874718D01*
X45423800Y-72017484D01*
X45675823Y-72126953D01*
X45940404Y-72201085D01*
X46035504Y-72214156D01*
X46212604Y-72238499D01*
X46212615Y-72238500D01*
X46487385Y-72238500D01*
X46487395Y-72238499D01*
X46616945Y-72220692D01*
X46759596Y-72201085D01*
X47024177Y-72126953D01*
X47276200Y-72017484D01*
X47510969Y-71874718D01*
X47724111Y-71701314D01*
X47911657Y-71500502D01*
X48070111Y-71276023D01*
X48196523Y-71032058D01*
X48288538Y-70773153D01*
X48344442Y-70504130D01*
X48363193Y-70230000D01*
X48363193Y-70229995D01*
X50687308Y-70229995D01*
X50687308Y-70230004D01*
X50706052Y-70504048D01*
X50706053Y-70504054D01*
X50761942Y-70773011D01*
X50761944Y-70773019D01*
X50853938Y-71031865D01*
X50980317Y-71275763D01*
X51110540Y-71460248D01*
X52020764Y-70550024D01*
X52035359Y-70585258D01*
X52117437Y-70708097D01*
X52221903Y-70812563D01*
X52344742Y-70894641D01*
X52379974Y-70909234D01*
X51470714Y-71818494D01*
X51539325Y-71874312D01*
X51774030Y-72017038D01*
X52025989Y-72126480D01*
X52290509Y-72200595D01*
X52562635Y-72237999D01*
X52562649Y-72238000D01*
X52837351Y-72238000D01*
X52837364Y-72237999D01*
X53109490Y-72200595D01*
X53374010Y-72126480D01*
X53625969Y-72017038D01*
X53860680Y-71874308D01*
X53929283Y-71818495D01*
X53020024Y-70909235D01*
X53055258Y-70894641D01*
X53178097Y-70812563D01*
X53282563Y-70708097D01*
X53364641Y-70585258D01*
X53379235Y-70550025D01*
X54289458Y-71460248D01*
X54419683Y-71275759D01*
X54419685Y-71275756D01*
X54546061Y-71031865D01*
X54638055Y-70773019D01*
X54638057Y-70773011D01*
X54693946Y-70504054D01*
X54693947Y-70504048D01*
X54712692Y-70230004D01*
X54712692Y-70229995D01*
X54693947Y-69955951D01*
X54693946Y-69955945D01*
X54638057Y-69686988D01*
X54638055Y-69686980D01*
X54546061Y-69428134D01*
X54419682Y-69184236D01*
X54289458Y-68999750D01*
X53379234Y-69909974D01*
X53364641Y-69874742D01*
X53282563Y-69751903D01*
X53178097Y-69647437D01*
X53055258Y-69565359D01*
X53020024Y-69550764D01*
X53929284Y-68641505D01*
X53929283Y-68641503D01*
X53860678Y-68585689D01*
X53625969Y-68442961D01*
X53374010Y-68333519D01*
X53109490Y-68259404D01*
X52837364Y-68222000D01*
X52562635Y-68222000D01*
X52290509Y-68259404D01*
X52025989Y-68333519D01*
X51774030Y-68442961D01*
X51539324Y-68585687D01*
X51470714Y-68641504D01*
X52379974Y-69550764D01*
X52344742Y-69565359D01*
X52221903Y-69647437D01*
X52117437Y-69751903D01*
X52035359Y-69874742D01*
X52020764Y-69909974D01*
X51110541Y-68999751D01*
X51110540Y-68999751D01*
X50980317Y-69184236D01*
X50853938Y-69428134D01*
X50761944Y-69686980D01*
X50761942Y-69686988D01*
X50706053Y-69955945D01*
X50706052Y-69955951D01*
X50687308Y-70229995D01*
X48363193Y-70229995D01*
X48358140Y-70156131D01*
X48344443Y-69955883D01*
X48344442Y-69955877D01*
X48344442Y-69955870D01*
X48288538Y-69686847D01*
X48196523Y-69427942D01*
X48070111Y-69183977D01*
X47911657Y-68959498D01*
X47724111Y-68758686D01*
X47510969Y-68585282D01*
X47276200Y-68442516D01*
X47276201Y-68442516D01*
X47276197Y-68442514D01*
X47024180Y-68333048D01*
X47024178Y-68333047D01*
X47024177Y-68333047D01*
X46891886Y-68295981D01*
X46759593Y-68258914D01*
X46487395Y-68221500D01*
X46487385Y-68221500D01*
X46212615Y-68221500D01*
X46212604Y-68221500D01*
X45940406Y-68258914D01*
X45675819Y-68333048D01*
X45423802Y-68442514D01*
X45189028Y-68585284D01*
X44975886Y-68758688D01*
X44788343Y-68959498D01*
X44629892Y-69183971D01*
X44503477Y-69427941D01*
X44411462Y-69686845D01*
X44411460Y-69686853D01*
X44355557Y-69955877D01*
X44355556Y-69955883D01*
X44336807Y-70229995D01*
X42013193Y-70229995D01*
X42008140Y-70156131D01*
X41994443Y-69955883D01*
X41994442Y-69955877D01*
X41994442Y-69955870D01*
X41938538Y-69686847D01*
X41846523Y-69427942D01*
X41720111Y-69183977D01*
X41561657Y-68959498D01*
X41374111Y-68758686D01*
X41160969Y-68585282D01*
X40926200Y-68442516D01*
X40926201Y-68442516D01*
X40926197Y-68442514D01*
X40674180Y-68333048D01*
X40674178Y-68333047D01*
X40674177Y-68333047D01*
X40541886Y-68295981D01*
X40409593Y-68258914D01*
X40137395Y-68221500D01*
X40137385Y-68221500D01*
X39862615Y-68221500D01*
X39862604Y-68221500D01*
X39590406Y-68258914D01*
X39325819Y-68333048D01*
X39073802Y-68442514D01*
X38839028Y-68585284D01*
X38625886Y-68758688D01*
X38438343Y-68959498D01*
X38279892Y-69183971D01*
X38153477Y-69427941D01*
X38140363Y-69464838D01*
X38134976Y-69480000D01*
X38123356Y-69512695D01*
X38081696Y-69570184D01*
X38015569Y-69596024D01*
X38004631Y-69596500D01*
X31544595Y-69596500D01*
X31476474Y-69576498D01*
X31455500Y-69559595D01*
X26469498Y-64573594D01*
X26435472Y-64511282D01*
X26440537Y-64440467D01*
X26483084Y-64383631D01*
X26549604Y-64358820D01*
X26558593Y-64358499D01*
X26840544Y-64358499D01*
X26944426Y-64347887D01*
X27112738Y-64292115D01*
X27263652Y-64199030D01*
X27389030Y-64073652D01*
X27482115Y-63922738D01*
X27482118Y-63922728D01*
X27485217Y-63916086D01*
X27487126Y-63916976D01*
X27521581Y-63867200D01*
X27587135Y-63839936D01*
X27657021Y-63852442D01*
X27693483Y-63879857D01*
X27732959Y-63922738D01*
X27806760Y-64002906D01*
X27984424Y-64141189D01*
X28182426Y-64248342D01*
X28182427Y-64248342D01*
X28182428Y-64248343D01*
X28244325Y-64269592D01*
X28395365Y-64321444D01*
X28617431Y-64358500D01*
X28617435Y-64358500D01*
X28842565Y-64358500D01*
X28842569Y-64358500D01*
X29064635Y-64321444D01*
X29064651Y-64321438D01*
X29067751Y-64320654D01*
X29069072Y-64320703D01*
X29069777Y-64320586D01*
X29069801Y-64320730D01*
X29138698Y-64323311D01*
X29187795Y-64353699D01*
X30326167Y-65492071D01*
X30429925Y-65561400D01*
X30545215Y-65609155D01*
X30667606Y-65633500D01*
X30667607Y-65633500D01*
X37087698Y-65633500D01*
X37087699Y-65633500D01*
X37210090Y-65609155D01*
X37325380Y-65561400D01*
X37429138Y-65492071D01*
X42504724Y-60416486D01*
X43992071Y-58929139D01*
X44061400Y-58825381D01*
X44109155Y-58710091D01*
X44133500Y-58587700D01*
X44133500Y-58462913D01*
X44133500Y-54428715D01*
X44153502Y-54360594D01*
X44207158Y-54314101D01*
X44277432Y-54303997D01*
X44342012Y-54333491D01*
X44380396Y-54393217D01*
X44382865Y-54403080D01*
X44411942Y-54543011D01*
X44411944Y-54543019D01*
X44503938Y-54801865D01*
X44630317Y-55045763D01*
X44760540Y-55230248D01*
X45670764Y-54320024D01*
X45685359Y-54355258D01*
X45767437Y-54478097D01*
X45871903Y-54582563D01*
X45994742Y-54664641D01*
X46029974Y-54679234D01*
X45120714Y-55588494D01*
X45189325Y-55644312D01*
X45424030Y-55787038D01*
X45675989Y-55896480D01*
X45940509Y-55970595D01*
X46212635Y-56007999D01*
X46212649Y-56008000D01*
X46487351Y-56008000D01*
X46487364Y-56007999D01*
X46759490Y-55970595D01*
X47024010Y-55896480D01*
X47275969Y-55787038D01*
X47510680Y-55644308D01*
X47579283Y-55588495D01*
X46670024Y-54679235D01*
X46705258Y-54664641D01*
X46828097Y-54582563D01*
X46932563Y-54478097D01*
X47014641Y-54355258D01*
X47029235Y-54320025D01*
X47939458Y-55230248D01*
X48069683Y-55045759D01*
X48069685Y-55045756D01*
X48196061Y-54801865D01*
X48288055Y-54543019D01*
X48288057Y-54543011D01*
X48343946Y-54274054D01*
X48343947Y-54274048D01*
X48362692Y-54000004D01*
X48362692Y-53999995D01*
X50687308Y-53999995D01*
X50687308Y-54000004D01*
X50706052Y-54274048D01*
X50706053Y-54274054D01*
X50761942Y-54543011D01*
X50761944Y-54543019D01*
X50853938Y-54801865D01*
X50980317Y-55045763D01*
X51110540Y-55230248D01*
X52020764Y-54320024D01*
X52035359Y-54355258D01*
X52117437Y-54478097D01*
X52221903Y-54582563D01*
X52344742Y-54664641D01*
X52379974Y-54679234D01*
X51470714Y-55588494D01*
X51539325Y-55644312D01*
X51774030Y-55787038D01*
X52025989Y-55896480D01*
X52290509Y-55970595D01*
X52562635Y-56007999D01*
X52562649Y-56008000D01*
X52837351Y-56008000D01*
X52837364Y-56007999D01*
X53109490Y-55970595D01*
X53374010Y-55896480D01*
X53625969Y-55787038D01*
X53860680Y-55644308D01*
X53929283Y-55588495D01*
X53020024Y-54679235D01*
X53055258Y-54664641D01*
X53178097Y-54582563D01*
X53282563Y-54478097D01*
X53364641Y-54355258D01*
X53379235Y-54320025D01*
X54289458Y-55230248D01*
X54419683Y-55045759D01*
X54419685Y-55045756D01*
X54546061Y-54801865D01*
X54638055Y-54543019D01*
X54638057Y-54543011D01*
X54693946Y-54274054D01*
X54693947Y-54274048D01*
X54712692Y-54000004D01*
X54712692Y-53999995D01*
X54693947Y-53725951D01*
X54693946Y-53725945D01*
X54638057Y-53456988D01*
X54638055Y-53456980D01*
X54546061Y-53198134D01*
X54419682Y-52954236D01*
X54289458Y-52769750D01*
X53379234Y-53679974D01*
X53364641Y-53644742D01*
X53282563Y-53521903D01*
X53178097Y-53417437D01*
X53055258Y-53335359D01*
X53020024Y-53320764D01*
X53929284Y-52411505D01*
X53929283Y-52411503D01*
X53860678Y-52355689D01*
X53625969Y-52212961D01*
X53374010Y-52103519D01*
X53109490Y-52029404D01*
X52837364Y-51992000D01*
X52562635Y-51992000D01*
X52290509Y-52029404D01*
X52025989Y-52103519D01*
X51774030Y-52212961D01*
X51539324Y-52355687D01*
X51470714Y-52411504D01*
X52379974Y-53320764D01*
X52344742Y-53335359D01*
X52221903Y-53417437D01*
X52117437Y-53521903D01*
X52035359Y-53644742D01*
X52020764Y-53679974D01*
X51110541Y-52769751D01*
X51110540Y-52769751D01*
X50980317Y-52954236D01*
X50853938Y-53198134D01*
X50761944Y-53456980D01*
X50761942Y-53456988D01*
X50706053Y-53725945D01*
X50706052Y-53725951D01*
X50687308Y-53999995D01*
X48362692Y-53999995D01*
X48343947Y-53725951D01*
X48343946Y-53725945D01*
X48288057Y-53456988D01*
X48288055Y-53456980D01*
X48196061Y-53198134D01*
X48069682Y-52954236D01*
X47939458Y-52769750D01*
X47029234Y-53679974D01*
X47014641Y-53644742D01*
X46932563Y-53521903D01*
X46828097Y-53417437D01*
X46705258Y-53335359D01*
X46670024Y-53320764D01*
X47579284Y-52411505D01*
X47579283Y-52411503D01*
X47510678Y-52355689D01*
X47275969Y-52212961D01*
X47024010Y-52103519D01*
X46759490Y-52029404D01*
X46487364Y-51992000D01*
X46212635Y-51992000D01*
X45940509Y-52029404D01*
X45675989Y-52103519D01*
X45424030Y-52212961D01*
X45189324Y-52355687D01*
X45120714Y-52411504D01*
X46029974Y-53320764D01*
X45994742Y-53335359D01*
X45871903Y-53417437D01*
X45767437Y-53521903D01*
X45685359Y-53644742D01*
X45670764Y-53679974D01*
X44760541Y-52769751D01*
X44760540Y-52769751D01*
X44630317Y-52954236D01*
X44503938Y-53198134D01*
X44411944Y-53456980D01*
X44411942Y-53456988D01*
X44382865Y-53596919D01*
X44349421Y-53659546D01*
X44287429Y-53694150D01*
X44216569Y-53689745D01*
X44159339Y-53647729D01*
X44133910Y-53581443D01*
X44133500Y-53571284D01*
X44133500Y-49661170D01*
X44153502Y-49593049D01*
X44207158Y-49546556D01*
X44277432Y-49536452D01*
X44342012Y-49565946D01*
X44380396Y-49625672D01*
X44382861Y-49635522D01*
X44388192Y-49661170D01*
X44411460Y-49773146D01*
X44411462Y-49773154D01*
X44503408Y-50031865D01*
X44503477Y-50032058D01*
X44629754Y-50275763D01*
X44629892Y-50276028D01*
X44681296Y-50348851D01*
X44788343Y-50500502D01*
X44975889Y-50701314D01*
X45189031Y-50874718D01*
X45423800Y-51017484D01*
X45675823Y-51126953D01*
X45940404Y-51201085D01*
X46035504Y-51214156D01*
X46212604Y-51238499D01*
X46212615Y-51238500D01*
X46487385Y-51238500D01*
X46487395Y-51238499D01*
X46616945Y-51220692D01*
X46759596Y-51201085D01*
X47024177Y-51126953D01*
X47276200Y-51017484D01*
X47510969Y-50874718D01*
X47724111Y-50701314D01*
X47911657Y-50500502D01*
X48070111Y-50276023D01*
X48196523Y-50032058D01*
X48288538Y-49773153D01*
X48344442Y-49504130D01*
X48352317Y-49389000D01*
X48363193Y-49230004D01*
X48363193Y-49229995D01*
X50687308Y-49229995D01*
X50687308Y-49230004D01*
X50706052Y-49504048D01*
X50706053Y-49504054D01*
X50761942Y-49773011D01*
X50761944Y-49773019D01*
X50853938Y-50031865D01*
X50980317Y-50275763D01*
X51110540Y-50460248D01*
X52020764Y-49550024D01*
X52035359Y-49585258D01*
X52117437Y-49708097D01*
X52221903Y-49812563D01*
X52344742Y-49894641D01*
X52379974Y-49909234D01*
X51470714Y-50818494D01*
X51539325Y-50874312D01*
X51774030Y-51017038D01*
X52025989Y-51126480D01*
X52290509Y-51200595D01*
X52562635Y-51237999D01*
X52562649Y-51238000D01*
X52837351Y-51238000D01*
X52837364Y-51237999D01*
X53109490Y-51200595D01*
X53374010Y-51126480D01*
X53625969Y-51017038D01*
X53860680Y-50874308D01*
X53929283Y-50818495D01*
X53020024Y-49909235D01*
X53055258Y-49894641D01*
X53178097Y-49812563D01*
X53282563Y-49708097D01*
X53364641Y-49585258D01*
X53379235Y-49550025D01*
X54289458Y-50460248D01*
X54419683Y-50275759D01*
X54419685Y-50275756D01*
X54546061Y-50031865D01*
X54638055Y-49773019D01*
X54638057Y-49773011D01*
X54693946Y-49504054D01*
X54693947Y-49504048D01*
X54712692Y-49230004D01*
X54712692Y-49229995D01*
X54693947Y-48955951D01*
X54693946Y-48955945D01*
X54638057Y-48686988D01*
X54638055Y-48686980D01*
X54546061Y-48428134D01*
X54419682Y-48184236D01*
X54289458Y-47999750D01*
X53379234Y-48909974D01*
X53364641Y-48874742D01*
X53282563Y-48751903D01*
X53178097Y-48647437D01*
X53055258Y-48565359D01*
X53020024Y-48550764D01*
X53929284Y-47641505D01*
X53929283Y-47641503D01*
X53860678Y-47585689D01*
X53625969Y-47442961D01*
X53374010Y-47333519D01*
X53109490Y-47259404D01*
X52837364Y-47222000D01*
X52562635Y-47222000D01*
X52290509Y-47259404D01*
X52025989Y-47333519D01*
X51774030Y-47442961D01*
X51539324Y-47585687D01*
X51470714Y-47641504D01*
X52379974Y-48550764D01*
X52344742Y-48565359D01*
X52221903Y-48647437D01*
X52117437Y-48751903D01*
X52035359Y-48874742D01*
X52020764Y-48909974D01*
X51110541Y-47999751D01*
X51110540Y-47999751D01*
X50980317Y-48184236D01*
X50853938Y-48428134D01*
X50761944Y-48686980D01*
X50761942Y-48686988D01*
X50706053Y-48955945D01*
X50706052Y-48955951D01*
X50687308Y-49229995D01*
X48363193Y-49229995D01*
X48344443Y-48955883D01*
X48344442Y-48955877D01*
X48344442Y-48955870D01*
X48288538Y-48686847D01*
X48196523Y-48427942D01*
X48070111Y-48183977D01*
X47911657Y-47959498D01*
X47724111Y-47758686D01*
X47510969Y-47585282D01*
X47276200Y-47442516D01*
X47276201Y-47442516D01*
X47276197Y-47442514D01*
X47024180Y-47333048D01*
X47024178Y-47333047D01*
X47024177Y-47333047D01*
X46891886Y-47295981D01*
X46759593Y-47258914D01*
X46487395Y-47221500D01*
X46487385Y-47221500D01*
X46212615Y-47221500D01*
X46212604Y-47221500D01*
X45940406Y-47258914D01*
X45675819Y-47333048D01*
X45423802Y-47442514D01*
X45189028Y-47585284D01*
X44975886Y-47758688D01*
X44788343Y-47959498D01*
X44629892Y-48183971D01*
X44503477Y-48427941D01*
X44411462Y-48686845D01*
X44411460Y-48686853D01*
X44382865Y-48824464D01*
X44349421Y-48887091D01*
X44287429Y-48921695D01*
X44216569Y-48917290D01*
X44159339Y-48875274D01*
X44133910Y-48808988D01*
X44133500Y-48798829D01*
X44133500Y-45702524D01*
X44153502Y-45634403D01*
X44165858Y-45618220D01*
X44239040Y-45536944D01*
X44334527Y-45371556D01*
X44393542Y-45189928D01*
X44413504Y-45000000D01*
X44393542Y-44810072D01*
X44334527Y-44628444D01*
X44239040Y-44463056D01*
X44239038Y-44463054D01*
X44239034Y-44463048D01*
X44111255Y-44321135D01*
X43956752Y-44208882D01*
X43782288Y-44131206D01*
X43595487Y-44091500D01*
X43404513Y-44091500D01*
X43285697Y-44116755D01*
X43214906Y-44111353D01*
X43158274Y-44068536D01*
X43133780Y-44001898D01*
X43133500Y-43993508D01*
X43133500Y-32999995D01*
X44336807Y-32999995D01*
X44336807Y-33000000D01*
X44355556Y-33274116D01*
X44355557Y-33274122D01*
X44355558Y-33274130D01*
X44372075Y-33353614D01*
X44411460Y-33543146D01*
X44411462Y-33543154D01*
X44503408Y-33801865D01*
X44503477Y-33802058D01*
X44629754Y-34045763D01*
X44629892Y-34046028D01*
X44681296Y-34118851D01*
X44788343Y-34270502D01*
X44975889Y-34471314D01*
X45189031Y-34644718D01*
X45423800Y-34787484D01*
X45675823Y-34896953D01*
X45940404Y-34971085D01*
X46035504Y-34984156D01*
X46212604Y-35008499D01*
X46212615Y-35008500D01*
X46487385Y-35008500D01*
X46487395Y-35008499D01*
X46616945Y-34990692D01*
X46759596Y-34971085D01*
X47024177Y-34896953D01*
X47276200Y-34787484D01*
X47510969Y-34644718D01*
X47724111Y-34471314D01*
X47911657Y-34270502D01*
X48070111Y-34046023D01*
X48196523Y-33802058D01*
X48288538Y-33543153D01*
X48344442Y-33274130D01*
X48363193Y-33000000D01*
X48363193Y-32999995D01*
X50687308Y-32999995D01*
X50687308Y-33000000D01*
X50706052Y-33274048D01*
X50706053Y-33274054D01*
X50761942Y-33543011D01*
X50761944Y-33543019D01*
X50853938Y-33801865D01*
X50980317Y-34045763D01*
X51110540Y-34230248D01*
X52020764Y-33320024D01*
X52035359Y-33355258D01*
X52117437Y-33478097D01*
X52221903Y-33582563D01*
X52344742Y-33664641D01*
X52379974Y-33679234D01*
X51470714Y-34588494D01*
X51539325Y-34644312D01*
X51774030Y-34787038D01*
X52025989Y-34896480D01*
X52290509Y-34970595D01*
X52562635Y-35007999D01*
X52562649Y-35008000D01*
X52837351Y-35008000D01*
X52837364Y-35007999D01*
X53109490Y-34970595D01*
X53374010Y-34896480D01*
X53625969Y-34787038D01*
X53860680Y-34644308D01*
X53929283Y-34588495D01*
X53020024Y-33679235D01*
X53055258Y-33664641D01*
X53178097Y-33582563D01*
X53282563Y-33478097D01*
X53364641Y-33355258D01*
X53379235Y-33320025D01*
X54289458Y-34230248D01*
X54419683Y-34045759D01*
X54419685Y-34045756D01*
X54546061Y-33801865D01*
X54638055Y-33543019D01*
X54638057Y-33543011D01*
X54693946Y-33274054D01*
X54693947Y-33274048D01*
X54712692Y-33000000D01*
X54712692Y-32999995D01*
X54693947Y-32725951D01*
X54693946Y-32725945D01*
X54638057Y-32456988D01*
X54638055Y-32456980D01*
X54546061Y-32198134D01*
X54419682Y-31954236D01*
X54289458Y-31769750D01*
X53379234Y-32679974D01*
X53364641Y-32644742D01*
X53282563Y-32521903D01*
X53178097Y-32417437D01*
X53055258Y-32335359D01*
X53020024Y-32320764D01*
X53929284Y-31411505D01*
X53929283Y-31411503D01*
X53860678Y-31355689D01*
X53625969Y-31212961D01*
X53374010Y-31103519D01*
X53109490Y-31029404D01*
X52837364Y-30992000D01*
X52562635Y-30992000D01*
X52290509Y-31029404D01*
X52025989Y-31103519D01*
X51774030Y-31212961D01*
X51539324Y-31355687D01*
X51470714Y-31411504D01*
X52379974Y-32320764D01*
X52344742Y-32335359D01*
X52221903Y-32417437D01*
X52117437Y-32521903D01*
X52035359Y-32644742D01*
X52020764Y-32679974D01*
X51110541Y-31769751D01*
X51110540Y-31769751D01*
X50980317Y-31954236D01*
X50853938Y-32198134D01*
X50761944Y-32456980D01*
X50761942Y-32456988D01*
X50706053Y-32725945D01*
X50706052Y-32725951D01*
X50687308Y-32999995D01*
X48363193Y-32999995D01*
X48358140Y-32926131D01*
X48344443Y-32725883D01*
X48344442Y-32725877D01*
X48344442Y-32725870D01*
X48288538Y-32456847D01*
X48196523Y-32197942D01*
X48070111Y-31953977D01*
X47911657Y-31729498D01*
X47724111Y-31528686D01*
X47510969Y-31355282D01*
X47276200Y-31212516D01*
X47276201Y-31212516D01*
X47276197Y-31212514D01*
X47024180Y-31103048D01*
X47024178Y-31103047D01*
X47024177Y-31103047D01*
X46891886Y-31065981D01*
X46759593Y-31028914D01*
X46487395Y-30991500D01*
X46487385Y-30991500D01*
X46212615Y-30991500D01*
X46212604Y-30991500D01*
X45940406Y-31028914D01*
X45675819Y-31103048D01*
X45423802Y-31212514D01*
X45296940Y-31289661D01*
X45208722Y-31343308D01*
X45189028Y-31355284D01*
X44975886Y-31528688D01*
X44788343Y-31729498D01*
X44629892Y-31953971D01*
X44503477Y-32197941D01*
X44411462Y-32456845D01*
X44411460Y-32456853D01*
X44355557Y-32725877D01*
X44355556Y-32725883D01*
X44336807Y-32999995D01*
X43133500Y-32999995D01*
X43133500Y-30615607D01*
X43133499Y-30615603D01*
X43132654Y-30611353D01*
X43109155Y-30493215D01*
X43061400Y-30377925D01*
X42992071Y-30274167D01*
X42903833Y-30185929D01*
X41861016Y-29143112D01*
X41826990Y-29080800D01*
X41832055Y-29009985D01*
X41838238Y-28996048D01*
X41846520Y-28980064D01*
X41846520Y-28980063D01*
X41846523Y-28980058D01*
X41938538Y-28721153D01*
X41994442Y-28452130D01*
X42005054Y-28296985D01*
X42013193Y-28178004D01*
X42013193Y-28177995D01*
X44336807Y-28177995D01*
X44336807Y-28178004D01*
X44355556Y-28452116D01*
X44355557Y-28452122D01*
X44355558Y-28452130D01*
X44373238Y-28537210D01*
X44411460Y-28721146D01*
X44411462Y-28721154D01*
X44503408Y-28979865D01*
X44503477Y-28980058D01*
X44629754Y-29223763D01*
X44629892Y-29224028D01*
X44695385Y-29316810D01*
X44788343Y-29448502D01*
X44975889Y-29649314D01*
X45189031Y-29822718D01*
X45423800Y-29965484D01*
X45675823Y-30074953D01*
X45940404Y-30149085D01*
X46035504Y-30162156D01*
X46212604Y-30186499D01*
X46212615Y-30186500D01*
X46487385Y-30186500D01*
X46487395Y-30186499D01*
X46616945Y-30168692D01*
X46759596Y-30149085D01*
X47024177Y-30074953D01*
X47276200Y-29965484D01*
X47510969Y-29822718D01*
X47724111Y-29649314D01*
X47911657Y-29448502D01*
X48070111Y-29224023D01*
X48196523Y-28980058D01*
X48288538Y-28721153D01*
X48344442Y-28452130D01*
X48355054Y-28296985D01*
X48363193Y-28178004D01*
X48363193Y-28177995D01*
X50687308Y-28177995D01*
X50687308Y-28178004D01*
X50706052Y-28452048D01*
X50706053Y-28452054D01*
X50761942Y-28721011D01*
X50761944Y-28721019D01*
X50853938Y-28979865D01*
X50980317Y-29223763D01*
X51110540Y-29408248D01*
X52020764Y-28498024D01*
X52035359Y-28533258D01*
X52117437Y-28656097D01*
X52221903Y-28760563D01*
X52344742Y-28842641D01*
X52379974Y-28857234D01*
X51470714Y-29766494D01*
X51539325Y-29822312D01*
X51774030Y-29965038D01*
X52025989Y-30074480D01*
X52290509Y-30148595D01*
X52562635Y-30185999D01*
X52562649Y-30186000D01*
X52837351Y-30186000D01*
X52837364Y-30185999D01*
X53109490Y-30148595D01*
X53374010Y-30074480D01*
X53625969Y-29965038D01*
X53860680Y-29822308D01*
X53929283Y-29766495D01*
X53020024Y-28857235D01*
X53055258Y-28842641D01*
X53178097Y-28760563D01*
X53282563Y-28656097D01*
X53364641Y-28533258D01*
X53379235Y-28498025D01*
X54289458Y-29408248D01*
X54419683Y-29223759D01*
X54419685Y-29223756D01*
X54546061Y-28979865D01*
X54638055Y-28721019D01*
X54638057Y-28721011D01*
X54693946Y-28452054D01*
X54693947Y-28452048D01*
X54712692Y-28178004D01*
X54712692Y-28177995D01*
X54693947Y-27903951D01*
X54693946Y-27903945D01*
X54638057Y-27634988D01*
X54638055Y-27634980D01*
X54546061Y-27376134D01*
X54419682Y-27132236D01*
X54289458Y-26947750D01*
X53379234Y-27857974D01*
X53364641Y-27822742D01*
X53282563Y-27699903D01*
X53178097Y-27595437D01*
X53055258Y-27513359D01*
X53020024Y-27498764D01*
X53929284Y-26589505D01*
X53929283Y-26589503D01*
X53860678Y-26533689D01*
X53625969Y-26390961D01*
X53374010Y-26281519D01*
X53109490Y-26207404D01*
X52837364Y-26170000D01*
X52562635Y-26170000D01*
X52290509Y-26207404D01*
X52025989Y-26281519D01*
X51774030Y-26390961D01*
X51539324Y-26533687D01*
X51470714Y-26589504D01*
X52379974Y-27498764D01*
X52344742Y-27513359D01*
X52221903Y-27595437D01*
X52117437Y-27699903D01*
X52035359Y-27822742D01*
X52020764Y-27857974D01*
X51110541Y-26947751D01*
X51110540Y-26947751D01*
X50980317Y-27132236D01*
X50853938Y-27376134D01*
X50761944Y-27634980D01*
X50761942Y-27634988D01*
X50706053Y-27903945D01*
X50706052Y-27903951D01*
X50687308Y-28177995D01*
X48363193Y-28177995D01*
X48344443Y-27903883D01*
X48344442Y-27903877D01*
X48344442Y-27903870D01*
X48288538Y-27634847D01*
X48196523Y-27375942D01*
X48070111Y-27131977D01*
X47911657Y-26907498D01*
X47724111Y-26706686D01*
X47510969Y-26533282D01*
X47276200Y-26390516D01*
X47276201Y-26390516D01*
X47276197Y-26390514D01*
X47024180Y-26281048D01*
X47024178Y-26281047D01*
X47024177Y-26281047D01*
X46870494Y-26237987D01*
X46759593Y-26206914D01*
X46487395Y-26169500D01*
X46487385Y-26169500D01*
X46212615Y-26169500D01*
X46212604Y-26169500D01*
X45940406Y-26206914D01*
X45675819Y-26281048D01*
X45423802Y-26390514D01*
X45189028Y-26533284D01*
X44975886Y-26706688D01*
X44788343Y-26907498D01*
X44629892Y-27131971D01*
X44503477Y-27375941D01*
X44411462Y-27634845D01*
X44411460Y-27634853D01*
X44385766Y-27758500D01*
X44364249Y-27862050D01*
X44355557Y-27903877D01*
X44355556Y-27903883D01*
X44336807Y-28177995D01*
X42013193Y-28177995D01*
X41994443Y-27903883D01*
X41994442Y-27903877D01*
X41994442Y-27903870D01*
X41938538Y-27634847D01*
X41846523Y-27375942D01*
X41720111Y-27131977D01*
X41561657Y-26907498D01*
X41374111Y-26706686D01*
X41160969Y-26533282D01*
X40926200Y-26390516D01*
X40926201Y-26390516D01*
X40926197Y-26390514D01*
X40674180Y-26281048D01*
X40674178Y-26281047D01*
X40674177Y-26281047D01*
X40520494Y-26237987D01*
X40409593Y-26206914D01*
X40137395Y-26169500D01*
X40137385Y-26169500D01*
X39862615Y-26169500D01*
X39862604Y-26169500D01*
X39590406Y-26206914D01*
X39325819Y-26281048D01*
X39073802Y-26390514D01*
X38839028Y-26533284D01*
X38625886Y-26706688D01*
X38438343Y-26907498D01*
X38279892Y-27131971D01*
X38153477Y-27375941D01*
X38061462Y-27634845D01*
X38061460Y-27634853D01*
X38035766Y-27758500D01*
X38014249Y-27862050D01*
X38005557Y-27903877D01*
X38005556Y-27903883D01*
X37986807Y-28177995D01*
X37986807Y-28178004D01*
X38005556Y-28452116D01*
X38005557Y-28452122D01*
X38005558Y-28452130D01*
X38023238Y-28537210D01*
X38061460Y-28721146D01*
X38061462Y-28721154D01*
X38153408Y-28979865D01*
X38153477Y-28980058D01*
X38279754Y-29223763D01*
X38279892Y-29224028D01*
X38345385Y-29316810D01*
X38438343Y-29448502D01*
X38625889Y-29649314D01*
X38839031Y-29822718D01*
X39073800Y-29965484D01*
X39325823Y-30074953D01*
X39590404Y-30149085D01*
X39685504Y-30162156D01*
X39862604Y-30186499D01*
X39862615Y-30186500D01*
X40137385Y-30186500D01*
X40137395Y-30186499D01*
X40266945Y-30168692D01*
X40409596Y-30149085D01*
X40674177Y-30074953D01*
X40823408Y-30010131D01*
X40893856Y-30001338D01*
X40957877Y-30032028D01*
X40962701Y-30036605D01*
X41829595Y-30903499D01*
X41863621Y-30965811D01*
X41866500Y-30992594D01*
X41866500Y-31764369D01*
X41846498Y-31832490D01*
X41792842Y-31878983D01*
X41722568Y-31889087D01*
X41657988Y-31859593D01*
X41637562Y-31837031D01*
X41625001Y-31819236D01*
X41561657Y-31729498D01*
X41374111Y-31528686D01*
X41160969Y-31355282D01*
X40926200Y-31212516D01*
X40926201Y-31212516D01*
X40926197Y-31212514D01*
X40674180Y-31103048D01*
X40674178Y-31103047D01*
X40674177Y-31103047D01*
X40541886Y-31065981D01*
X40409593Y-31028914D01*
X40137395Y-30991500D01*
X40137385Y-30991500D01*
X39862615Y-30991500D01*
X39862604Y-30991500D01*
X39590406Y-31028914D01*
X39325819Y-31103048D01*
X39073802Y-31212514D01*
X38946940Y-31289661D01*
X38858722Y-31343308D01*
X38839028Y-31355284D01*
X38625886Y-31528688D01*
X38438343Y-31729498D01*
X38279892Y-31953971D01*
X38153477Y-32197941D01*
X38061462Y-32456845D01*
X38061460Y-32456853D01*
X38005557Y-32725877D01*
X38005556Y-32725883D01*
X37986807Y-32999995D01*
X37986807Y-33000000D01*
X38005556Y-33274116D01*
X38005557Y-33274122D01*
X38005558Y-33274130D01*
X38022075Y-33353614D01*
X38061460Y-33543146D01*
X38061462Y-33543154D01*
X38153408Y-33801865D01*
X38153477Y-33802058D01*
X38279754Y-34045763D01*
X38279892Y-34046028D01*
X38331296Y-34118851D01*
X38438343Y-34270502D01*
X38625889Y-34471314D01*
X38839031Y-34644718D01*
X39073800Y-34787484D01*
X39325823Y-34896953D01*
X39590404Y-34971085D01*
X39685504Y-34984156D01*
X39862604Y-35008499D01*
X39862615Y-35008500D01*
X40137385Y-35008500D01*
X40137395Y-35008499D01*
X40266945Y-34990692D01*
X40409596Y-34971085D01*
X40674177Y-34896953D01*
X40926200Y-34787484D01*
X41160969Y-34644718D01*
X41374111Y-34471314D01*
X41561657Y-34270502D01*
X41637562Y-34162969D01*
X41693186Y-34118851D01*
X41763833Y-34111809D01*
X41827071Y-34144080D01*
X41862824Y-34205417D01*
X41866500Y-34235630D01*
X41866500Y-38276372D01*
X41846498Y-38344493D01*
X41792842Y-38390986D01*
X41722568Y-38401090D01*
X41657988Y-38371596D01*
X41646864Y-38360683D01*
X41611253Y-38321134D01*
X41456752Y-38208882D01*
X41282288Y-38131206D01*
X41095487Y-38091500D01*
X40904513Y-38091500D01*
X40717711Y-38131206D01*
X40543247Y-38208882D01*
X40388744Y-38321135D01*
X40260965Y-38463048D01*
X40260958Y-38463058D01*
X40165476Y-38628438D01*
X40165473Y-38628445D01*
X40106457Y-38810072D01*
X40086496Y-39000000D01*
X40106457Y-39189927D01*
X40109706Y-39199925D01*
X40165473Y-39371556D01*
X40260960Y-39536944D01*
X40334137Y-39618215D01*
X40364853Y-39682220D01*
X40366500Y-39702524D01*
X40366500Y-44685404D01*
X40346498Y-44753525D01*
X40329596Y-44774499D01*
X40096167Y-45007929D01*
X40096166Y-45007929D01*
X39118423Y-45985672D01*
X39056111Y-46019698D01*
X38985296Y-46014633D01*
X38928460Y-45972086D01*
X38904018Y-45909747D01*
X38903396Y-45903833D01*
X38893542Y-45810072D01*
X38834527Y-45628444D01*
X38739040Y-45463056D01*
X38665863Y-45381784D01*
X38635146Y-45317776D01*
X38633500Y-45297474D01*
X38633500Y-39437607D01*
X38633499Y-39437603D01*
X38609155Y-39315215D01*
X38595168Y-39281447D01*
X38561401Y-39199925D01*
X38492072Y-39096167D01*
X37403833Y-38007929D01*
X37300075Y-37938600D01*
X37184785Y-37890845D01*
X37111086Y-37876185D01*
X37062396Y-37866500D01*
X37062394Y-37866500D01*
X35626000Y-37866500D01*
X35557879Y-37846498D01*
X35511386Y-37792842D01*
X35500000Y-37740500D01*
X35500000Y-33000000D01*
X26387302Y-33000000D01*
X26319181Y-32979998D01*
X26272688Y-32926342D01*
X26262584Y-32856068D01*
X26292078Y-32791488D01*
X26298194Y-32784917D01*
X27689684Y-31393426D01*
X27751993Y-31359404D01*
X27822808Y-31364468D01*
X27871477Y-31397186D01*
X27966125Y-31500000D01*
X28002780Y-31539818D01*
X28186983Y-31683190D01*
X28392273Y-31794287D01*
X28613049Y-31870080D01*
X28843288Y-31908500D01*
X28843292Y-31908500D01*
X29076708Y-31908500D01*
X29076712Y-31908500D01*
X29306951Y-31870080D01*
X29527727Y-31794287D01*
X29733017Y-31683190D01*
X29917220Y-31539818D01*
X29917221Y-31539817D01*
X29921054Y-31536289D01*
X29922431Y-31537785D01*
X29975780Y-31505690D01*
X30046745Y-31507790D01*
X30105310Y-31547924D01*
X30125741Y-31583549D01*
X30149111Y-31646204D01*
X30149112Y-31646207D01*
X30236738Y-31763261D01*
X30353792Y-31850887D01*
X30353794Y-31850888D01*
X30353796Y-31850889D01*
X30409206Y-31871556D01*
X30490795Y-31901988D01*
X30490803Y-31901990D01*
X30551350Y-31908499D01*
X30551355Y-31908499D01*
X30551362Y-31908500D01*
X30551368Y-31908500D01*
X32448632Y-31908500D01*
X32448638Y-31908500D01*
X32448645Y-31908499D01*
X32448649Y-31908499D01*
X32509196Y-31901990D01*
X32509199Y-31901989D01*
X32509201Y-31901989D01*
X32646204Y-31850889D01*
X32763261Y-31763261D01*
X32850889Y-31646204D01*
X32901989Y-31509201D01*
X32902367Y-31505690D01*
X32908499Y-31448649D01*
X32908500Y-31448632D01*
X32908500Y-29551367D01*
X32908499Y-29551350D01*
X32901990Y-29490803D01*
X32901988Y-29490795D01*
X32856483Y-29368794D01*
X32850889Y-29353796D01*
X32842068Y-29342012D01*
X32836826Y-29335009D01*
X32812015Y-29268488D01*
X32827107Y-29199114D01*
X32877309Y-29148912D01*
X32937694Y-29133500D01*
X34791800Y-29133500D01*
X34859921Y-29153502D01*
X34885437Y-29175190D01*
X34888747Y-29178866D01*
X35043248Y-29291118D01*
X35217712Y-29368794D01*
X35404513Y-29408500D01*
X35595487Y-29408500D01*
X35782288Y-29368794D01*
X35956752Y-29291118D01*
X36111253Y-29178866D01*
X36134091Y-29153502D01*
X36239034Y-29036951D01*
X36239035Y-29036949D01*
X36239040Y-29036944D01*
X36334527Y-28871556D01*
X36393542Y-28689928D01*
X36410907Y-28524703D01*
X36437920Y-28459048D01*
X36447113Y-28448789D01*
X39725499Y-25170405D01*
X39787811Y-25136379D01*
X39814594Y-25133500D01*
X45936393Y-25133500D01*
X45936394Y-25133500D01*
X46058785Y-25109155D01*
X46174075Y-25061400D01*
X46277833Y-24992071D01*
X47002722Y-24267180D01*
X47065033Y-24233157D01*
X47132728Y-24237104D01*
X47140567Y-24239795D01*
X47153049Y-24244080D01*
X47383288Y-24282500D01*
X47383292Y-24282500D01*
X47616708Y-24282500D01*
X47616712Y-24282500D01*
X47846951Y-24244080D01*
X48067727Y-24168287D01*
X48273017Y-24057190D01*
X48457220Y-23913818D01*
X48478368Y-23890846D01*
X48499745Y-23867623D01*
X48615314Y-23742083D01*
X48644517Y-23697383D01*
X48698519Y-23651296D01*
X48768867Y-23641720D01*
X48833225Y-23671696D01*
X48855481Y-23697382D01*
X48868788Y-23717749D01*
X48884687Y-23742084D01*
X49042774Y-23913813D01*
X49042778Y-23913817D01*
X49074621Y-23938601D01*
X49226983Y-24057190D01*
X49432273Y-24168287D01*
X49653049Y-24244080D01*
X49883288Y-24282500D01*
X49883292Y-24282500D01*
X50116708Y-24282500D01*
X50116712Y-24282500D01*
X50346951Y-24244080D01*
X50567727Y-24168287D01*
X50773017Y-24057190D01*
X50957220Y-23913818D01*
X50978368Y-23890846D01*
X51115314Y-23742083D01*
X51140720Y-23703196D01*
X51242984Y-23546669D01*
X51336749Y-23332907D01*
X51394051Y-23106626D01*
X51413327Y-22874000D01*
X51394051Y-22641374D01*
X51336749Y-22415093D01*
X51242984Y-22201331D01*
X51241536Y-22199114D01*
X51115314Y-22005916D01*
X50957225Y-21834186D01*
X50957221Y-21834182D01*
X50824316Y-21730738D01*
X50773017Y-21690810D01*
X50567727Y-21579713D01*
X50567724Y-21579712D01*
X50567723Y-21579711D01*
X50346955Y-21503921D01*
X50346948Y-21503919D01*
X50243715Y-21486693D01*
X50116712Y-21465500D01*
X49883288Y-21465500D01*
X49768066Y-21484727D01*
X49653051Y-21503919D01*
X49653044Y-21503921D01*
X49432276Y-21579711D01*
X49432273Y-21579713D01*
X49315122Y-21643112D01*
X49226985Y-21690809D01*
X49226983Y-21690810D01*
X49042778Y-21834182D01*
X49042774Y-21834186D01*
X48884685Y-22005916D01*
X48855483Y-22050615D01*
X48801480Y-22096704D01*
X48731132Y-22106279D01*
X48666774Y-22076302D01*
X48644517Y-22050615D01*
X48615314Y-22005916D01*
X48457225Y-21834186D01*
X48457221Y-21834182D01*
X48324316Y-21730738D01*
X48273017Y-21690810D01*
X48067727Y-21579713D01*
X48067724Y-21579712D01*
X48067723Y-21579711D01*
X47846955Y-21503921D01*
X47846948Y-21503919D01*
X47743715Y-21486693D01*
X47616712Y-21465500D01*
X47383288Y-21465500D01*
X47268066Y-21484727D01*
X47153051Y-21503919D01*
X47153044Y-21503921D01*
X46932276Y-21579711D01*
X46932273Y-21579713D01*
X46726983Y-21690810D01*
X46563859Y-21817776D01*
X46560274Y-21820566D01*
X46494232Y-21846622D01*
X46424586Y-21832837D01*
X46373450Y-21783587D01*
X46364828Y-21765167D01*
X46350889Y-21727796D01*
X46350887Y-21727792D01*
X46263261Y-21610738D01*
X46146207Y-21523112D01*
X46146202Y-21523110D01*
X46009204Y-21472011D01*
X46009196Y-21472009D01*
X45948649Y-21465500D01*
X45948638Y-21465500D01*
X44051362Y-21465500D01*
X44051350Y-21465500D01*
X43990803Y-21472009D01*
X43990795Y-21472011D01*
X43853797Y-21523110D01*
X43853792Y-21523112D01*
X43736738Y-21610738D01*
X43649112Y-21727792D01*
X43649110Y-21727797D01*
X43598011Y-21864795D01*
X43598009Y-21864803D01*
X43591500Y-21925350D01*
X43591500Y-23740500D01*
X43571498Y-23808621D01*
X43517842Y-23855114D01*
X43465500Y-23866500D01*
X39437603Y-23866500D01*
X39364568Y-23881028D01*
X39315215Y-23890845D01*
X39315213Y-23890845D01*
X39315212Y-23890846D01*
X39199923Y-23938601D01*
X39096171Y-24007926D01*
X39096164Y-24007931D01*
X35549501Y-27554595D01*
X35487189Y-27588621D01*
X35460406Y-27591500D01*
X35404513Y-27591500D01*
X35217711Y-27631206D01*
X35043247Y-27708882D01*
X34888747Y-27821133D01*
X34885437Y-27824810D01*
X34824991Y-27862050D01*
X34791800Y-27866500D01*
X33465006Y-27866500D01*
X33396885Y-27846498D01*
X33350392Y-27792842D01*
X33340288Y-27722568D01*
X33369782Y-27657988D01*
X33407801Y-27628233D01*
X33509598Y-27576366D01*
X33669858Y-27459930D01*
X33809930Y-27319858D01*
X33926366Y-27159598D01*
X34016298Y-26983097D01*
X34077512Y-26794700D01*
X34108500Y-26599046D01*
X34108500Y-25900954D01*
X34077512Y-25705300D01*
X34016298Y-25516903D01*
X33926366Y-25340402D01*
X33809930Y-25180142D01*
X33809928Y-25180139D01*
X33669860Y-25040071D01*
X33509601Y-24923636D01*
X33509600Y-24923635D01*
X33509598Y-24923634D01*
X33333097Y-24833702D01*
X33144700Y-24772488D01*
X32949046Y-24741500D01*
X32750954Y-24741500D01*
X32555300Y-24772488D01*
X32555297Y-24772488D01*
X32555296Y-24772489D01*
X32366903Y-24833702D01*
X32366901Y-24833703D01*
X32190398Y-24923636D01*
X32030139Y-25040071D01*
X31890071Y-25180139D01*
X31773636Y-25340398D01*
X31773634Y-25340402D01*
X31683702Y-25516903D01*
X31622488Y-25705300D01*
X31591500Y-25900954D01*
X31591500Y-26599046D01*
X31622488Y-26794700D01*
X31683702Y-26983097D01*
X31773634Y-27159598D01*
X31773636Y-27159601D01*
X31890071Y-27319860D01*
X32030139Y-27459928D01*
X32103681Y-27513359D01*
X32190402Y-27576366D01*
X32292197Y-27628233D01*
X32343812Y-27676982D01*
X32360878Y-27745896D01*
X32337977Y-27813098D01*
X32282379Y-27857250D01*
X32234994Y-27866500D01*
X27765006Y-27866500D01*
X27696885Y-27846498D01*
X27650392Y-27792842D01*
X27640288Y-27722568D01*
X27669782Y-27657988D01*
X27707801Y-27628233D01*
X27809598Y-27576366D01*
X27969858Y-27459930D01*
X28109930Y-27319858D01*
X28226366Y-27159598D01*
X28316298Y-26983097D01*
X28377512Y-26794700D01*
X28408500Y-26599046D01*
X28408500Y-25900954D01*
X28377512Y-25705300D01*
X28316298Y-25516903D01*
X28226366Y-25340402D01*
X28109930Y-25180142D01*
X28109928Y-25180139D01*
X27969860Y-25040071D01*
X27809601Y-24923636D01*
X27809600Y-24923635D01*
X27809598Y-24923634D01*
X27633097Y-24833702D01*
X27444700Y-24772488D01*
X27249046Y-24741500D01*
X27050954Y-24741500D01*
X26855300Y-24772488D01*
X26855297Y-24772488D01*
X26855296Y-24772489D01*
X26666903Y-24833702D01*
X26666901Y-24833703D01*
X26490398Y-24923636D01*
X26330139Y-25040071D01*
X26190071Y-25180139D01*
X26073636Y-25340398D01*
X26073634Y-25340402D01*
X25983702Y-25516903D01*
X25922488Y-25705300D01*
X25891500Y-25900954D01*
X25891500Y-26599046D01*
X25922488Y-26794700D01*
X25983702Y-26983097D01*
X26073634Y-27159598D01*
X26073636Y-27159601D01*
X26190071Y-27319860D01*
X26330139Y-27459928D01*
X26403681Y-27513359D01*
X26490402Y-27576366D01*
X26592197Y-27628233D01*
X26643812Y-27676982D01*
X26660878Y-27745896D01*
X26637977Y-27813098D01*
X26582379Y-27857250D01*
X26534994Y-27866500D01*
X25708200Y-27866500D01*
X25640079Y-27846498D01*
X25614563Y-27824810D01*
X25611252Y-27821133D01*
X25456752Y-27708882D01*
X25282288Y-27631206D01*
X25095487Y-27591500D01*
X24904513Y-27591500D01*
X24717711Y-27631206D01*
X24543247Y-27708882D01*
X24388744Y-27821135D01*
X24260965Y-27963048D01*
X24260958Y-27963058D01*
X24165476Y-28128438D01*
X24165473Y-28128445D01*
X24106457Y-28310072D01*
X24086496Y-28500000D01*
X24106457Y-28689927D01*
X24116604Y-28721154D01*
X24165473Y-28871556D01*
X24165476Y-28871561D01*
X24260958Y-29036941D01*
X24260965Y-29036951D01*
X24388744Y-29178864D01*
X24427687Y-29207158D01*
X24543248Y-29291118D01*
X24717712Y-29368794D01*
X24904513Y-29408500D01*
X25095487Y-29408500D01*
X25282288Y-29368794D01*
X25456752Y-29291118D01*
X25611253Y-29178866D01*
X25614563Y-29175190D01*
X25675009Y-29137950D01*
X25708200Y-29133500D01*
X28055474Y-29133500D01*
X28123595Y-29153502D01*
X28170088Y-29207158D01*
X28180192Y-29277432D01*
X28150698Y-29342012D01*
X28132865Y-29358932D01*
X28002778Y-29460182D01*
X28002774Y-29460186D01*
X27844685Y-29631916D01*
X27728721Y-29809415D01*
X27674718Y-29855504D01*
X27630869Y-29864869D01*
X27630970Y-29865894D01*
X27624811Y-29866500D01*
X27551776Y-29881028D01*
X27502423Y-29890845D01*
X27502421Y-29890845D01*
X27502420Y-29890846D01*
X27387131Y-29938601D01*
X27283379Y-30007926D01*
X27283372Y-30007931D01*
X23848595Y-33442709D01*
X23786283Y-33476735D01*
X23715468Y-33471670D01*
X23658632Y-33429123D01*
X23633821Y-33362603D01*
X23633500Y-33353614D01*
X23633500Y-32202524D01*
X23653502Y-32134403D01*
X23665858Y-32118220D01*
X23739040Y-32036944D01*
X23834527Y-31871556D01*
X23893542Y-31689928D01*
X23913504Y-31500000D01*
X23893542Y-31310072D01*
X23834527Y-31128444D01*
X23739040Y-30963056D01*
X23739038Y-30963054D01*
X23739034Y-30963048D01*
X23611255Y-30821135D01*
X23456752Y-30708882D01*
X23282288Y-30631206D01*
X23095487Y-30591500D01*
X22904513Y-30591500D01*
X22785697Y-30616755D01*
X22714906Y-30611353D01*
X22658274Y-30568536D01*
X22633780Y-30501898D01*
X22633500Y-30493508D01*
X22633500Y-28314593D01*
X22653502Y-28246472D01*
X22670400Y-28225503D01*
X27491411Y-23404491D01*
X27553721Y-23370467D01*
X27624536Y-23375532D01*
X27681372Y-23418079D01*
X27683701Y-23421296D01*
X27734005Y-23493136D01*
X27782251Y-23562038D01*
X27782254Y-23562042D01*
X27937957Y-23717745D01*
X27937961Y-23717748D01*
X27937962Y-23717749D01*
X28118346Y-23844056D01*
X28317924Y-23937120D01*
X28530629Y-23994115D01*
X28750000Y-24013307D01*
X28969371Y-23994115D01*
X29182076Y-23937120D01*
X29381654Y-23844056D01*
X29562038Y-23717749D01*
X29717749Y-23562038D01*
X29844056Y-23381654D01*
X29885805Y-23292123D01*
X29932722Y-23238837D01*
X30000999Y-23219376D01*
X30068959Y-23239918D01*
X30114195Y-23292123D01*
X30155940Y-23381648D01*
X30155943Y-23381653D01*
X30155944Y-23381654D01*
X30234005Y-23493136D01*
X30282251Y-23562038D01*
X30282254Y-23562042D01*
X30437957Y-23717745D01*
X30437961Y-23717748D01*
X30437962Y-23717749D01*
X30618346Y-23844056D01*
X30817924Y-23937120D01*
X31030629Y-23994115D01*
X31250000Y-24013307D01*
X31469371Y-23994115D01*
X31682076Y-23937120D01*
X31881654Y-23844056D01*
X32062038Y-23717749D01*
X32217749Y-23562038D01*
X32344056Y-23381654D01*
X32437120Y-23182076D01*
X32494115Y-22969371D01*
X32513307Y-22750000D01*
X32494115Y-22530629D01*
X32437120Y-22317924D01*
X32344056Y-22118347D01*
X32217749Y-21937962D01*
X32062038Y-21782251D01*
X31881654Y-21655944D01*
X31881650Y-21655942D01*
X31682079Y-21562881D01*
X31682073Y-21562879D01*
X31533658Y-21523111D01*
X31469371Y-21505885D01*
X31250000Y-21486693D01*
X31249999Y-21486693D01*
X31249998Y-21486693D01*
X31221397Y-21489195D01*
X31151793Y-21475205D01*
X31100801Y-21425804D01*
X31084612Y-21356678D01*
X31108366Y-21289773D01*
X31121310Y-21274592D01*
X32992071Y-19403833D01*
X33061400Y-19300075D01*
X33109155Y-19184785D01*
X33133500Y-19062394D01*
X33133500Y-18937606D01*
X33133500Y-15937606D01*
X33109155Y-15815215D01*
X33108647Y-15813989D01*
X33096895Y-15785617D01*
X33089305Y-15715028D01*
X33121083Y-15651540D01*
X33182140Y-15615312D01*
X33253091Y-15617844D01*
X33302398Y-15648302D01*
X38829595Y-21175499D01*
X38863621Y-21237811D01*
X38866500Y-21264594D01*
X38866500Y-21797474D01*
X38846498Y-21865595D01*
X38834137Y-21881784D01*
X38760957Y-21963059D01*
X38665476Y-22128438D01*
X38665473Y-22128444D01*
X38650999Y-22172986D01*
X38606457Y-22310072D01*
X38586496Y-22500000D01*
X38606457Y-22689927D01*
X38636526Y-22782470D01*
X38665473Y-22871556D01*
X38665476Y-22871561D01*
X38760958Y-23036941D01*
X38760965Y-23036951D01*
X38888744Y-23178864D01*
X38888747Y-23178866D01*
X39043248Y-23291118D01*
X39217712Y-23368794D01*
X39404513Y-23408500D01*
X39595487Y-23408500D01*
X39782288Y-23368794D01*
X39956752Y-23291118D01*
X40111253Y-23178866D01*
X40176298Y-23106626D01*
X40239034Y-23036951D01*
X40239035Y-23036949D01*
X40239040Y-23036944D01*
X40334527Y-22871556D01*
X40393542Y-22689928D01*
X40413504Y-22500000D01*
X40393542Y-22310072D01*
X40334527Y-22128444D01*
X40251596Y-21984803D01*
X40239042Y-21963059D01*
X40239041Y-21963058D01*
X40239040Y-21963056D01*
X40165863Y-21881784D01*
X40135146Y-21817776D01*
X40133500Y-21797474D01*
X40133500Y-20887607D01*
X40133499Y-20887603D01*
X40109155Y-20765215D01*
X40061400Y-20649925D01*
X39992071Y-20546167D01*
X39903833Y-20457929D01*
X34437433Y-14991529D01*
X40831500Y-14991529D01*
X40831500Y-15756470D01*
X40863469Y-15999300D01*
X40863470Y-15999306D01*
X40863471Y-15999308D01*
X40926865Y-16235898D01*
X41020598Y-16462190D01*
X41020599Y-16462191D01*
X41020604Y-16462201D01*
X41143063Y-16674306D01*
X41292173Y-16868631D01*
X41292182Y-16868641D01*
X41465358Y-17041817D01*
X41465368Y-17041826D01*
X41465369Y-17041827D01*
X41583336Y-17132346D01*
X41659693Y-17190936D01*
X41742660Y-17238837D01*
X41871810Y-17313402D01*
X42098102Y-17407135D01*
X42334692Y-17470529D01*
X42334698Y-17470529D01*
X42334699Y-17470530D01*
X42362560Y-17474198D01*
X42577532Y-17502500D01*
X42577539Y-17502500D01*
X42822461Y-17502500D01*
X42822468Y-17502500D01*
X43065308Y-17470529D01*
X43301898Y-17407135D01*
X43528190Y-17313402D01*
X43740310Y-17190934D01*
X43934631Y-17041827D01*
X44107827Y-16868631D01*
X44256934Y-16674310D01*
X44379402Y-16462190D01*
X44473135Y-16235898D01*
X44536529Y-15999308D01*
X44568500Y-15756468D01*
X44568500Y-14991532D01*
X44568500Y-14991529D01*
X50431500Y-14991529D01*
X50431500Y-15756470D01*
X50463469Y-15999300D01*
X50463470Y-15999306D01*
X50463471Y-15999308D01*
X50526865Y-16235898D01*
X50620598Y-16462190D01*
X50620599Y-16462191D01*
X50620604Y-16462201D01*
X50743063Y-16674306D01*
X50892173Y-16868631D01*
X50892182Y-16868641D01*
X51065358Y-17041817D01*
X51065368Y-17041826D01*
X51065369Y-17041827D01*
X51183336Y-17132346D01*
X51259693Y-17190936D01*
X51342660Y-17238837D01*
X51471810Y-17313402D01*
X51698102Y-17407135D01*
X51934692Y-17470529D01*
X51934698Y-17470529D01*
X51934699Y-17470530D01*
X51962560Y-17474198D01*
X52177532Y-17502500D01*
X52177539Y-17502500D01*
X52422461Y-17502500D01*
X52422468Y-17502500D01*
X52665308Y-17470529D01*
X52901898Y-17407135D01*
X53128190Y-17313402D01*
X53340310Y-17190934D01*
X53534631Y-17041827D01*
X53707827Y-16868631D01*
X53856934Y-16674310D01*
X53979402Y-16462190D01*
X54073135Y-16235898D01*
X54136529Y-15999308D01*
X54168500Y-15756468D01*
X54168500Y-14991532D01*
X54136529Y-14748692D01*
X54073135Y-14512102D01*
X53979402Y-14285810D01*
X53856934Y-14073690D01*
X53707827Y-13879369D01*
X53707826Y-13879368D01*
X53707817Y-13879358D01*
X53700536Y-13872077D01*
X53666510Y-13809765D01*
X53671575Y-13738950D01*
X53714122Y-13682114D01*
X53724164Y-13675325D01*
X53860680Y-13592308D01*
X53929283Y-13536495D01*
X53020024Y-12627235D01*
X53055258Y-12612641D01*
X53178097Y-12530563D01*
X53282563Y-12426097D01*
X53364641Y-12303258D01*
X53379235Y-12268025D01*
X54289458Y-13178248D01*
X54419683Y-12993759D01*
X54419685Y-12993756D01*
X54546061Y-12749865D01*
X54638055Y-12491019D01*
X54638057Y-12491011D01*
X54693946Y-12222054D01*
X54693947Y-12222048D01*
X54712692Y-11948004D01*
X54712692Y-11947995D01*
X54693947Y-11673951D01*
X54693946Y-11673945D01*
X54638057Y-11404988D01*
X54638055Y-11404980D01*
X54546061Y-11146134D01*
X54419682Y-10902236D01*
X54289458Y-10717750D01*
X53379234Y-11627974D01*
X53364641Y-11592742D01*
X53282563Y-11469903D01*
X53178097Y-11365437D01*
X53055258Y-11283359D01*
X53020024Y-11268764D01*
X53929284Y-10359505D01*
X53929283Y-10359503D01*
X53860678Y-10303689D01*
X53625969Y-10160961D01*
X53374010Y-10051519D01*
X53109490Y-9977404D01*
X52837364Y-9940000D01*
X52562635Y-9940000D01*
X52290509Y-9977404D01*
X52025989Y-10051519D01*
X51774030Y-10160961D01*
X51539324Y-10303687D01*
X51470714Y-10359504D01*
X52379974Y-11268764D01*
X52344742Y-11283359D01*
X52221903Y-11365437D01*
X52117437Y-11469903D01*
X52035359Y-11592742D01*
X52020764Y-11627974D01*
X51110541Y-10717751D01*
X51110540Y-10717751D01*
X50980317Y-10902236D01*
X50853938Y-11146134D01*
X50761944Y-11404980D01*
X50761942Y-11404988D01*
X50706053Y-11673945D01*
X50706052Y-11673951D01*
X50687308Y-11947995D01*
X50687308Y-11948004D01*
X50706052Y-12222048D01*
X50706053Y-12222054D01*
X50761942Y-12491011D01*
X50761944Y-12491019D01*
X50853938Y-12749865D01*
X50980317Y-12993763D01*
X51110540Y-13178248D01*
X52020764Y-12268024D01*
X52035359Y-12303258D01*
X52117437Y-12426097D01*
X52221903Y-12530563D01*
X52344742Y-12612641D01*
X52379973Y-12627234D01*
X51661613Y-13345595D01*
X51620738Y-13372908D01*
X51471816Y-13434595D01*
X51471804Y-13434601D01*
X51259693Y-13557063D01*
X51065368Y-13706173D01*
X51065358Y-13706182D01*
X50892182Y-13879358D01*
X50892173Y-13879368D01*
X50743063Y-14073693D01*
X50620604Y-14285798D01*
X50620599Y-14285808D01*
X50526865Y-14512102D01*
X50463469Y-14748699D01*
X50431500Y-14991529D01*
X44568500Y-14991529D01*
X44536529Y-14748692D01*
X44473135Y-14512102D01*
X44379402Y-14285810D01*
X44256934Y-14073690D01*
X44107827Y-13879369D01*
X44107826Y-13879368D01*
X44107817Y-13879358D01*
X43934641Y-13706182D01*
X43934631Y-13706173D01*
X43740306Y-13557063D01*
X43528201Y-13434604D01*
X43528196Y-13434601D01*
X43528190Y-13434598D01*
X43301898Y-13340865D01*
X43065308Y-13277471D01*
X43065306Y-13277470D01*
X43065300Y-13277469D01*
X42822470Y-13245500D01*
X42822468Y-13245500D01*
X42577532Y-13245500D01*
X42577529Y-13245500D01*
X42334699Y-13277469D01*
X42334692Y-13277471D01*
X42098102Y-13340865D01*
X41871818Y-13434595D01*
X41871808Y-13434599D01*
X41871798Y-13434604D01*
X41659693Y-13557063D01*
X41465368Y-13706173D01*
X41465358Y-13706182D01*
X41292182Y-13879358D01*
X41292173Y-13879368D01*
X41143063Y-14073693D01*
X41020604Y-14285798D01*
X41020599Y-14285808D01*
X40926865Y-14512102D01*
X40863469Y-14748699D01*
X40831500Y-14991529D01*
X34437433Y-14991529D01*
X32254306Y-12808402D01*
X32220280Y-12746090D01*
X32225345Y-12675275D01*
X32267892Y-12618439D01*
X32334412Y-12593628D01*
X32400602Y-12607039D01*
X32516903Y-12666298D01*
X32705300Y-12727512D01*
X32900954Y-12758500D01*
X32900957Y-12758500D01*
X33099043Y-12758500D01*
X33099046Y-12758500D01*
X33294700Y-12727512D01*
X33483097Y-12666298D01*
X33659598Y-12576366D01*
X33819858Y-12459930D01*
X33959930Y-12319858D01*
X34076366Y-12159598D01*
X34166298Y-11983097D01*
X34177703Y-11947995D01*
X37986807Y-11947995D01*
X37986807Y-11948004D01*
X38005556Y-12222116D01*
X38005557Y-12222119D01*
X38005558Y-12222130D01*
X38028038Y-12330307D01*
X38061460Y-12491146D01*
X38061462Y-12491154D01*
X38145463Y-12727510D01*
X38153477Y-12750058D01*
X38279754Y-12993763D01*
X38279892Y-12994028D01*
X38347797Y-13090227D01*
X38438343Y-13218502D01*
X38625889Y-13419314D01*
X38839031Y-13592718D01*
X39070023Y-13733187D01*
X39073802Y-13735485D01*
X39088539Y-13741886D01*
X39325823Y-13844953D01*
X39590404Y-13919085D01*
X39685504Y-13932156D01*
X39862604Y-13956499D01*
X39862615Y-13956500D01*
X40137385Y-13956500D01*
X40137395Y-13956499D01*
X40275611Y-13937501D01*
X40409596Y-13919085D01*
X40674177Y-13844953D01*
X40926200Y-13735484D01*
X41160969Y-13592718D01*
X41374111Y-13419314D01*
X41561657Y-13218502D01*
X41720111Y-12994023D01*
X41846523Y-12750058D01*
X41938538Y-12491153D01*
X41994442Y-12222130D01*
X41998719Y-12159598D01*
X42013193Y-11948004D01*
X42013193Y-11947995D01*
X44336807Y-11947995D01*
X44336807Y-11948004D01*
X44355556Y-12222116D01*
X44355557Y-12222119D01*
X44355558Y-12222130D01*
X44378038Y-12330307D01*
X44411460Y-12491146D01*
X44411462Y-12491154D01*
X44495463Y-12727510D01*
X44503477Y-12750058D01*
X44629754Y-12993763D01*
X44629892Y-12994028D01*
X44697797Y-13090227D01*
X44788343Y-13218502D01*
X44975889Y-13419314D01*
X45189031Y-13592718D01*
X45420023Y-13733187D01*
X45423802Y-13735485D01*
X45438539Y-13741886D01*
X45675823Y-13844953D01*
X45940404Y-13919085D01*
X46035504Y-13932156D01*
X46212604Y-13956499D01*
X46212615Y-13956500D01*
X46487385Y-13956500D01*
X46487395Y-13956499D01*
X46625611Y-13937501D01*
X46759596Y-13919085D01*
X47024177Y-13844953D01*
X47276200Y-13735484D01*
X47510969Y-13592718D01*
X47724111Y-13419314D01*
X47911657Y-13218502D01*
X48070111Y-12994023D01*
X48196523Y-12750058D01*
X48288538Y-12491153D01*
X48344442Y-12222130D01*
X48348719Y-12159598D01*
X48363193Y-11948004D01*
X48363193Y-11947995D01*
X48344443Y-11673883D01*
X48344442Y-11673877D01*
X48344442Y-11673870D01*
X48288538Y-11404847D01*
X48196523Y-11145942D01*
X48070111Y-10901977D01*
X47911657Y-10677498D01*
X47724111Y-10476686D01*
X47510969Y-10303282D01*
X47276200Y-10160516D01*
X47276201Y-10160516D01*
X47276197Y-10160514D01*
X47024180Y-10051048D01*
X47024178Y-10051047D01*
X47024177Y-10051047D01*
X46891886Y-10013981D01*
X46759593Y-9976914D01*
X46487395Y-9939500D01*
X46487385Y-9939500D01*
X46212615Y-9939500D01*
X46212604Y-9939500D01*
X45940406Y-9976914D01*
X45675819Y-10051048D01*
X45423802Y-10160514D01*
X45189028Y-10303284D01*
X44975886Y-10476688D01*
X44788343Y-10677498D01*
X44629892Y-10901971D01*
X44503477Y-11145941D01*
X44411462Y-11404845D01*
X44411460Y-11404853D01*
X44355557Y-11673877D01*
X44355556Y-11673883D01*
X44336807Y-11947995D01*
X42013193Y-11947995D01*
X41994443Y-11673883D01*
X41994442Y-11673877D01*
X41994442Y-11673870D01*
X41938538Y-11404847D01*
X41846523Y-11145942D01*
X41720111Y-10901977D01*
X41561657Y-10677498D01*
X41374111Y-10476686D01*
X41160969Y-10303282D01*
X40926200Y-10160516D01*
X40926201Y-10160516D01*
X40926197Y-10160514D01*
X40674180Y-10051048D01*
X40674178Y-10051047D01*
X40674177Y-10051047D01*
X40541886Y-10013981D01*
X40409593Y-9976914D01*
X40137395Y-9939500D01*
X40137385Y-9939500D01*
X39862615Y-9939500D01*
X39862604Y-9939500D01*
X39590406Y-9976914D01*
X39325819Y-10051048D01*
X39073802Y-10160514D01*
X38839028Y-10303284D01*
X38625886Y-10476688D01*
X38438343Y-10677498D01*
X38279892Y-10901971D01*
X38153477Y-11145941D01*
X38061462Y-11404845D01*
X38061460Y-11404853D01*
X38005557Y-11673877D01*
X38005556Y-11673883D01*
X37986807Y-11947995D01*
X34177703Y-11947995D01*
X34227512Y-11794700D01*
X34258500Y-11599046D01*
X34258500Y-10900954D01*
X34227512Y-10705300D01*
X34166298Y-10516903D01*
X34076366Y-10340402D01*
X33959930Y-10180142D01*
X33959928Y-10180139D01*
X33819860Y-10040071D01*
X33659601Y-9923636D01*
X33659600Y-9923635D01*
X33659598Y-9923634D01*
X33492053Y-9838265D01*
X33440440Y-9789519D01*
X33423374Y-9720604D01*
X33446275Y-9653402D01*
X33501872Y-9609250D01*
X33549258Y-9600000D01*
X55674000Y-9600000D01*
X55742121Y-9620002D01*
X55788614Y-9673658D01*
X55800000Y-9726000D01*
X55800000Y-72573823D01*
X55779998Y-72641944D01*
X55726342Y-72688437D01*
X55673824Y-72699823D01*
X4425624Y-72628175D01*
X4357531Y-72608078D01*
X4311113Y-72554357D01*
X4299800Y-72502378D01*
X4296195Y-70229995D01*
X5287308Y-70229995D01*
X5287308Y-70230004D01*
X5306052Y-70504048D01*
X5306053Y-70504054D01*
X5361942Y-70773011D01*
X5361944Y-70773019D01*
X5453938Y-71031865D01*
X5580317Y-71275763D01*
X5710540Y-71460248D01*
X6620764Y-70550024D01*
X6635359Y-70585258D01*
X6717437Y-70708097D01*
X6821903Y-70812563D01*
X6944742Y-70894641D01*
X6979974Y-70909234D01*
X6070714Y-71818494D01*
X6139325Y-71874312D01*
X6374030Y-72017038D01*
X6625989Y-72126480D01*
X6890509Y-72200595D01*
X7162635Y-72237999D01*
X7162649Y-72238000D01*
X7437351Y-72238000D01*
X7437364Y-72237999D01*
X7709490Y-72200595D01*
X7974010Y-72126480D01*
X8225969Y-72017038D01*
X8460680Y-71874308D01*
X8529283Y-71818495D01*
X7620024Y-70909235D01*
X7655258Y-70894641D01*
X7778097Y-70812563D01*
X7882563Y-70708097D01*
X7964641Y-70585258D01*
X7979235Y-70550025D01*
X8889458Y-71460248D01*
X9019683Y-71275759D01*
X9019685Y-71275756D01*
X9146061Y-71031865D01*
X9238055Y-70773019D01*
X9238057Y-70773011D01*
X9293946Y-70504054D01*
X9293947Y-70504048D01*
X9312692Y-70230004D01*
X9312692Y-70229995D01*
X11636807Y-70229995D01*
X11636807Y-70230004D01*
X11655556Y-70504116D01*
X11655557Y-70504122D01*
X11655558Y-70504130D01*
X11672417Y-70585258D01*
X11711460Y-70773146D01*
X11711462Y-70773154D01*
X11803408Y-71031865D01*
X11803477Y-71032058D01*
X11929754Y-71275763D01*
X11929892Y-71276028D01*
X11997797Y-71372227D01*
X12088343Y-71500502D01*
X12275889Y-71701314D01*
X12489031Y-71874718D01*
X12723800Y-72017484D01*
X12975823Y-72126953D01*
X13240404Y-72201085D01*
X13335504Y-72214156D01*
X13512604Y-72238499D01*
X13512615Y-72238500D01*
X13787385Y-72238500D01*
X13787395Y-72238499D01*
X13916945Y-72220692D01*
X14059596Y-72201085D01*
X14324177Y-72126953D01*
X14576200Y-72017484D01*
X14810969Y-71874718D01*
X15024111Y-71701314D01*
X15211657Y-71500502D01*
X15370111Y-71276023D01*
X15496523Y-71032058D01*
X15588538Y-70773153D01*
X15644442Y-70504130D01*
X15663193Y-70230000D01*
X15663193Y-70229995D01*
X17986807Y-70229995D01*
X17986807Y-70230004D01*
X18005556Y-70504116D01*
X18005557Y-70504122D01*
X18005558Y-70504130D01*
X18022417Y-70585258D01*
X18061460Y-70773146D01*
X18061462Y-70773154D01*
X18153408Y-71031865D01*
X18153477Y-71032058D01*
X18279754Y-71275763D01*
X18279892Y-71276028D01*
X18347797Y-71372227D01*
X18438343Y-71500502D01*
X18625889Y-71701314D01*
X18839031Y-71874718D01*
X19073800Y-72017484D01*
X19325823Y-72126953D01*
X19590404Y-72201085D01*
X19685504Y-72214156D01*
X19862604Y-72238499D01*
X19862615Y-72238500D01*
X20137385Y-72238500D01*
X20137395Y-72238499D01*
X20266945Y-72220692D01*
X20409596Y-72201085D01*
X20674177Y-72126953D01*
X20926200Y-72017484D01*
X21160969Y-71874718D01*
X21374111Y-71701314D01*
X21561657Y-71500502D01*
X21720111Y-71276023D01*
X21846523Y-71032058D01*
X21938538Y-70773153D01*
X21994442Y-70504130D01*
X22013193Y-70230000D01*
X22008140Y-70156131D01*
X21994443Y-69955883D01*
X21994442Y-69955877D01*
X21994442Y-69955870D01*
X21938538Y-69686847D01*
X21846523Y-69427942D01*
X21720111Y-69183977D01*
X21561657Y-68959498D01*
X21374111Y-68758686D01*
X21160969Y-68585282D01*
X20926200Y-68442516D01*
X20926201Y-68442516D01*
X20926197Y-68442514D01*
X20674180Y-68333048D01*
X20674178Y-68333047D01*
X20674177Y-68333047D01*
X20541886Y-68295981D01*
X20409593Y-68258914D01*
X20137395Y-68221500D01*
X20137385Y-68221500D01*
X19862615Y-68221500D01*
X19862604Y-68221500D01*
X19590406Y-68258914D01*
X19325819Y-68333048D01*
X19073802Y-68442514D01*
X18839028Y-68585284D01*
X18625886Y-68758688D01*
X18438343Y-68959498D01*
X18279892Y-69183971D01*
X18153477Y-69427941D01*
X18061462Y-69686845D01*
X18061460Y-69686853D01*
X18005557Y-69955877D01*
X18005556Y-69955883D01*
X17986807Y-70229995D01*
X15663193Y-70229995D01*
X15658140Y-70156131D01*
X15644443Y-69955883D01*
X15644442Y-69955877D01*
X15644442Y-69955870D01*
X15588538Y-69686847D01*
X15496523Y-69427942D01*
X15370111Y-69183977D01*
X15211657Y-68959498D01*
X15024111Y-68758686D01*
X14810969Y-68585282D01*
X14576200Y-68442516D01*
X14576201Y-68442516D01*
X14576197Y-68442514D01*
X14324180Y-68333048D01*
X14324178Y-68333047D01*
X14324177Y-68333047D01*
X14191886Y-68295981D01*
X14059593Y-68258914D01*
X13787395Y-68221500D01*
X13787385Y-68221500D01*
X13512615Y-68221500D01*
X13512604Y-68221500D01*
X13240406Y-68258914D01*
X12975819Y-68333048D01*
X12723802Y-68442514D01*
X12489028Y-68585284D01*
X12275886Y-68758688D01*
X12088343Y-68959498D01*
X11929892Y-69183971D01*
X11803477Y-69427941D01*
X11711462Y-69686845D01*
X11711460Y-69686853D01*
X11655557Y-69955877D01*
X11655556Y-69955883D01*
X11636807Y-70229995D01*
X9312692Y-70229995D01*
X9293947Y-69955951D01*
X9293946Y-69955945D01*
X9238057Y-69686988D01*
X9238055Y-69686980D01*
X9146061Y-69428134D01*
X9019682Y-69184236D01*
X8889458Y-68999750D01*
X7979234Y-69909974D01*
X7964641Y-69874742D01*
X7882563Y-69751903D01*
X7778097Y-69647437D01*
X7655258Y-69565359D01*
X7620024Y-69550764D01*
X8529284Y-68641505D01*
X8529283Y-68641503D01*
X8460678Y-68585689D01*
X8225969Y-68442961D01*
X7974010Y-68333519D01*
X7709490Y-68259404D01*
X7437364Y-68222000D01*
X7162635Y-68222000D01*
X6890509Y-68259404D01*
X6625989Y-68333519D01*
X6374030Y-68442961D01*
X6139324Y-68585687D01*
X6070714Y-68641504D01*
X6979974Y-69550764D01*
X6944742Y-69565359D01*
X6821903Y-69647437D01*
X6717437Y-69751903D01*
X6635359Y-69874742D01*
X6620764Y-69909974D01*
X5710541Y-68999751D01*
X5710540Y-68999751D01*
X5580317Y-69184236D01*
X5453938Y-69428134D01*
X5361944Y-69686980D01*
X5361942Y-69686988D01*
X5306053Y-69955945D01*
X5306052Y-69955951D01*
X5287308Y-70229995D01*
X4296195Y-70229995D01*
X4270444Y-53999995D01*
X5287308Y-53999995D01*
X5287308Y-54000004D01*
X5306052Y-54274048D01*
X5306053Y-54274054D01*
X5361942Y-54543011D01*
X5361944Y-54543019D01*
X5453938Y-54801865D01*
X5580317Y-55045763D01*
X5710540Y-55230248D01*
X6620764Y-54320024D01*
X6635359Y-54355258D01*
X6717437Y-54478097D01*
X6821903Y-54582563D01*
X6944742Y-54664641D01*
X6979974Y-54679234D01*
X6070714Y-55588494D01*
X6139325Y-55644312D01*
X6374030Y-55787038D01*
X6625989Y-55896480D01*
X6890509Y-55970595D01*
X7162635Y-56007999D01*
X7162649Y-56008000D01*
X7437351Y-56008000D01*
X7437364Y-56007999D01*
X7709490Y-55970595D01*
X7974010Y-55896480D01*
X8225969Y-55787038D01*
X8460680Y-55644308D01*
X8529283Y-55588495D01*
X7620024Y-54679235D01*
X7655258Y-54664641D01*
X7778097Y-54582563D01*
X7882563Y-54478097D01*
X7964641Y-54355258D01*
X7979235Y-54320025D01*
X8889458Y-55230248D01*
X9019683Y-55045759D01*
X9019685Y-55045756D01*
X9146061Y-54801865D01*
X9238055Y-54543019D01*
X9238057Y-54543011D01*
X9293946Y-54274054D01*
X9293947Y-54274048D01*
X9312692Y-54000004D01*
X9312692Y-53999995D01*
X9293947Y-53725951D01*
X9293946Y-53725945D01*
X9238057Y-53456988D01*
X9238055Y-53456980D01*
X9146061Y-53198134D01*
X9019682Y-52954236D01*
X8889458Y-52769750D01*
X7979234Y-53679974D01*
X7964641Y-53644742D01*
X7882563Y-53521903D01*
X7778097Y-53417437D01*
X7655258Y-53335359D01*
X7620024Y-53320764D01*
X8529284Y-52411505D01*
X8529283Y-52411503D01*
X8460678Y-52355689D01*
X8225969Y-52212961D01*
X7974010Y-52103519D01*
X7709490Y-52029404D01*
X7437364Y-51992000D01*
X7162635Y-51992000D01*
X6890509Y-52029404D01*
X6625989Y-52103519D01*
X6374030Y-52212961D01*
X6139324Y-52355687D01*
X6070714Y-52411504D01*
X6979974Y-53320764D01*
X6944742Y-53335359D01*
X6821903Y-53417437D01*
X6717437Y-53521903D01*
X6635359Y-53644742D01*
X6620764Y-53679974D01*
X5710541Y-52769751D01*
X5710540Y-52769751D01*
X5580317Y-52954236D01*
X5453938Y-53198134D01*
X5361944Y-53456980D01*
X5361942Y-53456988D01*
X5306053Y-53725945D01*
X5306052Y-53725951D01*
X5287308Y-53999995D01*
X4270444Y-53999995D01*
X4262876Y-49229995D01*
X5287308Y-49229995D01*
X5287308Y-49230004D01*
X5306052Y-49504048D01*
X5306053Y-49504054D01*
X5361942Y-49773011D01*
X5361944Y-49773019D01*
X5453938Y-50031865D01*
X5580317Y-50275763D01*
X5710540Y-50460248D01*
X6620764Y-49550024D01*
X6635359Y-49585258D01*
X6717437Y-49708097D01*
X6821903Y-49812563D01*
X6944742Y-49894641D01*
X6979974Y-49909234D01*
X6070714Y-50818494D01*
X6139325Y-50874312D01*
X6374030Y-51017038D01*
X6625989Y-51126480D01*
X6890509Y-51200595D01*
X7162635Y-51237999D01*
X7162649Y-51238000D01*
X7437351Y-51238000D01*
X7437364Y-51237999D01*
X7709490Y-51200595D01*
X7974010Y-51126480D01*
X8225969Y-51017038D01*
X8460680Y-50874308D01*
X8529283Y-50818495D01*
X7620024Y-49909235D01*
X7655258Y-49894641D01*
X7778097Y-49812563D01*
X7882563Y-49708097D01*
X7964641Y-49585258D01*
X7979235Y-49550025D01*
X8889458Y-50460248D01*
X9019683Y-50275759D01*
X9019685Y-50275756D01*
X9146061Y-50031865D01*
X9238055Y-49773019D01*
X9238057Y-49773011D01*
X9293946Y-49504054D01*
X9293947Y-49504048D01*
X9312692Y-49230004D01*
X9312692Y-49229995D01*
X9293947Y-48955951D01*
X9293946Y-48955945D01*
X9238057Y-48686988D01*
X9238055Y-48686980D01*
X9146061Y-48428134D01*
X9019682Y-48184236D01*
X8889458Y-47999750D01*
X7979234Y-48909974D01*
X7964641Y-48874742D01*
X7882563Y-48751903D01*
X7778097Y-48647437D01*
X7655258Y-48565359D01*
X7620024Y-48550764D01*
X8529284Y-47641505D01*
X8529283Y-47641503D01*
X8460678Y-47585689D01*
X8225969Y-47442961D01*
X7974010Y-47333519D01*
X7709490Y-47259404D01*
X7437364Y-47222000D01*
X7162635Y-47222000D01*
X6890509Y-47259404D01*
X6625989Y-47333519D01*
X6374030Y-47442961D01*
X6139324Y-47585687D01*
X6070714Y-47641504D01*
X6979974Y-48550764D01*
X6944742Y-48565359D01*
X6821903Y-48647437D01*
X6717437Y-48751903D01*
X6635359Y-48874742D01*
X6620764Y-48909974D01*
X5710541Y-47999751D01*
X5710540Y-47999751D01*
X5580317Y-48184236D01*
X5453938Y-48428134D01*
X5361944Y-48686980D01*
X5361942Y-48686988D01*
X5306053Y-48955945D01*
X5306052Y-48955951D01*
X5287308Y-49229995D01*
X4262876Y-49229995D01*
X4237126Y-32999995D01*
X5287308Y-32999995D01*
X5287308Y-33000000D01*
X5306052Y-33274048D01*
X5306053Y-33274054D01*
X5361942Y-33543011D01*
X5361944Y-33543019D01*
X5453938Y-33801865D01*
X5580317Y-34045763D01*
X5710540Y-34230248D01*
X6620764Y-33320024D01*
X6635359Y-33355258D01*
X6717437Y-33478097D01*
X6821903Y-33582563D01*
X6944742Y-33664641D01*
X6979974Y-33679234D01*
X6070714Y-34588494D01*
X6139325Y-34644312D01*
X6374030Y-34787038D01*
X6625989Y-34896480D01*
X6890509Y-34970595D01*
X7162635Y-35007999D01*
X7162649Y-35008000D01*
X7437351Y-35008000D01*
X7437364Y-35007999D01*
X7709490Y-34970595D01*
X7974010Y-34896480D01*
X8225969Y-34787038D01*
X8460680Y-34644308D01*
X8529283Y-34588495D01*
X7620024Y-33679235D01*
X7655258Y-33664641D01*
X7778097Y-33582563D01*
X7882563Y-33478097D01*
X7964641Y-33355258D01*
X7979235Y-33320025D01*
X8889458Y-34230248D01*
X9019683Y-34045759D01*
X9019685Y-34045756D01*
X9146061Y-33801865D01*
X9238055Y-33543019D01*
X9238057Y-33543011D01*
X9293946Y-33274054D01*
X9293947Y-33274048D01*
X9312692Y-33000000D01*
X9312692Y-32999995D01*
X9293947Y-32725951D01*
X9293946Y-32725945D01*
X9238057Y-32456988D01*
X9238055Y-32456980D01*
X9146061Y-32198134D01*
X9019682Y-31954236D01*
X8889458Y-31769750D01*
X7979234Y-32679974D01*
X7964641Y-32644742D01*
X7882563Y-32521903D01*
X7778097Y-32417437D01*
X7655258Y-32335359D01*
X7620024Y-32320764D01*
X8529284Y-31411505D01*
X8529283Y-31411503D01*
X8460678Y-31355689D01*
X8225969Y-31212961D01*
X7974010Y-31103519D01*
X7709490Y-31029404D01*
X7437364Y-30992000D01*
X7162635Y-30992000D01*
X6890509Y-31029404D01*
X6625989Y-31103519D01*
X6374030Y-31212961D01*
X6139324Y-31355687D01*
X6070714Y-31411504D01*
X6979974Y-32320764D01*
X6944742Y-32335359D01*
X6821903Y-32417437D01*
X6717437Y-32521903D01*
X6635359Y-32644742D01*
X6620764Y-32679974D01*
X5710541Y-31769751D01*
X5710540Y-31769751D01*
X5580317Y-31954236D01*
X5453938Y-32198134D01*
X5361944Y-32456980D01*
X5361942Y-32456988D01*
X5306053Y-32725945D01*
X5306052Y-32725951D01*
X5287308Y-32999995D01*
X4237126Y-32999995D01*
X4229475Y-28177995D01*
X5287308Y-28177995D01*
X5287308Y-28178004D01*
X5306052Y-28452048D01*
X5306053Y-28452054D01*
X5361942Y-28721011D01*
X5361944Y-28721019D01*
X5453938Y-28979865D01*
X5580317Y-29223763D01*
X5710540Y-29408248D01*
X6620764Y-28498024D01*
X6635359Y-28533258D01*
X6717437Y-28656097D01*
X6821903Y-28760563D01*
X6944742Y-28842641D01*
X6979974Y-28857234D01*
X6070714Y-29766494D01*
X6139325Y-29822312D01*
X6374030Y-29965038D01*
X6625989Y-30074480D01*
X6890509Y-30148595D01*
X7162635Y-30185999D01*
X7162649Y-30186000D01*
X7437351Y-30186000D01*
X7437364Y-30185999D01*
X7709490Y-30148595D01*
X7974010Y-30074480D01*
X8225969Y-29965038D01*
X8460680Y-29822308D01*
X8529283Y-29766495D01*
X7620024Y-28857235D01*
X7655258Y-28842641D01*
X7778097Y-28760563D01*
X7882563Y-28656097D01*
X7964641Y-28533258D01*
X7979235Y-28498025D01*
X8889458Y-29408248D01*
X9019683Y-29223759D01*
X9019685Y-29223756D01*
X9146061Y-28979865D01*
X9238055Y-28721019D01*
X9238057Y-28721011D01*
X9293946Y-28452054D01*
X9293947Y-28452048D01*
X9312692Y-28178004D01*
X9312692Y-28177995D01*
X9293947Y-27903951D01*
X9293946Y-27903945D01*
X9238057Y-27634988D01*
X9238055Y-27634980D01*
X9146061Y-27376134D01*
X9019682Y-27132236D01*
X8889458Y-26947750D01*
X7979234Y-27857974D01*
X7964641Y-27822742D01*
X7882563Y-27699903D01*
X7778097Y-27595437D01*
X7655258Y-27513359D01*
X7620024Y-27498764D01*
X8529284Y-26589505D01*
X8529283Y-26589503D01*
X8460678Y-26533689D01*
X8225969Y-26390961D01*
X7974010Y-26281519D01*
X7709490Y-26207404D01*
X7437364Y-26170000D01*
X7162635Y-26170000D01*
X6890509Y-26207404D01*
X6625989Y-26281519D01*
X6374030Y-26390961D01*
X6139324Y-26533687D01*
X6070714Y-26589504D01*
X6979974Y-27498764D01*
X6944742Y-27513359D01*
X6821903Y-27595437D01*
X6717437Y-27699903D01*
X6635359Y-27822742D01*
X6620764Y-27857974D01*
X5710541Y-26947751D01*
X5710540Y-26947751D01*
X5580317Y-27132236D01*
X5453938Y-27376134D01*
X5361944Y-27634980D01*
X5361942Y-27634988D01*
X5306053Y-27903945D01*
X5306052Y-27903951D01*
X5287308Y-28177995D01*
X4229475Y-28177995D01*
X4203725Y-11947995D01*
X5287308Y-11947995D01*
X5287308Y-11948004D01*
X5306052Y-12222048D01*
X5306053Y-12222054D01*
X5361942Y-12491011D01*
X5361944Y-12491019D01*
X5453938Y-12749865D01*
X5580317Y-12993763D01*
X5710540Y-13178248D01*
X6620764Y-12268024D01*
X6635359Y-12303258D01*
X6717437Y-12426097D01*
X6821903Y-12530563D01*
X6944742Y-12612641D01*
X6979974Y-12627234D01*
X6070714Y-13536494D01*
X6139325Y-13592312D01*
X6307844Y-13694790D01*
X6355655Y-13747274D01*
X6367501Y-13817275D01*
X6342340Y-13879150D01*
X6193065Y-14073689D01*
X6070604Y-14285798D01*
X6070599Y-14285808D01*
X5976865Y-14512102D01*
X5913469Y-14748699D01*
X5881500Y-14991529D01*
X5881500Y-15756470D01*
X5913469Y-15999300D01*
X5913470Y-15999306D01*
X5913471Y-15999308D01*
X5976865Y-16235898D01*
X6070598Y-16462190D01*
X6070599Y-16462191D01*
X6070604Y-16462201D01*
X6193063Y-16674306D01*
X6342173Y-16868631D01*
X6342182Y-16868641D01*
X6515358Y-17041817D01*
X6515368Y-17041826D01*
X6515369Y-17041827D01*
X6633336Y-17132346D01*
X6709693Y-17190936D01*
X6792660Y-17238837D01*
X6921810Y-17313402D01*
X7148102Y-17407135D01*
X7384692Y-17470529D01*
X7384698Y-17470529D01*
X7384699Y-17470530D01*
X7412560Y-17474198D01*
X7627532Y-17502500D01*
X7627539Y-17502500D01*
X7872461Y-17502500D01*
X7872468Y-17502500D01*
X8115308Y-17470529D01*
X8351898Y-17407135D01*
X8578190Y-17313402D01*
X8790310Y-17190934D01*
X8984631Y-17041827D01*
X9157827Y-16868631D01*
X9306934Y-16674310D01*
X9429402Y-16462190D01*
X9523135Y-16235898D01*
X9586529Y-15999308D01*
X9618500Y-15756468D01*
X9618500Y-14991532D01*
X9618500Y-14991529D01*
X15381500Y-14991529D01*
X15381500Y-15756470D01*
X15413469Y-15999300D01*
X15413470Y-15999306D01*
X15413471Y-15999308D01*
X15476865Y-16235898D01*
X15570598Y-16462190D01*
X15570599Y-16462191D01*
X15570604Y-16462201D01*
X15693063Y-16674306D01*
X15842173Y-16868631D01*
X15842182Y-16868641D01*
X16015358Y-17041817D01*
X16015368Y-17041826D01*
X16015369Y-17041827D01*
X16133336Y-17132346D01*
X16209693Y-17190936D01*
X16292660Y-17238837D01*
X16421810Y-17313402D01*
X16648102Y-17407135D01*
X16884692Y-17470529D01*
X16884698Y-17470529D01*
X16884699Y-17470530D01*
X16912560Y-17474198D01*
X17127532Y-17502500D01*
X17127539Y-17502500D01*
X17372461Y-17502500D01*
X17372468Y-17502500D01*
X17615308Y-17470529D01*
X17851898Y-17407135D01*
X18078190Y-17313402D01*
X18290310Y-17190934D01*
X18484631Y-17041827D01*
X18657827Y-16868631D01*
X18806934Y-16674310D01*
X18929402Y-16462190D01*
X19023135Y-16235898D01*
X19086529Y-15999308D01*
X19118500Y-15756468D01*
X19118500Y-14991532D01*
X19086529Y-14748692D01*
X19023135Y-14512102D01*
X18929402Y-14285810D01*
X18806934Y-14073690D01*
X18657827Y-13879369D01*
X18657826Y-13879368D01*
X18657817Y-13879358D01*
X18484641Y-13706182D01*
X18484631Y-13706173D01*
X18290306Y-13557063D01*
X18078201Y-13434604D01*
X18078196Y-13434601D01*
X18078190Y-13434598D01*
X17851898Y-13340865D01*
X17615308Y-13277471D01*
X17615306Y-13277470D01*
X17615300Y-13277469D01*
X17372470Y-13245500D01*
X17372468Y-13245500D01*
X17127532Y-13245500D01*
X17127529Y-13245500D01*
X16884699Y-13277469D01*
X16884692Y-13277471D01*
X16648102Y-13340865D01*
X16421818Y-13434595D01*
X16421808Y-13434599D01*
X16421798Y-13434604D01*
X16209693Y-13557063D01*
X16015368Y-13706173D01*
X16015358Y-13706182D01*
X15842182Y-13879358D01*
X15842173Y-13879368D01*
X15693063Y-14073693D01*
X15570604Y-14285798D01*
X15570599Y-14285808D01*
X15476865Y-14512102D01*
X15413469Y-14748699D01*
X15381500Y-14991529D01*
X9618500Y-14991529D01*
X9586529Y-14748692D01*
X9523135Y-14512102D01*
X9429402Y-14285810D01*
X9306934Y-14073690D01*
X9157827Y-13879369D01*
X9157826Y-13879368D01*
X9157817Y-13879358D01*
X8984641Y-13706182D01*
X8984631Y-13706173D01*
X8790306Y-13557063D01*
X8578201Y-13434604D01*
X8578196Y-13434601D01*
X8578190Y-13434598D01*
X8351898Y-13340865D01*
X8351894Y-13340863D01*
X8348087Y-13339287D01*
X8348364Y-13338616D01*
X8303502Y-13310714D01*
X7620024Y-12627235D01*
X7655258Y-12612641D01*
X7778097Y-12530563D01*
X7882563Y-12426097D01*
X7964641Y-12303258D01*
X7979235Y-12268025D01*
X8889458Y-13178248D01*
X9019683Y-12993759D01*
X9019685Y-12993756D01*
X9146061Y-12749865D01*
X9238055Y-12491019D01*
X9238057Y-12491011D01*
X9293946Y-12222054D01*
X9293947Y-12222048D01*
X9312692Y-11948004D01*
X9312692Y-11947995D01*
X11636807Y-11947995D01*
X11636807Y-11948004D01*
X11655556Y-12222116D01*
X11655557Y-12222119D01*
X11655558Y-12222130D01*
X11678038Y-12330307D01*
X11711460Y-12491146D01*
X11711462Y-12491154D01*
X11795463Y-12727510D01*
X11803477Y-12750058D01*
X11929754Y-12993763D01*
X11929892Y-12994028D01*
X11997797Y-13090227D01*
X12088343Y-13218502D01*
X12275889Y-13419314D01*
X12489031Y-13592718D01*
X12720023Y-13733187D01*
X12723802Y-13735485D01*
X12738539Y-13741886D01*
X12975823Y-13844953D01*
X13240404Y-13919085D01*
X13335504Y-13932156D01*
X13512604Y-13956499D01*
X13512615Y-13956500D01*
X13787385Y-13956500D01*
X13787395Y-13956499D01*
X13925611Y-13937501D01*
X14059596Y-13919085D01*
X14324177Y-13844953D01*
X14576200Y-13735484D01*
X14810969Y-13592718D01*
X15024111Y-13419314D01*
X15211657Y-13218502D01*
X15370111Y-12994023D01*
X15496523Y-12750058D01*
X15588538Y-12491153D01*
X15644442Y-12222130D01*
X15648719Y-12159598D01*
X15663193Y-11948004D01*
X15663193Y-11947995D01*
X15644443Y-11673883D01*
X15644442Y-11673877D01*
X15644442Y-11673870D01*
X15588538Y-11404847D01*
X15496523Y-11145942D01*
X15370111Y-10901977D01*
X15211657Y-10677498D01*
X15024111Y-10476686D01*
X14810969Y-10303282D01*
X14576200Y-10160516D01*
X14576201Y-10160516D01*
X14576197Y-10160514D01*
X14324180Y-10051048D01*
X14324178Y-10051047D01*
X14324177Y-10051047D01*
X14191886Y-10013981D01*
X14059593Y-9976914D01*
X13787395Y-9939500D01*
X13787385Y-9939500D01*
X13512615Y-9939500D01*
X13512604Y-9939500D01*
X13240406Y-9976914D01*
X12975819Y-10051048D01*
X12723802Y-10160514D01*
X12489028Y-10303284D01*
X12275886Y-10476688D01*
X12088343Y-10677498D01*
X11929892Y-10901971D01*
X11803477Y-11145941D01*
X11711462Y-11404845D01*
X11711460Y-11404853D01*
X11655557Y-11673877D01*
X11655556Y-11673883D01*
X11636807Y-11947995D01*
X9312692Y-11947995D01*
X9293947Y-11673951D01*
X9293946Y-11673945D01*
X9238057Y-11404988D01*
X9238055Y-11404980D01*
X9146061Y-11146134D01*
X9019682Y-10902236D01*
X8889458Y-10717750D01*
X7979234Y-11627974D01*
X7964641Y-11592742D01*
X7882563Y-11469903D01*
X7778097Y-11365437D01*
X7655258Y-11283359D01*
X7620024Y-11268764D01*
X8529284Y-10359505D01*
X8529283Y-10359503D01*
X8460678Y-10303689D01*
X8225969Y-10160961D01*
X7974010Y-10051519D01*
X7709490Y-9977404D01*
X7437364Y-9940000D01*
X7162635Y-9940000D01*
X6890509Y-9977404D01*
X6625989Y-10051519D01*
X6374030Y-10160961D01*
X6139324Y-10303687D01*
X6070714Y-10359504D01*
X6979974Y-11268764D01*
X6944742Y-11283359D01*
X6821903Y-11365437D01*
X6717437Y-11469903D01*
X6635359Y-11592742D01*
X6620764Y-11627974D01*
X5710541Y-10717751D01*
X5710540Y-10717751D01*
X5580317Y-10902236D01*
X5453938Y-11146134D01*
X5361944Y-11404980D01*
X5361942Y-11404988D01*
X5306053Y-11673945D01*
X5306052Y-11673951D01*
X5287308Y-11947995D01*
X4203725Y-11947995D01*
X4200200Y-9726199D01*
X4220094Y-9658048D01*
X4273676Y-9611470D01*
X4326200Y-9600000D01*
X26600742Y-9600000D01*
X26668863Y-9620002D01*
G37*
%TD.AperFunction*%
%TA.AperFunction,Conductor*%
G36*
X24418032Y-34769246D02*
G01*
X24474868Y-34811793D01*
X24499679Y-34878313D01*
X24500000Y-34887302D01*
X24500000Y-51500000D01*
X33299906Y-51500000D01*
X33368027Y-51520002D01*
X33414520Y-51573658D01*
X33424624Y-51643932D01*
X33395130Y-51708512D01*
X33389001Y-51715095D01*
X32007931Y-53096164D01*
X32007926Y-53096171D01*
X31938601Y-53199923D01*
X31890846Y-53315212D01*
X31866500Y-53437603D01*
X31866500Y-54297474D01*
X31846498Y-54365595D01*
X31834137Y-54381784D01*
X31760957Y-54463059D01*
X31665476Y-54628438D01*
X31665473Y-54628445D01*
X31606457Y-54810072D01*
X31586496Y-55000000D01*
X31606457Y-55189927D01*
X31621026Y-55234763D01*
X31665473Y-55371556D01*
X31665476Y-55371561D01*
X31760958Y-55536941D01*
X31760965Y-55536951D01*
X31888744Y-55678864D01*
X31888747Y-55678866D01*
X32043248Y-55791118D01*
X32217712Y-55868794D01*
X32404513Y-55908500D01*
X32595487Y-55908500D01*
X32782288Y-55868794D01*
X32956752Y-55791118D01*
X33111253Y-55678866D01*
X33142369Y-55644308D01*
X33239034Y-55536951D01*
X33239035Y-55536949D01*
X33239040Y-55536944D01*
X33334527Y-55371556D01*
X33393542Y-55189928D01*
X33413504Y-55000000D01*
X33393542Y-54810072D01*
X33334527Y-54628444D01*
X33239040Y-54463056D01*
X33165863Y-54381784D01*
X33135146Y-54317776D01*
X33133500Y-54297474D01*
X33133500Y-53814594D01*
X33153502Y-53746473D01*
X33170405Y-53725499D01*
X35358999Y-51536905D01*
X35421311Y-51502879D01*
X35448094Y-51500000D01*
X35500000Y-51500000D01*
X35500000Y-51448093D01*
X35520002Y-51379972D01*
X35536900Y-51359003D01*
X37772625Y-49123277D01*
X37834935Y-49089254D01*
X37905750Y-49094318D01*
X37962586Y-49136865D01*
X37987397Y-49203385D01*
X37987424Y-49220970D01*
X37986807Y-49229992D01*
X37986807Y-49230004D01*
X38005556Y-49504116D01*
X38005557Y-49504122D01*
X38005558Y-49504130D01*
X38036217Y-49651670D01*
X38061460Y-49773146D01*
X38061462Y-49773154D01*
X38153408Y-50031865D01*
X38153477Y-50032058D01*
X38279754Y-50275763D01*
X38279892Y-50276028D01*
X38331296Y-50348851D01*
X38438343Y-50500502D01*
X38625889Y-50701314D01*
X38839031Y-50874718D01*
X39073800Y-51017484D01*
X39325823Y-51126953D01*
X39590404Y-51201085D01*
X39685504Y-51214156D01*
X39862604Y-51238499D01*
X39862615Y-51238500D01*
X40137385Y-51238500D01*
X40137395Y-51238499D01*
X40266945Y-51220692D01*
X40409596Y-51201085D01*
X40674177Y-51126953D01*
X40926200Y-51017484D01*
X41160969Y-50874718D01*
X41374111Y-50701314D01*
X41561657Y-50500502D01*
X41637562Y-50392969D01*
X41693186Y-50348851D01*
X41763833Y-50341809D01*
X41827071Y-50374080D01*
X41862824Y-50435417D01*
X41866500Y-50465630D01*
X41866500Y-52765235D01*
X41846498Y-52833356D01*
X41792842Y-52879849D01*
X41722568Y-52889953D01*
X41657988Y-52860459D01*
X41637562Y-52837896D01*
X41589460Y-52769750D01*
X41589458Y-52769750D01*
X40679234Y-53679974D01*
X40664641Y-53644742D01*
X40582563Y-53521903D01*
X40478097Y-53417437D01*
X40355258Y-53335359D01*
X40320024Y-53320764D01*
X41229284Y-52411505D01*
X41229283Y-52411503D01*
X41160678Y-52355689D01*
X40925969Y-52212961D01*
X40674010Y-52103519D01*
X40409490Y-52029404D01*
X40137364Y-51992000D01*
X39862635Y-51992000D01*
X39590509Y-52029404D01*
X39325989Y-52103519D01*
X39074030Y-52212961D01*
X38839324Y-52355687D01*
X38770714Y-52411504D01*
X39679974Y-53320764D01*
X39644742Y-53335359D01*
X39521903Y-53417437D01*
X39417437Y-53521903D01*
X39335359Y-53644742D01*
X39320764Y-53679974D01*
X38410541Y-52769751D01*
X38410540Y-52769751D01*
X38280317Y-52954236D01*
X38153938Y-53198134D01*
X38061944Y-53456980D01*
X38061942Y-53456988D01*
X38006053Y-53725945D01*
X38006052Y-53725951D01*
X37987308Y-53999995D01*
X37987308Y-54000004D01*
X38006052Y-54274048D01*
X38006053Y-54274054D01*
X38061942Y-54543011D01*
X38061944Y-54543019D01*
X38153938Y-54801865D01*
X38280317Y-55045763D01*
X38410540Y-55230248D01*
X39320764Y-54320024D01*
X39335359Y-54355258D01*
X39417437Y-54478097D01*
X39521903Y-54582563D01*
X39644742Y-54664641D01*
X39679974Y-54679234D01*
X38770714Y-55588494D01*
X38839325Y-55644312D01*
X39074030Y-55787038D01*
X39325989Y-55896480D01*
X39590509Y-55970595D01*
X39862635Y-56007999D01*
X39862649Y-56008000D01*
X40137351Y-56008000D01*
X40137364Y-56007999D01*
X40409490Y-55970595D01*
X40674010Y-55896480D01*
X40925969Y-55787038D01*
X41160680Y-55644308D01*
X41229283Y-55588495D01*
X40320024Y-54679235D01*
X40355258Y-54664641D01*
X40478097Y-54582563D01*
X40582563Y-54478097D01*
X40664641Y-54355258D01*
X40679235Y-54320025D01*
X41589458Y-55230248D01*
X41637561Y-55162102D01*
X41693186Y-55117984D01*
X41763832Y-55110942D01*
X41827071Y-55143213D01*
X41862824Y-55204550D01*
X41866500Y-55234763D01*
X41866500Y-57797474D01*
X41846498Y-57865595D01*
X41834137Y-57881784D01*
X41760957Y-57963059D01*
X41665476Y-58128438D01*
X41665473Y-58128445D01*
X41606457Y-58310072D01*
X41586496Y-58500000D01*
X41606457Y-58689927D01*
X41636526Y-58782470D01*
X41665473Y-58871556D01*
X41665476Y-58871561D01*
X41760958Y-59036941D01*
X41760961Y-59036945D01*
X41838014Y-59122522D01*
X41868731Y-59186530D01*
X41859966Y-59256983D01*
X41833473Y-59295927D01*
X41608820Y-59520582D01*
X41608819Y-59520582D01*
X36799806Y-64329595D01*
X36737494Y-64363621D01*
X36710711Y-64366500D01*
X34633122Y-64366500D01*
X34565001Y-64346498D01*
X34518508Y-64292842D01*
X34508404Y-64222568D01*
X34537898Y-64157988D01*
X34555731Y-64141069D01*
X34733234Y-64002911D01*
X34733235Y-64002909D01*
X34733240Y-64002906D01*
X34885722Y-63837268D01*
X35008860Y-63648791D01*
X35099296Y-63442616D01*
X35154564Y-63224368D01*
X35173156Y-63000000D01*
X35154564Y-62775632D01*
X35107453Y-62589594D01*
X35099297Y-62557387D01*
X35099296Y-62557386D01*
X35099296Y-62557384D01*
X35008860Y-62351209D01*
X34993693Y-62327994D01*
X34885724Y-62162734D01*
X34885720Y-62162729D01*
X34733237Y-61997091D01*
X34651382Y-61933381D01*
X34555576Y-61858811D01*
X34522319Y-61840813D01*
X34471929Y-61790802D01*
X34456576Y-61721485D01*
X34481136Y-61654872D01*
X34522320Y-61619186D01*
X34555576Y-61601189D01*
X34733240Y-61462906D01*
X34885722Y-61297268D01*
X35008860Y-61108791D01*
X35099296Y-60902616D01*
X35154564Y-60684368D01*
X35173156Y-60460000D01*
X35154564Y-60235632D01*
X35112202Y-60068348D01*
X35099297Y-60017387D01*
X35099296Y-60017386D01*
X35099296Y-60017384D01*
X35008860Y-59811209D01*
X35002140Y-59800924D01*
X34885724Y-59622734D01*
X34885720Y-59622729D01*
X34733237Y-59457091D01*
X34651382Y-59393381D01*
X34555576Y-59318811D01*
X34357574Y-59211658D01*
X34357572Y-59211657D01*
X34357571Y-59211656D01*
X34144639Y-59138557D01*
X34144630Y-59138555D01*
X34100476Y-59131187D01*
X33922569Y-59101500D01*
X33697431Y-59101500D01*
X33549211Y-59126233D01*
X33475369Y-59138555D01*
X33475360Y-59138557D01*
X33262428Y-59211656D01*
X33262426Y-59211658D01*
X33178673Y-59256983D01*
X33064426Y-59318810D01*
X33064424Y-59318811D01*
X32886762Y-59457091D01*
X32734279Y-59622729D01*
X32645483Y-59758643D01*
X32591479Y-59804731D01*
X32521131Y-59814306D01*
X32456774Y-59784329D01*
X32434517Y-59758643D01*
X32345720Y-59622729D01*
X32193237Y-59457091D01*
X32111382Y-59393381D01*
X32015576Y-59318811D01*
X31817574Y-59211658D01*
X31817572Y-59211657D01*
X31817571Y-59211656D01*
X31604639Y-59138557D01*
X31604630Y-59138555D01*
X31560476Y-59131187D01*
X31382569Y-59101500D01*
X31157431Y-59101500D01*
X31009211Y-59126233D01*
X30935369Y-59138555D01*
X30935360Y-59138557D01*
X30722428Y-59211656D01*
X30722426Y-59211658D01*
X30638673Y-59256983D01*
X30524426Y-59318810D01*
X30524424Y-59318811D01*
X30346762Y-59457091D01*
X30194279Y-59622729D01*
X30105483Y-59758643D01*
X30051479Y-59804731D01*
X29981131Y-59814306D01*
X29916774Y-59784329D01*
X29894517Y-59758643D01*
X29805720Y-59622729D01*
X29653237Y-59457091D01*
X29571382Y-59393381D01*
X29475576Y-59318811D01*
X29277574Y-59211658D01*
X29277572Y-59211657D01*
X29277571Y-59211656D01*
X29064639Y-59138557D01*
X29064630Y-59138555D01*
X29020476Y-59131187D01*
X28842569Y-59101500D01*
X28617431Y-59101500D01*
X28469211Y-59126233D01*
X28395369Y-59138555D01*
X28395360Y-59138557D01*
X28182428Y-59211656D01*
X28182426Y-59211658D01*
X28098673Y-59256983D01*
X27984426Y-59318810D01*
X27984424Y-59318811D01*
X27806762Y-59457091D01*
X27654279Y-59622729D01*
X27565483Y-59758643D01*
X27511479Y-59804731D01*
X27441131Y-59814306D01*
X27376774Y-59784329D01*
X27354517Y-59758643D01*
X27265720Y-59622729D01*
X27113237Y-59457091D01*
X27031382Y-59393381D01*
X26935576Y-59318811D01*
X26737574Y-59211658D01*
X26737572Y-59211657D01*
X26737571Y-59211656D01*
X26524639Y-59138557D01*
X26524630Y-59138555D01*
X26480476Y-59131187D01*
X26302569Y-59101500D01*
X26077431Y-59101500D01*
X25951452Y-59122522D01*
X25855356Y-59138557D01*
X25852227Y-59139350D01*
X25850905Y-59139300D01*
X25850224Y-59139414D01*
X25850200Y-59139273D01*
X25781281Y-59136681D01*
X25732204Y-59106300D01*
X24170405Y-57544501D01*
X24136379Y-57482189D01*
X24133500Y-57455406D01*
X24133500Y-35001802D01*
X24153502Y-34933681D01*
X24170405Y-34912707D01*
X24284905Y-34798207D01*
X24347217Y-34764181D01*
X24418032Y-34769246D01*
G37*
%TD.AperFunction*%
%TD*%
M02*
