%TF.GenerationSoftware,KiCad,Pcbnew,8.0.8*%
%TF.CreationDate,2025-04-05T00:59:39-04:00*%
%TF.ProjectId,splitter,73706c69-7474-4657-922e-6b696361645f,rev?*%
%TF.SameCoordinates,Original*%
%TF.FileFunction,Soldermask,Top*%
%TF.FilePolarity,Negative*%
%FSLAX46Y46*%
G04 Gerber Fmt 4.6, Leading zero omitted, Abs format (unit mm)*
G04 Created by KiCad (PCBNEW 8.0.8) date 2025-04-05 00:59:39*
%MOMM*%
%LPD*%
G01*
G04 APERTURE LIST*
G04 Aperture macros list*
%AMRoundRect*
0 Rectangle with rounded corners*
0 $1 Rounding radius*
0 $2 $3 $4 $5 $6 $7 $8 $9 X,Y pos of 4 corners*
0 Add a 4 corners polygon primitive as box body*
4,1,4,$2,$3,$4,$5,$6,$7,$8,$9,$2,$3,0*
0 Add four circle primitives for the rounded corners*
1,1,$1+$1,$2,$3*
1,1,$1+$1,$4,$5*
1,1,$1+$1,$6,$7*
1,1,$1+$1,$8,$9*
0 Add four rect primitives between the rounded corners*
20,1,$1+$1,$2,$3,$4,$5,0*
20,1,$1+$1,$4,$5,$6,$7,0*
20,1,$1+$1,$6,$7,$8,$9,0*
20,1,$1+$1,$8,$9,$2,$3,0*%
%AMFreePoly0*
4,1,35,0.535355,0.785355,0.550000,0.750000,0.550000,-0.750000,0.535355,-0.785355,0.500000,-0.800000,0.000000,-0.800000,-0.012286,-0.794911,-0.071157,-0.794911,-0.085244,-0.792886,-0.221795,-0.752791,-0.234740,-0.746879,-0.354462,-0.669938,-0.365217,-0.660618,-0.458414,-0.553063,-0.466109,-0.541091,-0.525228,-0.411637,-0.529237,-0.397982,-0.549491,-0.257116,-0.550000,-0.250000,-0.550000,0.250000,
-0.549491,0.257116,-0.529237,0.397982,-0.525228,0.411637,-0.466109,0.541091,-0.458414,0.553063,-0.365217,0.660618,-0.354462,0.669938,-0.234740,0.746879,-0.221795,0.752791,-0.085244,0.792886,-0.071157,0.794911,-0.012286,0.794911,0.000000,0.800000,0.500000,0.800000,0.535355,0.785355,0.535355,0.785355,$1*%
%AMFreePoly1*
4,1,35,0.012286,0.794911,0.071157,0.794911,0.085244,0.792886,0.221795,0.752791,0.234740,0.746879,0.354462,0.669938,0.365217,0.660618,0.458414,0.553063,0.466109,0.541091,0.525228,0.411637,0.529237,0.397982,0.549491,0.257116,0.550000,0.250000,0.550000,-0.250000,0.549491,-0.257116,0.529237,-0.397982,0.525228,-0.411637,0.466109,-0.541091,0.458414,-0.553063,0.365217,-0.660618,
0.354462,-0.669938,0.234740,-0.746879,0.221795,-0.752791,0.085244,-0.792886,0.071157,-0.794911,0.012286,-0.794911,0.000000,-0.800000,-0.500000,-0.800000,-0.535355,-0.785355,-0.550000,-0.750000,-0.550000,0.750000,-0.535355,0.785355,-0.500000,0.800000,0.000000,0.800000,0.012286,0.794911,0.012286,0.794911,$1*%
%AMFreePoly2*
4,1,35,0.585355,0.785355,0.600000,0.750000,0.600000,-0.750000,0.585355,-0.785355,0.550000,-0.800000,0.000000,-0.800000,-0.012286,-0.794911,-0.071157,-0.794911,-0.085244,-0.792886,-0.221795,-0.752791,-0.234740,-0.746879,-0.354462,-0.669938,-0.365217,-0.660618,-0.458414,-0.553063,-0.466109,-0.541091,-0.525228,-0.411637,-0.529237,-0.397982,-0.549491,-0.257116,-0.550000,-0.250000,-0.550000,0.250000,
-0.549491,0.257116,-0.529237,0.397982,-0.525228,0.411637,-0.466109,0.541091,-0.458414,0.553063,-0.365217,0.660618,-0.354462,0.669938,-0.234740,0.746879,-0.221795,0.752791,-0.085244,0.792886,-0.071157,0.794911,-0.012286,0.794911,0.000000,0.800000,0.550000,0.800000,0.585355,0.785355,0.585355,0.785355,$1*%
%AMFreePoly3*
4,1,35,0.012286,0.794911,0.071157,0.794911,0.085244,0.792886,0.221795,0.752791,0.234740,0.746879,0.354462,0.669938,0.365217,0.660618,0.458414,0.553063,0.466109,0.541091,0.525228,0.411637,0.529237,0.397982,0.549491,0.257116,0.550000,0.250000,0.550000,-0.250000,0.549491,-0.257116,0.529237,-0.397982,0.525228,-0.411637,0.466109,-0.541091,0.458414,-0.553063,0.365217,-0.660618,
0.354462,-0.669938,0.234740,-0.746879,0.221795,-0.752791,0.085244,-0.792886,0.071157,-0.794911,0.012286,-0.794911,0.000000,-0.800000,-0.550000,-0.800000,-0.585355,-0.785355,-0.600000,-0.750000,-0.600000,0.750000,-0.585355,0.785355,-0.550000,0.800000,0.000000,0.800000,0.012286,0.794911,0.012286,0.794911,$1*%
G04 Aperture macros list end*
%ADD10RoundRect,0.275000X-0.500000X0.275000X-0.500000X-0.275000X0.500000X-0.275000X0.500000X0.275000X0*%
%ADD11RoundRect,0.050000X0.900000X0.900000X-0.900000X0.900000X-0.900000X-0.900000X0.900000X-0.900000X0*%
%ADD12C,1.900000*%
%ADD13RoundRect,0.050000X0.850000X0.850000X-0.850000X0.850000X-0.850000X-0.850000X0.850000X-0.850000X0*%
%ADD14O,1.800000X1.800000*%
%ADD15RoundRect,0.274390X-0.475610X0.288110X-0.475610X-0.288110X0.475610X-0.288110X0.475610X0.288110X0*%
%ADD16RoundRect,0.274390X0.475610X-0.288110X0.475610X0.288110X-0.475610X0.288110X-0.475610X-0.288110X0*%
%ADD17RoundRect,0.050000X-0.800000X-0.800000X0.800000X-0.800000X0.800000X0.800000X-0.800000X0.800000X0*%
%ADD18O,1.700000X1.700000*%
%ADD19RoundRect,0.050000X0.750000X-0.750000X0.750000X0.750000X-0.750000X0.750000X-0.750000X-0.750000X0*%
%ADD20C,1.600000*%
%ADD21RoundRect,0.274390X0.288110X0.475610X-0.288110X0.475610X-0.288110X-0.475610X0.288110X-0.475610X0*%
%ADD22FreePoly0,0.000000*%
%ADD23FreePoly1,0.000000*%
%ADD24O,2.820000X3.340000*%
%ADD25O,1.600000X2.100000*%
%ADD26RoundRect,0.050000X-0.700000X0.750000X-0.700000X-0.750000X0.700000X-0.750000X0.700000X0.750000X0*%
%ADD27RoundRect,0.275000X0.500000X-0.275000X0.500000X0.275000X-0.500000X0.275000X-0.500000X-0.275000X0*%
%ADD28FreePoly2,90.000000*%
%ADD29RoundRect,0.050000X0.750000X-0.500000X0.750000X0.500000X-0.750000X0.500000X-0.750000X-0.500000X0*%
%ADD30FreePoly3,90.000000*%
%ADD31RoundRect,0.264706X0.635294X-0.635294X0.635294X0.635294X-0.635294X0.635294X-0.635294X-0.635294X0*%
%ADD32C,1.800000*%
%ADD33FreePoly2,0.000000*%
%ADD34RoundRect,0.050000X-0.500000X-0.750000X0.500000X-0.750000X0.500000X0.750000X-0.500000X0.750000X0*%
%ADD35FreePoly3,0.000000*%
%ADD36C,3.100000*%
G04 APERTURE END LIST*
D10*
%TO.C,C2*%
X14500000Y-40550000D03*
X14500000Y-42450000D03*
%TD*%
%TO.C,C3*%
X12000000Y-40550000D03*
X12000000Y-42450000D03*
%TD*%
D11*
%TO.C,D1*%
X31500000Y-30500000D03*
D12*
X28960000Y-30500000D03*
%TD*%
D13*
%TO.C,J7*%
X23876000Y-14462000D03*
D14*
X23876000Y-11922000D03*
%TD*%
D15*
%TO.C,R1*%
X9500000Y-40587500D03*
X9500000Y-42412500D03*
%TD*%
%TO.C,R2*%
X7000000Y-40587500D03*
X7000000Y-42412500D03*
%TD*%
%TO.C,R4*%
X37000000Y-42675000D03*
X37000000Y-44500000D03*
%TD*%
D16*
%TO.C,R5*%
X50000000Y-44412500D03*
X50000000Y-42587500D03*
%TD*%
D17*
%TO.C,U1*%
X26250000Y-34760000D03*
D18*
X26250000Y-37300000D03*
X26250000Y-39840000D03*
X26250000Y-42380000D03*
X26250000Y-44920000D03*
X26250000Y-47460000D03*
X26250000Y-50000000D03*
X33870000Y-50000000D03*
X33870000Y-47460000D03*
X33870000Y-44920000D03*
X33870000Y-42380000D03*
X33870000Y-39840000D03*
X33870000Y-37300000D03*
X33870000Y-34760000D03*
%TD*%
D19*
%TO.C,U2*%
X21992000Y-22844000D03*
D20*
X21992000Y-20304000D03*
X21992000Y-17764000D03*
%TD*%
D15*
%TO.C,R3*%
X39500000Y-42675000D03*
X39500000Y-44500000D03*
%TD*%
D21*
%TO.C,R7*%
X24912500Y-26000000D03*
X23087500Y-26000000D03*
%TD*%
D15*
%TO.C,R6*%
X47500000Y-38087500D03*
X47500000Y-39912500D03*
%TD*%
D22*
%TO.C,JP2*%
X38350000Y-24500000D03*
D23*
X39650000Y-24500000D03*
%TD*%
D15*
%TO.C,R10*%
X52500000Y-38000000D03*
X52500000Y-39825000D03*
%TD*%
D24*
%TO.C,RV2*%
X42700000Y-15374000D03*
X52300000Y-15374000D03*
D11*
X45000000Y-22874000D03*
D12*
X47500000Y-22874000D03*
X50000000Y-22874000D03*
%TD*%
D24*
%TO.C,RV1*%
X7750000Y-15374000D03*
X17250000Y-15374000D03*
D11*
X10000000Y-22874000D03*
D12*
X12500000Y-22874000D03*
X15000000Y-22874000D03*
X10000000Y-25374000D03*
X12500000Y-25374000D03*
X15000000Y-25374000D03*
%TD*%
D25*
%TO.C,SW2*%
X33000000Y-11250000D03*
X27150000Y-11250000D03*
X32850000Y-26250000D03*
X27150000Y-26250000D03*
D26*
X31250000Y-14750000D03*
D20*
X31250000Y-16750000D03*
X31250000Y-18750000D03*
X31250000Y-22750000D03*
X28750000Y-14750000D03*
X28750000Y-16750000D03*
X28750000Y-18750000D03*
X28750000Y-22750000D03*
%TD*%
D27*
%TO.C,C9*%
X25000000Y-31450000D03*
X25000000Y-29550000D03*
%TD*%
D10*
%TO.C,C10*%
X35500000Y-29550000D03*
X35500000Y-31450000D03*
%TD*%
D27*
%TO.C,C1*%
X17000000Y-42450000D03*
X17000000Y-40550000D03*
%TD*%
D15*
%TO.C,R11*%
X19500000Y-40587500D03*
X19500000Y-42412500D03*
%TD*%
D16*
%TO.C,R8*%
X52500000Y-44412500D03*
X52500000Y-42587500D03*
%TD*%
D10*
%TO.C,C8*%
X45000000Y-42550000D03*
X45000000Y-44450000D03*
%TD*%
D27*
%TO.C,C5*%
X39500000Y-39950000D03*
X39500000Y-38050000D03*
%TD*%
%TO.C,C6*%
X47500000Y-44450000D03*
X47500000Y-42550000D03*
%TD*%
D28*
%TO.C,JP1*%
X42500000Y-62600000D03*
D29*
X42500000Y-61300000D03*
D30*
X42500000Y-60000000D03*
%TD*%
D16*
%TO.C,R12*%
X22000000Y-42412500D03*
X22000000Y-40587500D03*
%TD*%
D27*
%TO.C,C4*%
X45000000Y-39950000D03*
X45000000Y-38050000D03*
%TD*%
D15*
%TO.C,R9*%
X50000000Y-38087500D03*
X50000000Y-39912500D03*
%TD*%
D31*
%TO.C,J8*%
X26190000Y-63000000D03*
D32*
X26190000Y-60460000D03*
X28730000Y-63000000D03*
X28730000Y-60460000D03*
X31270000Y-63000000D03*
X31270000Y-60460000D03*
X33810000Y-63000000D03*
X33810000Y-60460000D03*
%TD*%
D27*
%TO.C,C7*%
X42500000Y-39900000D03*
X42500000Y-38000000D03*
%TD*%
D33*
%TO.C,JP3*%
X28400000Y-55000000D03*
D34*
X29700000Y-55000000D03*
D35*
X31000000Y-55000000D03*
%TD*%
D36*
%TO.C,J1*%
X46350000Y-70230000D03*
X46350000Y-54000000D03*
X52700000Y-70230000D03*
X52700000Y-54000000D03*
X40000000Y-70230000D03*
X40000000Y-54000000D03*
%TD*%
%TO.C,J6*%
X13650000Y-54000000D03*
X13650000Y-70230000D03*
X7300000Y-54000000D03*
X7300000Y-70230000D03*
X20000000Y-54000000D03*
X20000000Y-70230000D03*
%TD*%
%TO.C,J2*%
X46350000Y-49230000D03*
X46350000Y-33000000D03*
X52700000Y-49230000D03*
X52700000Y-33000000D03*
X40000000Y-49230000D03*
X40000000Y-33000000D03*
%TD*%
%TO.C,J4*%
X13650000Y-33000000D03*
X13650000Y-49230000D03*
X7300000Y-33000000D03*
X7300000Y-49230000D03*
X20000000Y-33000000D03*
X20000000Y-49230000D03*
%TD*%
%TO.C,J5*%
X13650000Y-11948000D03*
X13650000Y-28178000D03*
X7300000Y-11948000D03*
X7300000Y-28178000D03*
X20000000Y-11948000D03*
X20000000Y-28178000D03*
%TD*%
%TO.C,J3*%
X46350000Y-28178000D03*
X46350000Y-11948000D03*
X52700000Y-28178000D03*
X52700000Y-11948000D03*
X40000000Y-28178000D03*
X40000000Y-11948000D03*
%TD*%
M02*
