%TF.GenerationSoftware,KiCad,Pcbnew,8.0.8*%
%TF.CreationDate,2025-04-05T00:59:39-04:00*%
%TF.ProjectId,splitter,73706c69-7474-4657-922e-6b696361645f,rev?*%
%TF.SameCoordinates,Original*%
%TF.FileFunction,Soldermask,Bot*%
%TF.FilePolarity,Negative*%
%FSLAX46Y46*%
G04 Gerber Fmt 4.6, Leading zero omitted, Abs format (unit mm)*
G04 Created by KiCad (PCBNEW 8.0.8) date 2025-04-05 00:59:39*
%MOMM*%
%LPD*%
G01*
G04 APERTURE LIST*
G04 Aperture macros list*
%AMRoundRect*
0 Rectangle with rounded corners*
0 $1 Rounding radius*
0 $2 $3 $4 $5 $6 $7 $8 $9 X,Y pos of 4 corners*
0 Add a 4 corners polygon primitive as box body*
4,1,4,$2,$3,$4,$5,$6,$7,$8,$9,$2,$3,0*
0 Add four circle primitives for the rounded corners*
1,1,$1+$1,$2,$3*
1,1,$1+$1,$4,$5*
1,1,$1+$1,$6,$7*
1,1,$1+$1,$8,$9*
0 Add four rect primitives between the rounded corners*
20,1,$1+$1,$2,$3,$4,$5,0*
20,1,$1+$1,$4,$5,$6,$7,0*
20,1,$1+$1,$6,$7,$8,$9,0*
20,1,$1+$1,$8,$9,$2,$3,0*%
G04 Aperture macros list end*
%ADD10RoundRect,0.050000X0.900000X0.900000X-0.900000X0.900000X-0.900000X-0.900000X0.900000X-0.900000X0*%
%ADD11C,1.900000*%
%ADD12RoundRect,0.050000X0.850000X0.850000X-0.850000X0.850000X-0.850000X-0.850000X0.850000X-0.850000X0*%
%ADD13O,1.800000X1.800000*%
%ADD14RoundRect,0.050000X-0.800000X-0.800000X0.800000X-0.800000X0.800000X0.800000X-0.800000X0.800000X0*%
%ADD15O,1.700000X1.700000*%
%ADD16RoundRect,0.050000X0.750000X-0.750000X0.750000X0.750000X-0.750000X0.750000X-0.750000X-0.750000X0*%
%ADD17C,1.600000*%
%ADD18O,2.820000X3.340000*%
%ADD19O,1.600000X2.100000*%
%ADD20RoundRect,0.050000X-0.700000X0.750000X-0.700000X-0.750000X0.700000X-0.750000X0.700000X0.750000X0*%
%ADD21RoundRect,0.264706X0.635294X-0.635294X0.635294X0.635294X-0.635294X0.635294X-0.635294X-0.635294X0*%
%ADD22C,1.800000*%
%ADD23C,3.100000*%
G04 APERTURE END LIST*
D10*
%TO.C,D1*%
X31500000Y-30500000D03*
D11*
X28960000Y-30500000D03*
%TD*%
D12*
%TO.C,J7*%
X23876000Y-14462000D03*
D13*
X23876000Y-11922000D03*
%TD*%
D14*
%TO.C,U1*%
X26250000Y-34760000D03*
D15*
X26250000Y-37300000D03*
X26250000Y-39840000D03*
X26250000Y-42380000D03*
X26250000Y-44920000D03*
X26250000Y-47460000D03*
X26250000Y-50000000D03*
X33870000Y-50000000D03*
X33870000Y-47460000D03*
X33870000Y-44920000D03*
X33870000Y-42380000D03*
X33870000Y-39840000D03*
X33870000Y-37300000D03*
X33870000Y-34760000D03*
%TD*%
D16*
%TO.C,U2*%
X21992000Y-22844000D03*
D17*
X21992000Y-20304000D03*
X21992000Y-17764000D03*
%TD*%
D18*
%TO.C,RV2*%
X42700000Y-15374000D03*
X52300000Y-15374000D03*
D10*
X45000000Y-22874000D03*
D11*
X47500000Y-22874000D03*
X50000000Y-22874000D03*
%TD*%
D18*
%TO.C,RV1*%
X7750000Y-15374000D03*
X17250000Y-15374000D03*
D10*
X10000000Y-22874000D03*
D11*
X12500000Y-22874000D03*
X15000000Y-22874000D03*
X10000000Y-25374000D03*
X12500000Y-25374000D03*
X15000000Y-25374000D03*
%TD*%
D19*
%TO.C,SW2*%
X33000000Y-11250000D03*
X27150000Y-11250000D03*
X32850000Y-26250000D03*
X27150000Y-26250000D03*
D20*
X31250000Y-14750000D03*
D17*
X31250000Y-16750000D03*
X31250000Y-18750000D03*
X31250000Y-22750000D03*
X28750000Y-14750000D03*
X28750000Y-16750000D03*
X28750000Y-18750000D03*
X28750000Y-22750000D03*
%TD*%
D21*
%TO.C,J8*%
X26190000Y-63000000D03*
D22*
X26190000Y-60460000D03*
X28730000Y-63000000D03*
X28730000Y-60460000D03*
X31270000Y-63000000D03*
X31270000Y-60460000D03*
X33810000Y-63000000D03*
X33810000Y-60460000D03*
%TD*%
D23*
%TO.C,J1*%
X46350000Y-70230000D03*
X46350000Y-54000000D03*
X52700000Y-70230000D03*
X52700000Y-54000000D03*
X40000000Y-70230000D03*
X40000000Y-54000000D03*
%TD*%
%TO.C,J6*%
X13650000Y-54000000D03*
X13650000Y-70230000D03*
X7300000Y-54000000D03*
X7300000Y-70230000D03*
X20000000Y-54000000D03*
X20000000Y-70230000D03*
%TD*%
%TO.C,J2*%
X46350000Y-49230000D03*
X46350000Y-33000000D03*
X52700000Y-49230000D03*
X52700000Y-33000000D03*
X40000000Y-49230000D03*
X40000000Y-33000000D03*
%TD*%
%TO.C,J4*%
X13650000Y-33000000D03*
X13650000Y-49230000D03*
X7300000Y-33000000D03*
X7300000Y-49230000D03*
X20000000Y-33000000D03*
X20000000Y-49230000D03*
%TD*%
%TO.C,J5*%
X13650000Y-11948000D03*
X13650000Y-28178000D03*
X7300000Y-11948000D03*
X7300000Y-28178000D03*
X20000000Y-11948000D03*
X20000000Y-28178000D03*
%TD*%
%TO.C,J3*%
X46350000Y-28178000D03*
X46350000Y-11948000D03*
X52700000Y-28178000D03*
X52700000Y-11948000D03*
X40000000Y-28178000D03*
X40000000Y-11948000D03*
%TD*%
M02*
