%TF.GenerationSoftware,KiCad,Pcbnew,8.0.8*%
%TF.CreationDate,2025-04-05T00:59:39-04:00*%
%TF.ProjectId,splitter,73706c69-7474-4657-922e-6b696361645f,rev?*%
%TF.SameCoordinates,Original*%
%TF.FileFunction,Paste,Top*%
%TF.FilePolarity,Positive*%
%FSLAX46Y46*%
G04 Gerber Fmt 4.6, Leading zero omitted, Abs format (unit mm)*
G04 Created by KiCad (PCBNEW 8.0.8) date 2025-04-05 00:59:39*
%MOMM*%
%LPD*%
G01*
G04 APERTURE LIST*
G04 Aperture macros list*
%AMRoundRect*
0 Rectangle with rounded corners*
0 $1 Rounding radius*
0 $2 $3 $4 $5 $6 $7 $8 $9 X,Y pos of 4 corners*
0 Add a 4 corners polygon primitive as box body*
4,1,4,$2,$3,$4,$5,$6,$7,$8,$9,$2,$3,0*
0 Add four circle primitives for the rounded corners*
1,1,$1+$1,$2,$3*
1,1,$1+$1,$4,$5*
1,1,$1+$1,$6,$7*
1,1,$1+$1,$8,$9*
0 Add four rect primitives between the rounded corners*
20,1,$1+$1,$2,$3,$4,$5,0*
20,1,$1+$1,$4,$5,$6,$7,0*
20,1,$1+$1,$6,$7,$8,$9,0*
20,1,$1+$1,$8,$9,$2,$3,0*%
G04 Aperture macros list end*
%ADD10RoundRect,0.250000X-0.475000X0.250000X-0.475000X-0.250000X0.475000X-0.250000X0.475000X0.250000X0*%
%ADD11RoundRect,0.250000X-0.450000X0.262500X-0.450000X-0.262500X0.450000X-0.262500X0.450000X0.262500X0*%
%ADD12RoundRect,0.250000X0.450000X-0.262500X0.450000X0.262500X-0.450000X0.262500X-0.450000X-0.262500X0*%
%ADD13RoundRect,0.250000X0.262500X0.450000X-0.262500X0.450000X-0.262500X-0.450000X0.262500X-0.450000X0*%
%ADD14RoundRect,0.250000X0.475000X-0.250000X0.475000X0.250000X-0.475000X0.250000X-0.475000X-0.250000X0*%
G04 APERTURE END LIST*
D10*
%TO.C,C2*%
X14500000Y-40550000D03*
X14500000Y-42450000D03*
%TD*%
%TO.C,C3*%
X12000000Y-40550000D03*
X12000000Y-42450000D03*
%TD*%
D11*
%TO.C,R1*%
X9500000Y-40587500D03*
X9500000Y-42412500D03*
%TD*%
%TO.C,R2*%
X7000000Y-40587500D03*
X7000000Y-42412500D03*
%TD*%
%TO.C,R4*%
X37000000Y-42675000D03*
X37000000Y-44500000D03*
%TD*%
D12*
%TO.C,R5*%
X50000000Y-44412500D03*
X50000000Y-42587500D03*
%TD*%
D11*
%TO.C,R3*%
X39500000Y-42675000D03*
X39500000Y-44500000D03*
%TD*%
D13*
%TO.C,R7*%
X24912500Y-26000000D03*
X23087500Y-26000000D03*
%TD*%
D11*
%TO.C,R6*%
X47500000Y-38087500D03*
X47500000Y-39912500D03*
%TD*%
%TO.C,R10*%
X52500000Y-38000000D03*
X52500000Y-39825000D03*
%TD*%
D14*
%TO.C,C9*%
X25000000Y-31450000D03*
X25000000Y-29550000D03*
%TD*%
D10*
%TO.C,C10*%
X35500000Y-29550000D03*
X35500000Y-31450000D03*
%TD*%
D14*
%TO.C,C1*%
X17000000Y-42450000D03*
X17000000Y-40550000D03*
%TD*%
D11*
%TO.C,R11*%
X19500000Y-40587500D03*
X19500000Y-42412500D03*
%TD*%
D12*
%TO.C,R8*%
X52500000Y-44412500D03*
X52500000Y-42587500D03*
%TD*%
D10*
%TO.C,C8*%
X45000000Y-42550000D03*
X45000000Y-44450000D03*
%TD*%
D14*
%TO.C,C5*%
X39500000Y-39950000D03*
X39500000Y-38050000D03*
%TD*%
%TO.C,C6*%
X47500000Y-44450000D03*
X47500000Y-42550000D03*
%TD*%
D12*
%TO.C,R12*%
X22000000Y-42412500D03*
X22000000Y-40587500D03*
%TD*%
D14*
%TO.C,C4*%
X45000000Y-39950000D03*
X45000000Y-38050000D03*
%TD*%
D11*
%TO.C,R9*%
X50000000Y-38087500D03*
X50000000Y-39912500D03*
%TD*%
D14*
%TO.C,C7*%
X42500000Y-39900000D03*
X42500000Y-38000000D03*
%TD*%
M02*
