%TF.GenerationSoftware,KiCad,Pcbnew,8.0.8*%
%TF.CreationDate,2025-04-05T00:59:39-04:00*%
%TF.ProjectId,splitter,73706c69-7474-4657-922e-6b696361645f,rev?*%
%TF.SameCoordinates,Original*%
%TF.FileFunction,Copper,L1,Top*%
%TF.FilePolarity,Positive*%
%FSLAX46Y46*%
G04 Gerber Fmt 4.6, Leading zero omitted, Abs format (unit mm)*
G04 Created by KiCad (PCBNEW 8.0.8) date 2025-04-05 00:59:39*
%MOMM*%
%LPD*%
G01*
G04 APERTURE LIST*
G04 Aperture macros list*
%AMRoundRect*
0 Rectangle with rounded corners*
0 $1 Rounding radius*
0 $2 $3 $4 $5 $6 $7 $8 $9 X,Y pos of 4 corners*
0 Add a 4 corners polygon primitive as box body*
4,1,4,$2,$3,$4,$5,$6,$7,$8,$9,$2,$3,0*
0 Add four circle primitives for the rounded corners*
1,1,$1+$1,$2,$3*
1,1,$1+$1,$4,$5*
1,1,$1+$1,$6,$7*
1,1,$1+$1,$8,$9*
0 Add four rect primitives between the rounded corners*
20,1,$1+$1,$2,$3,$4,$5,0*
20,1,$1+$1,$4,$5,$6,$7,0*
20,1,$1+$1,$6,$7,$8,$9,0*
20,1,$1+$1,$8,$9,$2,$3,0*%
%AMFreePoly0*
4,1,19,0.500000,-0.750000,0.000000,-0.750000,0.000000,-0.744911,-0.071157,-0.744911,-0.207708,-0.704816,-0.327430,-0.627875,-0.420627,-0.520320,-0.479746,-0.390866,-0.500000,-0.250000,-0.500000,0.250000,-0.479746,0.390866,-0.420627,0.520320,-0.327430,0.627875,-0.207708,0.704816,-0.071157,0.744911,0.000000,0.744911,0.000000,0.750000,0.500000,0.750000,0.500000,-0.750000,0.500000,-0.750000,
$1*%
%AMFreePoly1*
4,1,19,0.000000,0.744911,0.071157,0.744911,0.207708,0.704816,0.327430,0.627875,0.420627,0.520320,0.479746,0.390866,0.500000,0.250000,0.500000,-0.250000,0.479746,-0.390866,0.420627,-0.520320,0.327430,-0.627875,0.207708,-0.704816,0.071157,-0.744911,0.000000,-0.744911,0.000000,-0.750000,-0.500000,-0.750000,-0.500000,0.750000,0.000000,0.750000,0.000000,0.744911,0.000000,0.744911,
$1*%
%AMFreePoly2*
4,1,19,0.550000,-0.750000,0.000000,-0.750000,0.000000,-0.744911,-0.071157,-0.744911,-0.207708,-0.704816,-0.327430,-0.627875,-0.420627,-0.520320,-0.479746,-0.390866,-0.500000,-0.250000,-0.500000,0.250000,-0.479746,0.390866,-0.420627,0.520320,-0.327430,0.627875,-0.207708,0.704816,-0.071157,0.744911,0.000000,0.744911,0.000000,0.750000,0.550000,0.750000,0.550000,-0.750000,0.550000,-0.750000,
$1*%
%AMFreePoly3*
4,1,19,0.000000,0.744911,0.071157,0.744911,0.207708,0.704816,0.327430,0.627875,0.420627,0.520320,0.479746,0.390866,0.500000,0.250000,0.500000,-0.250000,0.479746,-0.390866,0.420627,-0.520320,0.327430,-0.627875,0.207708,-0.704816,0.071157,-0.744911,0.000000,-0.744911,0.000000,-0.750000,-0.550000,-0.750000,-0.550000,0.750000,0.000000,0.750000,0.000000,0.744911,0.000000,0.744911,
$1*%
G04 Aperture macros list end*
%TA.AperFunction,SMDPad,CuDef*%
%ADD10RoundRect,0.250000X-0.475000X0.250000X-0.475000X-0.250000X0.475000X-0.250000X0.475000X0.250000X0*%
%TD*%
%TA.AperFunction,ComponentPad*%
%ADD11R,1.800000X1.800000*%
%TD*%
%TA.AperFunction,ComponentPad*%
%ADD12C,1.800000*%
%TD*%
%TA.AperFunction,ComponentPad*%
%ADD13R,1.700000X1.700000*%
%TD*%
%TA.AperFunction,ComponentPad*%
%ADD14O,1.700000X1.700000*%
%TD*%
%TA.AperFunction,SMDPad,CuDef*%
%ADD15RoundRect,0.250000X-0.450000X0.262500X-0.450000X-0.262500X0.450000X-0.262500X0.450000X0.262500X0*%
%TD*%
%TA.AperFunction,SMDPad,CuDef*%
%ADD16RoundRect,0.250000X0.450000X-0.262500X0.450000X0.262500X-0.450000X0.262500X-0.450000X-0.262500X0*%
%TD*%
%TA.AperFunction,ComponentPad*%
%ADD17R,1.600000X1.600000*%
%TD*%
%TA.AperFunction,ComponentPad*%
%ADD18O,1.600000X1.600000*%
%TD*%
%TA.AperFunction,ComponentPad*%
%ADD19R,1.500000X1.500000*%
%TD*%
%TA.AperFunction,ComponentPad*%
%ADD20C,1.500000*%
%TD*%
%TA.AperFunction,SMDPad,CuDef*%
%ADD21RoundRect,0.250000X0.262500X0.450000X-0.262500X0.450000X-0.262500X-0.450000X0.262500X-0.450000X0*%
%TD*%
%TA.AperFunction,SMDPad,CuDef*%
%ADD22FreePoly0,0.000000*%
%TD*%
%TA.AperFunction,SMDPad,CuDef*%
%ADD23FreePoly1,0.000000*%
%TD*%
%TA.AperFunction,ComponentPad*%
%ADD24O,2.720000X3.240000*%
%TD*%
%TA.AperFunction,ComponentPad*%
%ADD25O,1.500000X2.000000*%
%TD*%
%TA.AperFunction,ComponentPad*%
%ADD26R,1.400000X1.500000*%
%TD*%
%TA.AperFunction,SMDPad,CuDef*%
%ADD27RoundRect,0.250000X0.475000X-0.250000X0.475000X0.250000X-0.475000X0.250000X-0.475000X-0.250000X0*%
%TD*%
%TA.AperFunction,SMDPad,CuDef*%
%ADD28FreePoly2,90.000000*%
%TD*%
%TA.AperFunction,SMDPad,CuDef*%
%ADD29R,1.500000X1.000000*%
%TD*%
%TA.AperFunction,SMDPad,CuDef*%
%ADD30FreePoly3,90.000000*%
%TD*%
%TA.AperFunction,ComponentPad*%
%ADD31RoundRect,0.250000X0.600000X-0.600000X0.600000X0.600000X-0.600000X0.600000X-0.600000X-0.600000X0*%
%TD*%
%TA.AperFunction,ComponentPad*%
%ADD32C,1.700000*%
%TD*%
%TA.AperFunction,SMDPad,CuDef*%
%ADD33FreePoly2,0.000000*%
%TD*%
%TA.AperFunction,SMDPad,CuDef*%
%ADD34R,1.000000X1.500000*%
%TD*%
%TA.AperFunction,SMDPad,CuDef*%
%ADD35FreePoly3,0.000000*%
%TD*%
%TA.AperFunction,ComponentPad*%
%ADD36C,3.000000*%
%TD*%
%TA.AperFunction,ViaPad*%
%ADD37C,0.800000*%
%TD*%
%TA.AperFunction,Conductor*%
%ADD38C,0.250000*%
%TD*%
G04 APERTURE END LIST*
D10*
%TO.P,C2,1*%
%TO.N,Net-(C2-Pad1)*%
X14500000Y-40550000D03*
%TO.P,C2,2*%
%TO.N,Net-(U1D-+)*%
X14500000Y-42450000D03*
%TD*%
%TO.P,C3,1*%
%TO.N,Net-(U1A-+)*%
X12000000Y-40550000D03*
%TO.P,C3,2*%
%TO.N,Net-(C2-Pad1)*%
X12000000Y-42450000D03*
%TD*%
D11*
%TO.P,D1,1,K*%
%TO.N,Net-(D1-K)*%
X31500000Y-30500000D03*
D12*
%TO.P,D1,2,A*%
%TO.N,/LED*%
X28960000Y-30500000D03*
%TD*%
D13*
%TO.P,J7,1*%
%TO.N,+9V*%
X23876000Y-14462000D03*
D14*
%TO.P,J7,2*%
%TO.N,GNDD*%
X23876000Y-11922000D03*
%TD*%
D15*
%TO.P,R1,1*%
%TO.N,Net-(R1-Pad1)*%
X9500000Y-40587500D03*
%TO.P,R1,2*%
%TO.N,Net-(C2-Pad1)*%
X9500000Y-42412500D03*
%TD*%
%TO.P,R2,1*%
%TO.N,Net-(R2-Pad1)*%
X7000000Y-40587500D03*
%TO.P,R2,2*%
%TO.N,Net-(U1A-+)*%
X7000000Y-42412500D03*
%TD*%
%TO.P,R4,1*%
%TO.N,Net-(C5-Pad1)*%
X37000000Y-42675000D03*
%TO.P,R4,2*%
%TO.N,Net-(U1D--)*%
X37000000Y-44500000D03*
%TD*%
D16*
%TO.P,R5,1*%
%TO.N,Net-(C6-Pad2)*%
X50000000Y-44412500D03*
%TO.P,R5,2*%
%TO.N,Net-(R5-Pad2)*%
X50000000Y-42587500D03*
%TD*%
D17*
%TO.P,U1,1*%
%TO.N,Net-(U1A--)*%
X26250000Y-34760000D03*
D18*
%TO.P,U1,2,-*%
X26250000Y-37300000D03*
%TO.P,U1,3,+*%
%TO.N,Net-(U1A-+)*%
X26250000Y-39840000D03*
%TO.P,U1,4,V+*%
%TO.N,+9V*%
X26250000Y-42380000D03*
%TO.P,U1,5,+*%
%TO.N,GND*%
X26250000Y-44920000D03*
%TO.P,U1,6,-*%
%TO.N,Net-(U1B--)*%
X26250000Y-47460000D03*
%TO.P,U1,7*%
%TO.N,Net-(U1D-+)*%
X26250000Y-50000000D03*
%TO.P,U1,8*%
%TO.N,Net-(C8-Pad1)*%
X33870000Y-50000000D03*
%TO.P,U1,9,-*%
%TO.N,Net-(U1C--)*%
X33870000Y-47460000D03*
%TO.P,U1,10,+*%
%TO.N,GND*%
X33870000Y-44920000D03*
%TO.P,U1,11,V-*%
%TO.N,GNDD*%
X33870000Y-42380000D03*
%TO.P,U1,12,+*%
%TO.N,Net-(U1D-+)*%
X33870000Y-39840000D03*
%TO.P,U1,13,-*%
%TO.N,Net-(U1D--)*%
X33870000Y-37300000D03*
%TO.P,U1,14*%
%TO.N,Net-(C5-Pad1)*%
X33870000Y-34760000D03*
%TD*%
D19*
%TO.P,U2,1,OUT*%
%TO.N,GND*%
X21992000Y-22844000D03*
D20*
%TO.P,U2,2,COMMON*%
%TO.N,GNDD*%
X21992000Y-20304000D03*
%TO.P,U2,3,IN*%
%TO.N,+9V*%
X21992000Y-17764000D03*
%TD*%
D15*
%TO.P,R3,1*%
%TO.N,Net-(U1D--)*%
X39500000Y-42675000D03*
%TO.P,R3,2*%
%TO.N,Net-(U1A--)*%
X39500000Y-44500000D03*
%TD*%
D21*
%TO.P,R7,1*%
%TO.N,Net-(D1-K)*%
X24912500Y-26000000D03*
%TO.P,R7,2*%
%TO.N,GNDD*%
X23087500Y-26000000D03*
%TD*%
D15*
%TO.P,R6,1*%
%TO.N,Net-(R6-Pad1)*%
X47500000Y-38087500D03*
%TO.P,R6,2*%
%TO.N,Net-(C7-Pad1)*%
X47500000Y-39912500D03*
%TD*%
D22*
%TO.P,JP2,1,A*%
%TO.N,/SEND_2*%
X38350000Y-24500000D03*
D23*
%TO.P,JP2,2,B*%
%TO.N,/RECV_2*%
X39650000Y-24500000D03*
%TD*%
D15*
%TO.P,R10,1*%
%TO.N,Net-(U1C--)*%
X52500000Y-38000000D03*
%TO.P,R10,2*%
%TO.N,Net-(C8-Pad1)*%
X52500000Y-39825000D03*
%TD*%
D24*
%TO.P,RV2,*%
%TO.N,*%
X42700000Y-15374000D03*
X52300000Y-15374000D03*
D11*
%TO.P,RV2,1,1*%
%TO.N,Net-(R6-Pad1)*%
X45000000Y-22874000D03*
D12*
%TO.P,RV2,2,2*%
%TO.N,GND*%
X47500000Y-22874000D03*
%TO.P,RV2,3,3*%
%TO.N,Net-(R5-Pad2)*%
X50000000Y-22874000D03*
%TD*%
D24*
%TO.P,RV1,*%
%TO.N,*%
X7750000Y-15374000D03*
X17250000Y-15374000D03*
D11*
%TO.P,RV1,1,1*%
%TO.N,Net-(R2-Pad1)*%
X10000000Y-22874000D03*
D12*
%TO.P,RV1,2,2*%
%TO.N,GND*%
X12500000Y-22874000D03*
%TO.P,RV1,3,3*%
X15000000Y-22874000D03*
%TO.P,RV1,4,4*%
%TO.N,Net-(R1-Pad1)*%
X10000000Y-25374000D03*
%TO.P,RV1,5,5*%
%TO.N,Net-(U1A--)*%
X12500000Y-25374000D03*
%TO.P,RV1,6,6*%
X15000000Y-25374000D03*
%TD*%
D25*
%TO.P,SW2,*%
%TO.N,*%
X33000000Y-11250000D03*
X27150000Y-11250000D03*
X32850000Y-26250000D03*
X27150000Y-26250000D03*
D26*
%TO.P,SW2,1,1*%
%TO.N,/HIGH*%
X31250000Y-14750000D03*
D20*
%TO.P,SW2,2,2*%
%TO.N,/IN*%
X31250000Y-16750000D03*
%TO.P,SW2,3,3*%
%TO.N,/SEND_1*%
X31250000Y-18750000D03*
%TO.P,SW2,4,4*%
%TO.N,/LOW*%
X31250000Y-22750000D03*
%TO.P,SW2,5,5*%
X28750000Y-14750000D03*
%TO.P,SW2,6,6*%
%TO.N,/IN*%
X28750000Y-16750000D03*
%TO.P,SW2,7,7*%
%TO.N,/SEND_2*%
X28750000Y-18750000D03*
%TO.P,SW2,8,8*%
%TO.N,/HIGH*%
X28750000Y-22750000D03*
%TD*%
D27*
%TO.P,C9,1*%
%TO.N,+9V*%
X25000000Y-31450000D03*
%TO.P,C9,2*%
%TO.N,GND*%
X25000000Y-29550000D03*
%TD*%
D10*
%TO.P,C10,1*%
%TO.N,GND*%
X35500000Y-29550000D03*
%TO.P,C10,2*%
%TO.N,GNDD*%
X35500000Y-31450000D03*
%TD*%
D27*
%TO.P,C1,1*%
%TO.N,Net-(C1-Pad1)*%
X17000000Y-42450000D03*
%TO.P,C1,2*%
%TO.N,/IN*%
X17000000Y-40550000D03*
%TD*%
D15*
%TO.P,R11,1*%
%TO.N,Net-(U1B--)*%
X19500000Y-40587500D03*
%TO.P,R11,2*%
%TO.N,Net-(C1-Pad1)*%
X19500000Y-42412500D03*
%TD*%
D16*
%TO.P,R8,1*%
%TO.N,Net-(R5-Pad2)*%
X52500000Y-44412500D03*
%TO.P,R8,2*%
%TO.N,Net-(U1C--)*%
X52500000Y-42587500D03*
%TD*%
D10*
%TO.P,C8,1*%
%TO.N,Net-(C8-Pad1)*%
X45000000Y-42550000D03*
%TO.P,C8,2*%
%TO.N,/OUT*%
X45000000Y-44450000D03*
%TD*%
D27*
%TO.P,C5,1*%
%TO.N,Net-(C5-Pad1)*%
X39500000Y-39950000D03*
%TO.P,C5,2*%
%TO.N,/LOW*%
X39500000Y-38050000D03*
%TD*%
%TO.P,C6,1*%
%TO.N,/RECV_1*%
X47500000Y-44450000D03*
%TO.P,C6,2*%
%TO.N,Net-(C6-Pad2)*%
X47500000Y-42550000D03*
%TD*%
D28*
%TO.P,JP1,1,A*%
%TO.N,/INR*%
X42500000Y-62600000D03*
D29*
%TO.P,JP1,2,C*%
%TO.N,Net-(JP1-C)*%
X42500000Y-61300000D03*
D30*
%TO.P,JP1,3,B*%
%TO.N,/SEND_2*%
X42500000Y-60000000D03*
%TD*%
D16*
%TO.P,R12,1*%
%TO.N,Net-(U1D-+)*%
X22000000Y-42412500D03*
%TO.P,R12,2*%
%TO.N,Net-(U1B--)*%
X22000000Y-40587500D03*
%TD*%
D27*
%TO.P,C4,1*%
%TO.N,Net-(U1A--)*%
X45000000Y-39950000D03*
%TO.P,C4,2*%
%TO.N,/HIGH*%
X45000000Y-38050000D03*
%TD*%
D15*
%TO.P,R9,1*%
%TO.N,Net-(R6-Pad1)*%
X50000000Y-38087500D03*
%TO.P,R9,2*%
%TO.N,Net-(U1C--)*%
X50000000Y-39912500D03*
%TD*%
D31*
%TO.P,J8,1,Pin_1*%
%TO.N,+9V*%
X26190000Y-63000000D03*
D32*
%TO.P,J8,2,Pin_2*%
%TO.N,/LED*%
X26190000Y-60460000D03*
%TO.P,J8,3,Pin_3*%
%TO.N,/OUT*%
X28730000Y-63000000D03*
%TO.P,J8,4,Pin_4*%
%TO.N,/RECVR*%
X28730000Y-60460000D03*
%TO.P,J8,5,Pin_5*%
%TO.N,/IN*%
X31270000Y-63000000D03*
%TO.P,J8,6,Pin_6*%
%TO.N,/OUTR*%
X31270000Y-60460000D03*
%TO.P,J8,7,Pin_7*%
%TO.N,/INR*%
X33810000Y-63000000D03*
%TO.P,J8,8,Pin_8*%
%TO.N,/OUTT*%
X33810000Y-60460000D03*
%TD*%
D27*
%TO.P,C7,1*%
%TO.N,Net-(C7-Pad1)*%
X42500000Y-39900000D03*
%TO.P,C7,2*%
%TO.N,/RECV_2*%
X42500000Y-38000000D03*
%TD*%
D33*
%TO.P,JP3,1,A*%
%TO.N,/RECVR*%
X28400000Y-55000000D03*
D34*
%TO.P,JP3,2,C*%
%TO.N,Net-(JP3-C)*%
X29700000Y-55000000D03*
D35*
%TO.P,JP3,3,B*%
%TO.N,/RECV_2*%
X31000000Y-55000000D03*
%TD*%
D36*
%TO.P,J1,R*%
%TO.N,/INR*%
X46350000Y-70230000D03*
%TO.P,J1,RN*%
%TO.N,GNDD*%
X46350000Y-54000000D03*
%TO.P,J1,S*%
X52700000Y-70230000D03*
%TO.P,J1,SN*%
X52700000Y-54000000D03*
%TO.P,J1,T*%
%TO.N,/IN*%
X40000000Y-70230000D03*
%TO.P,J1,TN*%
%TO.N,GNDD*%
X40000000Y-54000000D03*
%TD*%
%TO.P,J6,R*%
%TO.N,/OUTR*%
X13650000Y-54000000D03*
%TO.P,J6,RN*%
%TO.N,unconnected-(J6-PadRN)*%
X13650000Y-70230000D03*
%TO.P,J6,S*%
%TO.N,GNDD*%
X7300000Y-54000000D03*
%TO.P,J6,SN*%
X7300000Y-70230000D03*
%TO.P,J6,T*%
%TO.N,/OUTT*%
X20000000Y-54000000D03*
%TO.P,J6,TN*%
%TO.N,unconnected-(J6-PadTN)*%
X20000000Y-70230000D03*
%TD*%
%TO.P,J2,R*%
%TO.N,Net-(JP1-C)*%
X46350000Y-49230000D03*
%TO.P,J2,RN*%
%TO.N,unconnected-(J2-PadRN)*%
X46350000Y-33000000D03*
%TO.P,J2,S*%
%TO.N,GNDD*%
X52700000Y-49230000D03*
%TO.P,J2,SN*%
X52700000Y-33000000D03*
%TO.P,J2,T*%
%TO.N,/SEND_1*%
X40000000Y-49230000D03*
%TO.P,J2,TN*%
%TO.N,unconnected-(J2-PadTN)*%
X40000000Y-33000000D03*
%TD*%
%TO.P,J4,R*%
%TO.N,Net-(JP3-C)*%
X13650000Y-33000000D03*
%TO.P,J4,RN*%
%TO.N,Net-(JP1-C)*%
X13650000Y-49230000D03*
%TO.P,J4,S*%
%TO.N,GNDD*%
X7300000Y-33000000D03*
%TO.P,J4,SN*%
X7300000Y-49230000D03*
%TO.P,J4,T*%
%TO.N,/RECV_1*%
X20000000Y-33000000D03*
%TO.P,J4,TN*%
%TO.N,/SEND_1*%
X20000000Y-49230000D03*
%TD*%
%TO.P,J5,R*%
%TO.N,unconnected-(J5-PadR)*%
X13650000Y-11948000D03*
%TO.P,J5,RN*%
%TO.N,unconnected-(J5-PadRN)*%
X13650000Y-28178000D03*
%TO.P,J5,S*%
%TO.N,GNDD*%
X7300000Y-11948000D03*
%TO.P,J5,SN*%
X7300000Y-28178000D03*
%TO.P,J5,T*%
%TO.N,/RECV_2*%
X20000000Y-11948000D03*
%TO.P,J5,TN*%
%TO.N,/SEND_2*%
X20000000Y-28178000D03*
%TD*%
%TO.P,J3,R*%
%TO.N,unconnected-(J3-PadR)*%
X46350000Y-28178000D03*
%TO.P,J3,RN*%
%TO.N,unconnected-(J3-PadRN)*%
X46350000Y-11948000D03*
%TO.P,J3,S*%
%TO.N,GNDD*%
X52700000Y-28178000D03*
%TO.P,J3,SN*%
X52700000Y-11948000D03*
%TO.P,J3,T*%
%TO.N,/SEND_2*%
X40000000Y-28178000D03*
%TO.P,J3,TN*%
%TO.N,unconnected-(J3-PadTN)*%
X40000000Y-11948000D03*
%TD*%
D37*
%TO.N,GND*%
X35500000Y-28500000D03*
X25000000Y-28500000D03*
%TO.N,+9V*%
X23000000Y-31500000D03*
%TO.N,/IN*%
X17000000Y-39500000D03*
%TO.N,/OUT*%
X43500000Y-45000000D03*
%TO.N,/SEND_2*%
X42500000Y-58500000D03*
%TO.N,/RECV_1*%
X18225000Y-51000000D03*
%TO.N,/RECV_2*%
X41000000Y-39000000D03*
X32500000Y-55000000D03*
X39500000Y-22500000D03*
%TO.N,Net-(U1A--)*%
X38000000Y-46000000D03*
%TO.N,Net-(JP3-C)*%
X17500000Y-56000000D03*
%TD*%
D38*
%TO.N,Net-(C1-Pad1)*%
X17000000Y-42450000D02*
X19462500Y-42450000D01*
%TO.N,Net-(C2-Pad1)*%
X9500000Y-42412500D02*
X11962500Y-42412500D01*
X14500000Y-40550000D02*
X12600000Y-42450000D01*
%TO.N,GND*%
X29000000Y-42170000D02*
X29000000Y-33550000D01*
X24075000Y-27575000D02*
X24075000Y-24927000D01*
X25000000Y-28500000D02*
X24075000Y-27575000D01*
X25000000Y-29550000D02*
X25000000Y-28500000D01*
X35500000Y-29550000D02*
X35500000Y-28500000D01*
X26250000Y-44920000D02*
X33870000Y-44920000D01*
X26250000Y-44920000D02*
X29000000Y-42170000D01*
X24075000Y-24927000D02*
X21992000Y-22844000D01*
X29000000Y-33550000D02*
X25000000Y-29550000D01*
%TO.N,+9V*%
X22250000Y-30750000D02*
X23000000Y-31500000D01*
X28500000Y-34950000D02*
X28500000Y-40130000D01*
X21992000Y-16346000D02*
X23876000Y-14462000D01*
X22250000Y-27250000D02*
X22250000Y-30750000D01*
X21992000Y-17764000D02*
X20467000Y-19289000D01*
X20467000Y-19289000D02*
X20467000Y-25467000D01*
X20467000Y-25467000D02*
X22250000Y-27250000D01*
X23000000Y-31500000D02*
X24950000Y-31500000D01*
X28500000Y-40130000D02*
X26250000Y-42380000D01*
X25000000Y-31450000D02*
X28500000Y-34950000D01*
X21992000Y-17764000D02*
X21992000Y-16346000D01*
%TO.N,GNDD*%
X31500000Y-40010000D02*
X33870000Y-42380000D01*
X31500000Y-34500000D02*
X31500000Y-40010000D01*
X35500000Y-31450000D02*
X34550000Y-31450000D01*
X21992000Y-20304000D02*
X20917000Y-21379000D01*
X20917000Y-21379000D02*
X20917000Y-23829500D01*
X34550000Y-31450000D02*
X31500000Y-34500000D01*
X20917000Y-23829500D02*
X23087500Y-26000000D01*
%TO.N,Net-(R1-Pad1)*%
X10000000Y-40087500D02*
X10000000Y-25374000D01*
X9500000Y-40587500D02*
X10000000Y-40087500D01*
%TO.N,Net-(R2-Pad1)*%
X8775000Y-24099000D02*
X10000000Y-22874000D01*
X9550000Y-27550000D02*
X8775000Y-26775000D01*
X7000000Y-40000000D02*
X9550000Y-37450000D01*
X8775000Y-26775000D02*
X8775000Y-24099000D01*
X7000000Y-40587500D02*
X7000000Y-40000000D01*
X9550000Y-37450000D02*
X9550000Y-27550000D01*
%TO.N,/HIGH*%
X44500062Y-25504962D02*
X33745100Y-14750000D01*
X44500062Y-37550062D02*
X44500062Y-25504962D01*
X33745100Y-14750000D02*
X31250000Y-14750000D01*
X45000000Y-38050000D02*
X44500062Y-37550062D01*
%TO.N,/IN*%
X28750000Y-16750000D02*
X31250000Y-16750000D01*
X31270000Y-63000000D02*
X38500000Y-70230000D01*
X38500000Y-70230000D02*
X40000000Y-70230000D01*
X17000000Y-40550000D02*
X17000000Y-39500000D01*
%TO.N,/LOW*%
X39500000Y-38050000D02*
X37000000Y-35550000D01*
X31250000Y-22750000D02*
X27000000Y-18500000D01*
X27000000Y-18500000D02*
X27000000Y-16500000D01*
X37000000Y-28500000D02*
X31250000Y-22750000D01*
X37000000Y-35550000D02*
X37000000Y-28500000D01*
X27000000Y-16500000D02*
X28750000Y-14750000D01*
%TO.N,/OUT*%
X45000000Y-44450000D02*
X44050000Y-44450000D01*
X44050000Y-44450000D02*
X43500000Y-45000000D01*
%TO.N,Net-(C5-Pad1)*%
X37000000Y-37890000D02*
X33870000Y-34760000D01*
X37000000Y-42675000D02*
X37000000Y-37890000D01*
X39500000Y-39950000D02*
X37000000Y-42450000D01*
%TO.N,Net-(C6-Pad2)*%
X50000000Y-44412500D02*
X49362500Y-44412500D01*
X49362500Y-44412500D02*
X47500000Y-42550000D01*
%TO.N,Net-(C7-Pad1)*%
X43275000Y-39125000D02*
X46712500Y-39125000D01*
X46712500Y-39125000D02*
X47500000Y-39912500D01*
X42500000Y-39900000D02*
X43275000Y-39125000D01*
%TO.N,Net-(C8-Pad1)*%
X45000000Y-42550000D02*
X46050000Y-41500000D01*
X33870000Y-50000000D02*
X36649060Y-50000000D01*
X46050000Y-41500000D02*
X50825000Y-41500000D01*
X50825000Y-41500000D02*
X52500000Y-39825000D01*
X45000000Y-42550000D02*
X44099060Y-42550000D01*
X44099060Y-42550000D02*
X36649060Y-50000000D01*
%TO.N,/INR*%
X46350000Y-70230000D02*
X42500000Y-66380000D01*
X42500000Y-66380000D02*
X42500000Y-62600000D01*
X33810000Y-63000000D02*
X42100000Y-63000000D01*
X42100000Y-63000000D02*
X42500000Y-62600000D01*
%TO.N,/OUTR*%
X31270000Y-60460000D02*
X29905000Y-61825000D01*
X29905000Y-61825000D02*
X21475000Y-61825000D01*
X21475000Y-61825000D02*
X13650000Y-54000000D01*
%TO.N,/OUTT*%
X20000000Y-54000000D02*
X22550000Y-54000000D01*
X32000000Y-53000000D02*
X33810000Y-54810000D01*
X22550000Y-54000000D02*
X23550000Y-53000000D01*
X33810000Y-54810000D02*
X33810000Y-60460000D01*
X23550000Y-53000000D02*
X32000000Y-53000000D01*
%TO.N,/RECVR*%
X28400000Y-55000000D02*
X28400000Y-60130000D01*
%TO.N,/SEND_1*%
X22270000Y-51500000D02*
X20000000Y-49230000D01*
X40000000Y-49230000D02*
X37730000Y-51500000D01*
X37730000Y-51500000D02*
X22270000Y-51500000D01*
%TO.N,/SEND_2*%
X38350000Y-24500000D02*
X34500000Y-24500000D01*
X34500000Y-24500000D02*
X28750000Y-18750000D01*
X42500000Y-60000000D02*
X42500000Y-58500000D01*
X38350000Y-24500000D02*
X38350000Y-26528000D01*
X38350000Y-26528000D02*
X40000000Y-28178000D01*
%TO.N,/RECV_1*%
X20272336Y-51055000D02*
X18280000Y-51055000D01*
X18280000Y-51055000D02*
X18225000Y-51000000D01*
X47500000Y-44450000D02*
X40000000Y-51950000D01*
X40000000Y-51950000D02*
X21167336Y-51950000D01*
X21167336Y-51950000D02*
X20272336Y-51055000D01*
%TO.N,Net-(R5-Pad2)*%
X51825000Y-44412500D02*
X50000000Y-42587500D01*
X52500000Y-44412500D02*
X51825000Y-44412500D01*
X50000000Y-22874000D02*
X50000000Y-32880940D01*
X52500000Y-44412500D02*
X54000000Y-42912500D01*
X50000000Y-32880940D02*
X54000000Y-36880940D01*
X54000000Y-42912500D02*
X54000000Y-36880940D01*
%TO.N,/RECV_2*%
X42000000Y-38000000D02*
X41000000Y-39000000D01*
X42500000Y-38000000D02*
X41804265Y-38000000D01*
X39500000Y-22500000D02*
X39500000Y-24350000D01*
X42500000Y-38000000D02*
X42500000Y-27350000D01*
X42500000Y-27350000D02*
X39650000Y-24500000D01*
X42500000Y-38000000D02*
X41775000Y-38000000D01*
X31000000Y-55000000D02*
X32500000Y-55000000D01*
%TO.N,Net-(R6-Pad1)*%
X45000000Y-22874000D02*
X48175000Y-26049000D01*
X47500000Y-38087500D02*
X50000000Y-38087500D01*
X48175000Y-26049000D02*
X48175000Y-37412500D01*
X48175000Y-37412500D02*
X47500000Y-38087500D01*
%TO.N,Net-(U1D-+)*%
X22000000Y-45750000D02*
X22000000Y-42412500D01*
X15325000Y-43275000D02*
X21137500Y-43275000D01*
X26250000Y-50000000D02*
X22000000Y-45750000D01*
X21137500Y-43275000D02*
X22000000Y-42412500D01*
X14500000Y-42450000D02*
X15325000Y-43275000D01*
%TO.N,Net-(U1A-+)*%
X12000000Y-40550000D02*
X13775000Y-38775000D01*
X7912500Y-41500000D02*
X11050000Y-41500000D01*
X13775000Y-38775000D02*
X25185000Y-38775000D01*
X25185000Y-38775000D02*
X26250000Y-39840000D01*
X11050000Y-41500000D02*
X12000000Y-40550000D01*
X7000000Y-42412500D02*
X7912500Y-41500000D01*
%TO.N,Net-(U1A--)*%
X12500000Y-25374000D02*
X15000000Y-25374000D01*
X16500000Y-32080940D02*
X16500000Y-26874000D01*
X39500000Y-44500000D02*
X40450000Y-44500000D01*
X19244060Y-34825000D02*
X16500000Y-32080940D01*
X26250000Y-34760000D02*
X26250000Y-37300000D01*
X39500000Y-44500000D02*
X38000000Y-46000000D01*
X40450000Y-44500000D02*
X45000000Y-39950000D01*
X16500000Y-26874000D02*
X15000000Y-25374000D01*
X25695000Y-34825000D02*
X19244060Y-34825000D01*
%TO.N,Net-(D1-K)*%
X31500000Y-30500000D02*
X29500000Y-28500000D01*
X27412500Y-28500000D02*
X24912500Y-26000000D01*
X26912500Y-28000000D02*
X24912500Y-26000000D01*
X29500000Y-28500000D02*
X27412500Y-28500000D01*
%TO.N,Net-(JP3-C)*%
X29700000Y-55000000D02*
X29700000Y-54000000D01*
X24050000Y-53450000D02*
X21500000Y-56000000D01*
X29700000Y-54000000D02*
X29150000Y-53450000D01*
X21500000Y-56000000D02*
X17500000Y-56000000D01*
X29150000Y-53450000D02*
X24050000Y-53450000D01*
%TO.N,Net-(JP1-C)*%
X16370000Y-51950000D02*
X20530940Y-51950000D01*
X44000000Y-51580000D02*
X46350000Y-49230000D01*
X20530940Y-51950000D02*
X21040470Y-52459530D01*
X21040470Y-52459530D02*
X32095926Y-52459530D01*
X42966692Y-61300000D02*
X44000000Y-60266692D01*
X40936396Y-61300000D02*
X42500000Y-61300000D01*
X44000000Y-60266692D02*
X44000000Y-51580000D01*
X32095926Y-52459530D02*
X40936396Y-61300000D01*
X13650000Y-49230000D02*
X16370000Y-51950000D01*
%TO.N,Net-(U1D--)*%
X35975000Y-43475000D02*
X35975000Y-42025000D01*
X37675000Y-44500000D02*
X39500000Y-42675000D01*
X37000000Y-44500000D02*
X37675000Y-44500000D01*
X36000000Y-39430000D02*
X33870000Y-37300000D01*
X37000000Y-44500000D02*
X35975000Y-43475000D01*
X36000000Y-42000000D02*
X36000000Y-39430000D01*
X35975000Y-42025000D02*
X36000000Y-42000000D01*
%TO.N,Net-(U1C--)*%
X53525000Y-41562500D02*
X53525000Y-39025000D01*
X38540000Y-47460000D02*
X33870000Y-47460000D01*
X50000000Y-39912500D02*
X50587500Y-39912500D01*
X52500000Y-42587500D02*
X53525000Y-41562500D01*
X48912500Y-41000000D02*
X45000000Y-41000000D01*
X50587500Y-39912500D02*
X52500000Y-38000000D01*
X53525000Y-39025000D02*
X52500000Y-38000000D01*
X45000000Y-41000000D02*
X38540000Y-47460000D01*
X50000000Y-39912500D02*
X48912500Y-41000000D01*
%TO.N,Net-(U1B--)*%
X23500000Y-42379900D02*
X23500000Y-44710000D01*
X22000000Y-40879900D02*
X23500000Y-42379900D01*
X22000000Y-40587500D02*
X19500000Y-40587500D01*
X26250000Y-47460000D02*
X23500000Y-44710000D01*
%TD*%
%TA.AperFunction,Conductor*%
%TO.N,GNDD*%
G36*
X44312512Y-48637556D02*
G01*
X44369348Y-48680103D01*
X44394159Y-48746623D01*
X44391845Y-48781247D01*
X44364917Y-48910835D01*
X44355557Y-48955877D01*
X44355556Y-48955883D01*
X44336807Y-49229995D01*
X44336807Y-49230004D01*
X44355556Y-49504116D01*
X44355557Y-49504122D01*
X44355558Y-49504130D01*
X44372417Y-49585258D01*
X44411460Y-49773146D01*
X44411461Y-49773149D01*
X44411462Y-49773153D01*
X44447527Y-49874631D01*
X44503476Y-50032058D01*
X44511762Y-50048048D01*
X44525342Y-50117734D01*
X44499091Y-50183699D01*
X44488984Y-50195110D01*
X43596167Y-51087929D01*
X43507927Y-51176169D01*
X43507926Y-51176171D01*
X43438601Y-51279923D01*
X43390846Y-51395212D01*
X43366500Y-51517603D01*
X43366500Y-57776372D01*
X43346498Y-57844493D01*
X43292842Y-57890986D01*
X43222568Y-57901090D01*
X43157988Y-57871596D01*
X43146864Y-57860683D01*
X43111253Y-57821134D01*
X42956752Y-57708882D01*
X42782288Y-57631206D01*
X42595487Y-57591500D01*
X42404513Y-57591500D01*
X42217711Y-57631206D01*
X42043247Y-57708882D01*
X41888744Y-57821135D01*
X41760965Y-57963048D01*
X41760958Y-57963058D01*
X41665476Y-58128438D01*
X41665473Y-58128445D01*
X41606457Y-58310072D01*
X41586496Y-58500000D01*
X41606457Y-58689927D01*
X41633500Y-58773154D01*
X41665473Y-58871556D01*
X41665476Y-58871561D01*
X41731501Y-58985920D01*
X41748239Y-59054915D01*
X41725019Y-59122007D01*
X41690503Y-59154918D01*
X41640628Y-59186970D01*
X41640622Y-59186975D01*
X41535326Y-59278213D01*
X41533577Y-59279624D01*
X41531966Y-59281125D01*
X41436257Y-59391581D01*
X41358525Y-59512534D01*
X41358523Y-59512537D01*
X41358523Y-59512538D01*
X41308201Y-59622729D01*
X41297806Y-59645490D01*
X41257302Y-59783433D01*
X41257300Y-59783440D01*
X41236500Y-59928114D01*
X41236500Y-60400009D01*
X41216498Y-60468130D01*
X41162842Y-60514623D01*
X41092568Y-60524727D01*
X41027988Y-60495233D01*
X41021405Y-60489104D01*
X37207491Y-56675190D01*
X33330894Y-52798594D01*
X33296869Y-52736283D01*
X33301934Y-52665468D01*
X33344481Y-52608632D01*
X33411001Y-52583821D01*
X33419990Y-52583500D01*
X38298843Y-52583500D01*
X38366964Y-52603502D01*
X38413457Y-52657158D01*
X38423561Y-52727432D01*
X38401782Y-52782161D01*
X38280316Y-52954240D01*
X38280314Y-52954243D01*
X38153938Y-53198134D01*
X38061944Y-53456980D01*
X38061942Y-53456988D01*
X38006053Y-53725945D01*
X38006052Y-53725951D01*
X37987308Y-53999995D01*
X37987308Y-54000004D01*
X38006052Y-54274048D01*
X38006053Y-54274054D01*
X38061942Y-54543011D01*
X38061944Y-54543019D01*
X38153938Y-54801865D01*
X38280317Y-55045763D01*
X38410540Y-55230248D01*
X39320764Y-54320024D01*
X39335359Y-54355258D01*
X39417437Y-54478097D01*
X39521903Y-54582563D01*
X39644742Y-54664641D01*
X39679974Y-54679234D01*
X38770714Y-55588494D01*
X38839325Y-55644312D01*
X39074030Y-55787038D01*
X39325989Y-55896480D01*
X39590509Y-55970595D01*
X39862635Y-56007999D01*
X39862649Y-56008000D01*
X40137351Y-56008000D01*
X40137364Y-56007999D01*
X40409490Y-55970595D01*
X40674010Y-55896480D01*
X40925969Y-55787038D01*
X41160680Y-55644308D01*
X41229283Y-55588495D01*
X40320024Y-54679235D01*
X40355258Y-54664641D01*
X40478097Y-54582563D01*
X40582563Y-54478097D01*
X40664641Y-54355258D01*
X40679235Y-54320025D01*
X41589458Y-55230248D01*
X41719683Y-55045759D01*
X41719685Y-55045756D01*
X41846061Y-54801865D01*
X41938055Y-54543019D01*
X41938057Y-54543011D01*
X41993946Y-54274054D01*
X41993947Y-54274048D01*
X42012692Y-54000004D01*
X42012692Y-53999995D01*
X41993947Y-53725951D01*
X41993946Y-53725945D01*
X41938057Y-53456988D01*
X41938055Y-53456980D01*
X41846061Y-53198134D01*
X41719682Y-52954236D01*
X41589458Y-52769750D01*
X40679234Y-53679974D01*
X40664641Y-53644742D01*
X40582563Y-53521903D01*
X40478097Y-53417437D01*
X40355258Y-53335359D01*
X40320024Y-53320764D01*
X41229284Y-52411505D01*
X41229283Y-52411503D01*
X41160678Y-52355689D01*
X40925967Y-52212959D01*
X40891482Y-52197981D01*
X40836969Y-52152495D01*
X40815702Y-52084759D01*
X40834432Y-52016278D01*
X40852577Y-51993326D01*
X44179387Y-48666515D01*
X44241697Y-48632491D01*
X44312512Y-48637556D01*
G37*
%TD.AperFunction*%
%TA.AperFunction,Conductor*%
G36*
X22370527Y-24122502D02*
G01*
X22391501Y-24139405D01*
X22831611Y-24579515D01*
X22865637Y-24641827D01*
X22860572Y-24712642D01*
X22818025Y-24769478D01*
X22755324Y-24793957D01*
X22670680Y-24802605D01*
X22670678Y-24802606D01*
X22502474Y-24858342D01*
X22351660Y-24951365D01*
X22351654Y-24951370D01*
X22226370Y-25076654D01*
X22226365Y-25076660D01*
X22133342Y-25227474D01*
X22077606Y-25395678D01*
X22077605Y-25395681D01*
X22067000Y-25499483D01*
X22067000Y-25746000D01*
X22961500Y-25746000D01*
X23029621Y-25766002D01*
X23076114Y-25819658D01*
X23087500Y-25872000D01*
X23087500Y-26000000D01*
X23215500Y-26000000D01*
X23283621Y-26020002D01*
X23330114Y-26073658D01*
X23341500Y-26126000D01*
X23341500Y-27208001D01*
X23352306Y-27218807D01*
X23383621Y-27228002D01*
X23430114Y-27281658D01*
X23441500Y-27334000D01*
X23441500Y-27512606D01*
X23441500Y-27637394D01*
X23465845Y-27759785D01*
X23513600Y-27875075D01*
X23582929Y-27978833D01*
X24000862Y-28396767D01*
X24052878Y-28448783D01*
X24086903Y-28511095D01*
X24089092Y-28524707D01*
X24096050Y-28590906D01*
X24083278Y-28660744D01*
X24055529Y-28694774D01*
X24056536Y-28695781D01*
X23925975Y-28826341D01*
X23925970Y-28826347D01*
X23832885Y-28977262D01*
X23777113Y-29145572D01*
X23777112Y-29145579D01*
X23766500Y-29249446D01*
X23766500Y-29850544D01*
X23777112Y-29954425D01*
X23832885Y-30122738D01*
X23925970Y-30273652D01*
X23925975Y-30273658D01*
X24051344Y-30399027D01*
X24054049Y-30401166D01*
X24055421Y-30403104D01*
X24056537Y-30404220D01*
X24056346Y-30404410D01*
X24095076Y-30459108D01*
X24098264Y-30530033D01*
X24062602Y-30591423D01*
X24054049Y-30598834D01*
X24051344Y-30600972D01*
X23925975Y-30726341D01*
X23925970Y-30726347D01*
X23876441Y-30806647D01*
X23823655Y-30854125D01*
X23769200Y-30866500D01*
X23708200Y-30866500D01*
X23640079Y-30846498D01*
X23614563Y-30824810D01*
X23611252Y-30821133D01*
X23456752Y-30708882D01*
X23282288Y-30631206D01*
X23095487Y-30591500D01*
X23039594Y-30591500D01*
X22971473Y-30571498D01*
X22950499Y-30554595D01*
X22920405Y-30524501D01*
X22886379Y-30462189D01*
X22883500Y-30435406D01*
X22883500Y-27187607D01*
X22883499Y-27187603D01*
X22879046Y-27165215D01*
X22859155Y-27065215D01*
X22852821Y-27049923D01*
X22843091Y-27026431D01*
X22833500Y-26978214D01*
X22833500Y-26254000D01*
X22202095Y-26254000D01*
X22133974Y-26233998D01*
X22113000Y-26217095D01*
X21137405Y-25241500D01*
X21103379Y-25179188D01*
X21100500Y-25152405D01*
X21100500Y-24228500D01*
X21120502Y-24160379D01*
X21174158Y-24113886D01*
X21226500Y-24102500D01*
X22302406Y-24102500D01*
X22370527Y-24122502D01*
G37*
%TD.AperFunction*%
%TA.AperFunction,Conductor*%
G36*
X26668863Y-9620002D02*
G01*
X26715356Y-9673658D01*
X26725460Y-9743932D01*
X26695966Y-9808512D01*
X26657947Y-9838265D01*
X26499564Y-9918965D01*
X26490398Y-9923636D01*
X26330139Y-10040071D01*
X26190071Y-10180139D01*
X26073636Y-10340398D01*
X26004194Y-10476686D01*
X25983702Y-10516903D01*
X25922488Y-10705300D01*
X25891500Y-10900954D01*
X25891500Y-11599046D01*
X25922488Y-11794700D01*
X25983702Y-11983097D01*
X26050907Y-12114993D01*
X26073636Y-12159601D01*
X26190071Y-12319860D01*
X26330139Y-12459928D01*
X26330142Y-12459930D01*
X26490402Y-12576366D01*
X26666903Y-12666298D01*
X26855300Y-12727512D01*
X27050954Y-12758500D01*
X27050957Y-12758500D01*
X27249043Y-12758500D01*
X27249046Y-12758500D01*
X27444700Y-12727512D01*
X27633097Y-12666298D01*
X27809598Y-12576366D01*
X27969858Y-12459930D01*
X28109930Y-12319858D01*
X28226366Y-12159598D01*
X28316298Y-11983097D01*
X28377512Y-11794700D01*
X28408500Y-11599046D01*
X28408500Y-10900954D01*
X28377512Y-10705300D01*
X28316298Y-10516903D01*
X28226366Y-10340402D01*
X28109930Y-10180142D01*
X28109928Y-10180139D01*
X27969860Y-10040071D01*
X27809601Y-9923636D01*
X27809600Y-9923635D01*
X27809598Y-9923634D01*
X27642053Y-9838265D01*
X27590440Y-9789519D01*
X27573374Y-9720604D01*
X27596275Y-9653402D01*
X27651872Y-9609250D01*
X27699258Y-9600000D01*
X32450742Y-9600000D01*
X32518863Y-9620002D01*
X32565356Y-9673658D01*
X32575460Y-9743932D01*
X32545966Y-9808512D01*
X32507947Y-9838265D01*
X32349564Y-9918965D01*
X32340398Y-9923636D01*
X32180139Y-10040071D01*
X32040071Y-10180139D01*
X31923636Y-10340398D01*
X31854194Y-10476686D01*
X31833702Y-10516903D01*
X31772488Y-10705300D01*
X31741500Y-10900954D01*
X31741500Y-11599046D01*
X31772488Y-11794700D01*
X31833702Y-11983097D01*
X31900907Y-12114993D01*
X31923636Y-12159601D01*
X32040071Y-12319860D01*
X32180139Y-12459928D01*
X32180142Y-12459930D01*
X32340402Y-12576366D01*
X32516903Y-12666298D01*
X32705300Y-12727512D01*
X32900954Y-12758500D01*
X32900957Y-12758500D01*
X33099043Y-12758500D01*
X33099046Y-12758500D01*
X33294700Y-12727512D01*
X33483097Y-12666298D01*
X33659598Y-12576366D01*
X33819858Y-12459930D01*
X33959930Y-12319858D01*
X34076366Y-12159598D01*
X34166298Y-11983097D01*
X34177703Y-11947995D01*
X37986807Y-11947995D01*
X37986807Y-11948004D01*
X38005556Y-12222116D01*
X38005557Y-12222122D01*
X38005558Y-12222130D01*
X38022417Y-12303258D01*
X38061460Y-12491146D01*
X38061462Y-12491154D01*
X38145463Y-12727510D01*
X38153477Y-12750058D01*
X38279754Y-12993763D01*
X38279892Y-12994028D01*
X38318585Y-13048843D01*
X38438343Y-13218502D01*
X38625889Y-13419314D01*
X38839031Y-13592718D01*
X39073800Y-13735484D01*
X39073802Y-13735485D01*
X39100943Y-13747274D01*
X39325823Y-13844953D01*
X39590404Y-13919085D01*
X39685504Y-13932156D01*
X39862604Y-13956499D01*
X39862615Y-13956500D01*
X40137385Y-13956500D01*
X40137395Y-13956499D01*
X40272279Y-13937959D01*
X40409596Y-13919085D01*
X40674177Y-13844953D01*
X40926200Y-13735484D01*
X41160969Y-13592718D01*
X41374111Y-13419314D01*
X41561657Y-13218502D01*
X41720111Y-12994023D01*
X41846523Y-12750058D01*
X41938538Y-12491153D01*
X41994442Y-12222130D01*
X41998719Y-12159598D01*
X42013193Y-11948004D01*
X42013193Y-11947995D01*
X44336807Y-11947995D01*
X44336807Y-11948004D01*
X44355556Y-12222116D01*
X44355557Y-12222122D01*
X44355558Y-12222130D01*
X44372417Y-12303258D01*
X44411460Y-12491146D01*
X44411462Y-12491154D01*
X44495463Y-12727510D01*
X44503477Y-12750058D01*
X44629754Y-12993763D01*
X44629892Y-12994028D01*
X44668585Y-13048843D01*
X44788343Y-13218502D01*
X44975889Y-13419314D01*
X45189031Y-13592718D01*
X45423800Y-13735484D01*
X45423802Y-13735485D01*
X45450943Y-13747274D01*
X45675823Y-13844953D01*
X45940404Y-13919085D01*
X46035504Y-13932156D01*
X46212604Y-13956499D01*
X46212615Y-13956500D01*
X46487385Y-13956500D01*
X46487395Y-13956499D01*
X46622279Y-13937959D01*
X46759596Y-13919085D01*
X47024177Y-13844953D01*
X47276200Y-13735484D01*
X47510969Y-13592718D01*
X47724111Y-13419314D01*
X47911657Y-13218502D01*
X48070111Y-12994023D01*
X48196523Y-12750058D01*
X48288538Y-12491153D01*
X48344442Y-12222130D01*
X48348719Y-12159598D01*
X48363193Y-11948004D01*
X48363193Y-11947995D01*
X48344443Y-11673883D01*
X48344442Y-11673877D01*
X48344442Y-11673870D01*
X48288538Y-11404847D01*
X48196523Y-11145942D01*
X48070111Y-10901977D01*
X47911657Y-10677498D01*
X47724111Y-10476686D01*
X47510969Y-10303282D01*
X47276200Y-10160516D01*
X47276201Y-10160516D01*
X47276197Y-10160514D01*
X47024180Y-10051048D01*
X47024178Y-10051047D01*
X47024177Y-10051047D01*
X46891886Y-10013981D01*
X46759593Y-9976914D01*
X46487395Y-9939500D01*
X46487385Y-9939500D01*
X46212615Y-9939500D01*
X46212604Y-9939500D01*
X45940406Y-9976914D01*
X45675819Y-10051048D01*
X45423802Y-10160514D01*
X45189028Y-10303284D01*
X44975886Y-10476688D01*
X44788343Y-10677498D01*
X44629892Y-10901971D01*
X44503477Y-11145941D01*
X44411462Y-11404845D01*
X44411460Y-11404853D01*
X44355557Y-11673877D01*
X44355556Y-11673883D01*
X44336807Y-11947995D01*
X42013193Y-11947995D01*
X41994443Y-11673883D01*
X41994442Y-11673877D01*
X41994442Y-11673870D01*
X41938538Y-11404847D01*
X41846523Y-11145942D01*
X41720111Y-10901977D01*
X41561657Y-10677498D01*
X41374111Y-10476686D01*
X41160969Y-10303282D01*
X40926200Y-10160516D01*
X40926201Y-10160516D01*
X40926197Y-10160514D01*
X40674180Y-10051048D01*
X40674178Y-10051047D01*
X40674177Y-10051047D01*
X40541886Y-10013981D01*
X40409593Y-9976914D01*
X40137395Y-9939500D01*
X40137385Y-9939500D01*
X39862615Y-9939500D01*
X39862604Y-9939500D01*
X39590406Y-9976914D01*
X39325819Y-10051048D01*
X39073802Y-10160514D01*
X38839028Y-10303284D01*
X38625886Y-10476688D01*
X38438343Y-10677498D01*
X38279892Y-10901971D01*
X38153477Y-11145941D01*
X38061462Y-11404845D01*
X38061460Y-11404853D01*
X38005557Y-11673877D01*
X38005556Y-11673883D01*
X37986807Y-11947995D01*
X34177703Y-11947995D01*
X34227512Y-11794700D01*
X34258500Y-11599046D01*
X34258500Y-10900954D01*
X34227512Y-10705300D01*
X34166298Y-10516903D01*
X34076366Y-10340402D01*
X33959930Y-10180142D01*
X33959928Y-10180139D01*
X33819860Y-10040071D01*
X33659601Y-9923636D01*
X33659600Y-9923635D01*
X33659598Y-9923634D01*
X33492053Y-9838265D01*
X33440440Y-9789519D01*
X33423374Y-9720604D01*
X33446275Y-9653402D01*
X33501872Y-9609250D01*
X33549258Y-9600000D01*
X55674000Y-9600000D01*
X55742121Y-9620002D01*
X55788614Y-9673658D01*
X55800000Y-9726000D01*
X55800000Y-72573823D01*
X55779998Y-72641944D01*
X55726342Y-72688437D01*
X55673824Y-72699823D01*
X4425624Y-72628175D01*
X4357531Y-72608078D01*
X4311113Y-72554357D01*
X4299800Y-72502378D01*
X4296195Y-70229995D01*
X5287308Y-70229995D01*
X5287308Y-70230004D01*
X5306052Y-70504048D01*
X5306053Y-70504054D01*
X5361942Y-70773011D01*
X5361944Y-70773019D01*
X5453938Y-71031865D01*
X5580317Y-71275763D01*
X5710540Y-71460248D01*
X6620764Y-70550024D01*
X6635359Y-70585258D01*
X6717437Y-70708097D01*
X6821903Y-70812563D01*
X6944742Y-70894641D01*
X6979974Y-70909234D01*
X6070714Y-71818494D01*
X6139325Y-71874312D01*
X6374030Y-72017038D01*
X6625989Y-72126480D01*
X6890509Y-72200595D01*
X7162635Y-72237999D01*
X7162649Y-72238000D01*
X7437351Y-72238000D01*
X7437364Y-72237999D01*
X7709490Y-72200595D01*
X7974010Y-72126480D01*
X8225969Y-72017038D01*
X8460680Y-71874308D01*
X8529283Y-71818495D01*
X7620024Y-70909235D01*
X7655258Y-70894641D01*
X7778097Y-70812563D01*
X7882563Y-70708097D01*
X7964641Y-70585258D01*
X7979235Y-70550025D01*
X8889458Y-71460248D01*
X9019683Y-71275759D01*
X9019685Y-71275756D01*
X9146061Y-71031865D01*
X9238055Y-70773019D01*
X9238057Y-70773011D01*
X9293946Y-70504054D01*
X9293947Y-70504048D01*
X9312692Y-70230004D01*
X9312692Y-70229995D01*
X11636807Y-70229995D01*
X11636807Y-70230004D01*
X11655556Y-70504116D01*
X11655557Y-70504122D01*
X11655558Y-70504130D01*
X11672417Y-70585258D01*
X11711460Y-70773146D01*
X11711462Y-70773154D01*
X11803408Y-71031865D01*
X11803477Y-71032058D01*
X11929754Y-71275763D01*
X11929892Y-71276028D01*
X11997797Y-71372227D01*
X12088343Y-71500502D01*
X12275889Y-71701314D01*
X12489031Y-71874718D01*
X12723800Y-72017484D01*
X12975823Y-72126953D01*
X13240404Y-72201085D01*
X13335504Y-72214156D01*
X13512604Y-72238499D01*
X13512615Y-72238500D01*
X13787385Y-72238500D01*
X13787395Y-72238499D01*
X13916945Y-72220692D01*
X14059596Y-72201085D01*
X14324177Y-72126953D01*
X14576200Y-72017484D01*
X14810969Y-71874718D01*
X15024111Y-71701314D01*
X15211657Y-71500502D01*
X15370111Y-71276023D01*
X15496523Y-71032058D01*
X15588538Y-70773153D01*
X15644442Y-70504130D01*
X15663193Y-70230000D01*
X15663193Y-70229995D01*
X17986807Y-70229995D01*
X17986807Y-70230004D01*
X18005556Y-70504116D01*
X18005557Y-70504122D01*
X18005558Y-70504130D01*
X18022417Y-70585258D01*
X18061460Y-70773146D01*
X18061462Y-70773154D01*
X18153408Y-71031865D01*
X18153477Y-71032058D01*
X18279754Y-71275763D01*
X18279892Y-71276028D01*
X18347797Y-71372227D01*
X18438343Y-71500502D01*
X18625889Y-71701314D01*
X18839031Y-71874718D01*
X19073800Y-72017484D01*
X19325823Y-72126953D01*
X19590404Y-72201085D01*
X19685504Y-72214156D01*
X19862604Y-72238499D01*
X19862615Y-72238500D01*
X20137385Y-72238500D01*
X20137395Y-72238499D01*
X20266945Y-72220692D01*
X20409596Y-72201085D01*
X20674177Y-72126953D01*
X20926200Y-72017484D01*
X21160969Y-71874718D01*
X21374111Y-71701314D01*
X21561657Y-71500502D01*
X21720111Y-71276023D01*
X21846523Y-71032058D01*
X21938538Y-70773153D01*
X21994442Y-70504130D01*
X22013193Y-70230000D01*
X22008140Y-70156131D01*
X21994443Y-69955883D01*
X21994442Y-69955877D01*
X21994442Y-69955870D01*
X21938538Y-69686847D01*
X21846523Y-69427942D01*
X21720111Y-69183977D01*
X21561657Y-68959498D01*
X21374111Y-68758686D01*
X21160969Y-68585282D01*
X20926200Y-68442516D01*
X20926201Y-68442516D01*
X20926197Y-68442514D01*
X20674180Y-68333048D01*
X20674178Y-68333047D01*
X20674177Y-68333047D01*
X20541886Y-68295981D01*
X20409593Y-68258914D01*
X20137395Y-68221500D01*
X20137385Y-68221500D01*
X19862615Y-68221500D01*
X19862604Y-68221500D01*
X19590406Y-68258914D01*
X19325819Y-68333048D01*
X19073802Y-68442514D01*
X18839028Y-68585284D01*
X18625886Y-68758688D01*
X18438343Y-68959498D01*
X18279892Y-69183971D01*
X18153477Y-69427941D01*
X18061462Y-69686845D01*
X18061460Y-69686853D01*
X18005557Y-69955877D01*
X18005556Y-69955883D01*
X17986807Y-70229995D01*
X15663193Y-70229995D01*
X15658140Y-70156131D01*
X15644443Y-69955883D01*
X15644442Y-69955877D01*
X15644442Y-69955870D01*
X15588538Y-69686847D01*
X15496523Y-69427942D01*
X15370111Y-69183977D01*
X15211657Y-68959498D01*
X15024111Y-68758686D01*
X14810969Y-68585282D01*
X14576200Y-68442516D01*
X14576201Y-68442516D01*
X14576197Y-68442514D01*
X14324180Y-68333048D01*
X14324178Y-68333047D01*
X14324177Y-68333047D01*
X14191886Y-68295981D01*
X14059593Y-68258914D01*
X13787395Y-68221500D01*
X13787385Y-68221500D01*
X13512615Y-68221500D01*
X13512604Y-68221500D01*
X13240406Y-68258914D01*
X12975819Y-68333048D01*
X12723802Y-68442514D01*
X12489028Y-68585284D01*
X12275886Y-68758688D01*
X12088343Y-68959498D01*
X11929892Y-69183971D01*
X11803477Y-69427941D01*
X11711462Y-69686845D01*
X11711460Y-69686853D01*
X11655557Y-69955877D01*
X11655556Y-69955883D01*
X11636807Y-70229995D01*
X9312692Y-70229995D01*
X9293947Y-69955951D01*
X9293946Y-69955945D01*
X9238057Y-69686988D01*
X9238055Y-69686980D01*
X9146061Y-69428134D01*
X9019682Y-69184236D01*
X8889458Y-68999750D01*
X7979234Y-69909974D01*
X7964641Y-69874742D01*
X7882563Y-69751903D01*
X7778097Y-69647437D01*
X7655258Y-69565359D01*
X7620024Y-69550764D01*
X8529284Y-68641505D01*
X8529283Y-68641503D01*
X8460678Y-68585689D01*
X8225969Y-68442961D01*
X7974010Y-68333519D01*
X7709490Y-68259404D01*
X7437364Y-68222000D01*
X7162635Y-68222000D01*
X6890509Y-68259404D01*
X6625989Y-68333519D01*
X6374030Y-68442961D01*
X6139324Y-68585687D01*
X6070714Y-68641504D01*
X6979974Y-69550764D01*
X6944742Y-69565359D01*
X6821903Y-69647437D01*
X6717437Y-69751903D01*
X6635359Y-69874742D01*
X6620764Y-69909974D01*
X5710541Y-68999751D01*
X5710540Y-68999751D01*
X5580317Y-69184236D01*
X5453938Y-69428134D01*
X5361944Y-69686980D01*
X5361942Y-69686988D01*
X5306053Y-69955945D01*
X5306052Y-69955951D01*
X5287308Y-70229995D01*
X4296195Y-70229995D01*
X4270444Y-53999995D01*
X5287308Y-53999995D01*
X5287308Y-54000004D01*
X5306052Y-54274048D01*
X5306053Y-54274054D01*
X5361942Y-54543011D01*
X5361944Y-54543019D01*
X5453938Y-54801865D01*
X5580317Y-55045763D01*
X5710540Y-55230248D01*
X6620764Y-54320024D01*
X6635359Y-54355258D01*
X6717437Y-54478097D01*
X6821903Y-54582563D01*
X6944742Y-54664641D01*
X6979974Y-54679234D01*
X6070714Y-55588494D01*
X6139325Y-55644312D01*
X6374030Y-55787038D01*
X6625989Y-55896480D01*
X6890509Y-55970595D01*
X7162635Y-56007999D01*
X7162649Y-56008000D01*
X7437351Y-56008000D01*
X7437364Y-56007999D01*
X7709490Y-55970595D01*
X7974010Y-55896480D01*
X8225969Y-55787038D01*
X8460680Y-55644308D01*
X8529283Y-55588495D01*
X7620024Y-54679235D01*
X7655258Y-54664641D01*
X7778097Y-54582563D01*
X7882563Y-54478097D01*
X7964641Y-54355258D01*
X7979235Y-54320025D01*
X8889458Y-55230248D01*
X9019683Y-55045759D01*
X9019685Y-55045756D01*
X9146061Y-54801865D01*
X9238055Y-54543019D01*
X9238057Y-54543011D01*
X9293946Y-54274054D01*
X9293947Y-54274048D01*
X9312692Y-54000004D01*
X9312692Y-53999995D01*
X9293947Y-53725951D01*
X9293946Y-53725945D01*
X9238057Y-53456988D01*
X9238055Y-53456980D01*
X9146061Y-53198134D01*
X9019682Y-52954236D01*
X8889458Y-52769750D01*
X7979234Y-53679974D01*
X7964641Y-53644742D01*
X7882563Y-53521903D01*
X7778097Y-53417437D01*
X7655258Y-53335359D01*
X7620024Y-53320764D01*
X8529284Y-52411505D01*
X8529283Y-52411503D01*
X8460678Y-52355689D01*
X8225969Y-52212961D01*
X7974010Y-52103519D01*
X7709490Y-52029404D01*
X7437364Y-51992000D01*
X7162635Y-51992000D01*
X6890509Y-52029404D01*
X6625989Y-52103519D01*
X6374030Y-52212961D01*
X6139324Y-52355687D01*
X6070714Y-52411504D01*
X6979974Y-53320764D01*
X6944742Y-53335359D01*
X6821903Y-53417437D01*
X6717437Y-53521903D01*
X6635359Y-53644742D01*
X6620764Y-53679974D01*
X5710541Y-52769751D01*
X5710540Y-52769751D01*
X5580317Y-52954236D01*
X5453938Y-53198134D01*
X5361944Y-53456980D01*
X5361942Y-53456988D01*
X5306053Y-53725945D01*
X5306052Y-53725951D01*
X5287308Y-53999995D01*
X4270444Y-53999995D01*
X4262876Y-49229995D01*
X5287308Y-49229995D01*
X5287308Y-49230004D01*
X5306052Y-49504048D01*
X5306053Y-49504054D01*
X5361942Y-49773011D01*
X5361944Y-49773019D01*
X5453938Y-50031865D01*
X5580317Y-50275763D01*
X5710540Y-50460248D01*
X6620764Y-49550024D01*
X6635359Y-49585258D01*
X6717437Y-49708097D01*
X6821903Y-49812563D01*
X6944742Y-49894641D01*
X6979974Y-49909234D01*
X6070714Y-50818494D01*
X6139325Y-50874312D01*
X6374030Y-51017038D01*
X6625989Y-51126480D01*
X6890509Y-51200595D01*
X7162635Y-51237999D01*
X7162649Y-51238000D01*
X7437351Y-51238000D01*
X7437364Y-51237999D01*
X7709490Y-51200595D01*
X7974010Y-51126480D01*
X8225969Y-51017038D01*
X8460680Y-50874308D01*
X8529283Y-50818495D01*
X7620024Y-49909235D01*
X7655258Y-49894641D01*
X7778097Y-49812563D01*
X7882563Y-49708097D01*
X7964641Y-49585258D01*
X7979235Y-49550025D01*
X8889458Y-50460248D01*
X9019683Y-50275759D01*
X9019685Y-50275756D01*
X9146061Y-50031865D01*
X9238055Y-49773019D01*
X9238057Y-49773011D01*
X9293946Y-49504054D01*
X9293947Y-49504048D01*
X9312692Y-49230004D01*
X9312692Y-49229995D01*
X9293947Y-48955951D01*
X9293946Y-48955945D01*
X9238057Y-48686988D01*
X9238055Y-48686980D01*
X9146061Y-48428134D01*
X9019682Y-48184236D01*
X8889458Y-47999750D01*
X7979234Y-48909974D01*
X7964641Y-48874742D01*
X7882563Y-48751903D01*
X7778097Y-48647437D01*
X7655258Y-48565359D01*
X7620024Y-48550764D01*
X8529284Y-47641505D01*
X8529283Y-47641503D01*
X8460678Y-47585689D01*
X8225969Y-47442961D01*
X7974010Y-47333519D01*
X7709490Y-47259404D01*
X7437364Y-47222000D01*
X7162635Y-47222000D01*
X6890509Y-47259404D01*
X6625989Y-47333519D01*
X6374030Y-47442961D01*
X6139324Y-47585687D01*
X6070714Y-47641504D01*
X6979974Y-48550764D01*
X6944742Y-48565359D01*
X6821903Y-48647437D01*
X6717437Y-48751903D01*
X6635359Y-48874742D01*
X6620764Y-48909974D01*
X5710541Y-47999751D01*
X5710540Y-47999751D01*
X5580317Y-48184236D01*
X5453938Y-48428134D01*
X5361944Y-48686980D01*
X5361942Y-48686988D01*
X5306053Y-48955945D01*
X5306052Y-48955951D01*
X5287308Y-49229995D01*
X4262876Y-49229995D01*
X4229475Y-28177995D01*
X5287308Y-28177995D01*
X5287308Y-28178004D01*
X5306052Y-28452048D01*
X5306053Y-28452054D01*
X5361942Y-28721011D01*
X5361944Y-28721019D01*
X5453938Y-28979865D01*
X5580317Y-29223763D01*
X5710540Y-29408248D01*
X6620764Y-28498024D01*
X6635359Y-28533258D01*
X6717437Y-28656097D01*
X6821903Y-28760563D01*
X6944742Y-28842641D01*
X6979974Y-28857234D01*
X6070714Y-29766494D01*
X6139325Y-29822312D01*
X6374030Y-29965038D01*
X6625989Y-30074480D01*
X6890509Y-30148595D01*
X7162635Y-30185999D01*
X7162649Y-30186000D01*
X7437351Y-30186000D01*
X7437364Y-30185999D01*
X7709490Y-30148595D01*
X7974010Y-30074480D01*
X8225969Y-29965038D01*
X8460680Y-29822308D01*
X8529283Y-29766495D01*
X7620024Y-28857235D01*
X7655258Y-28842641D01*
X7778097Y-28760563D01*
X7882563Y-28656097D01*
X7964641Y-28533258D01*
X7979235Y-28498025D01*
X8879595Y-29398385D01*
X8913621Y-29460697D01*
X8916500Y-29487480D01*
X8916500Y-31690519D01*
X8896498Y-31758640D01*
X8879595Y-31779614D01*
X7979234Y-32679974D01*
X7964641Y-32644742D01*
X7882563Y-32521903D01*
X7778097Y-32417437D01*
X7655258Y-32335359D01*
X7620024Y-32320764D01*
X8529284Y-31411505D01*
X8529283Y-31411503D01*
X8460678Y-31355689D01*
X8225969Y-31212961D01*
X7974010Y-31103519D01*
X7709490Y-31029404D01*
X7437364Y-30992000D01*
X7162635Y-30992000D01*
X6890509Y-31029404D01*
X6625989Y-31103519D01*
X6374030Y-31212961D01*
X6139324Y-31355687D01*
X6070714Y-31411504D01*
X6979974Y-32320764D01*
X6944742Y-32335359D01*
X6821903Y-32417437D01*
X6717437Y-32521903D01*
X6635359Y-32644742D01*
X6620764Y-32679974D01*
X5710541Y-31769751D01*
X5710540Y-31769751D01*
X5580317Y-31954236D01*
X5453938Y-32198134D01*
X5361944Y-32456980D01*
X5361942Y-32456988D01*
X5306053Y-32725945D01*
X5306052Y-32725951D01*
X5287308Y-32999995D01*
X5287308Y-33000000D01*
X5306052Y-33274048D01*
X5306053Y-33274054D01*
X5361942Y-33543011D01*
X5361944Y-33543019D01*
X5453938Y-33801865D01*
X5580317Y-34045763D01*
X5710540Y-34230248D01*
X6620764Y-33320024D01*
X6635359Y-33355258D01*
X6717437Y-33478097D01*
X6821903Y-33582563D01*
X6944742Y-33664641D01*
X6979974Y-33679234D01*
X6070714Y-34588494D01*
X6139325Y-34644312D01*
X6374030Y-34787038D01*
X6625989Y-34896480D01*
X6890509Y-34970595D01*
X7162635Y-35007999D01*
X7162649Y-35008000D01*
X7437351Y-35008000D01*
X7437364Y-35007999D01*
X7709490Y-34970595D01*
X7974010Y-34896480D01*
X8225969Y-34787038D01*
X8460680Y-34644308D01*
X8529283Y-34588495D01*
X7620024Y-33679235D01*
X7655258Y-33664641D01*
X7778097Y-33582563D01*
X7882563Y-33478097D01*
X7964641Y-33355258D01*
X7979235Y-33320025D01*
X8879595Y-34220385D01*
X8913620Y-34282697D01*
X8916500Y-34309480D01*
X8916500Y-37135405D01*
X8896498Y-37203526D01*
X8879595Y-37224500D01*
X6596167Y-39507928D01*
X6596164Y-39507932D01*
X6573627Y-39530467D01*
X6511313Y-39564490D01*
X6497341Y-39566716D01*
X6395574Y-39577112D01*
X6227261Y-39632885D01*
X6076347Y-39725970D01*
X6076341Y-39725975D01*
X5950975Y-39851341D01*
X5950970Y-39851347D01*
X5857885Y-40002262D01*
X5802113Y-40170572D01*
X5802112Y-40170579D01*
X5791500Y-40274446D01*
X5791500Y-40900544D01*
X5802112Y-41004425D01*
X5857885Y-41172738D01*
X5950970Y-41323652D01*
X5950975Y-41323658D01*
X6038222Y-41410905D01*
X6072248Y-41473217D01*
X6067183Y-41544032D01*
X6038222Y-41589095D01*
X5950975Y-41676341D01*
X5950970Y-41676347D01*
X5857885Y-41827262D01*
X5802113Y-41995572D01*
X5802112Y-41995579D01*
X5791500Y-42099446D01*
X5791500Y-42725544D01*
X5802112Y-42829425D01*
X5857885Y-42997738D01*
X5950970Y-43148652D01*
X5950975Y-43148658D01*
X6076341Y-43274024D01*
X6076347Y-43274029D01*
X6076348Y-43274030D01*
X6227262Y-43367115D01*
X6395574Y-43422887D01*
X6499455Y-43433500D01*
X7500544Y-43433499D01*
X7604426Y-43422887D01*
X7772738Y-43367115D01*
X7923652Y-43274030D01*
X8049030Y-43148652D01*
X8142115Y-42997738D01*
X8142116Y-42997733D01*
X8142759Y-42996692D01*
X8195545Y-42949214D01*
X8265620Y-42937811D01*
X8330735Y-42966103D01*
X8357241Y-42996692D01*
X8357883Y-42997733D01*
X8357885Y-42997738D01*
X8434688Y-43122255D01*
X8450970Y-43148652D01*
X8450975Y-43148658D01*
X8576341Y-43274024D01*
X8576347Y-43274029D01*
X8576348Y-43274030D01*
X8727262Y-43367115D01*
X8895574Y-43422887D01*
X8999455Y-43433500D01*
X10000544Y-43433499D01*
X10104426Y-43422887D01*
X10272738Y-43367115D01*
X10423652Y-43274030D01*
X10549030Y-43148652D01*
X10575430Y-43105852D01*
X10628216Y-43058374D01*
X10682670Y-43046000D01*
X10776910Y-43046000D01*
X10845031Y-43066002D01*
X10884150Y-43105853D01*
X10925966Y-43173646D01*
X10925970Y-43173652D01*
X10925972Y-43173654D01*
X10925975Y-43173658D01*
X11051341Y-43299024D01*
X11051347Y-43299029D01*
X11051348Y-43299030D01*
X11202262Y-43392115D01*
X11370574Y-43447887D01*
X11474455Y-43458500D01*
X12525544Y-43458499D01*
X12629426Y-43447887D01*
X12797738Y-43392115D01*
X12948652Y-43299030D01*
X13074030Y-43173652D01*
X13142760Y-43062222D01*
X13195545Y-43014746D01*
X13265620Y-43003343D01*
X13330735Y-43031635D01*
X13357238Y-43062221D01*
X13418921Y-43162224D01*
X13425970Y-43173652D01*
X13425975Y-43173658D01*
X13551341Y-43299024D01*
X13551347Y-43299029D01*
X13551348Y-43299030D01*
X13702262Y-43392115D01*
X13870574Y-43447887D01*
X13974455Y-43458500D01*
X14560405Y-43458499D01*
X14628526Y-43478501D01*
X14649500Y-43495404D01*
X14921167Y-43767071D01*
X15024925Y-43836400D01*
X15140215Y-43884155D01*
X15262606Y-43908500D01*
X15262607Y-43908500D01*
X21199893Y-43908500D01*
X21199894Y-43908500D01*
X21215915Y-43905313D01*
X21286628Y-43911638D01*
X21342697Y-43955191D01*
X21366319Y-44022142D01*
X21366500Y-44028891D01*
X21366500Y-45687606D01*
X21366500Y-45812394D01*
X21390845Y-45934785D01*
X21438600Y-46050075D01*
X21507929Y-46153833D01*
X21507931Y-46153835D01*
X24463095Y-49108999D01*
X24497121Y-49171311D01*
X24500000Y-49198094D01*
X24500000Y-50740500D01*
X24479998Y-50808621D01*
X24426342Y-50855114D01*
X24374000Y-50866500D01*
X22584595Y-50866500D01*
X22516474Y-50846498D01*
X22495500Y-50829595D01*
X21861016Y-50195111D01*
X21826990Y-50132799D01*
X21832055Y-50061984D01*
X21838235Y-50048052D01*
X21846523Y-50032058D01*
X21938538Y-49773153D01*
X21994442Y-49504130D01*
X22008140Y-49303869D01*
X22013193Y-49230004D01*
X22013193Y-49229995D01*
X21994443Y-48955883D01*
X21994442Y-48955877D01*
X21994442Y-48955870D01*
X21938538Y-48686847D01*
X21846523Y-48427942D01*
X21720111Y-48183977D01*
X21561657Y-47959498D01*
X21374111Y-47758686D01*
X21160969Y-47585282D01*
X20926200Y-47442516D01*
X20926201Y-47442516D01*
X20926197Y-47442514D01*
X20674180Y-47333048D01*
X20674178Y-47333047D01*
X20674177Y-47333047D01*
X20520494Y-47289987D01*
X20409593Y-47258914D01*
X20137395Y-47221500D01*
X20137385Y-47221500D01*
X19862615Y-47221500D01*
X19862604Y-47221500D01*
X19590406Y-47258914D01*
X19325819Y-47333048D01*
X19073802Y-47442514D01*
X18839028Y-47585284D01*
X18625886Y-47758688D01*
X18438343Y-47959498D01*
X18279892Y-48183971D01*
X18153477Y-48427941D01*
X18061462Y-48686845D01*
X18061460Y-48686853D01*
X18049040Y-48746623D01*
X18014917Y-48910835D01*
X18005557Y-48955877D01*
X18005556Y-48955883D01*
X17986807Y-49229995D01*
X17986807Y-49230004D01*
X18005556Y-49504116D01*
X18005557Y-49504122D01*
X18005558Y-49504130D01*
X18022417Y-49585258D01*
X18061460Y-49773146D01*
X18061464Y-49773159D01*
X18123266Y-49947054D01*
X18127231Y-50017939D01*
X18092243Y-50079716D01*
X18030739Y-50112494D01*
X17942715Y-50131204D01*
X17768247Y-50208882D01*
X17613744Y-50321135D01*
X17485965Y-50463048D01*
X17485958Y-50463058D01*
X17390476Y-50628438D01*
X17390473Y-50628444D01*
X17375999Y-50672986D01*
X17331457Y-50810072D01*
X17311496Y-50999999D01*
X17311496Y-51000000D01*
X17324839Y-51126949D01*
X17330134Y-51177330D01*
X17317362Y-51247168D01*
X17268860Y-51299015D01*
X17204824Y-51316500D01*
X16684594Y-51316500D01*
X16616473Y-51296498D01*
X16595499Y-51279595D01*
X15511016Y-50195112D01*
X15476990Y-50132800D01*
X15482055Y-50061985D01*
X15488238Y-50048048D01*
X15496520Y-50032064D01*
X15496521Y-50032062D01*
X15496523Y-50032058D01*
X15588538Y-49773153D01*
X15644442Y-49504130D01*
X15658140Y-49303869D01*
X15663193Y-49230004D01*
X15663193Y-49229995D01*
X15644443Y-48955883D01*
X15644442Y-48955877D01*
X15644442Y-48955870D01*
X15588538Y-48686847D01*
X15496523Y-48427942D01*
X15370111Y-48183977D01*
X15211657Y-47959498D01*
X15024111Y-47758686D01*
X14810969Y-47585282D01*
X14576200Y-47442516D01*
X14576201Y-47442516D01*
X14576197Y-47442514D01*
X14324180Y-47333048D01*
X14324178Y-47333047D01*
X14324177Y-47333047D01*
X14170494Y-47289987D01*
X14059593Y-47258914D01*
X13787395Y-47221500D01*
X13787385Y-47221500D01*
X13512615Y-47221500D01*
X13512604Y-47221500D01*
X13240406Y-47258914D01*
X12975819Y-47333048D01*
X12723802Y-47442514D01*
X12489028Y-47585284D01*
X12275886Y-47758688D01*
X12088343Y-47959498D01*
X11929892Y-48183971D01*
X11803477Y-48427941D01*
X11711462Y-48686845D01*
X11711460Y-48686853D01*
X11699040Y-48746623D01*
X11664917Y-48910835D01*
X11655557Y-48955877D01*
X11655556Y-48955883D01*
X11636807Y-49229995D01*
X11636807Y-49230004D01*
X11655556Y-49504116D01*
X11655557Y-49504122D01*
X11655558Y-49504130D01*
X11672417Y-49585258D01*
X11711460Y-49773146D01*
X11711462Y-49773154D01*
X11798459Y-50017939D01*
X11803477Y-50032058D01*
X11929754Y-50275763D01*
X11929892Y-50276028D01*
X11961732Y-50321135D01*
X12088343Y-50500502D01*
X12275889Y-50701314D01*
X12489031Y-50874718D01*
X12723800Y-51017484D01*
X12975823Y-51126953D01*
X13240404Y-51201085D01*
X13335504Y-51214156D01*
X13512604Y-51238499D01*
X13512615Y-51238500D01*
X13787385Y-51238500D01*
X13787395Y-51238499D01*
X13916945Y-51220692D01*
X14059596Y-51201085D01*
X14324177Y-51126953D01*
X14473408Y-51062131D01*
X14543856Y-51053338D01*
X14607877Y-51084028D01*
X14612701Y-51088605D01*
X15966167Y-52442071D01*
X16069925Y-52511400D01*
X16185215Y-52559155D01*
X16307606Y-52583500D01*
X16432394Y-52583500D01*
X18298231Y-52583500D01*
X18366352Y-52603502D01*
X18412845Y-52657158D01*
X18422949Y-52727432D01*
X18401169Y-52782162D01*
X18279892Y-52953971D01*
X18153477Y-53197941D01*
X18061462Y-53456845D01*
X18061460Y-53456853D01*
X18047943Y-53521903D01*
X18010950Y-53699925D01*
X18005557Y-53725877D01*
X18005556Y-53725883D01*
X17986807Y-53999995D01*
X17986807Y-54000004D01*
X18005556Y-54274116D01*
X18005557Y-54274122D01*
X18005558Y-54274130D01*
X18011972Y-54304995D01*
X18061460Y-54543146D01*
X18061462Y-54543154D01*
X18147686Y-54785764D01*
X18153477Y-54802058D01*
X18279754Y-55045763D01*
X18279892Y-55046028D01*
X18365875Y-55167838D01*
X18388818Y-55235026D01*
X18371795Y-55303951D01*
X18320210Y-55352731D01*
X18262937Y-55366500D01*
X18208200Y-55366500D01*
X18140079Y-55346498D01*
X18114563Y-55324810D01*
X18111252Y-55321133D01*
X17956752Y-55208882D01*
X17782288Y-55131206D01*
X17595487Y-55091500D01*
X17404513Y-55091500D01*
X17217711Y-55131206D01*
X17043247Y-55208882D01*
X16888744Y-55321135D01*
X16760965Y-55463048D01*
X16760958Y-55463058D01*
X16665476Y-55628438D01*
X16665473Y-55628444D01*
X16660317Y-55644312D01*
X16608567Y-55803578D01*
X16568492Y-55862183D01*
X16503095Y-55889819D01*
X16433139Y-55877712D01*
X16399639Y-55853735D01*
X15511016Y-54965112D01*
X15476990Y-54902800D01*
X15482055Y-54831985D01*
X15488238Y-54818048D01*
X15496520Y-54802064D01*
X15496520Y-54802063D01*
X15496523Y-54802058D01*
X15588538Y-54543153D01*
X15644442Y-54274130D01*
X15647636Y-54227432D01*
X15663193Y-54000004D01*
X15663193Y-53999995D01*
X15644443Y-53725883D01*
X15644442Y-53725877D01*
X15644442Y-53725870D01*
X15588538Y-53456847D01*
X15496523Y-53197942D01*
X15370111Y-52953977D01*
X15211657Y-52729498D01*
X15024111Y-52528686D01*
X14810969Y-52355282D01*
X14576932Y-52212961D01*
X14576197Y-52212514D01*
X14324180Y-52103048D01*
X14324178Y-52103047D01*
X14324177Y-52103047D01*
X14191886Y-52065981D01*
X14059593Y-52028914D01*
X13787395Y-51991500D01*
X13787385Y-51991500D01*
X13512615Y-51991500D01*
X13512604Y-51991500D01*
X13240406Y-52028914D01*
X12975819Y-52103048D01*
X12723802Y-52212514D01*
X12489028Y-52355284D01*
X12275886Y-52528688D01*
X12088343Y-52729498D01*
X11929892Y-52953971D01*
X11803477Y-53197941D01*
X11711462Y-53456845D01*
X11711460Y-53456853D01*
X11697943Y-53521903D01*
X11660950Y-53699925D01*
X11655557Y-53725877D01*
X11655556Y-53725883D01*
X11636807Y-53999995D01*
X11636807Y-54000004D01*
X11655556Y-54274116D01*
X11655557Y-54274122D01*
X11655558Y-54274130D01*
X11661972Y-54304995D01*
X11711460Y-54543146D01*
X11711462Y-54543154D01*
X11797686Y-54785764D01*
X11803477Y-54802058D01*
X11929754Y-55045763D01*
X11929892Y-55046028D01*
X11997797Y-55142227D01*
X12088343Y-55270502D01*
X12243055Y-55436157D01*
X12268176Y-55463056D01*
X12275889Y-55471314D01*
X12489031Y-55644718D01*
X12723800Y-55787484D01*
X12975823Y-55896953D01*
X13240404Y-55971085D01*
X13335504Y-55984156D01*
X13512604Y-56008499D01*
X13512615Y-56008500D01*
X13787385Y-56008500D01*
X13787395Y-56008499D01*
X13916945Y-55990692D01*
X14059596Y-55971085D01*
X14324177Y-55896953D01*
X14473408Y-55832131D01*
X14543856Y-55823338D01*
X14607877Y-55854028D01*
X14612701Y-55858605D01*
X21071167Y-62317071D01*
X21174925Y-62386400D01*
X21290215Y-62434155D01*
X21412606Y-62458500D01*
X21537394Y-62458500D01*
X24705500Y-62458500D01*
X24773621Y-62478502D01*
X24820114Y-62532158D01*
X24831500Y-62584500D01*
X24831500Y-63650544D01*
X24842112Y-63754425D01*
X24897885Y-63922738D01*
X24990970Y-64073652D01*
X24990975Y-64073658D01*
X25116341Y-64199024D01*
X25116347Y-64199029D01*
X25116348Y-64199030D01*
X25267262Y-64292115D01*
X25435574Y-64347887D01*
X25539455Y-64358500D01*
X26840544Y-64358499D01*
X26944426Y-64347887D01*
X27112738Y-64292115D01*
X27263652Y-64199030D01*
X27389030Y-64073652D01*
X27482115Y-63922738D01*
X27482118Y-63922728D01*
X27485217Y-63916086D01*
X27487126Y-63916976D01*
X27521581Y-63867200D01*
X27587135Y-63839936D01*
X27657021Y-63852442D01*
X27693483Y-63879857D01*
X27732959Y-63922738D01*
X27806760Y-64002906D01*
X27984424Y-64141189D01*
X28182426Y-64248342D01*
X28182427Y-64248342D01*
X28182428Y-64248343D01*
X28294227Y-64286723D01*
X28395365Y-64321444D01*
X28617431Y-64358500D01*
X28617435Y-64358500D01*
X28842565Y-64358500D01*
X28842569Y-64358500D01*
X29064635Y-64321444D01*
X29277574Y-64248342D01*
X29475576Y-64141189D01*
X29653240Y-64002906D01*
X29805722Y-63837268D01*
X29894518Y-63701354D01*
X29948520Y-63655268D01*
X30018868Y-63645692D01*
X30083225Y-63675669D01*
X30105480Y-63701353D01*
X30138607Y-63752058D01*
X30194275Y-63837265D01*
X30194279Y-63837270D01*
X30346762Y-64002908D01*
X30401331Y-64045381D01*
X30524424Y-64141189D01*
X30722426Y-64248342D01*
X30722427Y-64248342D01*
X30722428Y-64248343D01*
X30834227Y-64286723D01*
X30935365Y-64321444D01*
X31157431Y-64358500D01*
X31157435Y-64358500D01*
X31382565Y-64358500D01*
X31382569Y-64358500D01*
X31604635Y-64321444D01*
X31604651Y-64321438D01*
X31607751Y-64320654D01*
X31609072Y-64320703D01*
X31609777Y-64320586D01*
X31609801Y-64320730D01*
X31678698Y-64323311D01*
X31727795Y-64353699D01*
X38012345Y-70638249D01*
X38046371Y-70700561D01*
X38046614Y-70701707D01*
X38061458Y-70773137D01*
X38061462Y-70773154D01*
X38153408Y-71031865D01*
X38153477Y-71032058D01*
X38279754Y-71275763D01*
X38279892Y-71276028D01*
X38347797Y-71372227D01*
X38438343Y-71500502D01*
X38625889Y-71701314D01*
X38839031Y-71874718D01*
X39073800Y-72017484D01*
X39325823Y-72126953D01*
X39590404Y-72201085D01*
X39685504Y-72214156D01*
X39862604Y-72238499D01*
X39862615Y-72238500D01*
X40137385Y-72238500D01*
X40137395Y-72238499D01*
X40266945Y-72220692D01*
X40409596Y-72201085D01*
X40674177Y-72126953D01*
X40926200Y-72017484D01*
X41160969Y-71874718D01*
X41374111Y-71701314D01*
X41561657Y-71500502D01*
X41720111Y-71276023D01*
X41846523Y-71032058D01*
X41938538Y-70773153D01*
X41994442Y-70504130D01*
X42013193Y-70230000D01*
X42008140Y-70156131D01*
X41994443Y-69955883D01*
X41994442Y-69955877D01*
X41994442Y-69955870D01*
X41938538Y-69686847D01*
X41846523Y-69427942D01*
X41720111Y-69183977D01*
X41561657Y-68959498D01*
X41374111Y-68758686D01*
X41160969Y-68585282D01*
X40926200Y-68442516D01*
X40926201Y-68442516D01*
X40926197Y-68442514D01*
X40674180Y-68333048D01*
X40674178Y-68333047D01*
X40674177Y-68333047D01*
X40541886Y-68295981D01*
X40409593Y-68258914D01*
X40137395Y-68221500D01*
X40137385Y-68221500D01*
X39862615Y-68221500D01*
X39862604Y-68221500D01*
X39590406Y-68258914D01*
X39325819Y-68333048D01*
X39073802Y-68442514D01*
X38839028Y-68585284D01*
X38625886Y-68758688D01*
X38438342Y-68959498D01*
X38395112Y-69020742D01*
X38339487Y-69064860D01*
X38268840Y-69071901D01*
X38205602Y-69039629D01*
X38203079Y-69037175D01*
X33739499Y-64573595D01*
X33705473Y-64511283D01*
X33710538Y-64440468D01*
X33753085Y-64383632D01*
X33819605Y-64358821D01*
X33828594Y-64358500D01*
X33922565Y-64358500D01*
X33922569Y-64358500D01*
X34144635Y-64321444D01*
X34357574Y-64248342D01*
X34555576Y-64141189D01*
X34733240Y-64002906D01*
X34885722Y-63837268D01*
X34885724Y-63837265D01*
X34981555Y-63690585D01*
X35035558Y-63644496D01*
X35087038Y-63633500D01*
X41740500Y-63633500D01*
X41808621Y-63653502D01*
X41855114Y-63707158D01*
X41866500Y-63759500D01*
X41866500Y-66317606D01*
X41866500Y-66442394D01*
X41890845Y-66564785D01*
X41938600Y-66680075D01*
X42007929Y-66783833D01*
X42007931Y-66783835D01*
X44488984Y-69264888D01*
X44523010Y-69327200D01*
X44517945Y-69398015D01*
X44511763Y-69411950D01*
X44503476Y-69427941D01*
X44411463Y-69686845D01*
X44411460Y-69686853D01*
X44355557Y-69955877D01*
X44355556Y-69955883D01*
X44336807Y-70229995D01*
X44336807Y-70230004D01*
X44355556Y-70504116D01*
X44355557Y-70504122D01*
X44355558Y-70504130D01*
X44372417Y-70585258D01*
X44411460Y-70773146D01*
X44411462Y-70773154D01*
X44503408Y-71031865D01*
X44503477Y-71032058D01*
X44629754Y-71275763D01*
X44629892Y-71276028D01*
X44697797Y-71372227D01*
X44788343Y-71500502D01*
X44975889Y-71701314D01*
X45189031Y-71874718D01*
X45423800Y-72017484D01*
X45675823Y-72126953D01*
X45940404Y-72201085D01*
X46035504Y-72214156D01*
X46212604Y-72238499D01*
X46212615Y-72238500D01*
X46487385Y-72238500D01*
X46487395Y-72238499D01*
X46616945Y-72220692D01*
X46759596Y-72201085D01*
X47024177Y-72126953D01*
X47276200Y-72017484D01*
X47510969Y-71874718D01*
X47724111Y-71701314D01*
X47911657Y-71500502D01*
X48070111Y-71276023D01*
X48196523Y-71032058D01*
X48288538Y-70773153D01*
X48344442Y-70504130D01*
X48363193Y-70230000D01*
X48363193Y-70229995D01*
X50687308Y-70229995D01*
X50687308Y-70230004D01*
X50706052Y-70504048D01*
X50706053Y-70504054D01*
X50761942Y-70773011D01*
X50761944Y-70773019D01*
X50853938Y-71031865D01*
X50980317Y-71275763D01*
X51110540Y-71460248D01*
X52020764Y-70550024D01*
X52035359Y-70585258D01*
X52117437Y-70708097D01*
X52221903Y-70812563D01*
X52344742Y-70894641D01*
X52379974Y-70909234D01*
X51470714Y-71818494D01*
X51539325Y-71874312D01*
X51774030Y-72017038D01*
X52025989Y-72126480D01*
X52290509Y-72200595D01*
X52562635Y-72237999D01*
X52562649Y-72238000D01*
X52837351Y-72238000D01*
X52837364Y-72237999D01*
X53109490Y-72200595D01*
X53374010Y-72126480D01*
X53625969Y-72017038D01*
X53860680Y-71874308D01*
X53929283Y-71818495D01*
X53020024Y-70909235D01*
X53055258Y-70894641D01*
X53178097Y-70812563D01*
X53282563Y-70708097D01*
X53364641Y-70585258D01*
X53379235Y-70550025D01*
X54289458Y-71460248D01*
X54419683Y-71275759D01*
X54419685Y-71275756D01*
X54546061Y-71031865D01*
X54638055Y-70773019D01*
X54638057Y-70773011D01*
X54693946Y-70504054D01*
X54693947Y-70504048D01*
X54712692Y-70230004D01*
X54712692Y-70229995D01*
X54693947Y-69955951D01*
X54693946Y-69955945D01*
X54638057Y-69686988D01*
X54638055Y-69686980D01*
X54546061Y-69428134D01*
X54419682Y-69184236D01*
X54289458Y-68999750D01*
X53379234Y-69909974D01*
X53364641Y-69874742D01*
X53282563Y-69751903D01*
X53178097Y-69647437D01*
X53055258Y-69565359D01*
X53020024Y-69550764D01*
X53929284Y-68641505D01*
X53929283Y-68641503D01*
X53860678Y-68585689D01*
X53625969Y-68442961D01*
X53374010Y-68333519D01*
X53109490Y-68259404D01*
X52837364Y-68222000D01*
X52562635Y-68222000D01*
X52290509Y-68259404D01*
X52025989Y-68333519D01*
X51774030Y-68442961D01*
X51539324Y-68585687D01*
X51470714Y-68641504D01*
X52379974Y-69550764D01*
X52344742Y-69565359D01*
X52221903Y-69647437D01*
X52117437Y-69751903D01*
X52035359Y-69874742D01*
X52020764Y-69909974D01*
X51110541Y-68999751D01*
X51110540Y-68999751D01*
X50980317Y-69184236D01*
X50853938Y-69428134D01*
X50761944Y-69686980D01*
X50761942Y-69686988D01*
X50706053Y-69955945D01*
X50706052Y-69955951D01*
X50687308Y-70229995D01*
X48363193Y-70229995D01*
X48358140Y-70156131D01*
X48344443Y-69955883D01*
X48344442Y-69955877D01*
X48344442Y-69955870D01*
X48288538Y-69686847D01*
X48196523Y-69427942D01*
X48070111Y-69183977D01*
X47911657Y-68959498D01*
X47724111Y-68758686D01*
X47510969Y-68585282D01*
X47276200Y-68442516D01*
X47276201Y-68442516D01*
X47276197Y-68442514D01*
X47024180Y-68333048D01*
X47024178Y-68333047D01*
X47024177Y-68333047D01*
X46891886Y-68295981D01*
X46759593Y-68258914D01*
X46487395Y-68221500D01*
X46487385Y-68221500D01*
X46212615Y-68221500D01*
X46212604Y-68221500D01*
X45940406Y-68258914D01*
X45675819Y-68333048D01*
X45526589Y-68397867D01*
X45456139Y-68406660D01*
X45392119Y-68375968D01*
X45387297Y-68371393D01*
X43170405Y-66154501D01*
X43136379Y-66092189D01*
X43133500Y-66065406D01*
X43133500Y-63620022D01*
X43153502Y-63551901D01*
X43207154Y-63505410D01*
X43236417Y-63492047D01*
X43359368Y-63413032D01*
X43464685Y-63321774D01*
X43466435Y-63320364D01*
X43468029Y-63318878D01*
X43468033Y-63318875D01*
X43563745Y-63208416D01*
X43641477Y-63087462D01*
X43702193Y-62954513D01*
X43742700Y-62816558D01*
X43763500Y-62671889D01*
X43763500Y-62050000D01*
X43758273Y-61976921D01*
X43755323Y-61966877D01*
X43754026Y-61917346D01*
X43751146Y-61917037D01*
X43751988Y-61909203D01*
X43751989Y-61909201D01*
X43758500Y-61848638D01*
X43758500Y-61456286D01*
X43778502Y-61388165D01*
X43795405Y-61367191D01*
X44077292Y-61085304D01*
X44492071Y-60670525D01*
X44561400Y-60566767D01*
X44609155Y-60451477D01*
X44633500Y-60329086D01*
X44633500Y-60204298D01*
X44633500Y-55356619D01*
X44653502Y-55288498D01*
X44707158Y-55242005D01*
X44757504Y-55233284D01*
X45670764Y-54320024D01*
X45685359Y-54355258D01*
X45767437Y-54478097D01*
X45871903Y-54582563D01*
X45994742Y-54664641D01*
X46029974Y-54679234D01*
X45120714Y-55588494D01*
X45189325Y-55644312D01*
X45424030Y-55787038D01*
X45675989Y-55896480D01*
X45940509Y-55970595D01*
X46212635Y-56007999D01*
X46212649Y-56008000D01*
X46487351Y-56008000D01*
X46487364Y-56007999D01*
X46759490Y-55970595D01*
X47024010Y-55896480D01*
X47275969Y-55787038D01*
X47510680Y-55644308D01*
X47579283Y-55588495D01*
X46670024Y-54679235D01*
X46705258Y-54664641D01*
X46828097Y-54582563D01*
X46932563Y-54478097D01*
X47014641Y-54355258D01*
X47029235Y-54320025D01*
X47939458Y-55230248D01*
X48069683Y-55045759D01*
X48069685Y-55045756D01*
X48196061Y-54801865D01*
X48288055Y-54543019D01*
X48288057Y-54543011D01*
X48343946Y-54274054D01*
X48343947Y-54274048D01*
X48362692Y-54000004D01*
X48362692Y-53999995D01*
X50687308Y-53999995D01*
X50687308Y-54000004D01*
X50706052Y-54274048D01*
X50706053Y-54274054D01*
X50761942Y-54543011D01*
X50761944Y-54543019D01*
X50853938Y-54801865D01*
X50980317Y-55045763D01*
X51110540Y-55230248D01*
X52020764Y-54320024D01*
X52035359Y-54355258D01*
X52117437Y-54478097D01*
X52221903Y-54582563D01*
X52344742Y-54664641D01*
X52379974Y-54679234D01*
X51470714Y-55588494D01*
X51539325Y-55644312D01*
X51774030Y-55787038D01*
X52025989Y-55896480D01*
X52290509Y-55970595D01*
X52562635Y-56007999D01*
X52562649Y-56008000D01*
X52837351Y-56008000D01*
X52837364Y-56007999D01*
X53109490Y-55970595D01*
X53374010Y-55896480D01*
X53625969Y-55787038D01*
X53860680Y-55644308D01*
X53929283Y-55588495D01*
X53020024Y-54679235D01*
X53055258Y-54664641D01*
X53178097Y-54582563D01*
X53282563Y-54478097D01*
X53364641Y-54355258D01*
X53379235Y-54320025D01*
X54289458Y-55230248D01*
X54419683Y-55045759D01*
X54419685Y-55045756D01*
X54546061Y-54801865D01*
X54638055Y-54543019D01*
X54638057Y-54543011D01*
X54693946Y-54274054D01*
X54693947Y-54274048D01*
X54712692Y-54000004D01*
X54712692Y-53999995D01*
X54693947Y-53725951D01*
X54693946Y-53725945D01*
X54638057Y-53456988D01*
X54638055Y-53456980D01*
X54546061Y-53198134D01*
X54419682Y-52954236D01*
X54289458Y-52769750D01*
X53379234Y-53679974D01*
X53364641Y-53644742D01*
X53282563Y-53521903D01*
X53178097Y-53417437D01*
X53055258Y-53335359D01*
X53020024Y-53320764D01*
X53929284Y-52411505D01*
X53929283Y-52411503D01*
X53860678Y-52355689D01*
X53625969Y-52212961D01*
X53374010Y-52103519D01*
X53109490Y-52029404D01*
X52837364Y-51992000D01*
X52562635Y-51992000D01*
X52290509Y-52029404D01*
X52025989Y-52103519D01*
X51774030Y-52212961D01*
X51539324Y-52355687D01*
X51470714Y-52411504D01*
X52379974Y-53320764D01*
X52344742Y-53335359D01*
X52221903Y-53417437D01*
X52117437Y-53521903D01*
X52035359Y-53644742D01*
X52020764Y-53679974D01*
X51110541Y-52769751D01*
X51110540Y-52769751D01*
X50980317Y-52954236D01*
X50853938Y-53198134D01*
X50761944Y-53456980D01*
X50761942Y-53456988D01*
X50706053Y-53725945D01*
X50706052Y-53725951D01*
X50687308Y-53999995D01*
X48362692Y-53999995D01*
X48343947Y-53725951D01*
X48343946Y-53725945D01*
X48288057Y-53456988D01*
X48288055Y-53456980D01*
X48196061Y-53198134D01*
X48069682Y-52954236D01*
X47939458Y-52769750D01*
X47029234Y-53679974D01*
X47014641Y-53644742D01*
X46932563Y-53521903D01*
X46828097Y-53417437D01*
X46705258Y-53335359D01*
X46670024Y-53320764D01*
X47579284Y-52411505D01*
X47579283Y-52411503D01*
X47510678Y-52355689D01*
X47275969Y-52212961D01*
X47024010Y-52103519D01*
X46759490Y-52029404D01*
X46487364Y-51992000D01*
X46212635Y-51992000D01*
X45940509Y-52029404D01*
X45675989Y-52103519D01*
X45424030Y-52212961D01*
X45189324Y-52355687D01*
X45120714Y-52411504D01*
X46029974Y-53320764D01*
X45994742Y-53335359D01*
X45871903Y-53417437D01*
X45767437Y-53521903D01*
X45685359Y-53644742D01*
X45670764Y-53679974D01*
X44757027Y-52766237D01*
X44700665Y-52754799D01*
X44649767Y-52705303D01*
X44633500Y-52643379D01*
X44633500Y-51894594D01*
X44653502Y-51826473D01*
X44670400Y-51805503D01*
X45387299Y-51088603D01*
X45449610Y-51054580D01*
X45520425Y-51059644D01*
X45526580Y-51062127D01*
X45675823Y-51126953D01*
X45940404Y-51201085D01*
X46035504Y-51214156D01*
X46212604Y-51238499D01*
X46212615Y-51238500D01*
X46487385Y-51238500D01*
X46487395Y-51238499D01*
X46616945Y-51220692D01*
X46759596Y-51201085D01*
X47024177Y-51126953D01*
X47276200Y-51017484D01*
X47510969Y-50874718D01*
X47724111Y-50701314D01*
X47911657Y-50500502D01*
X48070111Y-50276023D01*
X48196523Y-50032058D01*
X48288538Y-49773153D01*
X48344442Y-49504130D01*
X48358140Y-49303869D01*
X48363193Y-49230004D01*
X48363193Y-49229995D01*
X50687308Y-49229995D01*
X50687308Y-49230004D01*
X50706052Y-49504048D01*
X50706053Y-49504054D01*
X50761942Y-49773011D01*
X50761944Y-49773019D01*
X50853938Y-50031865D01*
X50980317Y-50275763D01*
X51110540Y-50460248D01*
X52020764Y-49550024D01*
X52035359Y-49585258D01*
X52117437Y-49708097D01*
X52221903Y-49812563D01*
X52344742Y-49894641D01*
X52379974Y-49909234D01*
X51470714Y-50818494D01*
X51539325Y-50874312D01*
X51774030Y-51017038D01*
X52025989Y-51126480D01*
X52290509Y-51200595D01*
X52562635Y-51237999D01*
X52562649Y-51238000D01*
X52837351Y-51238000D01*
X52837364Y-51237999D01*
X53109490Y-51200595D01*
X53374010Y-51126480D01*
X53625969Y-51017038D01*
X53860680Y-50874308D01*
X53929283Y-50818495D01*
X53020024Y-49909235D01*
X53055258Y-49894641D01*
X53178097Y-49812563D01*
X53282563Y-49708097D01*
X53364641Y-49585258D01*
X53379235Y-49550025D01*
X54289458Y-50460248D01*
X54419683Y-50275759D01*
X54419685Y-50275756D01*
X54546061Y-50031865D01*
X54638055Y-49773019D01*
X54638057Y-49773011D01*
X54693946Y-49504054D01*
X54693947Y-49504048D01*
X54712692Y-49230004D01*
X54712692Y-49229995D01*
X54693947Y-48955951D01*
X54693946Y-48955945D01*
X54638057Y-48686988D01*
X54638055Y-48686980D01*
X54546061Y-48428134D01*
X54419682Y-48184236D01*
X54289458Y-47999750D01*
X53379234Y-48909974D01*
X53364641Y-48874742D01*
X53282563Y-48751903D01*
X53178097Y-48647437D01*
X53055258Y-48565359D01*
X53020024Y-48550764D01*
X53929284Y-47641505D01*
X53929283Y-47641503D01*
X53860678Y-47585689D01*
X53625969Y-47442961D01*
X53374010Y-47333519D01*
X53109490Y-47259404D01*
X52837364Y-47222000D01*
X52562635Y-47222000D01*
X52290509Y-47259404D01*
X52025989Y-47333519D01*
X51774030Y-47442961D01*
X51539324Y-47585687D01*
X51470714Y-47641504D01*
X52379974Y-48550764D01*
X52344742Y-48565359D01*
X52221903Y-48647437D01*
X52117437Y-48751903D01*
X52035359Y-48874742D01*
X52020764Y-48909974D01*
X51110541Y-47999751D01*
X51110540Y-47999751D01*
X50980317Y-48184236D01*
X50853938Y-48428134D01*
X50761944Y-48686980D01*
X50761942Y-48686988D01*
X50706053Y-48955945D01*
X50706052Y-48955951D01*
X50687308Y-49229995D01*
X48363193Y-49229995D01*
X48344443Y-48955883D01*
X48344442Y-48955877D01*
X48344442Y-48955870D01*
X48288538Y-48686847D01*
X48196523Y-48427942D01*
X48070111Y-48183977D01*
X47911657Y-47959498D01*
X47724111Y-47758686D01*
X47510969Y-47585282D01*
X47276200Y-47442516D01*
X47276201Y-47442516D01*
X47276197Y-47442514D01*
X47024180Y-47333048D01*
X47024178Y-47333047D01*
X47024177Y-47333047D01*
X46870494Y-47289987D01*
X46759593Y-47258914D01*
X46487395Y-47221500D01*
X46487385Y-47221500D01*
X46212615Y-47221500D01*
X46212604Y-47221500D01*
X45940402Y-47258915D01*
X45940397Y-47258916D01*
X45912751Y-47266662D01*
X45841760Y-47265779D01*
X45782516Y-47226656D01*
X45753828Y-47161714D01*
X45764805Y-47091571D01*
X45789661Y-47056242D01*
X47350500Y-45495404D01*
X47412812Y-45461378D01*
X47439595Y-45458499D01*
X48025544Y-45458499D01*
X48129426Y-45447887D01*
X48297738Y-45392115D01*
X48448652Y-45299030D01*
X48574030Y-45173652D01*
X48662971Y-45029455D01*
X48715755Y-44981980D01*
X48785830Y-44970577D01*
X48850945Y-44998869D01*
X48877448Y-45029454D01*
X48929495Y-45113835D01*
X48950970Y-45148652D01*
X48950975Y-45148658D01*
X49076341Y-45274024D01*
X49076347Y-45274029D01*
X49076348Y-45274030D01*
X49227262Y-45367115D01*
X49395574Y-45422887D01*
X49499455Y-45433500D01*
X50500544Y-45433499D01*
X50604426Y-45422887D01*
X50772738Y-45367115D01*
X50923652Y-45274030D01*
X51049030Y-45148652D01*
X51142115Y-44997738D01*
X51142116Y-44997733D01*
X51142759Y-44996692D01*
X51195545Y-44949214D01*
X51265620Y-44937811D01*
X51330735Y-44966103D01*
X51357241Y-44996692D01*
X51357883Y-44997733D01*
X51357885Y-44997738D01*
X51429495Y-45113835D01*
X51450970Y-45148652D01*
X51450975Y-45148658D01*
X51576341Y-45274024D01*
X51576347Y-45274029D01*
X51576348Y-45274030D01*
X51727262Y-45367115D01*
X51895574Y-45422887D01*
X51999455Y-45433500D01*
X53000544Y-45433499D01*
X53104426Y-45422887D01*
X53272738Y-45367115D01*
X53423652Y-45274030D01*
X53549030Y-45148652D01*
X53642115Y-44997738D01*
X53697887Y-44829426D01*
X53708500Y-44725545D01*
X53708499Y-44152093D01*
X53728501Y-44083973D01*
X53745399Y-44063003D01*
X54492071Y-43316333D01*
X54561400Y-43212575D01*
X54609155Y-43097285D01*
X54633500Y-42974894D01*
X54633500Y-42850107D01*
X54633500Y-36818546D01*
X54609155Y-36696155D01*
X54561400Y-36580865D01*
X54492071Y-36477107D01*
X54403833Y-36388869D01*
X53164992Y-35150028D01*
X53130966Y-35087716D01*
X53136031Y-35016901D01*
X53178578Y-34960065D01*
X53220093Y-34939605D01*
X53374008Y-34896480D01*
X53625969Y-34787038D01*
X53860680Y-34644308D01*
X53929283Y-34588495D01*
X53929283Y-34588494D01*
X53020024Y-33679235D01*
X53055258Y-33664641D01*
X53178097Y-33582563D01*
X53282563Y-33478097D01*
X53364641Y-33355258D01*
X53379235Y-33320025D01*
X54289458Y-34230248D01*
X54419683Y-34045759D01*
X54419685Y-34045756D01*
X54546061Y-33801865D01*
X54638055Y-33543019D01*
X54638057Y-33543011D01*
X54693946Y-33274054D01*
X54693947Y-33274048D01*
X54712692Y-33000000D01*
X54712692Y-32999995D01*
X54693947Y-32725951D01*
X54693946Y-32725945D01*
X54638057Y-32456988D01*
X54638055Y-32456980D01*
X54546061Y-32198134D01*
X54419682Y-31954236D01*
X54289458Y-31769750D01*
X53379234Y-32679974D01*
X53364641Y-32644742D01*
X53282563Y-32521903D01*
X53178097Y-32417437D01*
X53055258Y-32335359D01*
X53020024Y-32320764D01*
X53929284Y-31411505D01*
X53929283Y-31411503D01*
X53860678Y-31355689D01*
X53625969Y-31212961D01*
X53374010Y-31103519D01*
X53109490Y-31029404D01*
X52837364Y-30992000D01*
X52562635Y-30992000D01*
X52290509Y-31029404D01*
X52025989Y-31103519D01*
X51774030Y-31212961D01*
X51539324Y-31355687D01*
X51470714Y-31411504D01*
X52379974Y-32320764D01*
X52344742Y-32335359D01*
X52221903Y-32417437D01*
X52117437Y-32521903D01*
X52035359Y-32644742D01*
X52020764Y-32679974D01*
X51110541Y-31769751D01*
X51110540Y-31769751D01*
X50980317Y-31954236D01*
X50871373Y-32164488D01*
X50822273Y-32215769D01*
X50753244Y-32232364D01*
X50686200Y-32209004D01*
X50642429Y-32153106D01*
X50633500Y-32106519D01*
X50633500Y-29071480D01*
X50653502Y-29003359D01*
X50707158Y-28956866D01*
X50777432Y-28946762D01*
X50842012Y-28976256D01*
X50871373Y-29013511D01*
X50980317Y-29223763D01*
X51110540Y-29408248D01*
X52020764Y-28498024D01*
X52035359Y-28533258D01*
X52117437Y-28656097D01*
X52221903Y-28760563D01*
X52344742Y-28842641D01*
X52379974Y-28857234D01*
X51470714Y-29766494D01*
X51539325Y-29822312D01*
X51774030Y-29965038D01*
X52025989Y-30074480D01*
X52290509Y-30148595D01*
X52562635Y-30185999D01*
X52562649Y-30186000D01*
X52837351Y-30186000D01*
X52837364Y-30185999D01*
X53109490Y-30148595D01*
X53374010Y-30074480D01*
X53625969Y-29965038D01*
X53860680Y-29822308D01*
X53929283Y-29766495D01*
X53020024Y-28857235D01*
X53055258Y-28842641D01*
X53178097Y-28760563D01*
X53282563Y-28656097D01*
X53364641Y-28533258D01*
X53379235Y-28498025D01*
X54289458Y-29408248D01*
X54419683Y-29223759D01*
X54419685Y-29223756D01*
X54546061Y-28979865D01*
X54638055Y-28721019D01*
X54638057Y-28721011D01*
X54693946Y-28452054D01*
X54693947Y-28452048D01*
X54712692Y-28178004D01*
X54712692Y-28177995D01*
X54693947Y-27903951D01*
X54693946Y-27903945D01*
X54638057Y-27634988D01*
X54638055Y-27634980D01*
X54546061Y-27376134D01*
X54419682Y-27132236D01*
X54289458Y-26947750D01*
X53379234Y-27857974D01*
X53364641Y-27822742D01*
X53282563Y-27699903D01*
X53178097Y-27595437D01*
X53055258Y-27513359D01*
X53020024Y-27498764D01*
X53929284Y-26589505D01*
X53929283Y-26589503D01*
X53860678Y-26533689D01*
X53625969Y-26390961D01*
X53374010Y-26281519D01*
X53109490Y-26207404D01*
X52837364Y-26170000D01*
X52562635Y-26170000D01*
X52290509Y-26207404D01*
X52025989Y-26281519D01*
X51774030Y-26390961D01*
X51539324Y-26533687D01*
X51470714Y-26589504D01*
X52379974Y-27498764D01*
X52344742Y-27513359D01*
X52221903Y-27595437D01*
X52117437Y-27699903D01*
X52035359Y-27822742D01*
X52020764Y-27857974D01*
X51110541Y-26947751D01*
X51110540Y-26947751D01*
X50980317Y-27132236D01*
X50871373Y-27342488D01*
X50822273Y-27393769D01*
X50753244Y-27410364D01*
X50686200Y-27387004D01*
X50642429Y-27331106D01*
X50633500Y-27284519D01*
X50633500Y-24207772D01*
X50653502Y-24139651D01*
X50699532Y-24096958D01*
X50736913Y-24076727D01*
X50773017Y-24057190D01*
X50957220Y-23913818D01*
X50975121Y-23894373D01*
X51115314Y-23742083D01*
X51142484Y-23700496D01*
X51242984Y-23546669D01*
X51336749Y-23332907D01*
X51394051Y-23106626D01*
X51413327Y-22874000D01*
X51394051Y-22641374D01*
X51366007Y-22530629D01*
X51336750Y-22415096D01*
X51336747Y-22415089D01*
X51294126Y-22317924D01*
X51242984Y-22201331D01*
X51115314Y-22005916D01*
X50957225Y-21834186D01*
X50957221Y-21834182D01*
X50824316Y-21730738D01*
X50773017Y-21690810D01*
X50567727Y-21579713D01*
X50567724Y-21579712D01*
X50567723Y-21579711D01*
X50346955Y-21503921D01*
X50346948Y-21503919D01*
X50243715Y-21486693D01*
X50116712Y-21465500D01*
X49883288Y-21465500D01*
X49768066Y-21484727D01*
X49653051Y-21503919D01*
X49653044Y-21503921D01*
X49432276Y-21579711D01*
X49432273Y-21579713D01*
X49315122Y-21643112D01*
X49226985Y-21690809D01*
X49226983Y-21690810D01*
X49042778Y-21834182D01*
X49042774Y-21834186D01*
X48884685Y-22005916D01*
X48855483Y-22050615D01*
X48801480Y-22096704D01*
X48731132Y-22106279D01*
X48666774Y-22076302D01*
X48644517Y-22050615D01*
X48615314Y-22005916D01*
X48457225Y-21834186D01*
X48457221Y-21834182D01*
X48324316Y-21730738D01*
X48273017Y-21690810D01*
X48067727Y-21579713D01*
X48067724Y-21579712D01*
X48067723Y-21579711D01*
X47846955Y-21503921D01*
X47846948Y-21503919D01*
X47743715Y-21486693D01*
X47616712Y-21465500D01*
X47383288Y-21465500D01*
X47268066Y-21484727D01*
X47153051Y-21503919D01*
X47153044Y-21503921D01*
X46932276Y-21579711D01*
X46932273Y-21579713D01*
X46726983Y-21690810D01*
X46609501Y-21782251D01*
X46560274Y-21820566D01*
X46494232Y-21846622D01*
X46424586Y-21832837D01*
X46373450Y-21783587D01*
X46364828Y-21765167D01*
X46350889Y-21727796D01*
X46350887Y-21727792D01*
X46263261Y-21610738D01*
X46146207Y-21523112D01*
X46146202Y-21523110D01*
X46009204Y-21472011D01*
X46009196Y-21472009D01*
X45948649Y-21465500D01*
X45948638Y-21465500D01*
X44051362Y-21465500D01*
X44051350Y-21465500D01*
X43990803Y-21472009D01*
X43990795Y-21472011D01*
X43853797Y-21523110D01*
X43853792Y-21523112D01*
X43736738Y-21610738D01*
X43649112Y-21727792D01*
X43649110Y-21727797D01*
X43598011Y-21864795D01*
X43598009Y-21864803D01*
X43591500Y-21925350D01*
X43591500Y-23396306D01*
X43571498Y-23464427D01*
X43517842Y-23510920D01*
X43447568Y-23521024D01*
X43382988Y-23491530D01*
X43376405Y-23485401D01*
X34882533Y-14991529D01*
X40831500Y-14991529D01*
X40831500Y-15756470D01*
X40863469Y-15999300D01*
X40863470Y-15999306D01*
X40863471Y-15999308D01*
X40926865Y-16235898D01*
X41020598Y-16462190D01*
X41020599Y-16462191D01*
X41020604Y-16462201D01*
X41143063Y-16674306D01*
X41143065Y-16674309D01*
X41143066Y-16674310D01*
X41186940Y-16731488D01*
X41292173Y-16868631D01*
X41292182Y-16868641D01*
X41465358Y-17041817D01*
X41465368Y-17041826D01*
X41465369Y-17041827D01*
X41659690Y-17190934D01*
X41871810Y-17313402D01*
X42098102Y-17407135D01*
X42334692Y-17470529D01*
X42334698Y-17470529D01*
X42334699Y-17470530D01*
X42362560Y-17474198D01*
X42577532Y-17502500D01*
X42577539Y-17502500D01*
X42822461Y-17502500D01*
X42822468Y-17502500D01*
X43065308Y-17470529D01*
X43301898Y-17407135D01*
X43528190Y-17313402D01*
X43740310Y-17190934D01*
X43934631Y-17041827D01*
X44107827Y-16868631D01*
X44256934Y-16674310D01*
X44379402Y-16462190D01*
X44473135Y-16235898D01*
X44536529Y-15999308D01*
X44568500Y-15756468D01*
X44568500Y-14991532D01*
X44568500Y-14991529D01*
X50431500Y-14991529D01*
X50431500Y-15756470D01*
X50463469Y-15999300D01*
X50463470Y-15999306D01*
X50463471Y-15999308D01*
X50526865Y-16235898D01*
X50620598Y-16462190D01*
X50620599Y-16462191D01*
X50620604Y-16462201D01*
X50743063Y-16674306D01*
X50743065Y-16674309D01*
X50743066Y-16674310D01*
X50786940Y-16731488D01*
X50892173Y-16868631D01*
X50892182Y-16868641D01*
X51065358Y-17041817D01*
X51065368Y-17041826D01*
X51065369Y-17041827D01*
X51259690Y-17190934D01*
X51471810Y-17313402D01*
X51698102Y-17407135D01*
X51934692Y-17470529D01*
X51934698Y-17470529D01*
X51934699Y-17470530D01*
X51962560Y-17474198D01*
X52177532Y-17502500D01*
X52177539Y-17502500D01*
X52422461Y-17502500D01*
X52422468Y-17502500D01*
X52665308Y-17470529D01*
X52901898Y-17407135D01*
X53128190Y-17313402D01*
X53340310Y-17190934D01*
X53534631Y-17041827D01*
X53707827Y-16868631D01*
X53856934Y-16674310D01*
X53979402Y-16462190D01*
X54073135Y-16235898D01*
X54136529Y-15999308D01*
X54168500Y-15756468D01*
X54168500Y-14991532D01*
X54136529Y-14748692D01*
X54073135Y-14512102D01*
X53979402Y-14285810D01*
X53882716Y-14118346D01*
X53856936Y-14073693D01*
X53833263Y-14042842D01*
X53707827Y-13879369D01*
X53707826Y-13879368D01*
X53707817Y-13879358D01*
X53700536Y-13872077D01*
X53666510Y-13809765D01*
X53671575Y-13738950D01*
X53714122Y-13682114D01*
X53724164Y-13675325D01*
X53860680Y-13592308D01*
X53929283Y-13536495D01*
X53020024Y-12627235D01*
X53055258Y-12612641D01*
X53178097Y-12530563D01*
X53282563Y-12426097D01*
X53364641Y-12303258D01*
X53379235Y-12268025D01*
X54289458Y-13178248D01*
X54419683Y-12993759D01*
X54419685Y-12993756D01*
X54546061Y-12749865D01*
X54638055Y-12491019D01*
X54638057Y-12491011D01*
X54693946Y-12222054D01*
X54693947Y-12222048D01*
X54712692Y-11948004D01*
X54712692Y-11947995D01*
X54693947Y-11673951D01*
X54693946Y-11673945D01*
X54638057Y-11404988D01*
X54638055Y-11404980D01*
X54546061Y-11146134D01*
X54419682Y-10902236D01*
X54289458Y-10717750D01*
X53379234Y-11627974D01*
X53364641Y-11592742D01*
X53282563Y-11469903D01*
X53178097Y-11365437D01*
X53055258Y-11283359D01*
X53020024Y-11268764D01*
X53929284Y-10359505D01*
X53929283Y-10359503D01*
X53860678Y-10303689D01*
X53625969Y-10160961D01*
X53374010Y-10051519D01*
X53109490Y-9977404D01*
X52837364Y-9940000D01*
X52562635Y-9940000D01*
X52290509Y-9977404D01*
X52025989Y-10051519D01*
X51774030Y-10160961D01*
X51539324Y-10303687D01*
X51470714Y-10359504D01*
X52379974Y-11268764D01*
X52344742Y-11283359D01*
X52221903Y-11365437D01*
X52117437Y-11469903D01*
X52035359Y-11592742D01*
X52020764Y-11627974D01*
X51110541Y-10717751D01*
X51110540Y-10717751D01*
X50980317Y-10902236D01*
X50853938Y-11146134D01*
X50761944Y-11404980D01*
X50761942Y-11404988D01*
X50706053Y-11673945D01*
X50706052Y-11673951D01*
X50687308Y-11947995D01*
X50687308Y-11948004D01*
X50706052Y-12222048D01*
X50706053Y-12222054D01*
X50761942Y-12491011D01*
X50761944Y-12491019D01*
X50853938Y-12749865D01*
X50980317Y-12993763D01*
X51110540Y-13178248D01*
X52020764Y-12268024D01*
X52035359Y-12303258D01*
X52117437Y-12426097D01*
X52221903Y-12530563D01*
X52344742Y-12612641D01*
X52379973Y-12627234D01*
X51661613Y-13345595D01*
X51620738Y-13372908D01*
X51471816Y-13434595D01*
X51471804Y-13434601D01*
X51259693Y-13557063D01*
X51065368Y-13706173D01*
X51065358Y-13706182D01*
X50892182Y-13879358D01*
X50892173Y-13879368D01*
X50743063Y-14073693D01*
X50620604Y-14285798D01*
X50620599Y-14285808D01*
X50526865Y-14512102D01*
X50463469Y-14748699D01*
X50431500Y-14991529D01*
X44568500Y-14991529D01*
X44536529Y-14748692D01*
X44473135Y-14512102D01*
X44379402Y-14285810D01*
X44282716Y-14118346D01*
X44256936Y-14073693D01*
X44233263Y-14042842D01*
X44107827Y-13879369D01*
X44107826Y-13879368D01*
X44107817Y-13879358D01*
X43934641Y-13706182D01*
X43934631Y-13706173D01*
X43748515Y-13563362D01*
X43740310Y-13557066D01*
X43740309Y-13557065D01*
X43740306Y-13557063D01*
X43528201Y-13434604D01*
X43528196Y-13434601D01*
X43528190Y-13434598D01*
X43301898Y-13340865D01*
X43065308Y-13277471D01*
X43065306Y-13277470D01*
X43065300Y-13277469D01*
X42822470Y-13245500D01*
X42822468Y-13245500D01*
X42577532Y-13245500D01*
X42577529Y-13245500D01*
X42334699Y-13277469D01*
X42334692Y-13277471D01*
X42098102Y-13340865D01*
X41871818Y-13434595D01*
X41871808Y-13434599D01*
X41871798Y-13434604D01*
X41659693Y-13557063D01*
X41465368Y-13706173D01*
X41465358Y-13706182D01*
X41292182Y-13879358D01*
X41292173Y-13879368D01*
X41143063Y-14073693D01*
X41020604Y-14285798D01*
X41020599Y-14285808D01*
X40926865Y-14512102D01*
X40863469Y-14748699D01*
X40831500Y-14991529D01*
X34882533Y-14991529D01*
X34148935Y-14257931D01*
X34148933Y-14257929D01*
X34045175Y-14188600D01*
X33929885Y-14140845D01*
X33852348Y-14125422D01*
X33807496Y-14116500D01*
X33807494Y-14116500D01*
X32584500Y-14116500D01*
X32516379Y-14096498D01*
X32469886Y-14042842D01*
X32458500Y-13990500D01*
X32458500Y-13951367D01*
X32458499Y-13951350D01*
X32451990Y-13890803D01*
X32451988Y-13890795D01*
X32400889Y-13753797D01*
X32400887Y-13753792D01*
X32313261Y-13636738D01*
X32196207Y-13549112D01*
X32196202Y-13549110D01*
X32059204Y-13498011D01*
X32059196Y-13498009D01*
X31998649Y-13491500D01*
X31998638Y-13491500D01*
X30501362Y-13491500D01*
X30501350Y-13491500D01*
X30440803Y-13498009D01*
X30440795Y-13498011D01*
X30303797Y-13549110D01*
X30303792Y-13549112D01*
X30186738Y-13636738D01*
X30099112Y-13753792D01*
X30099110Y-13753797D01*
X30048011Y-13890795D01*
X30048009Y-13890803D01*
X30041500Y-13951350D01*
X30041500Y-14000704D01*
X30021498Y-14068825D01*
X29967842Y-14115318D01*
X29897568Y-14125422D01*
X29832988Y-14095928D01*
X29812287Y-14072975D01*
X29717751Y-13937965D01*
X29717749Y-13937962D01*
X29562038Y-13782251D01*
X29381654Y-13655944D01*
X29381650Y-13655942D01*
X29182079Y-13562881D01*
X29182073Y-13562879D01*
X29083604Y-13536494D01*
X28969371Y-13505885D01*
X28750000Y-13486693D01*
X28530629Y-13505885D01*
X28317926Y-13562879D01*
X28317920Y-13562881D01*
X28118346Y-13655944D01*
X27937965Y-13782248D01*
X27937959Y-13782253D01*
X27782253Y-13937959D01*
X27782248Y-13937965D01*
X27655944Y-14118346D01*
X27562881Y-14317920D01*
X27562880Y-14317924D01*
X27505885Y-14530629D01*
X27486693Y-14750000D01*
X27505196Y-14961501D01*
X27505885Y-14969370D01*
X27514284Y-15000716D01*
X27512594Y-15071693D01*
X27481673Y-15122421D01*
X26596167Y-16007929D01*
X26507927Y-16096169D01*
X26507926Y-16096171D01*
X26493109Y-16118347D01*
X26438600Y-16199925D01*
X26390845Y-16315215D01*
X26390306Y-16317926D01*
X26366500Y-16437603D01*
X26366500Y-18562396D01*
X26373562Y-18597896D01*
X26390845Y-18684785D01*
X26438600Y-18800075D01*
X26507929Y-18903833D01*
X26507931Y-18903835D01*
X28878675Y-21274579D01*
X28912701Y-21336891D01*
X28907636Y-21407706D01*
X28865089Y-21464542D01*
X28798569Y-21489353D01*
X28778600Y-21489195D01*
X28750000Y-21486693D01*
X28530629Y-21505885D01*
X28317926Y-21562879D01*
X28317920Y-21562881D01*
X28118346Y-21655944D01*
X27937965Y-21782248D01*
X27937959Y-21782253D01*
X27782253Y-21937959D01*
X27782248Y-21937965D01*
X27655944Y-22118346D01*
X27562881Y-22317920D01*
X27562879Y-22317926D01*
X27536844Y-22415089D01*
X27505885Y-22530629D01*
X27486693Y-22750000D01*
X27505885Y-22969371D01*
X27523992Y-23036945D01*
X27562879Y-23182073D01*
X27562881Y-23182079D01*
X27597957Y-23257300D01*
X27655944Y-23381654D01*
X27782251Y-23562038D01*
X27782254Y-23562042D01*
X27937957Y-23717745D01*
X27937961Y-23717748D01*
X27937962Y-23717749D01*
X28118346Y-23844056D01*
X28317924Y-23937120D01*
X28530629Y-23994115D01*
X28750000Y-24013307D01*
X28969371Y-23994115D01*
X29182076Y-23937120D01*
X29381654Y-23844056D01*
X29562038Y-23717749D01*
X29717749Y-23562038D01*
X29844056Y-23381654D01*
X29866789Y-23332903D01*
X29885805Y-23292123D01*
X29932722Y-23238837D01*
X30000999Y-23219376D01*
X30068959Y-23239918D01*
X30114195Y-23292123D01*
X30155940Y-23381648D01*
X30155943Y-23381653D01*
X30155944Y-23381654D01*
X30246458Y-23510920D01*
X30282251Y-23562038D01*
X30282254Y-23562042D01*
X30437957Y-23717745D01*
X30437961Y-23717748D01*
X30437962Y-23717749D01*
X30618346Y-23844056D01*
X30817924Y-23937120D01*
X31030629Y-23994115D01*
X31250000Y-24013307D01*
X31469371Y-23994115D01*
X31500714Y-23985716D01*
X31571688Y-23987402D01*
X31622422Y-24018326D01*
X32291239Y-24687143D01*
X32325265Y-24749455D01*
X32320200Y-24820270D01*
X32277653Y-24877106D01*
X32259349Y-24888503D01*
X32232884Y-24901988D01*
X32190399Y-24923635D01*
X32030139Y-25040071D01*
X31890071Y-25180139D01*
X31773636Y-25340398D01*
X31773634Y-25340402D01*
X31683702Y-25516903D01*
X31622488Y-25705300D01*
X31591500Y-25900954D01*
X31591500Y-26599046D01*
X31622488Y-26794700D01*
X31683702Y-26983097D01*
X31773634Y-27159598D01*
X31773636Y-27159601D01*
X31890071Y-27319860D01*
X32030139Y-27459928D01*
X32135413Y-27536414D01*
X32190402Y-27576366D01*
X32366903Y-27666298D01*
X32555300Y-27727512D01*
X32750954Y-27758500D01*
X32750957Y-27758500D01*
X32949043Y-27758500D01*
X32949046Y-27758500D01*
X33144700Y-27727512D01*
X33333097Y-27666298D01*
X33509598Y-27576366D01*
X33669858Y-27459930D01*
X33809930Y-27319858D01*
X33926366Y-27159598D01*
X34016298Y-26983097D01*
X34077512Y-26794700D01*
X34082756Y-26761586D01*
X34113166Y-26697436D01*
X34173433Y-26659908D01*
X34244422Y-26660920D01*
X34296299Y-26692203D01*
X35100248Y-27496152D01*
X35134274Y-27558464D01*
X35129209Y-27629279D01*
X35086662Y-27686115D01*
X35062404Y-27700353D01*
X35043248Y-27708882D01*
X34888744Y-27821135D01*
X34760965Y-27963048D01*
X34760958Y-27963058D01*
X34665476Y-28128438D01*
X34665473Y-28128445D01*
X34606457Y-28310072D01*
X34586496Y-28500000D01*
X34596050Y-28590908D01*
X34583277Y-28660746D01*
X34555529Y-28694774D01*
X34556536Y-28695781D01*
X34425975Y-28826341D01*
X34425970Y-28826347D01*
X34332885Y-28977262D01*
X34277113Y-29145572D01*
X34277112Y-29145579D01*
X34266500Y-29249446D01*
X34266500Y-29850544D01*
X34277112Y-29954425D01*
X34332885Y-30122738D01*
X34425970Y-30273652D01*
X34425975Y-30273658D01*
X34551345Y-30399028D01*
X34554450Y-30401483D01*
X34556027Y-30403710D01*
X34556537Y-30404220D01*
X34556449Y-30404307D01*
X34595481Y-30459422D01*
X34598673Y-30530347D01*
X34563014Y-30591739D01*
X34554454Y-30599157D01*
X34551654Y-30601370D01*
X34426370Y-30726654D01*
X34426365Y-30726660D01*
X34333342Y-30877474D01*
X34277606Y-31045678D01*
X34277605Y-31045681D01*
X34267000Y-31149483D01*
X34267000Y-31196000D01*
X35374000Y-31196000D01*
X35442121Y-31216002D01*
X35488614Y-31269658D01*
X35500000Y-31322000D01*
X35500000Y-31450000D01*
X35628000Y-31450000D01*
X35696121Y-31470002D01*
X35742614Y-31523658D01*
X35754000Y-31576000D01*
X35754000Y-32458000D01*
X36025517Y-32458000D01*
X36025516Y-32457999D01*
X36129318Y-32447394D01*
X36129330Y-32447392D01*
X36200867Y-32423687D01*
X36271821Y-32421246D01*
X36332832Y-32457554D01*
X36364527Y-32521083D01*
X36366500Y-32543291D01*
X36366500Y-35487606D01*
X36366500Y-35612394D01*
X36390845Y-35734785D01*
X36438600Y-35850075D01*
X36507929Y-35953833D01*
X36507931Y-35953835D01*
X38229595Y-37675499D01*
X38263621Y-37737811D01*
X38266500Y-37764594D01*
X38266500Y-38350544D01*
X38277112Y-38454425D01*
X38332885Y-38622738D01*
X38425970Y-38773652D01*
X38425975Y-38773658D01*
X38551344Y-38899027D01*
X38554049Y-38901166D01*
X38555421Y-38903104D01*
X38556537Y-38904220D01*
X38556346Y-38904410D01*
X38595076Y-38959108D01*
X38598264Y-39030033D01*
X38562602Y-39091423D01*
X38554049Y-39098834D01*
X38551344Y-39100972D01*
X38425975Y-39226341D01*
X38425970Y-39226347D01*
X38332885Y-39377262D01*
X38277113Y-39545572D01*
X38277112Y-39545579D01*
X38266500Y-39649446D01*
X38266500Y-40235403D01*
X38246498Y-40303524D01*
X38229596Y-40324498D01*
X37848596Y-40705499D01*
X37786283Y-40739524D01*
X37715468Y-40734460D01*
X37658632Y-40691913D01*
X37633821Y-40625393D01*
X37633500Y-40616404D01*
X37633500Y-37827607D01*
X37633499Y-37827603D01*
X37631034Y-37815211D01*
X37609155Y-37705215D01*
X37561400Y-37589925D01*
X37492071Y-37486167D01*
X37403833Y-37397929D01*
X35536905Y-35531001D01*
X35502879Y-35468689D01*
X35500000Y-35441906D01*
X35500000Y-33000000D01*
X29398094Y-33000000D01*
X29329973Y-32979998D01*
X29308999Y-32963095D01*
X28393518Y-32047614D01*
X28359492Y-31985302D01*
X28364557Y-31914487D01*
X28407104Y-31857651D01*
X28473624Y-31832840D01*
X28523524Y-31839345D01*
X28613049Y-31870080D01*
X28843288Y-31908500D01*
X28843292Y-31908500D01*
X29076708Y-31908500D01*
X29076712Y-31908500D01*
X29306951Y-31870080D01*
X29527727Y-31794287D01*
X29733017Y-31683190D01*
X29917220Y-31539818D01*
X29917221Y-31539817D01*
X29921054Y-31536289D01*
X29922431Y-31537785D01*
X29975780Y-31505690D01*
X30046745Y-31507790D01*
X30105310Y-31547924D01*
X30125741Y-31583549D01*
X30149111Y-31646204D01*
X30149112Y-31646207D01*
X30236738Y-31763261D01*
X30353792Y-31850887D01*
X30353794Y-31850888D01*
X30353796Y-31850889D01*
X30409206Y-31871556D01*
X30490795Y-31901988D01*
X30490803Y-31901990D01*
X30551350Y-31908499D01*
X30551355Y-31908499D01*
X30551362Y-31908500D01*
X30551368Y-31908500D01*
X32448632Y-31908500D01*
X32448638Y-31908500D01*
X32448645Y-31908499D01*
X32448649Y-31908499D01*
X32509196Y-31901990D01*
X32509199Y-31901989D01*
X32509201Y-31901989D01*
X32646204Y-31850889D01*
X32689423Y-31818536D01*
X32763261Y-31763261D01*
X32772802Y-31750516D01*
X34267000Y-31750516D01*
X34277605Y-31854318D01*
X34277606Y-31854321D01*
X34333342Y-32022525D01*
X34426365Y-32173339D01*
X34426370Y-32173345D01*
X34551654Y-32298629D01*
X34551660Y-32298634D01*
X34702474Y-32391657D01*
X34870678Y-32447393D01*
X34870681Y-32447394D01*
X34974483Y-32457999D01*
X34974483Y-32458000D01*
X35246000Y-32458000D01*
X35246000Y-31704000D01*
X34267000Y-31704000D01*
X34267000Y-31750516D01*
X32772802Y-31750516D01*
X32850887Y-31646207D01*
X32850887Y-31646206D01*
X32850889Y-31646204D01*
X32901989Y-31509201D01*
X32902367Y-31505690D01*
X32908499Y-31448649D01*
X32908500Y-31448632D01*
X32908500Y-29551367D01*
X32908499Y-29551350D01*
X32901990Y-29490803D01*
X32901988Y-29490795D01*
X32857233Y-29370806D01*
X32850889Y-29353796D01*
X32850888Y-29353794D01*
X32850887Y-29353792D01*
X32763261Y-29236738D01*
X32646207Y-29149112D01*
X32646202Y-29149110D01*
X32509204Y-29098011D01*
X32509196Y-29098009D01*
X32448649Y-29091500D01*
X32448638Y-29091500D01*
X31039594Y-29091500D01*
X30971473Y-29071498D01*
X30950499Y-29054595D01*
X29903835Y-28007931D01*
X29903833Y-28007929D01*
X29800075Y-27938600D01*
X29684785Y-27890845D01*
X29605504Y-27875075D01*
X29562396Y-27866500D01*
X29562394Y-27866500D01*
X27765006Y-27866500D01*
X27696885Y-27846498D01*
X27650392Y-27792842D01*
X27640288Y-27722568D01*
X27669782Y-27657988D01*
X27707801Y-27628233D01*
X27809598Y-27576366D01*
X27969858Y-27459930D01*
X28109930Y-27319858D01*
X28226366Y-27159598D01*
X28316298Y-26983097D01*
X28377512Y-26794700D01*
X28408500Y-26599046D01*
X28408500Y-25900954D01*
X28377512Y-25705300D01*
X28316298Y-25516903D01*
X28226366Y-25340402D01*
X28144319Y-25227474D01*
X28109928Y-25180139D01*
X27969860Y-25040071D01*
X27809601Y-24923636D01*
X27809600Y-24923635D01*
X27809598Y-24923634D01*
X27633097Y-24833702D01*
X27444700Y-24772488D01*
X27249046Y-24741500D01*
X27050954Y-24741500D01*
X26855300Y-24772488D01*
X26855297Y-24772488D01*
X26855296Y-24772489D01*
X26666903Y-24833702D01*
X26666901Y-24833703D01*
X26490398Y-24923636D01*
X26330139Y-25040071D01*
X26190075Y-25180135D01*
X26101862Y-25301549D01*
X26045639Y-25344902D01*
X25974903Y-25350977D01*
X25912111Y-25317845D01*
X25880322Y-25267120D01*
X25867115Y-25227262D01*
X25774030Y-25076348D01*
X25774029Y-25076347D01*
X25774024Y-25076341D01*
X25648658Y-24950975D01*
X25648652Y-24950970D01*
X25497738Y-24857885D01*
X25413582Y-24829999D01*
X25329427Y-24802113D01*
X25329420Y-24802112D01*
X25225553Y-24791500D01*
X25225545Y-24791500D01*
X24788760Y-24791500D01*
X24720639Y-24771498D01*
X24674146Y-24717842D01*
X24672351Y-24713718D01*
X24661343Y-24687143D01*
X24636400Y-24626925D01*
X24567071Y-24523167D01*
X24478833Y-24434929D01*
X23287405Y-23243501D01*
X23253379Y-23181189D01*
X23250500Y-23154406D01*
X23250500Y-22045367D01*
X23250499Y-22045350D01*
X23243990Y-21984803D01*
X23243988Y-21984795D01*
X23192889Y-21847797D01*
X23192887Y-21847792D01*
X23105261Y-21730738D01*
X22988207Y-21643112D01*
X22988202Y-21643110D01*
X22851204Y-21592011D01*
X22851196Y-21592009D01*
X22790649Y-21585500D01*
X22790638Y-21585500D01*
X22754703Y-21585500D01*
X22686582Y-21565498D01*
X22640089Y-21511842D01*
X22629985Y-21441568D01*
X22659479Y-21376988D01*
X22682430Y-21356289D01*
X22683986Y-21355199D01*
X22683986Y-21355197D01*
X22116947Y-20788158D01*
X22184993Y-20769925D01*
X22299007Y-20704099D01*
X22392099Y-20611007D01*
X22457925Y-20496993D01*
X22476158Y-20428947D01*
X23043197Y-20995986D01*
X23043198Y-20995986D01*
X23085615Y-20935412D01*
X23085619Y-20935405D01*
X23178645Y-20735912D01*
X23178649Y-20735903D01*
X23235619Y-20523287D01*
X23254804Y-20304000D01*
X23235619Y-20084712D01*
X23178649Y-19872096D01*
X23178647Y-19872092D01*
X23085621Y-19672598D01*
X23043198Y-19612012D01*
X23043196Y-19612012D01*
X22476157Y-20179051D01*
X22457925Y-20111007D01*
X22392099Y-19996993D01*
X22299007Y-19903901D01*
X22184993Y-19838075D01*
X22116946Y-19819841D01*
X22683986Y-19252801D01*
X22683986Y-19252800D01*
X22623401Y-19210378D01*
X22623402Y-19210378D01*
X22490640Y-19148470D01*
X22437355Y-19101552D01*
X22417894Y-19033275D01*
X22438436Y-18965315D01*
X22490639Y-18920081D01*
X22623654Y-18858056D01*
X22804038Y-18731749D01*
X22959749Y-18576038D01*
X23086056Y-18395654D01*
X23179120Y-18196076D01*
X23236115Y-17983371D01*
X23255307Y-17764000D01*
X23236115Y-17544629D01*
X23179120Y-17331924D01*
X23086056Y-17132347D01*
X22959749Y-16951962D01*
X22804038Y-16796251D01*
X22711545Y-16731486D01*
X22667219Y-16676030D01*
X22659910Y-16605411D01*
X22691941Y-16542051D01*
X22694661Y-16539242D01*
X23376501Y-15857402D01*
X23438811Y-15823379D01*
X23465594Y-15820500D01*
X24774632Y-15820500D01*
X24774638Y-15820500D01*
X24774645Y-15820499D01*
X24774649Y-15820499D01*
X24835196Y-15813990D01*
X24835199Y-15813989D01*
X24835201Y-15813989D01*
X24972204Y-15762889D01*
X24980782Y-15756468D01*
X25089261Y-15675261D01*
X25176887Y-15558207D01*
X25176887Y-15558206D01*
X25176889Y-15558204D01*
X25227989Y-15421201D01*
X25232915Y-15375386D01*
X25234499Y-15360649D01*
X25234500Y-15360632D01*
X25234500Y-13563367D01*
X25234499Y-13563350D01*
X25227990Y-13502803D01*
X25227988Y-13502795D01*
X25196849Y-13419311D01*
X25176889Y-13365796D01*
X25176888Y-13365794D01*
X25176887Y-13365792D01*
X25089261Y-13248738D01*
X24972207Y-13161112D01*
X24972204Y-13161111D01*
X24856686Y-13118024D01*
X24799851Y-13075477D01*
X24775041Y-13008957D01*
X24790133Y-12939583D01*
X24808019Y-12914632D01*
X24951323Y-12758961D01*
X25074419Y-12570548D01*
X25164820Y-12364456D01*
X25164823Y-12364449D01*
X25212544Y-12176000D01*
X24306703Y-12176000D01*
X24341925Y-12114993D01*
X24376000Y-11987826D01*
X24376000Y-11856174D01*
X24341925Y-11729007D01*
X24306703Y-11668000D01*
X25212544Y-11668000D01*
X25212544Y-11667999D01*
X25164823Y-11479550D01*
X25164820Y-11479543D01*
X25074419Y-11273451D01*
X24951325Y-11085041D01*
X24798902Y-10919465D01*
X24621301Y-10781232D01*
X24621300Y-10781231D01*
X24423371Y-10674117D01*
X24423369Y-10674116D01*
X24210512Y-10601043D01*
X24210501Y-10601040D01*
X24130000Y-10587606D01*
X24130000Y-11491297D01*
X24068993Y-11456075D01*
X23941826Y-11422000D01*
X23810174Y-11422000D01*
X23683007Y-11456075D01*
X23622000Y-11491297D01*
X23622000Y-10587607D01*
X23621999Y-10587606D01*
X23541498Y-10601040D01*
X23541487Y-10601043D01*
X23328630Y-10674116D01*
X23328628Y-10674117D01*
X23130699Y-10781231D01*
X23130698Y-10781232D01*
X22953097Y-10919465D01*
X22800674Y-11085041D01*
X22677580Y-11273451D01*
X22587179Y-11479543D01*
X22587176Y-11479550D01*
X22539455Y-11667999D01*
X22539456Y-11668000D01*
X23445297Y-11668000D01*
X23410075Y-11729007D01*
X23376000Y-11856174D01*
X23376000Y-11987826D01*
X23410075Y-12114993D01*
X23445297Y-12176000D01*
X22539455Y-12176000D01*
X22587176Y-12364449D01*
X22587179Y-12364456D01*
X22677580Y-12570548D01*
X22800674Y-12758958D01*
X22943981Y-12914632D01*
X22975401Y-12978297D01*
X22967414Y-13048843D01*
X22922555Y-13103872D01*
X22895313Y-13118024D01*
X22779795Y-13161111D01*
X22779792Y-13161112D01*
X22662738Y-13248738D01*
X22575112Y-13365792D01*
X22575110Y-13365797D01*
X22524011Y-13502795D01*
X22524009Y-13502803D01*
X22517500Y-13563350D01*
X22517500Y-14872406D01*
X22497498Y-14940527D01*
X22480595Y-14961501D01*
X21499931Y-15942164D01*
X21499926Y-15942171D01*
X21430601Y-16045923D01*
X21382846Y-16161212D01*
X21358500Y-16283603D01*
X21358500Y-16605645D01*
X21338498Y-16673766D01*
X21304771Y-16708858D01*
X21179965Y-16796248D01*
X21179959Y-16796253D01*
X21024253Y-16951959D01*
X21024248Y-16951965D01*
X20897944Y-17132346D01*
X20804881Y-17331920D01*
X20804879Y-17331926D01*
X20747885Y-17544629D01*
X20728693Y-17764000D01*
X20747885Y-17983370D01*
X20756284Y-18014716D01*
X20754594Y-18085693D01*
X20723673Y-18136421D01*
X20063167Y-18796929D01*
X19974927Y-18885169D01*
X19974926Y-18885171D01*
X19905601Y-18988923D01*
X19857846Y-19104212D01*
X19833500Y-19226603D01*
X19833500Y-19226606D01*
X19833500Y-25404606D01*
X19833500Y-25529394D01*
X19857845Y-25651785D01*
X19905600Y-25767075D01*
X19974929Y-25870833D01*
X19974931Y-25870835D01*
X20058501Y-25954405D01*
X20092527Y-26016717D01*
X20087462Y-26087532D01*
X20044915Y-26144368D01*
X19978395Y-26169179D01*
X19969406Y-26169500D01*
X19862604Y-26169500D01*
X19590406Y-26206914D01*
X19325819Y-26281048D01*
X19073802Y-26390514D01*
X18839028Y-26533284D01*
X18625886Y-26706688D01*
X18438343Y-26907498D01*
X18279892Y-27131971D01*
X18153477Y-27375941D01*
X18061462Y-27634845D01*
X18061460Y-27634853D01*
X18035766Y-27758500D01*
X18008265Y-27890846D01*
X18005557Y-27903877D01*
X18005556Y-27903883D01*
X17986807Y-28177995D01*
X17986807Y-28178004D01*
X18005556Y-28452116D01*
X18005557Y-28452122D01*
X18005558Y-28452130D01*
X18034396Y-28590906D01*
X18061460Y-28721146D01*
X18061462Y-28721154D01*
X18141644Y-28946762D01*
X18153477Y-28980058D01*
X18279754Y-29223763D01*
X18279892Y-29224028D01*
X18331296Y-29296851D01*
X18438343Y-29448502D01*
X18625889Y-29649314D01*
X18839031Y-29822718D01*
X19073800Y-29965484D01*
X19325823Y-30074953D01*
X19590404Y-30149085D01*
X19685504Y-30162156D01*
X19862604Y-30186499D01*
X19862615Y-30186500D01*
X20137385Y-30186500D01*
X20137395Y-30186499D01*
X20266945Y-30168692D01*
X20409596Y-30149085D01*
X20674177Y-30074953D01*
X20926200Y-29965484D01*
X21160969Y-29822718D01*
X21374111Y-29649314D01*
X21398415Y-29623290D01*
X21459527Y-29587158D01*
X21530474Y-29589801D01*
X21588730Y-29630382D01*
X21615799Y-29696016D01*
X21616500Y-29709292D01*
X21616500Y-30812396D01*
X21623284Y-30846498D01*
X21640845Y-30934785D01*
X21688600Y-31050075D01*
X21757929Y-31153833D01*
X21757931Y-31153835D01*
X22052877Y-31448781D01*
X22086903Y-31511093D01*
X22089092Y-31524705D01*
X22106457Y-31689927D01*
X22131288Y-31766346D01*
X22165473Y-31871556D01*
X22165476Y-31871561D01*
X22260958Y-32036941D01*
X22260965Y-32036951D01*
X22388744Y-32178864D01*
X22388747Y-32178866D01*
X22543248Y-32291118D01*
X22717712Y-32368794D01*
X22904513Y-32408500D01*
X23095487Y-32408500D01*
X23282288Y-32368794D01*
X23456752Y-32291118D01*
X23611253Y-32178866D01*
X23614563Y-32175190D01*
X23675009Y-32137950D01*
X23708200Y-32133500D01*
X23833627Y-32133500D01*
X23901748Y-32153502D01*
X23922722Y-32170405D01*
X24051341Y-32299024D01*
X24051347Y-32299029D01*
X24051348Y-32299030D01*
X24202262Y-32392115D01*
X24370574Y-32447887D01*
X24474455Y-32458500D01*
X25060405Y-32458499D01*
X25128526Y-32478501D01*
X25149500Y-32495404D01*
X25439001Y-32784905D01*
X25473027Y-32847217D01*
X25467962Y-32918032D01*
X25425415Y-32974868D01*
X25358895Y-32999679D01*
X25349906Y-33000000D01*
X24500000Y-33000000D01*
X24500000Y-34065500D01*
X24479998Y-34133621D01*
X24426342Y-34180114D01*
X24374000Y-34191500D01*
X21851929Y-34191500D01*
X21783808Y-34171498D01*
X21737315Y-34117842D01*
X21727211Y-34047568D01*
X21740055Y-34007532D01*
X21846523Y-33802058D01*
X21938538Y-33543153D01*
X21994442Y-33274130D01*
X22013193Y-33000000D01*
X22008140Y-32926131D01*
X21994443Y-32725883D01*
X21994442Y-32725877D01*
X21994442Y-32725870D01*
X21938538Y-32456847D01*
X21846523Y-32197942D01*
X21720111Y-31953977D01*
X21561657Y-31729498D01*
X21374111Y-31528686D01*
X21160969Y-31355282D01*
X20969181Y-31238653D01*
X20926197Y-31212514D01*
X20674180Y-31103048D01*
X20674178Y-31103047D01*
X20674177Y-31103047D01*
X20469424Y-31045678D01*
X20409593Y-31028914D01*
X20137395Y-30991500D01*
X20137385Y-30991500D01*
X19862615Y-30991500D01*
X19862604Y-30991500D01*
X19590406Y-31028914D01*
X19325819Y-31103048D01*
X19073802Y-31212514D01*
X18893761Y-31322000D01*
X18858722Y-31343308D01*
X18839028Y-31355284D01*
X18625886Y-31528688D01*
X18438343Y-31729498D01*
X18279892Y-31953971D01*
X18153477Y-32197941D01*
X18061462Y-32456845D01*
X18061457Y-32456864D01*
X18059097Y-32468222D01*
X18025651Y-32530846D01*
X17963657Y-32565447D01*
X17892797Y-32561038D01*
X17846639Y-32531675D01*
X17170405Y-31855441D01*
X17136379Y-31793129D01*
X17133500Y-31766346D01*
X17133500Y-26811607D01*
X17133499Y-26811603D01*
X17109155Y-26689215D01*
X17061400Y-26573925D01*
X16992071Y-26470167D01*
X16903833Y-26381929D01*
X16391022Y-25869118D01*
X16356996Y-25806806D01*
X16357973Y-25749091D01*
X16358016Y-25748925D01*
X16394051Y-25606626D01*
X16413327Y-25374000D01*
X16394051Y-25141374D01*
X16377584Y-25076347D01*
X16336750Y-24915096D01*
X16336747Y-24915089D01*
X16311855Y-24858342D01*
X16242984Y-24701331D01*
X16204108Y-24641827D01*
X16115314Y-24505916D01*
X15957225Y-24334186D01*
X15957221Y-24334183D01*
X15957212Y-24334176D01*
X15814926Y-24223429D01*
X15773457Y-24165807D01*
X15769723Y-24094909D01*
X15804913Y-24033247D01*
X15814915Y-24024579D01*
X15957220Y-23913818D01*
X15975121Y-23894373D01*
X16115314Y-23742083D01*
X16142484Y-23700496D01*
X16242984Y-23546669D01*
X16336749Y-23332907D01*
X16394051Y-23106626D01*
X16413327Y-22874000D01*
X16394051Y-22641374D01*
X16366007Y-22530629D01*
X16336750Y-22415096D01*
X16336747Y-22415089D01*
X16294126Y-22317924D01*
X16242984Y-22201331D01*
X16115314Y-22005916D01*
X15957225Y-21834186D01*
X15957221Y-21834182D01*
X15824316Y-21730738D01*
X15773017Y-21690810D01*
X15567727Y-21579713D01*
X15567724Y-21579712D01*
X15567723Y-21579711D01*
X15346955Y-21503921D01*
X15346948Y-21503919D01*
X15243715Y-21486693D01*
X15116712Y-21465500D01*
X14883288Y-21465500D01*
X14768066Y-21484727D01*
X14653051Y-21503919D01*
X14653044Y-21503921D01*
X14432276Y-21579711D01*
X14432273Y-21579713D01*
X14315122Y-21643112D01*
X14226985Y-21690809D01*
X14226983Y-21690810D01*
X14042778Y-21834182D01*
X14042774Y-21834186D01*
X13884685Y-22005916D01*
X13855483Y-22050615D01*
X13801480Y-22096704D01*
X13731132Y-22106279D01*
X13666774Y-22076302D01*
X13644517Y-22050615D01*
X13615314Y-22005916D01*
X13457225Y-21834186D01*
X13457221Y-21834182D01*
X13324316Y-21730738D01*
X13273017Y-21690810D01*
X13067727Y-21579713D01*
X13067724Y-21579712D01*
X13067723Y-21579711D01*
X12846955Y-21503921D01*
X12846948Y-21503919D01*
X12743715Y-21486693D01*
X12616712Y-21465500D01*
X12383288Y-21465500D01*
X12268066Y-21484727D01*
X12153051Y-21503919D01*
X12153044Y-21503921D01*
X11932276Y-21579711D01*
X11932273Y-21579713D01*
X11726983Y-21690810D01*
X11609501Y-21782251D01*
X11560274Y-21820566D01*
X11494232Y-21846622D01*
X11424586Y-21832837D01*
X11373450Y-21783587D01*
X11364828Y-21765167D01*
X11350889Y-21727796D01*
X11350887Y-21727792D01*
X11263261Y-21610738D01*
X11146207Y-21523112D01*
X11146202Y-21523110D01*
X11009204Y-21472011D01*
X11009196Y-21472009D01*
X10948649Y-21465500D01*
X10948638Y-21465500D01*
X9051362Y-21465500D01*
X9051350Y-21465500D01*
X8990803Y-21472009D01*
X8990795Y-21472011D01*
X8853797Y-21523110D01*
X8853792Y-21523112D01*
X8736738Y-21610738D01*
X8649112Y-21727792D01*
X8649110Y-21727797D01*
X8598011Y-21864795D01*
X8598009Y-21864803D01*
X8591500Y-21925350D01*
X8591500Y-23334404D01*
X8571498Y-23402525D01*
X8554596Y-23423499D01*
X8371167Y-23606929D01*
X8282927Y-23695169D01*
X8282926Y-23695171D01*
X8213601Y-23798923D01*
X8166012Y-23913813D01*
X8165845Y-23914215D01*
X8161289Y-23937120D01*
X8141500Y-24036603D01*
X8141500Y-26162543D01*
X8121498Y-26230664D01*
X8067842Y-26277157D01*
X7997568Y-26287261D01*
X7978209Y-26282481D01*
X7978154Y-26282681D01*
X7709490Y-26207404D01*
X7437364Y-26170000D01*
X7162635Y-26170000D01*
X6890509Y-26207404D01*
X6625989Y-26281519D01*
X6374030Y-26390961D01*
X6139324Y-26533687D01*
X6070714Y-26589504D01*
X6979974Y-27498764D01*
X6944742Y-27513359D01*
X6821903Y-27595437D01*
X6717437Y-27699903D01*
X6635359Y-27822742D01*
X6620764Y-27857974D01*
X5710541Y-26947751D01*
X5710540Y-26947751D01*
X5580317Y-27132236D01*
X5453938Y-27376134D01*
X5361944Y-27634980D01*
X5361942Y-27634988D01*
X5306053Y-27903945D01*
X5306052Y-27903951D01*
X5287308Y-28177995D01*
X4229475Y-28177995D01*
X4203725Y-11947995D01*
X5287308Y-11947995D01*
X5287308Y-11948004D01*
X5306052Y-12222048D01*
X5306053Y-12222054D01*
X5361942Y-12491011D01*
X5361944Y-12491019D01*
X5453938Y-12749865D01*
X5580317Y-12993763D01*
X5710540Y-13178248D01*
X6620764Y-12268024D01*
X6635359Y-12303258D01*
X6717437Y-12426097D01*
X6821903Y-12530563D01*
X6944742Y-12612641D01*
X6979974Y-12627234D01*
X6070714Y-13536494D01*
X6139325Y-13592312D01*
X6307844Y-13694790D01*
X6355655Y-13747274D01*
X6367501Y-13817275D01*
X6342340Y-13879150D01*
X6193065Y-14073689D01*
X6070604Y-14285798D01*
X6070599Y-14285808D01*
X5976865Y-14512102D01*
X5913469Y-14748699D01*
X5881500Y-14991529D01*
X5881500Y-15756470D01*
X5913469Y-15999300D01*
X5913470Y-15999306D01*
X5913471Y-15999308D01*
X5976865Y-16235898D01*
X6070598Y-16462190D01*
X6070599Y-16462191D01*
X6070604Y-16462201D01*
X6193063Y-16674306D01*
X6193065Y-16674309D01*
X6193066Y-16674310D01*
X6236940Y-16731488D01*
X6342173Y-16868631D01*
X6342182Y-16868641D01*
X6515358Y-17041817D01*
X6515368Y-17041826D01*
X6515369Y-17041827D01*
X6709690Y-17190934D01*
X6921810Y-17313402D01*
X7148102Y-17407135D01*
X7384692Y-17470529D01*
X7384698Y-17470529D01*
X7384699Y-17470530D01*
X7412560Y-17474198D01*
X7627532Y-17502500D01*
X7627539Y-17502500D01*
X7872461Y-17502500D01*
X7872468Y-17502500D01*
X8115308Y-17470529D01*
X8351898Y-17407135D01*
X8578190Y-17313402D01*
X8790310Y-17190934D01*
X8984631Y-17041827D01*
X9157827Y-16868631D01*
X9306934Y-16674310D01*
X9429402Y-16462190D01*
X9523135Y-16235898D01*
X9586529Y-15999308D01*
X9618500Y-15756468D01*
X9618500Y-14991532D01*
X9618500Y-14991529D01*
X15381500Y-14991529D01*
X15381500Y-15756470D01*
X15413469Y-15999300D01*
X15413470Y-15999306D01*
X15413471Y-15999308D01*
X15476865Y-16235898D01*
X15570598Y-16462190D01*
X15570599Y-16462191D01*
X15570604Y-16462201D01*
X15693063Y-16674306D01*
X15693065Y-16674309D01*
X15693066Y-16674310D01*
X15736940Y-16731488D01*
X15842173Y-16868631D01*
X15842182Y-16868641D01*
X16015358Y-17041817D01*
X16015368Y-17041826D01*
X16015369Y-17041827D01*
X16209690Y-17190934D01*
X16421810Y-17313402D01*
X16648102Y-17407135D01*
X16884692Y-17470529D01*
X16884698Y-17470529D01*
X16884699Y-17470530D01*
X16912560Y-17474198D01*
X17127532Y-17502500D01*
X17127539Y-17502500D01*
X17372461Y-17502500D01*
X17372468Y-17502500D01*
X17615308Y-17470529D01*
X17851898Y-17407135D01*
X18078190Y-17313402D01*
X18290310Y-17190934D01*
X18484631Y-17041827D01*
X18657827Y-16868631D01*
X18806934Y-16674310D01*
X18929402Y-16462190D01*
X19023135Y-16235898D01*
X19086529Y-15999308D01*
X19118500Y-15756468D01*
X19118500Y-14991532D01*
X19086529Y-14748692D01*
X19023135Y-14512102D01*
X18929402Y-14285810D01*
X18832716Y-14118346D01*
X18806936Y-14073693D01*
X18783263Y-14042842D01*
X18657827Y-13879369D01*
X18657826Y-13879368D01*
X18657817Y-13879358D01*
X18484641Y-13706182D01*
X18484631Y-13706173D01*
X18298515Y-13563362D01*
X18290310Y-13557066D01*
X18290309Y-13557065D01*
X18290306Y-13557063D01*
X18078201Y-13434604D01*
X18078196Y-13434601D01*
X18078190Y-13434598D01*
X17851898Y-13340865D01*
X17615308Y-13277471D01*
X17615306Y-13277470D01*
X17615300Y-13277469D01*
X17372470Y-13245500D01*
X17372468Y-13245500D01*
X17127532Y-13245500D01*
X17127529Y-13245500D01*
X16884699Y-13277469D01*
X16884692Y-13277471D01*
X16648102Y-13340865D01*
X16421818Y-13434595D01*
X16421808Y-13434599D01*
X16421798Y-13434604D01*
X16209693Y-13557063D01*
X16015368Y-13706173D01*
X16015358Y-13706182D01*
X15842182Y-13879358D01*
X15842173Y-13879368D01*
X15693063Y-14073693D01*
X15570604Y-14285798D01*
X15570599Y-14285808D01*
X15476865Y-14512102D01*
X15413469Y-14748699D01*
X15381500Y-14991529D01*
X9618500Y-14991529D01*
X9586529Y-14748692D01*
X9523135Y-14512102D01*
X9429402Y-14285810D01*
X9332716Y-14118346D01*
X9306936Y-14073693D01*
X9283263Y-14042842D01*
X9157827Y-13879369D01*
X9157826Y-13879368D01*
X9157817Y-13879358D01*
X8984641Y-13706182D01*
X8984631Y-13706173D01*
X8798515Y-13563362D01*
X8790310Y-13557066D01*
X8790309Y-13557065D01*
X8790306Y-13557063D01*
X8578201Y-13434604D01*
X8578196Y-13434601D01*
X8578190Y-13434598D01*
X8351898Y-13340865D01*
X8351894Y-13340863D01*
X8348087Y-13339287D01*
X8348364Y-13338616D01*
X8303502Y-13310714D01*
X7620024Y-12627235D01*
X7655258Y-12612641D01*
X7778097Y-12530563D01*
X7882563Y-12426097D01*
X7964641Y-12303258D01*
X7979235Y-12268025D01*
X8889458Y-13178248D01*
X9019683Y-12993759D01*
X9019685Y-12993756D01*
X9146061Y-12749865D01*
X9238055Y-12491019D01*
X9238057Y-12491011D01*
X9293946Y-12222054D01*
X9293947Y-12222048D01*
X9312692Y-11948004D01*
X9312692Y-11947995D01*
X11636807Y-11947995D01*
X11636807Y-11948004D01*
X11655556Y-12222116D01*
X11655557Y-12222122D01*
X11655558Y-12222130D01*
X11672417Y-12303258D01*
X11711460Y-12491146D01*
X11711462Y-12491154D01*
X11795463Y-12727510D01*
X11803477Y-12750058D01*
X11929754Y-12993763D01*
X11929892Y-12994028D01*
X11968585Y-13048843D01*
X12088343Y-13218502D01*
X12275889Y-13419314D01*
X12489031Y-13592718D01*
X12723800Y-13735484D01*
X12723802Y-13735485D01*
X12750943Y-13747274D01*
X12975823Y-13844953D01*
X13240404Y-13919085D01*
X13335504Y-13932156D01*
X13512604Y-13956499D01*
X13512615Y-13956500D01*
X13787385Y-13956500D01*
X13787395Y-13956499D01*
X13922279Y-13937959D01*
X14059596Y-13919085D01*
X14324177Y-13844953D01*
X14576200Y-13735484D01*
X14810969Y-13592718D01*
X15024111Y-13419314D01*
X15211657Y-13218502D01*
X15370111Y-12994023D01*
X15496523Y-12750058D01*
X15588538Y-12491153D01*
X15644442Y-12222130D01*
X15648719Y-12159598D01*
X15663193Y-11948004D01*
X15663193Y-11947995D01*
X17986807Y-11947995D01*
X17986807Y-11948004D01*
X18005556Y-12222116D01*
X18005557Y-12222122D01*
X18005558Y-12222130D01*
X18022417Y-12303258D01*
X18061460Y-12491146D01*
X18061462Y-12491154D01*
X18145463Y-12727510D01*
X18153477Y-12750058D01*
X18279754Y-12993763D01*
X18279892Y-12994028D01*
X18318585Y-13048843D01*
X18438343Y-13218502D01*
X18625889Y-13419314D01*
X18839031Y-13592718D01*
X19073800Y-13735484D01*
X19073802Y-13735485D01*
X19100943Y-13747274D01*
X19325823Y-13844953D01*
X19590404Y-13919085D01*
X19685504Y-13932156D01*
X19862604Y-13956499D01*
X19862615Y-13956500D01*
X20137385Y-13956500D01*
X20137395Y-13956499D01*
X20272279Y-13937959D01*
X20409596Y-13919085D01*
X20674177Y-13844953D01*
X20926200Y-13735484D01*
X21160969Y-13592718D01*
X21374111Y-13419314D01*
X21561657Y-13218502D01*
X21720111Y-12994023D01*
X21846523Y-12750058D01*
X21938538Y-12491153D01*
X21994442Y-12222130D01*
X21998719Y-12159598D01*
X22013193Y-11948004D01*
X22013193Y-11947995D01*
X21994443Y-11673883D01*
X21994442Y-11673877D01*
X21994442Y-11673870D01*
X21938538Y-11404847D01*
X21846523Y-11145942D01*
X21720111Y-10901977D01*
X21561657Y-10677498D01*
X21374111Y-10476686D01*
X21160969Y-10303282D01*
X20926200Y-10160516D01*
X20926201Y-10160516D01*
X20926197Y-10160514D01*
X20674180Y-10051048D01*
X20674178Y-10051047D01*
X20674177Y-10051047D01*
X20541886Y-10013981D01*
X20409593Y-9976914D01*
X20137395Y-9939500D01*
X20137385Y-9939500D01*
X19862615Y-9939500D01*
X19862604Y-9939500D01*
X19590406Y-9976914D01*
X19325819Y-10051048D01*
X19073802Y-10160514D01*
X18839028Y-10303284D01*
X18625886Y-10476688D01*
X18438343Y-10677498D01*
X18279892Y-10901971D01*
X18153477Y-11145941D01*
X18061462Y-11404845D01*
X18061460Y-11404853D01*
X18005557Y-11673877D01*
X18005556Y-11673883D01*
X17986807Y-11947995D01*
X15663193Y-11947995D01*
X15644443Y-11673883D01*
X15644442Y-11673877D01*
X15644442Y-11673870D01*
X15588538Y-11404847D01*
X15496523Y-11145942D01*
X15370111Y-10901977D01*
X15211657Y-10677498D01*
X15024111Y-10476686D01*
X14810969Y-10303282D01*
X14576200Y-10160516D01*
X14576201Y-10160516D01*
X14576197Y-10160514D01*
X14324180Y-10051048D01*
X14324178Y-10051047D01*
X14324177Y-10051047D01*
X14191886Y-10013981D01*
X14059593Y-9976914D01*
X13787395Y-9939500D01*
X13787385Y-9939500D01*
X13512615Y-9939500D01*
X13512604Y-9939500D01*
X13240406Y-9976914D01*
X12975819Y-10051048D01*
X12723802Y-10160514D01*
X12489028Y-10303284D01*
X12275886Y-10476688D01*
X12088343Y-10677498D01*
X11929892Y-10901971D01*
X11803477Y-11145941D01*
X11711462Y-11404845D01*
X11711460Y-11404853D01*
X11655557Y-11673877D01*
X11655556Y-11673883D01*
X11636807Y-11947995D01*
X9312692Y-11947995D01*
X9293947Y-11673951D01*
X9293946Y-11673945D01*
X9238057Y-11404988D01*
X9238055Y-11404980D01*
X9146061Y-11146134D01*
X9019682Y-10902236D01*
X8889458Y-10717750D01*
X7979234Y-11627974D01*
X7964641Y-11592742D01*
X7882563Y-11469903D01*
X7778097Y-11365437D01*
X7655258Y-11283359D01*
X7620024Y-11268764D01*
X8529284Y-10359505D01*
X8529283Y-10359503D01*
X8460678Y-10303689D01*
X8225969Y-10160961D01*
X7974010Y-10051519D01*
X7709490Y-9977404D01*
X7437364Y-9940000D01*
X7162635Y-9940000D01*
X6890509Y-9977404D01*
X6625989Y-10051519D01*
X6374030Y-10160961D01*
X6139324Y-10303687D01*
X6070714Y-10359504D01*
X6979974Y-11268764D01*
X6944742Y-11283359D01*
X6821903Y-11365437D01*
X6717437Y-11469903D01*
X6635359Y-11592742D01*
X6620764Y-11627974D01*
X5710541Y-10717751D01*
X5710540Y-10717751D01*
X5580317Y-10902236D01*
X5453938Y-11146134D01*
X5361944Y-11404980D01*
X5361942Y-11404988D01*
X5306053Y-11673945D01*
X5306052Y-11673951D01*
X5287308Y-11947995D01*
X4203725Y-11947995D01*
X4200200Y-9726199D01*
X4220094Y-9658048D01*
X4273676Y-9611470D01*
X4326200Y-9600000D01*
X26600742Y-9600000D01*
X26668863Y-9620002D01*
G37*
%TD.AperFunction*%
%TD*%
M02*
