M48
; DRILL file {KiCad 8.0.8} date 2025-04-05T00:59:41-0400
; FORMAT={-:-/ absolute / metric / decimal}
; #@! TF.CreationDate,2025-04-05T00:59:41-04:00
; #@! TF.GenerationSoftware,Kicad,Pcbnew,8.0.8
; #@! TF.FileFunction,Plated,1,2,PTH
FMAT,2
METRIC
; #@! TA.AperFunction,Plated,PTH,ViaDrill
T1C0.400
; #@! TA.AperFunction,Plated,PTH,ComponentDrill
T2C1.000
; #@! TA.AperFunction,Plated,PTH,ComponentDrill
T3C1.500
%
G90
G05
T1
X17.0Y-39.5
X17.5Y-56.0
X18.225Y-51.0
X23.0Y-31.5
X25.0Y-28.5
X32.5Y-55.0
X35.5Y-28.5
X38.0Y-46.0
X39.5Y-22.5
X41.0Y-39.0
X42.5Y-58.5
X43.5Y-45.0
T2
X10.0Y-22.874
X10.0Y-25.374
X12.5Y-22.874
X12.5Y-25.374
X15.0Y-22.874
X15.0Y-25.374
X21.992Y-17.764
X21.992Y-20.304
X21.992Y-22.844
X23.876Y-11.922
X23.876Y-14.462
X26.19Y-60.46
X26.19Y-63.0
X26.25Y-34.76
X26.25Y-37.3
X26.25Y-39.84
X26.25Y-42.38
X26.25Y-44.92
X26.25Y-47.46
X26.25Y-50.0
X28.73Y-60.46
X28.73Y-63.0
X28.75Y-14.75
X28.75Y-16.75
X28.75Y-18.75
X28.75Y-22.75
X28.96Y-30.5
X31.25Y-14.75
X31.25Y-16.75
X31.25Y-18.75
X31.25Y-22.75
X31.27Y-60.46
X31.27Y-63.0
X31.5Y-30.5
X33.81Y-60.46
X33.81Y-63.0
X33.87Y-34.76
X33.87Y-37.3
X33.87Y-39.84
X33.87Y-42.38
X33.87Y-44.92
X33.87Y-47.46
X33.87Y-50.0
X45.0Y-22.874
X47.5Y-22.874
X50.0Y-22.874
T3
X7.3Y-11.948
X7.3Y-28.178
X7.3Y-33.0
X7.3Y-49.23
X7.3Y-54.0
X7.3Y-70.23
X13.65Y-11.948
X13.65Y-28.178
X13.65Y-33.0
X13.65Y-49.23
X13.65Y-54.0
X13.65Y-70.23
X20.0Y-11.948
X20.0Y-28.178
X20.0Y-33.0
X20.0Y-49.23
X20.0Y-54.0
X20.0Y-70.23
X40.0Y-11.948
X40.0Y-28.178
X40.0Y-33.0
X40.0Y-49.23
X40.0Y-54.0
X40.0Y-70.23
X46.35Y-11.948
X46.35Y-28.178
X46.35Y-33.0
X46.35Y-49.23
X46.35Y-54.0
X46.35Y-70.23
X52.7Y-11.948
X52.7Y-28.178
X52.7Y-33.0
X52.7Y-49.23
X52.7Y-54.0
X52.7Y-70.23
T2
X7.75Y-15.774G85X7.75Y-14.974
G05
X17.25Y-15.774G85X17.25Y-14.974
G05
X27.15Y-11.0G85X27.15Y-11.5
G05
X27.15Y-26.0G85X27.15Y-26.5
G05
X32.85Y-26.0G85X32.85Y-26.5
G05
X33.0Y-11.0G85X33.0Y-11.5
G05
X42.7Y-15.774G85X42.7Y-14.974
G05
X52.3Y-15.774G85X52.3Y-14.974
G05
M30
