%TF.GenerationSoftware,KiCad,Pcbnew,9.0.4*%
%TF.CreationDate,2026-07-20T16:00:50-04:00*%
%TF.ProjectId,ab-pedal,61622d70-6564-4616-9c2e-6b696361645f,rev?*%
%TF.SameCoordinates,Original*%
%TF.FileFunction,Legend,Top*%
%TF.FilePolarity,Positive*%
%FSLAX46Y46*%
G04 Gerber Fmt 4.6, Leading zero omitted, Abs format (unit mm)*
G04 Created by KiCad (PCBNEW 9.0.4) date 2026-07-20 16:00:50*
%MOMM*%
%LPD*%
G01*
G04 APERTURE LIST*
%ADD10C,0.100000*%
%ADD11C,0.150000*%
%ADD12C,0.120000*%
G04 APERTURE END LIST*
D10*
X61517884Y-82295466D02*
X62279789Y-82295466D01*
X61898836Y-82676419D02*
X61898836Y-81914514D01*
D11*
X141866833Y-111114981D02*
X141819214Y-111162601D01*
X141819214Y-111162601D02*
X141676357Y-111210220D01*
X141676357Y-111210220D02*
X141581119Y-111210220D01*
X141581119Y-111210220D02*
X141438262Y-111162601D01*
X141438262Y-111162601D02*
X141343024Y-111067362D01*
X141343024Y-111067362D02*
X141295405Y-110972124D01*
X141295405Y-110972124D02*
X141247786Y-110781648D01*
X141247786Y-110781648D02*
X141247786Y-110638791D01*
X141247786Y-110638791D02*
X141295405Y-110448315D01*
X141295405Y-110448315D02*
X141343024Y-110353077D01*
X141343024Y-110353077D02*
X141438262Y-110257839D01*
X141438262Y-110257839D02*
X141581119Y-110210220D01*
X141581119Y-110210220D02*
X141676357Y-110210220D01*
X141676357Y-110210220D02*
X141819214Y-110257839D01*
X141819214Y-110257839D02*
X141866833Y-110305458D01*
X142247786Y-110305458D02*
X142295405Y-110257839D01*
X142295405Y-110257839D02*
X142390643Y-110210220D01*
X142390643Y-110210220D02*
X142628738Y-110210220D01*
X142628738Y-110210220D02*
X142723976Y-110257839D01*
X142723976Y-110257839D02*
X142771595Y-110305458D01*
X142771595Y-110305458D02*
X142819214Y-110400696D01*
X142819214Y-110400696D02*
X142819214Y-110495934D01*
X142819214Y-110495934D02*
X142771595Y-110638791D01*
X142771595Y-110638791D02*
X142200167Y-111210220D01*
X142200167Y-111210220D02*
X142819214Y-111210220D01*
X86588667Y-91085200D02*
X86731524Y-91132819D01*
X86731524Y-91132819D02*
X86969619Y-91132819D01*
X86969619Y-91132819D02*
X87064857Y-91085200D01*
X87064857Y-91085200D02*
X87112476Y-91037580D01*
X87112476Y-91037580D02*
X87160095Y-90942342D01*
X87160095Y-90942342D02*
X87160095Y-90847104D01*
X87160095Y-90847104D02*
X87112476Y-90751866D01*
X87112476Y-90751866D02*
X87064857Y-90704247D01*
X87064857Y-90704247D02*
X86969619Y-90656628D01*
X86969619Y-90656628D02*
X86779143Y-90609009D01*
X86779143Y-90609009D02*
X86683905Y-90561390D01*
X86683905Y-90561390D02*
X86636286Y-90513771D01*
X86636286Y-90513771D02*
X86588667Y-90418533D01*
X86588667Y-90418533D02*
X86588667Y-90323295D01*
X86588667Y-90323295D02*
X86636286Y-90228057D01*
X86636286Y-90228057D02*
X86683905Y-90180438D01*
X86683905Y-90180438D02*
X86779143Y-90132819D01*
X86779143Y-90132819D02*
X87017238Y-90132819D01*
X87017238Y-90132819D02*
X87160095Y-90180438D01*
X87493429Y-90132819D02*
X87731524Y-91132819D01*
X87731524Y-91132819D02*
X87922000Y-90418533D01*
X87922000Y-90418533D02*
X88112476Y-91132819D01*
X88112476Y-91132819D02*
X88350572Y-90132819D01*
X89255333Y-91132819D02*
X88683905Y-91132819D01*
X88969619Y-91132819D02*
X88969619Y-90132819D01*
X88969619Y-90132819D02*
X88874381Y-90275676D01*
X88874381Y-90275676D02*
X88779143Y-90370914D01*
X88779143Y-90370914D02*
X88683905Y-90418533D01*
X111352667Y-90831200D02*
X111495524Y-90878819D01*
X111495524Y-90878819D02*
X111733619Y-90878819D01*
X111733619Y-90878819D02*
X111828857Y-90831200D01*
X111828857Y-90831200D02*
X111876476Y-90783580D01*
X111876476Y-90783580D02*
X111924095Y-90688342D01*
X111924095Y-90688342D02*
X111924095Y-90593104D01*
X111924095Y-90593104D02*
X111876476Y-90497866D01*
X111876476Y-90497866D02*
X111828857Y-90450247D01*
X111828857Y-90450247D02*
X111733619Y-90402628D01*
X111733619Y-90402628D02*
X111543143Y-90355009D01*
X111543143Y-90355009D02*
X111447905Y-90307390D01*
X111447905Y-90307390D02*
X111400286Y-90259771D01*
X111400286Y-90259771D02*
X111352667Y-90164533D01*
X111352667Y-90164533D02*
X111352667Y-90069295D01*
X111352667Y-90069295D02*
X111400286Y-89974057D01*
X111400286Y-89974057D02*
X111447905Y-89926438D01*
X111447905Y-89926438D02*
X111543143Y-89878819D01*
X111543143Y-89878819D02*
X111781238Y-89878819D01*
X111781238Y-89878819D02*
X111924095Y-89926438D01*
X112257429Y-89878819D02*
X112495524Y-90878819D01*
X112495524Y-90878819D02*
X112686000Y-90164533D01*
X112686000Y-90164533D02*
X112876476Y-90878819D01*
X112876476Y-90878819D02*
X113114572Y-89878819D01*
X113447905Y-89974057D02*
X113495524Y-89926438D01*
X113495524Y-89926438D02*
X113590762Y-89878819D01*
X113590762Y-89878819D02*
X113828857Y-89878819D01*
X113828857Y-89878819D02*
X113924095Y-89926438D01*
X113924095Y-89926438D02*
X113971714Y-89974057D01*
X113971714Y-89974057D02*
X114019333Y-90069295D01*
X114019333Y-90069295D02*
X114019333Y-90164533D01*
X114019333Y-90164533D02*
X113971714Y-90307390D01*
X113971714Y-90307390D02*
X113400286Y-90878819D01*
X113400286Y-90878819D02*
X114019333Y-90878819D01*
X137046761Y-92402819D02*
X136713428Y-91926628D01*
X136475333Y-92402819D02*
X136475333Y-91402819D01*
X136475333Y-91402819D02*
X136856285Y-91402819D01*
X136856285Y-91402819D02*
X136951523Y-91450438D01*
X136951523Y-91450438D02*
X136999142Y-91498057D01*
X136999142Y-91498057D02*
X137046761Y-91593295D01*
X137046761Y-91593295D02*
X137046761Y-91736152D01*
X137046761Y-91736152D02*
X136999142Y-91831390D01*
X136999142Y-91831390D02*
X136951523Y-91879009D01*
X136951523Y-91879009D02*
X136856285Y-91926628D01*
X136856285Y-91926628D02*
X136475333Y-91926628D01*
X137332476Y-91402819D02*
X137665809Y-92402819D01*
X137665809Y-92402819D02*
X137999142Y-91402819D01*
X138856285Y-92402819D02*
X138284857Y-92402819D01*
X138570571Y-92402819D02*
X138570571Y-91402819D01*
X138570571Y-91402819D02*
X138475333Y-91545676D01*
X138475333Y-91545676D02*
X138380095Y-91640914D01*
X138380095Y-91640914D02*
X138284857Y-91688533D01*
X62973333Y-98752819D02*
X62640000Y-98276628D01*
X62401905Y-98752819D02*
X62401905Y-97752819D01*
X62401905Y-97752819D02*
X62782857Y-97752819D01*
X62782857Y-97752819D02*
X62878095Y-97800438D01*
X62878095Y-97800438D02*
X62925714Y-97848057D01*
X62925714Y-97848057D02*
X62973333Y-97943295D01*
X62973333Y-97943295D02*
X62973333Y-98086152D01*
X62973333Y-98086152D02*
X62925714Y-98181390D01*
X62925714Y-98181390D02*
X62878095Y-98229009D01*
X62878095Y-98229009D02*
X62782857Y-98276628D01*
X62782857Y-98276628D02*
X62401905Y-98276628D01*
X63878095Y-97752819D02*
X63401905Y-97752819D01*
X63401905Y-97752819D02*
X63354286Y-98229009D01*
X63354286Y-98229009D02*
X63401905Y-98181390D01*
X63401905Y-98181390D02*
X63497143Y-98133771D01*
X63497143Y-98133771D02*
X63735238Y-98133771D01*
X63735238Y-98133771D02*
X63830476Y-98181390D01*
X63830476Y-98181390D02*
X63878095Y-98229009D01*
X63878095Y-98229009D02*
X63925714Y-98324247D01*
X63925714Y-98324247D02*
X63925714Y-98562342D01*
X63925714Y-98562342D02*
X63878095Y-98657580D01*
X63878095Y-98657580D02*
X63830476Y-98705200D01*
X63830476Y-98705200D02*
X63735238Y-98752819D01*
X63735238Y-98752819D02*
X63497143Y-98752819D01*
X63497143Y-98752819D02*
X63401905Y-98705200D01*
X63401905Y-98705200D02*
X63354286Y-98657580D01*
X98385333Y-92910819D02*
X98052000Y-92434628D01*
X97813905Y-92910819D02*
X97813905Y-91910819D01*
X97813905Y-91910819D02*
X98194857Y-91910819D01*
X98194857Y-91910819D02*
X98290095Y-91958438D01*
X98290095Y-91958438D02*
X98337714Y-92006057D01*
X98337714Y-92006057D02*
X98385333Y-92101295D01*
X98385333Y-92101295D02*
X98385333Y-92244152D01*
X98385333Y-92244152D02*
X98337714Y-92339390D01*
X98337714Y-92339390D02*
X98290095Y-92387009D01*
X98290095Y-92387009D02*
X98194857Y-92434628D01*
X98194857Y-92434628D02*
X97813905Y-92434628D01*
X99242476Y-92244152D02*
X99242476Y-92910819D01*
X99004381Y-91863200D02*
X98766286Y-92577485D01*
X98766286Y-92577485D02*
X99385333Y-92577485D01*
X122750533Y-92307580D02*
X122702914Y-92355200D01*
X122702914Y-92355200D02*
X122560057Y-92402819D01*
X122560057Y-92402819D02*
X122464819Y-92402819D01*
X122464819Y-92402819D02*
X122321962Y-92355200D01*
X122321962Y-92355200D02*
X122226724Y-92259961D01*
X122226724Y-92259961D02*
X122179105Y-92164723D01*
X122179105Y-92164723D02*
X122131486Y-91974247D01*
X122131486Y-91974247D02*
X122131486Y-91831390D01*
X122131486Y-91831390D02*
X122179105Y-91640914D01*
X122179105Y-91640914D02*
X122226724Y-91545676D01*
X122226724Y-91545676D02*
X122321962Y-91450438D01*
X122321962Y-91450438D02*
X122464819Y-91402819D01*
X122464819Y-91402819D02*
X122560057Y-91402819D01*
X122560057Y-91402819D02*
X122702914Y-91450438D01*
X122702914Y-91450438D02*
X122750533Y-91498057D01*
X123607676Y-91736152D02*
X123607676Y-92402819D01*
X123369581Y-91355200D02*
X123131486Y-92069485D01*
X123131486Y-92069485D02*
X123750533Y-92069485D01*
X122924695Y-101456219D02*
X122924695Y-102265742D01*
X122924695Y-102265742D02*
X122972314Y-102360980D01*
X122972314Y-102360980D02*
X123019933Y-102408600D01*
X123019933Y-102408600D02*
X123115171Y-102456219D01*
X123115171Y-102456219D02*
X123305647Y-102456219D01*
X123305647Y-102456219D02*
X123400885Y-102408600D01*
X123400885Y-102408600D02*
X123448504Y-102360980D01*
X123448504Y-102360980D02*
X123496123Y-102265742D01*
X123496123Y-102265742D02*
X123496123Y-101456219D01*
X123924695Y-101551457D02*
X123972314Y-101503838D01*
X123972314Y-101503838D02*
X124067552Y-101456219D01*
X124067552Y-101456219D02*
X124305647Y-101456219D01*
X124305647Y-101456219D02*
X124400885Y-101503838D01*
X124400885Y-101503838D02*
X124448504Y-101551457D01*
X124448504Y-101551457D02*
X124496123Y-101646695D01*
X124496123Y-101646695D02*
X124496123Y-101741933D01*
X124496123Y-101741933D02*
X124448504Y-101884790D01*
X124448504Y-101884790D02*
X123877076Y-102456219D01*
X123877076Y-102456219D02*
X124496123Y-102456219D01*
X99147333Y-120850819D02*
X98814000Y-120374628D01*
X98575905Y-120850819D02*
X98575905Y-119850819D01*
X98575905Y-119850819D02*
X98956857Y-119850819D01*
X98956857Y-119850819D02*
X99052095Y-119898438D01*
X99052095Y-119898438D02*
X99099714Y-119946057D01*
X99099714Y-119946057D02*
X99147333Y-120041295D01*
X99147333Y-120041295D02*
X99147333Y-120184152D01*
X99147333Y-120184152D02*
X99099714Y-120279390D01*
X99099714Y-120279390D02*
X99052095Y-120327009D01*
X99052095Y-120327009D02*
X98956857Y-120374628D01*
X98956857Y-120374628D02*
X98575905Y-120374628D01*
X99623524Y-120850819D02*
X99814000Y-120850819D01*
X99814000Y-120850819D02*
X99909238Y-120803200D01*
X99909238Y-120803200D02*
X99956857Y-120755580D01*
X99956857Y-120755580D02*
X100052095Y-120612723D01*
X100052095Y-120612723D02*
X100099714Y-120422247D01*
X100099714Y-120422247D02*
X100099714Y-120041295D01*
X100099714Y-120041295D02*
X100052095Y-119946057D01*
X100052095Y-119946057D02*
X100004476Y-119898438D01*
X100004476Y-119898438D02*
X99909238Y-119850819D01*
X99909238Y-119850819D02*
X99718762Y-119850819D01*
X99718762Y-119850819D02*
X99623524Y-119898438D01*
X99623524Y-119898438D02*
X99575905Y-119946057D01*
X99575905Y-119946057D02*
X99528286Y-120041295D01*
X99528286Y-120041295D02*
X99528286Y-120279390D01*
X99528286Y-120279390D02*
X99575905Y-120374628D01*
X99575905Y-120374628D02*
X99623524Y-120422247D01*
X99623524Y-120422247D02*
X99718762Y-120469866D01*
X99718762Y-120469866D02*
X99909238Y-120469866D01*
X99909238Y-120469866D02*
X100004476Y-120422247D01*
X100004476Y-120422247D02*
X100052095Y-120374628D01*
X100052095Y-120374628D02*
X100099714Y-120279390D01*
X104350933Y-111706819D02*
X104017600Y-111230628D01*
X103779505Y-111706819D02*
X103779505Y-110706819D01*
X103779505Y-110706819D02*
X104160457Y-110706819D01*
X104160457Y-110706819D02*
X104255695Y-110754438D01*
X104255695Y-110754438D02*
X104303314Y-110802057D01*
X104303314Y-110802057D02*
X104350933Y-110897295D01*
X104350933Y-110897295D02*
X104350933Y-111040152D01*
X104350933Y-111040152D02*
X104303314Y-111135390D01*
X104303314Y-111135390D02*
X104255695Y-111183009D01*
X104255695Y-111183009D02*
X104160457Y-111230628D01*
X104160457Y-111230628D02*
X103779505Y-111230628D01*
X105303314Y-111706819D02*
X104731886Y-111706819D01*
X105017600Y-111706819D02*
X105017600Y-110706819D01*
X105017600Y-110706819D02*
X104922362Y-110849676D01*
X104922362Y-110849676D02*
X104827124Y-110944914D01*
X104827124Y-110944914D02*
X104731886Y-110992533D01*
X115391933Y-97387580D02*
X115344314Y-97435200D01*
X115344314Y-97435200D02*
X115201457Y-97482819D01*
X115201457Y-97482819D02*
X115106219Y-97482819D01*
X115106219Y-97482819D02*
X114963362Y-97435200D01*
X114963362Y-97435200D02*
X114868124Y-97339961D01*
X114868124Y-97339961D02*
X114820505Y-97244723D01*
X114820505Y-97244723D02*
X114772886Y-97054247D01*
X114772886Y-97054247D02*
X114772886Y-96911390D01*
X114772886Y-96911390D02*
X114820505Y-96720914D01*
X114820505Y-96720914D02*
X114868124Y-96625676D01*
X114868124Y-96625676D02*
X114963362Y-96530438D01*
X114963362Y-96530438D02*
X115106219Y-96482819D01*
X115106219Y-96482819D02*
X115201457Y-96482819D01*
X115201457Y-96482819D02*
X115344314Y-96530438D01*
X115344314Y-96530438D02*
X115391933Y-96578057D01*
X116344314Y-97482819D02*
X115772886Y-97482819D01*
X116058600Y-97482819D02*
X116058600Y-96482819D01*
X116058600Y-96482819D02*
X115963362Y-96625676D01*
X115963362Y-96625676D02*
X115868124Y-96720914D01*
X115868124Y-96720914D02*
X115772886Y-96768533D01*
X122261333Y-119326819D02*
X121928000Y-118850628D01*
X121689905Y-119326819D02*
X121689905Y-118326819D01*
X121689905Y-118326819D02*
X122070857Y-118326819D01*
X122070857Y-118326819D02*
X122166095Y-118374438D01*
X122166095Y-118374438D02*
X122213714Y-118422057D01*
X122213714Y-118422057D02*
X122261333Y-118517295D01*
X122261333Y-118517295D02*
X122261333Y-118660152D01*
X122261333Y-118660152D02*
X122213714Y-118755390D01*
X122213714Y-118755390D02*
X122166095Y-118803009D01*
X122166095Y-118803009D02*
X122070857Y-118850628D01*
X122070857Y-118850628D02*
X121689905Y-118850628D01*
X122832762Y-118755390D02*
X122737524Y-118707771D01*
X122737524Y-118707771D02*
X122689905Y-118660152D01*
X122689905Y-118660152D02*
X122642286Y-118564914D01*
X122642286Y-118564914D02*
X122642286Y-118517295D01*
X122642286Y-118517295D02*
X122689905Y-118422057D01*
X122689905Y-118422057D02*
X122737524Y-118374438D01*
X122737524Y-118374438D02*
X122832762Y-118326819D01*
X122832762Y-118326819D02*
X123023238Y-118326819D01*
X123023238Y-118326819D02*
X123118476Y-118374438D01*
X123118476Y-118374438D02*
X123166095Y-118422057D01*
X123166095Y-118422057D02*
X123213714Y-118517295D01*
X123213714Y-118517295D02*
X123213714Y-118564914D01*
X123213714Y-118564914D02*
X123166095Y-118660152D01*
X123166095Y-118660152D02*
X123118476Y-118707771D01*
X123118476Y-118707771D02*
X123023238Y-118755390D01*
X123023238Y-118755390D02*
X122832762Y-118755390D01*
X122832762Y-118755390D02*
X122737524Y-118803009D01*
X122737524Y-118803009D02*
X122689905Y-118850628D01*
X122689905Y-118850628D02*
X122642286Y-118945866D01*
X122642286Y-118945866D02*
X122642286Y-119136342D01*
X122642286Y-119136342D02*
X122689905Y-119231580D01*
X122689905Y-119231580D02*
X122737524Y-119279200D01*
X122737524Y-119279200D02*
X122832762Y-119326819D01*
X122832762Y-119326819D02*
X123023238Y-119326819D01*
X123023238Y-119326819D02*
X123118476Y-119279200D01*
X123118476Y-119279200D02*
X123166095Y-119231580D01*
X123166095Y-119231580D02*
X123213714Y-119136342D01*
X123213714Y-119136342D02*
X123213714Y-118945866D01*
X123213714Y-118945866D02*
X123166095Y-118850628D01*
X123166095Y-118850628D02*
X123118476Y-118803009D01*
X123118476Y-118803009D02*
X123023238Y-118755390D01*
X122667734Y-108461980D02*
X122620115Y-108509600D01*
X122620115Y-108509600D02*
X122477258Y-108557219D01*
X122477258Y-108557219D02*
X122382020Y-108557219D01*
X122382020Y-108557219D02*
X122239163Y-108509600D01*
X122239163Y-108509600D02*
X122143925Y-108414361D01*
X122143925Y-108414361D02*
X122096306Y-108319123D01*
X122096306Y-108319123D02*
X122048687Y-108128647D01*
X122048687Y-108128647D02*
X122048687Y-107985790D01*
X122048687Y-107985790D02*
X122096306Y-107795314D01*
X122096306Y-107795314D02*
X122143925Y-107700076D01*
X122143925Y-107700076D02*
X122239163Y-107604838D01*
X122239163Y-107604838D02*
X122382020Y-107557219D01*
X122382020Y-107557219D02*
X122477258Y-107557219D01*
X122477258Y-107557219D02*
X122620115Y-107604838D01*
X122620115Y-107604838D02*
X122667734Y-107652457D01*
X123572496Y-107557219D02*
X123096306Y-107557219D01*
X123096306Y-107557219D02*
X123048687Y-108033409D01*
X123048687Y-108033409D02*
X123096306Y-107985790D01*
X123096306Y-107985790D02*
X123191544Y-107938171D01*
X123191544Y-107938171D02*
X123429639Y-107938171D01*
X123429639Y-107938171D02*
X123524877Y-107985790D01*
X123524877Y-107985790D02*
X123572496Y-108033409D01*
X123572496Y-108033409D02*
X123620115Y-108128647D01*
X123620115Y-108128647D02*
X123620115Y-108366742D01*
X123620115Y-108366742D02*
X123572496Y-108461980D01*
X123572496Y-108461980D02*
X123524877Y-108509600D01*
X123524877Y-108509600D02*
X123429639Y-108557219D01*
X123429639Y-108557219D02*
X123191544Y-108557219D01*
X123191544Y-108557219D02*
X123096306Y-108509600D01*
X123096306Y-108509600D02*
X123048687Y-108461980D01*
X131139933Y-97387580D02*
X131092314Y-97435200D01*
X131092314Y-97435200D02*
X130949457Y-97482819D01*
X130949457Y-97482819D02*
X130854219Y-97482819D01*
X130854219Y-97482819D02*
X130711362Y-97435200D01*
X130711362Y-97435200D02*
X130616124Y-97339961D01*
X130616124Y-97339961D02*
X130568505Y-97244723D01*
X130568505Y-97244723D02*
X130520886Y-97054247D01*
X130520886Y-97054247D02*
X130520886Y-96911390D01*
X130520886Y-96911390D02*
X130568505Y-96720914D01*
X130568505Y-96720914D02*
X130616124Y-96625676D01*
X130616124Y-96625676D02*
X130711362Y-96530438D01*
X130711362Y-96530438D02*
X130854219Y-96482819D01*
X130854219Y-96482819D02*
X130949457Y-96482819D01*
X130949457Y-96482819D02*
X131092314Y-96530438D01*
X131092314Y-96530438D02*
X131139933Y-96578057D01*
X131473267Y-96482819D02*
X132092314Y-96482819D01*
X132092314Y-96482819D02*
X131758981Y-96863771D01*
X131758981Y-96863771D02*
X131901838Y-96863771D01*
X131901838Y-96863771D02*
X131997076Y-96911390D01*
X131997076Y-96911390D02*
X132044695Y-96959009D01*
X132044695Y-96959009D02*
X132092314Y-97054247D01*
X132092314Y-97054247D02*
X132092314Y-97292342D01*
X132092314Y-97292342D02*
X132044695Y-97387580D01*
X132044695Y-97387580D02*
X131997076Y-97435200D01*
X131997076Y-97435200D02*
X131901838Y-97482819D01*
X131901838Y-97482819D02*
X131616124Y-97482819D01*
X131616124Y-97482819D02*
X131520886Y-97435200D01*
X131520886Y-97435200D02*
X131473267Y-97387580D01*
X103112695Y-101177219D02*
X103112695Y-101986742D01*
X103112695Y-101986742D02*
X103160314Y-102081980D01*
X103160314Y-102081980D02*
X103207933Y-102129600D01*
X103207933Y-102129600D02*
X103303171Y-102177219D01*
X103303171Y-102177219D02*
X103493647Y-102177219D01*
X103493647Y-102177219D02*
X103588885Y-102129600D01*
X103588885Y-102129600D02*
X103636504Y-102081980D01*
X103636504Y-102081980D02*
X103684123Y-101986742D01*
X103684123Y-101986742D02*
X103684123Y-101177219D01*
X104684123Y-102177219D02*
X104112695Y-102177219D01*
X104398409Y-102177219D02*
X104398409Y-101177219D01*
X104398409Y-101177219D02*
X104303171Y-101320076D01*
X104303171Y-101320076D02*
X104207933Y-101415314D01*
X104207933Y-101415314D02*
X104112695Y-101462933D01*
X107411933Y-92402819D02*
X107078600Y-91926628D01*
X106840505Y-92402819D02*
X106840505Y-91402819D01*
X106840505Y-91402819D02*
X107221457Y-91402819D01*
X107221457Y-91402819D02*
X107316695Y-91450438D01*
X107316695Y-91450438D02*
X107364314Y-91498057D01*
X107364314Y-91498057D02*
X107411933Y-91593295D01*
X107411933Y-91593295D02*
X107411933Y-91736152D01*
X107411933Y-91736152D02*
X107364314Y-91831390D01*
X107364314Y-91831390D02*
X107316695Y-91879009D01*
X107316695Y-91879009D02*
X107221457Y-91926628D01*
X107221457Y-91926628D02*
X106840505Y-91926628D01*
X107745267Y-91402819D02*
X108364314Y-91402819D01*
X108364314Y-91402819D02*
X108030981Y-91783771D01*
X108030981Y-91783771D02*
X108173838Y-91783771D01*
X108173838Y-91783771D02*
X108269076Y-91831390D01*
X108269076Y-91831390D02*
X108316695Y-91879009D01*
X108316695Y-91879009D02*
X108364314Y-91974247D01*
X108364314Y-91974247D02*
X108364314Y-92212342D01*
X108364314Y-92212342D02*
X108316695Y-92307580D01*
X108316695Y-92307580D02*
X108269076Y-92355200D01*
X108269076Y-92355200D02*
X108173838Y-92402819D01*
X108173838Y-92402819D02*
X107888124Y-92402819D01*
X107888124Y-92402819D02*
X107792886Y-92355200D01*
X107792886Y-92355200D02*
X107745267Y-92307580D01*
X114895333Y-119993580D02*
X114847714Y-120041200D01*
X114847714Y-120041200D02*
X114704857Y-120088819D01*
X114704857Y-120088819D02*
X114609619Y-120088819D01*
X114609619Y-120088819D02*
X114466762Y-120041200D01*
X114466762Y-120041200D02*
X114371524Y-119945961D01*
X114371524Y-119945961D02*
X114323905Y-119850723D01*
X114323905Y-119850723D02*
X114276286Y-119660247D01*
X114276286Y-119660247D02*
X114276286Y-119517390D01*
X114276286Y-119517390D02*
X114323905Y-119326914D01*
X114323905Y-119326914D02*
X114371524Y-119231676D01*
X114371524Y-119231676D02*
X114466762Y-119136438D01*
X114466762Y-119136438D02*
X114609619Y-119088819D01*
X114609619Y-119088819D02*
X114704857Y-119088819D01*
X114704857Y-119088819D02*
X114847714Y-119136438D01*
X114847714Y-119136438D02*
X114895333Y-119184057D01*
X115752476Y-119088819D02*
X115562000Y-119088819D01*
X115562000Y-119088819D02*
X115466762Y-119136438D01*
X115466762Y-119136438D02*
X115419143Y-119184057D01*
X115419143Y-119184057D02*
X115323905Y-119326914D01*
X115323905Y-119326914D02*
X115276286Y-119517390D01*
X115276286Y-119517390D02*
X115276286Y-119898342D01*
X115276286Y-119898342D02*
X115323905Y-119993580D01*
X115323905Y-119993580D02*
X115371524Y-120041200D01*
X115371524Y-120041200D02*
X115466762Y-120088819D01*
X115466762Y-120088819D02*
X115657238Y-120088819D01*
X115657238Y-120088819D02*
X115752476Y-120041200D01*
X115752476Y-120041200D02*
X115800095Y-119993580D01*
X115800095Y-119993580D02*
X115847714Y-119898342D01*
X115847714Y-119898342D02*
X115847714Y-119660247D01*
X115847714Y-119660247D02*
X115800095Y-119565009D01*
X115800095Y-119565009D02*
X115752476Y-119517390D01*
X115752476Y-119517390D02*
X115657238Y-119469771D01*
X115657238Y-119469771D02*
X115466762Y-119469771D01*
X115466762Y-119469771D02*
X115371524Y-119517390D01*
X115371524Y-119517390D02*
X115323905Y-119565009D01*
X115323905Y-119565009D02*
X115276286Y-119660247D01*
X131913333Y-113918219D02*
X131580000Y-113442028D01*
X131341905Y-113918219D02*
X131341905Y-112918219D01*
X131341905Y-112918219D02*
X131722857Y-112918219D01*
X131722857Y-112918219D02*
X131818095Y-112965838D01*
X131818095Y-112965838D02*
X131865714Y-113013457D01*
X131865714Y-113013457D02*
X131913333Y-113108695D01*
X131913333Y-113108695D02*
X131913333Y-113251552D01*
X131913333Y-113251552D02*
X131865714Y-113346790D01*
X131865714Y-113346790D02*
X131818095Y-113394409D01*
X131818095Y-113394409D02*
X131722857Y-113442028D01*
X131722857Y-113442028D02*
X131341905Y-113442028D01*
X132770476Y-112918219D02*
X132580000Y-112918219D01*
X132580000Y-112918219D02*
X132484762Y-112965838D01*
X132484762Y-112965838D02*
X132437143Y-113013457D01*
X132437143Y-113013457D02*
X132341905Y-113156314D01*
X132341905Y-113156314D02*
X132294286Y-113346790D01*
X132294286Y-113346790D02*
X132294286Y-113727742D01*
X132294286Y-113727742D02*
X132341905Y-113822980D01*
X132341905Y-113822980D02*
X132389524Y-113870600D01*
X132389524Y-113870600D02*
X132484762Y-113918219D01*
X132484762Y-113918219D02*
X132675238Y-113918219D01*
X132675238Y-113918219D02*
X132770476Y-113870600D01*
X132770476Y-113870600D02*
X132818095Y-113822980D01*
X132818095Y-113822980D02*
X132865714Y-113727742D01*
X132865714Y-113727742D02*
X132865714Y-113489647D01*
X132865714Y-113489647D02*
X132818095Y-113394409D01*
X132818095Y-113394409D02*
X132770476Y-113346790D01*
X132770476Y-113346790D02*
X132675238Y-113299171D01*
X132675238Y-113299171D02*
X132484762Y-113299171D01*
X132484762Y-113299171D02*
X132389524Y-113346790D01*
X132389524Y-113346790D02*
X132341905Y-113394409D01*
X132341905Y-113394409D02*
X132294286Y-113489647D01*
X62255405Y-88518319D02*
X62255405Y-87518319D01*
X62255405Y-87518319D02*
X62493500Y-87518319D01*
X62493500Y-87518319D02*
X62636357Y-87565938D01*
X62636357Y-87565938D02*
X62731595Y-87661176D01*
X62731595Y-87661176D02*
X62779214Y-87756414D01*
X62779214Y-87756414D02*
X62826833Y-87946890D01*
X62826833Y-87946890D02*
X62826833Y-88089747D01*
X62826833Y-88089747D02*
X62779214Y-88280223D01*
X62779214Y-88280223D02*
X62731595Y-88375461D01*
X62731595Y-88375461D02*
X62636357Y-88470700D01*
X62636357Y-88470700D02*
X62493500Y-88518319D01*
X62493500Y-88518319D02*
X62255405Y-88518319D01*
X63779214Y-88518319D02*
X63207786Y-88518319D01*
X63493500Y-88518319D02*
X63493500Y-87518319D01*
X63493500Y-87518319D02*
X63398262Y-87661176D01*
X63398262Y-87661176D02*
X63303024Y-87756414D01*
X63303024Y-87756414D02*
X63207786Y-87804033D01*
X98893333Y-116532819D02*
X98560000Y-116056628D01*
X98321905Y-116532819D02*
X98321905Y-115532819D01*
X98321905Y-115532819D02*
X98702857Y-115532819D01*
X98702857Y-115532819D02*
X98798095Y-115580438D01*
X98798095Y-115580438D02*
X98845714Y-115628057D01*
X98845714Y-115628057D02*
X98893333Y-115723295D01*
X98893333Y-115723295D02*
X98893333Y-115866152D01*
X98893333Y-115866152D02*
X98845714Y-115961390D01*
X98845714Y-115961390D02*
X98798095Y-116009009D01*
X98798095Y-116009009D02*
X98702857Y-116056628D01*
X98702857Y-116056628D02*
X98321905Y-116056628D01*
X99226667Y-115532819D02*
X99893333Y-115532819D01*
X99893333Y-115532819D02*
X99464762Y-116532819D01*
X113719933Y-111706819D02*
X113386600Y-111230628D01*
X113148505Y-111706819D02*
X113148505Y-110706819D01*
X113148505Y-110706819D02*
X113529457Y-110706819D01*
X113529457Y-110706819D02*
X113624695Y-110754438D01*
X113624695Y-110754438D02*
X113672314Y-110802057D01*
X113672314Y-110802057D02*
X113719933Y-110897295D01*
X113719933Y-110897295D02*
X113719933Y-111040152D01*
X113719933Y-111040152D02*
X113672314Y-111135390D01*
X113672314Y-111135390D02*
X113624695Y-111183009D01*
X113624695Y-111183009D02*
X113529457Y-111230628D01*
X113529457Y-111230628D02*
X113148505Y-111230628D01*
X114100886Y-110802057D02*
X114148505Y-110754438D01*
X114148505Y-110754438D02*
X114243743Y-110706819D01*
X114243743Y-110706819D02*
X114481838Y-110706819D01*
X114481838Y-110706819D02*
X114577076Y-110754438D01*
X114577076Y-110754438D02*
X114624695Y-110802057D01*
X114624695Y-110802057D02*
X114672314Y-110897295D01*
X114672314Y-110897295D02*
X114672314Y-110992533D01*
X114672314Y-110992533D02*
X114624695Y-111135390D01*
X114624695Y-111135390D02*
X114053267Y-111706819D01*
X114053267Y-111706819D02*
X114672314Y-111706819D01*
X127341333Y-118977580D02*
X127293714Y-119025200D01*
X127293714Y-119025200D02*
X127150857Y-119072819D01*
X127150857Y-119072819D02*
X127055619Y-119072819D01*
X127055619Y-119072819D02*
X126912762Y-119025200D01*
X126912762Y-119025200D02*
X126817524Y-118929961D01*
X126817524Y-118929961D02*
X126769905Y-118834723D01*
X126769905Y-118834723D02*
X126722286Y-118644247D01*
X126722286Y-118644247D02*
X126722286Y-118501390D01*
X126722286Y-118501390D02*
X126769905Y-118310914D01*
X126769905Y-118310914D02*
X126817524Y-118215676D01*
X126817524Y-118215676D02*
X126912762Y-118120438D01*
X126912762Y-118120438D02*
X127055619Y-118072819D01*
X127055619Y-118072819D02*
X127150857Y-118072819D01*
X127150857Y-118072819D02*
X127293714Y-118120438D01*
X127293714Y-118120438D02*
X127341333Y-118168057D01*
X127674667Y-118072819D02*
X128341333Y-118072819D01*
X128341333Y-118072819D02*
X127912762Y-119072819D01*
D12*
%TO.C,C2*%
X146185500Y-107977401D02*
G75*
G02*
X141945500Y-107977401I-2120000J0D01*
G01*
X141945500Y-107977401D02*
G75*
G02*
X146185500Y-107977401I2120000J0D01*
G01*
X146145500Y-108017401D02*
X141985500Y-108017401D01*
X146145500Y-107977401D02*
X141985500Y-107977401D01*
X146143500Y-108057401D02*
X141987500Y-108057401D01*
X146142500Y-108097401D02*
X141988500Y-108097401D01*
X146139500Y-108137401D02*
X141991500Y-108137401D01*
X146136500Y-108177401D02*
X144905500Y-108177401D01*
X146131500Y-108217401D02*
X144905500Y-108217401D01*
X146126500Y-108257401D02*
X144905500Y-108257401D01*
X146121500Y-108297401D02*
X144905500Y-108297401D01*
X146114500Y-108337401D02*
X144905500Y-108337401D01*
X146107500Y-108377401D02*
X144905500Y-108377401D01*
X146099500Y-108417401D02*
X144905500Y-108417401D01*
X146090500Y-108457401D02*
X144905500Y-108457401D01*
X146080500Y-108497401D02*
X144905500Y-108497401D01*
X146070500Y-108537401D02*
X144905500Y-108537401D01*
X146058500Y-108577401D02*
X144905500Y-108577401D01*
X146046500Y-108617401D02*
X144905500Y-108617401D01*
X146033500Y-108657401D02*
X144905500Y-108657401D01*
X146019500Y-108697401D02*
X144905500Y-108697401D01*
X146004500Y-108737401D02*
X144905500Y-108737401D01*
X145988500Y-108777401D02*
X144905500Y-108777401D01*
X145971500Y-108817401D02*
X144905500Y-108817401D01*
X145954500Y-108857401D02*
X144905500Y-108857401D01*
X145935500Y-108897401D02*
X144905500Y-108897401D01*
X145915500Y-108937401D02*
X144905500Y-108937401D01*
X145894500Y-108977401D02*
X144905500Y-108977401D01*
X145872500Y-109017401D02*
X144905500Y-109017401D01*
X145849500Y-109057401D02*
X144905500Y-109057401D01*
X145825500Y-109097401D02*
X144905500Y-109097401D01*
X145799500Y-109137401D02*
X144905500Y-109137401D01*
X145773500Y-109177401D02*
X144905500Y-109177401D01*
X145745500Y-109217401D02*
X144905500Y-109217401D01*
X145715500Y-109257401D02*
X144905500Y-109257401D01*
X145684500Y-109297401D02*
X144905500Y-109297401D01*
X145651500Y-109337401D02*
X144905500Y-109337401D01*
X145617500Y-109377401D02*
X144905500Y-109377401D01*
X145581500Y-109417401D02*
X144905500Y-109417401D01*
X145543500Y-109457401D02*
X144905500Y-109457401D01*
X145503500Y-109497401D02*
X144905500Y-109497401D01*
X145461500Y-109537401D02*
X144905500Y-109537401D01*
X145460500Y-105907600D02*
X145060500Y-105907600D01*
X145416500Y-109577401D02*
X144905500Y-109577401D01*
X145368500Y-109617401D02*
X144905500Y-109617401D01*
X145318500Y-109657401D02*
X144905500Y-109657401D01*
X145264500Y-109697401D02*
X144905500Y-109697401D01*
X145260500Y-105707600D02*
X145260500Y-106107600D01*
X145207500Y-109737401D02*
X144905500Y-109737401D01*
X145145500Y-109777401D02*
X144905500Y-109777401D01*
X145078500Y-109817401D02*
X143052500Y-109817401D01*
X145005500Y-109857401D02*
X143125500Y-109857401D01*
X144924500Y-109897401D02*
X143206500Y-109897401D01*
X144833500Y-109937401D02*
X143297500Y-109937401D01*
X144728500Y-109977401D02*
X143402500Y-109977401D01*
X144602500Y-110017401D02*
X143528500Y-110017401D01*
X144435500Y-110057401D02*
X143695500Y-110057401D01*
X143225500Y-109777401D02*
X142985500Y-109777401D01*
X143225500Y-109737401D02*
X142923500Y-109737401D01*
X143225500Y-109697401D02*
X142866500Y-109697401D01*
X143225500Y-109657401D02*
X142812500Y-109657401D01*
X143225500Y-109617401D02*
X142762500Y-109617401D01*
X143225500Y-109577401D02*
X142714500Y-109577401D01*
X143225500Y-109537401D02*
X142669500Y-109537401D01*
X143225500Y-109497401D02*
X142627500Y-109497401D01*
X143225500Y-109457401D02*
X142587500Y-109457401D01*
X143225500Y-109417401D02*
X142549500Y-109417401D01*
X143225500Y-109377401D02*
X142513500Y-109377401D01*
X143225500Y-109337401D02*
X142479500Y-109337401D01*
X143225500Y-109297401D02*
X142446500Y-109297401D01*
X143225500Y-109257401D02*
X142415500Y-109257401D01*
X143225500Y-109217401D02*
X142385500Y-109217401D01*
X143225500Y-109177401D02*
X142357500Y-109177401D01*
X143225500Y-109137401D02*
X142331500Y-109137401D01*
X143225500Y-109097401D02*
X142305500Y-109097401D01*
X143225500Y-109057401D02*
X142281500Y-109057401D01*
X143225500Y-109017401D02*
X142258500Y-109017401D01*
X143225500Y-108977401D02*
X142236500Y-108977401D01*
X143225500Y-108937401D02*
X142215500Y-108937401D01*
X143225500Y-108897401D02*
X142195500Y-108897401D01*
X143225500Y-108857401D02*
X142176500Y-108857401D01*
X143225500Y-108817401D02*
X142159500Y-108817401D01*
X143225500Y-108777401D02*
X142142500Y-108777401D01*
X143225500Y-108737401D02*
X142126500Y-108737401D01*
X143225500Y-108697401D02*
X142111500Y-108697401D01*
X143225500Y-108657401D02*
X142097500Y-108657401D01*
X143225500Y-108617401D02*
X142084500Y-108617401D01*
X143225500Y-108577401D02*
X142072500Y-108577401D01*
X143225500Y-108537401D02*
X142060500Y-108537401D01*
X143225500Y-108497401D02*
X142050500Y-108497401D01*
X143225500Y-108457401D02*
X142040500Y-108457401D01*
X143225500Y-108417401D02*
X142031500Y-108417401D01*
X143225500Y-108377401D02*
X142023500Y-108377401D01*
X143225500Y-108337401D02*
X142016500Y-108337401D01*
X143225500Y-108297401D02*
X142009500Y-108297401D01*
X143225500Y-108257401D02*
X142004500Y-108257401D01*
X143225500Y-108217401D02*
X141999500Y-108217401D01*
X143225500Y-108177401D02*
X141994500Y-108177401D01*
%TO.C,SW1*%
X94272000Y-76572000D02*
X81572000Y-76572000D01*
X81572000Y-89772000D01*
X94272000Y-89772000D01*
X94272000Y-76572000D01*
%TO.C,SW2*%
X119036000Y-76344000D02*
X106336000Y-76344000D01*
X106336000Y-89544000D01*
X119036000Y-89544000D01*
X119036000Y-76344000D01*
%TO.C,RV1*%
X132772000Y-79486000D02*
X132772000Y-84206000D01*
X132772000Y-79486000D02*
X134262000Y-79486000D01*
X132772000Y-88016000D02*
X132772000Y-91076000D01*
X132772000Y-91076000D02*
X142512000Y-91076000D01*
X135982000Y-79486000D02*
X136812000Y-79486000D01*
X138432000Y-79486000D02*
X138962000Y-79486000D01*
X141332000Y-79486000D02*
X142512000Y-79486000D01*
X142512000Y-88016000D02*
X142512000Y-91076000D01*
X142522000Y-79486000D02*
X142522000Y-84206000D01*
%TO.C,R5*%
X64445000Y-99314000D02*
X61835000Y-99314000D01*
X67185000Y-99314000D02*
G75*
G02*
X64445000Y-99314000I-1370000J0D01*
G01*
X64445000Y-99314000D02*
G75*
G02*
X67185000Y-99314000I1370000J0D01*
G01*
%TO.C,R4*%
X99993600Y-93554400D02*
X97383600Y-93554400D01*
X102733600Y-93554400D02*
G75*
G02*
X99993600Y-93554400I-1370000J0D01*
G01*
X99993600Y-93554400D02*
G75*
G02*
X102733600Y-93554400I1370000J0D01*
G01*
%TO.C,C4*%
X123615200Y-94350000D02*
X123615200Y-93610000D01*
X123655200Y-94517000D02*
X123655200Y-93443000D01*
X123695200Y-94643000D02*
X123695200Y-93317000D01*
X123735200Y-94748000D02*
X123735200Y-93212000D01*
X123775200Y-94839000D02*
X123775200Y-93121000D01*
X123815200Y-94920000D02*
X123815200Y-93040000D01*
X123855200Y-94993000D02*
X123855200Y-92967000D01*
X123895200Y-93140000D02*
X123895200Y-92900000D01*
X123895200Y-95060000D02*
X123895200Y-94820000D01*
X123935200Y-93140000D02*
X123935200Y-92838000D01*
X123935200Y-95122000D02*
X123935200Y-94820000D01*
X123975200Y-93140000D02*
X123975200Y-92781000D01*
X123975200Y-95179000D02*
X123975200Y-94820000D01*
X124015200Y-93140000D02*
X124015200Y-92727000D01*
X124015200Y-95233000D02*
X124015200Y-94820000D01*
X124055200Y-93140000D02*
X124055200Y-92677000D01*
X124055200Y-95283000D02*
X124055200Y-94820000D01*
X124095200Y-93140000D02*
X124095200Y-92629000D01*
X124095200Y-95331000D02*
X124095200Y-94820000D01*
X124135200Y-93140000D02*
X124135200Y-92584000D01*
X124135200Y-95376000D02*
X124135200Y-94820000D01*
X124175200Y-93140000D02*
X124175200Y-92542000D01*
X124175200Y-95418000D02*
X124175200Y-94820000D01*
X124215200Y-93140000D02*
X124215200Y-92502000D01*
X124215200Y-95458000D02*
X124215200Y-94820000D01*
X124255200Y-93140000D02*
X124255200Y-92464000D01*
X124255200Y-95496000D02*
X124255200Y-94820000D01*
X124295200Y-93140000D02*
X124295200Y-92428000D01*
X124295200Y-95532000D02*
X124295200Y-94820000D01*
X124335200Y-93140000D02*
X124335200Y-92394000D01*
X124335200Y-95566000D02*
X124335200Y-94820000D01*
X124375200Y-93140000D02*
X124375200Y-92361000D01*
X124375200Y-95599000D02*
X124375200Y-94820000D01*
X124415200Y-93140000D02*
X124415200Y-92330000D01*
X124415200Y-95630000D02*
X124415200Y-94820000D01*
X124455200Y-93140000D02*
X124455200Y-92300000D01*
X124455200Y-95660000D02*
X124455200Y-94820000D01*
X124495200Y-93140000D02*
X124495200Y-92272000D01*
X124495200Y-95688000D02*
X124495200Y-94820000D01*
X124535200Y-93140000D02*
X124535200Y-92246000D01*
X124535200Y-95714000D02*
X124535200Y-94820000D01*
X124575200Y-93140000D02*
X124575200Y-92220000D01*
X124575200Y-95740000D02*
X124575200Y-94820000D01*
X124615200Y-93140000D02*
X124615200Y-92196000D01*
X124615200Y-95764000D02*
X124615200Y-94820000D01*
X124655200Y-93140000D02*
X124655200Y-92173000D01*
X124655200Y-95787000D02*
X124655200Y-94820000D01*
X124695200Y-93140000D02*
X124695200Y-92151000D01*
X124695200Y-95809000D02*
X124695200Y-94820000D01*
X124735200Y-93140000D02*
X124735200Y-92130000D01*
X124735200Y-95830000D02*
X124735200Y-94820000D01*
X124775200Y-93140000D02*
X124775200Y-92110000D01*
X124775200Y-95850000D02*
X124775200Y-94820000D01*
X124815200Y-93140000D02*
X124815200Y-92091000D01*
X124815200Y-95869000D02*
X124815200Y-94820000D01*
X124855200Y-93140000D02*
X124855200Y-92074000D01*
X124855200Y-95886000D02*
X124855200Y-94820000D01*
X124895200Y-93140000D02*
X124895200Y-92057000D01*
X124895200Y-95903000D02*
X124895200Y-94820000D01*
X124935200Y-93140000D02*
X124935200Y-92041000D01*
X124935200Y-95919000D02*
X124935200Y-94820000D01*
X124975200Y-93140000D02*
X124975200Y-92026000D01*
X124975200Y-95934000D02*
X124975200Y-94820000D01*
X125015200Y-93140000D02*
X125015200Y-92012000D01*
X125015200Y-95948000D02*
X125015200Y-94820000D01*
X125055200Y-93140000D02*
X125055200Y-91999000D01*
X125055200Y-95961000D02*
X125055200Y-94820000D01*
X125095200Y-93140000D02*
X125095200Y-91987000D01*
X125095200Y-95973000D02*
X125095200Y-94820000D01*
X125135200Y-93140000D02*
X125135200Y-91975000D01*
X125135200Y-95985000D02*
X125135200Y-94820000D01*
X125175200Y-93140000D02*
X125175200Y-91965000D01*
X125175200Y-95995000D02*
X125175200Y-94820000D01*
X125215200Y-93140000D02*
X125215200Y-91955000D01*
X125215200Y-96005000D02*
X125215200Y-94820000D01*
X125255200Y-93140000D02*
X125255200Y-91946000D01*
X125255200Y-96014000D02*
X125255200Y-94820000D01*
X125295200Y-93140000D02*
X125295200Y-91938000D01*
X125295200Y-96022000D02*
X125295200Y-94820000D01*
X125335200Y-93140000D02*
X125335200Y-91931000D01*
X125335200Y-96029000D02*
X125335200Y-94820000D01*
X125375200Y-93140000D02*
X125375200Y-91924000D01*
X125375200Y-96036000D02*
X125375200Y-94820000D01*
X125415200Y-93140000D02*
X125415200Y-91919000D01*
X125415200Y-96041000D02*
X125415200Y-94820000D01*
X125455200Y-93140000D02*
X125455200Y-91914000D01*
X125455200Y-96046000D02*
X125455200Y-94820000D01*
X125495200Y-93140000D02*
X125495200Y-91909000D01*
X125495200Y-96051000D02*
X125495200Y-94820000D01*
X125535200Y-96054000D02*
X125535200Y-91906000D01*
X125575200Y-96057000D02*
X125575200Y-91903000D01*
X125615200Y-96058000D02*
X125615200Y-91902000D01*
X125655200Y-96060000D02*
X125655200Y-91900000D01*
X125695200Y-96060000D02*
X125695200Y-91900000D01*
X127765001Y-95375000D02*
X127765001Y-94975000D01*
X127965001Y-95175000D02*
X127565001Y-95175000D01*
X127815200Y-93980000D02*
G75*
G02*
X123575200Y-93980000I-2120000J0D01*
G01*
X123575200Y-93980000D02*
G75*
G02*
X127815200Y-93980000I2120000J0D01*
G01*
%TO.C,U2*%
X118546600Y-99356400D02*
X118546600Y-104656400D01*
X118546600Y-104656400D02*
X128826600Y-104656400D01*
X128826600Y-99356400D02*
X118546600Y-99356400D01*
X128826600Y-101006400D02*
X128826600Y-99356400D01*
X128826600Y-104656400D02*
X128826600Y-103006400D01*
X128826600Y-103006400D02*
G75*
G02*
X128826600Y-101006400I0J1000000D01*
G01*
%TO.C,R9*%
X100767000Y-119126000D02*
X98157000Y-119126000D01*
X103507000Y-119126000D02*
G75*
G02*
X100767000Y-119126000I-1370000J0D01*
G01*
X100767000Y-119126000D02*
G75*
G02*
X103507000Y-119126000I1370000J0D01*
G01*
%TO.C,R1*%
X103212600Y-109810400D02*
X105822600Y-109810400D01*
X103212600Y-109810400D02*
G75*
G02*
X100472600Y-109810400I-1370000J0D01*
G01*
X100472600Y-109810400D02*
G75*
G02*
X103212600Y-109810400I1370000J0D01*
G01*
%TO.C,C1*%
X114188600Y-98072400D02*
X116928600Y-98072400D01*
X114188600Y-105512400D02*
X114188600Y-98072400D01*
X116928600Y-98072400D02*
X116928600Y-105512400D01*
X116928600Y-105512400D02*
X114188600Y-105512400D01*
%TO.C,R8*%
X123627000Y-119888000D02*
X121017000Y-119888000D01*
X126367000Y-119888000D02*
G75*
G02*
X123627000Y-119888000I-1370000J0D01*
G01*
X123627000Y-119888000D02*
G75*
G02*
X126367000Y-119888000I1370000J0D01*
G01*
%TO.C,C5*%
X123267000Y-110504400D02*
X123267000Y-109764400D01*
X123307000Y-110671400D02*
X123307000Y-109597400D01*
X123347000Y-110797400D02*
X123347000Y-109471400D01*
X123387000Y-110902400D02*
X123387000Y-109366400D01*
X123427000Y-110993400D02*
X123427000Y-109275400D01*
X123467000Y-111074400D02*
X123467000Y-109194400D01*
X123507000Y-111147400D02*
X123507000Y-109121400D01*
X123547000Y-109294400D02*
X123547000Y-109054400D01*
X123547000Y-111214400D02*
X123547000Y-110974400D01*
X123587000Y-109294400D02*
X123587000Y-108992400D01*
X123587000Y-111276400D02*
X123587000Y-110974400D01*
X123627000Y-109294400D02*
X123627000Y-108935400D01*
X123627000Y-111333400D02*
X123627000Y-110974400D01*
X123667000Y-109294400D02*
X123667000Y-108881400D01*
X123667000Y-111387400D02*
X123667000Y-110974400D01*
X123707000Y-109294400D02*
X123707000Y-108831400D01*
X123707000Y-111437400D02*
X123707000Y-110974400D01*
X123747000Y-109294400D02*
X123747000Y-108783400D01*
X123747000Y-111485400D02*
X123747000Y-110974400D01*
X123787000Y-109294400D02*
X123787000Y-108738400D01*
X123787000Y-111530400D02*
X123787000Y-110974400D01*
X123827000Y-109294400D02*
X123827000Y-108696400D01*
X123827000Y-111572400D02*
X123827000Y-110974400D01*
X123867000Y-109294400D02*
X123867000Y-108656400D01*
X123867000Y-111612400D02*
X123867000Y-110974400D01*
X123907000Y-109294400D02*
X123907000Y-108618400D01*
X123907000Y-111650400D02*
X123907000Y-110974400D01*
X123947000Y-109294400D02*
X123947000Y-108582400D01*
X123947000Y-111686400D02*
X123947000Y-110974400D01*
X123987000Y-109294400D02*
X123987000Y-108548400D01*
X123987000Y-111720400D02*
X123987000Y-110974400D01*
X124027000Y-109294400D02*
X124027000Y-108515400D01*
X124027000Y-111753400D02*
X124027000Y-110974400D01*
X124067000Y-109294400D02*
X124067000Y-108484400D01*
X124067000Y-111784400D02*
X124067000Y-110974400D01*
X124107000Y-109294400D02*
X124107000Y-108454400D01*
X124107000Y-111814400D02*
X124107000Y-110974400D01*
X124147000Y-109294400D02*
X124147000Y-108426400D01*
X124147000Y-111842400D02*
X124147000Y-110974400D01*
X124187000Y-109294400D02*
X124187000Y-108400400D01*
X124187000Y-111868400D02*
X124187000Y-110974400D01*
X124227000Y-109294400D02*
X124227000Y-108374400D01*
X124227000Y-111894400D02*
X124227000Y-110974400D01*
X124267000Y-109294400D02*
X124267000Y-108350400D01*
X124267000Y-111918400D02*
X124267000Y-110974400D01*
X124307000Y-109294400D02*
X124307000Y-108327400D01*
X124307000Y-111941400D02*
X124307000Y-110974400D01*
X124347000Y-109294400D02*
X124347000Y-108305400D01*
X124347000Y-111963400D02*
X124347000Y-110974400D01*
X124387000Y-109294400D02*
X124387000Y-108284400D01*
X124387000Y-111984400D02*
X124387000Y-110974400D01*
X124427000Y-109294400D02*
X124427000Y-108264400D01*
X124427000Y-112004400D02*
X124427000Y-110974400D01*
X124467000Y-109294400D02*
X124467000Y-108245400D01*
X124467000Y-112023400D02*
X124467000Y-110974400D01*
X124507000Y-109294400D02*
X124507000Y-108228400D01*
X124507000Y-112040400D02*
X124507000Y-110974400D01*
X124547000Y-109294400D02*
X124547000Y-108211400D01*
X124547000Y-112057400D02*
X124547000Y-110974400D01*
X124587000Y-109294400D02*
X124587000Y-108195400D01*
X124587000Y-112073400D02*
X124587000Y-110974400D01*
X124627000Y-109294400D02*
X124627000Y-108180400D01*
X124627000Y-112088400D02*
X124627000Y-110974400D01*
X124667000Y-109294400D02*
X124667000Y-108166400D01*
X124667000Y-112102400D02*
X124667000Y-110974400D01*
X124707000Y-109294400D02*
X124707000Y-108153400D01*
X124707000Y-112115400D02*
X124707000Y-110974400D01*
X124747000Y-109294400D02*
X124747000Y-108141400D01*
X124747000Y-112127400D02*
X124747000Y-110974400D01*
X124787000Y-109294400D02*
X124787000Y-108129400D01*
X124787000Y-112139400D02*
X124787000Y-110974400D01*
X124827000Y-109294400D02*
X124827000Y-108119400D01*
X124827000Y-112149400D02*
X124827000Y-110974400D01*
X124867000Y-109294400D02*
X124867000Y-108109400D01*
X124867000Y-112159400D02*
X124867000Y-110974400D01*
X124907000Y-109294400D02*
X124907000Y-108100400D01*
X124907000Y-112168400D02*
X124907000Y-110974400D01*
X124947000Y-109294400D02*
X124947000Y-108092400D01*
X124947000Y-112176400D02*
X124947000Y-110974400D01*
X124987000Y-109294400D02*
X124987000Y-108085400D01*
X124987000Y-112183400D02*
X124987000Y-110974400D01*
X125027000Y-109294400D02*
X125027000Y-108078400D01*
X125027000Y-112190400D02*
X125027000Y-110974400D01*
X125067000Y-109294400D02*
X125067000Y-108073400D01*
X125067000Y-112195400D02*
X125067000Y-110974400D01*
X125107000Y-109294400D02*
X125107000Y-108068400D01*
X125107000Y-112200400D02*
X125107000Y-110974400D01*
X125147000Y-109294400D02*
X125147000Y-108063400D01*
X125147000Y-112205400D02*
X125147000Y-110974400D01*
X125187000Y-112208400D02*
X125187000Y-108060400D01*
X125227000Y-112211400D02*
X125227000Y-108057400D01*
X125267000Y-112212400D02*
X125267000Y-108056400D01*
X125307000Y-112214400D02*
X125307000Y-108054400D01*
X125347000Y-112214400D02*
X125347000Y-108054400D01*
X127416801Y-111529400D02*
X127416801Y-111129400D01*
X127616801Y-111329400D02*
X127216801Y-111329400D01*
X127467000Y-110134400D02*
G75*
G02*
X123227000Y-110134400I-2120000J0D01*
G01*
X123227000Y-110134400D02*
G75*
G02*
X127467000Y-110134400I2120000J0D01*
G01*
%TO.C,C3*%
X129936600Y-97987400D02*
X132676600Y-97987400D01*
X129936600Y-105427400D02*
X129936600Y-97987400D01*
X132676600Y-97987400D02*
X132676600Y-105427400D01*
X132676600Y-105427400D02*
X129936600Y-105427400D01*
%TO.C,U1*%
X94924600Y-99072400D02*
X94924600Y-104372400D01*
X94924600Y-104372400D02*
X112824600Y-104372400D01*
X112824600Y-99072400D02*
X94924600Y-99072400D01*
X112824600Y-100722400D02*
X112824600Y-99072400D01*
X112824600Y-104372400D02*
X112824600Y-102722400D01*
X112824600Y-102722400D02*
G75*
G02*
X112824600Y-100722400I0J1000000D01*
G01*
%TO.C,R3*%
X108883600Y-93554400D02*
X106273600Y-93554400D01*
X111623600Y-93554400D02*
G75*
G02*
X108883600Y-93554400I-1370000J0D01*
G01*
X108883600Y-93554400D02*
G75*
G02*
X111623600Y-93554400I1370000J0D01*
G01*
%TO.C,C6*%
X106516000Y-118264000D02*
X113956000Y-118264000D01*
X106516000Y-121004000D02*
X106516000Y-118264000D01*
X113956000Y-118264000D02*
X113956000Y-121004000D01*
X113956000Y-121004000D02*
X106516000Y-121004000D01*
%TO.C,R6*%
X133373400Y-114833400D02*
X130763400Y-114833400D01*
X136113400Y-114833400D02*
G75*
G02*
X133373400Y-114833400I-1370000J0D01*
G01*
X133373400Y-114833400D02*
G75*
G02*
X136113400Y-114833400I1370000J0D01*
G01*
%TO.C,D1*%
X65553500Y-83023500D02*
X65553500Y-82558500D01*
X65553500Y-85648500D02*
X65553500Y-85183500D01*
X60205685Y-83022673D02*
G75*
G02*
X65553500Y-82558670I2787815J-1080827D01*
G01*
X60739021Y-83023071D02*
G75*
G02*
X65248184Y-83023500I2254479J-1080429D01*
G01*
X65248184Y-85183500D02*
G75*
G02*
X60739021Y-85183929I-2254684J1080000D01*
G01*
X65553500Y-85648330D02*
G75*
G02*
X60205685Y-85184327I-2560000J1544830D01*
G01*
%TO.C,R7*%
X100636400Y-114604800D02*
X98026400Y-114604800D01*
X103376400Y-114604800D02*
G75*
G02*
X100636400Y-114604800I-1370000J0D01*
G01*
X100636400Y-114604800D02*
G75*
G02*
X103376400Y-114604800I1370000J0D01*
G01*
%TO.C,R2*%
X112581600Y-109810400D02*
X115191600Y-109810400D01*
X112581600Y-109810400D02*
G75*
G02*
X109841600Y-109810400I-1370000J0D01*
G01*
X109841600Y-109810400D02*
G75*
G02*
X112581600Y-109810400I1370000J0D01*
G01*
%TO.C,C7*%
X128610400Y-117146400D02*
X136050400Y-117146400D01*
X128610400Y-119886400D02*
X128610400Y-117146400D01*
X136050400Y-117146400D02*
X136050400Y-119886400D01*
X136050400Y-119886400D02*
X128610400Y-119886400D01*
%TD*%
M02*
