%TF.GenerationSoftware,KiCad,Pcbnew,9.0.4*%
%TF.CreationDate,2026-07-20T16:00:50-04:00*%
%TF.ProjectId,ab-pedal,61622d70-6564-4616-9c2e-6b696361645f,rev?*%
%TF.SameCoordinates,Original*%
%TF.FileFunction,Legend,Bot*%
%TF.FilePolarity,Positive*%
%FSLAX46Y46*%
G04 Gerber Fmt 4.6, Leading zero omitted, Abs format (unit mm)*
G04 Created by KiCad (PCBNEW 9.0.4) date 2026-07-20 16:00:50*
%MOMM*%
%LPD*%
G01*
G04 APERTURE LIST*
%ADD10C,0.000000*%
%ADD11C,0.100000*%
%ADD12C,0.150000*%
%ADD13C,0.120000*%
G04 APERTURE END LIST*
D10*
G36*
X100162413Y-101879242D02*
G01*
X100161936Y-101890967D01*
X100161141Y-101902506D01*
X100160027Y-101913859D01*
X100158596Y-101925025D01*
X100156846Y-101936006D01*
X100154779Y-101946800D01*
X100152393Y-101957408D01*
X100149689Y-101967830D01*
X100146667Y-101978067D01*
X100143327Y-101988117D01*
X100139669Y-101997981D01*
X100135693Y-102007659D01*
X100131399Y-102017151D01*
X100126786Y-102026457D01*
X100121856Y-102035577D01*
X100116637Y-102044475D01*
X100111160Y-102053114D01*
X100105425Y-102061496D01*
X100099432Y-102069620D01*
X100093181Y-102077485D01*
X100086672Y-102085092D01*
X100079905Y-102092442D01*
X100072880Y-102099533D01*
X100065596Y-102106366D01*
X100058055Y-102112941D01*
X100050255Y-102119258D01*
X100042198Y-102125317D01*
X100033882Y-102131118D01*
X100025308Y-102136661D01*
X100016476Y-102141946D01*
X100007386Y-102146973D01*
X99998077Y-102151718D01*
X99988587Y-102156157D01*
X99978918Y-102160290D01*
X99969068Y-102164116D01*
X99959038Y-102167637D01*
X99948829Y-102170851D01*
X99938439Y-102173759D01*
X99927870Y-102176361D01*
X99917121Y-102178657D01*
X99906191Y-102180647D01*
X99895082Y-102182331D01*
X99883792Y-102183708D01*
X99872323Y-102184780D01*
X99860674Y-102185545D01*
X99848844Y-102186004D01*
X99836835Y-102186157D01*
X99824825Y-102186004D01*
X99812995Y-102185545D01*
X99801345Y-102184780D01*
X99789875Y-102183708D01*
X99778585Y-102182331D01*
X99767476Y-102180647D01*
X99756546Y-102178657D01*
X99745797Y-102176361D01*
X99735227Y-102173759D01*
X99724838Y-102170851D01*
X99714629Y-102167637D01*
X99704600Y-102164116D01*
X99694751Y-102160290D01*
X99685082Y-102156157D01*
X99675593Y-102151718D01*
X99666284Y-102146973D01*
X99657194Y-102141946D01*
X99648361Y-102136660D01*
X99639787Y-102131117D01*
X99631471Y-102125316D01*
X99623413Y-102119257D01*
X99615614Y-102112940D01*
X99608072Y-102106365D01*
X99600789Y-102099532D01*
X99593763Y-102092440D01*
X99586996Y-102085091D01*
X99580487Y-102077484D01*
X99574236Y-102069618D01*
X99568243Y-102061495D01*
X99562509Y-102053114D01*
X99557032Y-102044474D01*
X99551814Y-102035577D01*
X99546884Y-102026457D01*
X99542271Y-102017151D01*
X99537977Y-102007659D01*
X99534000Y-101997981D01*
X99530342Y-101988117D01*
X99527002Y-101978067D01*
X99523980Y-101967831D01*
X99521277Y-101957409D01*
X99518891Y-101946801D01*
X99516823Y-101936006D01*
X99515074Y-101925026D01*
X99513643Y-101913859D01*
X99512529Y-101902506D01*
X99511734Y-101890967D01*
X99511257Y-101879243D01*
X99511098Y-101867331D01*
X99594068Y-101867331D01*
X99594182Y-101876677D01*
X99594524Y-101885890D01*
X99595094Y-101894971D01*
X99595892Y-101903921D01*
X99596918Y-101912738D01*
X99598172Y-101921422D01*
X99599655Y-101929975D01*
X99601365Y-101938396D01*
X99603303Y-101946684D01*
X99605470Y-101954841D01*
X99607864Y-101962865D01*
X99610487Y-101970758D01*
X99613338Y-101978518D01*
X99616416Y-101986146D01*
X99619723Y-101993642D01*
X99623258Y-102001006D01*
X99626916Y-102008109D01*
X99630785Y-102015015D01*
X99634863Y-102021722D01*
X99639152Y-102028231D01*
X99643651Y-102034542D01*
X99648359Y-102040655D01*
X99653278Y-102046570D01*
X99658407Y-102052287D01*
X99663746Y-102057806D01*
X99669294Y-102063127D01*
X99675053Y-102068250D01*
X99681022Y-102073174D01*
X99687201Y-102077901D01*
X99693590Y-102082430D01*
X99700189Y-102086760D01*
X99706998Y-102090893D01*
X99713897Y-102094800D01*
X99720957Y-102098455D01*
X99728180Y-102101858D01*
X99735565Y-102105009D01*
X99743112Y-102107908D01*
X99750821Y-102110555D01*
X99758693Y-102112950D01*
X99766726Y-102115093D01*
X99774922Y-102116983D01*
X99783280Y-102118622D01*
X99791800Y-102120008D01*
X99800482Y-102121143D01*
X99809326Y-102122025D01*
X99818332Y-102122655D01*
X99827501Y-102123033D01*
X99836831Y-102123159D01*
X99846165Y-102123033D01*
X99855342Y-102122655D01*
X99864363Y-102122025D01*
X99873228Y-102121143D01*
X99881937Y-102120008D01*
X99890490Y-102118622D01*
X99898886Y-102116983D01*
X99907127Y-102115093D01*
X99915211Y-102112950D01*
X99923140Y-102110555D01*
X99930912Y-102107908D01*
X99938529Y-102105009D01*
X99945989Y-102101858D01*
X99953293Y-102098455D01*
X99960441Y-102094800D01*
X99967433Y-102090893D01*
X99974153Y-102086760D01*
X99980675Y-102082430D01*
X99986998Y-102077901D01*
X99993123Y-102073174D01*
X99999051Y-102068250D01*
X100004780Y-102063127D01*
X100010311Y-102057806D01*
X100015643Y-102052287D01*
X100020778Y-102046570D01*
X100025714Y-102040655D01*
X100030453Y-102034542D01*
X100034993Y-102028231D01*
X100039335Y-102021722D01*
X100043479Y-102015015D01*
X100047425Y-102008109D01*
X100051173Y-102001006D01*
X100054616Y-101993641D01*
X100057836Y-101986145D01*
X100060834Y-101978516D01*
X100063611Y-101970756D01*
X100066165Y-101962863D01*
X100068497Y-101954838D01*
X100070607Y-101946682D01*
X100072495Y-101938393D01*
X100074161Y-101929972D01*
X100075604Y-101921420D01*
X100076826Y-101912735D01*
X100077825Y-101903918D01*
X100078603Y-101894970D01*
X100079158Y-101885889D01*
X100079491Y-101876676D01*
X100079602Y-101867331D01*
X100079491Y-101858083D01*
X100079158Y-101848966D01*
X100078603Y-101839981D01*
X100077825Y-101831129D01*
X100076826Y-101822408D01*
X100075604Y-101813819D01*
X100074161Y-101805363D01*
X100072495Y-101797038D01*
X100070607Y-101788845D01*
X100068497Y-101780785D01*
X100066165Y-101772856D01*
X100063611Y-101765060D01*
X100060834Y-101757395D01*
X100057836Y-101749862D01*
X100054616Y-101742462D01*
X100051173Y-101735193D01*
X100047425Y-101727997D01*
X100043479Y-101721004D01*
X100039335Y-101714216D01*
X100034993Y-101707632D01*
X100030453Y-101701252D01*
X100025714Y-101695076D01*
X100020778Y-101689104D01*
X100015643Y-101683337D01*
X100010311Y-101677773D01*
X100004780Y-101672414D01*
X99999051Y-101667259D01*
X99993123Y-101662308D01*
X99986998Y-101657561D01*
X99980675Y-101653018D01*
X99974153Y-101648680D01*
X99967433Y-101644545D01*
X99960441Y-101640545D01*
X99953292Y-101636802D01*
X99945988Y-101633317D01*
X99938528Y-101630091D01*
X99930911Y-101627123D01*
X99923139Y-101624412D01*
X99915211Y-101621960D01*
X99907126Y-101619766D01*
X99898886Y-101617830D01*
X99890489Y-101616153D01*
X99881936Y-101614733D01*
X99873228Y-101613571D01*
X99864363Y-101612668D01*
X99855342Y-101612023D01*
X99846165Y-101611635D01*
X99836831Y-101611506D01*
X99827501Y-101611635D01*
X99818333Y-101612023D01*
X99809327Y-101612668D01*
X99800483Y-101613571D01*
X99791801Y-101614733D01*
X99783281Y-101616153D01*
X99774923Y-101617830D01*
X99766728Y-101619766D01*
X99758694Y-101621960D01*
X99750823Y-101624412D01*
X99743113Y-101627123D01*
X99735566Y-101630091D01*
X99728181Y-101633317D01*
X99720958Y-101636802D01*
X99713897Y-101640545D01*
X99706998Y-101644545D01*
X99700189Y-101648681D01*
X99693589Y-101653020D01*
X99687200Y-101657564D01*
X99681021Y-101662311D01*
X99675052Y-101667263D01*
X99669293Y-101672418D01*
X99663744Y-101677778D01*
X99658405Y-101683341D01*
X99653277Y-101689109D01*
X99648358Y-101695080D01*
X99643649Y-101701256D01*
X99639151Y-101707635D01*
X99634862Y-101714219D01*
X99630784Y-101721006D01*
X99626916Y-101727998D01*
X99623258Y-101735193D01*
X99619723Y-101742462D01*
X99616416Y-101749862D01*
X99613338Y-101757395D01*
X99610487Y-101765059D01*
X99607864Y-101772856D01*
X99605470Y-101780784D01*
X99603303Y-101788845D01*
X99601365Y-101797037D01*
X99599655Y-101805362D01*
X99598172Y-101813819D01*
X99596918Y-101822407D01*
X99595892Y-101831128D01*
X99595094Y-101839981D01*
X99594524Y-101848966D01*
X99594182Y-101858083D01*
X99594068Y-101867331D01*
X99511098Y-101867331D01*
X99511257Y-101855327D01*
X99511734Y-101843515D01*
X99512529Y-101831895D01*
X99513643Y-101820468D01*
X99515074Y-101809232D01*
X99516823Y-101798188D01*
X99518891Y-101787337D01*
X99521277Y-101776677D01*
X99523980Y-101766210D01*
X99527002Y-101755935D01*
X99530342Y-101745852D01*
X99534000Y-101735961D01*
X99537977Y-101726262D01*
X99542271Y-101716755D01*
X99546884Y-101707441D01*
X99551814Y-101698318D01*
X99557033Y-101689424D01*
X99562510Y-101680793D01*
X99568245Y-101672427D01*
X99574238Y-101664324D01*
X99580489Y-101656486D01*
X99586998Y-101648911D01*
X99593765Y-101641601D01*
X99600791Y-101634555D01*
X99608074Y-101627772D01*
X99615616Y-101621254D01*
X99623415Y-101615000D01*
X99631473Y-101609010D01*
X99639788Y-101603284D01*
X99648362Y-101597822D01*
X99657194Y-101592624D01*
X99666284Y-101587690D01*
X99675592Y-101582945D01*
X99685081Y-101578506D01*
X99694750Y-101574374D01*
X99704599Y-101570547D01*
X99714628Y-101567027D01*
X99724837Y-101563812D01*
X99735226Y-101560904D01*
X99745795Y-101558302D01*
X99756545Y-101556006D01*
X99767474Y-101554016D01*
X99778584Y-101552332D01*
X99789874Y-101550955D01*
X99801344Y-101549883D01*
X99812994Y-101549118D01*
X99824825Y-101548659D01*
X99836835Y-101548506D01*
X99848845Y-101548659D01*
X99860675Y-101549118D01*
X99872325Y-101549883D01*
X99883795Y-101550955D01*
X99895085Y-101552332D01*
X99906195Y-101554016D01*
X99917124Y-101556006D01*
X99927874Y-101558302D01*
X99938443Y-101560904D01*
X99948832Y-101563812D01*
X99959041Y-101567027D01*
X99969070Y-101570547D01*
X99978919Y-101574374D01*
X99988588Y-101578506D01*
X99998077Y-101582945D01*
X100007386Y-101587690D01*
X100016476Y-101592624D01*
X100025307Y-101597822D01*
X100033880Y-101603283D01*
X100042195Y-101609009D01*
X100050253Y-101614999D01*
X100058052Y-101621253D01*
X100065593Y-101627771D01*
X100072877Y-101634554D01*
X100079902Y-101641600D01*
X100086669Y-101648910D01*
X100093179Y-101656485D01*
X100099430Y-101664323D01*
X100105424Y-101672426D01*
X100111159Y-101680793D01*
X100116636Y-101689424D01*
X100121856Y-101698318D01*
X100126786Y-101707441D01*
X100131399Y-101716756D01*
X100135693Y-101726263D01*
X100139669Y-101735962D01*
X100143327Y-101745853D01*
X100146667Y-101755936D01*
X100149689Y-101766211D01*
X100152393Y-101776678D01*
X100154779Y-101787338D01*
X100156846Y-101798189D01*
X100158596Y-101809233D01*
X100160027Y-101820468D01*
X100161141Y-101831896D01*
X100161936Y-101843516D01*
X100162413Y-101855327D01*
X100162572Y-101867331D01*
X100162413Y-101879242D01*
G37*
G36*
X100737385Y-101273552D02*
G01*
X100740570Y-101273768D01*
X100743700Y-101274128D01*
X100746776Y-101274632D01*
X100749798Y-101275281D01*
X100752766Y-101276073D01*
X100755680Y-101277009D01*
X100758540Y-101278089D01*
X100761346Y-101279313D01*
X100764098Y-101280681D01*
X100766796Y-101282193D01*
X100769440Y-101283850D01*
X100772030Y-101285650D01*
X100774566Y-101287594D01*
X100777048Y-101289683D01*
X100779475Y-101291915D01*
X100781708Y-101294252D01*
X100783796Y-101296655D01*
X100785740Y-101299125D01*
X100787540Y-101301661D01*
X100789196Y-101304262D01*
X100790709Y-101306930D01*
X100792077Y-101309664D01*
X100793301Y-101312464D01*
X100794381Y-101315330D01*
X100795317Y-101318262D01*
X100796110Y-101321260D01*
X100796758Y-101324325D01*
X100797262Y-101327455D01*
X100797622Y-101330652D01*
X100797838Y-101333914D01*
X100797910Y-101337243D01*
X100797838Y-101340478D01*
X100797622Y-101343654D01*
X100797262Y-101346769D01*
X100796758Y-101349824D01*
X100796110Y-101352819D01*
X100795317Y-101355754D01*
X100794381Y-101358629D01*
X100793301Y-101361444D01*
X100792077Y-101364198D01*
X100790709Y-101366893D01*
X100789196Y-101369528D01*
X100787540Y-101372102D01*
X100785740Y-101374617D01*
X100783796Y-101377071D01*
X100781708Y-101379465D01*
X100779475Y-101381800D01*
X100777138Y-101384032D01*
X100774735Y-101386120D01*
X100772266Y-101388064D01*
X100769731Y-101389864D01*
X100767129Y-101391521D01*
X100764462Y-101393033D01*
X100761728Y-101394401D01*
X100758928Y-101395625D01*
X100756062Y-101396705D01*
X100753129Y-101397642D01*
X100750131Y-101398434D01*
X100747067Y-101399082D01*
X100743936Y-101399586D01*
X100740739Y-101399946D01*
X100737476Y-101400162D01*
X100734147Y-101400234D01*
X100730822Y-101400162D01*
X100727569Y-101399946D01*
X100724389Y-101399586D01*
X100721280Y-101399082D01*
X100718243Y-101398434D01*
X100715278Y-101397642D01*
X100712385Y-101396705D01*
X100709565Y-101395625D01*
X100706816Y-101394401D01*
X100704139Y-101393033D01*
X100701534Y-101391521D01*
X100699001Y-101389864D01*
X100696541Y-101388064D01*
X100694152Y-101386120D01*
X100691835Y-101384032D01*
X100689590Y-101381800D01*
X100687357Y-101379465D01*
X100685269Y-101377071D01*
X100683325Y-101374617D01*
X100681525Y-101372102D01*
X100679869Y-101369528D01*
X100678356Y-101366893D01*
X100676988Y-101364198D01*
X100675764Y-101361444D01*
X100674684Y-101358629D01*
X100673748Y-101355754D01*
X100672956Y-101352819D01*
X100672307Y-101349824D01*
X100671803Y-101346769D01*
X100671443Y-101343654D01*
X100671227Y-101340478D01*
X100671155Y-101337243D01*
X100671227Y-101333916D01*
X100671443Y-101330654D01*
X100671803Y-101327458D01*
X100672307Y-101324329D01*
X100672956Y-101321265D01*
X100673748Y-101318267D01*
X100674684Y-101315335D01*
X100675764Y-101312469D01*
X100676988Y-101309669D01*
X100678356Y-101306935D01*
X100679869Y-101304267D01*
X100681525Y-101301664D01*
X100683325Y-101299128D01*
X100685269Y-101296658D01*
X100687357Y-101294253D01*
X100689590Y-101291915D01*
X100691924Y-101289683D01*
X100694318Y-101287594D01*
X100696772Y-101285650D01*
X100699286Y-101283850D01*
X100701861Y-101282193D01*
X100704496Y-101280681D01*
X100707190Y-101279313D01*
X100709945Y-101278089D01*
X100712760Y-101277009D01*
X100715635Y-101276073D01*
X100718570Y-101275281D01*
X100721566Y-101274632D01*
X100724621Y-101274128D01*
X100727736Y-101273768D01*
X100730912Y-101273552D01*
X100734147Y-101273480D01*
X100737385Y-101273552D01*
G37*
G36*
X100711847Y-101550058D02*
G01*
X100713200Y-101550094D01*
X100714433Y-101550154D01*
X100715544Y-101550238D01*
X100716535Y-101550346D01*
X100717406Y-101550478D01*
X100718155Y-101550634D01*
X100718484Y-101550721D01*
X100718784Y-101550815D01*
X101024545Y-101593065D01*
X101026057Y-101593293D01*
X101027522Y-101593580D01*
X101028938Y-101593926D01*
X101030306Y-101594332D01*
X101031627Y-101594797D01*
X101032899Y-101595321D01*
X101034123Y-101595904D01*
X101035299Y-101596547D01*
X101036427Y-101597248D01*
X101037508Y-101598010D01*
X101038540Y-101598830D01*
X101039524Y-101599710D01*
X101040460Y-101600649D01*
X101041348Y-101601647D01*
X101042188Y-101602705D01*
X101042979Y-101603822D01*
X101043722Y-101604885D01*
X101044417Y-101605974D01*
X101045064Y-101607086D01*
X101045663Y-101608224D01*
X101046215Y-101609386D01*
X101046718Y-101610573D01*
X101047173Y-101611785D01*
X101047581Y-101613021D01*
X101047941Y-101614282D01*
X101048252Y-101615568D01*
X101048516Y-101616878D01*
X101048732Y-101618213D01*
X101048900Y-101619573D01*
X101049019Y-101620957D01*
X101049091Y-101622366D01*
X101049115Y-101623799D01*
X101049083Y-101625420D01*
X101048984Y-101627016D01*
X101048820Y-101628589D01*
X101048590Y-101630137D01*
X101048294Y-101631662D01*
X101047933Y-101633162D01*
X101047505Y-101634639D01*
X101047013Y-101636091D01*
X101046454Y-101637520D01*
X101045830Y-101638924D01*
X101045140Y-101640304D01*
X101044384Y-101641660D01*
X101043563Y-101642993D01*
X101042675Y-101644301D01*
X101041723Y-101645585D01*
X101040704Y-101646845D01*
X101039629Y-101647959D01*
X101038504Y-101649001D01*
X101037332Y-101649972D01*
X101036110Y-101650870D01*
X101034840Y-101651697D01*
X101033521Y-101652452D01*
X101032154Y-101653135D01*
X101030738Y-101653746D01*
X101029273Y-101654285D01*
X101027760Y-101654753D01*
X101026198Y-101655148D01*
X101024588Y-101655472D01*
X101022928Y-101655723D01*
X101021221Y-101655903D01*
X101019464Y-101656011D01*
X101017659Y-101656047D01*
X101012315Y-101655279D01*
X100756490Y-101620706D01*
X100756490Y-102110078D01*
X101042213Y-102110078D01*
X101044107Y-102110114D01*
X101045946Y-102110222D01*
X101047732Y-102110401D01*
X101049464Y-102110653D01*
X101051142Y-102110977D01*
X101052765Y-102111372D01*
X101054335Y-102111839D01*
X101055851Y-102112379D01*
X101057312Y-102112990D01*
X101058720Y-102113673D01*
X101060073Y-102114428D01*
X101061373Y-102115255D01*
X101062618Y-102116153D01*
X101063809Y-102117124D01*
X101064947Y-102118166D01*
X101066030Y-102119281D01*
X101067048Y-102120347D01*
X101068001Y-102121444D01*
X101068888Y-102122572D01*
X101069710Y-102123731D01*
X101070465Y-102124920D01*
X101071155Y-102126139D01*
X101071780Y-102127390D01*
X101072338Y-102128671D01*
X101072831Y-102129982D01*
X101073258Y-102131324D01*
X101073620Y-102132697D01*
X101073915Y-102134100D01*
X101074145Y-102135535D01*
X101074310Y-102136999D01*
X101074408Y-102138494D01*
X101074441Y-102140020D01*
X101074405Y-102141641D01*
X101074297Y-102143237D01*
X101074118Y-102144810D01*
X101073866Y-102146358D01*
X101073543Y-102147883D01*
X101073147Y-102149383D01*
X101072680Y-102150860D01*
X101072141Y-102152312D01*
X101071530Y-102153740D01*
X101070847Y-102155144D01*
X101070092Y-102156525D01*
X101069265Y-102157881D01*
X101068366Y-102159213D01*
X101067395Y-102160521D01*
X101066353Y-102161805D01*
X101065238Y-102163065D01*
X101064058Y-102164274D01*
X101062817Y-102165405D01*
X101061516Y-102166458D01*
X101060154Y-102167433D01*
X101058732Y-102168330D01*
X101057250Y-102169149D01*
X101055708Y-102169890D01*
X101054106Y-102170553D01*
X101052443Y-102171138D01*
X101050720Y-102171645D01*
X101048936Y-102172074D01*
X101047093Y-102172425D01*
X101045189Y-102172698D01*
X101043225Y-102172893D01*
X101041200Y-102173010D01*
X101039115Y-102173049D01*
X100427615Y-102173095D01*
X100425815Y-102173059D01*
X100424063Y-102172951D01*
X100422358Y-102172771D01*
X100420702Y-102172519D01*
X100419094Y-102172196D01*
X100417533Y-102171800D01*
X100416021Y-102171333D01*
X100414556Y-102170794D01*
X100413140Y-102170183D01*
X100411772Y-102169500D01*
X100410451Y-102168745D01*
X100409179Y-102167918D01*
X100407954Y-102167019D01*
X100406778Y-102166049D01*
X100405649Y-102165006D01*
X100404569Y-102163892D01*
X100403550Y-102162726D01*
X100402598Y-102161530D01*
X100401710Y-102160304D01*
X100400889Y-102159048D01*
X100400134Y-102157761D01*
X100399444Y-102156444D01*
X100398820Y-102155097D01*
X100398261Y-102153719D01*
X100397769Y-102152312D01*
X100397342Y-102150873D01*
X100396980Y-102149405D01*
X100396685Y-102147906D01*
X100396455Y-102146377D01*
X100396291Y-102144818D01*
X100396192Y-102143228D01*
X100396159Y-102141608D01*
X100396192Y-102140084D01*
X100396291Y-102138584D01*
X100396455Y-102137107D01*
X100396685Y-102135655D01*
X100396980Y-102134227D01*
X100397342Y-102132822D01*
X100397769Y-102131442D01*
X100398261Y-102130086D01*
X100398820Y-102128753D01*
X100399444Y-102127445D01*
X100400134Y-102126160D01*
X100400889Y-102124899D01*
X100401710Y-102123663D01*
X100402598Y-102122450D01*
X100403550Y-102121262D01*
X100404569Y-102120097D01*
X100405560Y-102118888D01*
X100406605Y-102117757D01*
X100407703Y-102116704D01*
X100408855Y-102115729D01*
X100410061Y-102114832D01*
X100411320Y-102114013D01*
X100412632Y-102113272D01*
X100413998Y-102112609D01*
X100415418Y-102112024D01*
X100416891Y-102111517D01*
X100418417Y-102111088D01*
X100419997Y-102110737D01*
X100421631Y-102110464D01*
X100423318Y-102110269D01*
X100425058Y-102110152D01*
X100426852Y-102110113D01*
X100682679Y-102110113D01*
X100682679Y-101574645D01*
X100682710Y-101573225D01*
X100682800Y-101571847D01*
X100682951Y-101570511D01*
X100683162Y-101569218D01*
X100683433Y-101567966D01*
X100683765Y-101566756D01*
X100684157Y-101565589D01*
X100684609Y-101564463D01*
X100685121Y-101563379D01*
X100685694Y-101562338D01*
X100686327Y-101561338D01*
X100687021Y-101560381D01*
X100687774Y-101559466D01*
X100688588Y-101558593D01*
X100689462Y-101557761D01*
X100690397Y-101556972D01*
X100691379Y-101556134D01*
X100692397Y-101555349D01*
X100693451Y-101554618D01*
X100694539Y-101553942D01*
X100695664Y-101553320D01*
X100696823Y-101552752D01*
X100698019Y-101552237D01*
X100699249Y-101551778D01*
X100700516Y-101551372D01*
X100701817Y-101551020D01*
X100703155Y-101550722D01*
X100704527Y-101550479D01*
X100705936Y-101550289D01*
X100707380Y-101550154D01*
X100708859Y-101550073D01*
X100710374Y-101550046D01*
X100711847Y-101550058D01*
G37*
G36*
X102070071Y-101878770D02*
G01*
X102069657Y-101890146D01*
X102068967Y-101901360D01*
X102068000Y-101912413D01*
X102066758Y-101923303D01*
X102065240Y-101934031D01*
X102063446Y-101944598D01*
X102061375Y-101955002D01*
X102059029Y-101965244D01*
X102056407Y-101975325D01*
X102053508Y-101985243D01*
X102050334Y-101995000D01*
X102046883Y-102004594D01*
X102043156Y-102014027D01*
X102039154Y-102023297D01*
X102034875Y-102032406D01*
X102030341Y-102041309D01*
X102025573Y-102049967D01*
X102020571Y-102058379D01*
X102015335Y-102066544D01*
X102009865Y-102074463D01*
X102004160Y-102082137D01*
X101998221Y-102089564D01*
X101992048Y-102096745D01*
X101985641Y-102103681D01*
X101979000Y-102110370D01*
X101972124Y-102116813D01*
X101965015Y-102123010D01*
X101957671Y-102128961D01*
X101950093Y-102134666D01*
X101942280Y-102140125D01*
X101934234Y-102145338D01*
X101925888Y-102150269D01*
X101917368Y-102154881D01*
X101908675Y-102159175D01*
X101899807Y-102163152D01*
X101890765Y-102166810D01*
X101881549Y-102170150D01*
X101872159Y-102173172D01*
X101862595Y-102175876D01*
X101852857Y-102178261D01*
X101842945Y-102180329D01*
X101832859Y-102182079D01*
X101822599Y-102183510D01*
X101812165Y-102184624D01*
X101801557Y-102185419D01*
X101790775Y-102185896D01*
X101779819Y-102186055D01*
X101771029Y-102185953D01*
X101762328Y-102185647D01*
X101753718Y-102185137D01*
X101745199Y-102184423D01*
X101736769Y-102183504D01*
X101728429Y-102182382D01*
X101720179Y-102181055D01*
X101712019Y-102179525D01*
X101703950Y-102177790D01*
X101695970Y-102175851D01*
X101688081Y-102173708D01*
X101680281Y-102171362D01*
X101672572Y-102168811D01*
X101664952Y-102166055D01*
X101657423Y-102163096D01*
X101649984Y-102159933D01*
X101642589Y-102156512D01*
X101635387Y-102152972D01*
X101628377Y-102149311D01*
X101621559Y-102145530D01*
X101614933Y-102141629D01*
X101608499Y-102137608D01*
X101602257Y-102133466D01*
X101596207Y-102129205D01*
X101590350Y-102124823D01*
X101584684Y-102120321D01*
X101579210Y-102115699D01*
X101573929Y-102110957D01*
X101568840Y-102106095D01*
X101563943Y-102101113D01*
X101559238Y-102096010D01*
X101554725Y-102090788D01*
X101552449Y-102136879D01*
X101552318Y-102139244D01*
X101552114Y-102141536D01*
X101551838Y-102143757D01*
X101551490Y-102145906D01*
X101551069Y-102147982D01*
X101550577Y-102149987D01*
X101550013Y-102151919D01*
X101549377Y-102153780D01*
X101548669Y-102155568D01*
X101547888Y-102157284D01*
X101547036Y-102158928D01*
X101546112Y-102160501D01*
X101545115Y-102162001D01*
X101544047Y-102163429D01*
X101542906Y-102164785D01*
X101541694Y-102166069D01*
X101540425Y-102167183D01*
X101539114Y-102168226D01*
X101537760Y-102169196D01*
X101536365Y-102170095D01*
X101534928Y-102170922D01*
X101533449Y-102171677D01*
X101531927Y-102172360D01*
X101530364Y-102172971D01*
X101528759Y-102173510D01*
X101527111Y-102173977D01*
X101525422Y-102174372D01*
X101523690Y-102174696D01*
X101521916Y-102174947D01*
X101520101Y-102175127D01*
X101518243Y-102175235D01*
X101516343Y-102175271D01*
X101510843Y-102175399D01*
X101367950Y-102160032D01*
X101366244Y-102159625D01*
X101364587Y-102159169D01*
X101362978Y-102158666D01*
X101361417Y-102158114D01*
X101359904Y-102157514D01*
X101358439Y-102156866D01*
X101357023Y-102156170D01*
X101355654Y-102155426D01*
X101354334Y-102154634D01*
X101353062Y-102153794D01*
X101351838Y-102152906D01*
X101350662Y-102151969D01*
X101349534Y-102150985D01*
X101348454Y-102149952D01*
X101347422Y-102148872D01*
X101346439Y-102147743D01*
X101345504Y-102146489D01*
X101344630Y-102145223D01*
X101343816Y-102143945D01*
X101343062Y-102142655D01*
X101342368Y-102141353D01*
X101341735Y-102140038D01*
X101341163Y-102138712D01*
X101340650Y-102137373D01*
X101340198Y-102136023D01*
X101339806Y-102134660D01*
X101339475Y-102133286D01*
X101339204Y-102131899D01*
X101338993Y-102130500D01*
X101338842Y-102129089D01*
X101338752Y-102127666D01*
X101338721Y-102126231D01*
X101338752Y-102124805D01*
X101338842Y-102123409D01*
X101338993Y-102122044D01*
X101339204Y-102120708D01*
X101339475Y-102119402D01*
X101339806Y-102118127D01*
X101340198Y-102116881D01*
X101340650Y-102115666D01*
X101341163Y-102114481D01*
X101341735Y-102113325D01*
X101342368Y-102112200D01*
X101343062Y-102111105D01*
X101343816Y-102110040D01*
X101344630Y-102109005D01*
X101345504Y-102108000D01*
X101346439Y-102107025D01*
X101347433Y-102106090D01*
X101348487Y-102105216D01*
X101349600Y-102104402D01*
X101350772Y-102103648D01*
X101352004Y-102102955D01*
X101353296Y-102102322D01*
X101354647Y-102101749D01*
X101356058Y-102101236D01*
X101357528Y-102100784D01*
X101359057Y-102100392D01*
X101360646Y-102100061D01*
X101362294Y-102099789D01*
X101364002Y-102099578D01*
X101365770Y-102099428D01*
X101367597Y-102099337D01*
X101369483Y-102099307D01*
X101374135Y-102099307D01*
X101487834Y-102107717D01*
X101487834Y-101710611D01*
X101561546Y-101710611D01*
X101561546Y-102011763D01*
X101571486Y-102025253D01*
X101581906Y-102037872D01*
X101592806Y-102049621D01*
X101604186Y-102060499D01*
X101616046Y-102070507D01*
X101628386Y-102079645D01*
X101641206Y-102087913D01*
X101647796Y-102091720D01*
X101654506Y-102095310D01*
X101661337Y-102098683D01*
X101668287Y-102101837D01*
X101682547Y-102107494D01*
X101697288Y-102112281D01*
X101712508Y-102116197D01*
X101728209Y-102119243D01*
X101744390Y-102121419D01*
X101761051Y-102122724D01*
X101778192Y-102123159D01*
X101786757Y-102123024D01*
X101795166Y-102122619D01*
X101803419Y-102121944D01*
X101811516Y-102120999D01*
X101819456Y-102119783D01*
X101827241Y-102118298D01*
X101834869Y-102116542D01*
X101842342Y-102114516D01*
X101849658Y-102112220D01*
X101856818Y-102109654D01*
X101863822Y-102106818D01*
X101870670Y-102103712D01*
X101877362Y-102100336D01*
X101883898Y-102096689D01*
X101890277Y-102092772D01*
X101896501Y-102088586D01*
X101902554Y-102084171D01*
X101908421Y-102079571D01*
X101914102Y-102074784D01*
X101919597Y-102069812D01*
X101924905Y-102064653D01*
X101930028Y-102059308D01*
X101934965Y-102053778D01*
X101939715Y-102048061D01*
X101944279Y-102042159D01*
X101948658Y-102036070D01*
X101952850Y-102029796D01*
X101956856Y-102023335D01*
X101960676Y-102016689D01*
X101964310Y-102009856D01*
X101967757Y-102002838D01*
X101971019Y-101995633D01*
X101974089Y-101988289D01*
X101976961Y-101980855D01*
X101979634Y-101973332D01*
X101982110Y-101965718D01*
X101984388Y-101958014D01*
X101986467Y-101950221D01*
X101988349Y-101942337D01*
X101990032Y-101934364D01*
X101991518Y-101926300D01*
X101992805Y-101918146D01*
X101993894Y-101909903D01*
X101994785Y-101901570D01*
X101995478Y-101893146D01*
X101995973Y-101884633D01*
X101996271Y-101876029D01*
X101996370Y-101867336D01*
X101996271Y-101858643D01*
X101995973Y-101850039D01*
X101995478Y-101841526D01*
X101994785Y-101833102D01*
X101993894Y-101824769D01*
X101992805Y-101816525D01*
X101991518Y-101808372D01*
X101990032Y-101800308D01*
X101988349Y-101792335D01*
X101986467Y-101784451D01*
X101984388Y-101776657D01*
X101982110Y-101768954D01*
X101979634Y-101761340D01*
X101976961Y-101753817D01*
X101974089Y-101746383D01*
X101971019Y-101739039D01*
X101967754Y-101731834D01*
X101964298Y-101724814D01*
X101960649Y-101717981D01*
X101956808Y-101711334D01*
X101952774Y-101704873D01*
X101948549Y-101698598D01*
X101944132Y-101692509D01*
X101939522Y-101686607D01*
X101934720Y-101680890D01*
X101929726Y-101675360D01*
X101924540Y-101670016D01*
X101919162Y-101664858D01*
X101913592Y-101659886D01*
X101907830Y-101655100D01*
X101901875Y-101650500D01*
X101895728Y-101646087D01*
X101889405Y-101641900D01*
X101882920Y-101637984D01*
X101876272Y-101634337D01*
X101869463Y-101630961D01*
X101862492Y-101627855D01*
X101855358Y-101625019D01*
X101848063Y-101622453D01*
X101840606Y-101620157D01*
X101832987Y-101618131D01*
X101825205Y-101616376D01*
X101817262Y-101614890D01*
X101809157Y-101613675D01*
X101800889Y-101612729D01*
X101792460Y-101612054D01*
X101783869Y-101611649D01*
X101775115Y-101611514D01*
X101775119Y-101611507D01*
X101758530Y-101611894D01*
X101742373Y-101613056D01*
X101726648Y-101614991D01*
X101711355Y-101617701D01*
X101696494Y-101621185D01*
X101682065Y-101625444D01*
X101668069Y-101630476D01*
X101654504Y-101636283D01*
X101641372Y-101642864D01*
X101628672Y-101650220D01*
X101616404Y-101658349D01*
X101604568Y-101667253D01*
X101593164Y-101676931D01*
X101582192Y-101687384D01*
X101571653Y-101698610D01*
X101561546Y-101710611D01*
X101487834Y-101710611D01*
X101487834Y-101296450D01*
X101487865Y-101294606D01*
X101487957Y-101292821D01*
X101488111Y-101291095D01*
X101488326Y-101289427D01*
X101488603Y-101287818D01*
X101488941Y-101286267D01*
X101489341Y-101284775D01*
X101489803Y-101283341D01*
X101490325Y-101281966D01*
X101490910Y-101280649D01*
X101491556Y-101279391D01*
X101492263Y-101278192D01*
X101493032Y-101277050D01*
X101493862Y-101275968D01*
X101494754Y-101274944D01*
X101495708Y-101273978D01*
X101496723Y-101273071D01*
X101497799Y-101272223D01*
X101498937Y-101271433D01*
X101500137Y-101270701D01*
X101501398Y-101270028D01*
X101502720Y-101269414D01*
X101504104Y-101268858D01*
X101505550Y-101268361D01*
X101507057Y-101267922D01*
X101508625Y-101267541D01*
X101510255Y-101267219D01*
X101511947Y-101266956D01*
X101513700Y-101266751D01*
X101515515Y-101266605D01*
X101517391Y-101266517D01*
X101519328Y-101266488D01*
X101520239Y-101266513D01*
X101521439Y-101266587D01*
X101522927Y-101266711D01*
X101524704Y-101266884D01*
X101526769Y-101267106D01*
X101529123Y-101267378D01*
X101534696Y-101268071D01*
X101679893Y-101282666D01*
X101681498Y-101282978D01*
X101683050Y-101283344D01*
X101684547Y-101283765D01*
X101685991Y-101284240D01*
X101687380Y-101284770D01*
X101688716Y-101285354D01*
X101689997Y-101285993D01*
X101691225Y-101286686D01*
X101692398Y-101287434D01*
X101693517Y-101288236D01*
X101694583Y-101289092D01*
X101695594Y-101290004D01*
X101696551Y-101290969D01*
X101697454Y-101291989D01*
X101698303Y-101293064D01*
X101699098Y-101294193D01*
X101699841Y-101295350D01*
X101700536Y-101296518D01*
X101701183Y-101297699D01*
X101701782Y-101298893D01*
X101702333Y-101300098D01*
X101702836Y-101301316D01*
X101703292Y-101302547D01*
X101703699Y-101303789D01*
X101704059Y-101305044D01*
X101704371Y-101306311D01*
X101704634Y-101307590D01*
X101704850Y-101308882D01*
X101705018Y-101310186D01*
X101705138Y-101311502D01*
X101705210Y-101312831D01*
X101705234Y-101314172D01*
X101705201Y-101315693D01*
X101705102Y-101317184D01*
X101704938Y-101318645D01*
X101704708Y-101320077D01*
X101704412Y-101321478D01*
X101704051Y-101322849D01*
X101703624Y-101324190D01*
X101703131Y-101325501D01*
X101702573Y-101326783D01*
X101701949Y-101328034D01*
X101701259Y-101329255D01*
X101700503Y-101330446D01*
X101699682Y-101331608D01*
X101698795Y-101332739D01*
X101697843Y-101333840D01*
X101696824Y-101334911D01*
X101695755Y-101335930D01*
X101694648Y-101336883D01*
X101693505Y-101337770D01*
X101692326Y-101338591D01*
X101691109Y-101339347D01*
X101689856Y-101340037D01*
X101688567Y-101340661D01*
X101687241Y-101341219D01*
X101685878Y-101341712D01*
X101684478Y-101342139D01*
X101683042Y-101342501D01*
X101681569Y-101342796D01*
X101680060Y-101343026D01*
X101678514Y-101343190D01*
X101676931Y-101343289D01*
X101675311Y-101343322D01*
X101674163Y-101343310D01*
X101673042Y-101343274D01*
X101671949Y-101343214D01*
X101670884Y-101343129D01*
X101669847Y-101343021D01*
X101668837Y-101342889D01*
X101667856Y-101342733D01*
X101666902Y-101342553D01*
X101665021Y-101342166D01*
X101663240Y-101341773D01*
X101661558Y-101341374D01*
X101659976Y-101340970D01*
X101561639Y-101334835D01*
X101561639Y-101629841D01*
X101567421Y-101624922D01*
X101573246Y-101620154D01*
X101579112Y-101615536D01*
X101585021Y-101611068D01*
X101590971Y-101606750D01*
X101596964Y-101602582D01*
X101602999Y-101598564D01*
X101609075Y-101594696D01*
X101615194Y-101590978D01*
X101621355Y-101587411D01*
X101627558Y-101583993D01*
X101633803Y-101580725D01*
X101640090Y-101577608D01*
X101646419Y-101574640D01*
X101652790Y-101571822D01*
X101659204Y-101569155D01*
X101665617Y-101566643D01*
X101672180Y-101564294D01*
X101678893Y-101562106D01*
X101685756Y-101560081D01*
X101692769Y-101558218D01*
X101699932Y-101556516D01*
X101707246Y-101554977D01*
X101714709Y-101553600D01*
X101722322Y-101552385D01*
X101730086Y-101551332D01*
X101738000Y-101550440D01*
X101746063Y-101549711D01*
X101754277Y-101549144D01*
X101762641Y-101548739D01*
X101771155Y-101548496D01*
X101779819Y-101548415D01*
X101790776Y-101548577D01*
X101801558Y-101549063D01*
X101812167Y-101549873D01*
X101822601Y-101551008D01*
X101832862Y-101552466D01*
X101842948Y-101554248D01*
X101852860Y-101556355D01*
X101862598Y-101558785D01*
X101872162Y-101561540D01*
X101881552Y-101564618D01*
X101890767Y-101568021D01*
X101899809Y-101571748D01*
X101908676Y-101575798D01*
X101917370Y-101580173D01*
X101925889Y-101584872D01*
X101934234Y-101589895D01*
X101942279Y-101595111D01*
X101950090Y-101600579D01*
X101957667Y-101606298D01*
X101965010Y-101612270D01*
X101972119Y-101618494D01*
X101978994Y-101624970D01*
X101985635Y-101631699D01*
X101992043Y-101638679D01*
X101998216Y-101645911D01*
X102004155Y-101653396D01*
X102009860Y-101661132D01*
X102015331Y-101669121D01*
X102020568Y-101677362D01*
X102025571Y-101685854D01*
X102030340Y-101694599D01*
X102034875Y-101703596D01*
X102039154Y-101712698D01*
X102043156Y-101721950D01*
X102046883Y-101731351D01*
X102050334Y-101740903D01*
X102053508Y-101750605D01*
X102056407Y-101760457D01*
X102059029Y-101770460D01*
X102061375Y-101780612D01*
X102063446Y-101790914D01*
X102065240Y-101801366D01*
X102066758Y-101811969D01*
X102068000Y-101822721D01*
X102068967Y-101833624D01*
X102069657Y-101844676D01*
X102070071Y-101855879D01*
X102070209Y-101867231D01*
X102070207Y-101867336D01*
X102070071Y-101878770D01*
G37*
G36*
X102458589Y-101556792D02*
G01*
X102459009Y-101556810D01*
X102459452Y-101556841D01*
X102459919Y-101556884D01*
X102460926Y-101557008D01*
X102462028Y-101557181D01*
X102463226Y-101557404D01*
X102464521Y-101557676D01*
X102465911Y-101557998D01*
X102467397Y-101558370D01*
X102601072Y-101585254D01*
X102602869Y-101585658D01*
X102604612Y-101586105D01*
X102606301Y-101586593D01*
X102607936Y-101587124D01*
X102609517Y-101587697D01*
X102611044Y-101588313D01*
X102612518Y-101588970D01*
X102613937Y-101589669D01*
X102615302Y-101590411D01*
X102616613Y-101591195D01*
X102617870Y-101592021D01*
X102619073Y-101592889D01*
X102620222Y-101593799D01*
X102621317Y-101594751D01*
X102622358Y-101595745D01*
X102623346Y-101596782D01*
X102624184Y-101597758D01*
X102624969Y-101598758D01*
X102625699Y-101599782D01*
X102626376Y-101600828D01*
X102626998Y-101601898D01*
X102627566Y-101602992D01*
X102628080Y-101604109D01*
X102628540Y-101605249D01*
X102628946Y-101606413D01*
X102629297Y-101607600D01*
X102629595Y-101608811D01*
X102629838Y-101610045D01*
X102630028Y-101611303D01*
X102630163Y-101612584D01*
X102630244Y-101613888D01*
X102630271Y-101615216D01*
X102630232Y-101616837D01*
X102630115Y-101618433D01*
X102629920Y-101620006D01*
X102629647Y-101621554D01*
X102629297Y-101623079D01*
X102628868Y-101624579D01*
X102628361Y-101626055D01*
X102627776Y-101627508D01*
X102627113Y-101628936D01*
X102626372Y-101630340D01*
X102625553Y-101631720D01*
X102624656Y-101633077D01*
X102623681Y-101634409D01*
X102622628Y-101635717D01*
X102621497Y-101637001D01*
X102620288Y-101638261D01*
X102619016Y-101639470D01*
X102617696Y-101640601D01*
X102616327Y-101641654D01*
X102614911Y-101642629D01*
X102613447Y-101643526D01*
X102611934Y-101644345D01*
X102610374Y-101645086D01*
X102608765Y-101645749D01*
X102607108Y-101646334D01*
X102605404Y-101646841D01*
X102603651Y-101647270D01*
X102601850Y-101647621D01*
X102600001Y-101647894D01*
X102598104Y-101648089D01*
X102596158Y-101648206D01*
X102594165Y-101648245D01*
X102592434Y-101648209D01*
X102590704Y-101648103D01*
X102588974Y-101647925D01*
X102587246Y-101647676D01*
X102585519Y-101647356D01*
X102583792Y-101646965D01*
X102582067Y-101646502D01*
X102580342Y-101645968D01*
X102505824Y-101630602D01*
X102505824Y-101995518D01*
X102508021Y-101999911D01*
X102510385Y-102004256D01*
X102512918Y-102008553D01*
X102515619Y-102012802D01*
X102518487Y-102017003D01*
X102521524Y-102021156D01*
X102524729Y-102025262D01*
X102528102Y-102029319D01*
X102531643Y-102033329D01*
X102535352Y-102037290D01*
X102539230Y-102041204D01*
X102543275Y-102045069D01*
X102547488Y-102048887D01*
X102551870Y-102052657D01*
X102556420Y-102056379D01*
X102561137Y-102060053D01*
X102565881Y-102063653D01*
X102570703Y-102067158D01*
X102575604Y-102070567D01*
X102580582Y-102073880D01*
X102585638Y-102077096D01*
X102590773Y-102080217D01*
X102595985Y-102083242D01*
X102601276Y-102086170D01*
X102606645Y-102089003D01*
X102612091Y-102091740D01*
X102617616Y-102094380D01*
X102623219Y-102096925D01*
X102628900Y-102099374D01*
X102634659Y-102101727D01*
X102640496Y-102103983D01*
X102646411Y-102106144D01*
X102658284Y-102110105D01*
X102670085Y-102113538D01*
X102681813Y-102116443D01*
X102687651Y-102117697D01*
X102693470Y-102118819D01*
X102699271Y-102119810D01*
X102705054Y-102120668D01*
X102710819Y-102121394D01*
X102716566Y-102121988D01*
X102722296Y-102122451D01*
X102728007Y-102122781D01*
X102733700Y-102122979D01*
X102739375Y-102123045D01*
X102748549Y-102122886D01*
X102757441Y-102122409D01*
X102766050Y-102121613D01*
X102774378Y-102120500D01*
X102782424Y-102119069D01*
X102790187Y-102117319D01*
X102797669Y-102115251D01*
X102804868Y-102112865D01*
X102811785Y-102110161D01*
X102818420Y-102107139D01*
X102824774Y-102103799D01*
X102830845Y-102100141D01*
X102836633Y-102096165D01*
X102842140Y-102091870D01*
X102847365Y-102087258D01*
X102852308Y-102082327D01*
X102856866Y-102077042D01*
X102861130Y-102071559D01*
X102865100Y-102065877D01*
X102868776Y-102059998D01*
X102872158Y-102053921D01*
X102875246Y-102047646D01*
X102878039Y-102041173D01*
X102880539Y-102034501D01*
X102882744Y-102027632D01*
X102884656Y-102020565D01*
X102886273Y-102013300D01*
X102887597Y-102005837D01*
X102888626Y-101998175D01*
X102889361Y-101990316D01*
X102889802Y-101982259D01*
X102889949Y-101974004D01*
X102889842Y-101583081D01*
X102889872Y-101581749D01*
X102889963Y-101580440D01*
X102890114Y-101579156D01*
X102890325Y-101577896D01*
X102890596Y-101576659D01*
X102890928Y-101575447D01*
X102891320Y-101574259D01*
X102891772Y-101573095D01*
X102892284Y-101571955D01*
X102892857Y-101570839D01*
X102893490Y-101569747D01*
X102894183Y-101568679D01*
X102894937Y-101567635D01*
X102895751Y-101566615D01*
X102896625Y-101565619D01*
X102897559Y-101564648D01*
X102898443Y-101563713D01*
X102899363Y-101562838D01*
X102900319Y-101562024D01*
X102901310Y-101561271D01*
X102902337Y-101560577D01*
X102903400Y-101559944D01*
X102904498Y-101559371D01*
X102905632Y-101558859D01*
X102906802Y-101558407D01*
X102908008Y-101558015D01*
X102909249Y-101557683D01*
X102910527Y-101557412D01*
X102911840Y-101557201D01*
X102913189Y-101557050D01*
X102914573Y-101556960D01*
X102915994Y-101556930D01*
X102916389Y-101556936D01*
X102916809Y-101556954D01*
X102917252Y-101556985D01*
X102917719Y-101557028D01*
X102918726Y-101557152D01*
X102919828Y-101557325D01*
X102921026Y-101557548D01*
X102922320Y-101557820D01*
X102923711Y-101558141D01*
X102925197Y-101558513D01*
X103059638Y-101585398D01*
X103061339Y-101585799D01*
X103062986Y-101586237D01*
X103064580Y-101586710D01*
X103066119Y-101587220D01*
X103067604Y-101587766D01*
X103069035Y-101588348D01*
X103070413Y-101588966D01*
X103071736Y-101589620D01*
X103073005Y-101590311D01*
X103074220Y-101591037D01*
X103075382Y-101591799D01*
X103076489Y-101592598D01*
X103077543Y-101593433D01*
X103078542Y-101594303D01*
X103079487Y-101595210D01*
X103080379Y-101596153D01*
X103081217Y-101597130D01*
X103082002Y-101598130D01*
X103082733Y-101599153D01*
X103083409Y-101600200D01*
X103084031Y-101601270D01*
X103084599Y-101602364D01*
X103085113Y-101603480D01*
X103085573Y-101604621D01*
X103085979Y-101605785D01*
X103086331Y-101606972D01*
X103086628Y-101608183D01*
X103086872Y-101609417D01*
X103087061Y-101610674D01*
X103087196Y-101611955D01*
X103087277Y-101613260D01*
X103087304Y-101614588D01*
X103087265Y-101616208D01*
X103087148Y-101617805D01*
X103086953Y-101619377D01*
X103086681Y-101620926D01*
X103086330Y-101622450D01*
X103085901Y-101623951D01*
X103085394Y-101625427D01*
X103084809Y-101626879D01*
X103084146Y-101628308D01*
X103083405Y-101629712D01*
X103082586Y-101631092D01*
X103081689Y-101632448D01*
X103080714Y-101633780D01*
X103079661Y-101635088D01*
X103078530Y-101636372D01*
X103077321Y-101637632D01*
X103076052Y-101638841D01*
X103074741Y-101639972D01*
X103073388Y-101641025D01*
X103071993Y-101642000D01*
X103070555Y-101642897D01*
X103069076Y-101643716D01*
X103067555Y-101644457D01*
X103065991Y-101645120D01*
X103064386Y-101645705D01*
X103062739Y-101646212D01*
X103061049Y-101646641D01*
X103059317Y-101646992D01*
X103057544Y-101647265D01*
X103055728Y-101647460D01*
X103053870Y-101647577D01*
X103051971Y-101647616D01*
X103049927Y-101647592D01*
X103048000Y-101647517D01*
X103046191Y-101647394D01*
X103044500Y-101647221D01*
X103042926Y-101646998D01*
X103041470Y-101646726D01*
X103040131Y-101646404D01*
X103039505Y-101646225D01*
X103038909Y-101646033D01*
X102963618Y-101630667D01*
X102963618Y-101971767D01*
X102963516Y-101979678D01*
X102963210Y-101987468D01*
X102962700Y-101995138D01*
X102961986Y-102002689D01*
X102961067Y-102010119D01*
X102959945Y-102017429D01*
X102958618Y-102024620D01*
X102957087Y-102031690D01*
X102955352Y-102038640D01*
X102953414Y-102045470D01*
X102951271Y-102052180D01*
X102948924Y-102058770D01*
X102946373Y-102065240D01*
X102943618Y-102071591D01*
X102940659Y-102077821D01*
X102937495Y-102083931D01*
X102934042Y-102089897D01*
X102930402Y-102095694D01*
X102926576Y-102101324D01*
X102922564Y-102106785D01*
X102918365Y-102112079D01*
X102913981Y-102117205D01*
X102909410Y-102122162D01*
X102904654Y-102126952D01*
X102899711Y-102131574D01*
X102894582Y-102136027D01*
X102889267Y-102140313D01*
X102883765Y-102144431D01*
X102878078Y-102148380D01*
X102872204Y-102152162D01*
X102866145Y-102155776D01*
X102859899Y-102159222D01*
X102853489Y-102162477D01*
X102846935Y-102165523D01*
X102840237Y-102168358D01*
X102833395Y-102170984D01*
X102826409Y-102173399D01*
X102819279Y-102175605D01*
X102812004Y-102177600D01*
X102804586Y-102179385D01*
X102797024Y-102180961D01*
X102789317Y-102182326D01*
X102781467Y-102183481D01*
X102773472Y-102184426D01*
X102765333Y-102185161D01*
X102757050Y-102185687D01*
X102748624Y-102186002D01*
X102740052Y-102186107D01*
X102731047Y-102185978D01*
X102722083Y-102185590D01*
X102713161Y-102184945D01*
X102704281Y-102184042D01*
X102695443Y-102182880D01*
X102686647Y-102181460D01*
X102677894Y-102179782D01*
X102669182Y-102177846D01*
X102660512Y-102175652D01*
X102651885Y-102173200D01*
X102643299Y-102170490D01*
X102634755Y-102167522D01*
X102626254Y-102164295D01*
X102617794Y-102160811D01*
X102609377Y-102157068D01*
X102601001Y-102153068D01*
X102592775Y-102148872D01*
X102584807Y-102144544D01*
X102577097Y-102140084D01*
X102569645Y-102135492D01*
X102562452Y-102130769D01*
X102555516Y-102125913D01*
X102548839Y-102120925D01*
X102542420Y-102115806D01*
X102536259Y-102110554D01*
X102530356Y-102105170D01*
X102524711Y-102099655D01*
X102519325Y-102094007D01*
X102514196Y-102088228D01*
X102509326Y-102082317D01*
X102504714Y-102076273D01*
X102500360Y-102070098D01*
X102496501Y-102136938D01*
X102496369Y-102139303D01*
X102496165Y-102141596D01*
X102495889Y-102143816D01*
X102495541Y-102145965D01*
X102495121Y-102148042D01*
X102494629Y-102150046D01*
X102494065Y-102151979D01*
X102493429Y-102153839D01*
X102492720Y-102155627D01*
X102491940Y-102157344D01*
X102491088Y-102158988D01*
X102490163Y-102160560D01*
X102489167Y-102162060D01*
X102488099Y-102163488D01*
X102486958Y-102164844D01*
X102485746Y-102166128D01*
X102484476Y-102167242D01*
X102483165Y-102168285D01*
X102481812Y-102169256D01*
X102480417Y-102170154D01*
X102478980Y-102170981D01*
X102477500Y-102171736D01*
X102475979Y-102172419D01*
X102474416Y-102173030D01*
X102472810Y-102173569D01*
X102471163Y-102174037D01*
X102469473Y-102174432D01*
X102467742Y-102174756D01*
X102465968Y-102175007D01*
X102464153Y-102175187D01*
X102462295Y-102175295D01*
X102460395Y-102175331D01*
X102455051Y-102175331D01*
X102312160Y-102159964D01*
X102310454Y-102159557D01*
X102308797Y-102159102D01*
X102307188Y-102158598D01*
X102305627Y-102158046D01*
X102304114Y-102157446D01*
X102302649Y-102156799D01*
X102301233Y-102156103D01*
X102299864Y-102155358D01*
X102298544Y-102154566D01*
X102297271Y-102153726D01*
X102296047Y-102152838D01*
X102294871Y-102151901D01*
X102293743Y-102150917D01*
X102292663Y-102149885D01*
X102291631Y-102148804D01*
X102290647Y-102147675D01*
X102289712Y-102146421D01*
X102288838Y-102145155D01*
X102288024Y-102143877D01*
X102287271Y-102142587D01*
X102286577Y-102141285D01*
X102285944Y-102139971D01*
X102285372Y-102138644D01*
X102284859Y-102137306D01*
X102284407Y-102135955D01*
X102284015Y-102134593D01*
X102283683Y-102133218D01*
X102283412Y-102131831D01*
X102283201Y-102130432D01*
X102283050Y-102129021D01*
X102282960Y-102127598D01*
X102282930Y-102126163D01*
X102282960Y-102124738D01*
X102283050Y-102123342D01*
X102283201Y-102121976D01*
X102283412Y-102120640D01*
X102283683Y-102119335D01*
X102284015Y-102118059D01*
X102284407Y-102116814D01*
X102284859Y-102115598D01*
X102285372Y-102114413D01*
X102285944Y-102113258D01*
X102286577Y-102112133D01*
X102287271Y-102111037D01*
X102288024Y-102109972D01*
X102288838Y-102108937D01*
X102289712Y-102107932D01*
X102290647Y-102106957D01*
X102291641Y-102106023D01*
X102292695Y-102105148D01*
X102293809Y-102104334D01*
X102294982Y-102103580D01*
X102296214Y-102102887D01*
X102297506Y-102102254D01*
X102298857Y-102101681D01*
X102300267Y-102101169D01*
X102301737Y-102100716D01*
X102303267Y-102100324D01*
X102304856Y-102099993D01*
X102306505Y-102099722D01*
X102308212Y-102099511D01*
X102309980Y-102099360D01*
X102311807Y-102099269D01*
X102313693Y-102099239D01*
X102318343Y-102099239D01*
X102432042Y-102107650D01*
X102432042Y-101582938D01*
X102432072Y-101581606D01*
X102432163Y-101580297D01*
X102432314Y-101579013D01*
X102432525Y-101577752D01*
X102432796Y-101576516D01*
X102433128Y-101575304D01*
X102433520Y-101574116D01*
X102433972Y-101572952D01*
X102434485Y-101571811D01*
X102435058Y-101570695D01*
X102435691Y-101569603D01*
X102436384Y-101568535D01*
X102437138Y-101567491D01*
X102437952Y-101566471D01*
X102438827Y-101565475D01*
X102439761Y-101564504D01*
X102440645Y-101563569D01*
X102441565Y-101562695D01*
X102442520Y-101561881D01*
X102443511Y-101561127D01*
X102444538Y-101560434D01*
X102445600Y-101559801D01*
X102446698Y-101559228D01*
X102447833Y-101558715D01*
X102449002Y-101558263D01*
X102450208Y-101557871D01*
X102451450Y-101557539D01*
X102452727Y-101557268D01*
X102454040Y-101557057D01*
X102455389Y-101556906D01*
X102456774Y-101556816D01*
X102458194Y-101556786D01*
X102458589Y-101556792D01*
G37*
G36*
X103929280Y-102011782D02*
G01*
X103929091Y-102021550D01*
X103928524Y-102031072D01*
X103927579Y-102040348D01*
X103926256Y-102049378D01*
X103924554Y-102058162D01*
X103922475Y-102066700D01*
X103920017Y-102074992D01*
X103917181Y-102083037D01*
X103913968Y-102090837D01*
X103910376Y-102098390D01*
X103906406Y-102105697D01*
X103902058Y-102112759D01*
X103897331Y-102119574D01*
X103892227Y-102126143D01*
X103886745Y-102132465D01*
X103880884Y-102138542D01*
X103874688Y-102144217D01*
X103868197Y-102149525D01*
X103861412Y-102154468D01*
X103854333Y-102159045D01*
X103846960Y-102163255D01*
X103839293Y-102167099D01*
X103831332Y-102170577D01*
X103823076Y-102173689D01*
X103814527Y-102176435D01*
X103805683Y-102178815D01*
X103796545Y-102180829D01*
X103787113Y-102182477D01*
X103777386Y-102183758D01*
X103767366Y-102184673D01*
X103757051Y-102185223D01*
X103746442Y-102185406D01*
X103736502Y-102185295D01*
X103726659Y-102184961D01*
X103716911Y-102184406D01*
X103707260Y-102183629D01*
X103697704Y-102182629D01*
X103688245Y-102181408D01*
X103678882Y-102179964D01*
X103669615Y-102178298D01*
X103660444Y-102176410D01*
X103651369Y-102174300D01*
X103642391Y-102171968D01*
X103633508Y-102169414D01*
X103624722Y-102166638D01*
X103616031Y-102163640D01*
X103607437Y-102160419D01*
X103598939Y-102156977D01*
X103590512Y-102153369D01*
X103582325Y-102149653D01*
X103574379Y-102145830D01*
X103566672Y-102141898D01*
X103559206Y-102137859D01*
X103551979Y-102133711D01*
X103544993Y-102129456D01*
X103538247Y-102125092D01*
X103531741Y-102120621D01*
X103525475Y-102116041D01*
X103519449Y-102111354D01*
X103513663Y-102106558D01*
X103508117Y-102101655D01*
X103502812Y-102096644D01*
X103497746Y-102091524D01*
X103492921Y-102086297D01*
X103491701Y-102092977D01*
X103490344Y-102099380D01*
X103488847Y-102105508D01*
X103487213Y-102111359D01*
X103485440Y-102116934D01*
X103483529Y-102122234D01*
X103481480Y-102127257D01*
X103479293Y-102132004D01*
X103476967Y-102136475D01*
X103474503Y-102140670D01*
X103471900Y-102144589D01*
X103469160Y-102148232D01*
X103466281Y-102151599D01*
X103463264Y-102154690D01*
X103460109Y-102157505D01*
X103456815Y-102160044D01*
X103453406Y-102162276D01*
X103449901Y-102164364D01*
X103446301Y-102166308D01*
X103442604Y-102168108D01*
X103438811Y-102169765D01*
X103434921Y-102171277D01*
X103430936Y-102172645D01*
X103426855Y-102173869D01*
X103422677Y-102174949D01*
X103418404Y-102175886D01*
X103414034Y-102176678D01*
X103409569Y-102177326D01*
X103405007Y-102177830D01*
X103400350Y-102178190D01*
X103395596Y-102178406D01*
X103390746Y-102178478D01*
X103386436Y-102178421D01*
X103382151Y-102178250D01*
X103377889Y-102177965D01*
X103373651Y-102177566D01*
X103369437Y-102177053D01*
X103365248Y-102176426D01*
X103361082Y-102175685D01*
X103356941Y-102174830D01*
X103352823Y-102173860D01*
X103348730Y-102172777D01*
X103344661Y-102171580D01*
X103340616Y-102170269D01*
X103336594Y-102168843D01*
X103332597Y-102167304D01*
X103328625Y-102165651D01*
X103324676Y-102163883D01*
X103320672Y-102161920D01*
X103316729Y-102159874D01*
X103312846Y-102157743D01*
X103309023Y-102155528D01*
X103305260Y-102153230D01*
X103301557Y-102150847D01*
X103297914Y-102148381D01*
X103294331Y-102145830D01*
X103290808Y-102143196D01*
X103287345Y-102140477D01*
X103283943Y-102137675D01*
X103280600Y-102134789D01*
X103277318Y-102131818D01*
X103274095Y-102128764D01*
X103270933Y-102125626D01*
X103267831Y-102122404D01*
X103266896Y-102121424D01*
X103266022Y-102120415D01*
X103265208Y-102119377D01*
X103264454Y-102118309D01*
X103263761Y-102117212D01*
X103263128Y-102116085D01*
X103262555Y-102114929D01*
X103262043Y-102113743D01*
X103261591Y-102112528D01*
X103261199Y-102111283D01*
X103260867Y-102110009D01*
X103260596Y-102108706D01*
X103260385Y-102107373D01*
X103260234Y-102106011D01*
X103260144Y-102104619D01*
X103260114Y-102103198D01*
X103260147Y-102101671D01*
X103260245Y-102100161D01*
X103260409Y-102098670D01*
X103260639Y-102097197D01*
X103260935Y-102095741D01*
X103261296Y-102094304D01*
X103261723Y-102092884D01*
X103262216Y-102091483D01*
X103262774Y-102090099D01*
X103263398Y-102088733D01*
X103264088Y-102087385D01*
X103264844Y-102086055D01*
X103265665Y-102084743D01*
X103266552Y-102083449D01*
X103267505Y-102082173D01*
X103268523Y-102080914D01*
X103269587Y-102079705D01*
X103270676Y-102078575D01*
X103271789Y-102077522D01*
X103272926Y-102076547D01*
X103274088Y-102075650D01*
X103275275Y-102074831D01*
X103276487Y-102074090D01*
X103277723Y-102073427D01*
X103278984Y-102072842D01*
X103280270Y-102072334D01*
X103281580Y-102071905D01*
X103282915Y-102071554D01*
X103284274Y-102071281D01*
X103285659Y-102071086D01*
X103287067Y-102070969D01*
X103288501Y-102070930D01*
X103289743Y-102070966D01*
X103290973Y-102071074D01*
X103292191Y-102071254D01*
X103293397Y-102071506D01*
X103294591Y-102071829D01*
X103295773Y-102072225D01*
X103296943Y-102072692D01*
X103298101Y-102073231D01*
X103299247Y-102073842D01*
X103300381Y-102074525D01*
X103301503Y-102075280D01*
X103302613Y-102076107D01*
X103303711Y-102077005D01*
X103304797Y-102077976D01*
X103305871Y-102079018D01*
X103306934Y-102080132D01*
X103308602Y-102081856D01*
X103310343Y-102083567D01*
X103312156Y-102085266D01*
X103314041Y-102086953D01*
X103315997Y-102088628D01*
X103318026Y-102090291D01*
X103320126Y-102091941D01*
X103322299Y-102093580D01*
X103324543Y-102095207D01*
X103326859Y-102096821D01*
X103329247Y-102098424D01*
X103331708Y-102100014D01*
X103334240Y-102101593D01*
X103336844Y-102103159D01*
X103339519Y-102104713D01*
X103342267Y-102106255D01*
X103345043Y-102107651D01*
X103347800Y-102108957D01*
X103350540Y-102110173D01*
X103353261Y-102111299D01*
X103355965Y-102112334D01*
X103358650Y-102113280D01*
X103361318Y-102114135D01*
X103363967Y-102114901D01*
X103366599Y-102115576D01*
X103369213Y-102116162D01*
X103371809Y-102116657D01*
X103374386Y-102117062D01*
X103376946Y-102117377D01*
X103379488Y-102117602D01*
X103382013Y-102117737D01*
X103384519Y-102117783D01*
X103386793Y-102117747D01*
X103389007Y-102117639D01*
X103391162Y-102117459D01*
X103393256Y-102117207D01*
X103395290Y-102116884D01*
X103397265Y-102116489D01*
X103399179Y-102116021D01*
X103401034Y-102115482D01*
X103402828Y-102114871D01*
X103404562Y-102114188D01*
X103406237Y-102113433D01*
X103407851Y-102112607D01*
X103409406Y-102111708D01*
X103410900Y-102110737D01*
X103412335Y-102109695D01*
X103413709Y-102108581D01*
X103414371Y-102107940D01*
X103415011Y-102107267D01*
X103416230Y-102105820D01*
X103417364Y-102104242D01*
X103418414Y-102102532D01*
X103419380Y-102100689D01*
X103420263Y-102098715D01*
X103421061Y-102096608D01*
X103421775Y-102094369D01*
X103422406Y-102091998D01*
X103422952Y-102089495D01*
X103423414Y-102086860D01*
X103423792Y-102084092D01*
X103424086Y-102081193D01*
X103424296Y-102078161D01*
X103424422Y-102074998D01*
X103424464Y-102071702D01*
X103424464Y-101865025D01*
X103498290Y-101865025D01*
X103498294Y-102027896D01*
X103503573Y-102033300D01*
X103509038Y-102038566D01*
X103514689Y-102043694D01*
X103520526Y-102048685D01*
X103526549Y-102053537D01*
X103532759Y-102058251D01*
X103539154Y-102062827D01*
X103545735Y-102067266D01*
X103552502Y-102071566D01*
X103559456Y-102075728D01*
X103566595Y-102079752D01*
X103573920Y-102083639D01*
X103581431Y-102087387D01*
X103589128Y-102090997D01*
X103597012Y-102094470D01*
X103605081Y-102097804D01*
X103613162Y-102100874D01*
X103621274Y-102103746D01*
X103629416Y-102106420D01*
X103637588Y-102108895D01*
X103645789Y-102111173D01*
X103654021Y-102113253D01*
X103662283Y-102115134D01*
X103670575Y-102116818D01*
X103678896Y-102118303D01*
X103687248Y-102119590D01*
X103695630Y-102120680D01*
X103704041Y-102121571D01*
X103712483Y-102122264D01*
X103720954Y-102122759D01*
X103729455Y-102123056D01*
X103737987Y-102123156D01*
X103744532Y-102123053D01*
X103750914Y-102122747D01*
X103757135Y-102122237D01*
X103763194Y-102121523D01*
X103769090Y-102120604D01*
X103774825Y-102119482D01*
X103780398Y-102118155D01*
X103785809Y-102116625D01*
X103791057Y-102114890D01*
X103796144Y-102112951D01*
X103801068Y-102110808D01*
X103805831Y-102108461D01*
X103810431Y-102105910D01*
X103814870Y-102103155D01*
X103819146Y-102100196D01*
X103823261Y-102097032D01*
X103827074Y-102093549D01*
X103830642Y-102089819D01*
X103833964Y-102085843D01*
X103837040Y-102081621D01*
X103839870Y-102077153D01*
X103842453Y-102072439D01*
X103844791Y-102067479D01*
X103846882Y-102062272D01*
X103848728Y-102056819D01*
X103850327Y-102051120D01*
X103851681Y-102045175D01*
X103852788Y-102038984D01*
X103853649Y-102032547D01*
X103854264Y-102025864D01*
X103854634Y-102018934D01*
X103854757Y-102011759D01*
X103854613Y-102005138D01*
X103854180Y-101998722D01*
X103853460Y-101992510D01*
X103852452Y-101986502D01*
X103851155Y-101980698D01*
X103849571Y-101975098D01*
X103847698Y-101969702D01*
X103845537Y-101964510D01*
X103843088Y-101959523D01*
X103840351Y-101954739D01*
X103837326Y-101950159D01*
X103834013Y-101945784D01*
X103830411Y-101941612D01*
X103826522Y-101937645D01*
X103822344Y-101933882D01*
X103817878Y-101930323D01*
X103813169Y-101926931D01*
X103808262Y-101923672D01*
X103803158Y-101920545D01*
X103797855Y-101917550D01*
X103792354Y-101914687D01*
X103786655Y-101911957D01*
X103780758Y-101909358D01*
X103774663Y-101906891D01*
X103768370Y-101904556D01*
X103761879Y-101902354D01*
X103755190Y-101900283D01*
X103748303Y-101898345D01*
X103741218Y-101896538D01*
X103733935Y-101894864D01*
X103726453Y-101893321D01*
X103718774Y-101891910D01*
X103702042Y-101889017D01*
X103683341Y-101886099D01*
X103662671Y-101883157D01*
X103640032Y-101880192D01*
X103588847Y-101874190D01*
X103529786Y-101868093D01*
X103498290Y-101865025D01*
X103424464Y-101865025D01*
X103424464Y-101831994D01*
X103424777Y-101809067D01*
X103425713Y-101787148D01*
X103427274Y-101766237D01*
X103429459Y-101746335D01*
X103432268Y-101727441D01*
X103435702Y-101709555D01*
X103439760Y-101692678D01*
X103444442Y-101676808D01*
X103447059Y-101669144D01*
X103449917Y-101661707D01*
X103453014Y-101654499D01*
X103456351Y-101647519D01*
X103459928Y-101640767D01*
X103463746Y-101634243D01*
X103467803Y-101627947D01*
X103472100Y-101621879D01*
X103476638Y-101616039D01*
X103481415Y-101610428D01*
X103486432Y-101605044D01*
X103491690Y-101599889D01*
X103497187Y-101594962D01*
X103502925Y-101590263D01*
X103508903Y-101585792D01*
X103515121Y-101581550D01*
X103521513Y-101577550D01*
X103528206Y-101573809D01*
X103535199Y-101570325D01*
X103542491Y-101567100D01*
X103550084Y-101564132D01*
X103557977Y-101561423D01*
X103566169Y-101558972D01*
X103574662Y-101556778D01*
X103583455Y-101554843D01*
X103592548Y-101553166D01*
X103601940Y-101551747D01*
X103611633Y-101550585D01*
X103621626Y-101549682D01*
X103631919Y-101549037D01*
X103642512Y-101548650D01*
X103653405Y-101548521D01*
X103672719Y-101548845D01*
X103691480Y-101549817D01*
X103709690Y-101551437D01*
X103727347Y-101553706D01*
X103744453Y-101556622D01*
X103761007Y-101560187D01*
X103777009Y-101564400D01*
X103792459Y-101569261D01*
X103799941Y-101571916D01*
X103807212Y-101574698D01*
X103814274Y-101577605D01*
X103821125Y-101580639D01*
X103827767Y-101583799D01*
X103834198Y-101587085D01*
X103840419Y-101590497D01*
X103846430Y-101594035D01*
X103852231Y-101597700D01*
X103857822Y-101601490D01*
X103863203Y-101605406D01*
X103868374Y-101609449D01*
X103873334Y-101613617D01*
X103878085Y-101617912D01*
X103882625Y-101622333D01*
X103886955Y-101626880D01*
X103891049Y-101631525D01*
X103894878Y-101636243D01*
X103898443Y-101641033D01*
X103901744Y-101645894D01*
X103904781Y-101650828D01*
X103907554Y-101655833D01*
X103910063Y-101660911D01*
X103912307Y-101666060D01*
X103914288Y-101671282D01*
X103916004Y-101676576D01*
X103917457Y-101681941D01*
X103918645Y-101687379D01*
X103919569Y-101692888D01*
X103920229Y-101698470D01*
X103920625Y-101704123D01*
X103920757Y-101709848D01*
X103920712Y-101712885D01*
X103920577Y-101715849D01*
X103920352Y-101718742D01*
X103920037Y-101721563D01*
X103919632Y-101724311D01*
X103919136Y-101726988D01*
X103918551Y-101729592D01*
X103917876Y-101732125D01*
X103917110Y-101734586D01*
X103916255Y-101736974D01*
X103915309Y-101739291D01*
X103914273Y-101741536D01*
X103913147Y-101743709D01*
X103911931Y-101745809D01*
X103910625Y-101747838D01*
X103909229Y-101749795D01*
X103907654Y-101751656D01*
X103906001Y-101753396D01*
X103904270Y-101755017D01*
X103902460Y-101756518D01*
X103900573Y-101757898D01*
X103898607Y-101759159D01*
X103896563Y-101760299D01*
X103894441Y-101761320D01*
X103892241Y-101762220D01*
X103889963Y-101763001D01*
X103887607Y-101763661D01*
X103885173Y-101764201D01*
X103882661Y-101764621D01*
X103880071Y-101764921D01*
X103877402Y-101765101D01*
X103874656Y-101765161D01*
X103873038Y-101765132D01*
X103871451Y-101765044D01*
X103869893Y-101764898D01*
X103868366Y-101764693D01*
X103866868Y-101764430D01*
X103865401Y-101764108D01*
X103863963Y-101763728D01*
X103862555Y-101763289D01*
X103861178Y-101762791D01*
X103859830Y-101762235D01*
X103858513Y-101761621D01*
X103857225Y-101760948D01*
X103855968Y-101760216D01*
X103854740Y-101759426D01*
X103853543Y-101758578D01*
X103852375Y-101757671D01*
X103851238Y-101756705D01*
X103850131Y-101755681D01*
X103849053Y-101754598D01*
X103848006Y-101753457D01*
X103846988Y-101752258D01*
X103846001Y-101750999D01*
X103844116Y-101748307D01*
X103842352Y-101745381D01*
X103840707Y-101742221D01*
X103839183Y-101738827D01*
X103837778Y-101735199D01*
X103836464Y-101731340D01*
X103835210Y-101727252D01*
X103834015Y-101722937D01*
X103832880Y-101718393D01*
X103831806Y-101713622D01*
X103830791Y-101708622D01*
X103828942Y-101697939D01*
X103827332Y-101686344D01*
X103825963Y-101673836D01*
X103824834Y-101660417D01*
X103823944Y-101646085D01*
X103813777Y-101641644D01*
X103803634Y-101637539D01*
X103793515Y-101633770D01*
X103783420Y-101630337D01*
X103773349Y-101627240D01*
X103763302Y-101624478D01*
X103753279Y-101622052D01*
X103743280Y-101619963D01*
X103732980Y-101617991D01*
X103722441Y-101616283D01*
X103711662Y-101614837D01*
X103700643Y-101613655D01*
X103689384Y-101612735D01*
X103677885Y-101612078D01*
X103666146Y-101611684D01*
X103654166Y-101611552D01*
X103643612Y-101611738D01*
X103633459Y-101612296D01*
X103623709Y-101613227D01*
X103614361Y-101614529D01*
X103605415Y-101616204D01*
X103596871Y-101618251D01*
X103588730Y-101620669D01*
X103580990Y-101623460D01*
X103573653Y-101626624D01*
X103566718Y-101630159D01*
X103560185Y-101634066D01*
X103554054Y-101638346D01*
X103548326Y-101642997D01*
X103542999Y-101648021D01*
X103538075Y-101653417D01*
X103533553Y-101659185D01*
X103529273Y-101665305D01*
X103525269Y-101671754D01*
X103521541Y-101678534D01*
X103518090Y-101685643D01*
X103514914Y-101693083D01*
X103512014Y-101700852D01*
X103509391Y-101708952D01*
X103507044Y-101717382D01*
X103504972Y-101726141D01*
X103503177Y-101735231D01*
X103501658Y-101744651D01*
X103500416Y-101754401D01*
X103499449Y-101764481D01*
X103498759Y-101774891D01*
X103498344Y-101785631D01*
X103498206Y-101796701D01*
X103498294Y-101812018D01*
X103554380Y-101815877D01*
X103613822Y-101820376D01*
X103666927Y-101825461D01*
X103691103Y-101828223D01*
X103713694Y-101831132D01*
X103734701Y-101834187D01*
X103754123Y-101837389D01*
X103763251Y-101839130D01*
X103772199Y-101841086D01*
X103780968Y-101843259D01*
X103789556Y-101845648D01*
X103797965Y-101848253D01*
X103806193Y-101851074D01*
X103814241Y-101854111D01*
X103822110Y-101857364D01*
X103829798Y-101860833D01*
X103837307Y-101864518D01*
X103844635Y-101868420D01*
X103851784Y-101872537D01*
X103858753Y-101876871D01*
X103865541Y-101881420D01*
X103872150Y-101886186D01*
X103878578Y-101891168D01*
X103884718Y-101896410D01*
X103890462Y-101901959D01*
X103895809Y-101907814D01*
X103900760Y-101913975D01*
X103905316Y-101920442D01*
X103909475Y-101927215D01*
X103913238Y-101934295D01*
X103916605Y-101941680D01*
X103919576Y-101949371D01*
X103922150Y-101957369D01*
X103924329Y-101965672D01*
X103926112Y-101974282D01*
X103927498Y-101983198D01*
X103928488Y-101992420D01*
X103929082Y-102001948D01*
X103929280Y-102011759D01*
X103929280Y-102011782D01*
G37*
G36*
X104604240Y-102023374D02*
G01*
X104608436Y-102023644D01*
X104612547Y-102024094D01*
X104616575Y-102024724D01*
X104620518Y-102025534D01*
X104624377Y-102026525D01*
X104628153Y-102027695D01*
X104631844Y-102029045D01*
X104635451Y-102030576D01*
X104638975Y-102032286D01*
X104642414Y-102034177D01*
X104645769Y-102036247D01*
X104649040Y-102038498D01*
X104652228Y-102040928D01*
X104655331Y-102043539D01*
X104658350Y-102046329D01*
X104661141Y-102049258D01*
X104663751Y-102052283D01*
X104666182Y-102055404D01*
X104668432Y-102058621D01*
X104670503Y-102061934D01*
X104672393Y-102065343D01*
X104674104Y-102068848D01*
X104675634Y-102072449D01*
X104676984Y-102076147D01*
X104678154Y-102079940D01*
X104679144Y-102083830D01*
X104679955Y-102087815D01*
X104680585Y-102091897D01*
X104681035Y-102096075D01*
X104681305Y-102100349D01*
X104681395Y-102104719D01*
X104681305Y-102109088D01*
X104681035Y-102113361D01*
X104680585Y-102117538D01*
X104679955Y-102121619D01*
X104679144Y-102125604D01*
X104678154Y-102129494D01*
X104676984Y-102133287D01*
X104675634Y-102136984D01*
X104674104Y-102140586D01*
X104672393Y-102144091D01*
X104670503Y-102147501D01*
X104668432Y-102150814D01*
X104666182Y-102154032D01*
X104663751Y-102157153D01*
X104661141Y-102160179D01*
X104658350Y-102163109D01*
X104655421Y-102165807D01*
X104652397Y-102168331D01*
X104649276Y-102170682D01*
X104646059Y-102172858D01*
X104642746Y-102174860D01*
X104639336Y-102176688D01*
X104635831Y-102178342D01*
X104632230Y-102179821D01*
X104628532Y-102181127D01*
X104624739Y-102182259D01*
X104620849Y-102183216D01*
X104616864Y-102184000D01*
X104612782Y-102184609D01*
X104608604Y-102185044D01*
X104604330Y-102185305D01*
X104599961Y-102185392D01*
X104595684Y-102185302D01*
X104591497Y-102185032D01*
X104587401Y-102184582D01*
X104583394Y-102183952D01*
X104579478Y-102183142D01*
X104575651Y-102182152D01*
X104571915Y-102180981D01*
X104568269Y-102179631D01*
X104564713Y-102178101D01*
X104561247Y-102176390D01*
X104557871Y-102174500D01*
X104554585Y-102172429D01*
X104551389Y-102170179D01*
X104548283Y-102167748D01*
X104545267Y-102165137D01*
X104542341Y-102162347D01*
X104539457Y-102159421D01*
X104536759Y-102156405D01*
X104534247Y-102153299D01*
X104531922Y-102150104D01*
X104529782Y-102146818D01*
X104527828Y-102143442D01*
X104526060Y-102139976D01*
X104524479Y-102136419D01*
X104523083Y-102132773D01*
X104521874Y-102129037D01*
X104520850Y-102125211D01*
X104520013Y-102121294D01*
X104519362Y-102117288D01*
X104518897Y-102113192D01*
X104518617Y-102109005D01*
X104518524Y-102104729D01*
X104518524Y-102104720D01*
X104518617Y-102100443D01*
X104518897Y-102096257D01*
X104519362Y-102092160D01*
X104520013Y-102088154D01*
X104520850Y-102084237D01*
X104521874Y-102080411D01*
X104523083Y-102076675D01*
X104524479Y-102073028D01*
X104526060Y-102069472D01*
X104527828Y-102066006D01*
X104529782Y-102062630D01*
X104531922Y-102059344D01*
X104534247Y-102056148D01*
X104536759Y-102053042D01*
X104539457Y-102050027D01*
X104542341Y-102047101D01*
X104545267Y-102044217D01*
X104548283Y-102041519D01*
X104551389Y-102039007D01*
X104554585Y-102036681D01*
X104557871Y-102034541D01*
X104561247Y-102032588D01*
X104564713Y-102030820D01*
X104568269Y-102029238D01*
X104571915Y-102027843D01*
X104575651Y-102026633D01*
X104579478Y-102025610D01*
X104583394Y-102024772D01*
X104587401Y-102024121D01*
X104591497Y-102023656D01*
X104595684Y-102023377D01*
X104599961Y-102023284D01*
X104604240Y-102023374D01*
G37*
G36*
X105880574Y-101878770D02*
G01*
X105880160Y-101890146D01*
X105879469Y-101901360D01*
X105878503Y-101912413D01*
X105877261Y-101923303D01*
X105875743Y-101934031D01*
X105873948Y-101944598D01*
X105871878Y-101955002D01*
X105869531Y-101965244D01*
X105866909Y-101975325D01*
X105864010Y-101985243D01*
X105860835Y-101995000D01*
X105857385Y-102004594D01*
X105853658Y-102014027D01*
X105849655Y-102023297D01*
X105845376Y-102032406D01*
X105840842Y-102041309D01*
X105836074Y-102049967D01*
X105831072Y-102058379D01*
X105825836Y-102066544D01*
X105820365Y-102074463D01*
X105814660Y-102082137D01*
X105808722Y-102089564D01*
X105802549Y-102096745D01*
X105796141Y-102103681D01*
X105789500Y-102110370D01*
X105782625Y-102116813D01*
X105775515Y-102123010D01*
X105768171Y-102128961D01*
X105760593Y-102134666D01*
X105752781Y-102140125D01*
X105744735Y-102145338D01*
X105736390Y-102150269D01*
X105727870Y-102154881D01*
X105719176Y-102159175D01*
X105710309Y-102163152D01*
X105701267Y-102166810D01*
X105692051Y-102170150D01*
X105682661Y-102173172D01*
X105673097Y-102175876D01*
X105663359Y-102178261D01*
X105653447Y-102180329D01*
X105643360Y-102182079D01*
X105633100Y-102183510D01*
X105622665Y-102184624D01*
X105612057Y-102185419D01*
X105601274Y-102185896D01*
X105590317Y-102186055D01*
X105581527Y-102185953D01*
X105572827Y-102185647D01*
X105564218Y-102185137D01*
X105555698Y-102184423D01*
X105547268Y-102183504D01*
X105538929Y-102182382D01*
X105530679Y-102181055D01*
X105522519Y-102179525D01*
X105514450Y-102177790D01*
X105506470Y-102175851D01*
X105498581Y-102173708D01*
X105490782Y-102171362D01*
X105483072Y-102168811D01*
X105475453Y-102166055D01*
X105467924Y-102163096D01*
X105460485Y-102159933D01*
X105453090Y-102156512D01*
X105445888Y-102152972D01*
X105438877Y-102149311D01*
X105432059Y-102145530D01*
X105425433Y-102141629D01*
X105418999Y-102137608D01*
X105412757Y-102133466D01*
X105406708Y-102129205D01*
X105400850Y-102124823D01*
X105395185Y-102120321D01*
X105389711Y-102115699D01*
X105384430Y-102110957D01*
X105379341Y-102106095D01*
X105374444Y-102101113D01*
X105369739Y-102096010D01*
X105365226Y-102090788D01*
X105362950Y-102136879D01*
X105362818Y-102139244D01*
X105362613Y-102141536D01*
X105362337Y-102143757D01*
X105361989Y-102145906D01*
X105361569Y-102147982D01*
X105361077Y-102149987D01*
X105360513Y-102151919D01*
X105359876Y-102153780D01*
X105359168Y-102155568D01*
X105358388Y-102157284D01*
X105357536Y-102158928D01*
X105356611Y-102160501D01*
X105355615Y-102162001D01*
X105354547Y-102163429D01*
X105353406Y-102164785D01*
X105352194Y-102166069D01*
X105350925Y-102167183D01*
X105349614Y-102168226D01*
X105348261Y-102169196D01*
X105346866Y-102170095D01*
X105345428Y-102170922D01*
X105343949Y-102171677D01*
X105342428Y-102172360D01*
X105340864Y-102172971D01*
X105339259Y-102173510D01*
X105337611Y-102173977D01*
X105335922Y-102174372D01*
X105334190Y-102174696D01*
X105332416Y-102174947D01*
X105330600Y-102175127D01*
X105328742Y-102175235D01*
X105326843Y-102175271D01*
X105321341Y-102175399D01*
X105178447Y-102160032D01*
X105176742Y-102159625D01*
X105175085Y-102159169D01*
X105173476Y-102158666D01*
X105171915Y-102158114D01*
X105170402Y-102157514D01*
X105168938Y-102156866D01*
X105167521Y-102156170D01*
X105166153Y-102155426D01*
X105164832Y-102154634D01*
X105163560Y-102153794D01*
X105162336Y-102152906D01*
X105161159Y-102151969D01*
X105160031Y-102150985D01*
X105158951Y-102149952D01*
X105157919Y-102148872D01*
X105156935Y-102147743D01*
X105156000Y-102146489D01*
X105155126Y-102145223D01*
X105154312Y-102143945D01*
X105153558Y-102142655D01*
X105152865Y-102141353D01*
X105152232Y-102140038D01*
X105151659Y-102138712D01*
X105151146Y-102137373D01*
X105150694Y-102136023D01*
X105150302Y-102134660D01*
X105149971Y-102133286D01*
X105149699Y-102131899D01*
X105149488Y-102130500D01*
X105149337Y-102129089D01*
X105149247Y-102127666D01*
X105149217Y-102126231D01*
X105149247Y-102124805D01*
X105149337Y-102123409D01*
X105149488Y-102122044D01*
X105149699Y-102120708D01*
X105149971Y-102119402D01*
X105150302Y-102118127D01*
X105150694Y-102116881D01*
X105151146Y-102115666D01*
X105151659Y-102114481D01*
X105152232Y-102113325D01*
X105152865Y-102112200D01*
X105153558Y-102111105D01*
X105154312Y-102110040D01*
X105155126Y-102109005D01*
X105156000Y-102108000D01*
X105156935Y-102107025D01*
X105157930Y-102106090D01*
X105158984Y-102105216D01*
X105160097Y-102104402D01*
X105161270Y-102103648D01*
X105162502Y-102102955D01*
X105163794Y-102102322D01*
X105165145Y-102101749D01*
X105166556Y-102101236D01*
X105168026Y-102100784D01*
X105169555Y-102100392D01*
X105171144Y-102100061D01*
X105172793Y-102099789D01*
X105174500Y-102099578D01*
X105176268Y-102099428D01*
X105178094Y-102099337D01*
X105179980Y-102099307D01*
X105184631Y-102099307D01*
X105298332Y-102107717D01*
X105298332Y-101710611D01*
X105372045Y-101710611D01*
X105372045Y-102011763D01*
X105381984Y-102025253D01*
X105392404Y-102037872D01*
X105403304Y-102049621D01*
X105414683Y-102060499D01*
X105426543Y-102070507D01*
X105438884Y-102079645D01*
X105445234Y-102083888D01*
X105451704Y-102087913D01*
X105458294Y-102091720D01*
X105465004Y-102095310D01*
X105471834Y-102098683D01*
X105478785Y-102101837D01*
X105493045Y-102107494D01*
X105507786Y-102112281D01*
X105523007Y-102116197D01*
X105538708Y-102119243D01*
X105554889Y-102121419D01*
X105571550Y-102122724D01*
X105588691Y-102123159D01*
X105597256Y-102123024D01*
X105605665Y-102122619D01*
X105613918Y-102121944D01*
X105622015Y-102120999D01*
X105629955Y-102119783D01*
X105637740Y-102118298D01*
X105645368Y-102116542D01*
X105652841Y-102114516D01*
X105660157Y-102112220D01*
X105667317Y-102109654D01*
X105674321Y-102106818D01*
X105681169Y-102103712D01*
X105687861Y-102100336D01*
X105694397Y-102096689D01*
X105700776Y-102092772D01*
X105707000Y-102088586D01*
X105713053Y-102084171D01*
X105718920Y-102079571D01*
X105724601Y-102074784D01*
X105730096Y-102069812D01*
X105735404Y-102064653D01*
X105740527Y-102059308D01*
X105745464Y-102053778D01*
X105750214Y-102048061D01*
X105754778Y-102042159D01*
X105759157Y-102036070D01*
X105763349Y-102029796D01*
X105767355Y-102023335D01*
X105771175Y-102016689D01*
X105774809Y-102009856D01*
X105778257Y-102002838D01*
X105781519Y-101995633D01*
X105784589Y-101988289D01*
X105787461Y-101980855D01*
X105790135Y-101973332D01*
X105792610Y-101965718D01*
X105794888Y-101958014D01*
X105796968Y-101950221D01*
X105798849Y-101942337D01*
X105800533Y-101934364D01*
X105802018Y-101926300D01*
X105803306Y-101918146D01*
X105804395Y-101909903D01*
X105805286Y-101901570D01*
X105805979Y-101893146D01*
X105806475Y-101884633D01*
X105806772Y-101876029D01*
X105806871Y-101867336D01*
X105806772Y-101858643D01*
X105806475Y-101850039D01*
X105805979Y-101841526D01*
X105805286Y-101833102D01*
X105804395Y-101824769D01*
X105803306Y-101816525D01*
X105802018Y-101808372D01*
X105800533Y-101800308D01*
X105798849Y-101792335D01*
X105796968Y-101784451D01*
X105794888Y-101776657D01*
X105792610Y-101768954D01*
X105790135Y-101761340D01*
X105787461Y-101753817D01*
X105784589Y-101746383D01*
X105781519Y-101739039D01*
X105778254Y-101731834D01*
X105774797Y-101724814D01*
X105771148Y-101717981D01*
X105767307Y-101711334D01*
X105763273Y-101704873D01*
X105759048Y-101698598D01*
X105754630Y-101692509D01*
X105750021Y-101686607D01*
X105745219Y-101680890D01*
X105740225Y-101675360D01*
X105735039Y-101670016D01*
X105729661Y-101664858D01*
X105724091Y-101659886D01*
X105718329Y-101655100D01*
X105712375Y-101650500D01*
X105706228Y-101646087D01*
X105699905Y-101641900D01*
X105693420Y-101637984D01*
X105686772Y-101634337D01*
X105679963Y-101630961D01*
X105672991Y-101627855D01*
X105665858Y-101625019D01*
X105658562Y-101622453D01*
X105651105Y-101620157D01*
X105643485Y-101618131D01*
X105635704Y-101616376D01*
X105627761Y-101614890D01*
X105619655Y-101613675D01*
X105611388Y-101612729D01*
X105602959Y-101612054D01*
X105594368Y-101611649D01*
X105585614Y-101611514D01*
X105585618Y-101611507D01*
X105569029Y-101611894D01*
X105552872Y-101613056D01*
X105537146Y-101614991D01*
X105521854Y-101617701D01*
X105506993Y-101621185D01*
X105492564Y-101625444D01*
X105478567Y-101630476D01*
X105465003Y-101636283D01*
X105451871Y-101642864D01*
X105439171Y-101650220D01*
X105426903Y-101658349D01*
X105415067Y-101667253D01*
X105403663Y-101676931D01*
X105392692Y-101687384D01*
X105382152Y-101698610D01*
X105372045Y-101710611D01*
X105298332Y-101710611D01*
X105298332Y-101296450D01*
X105298363Y-101294606D01*
X105298455Y-101292821D01*
X105298609Y-101291095D01*
X105298825Y-101289427D01*
X105299101Y-101287818D01*
X105299440Y-101286267D01*
X105299839Y-101284775D01*
X105300301Y-101283341D01*
X105300824Y-101281966D01*
X105301408Y-101280649D01*
X105302054Y-101279391D01*
X105302761Y-101278192D01*
X105303530Y-101277050D01*
X105304361Y-101275968D01*
X105305253Y-101274944D01*
X105306206Y-101273978D01*
X105307221Y-101273071D01*
X105308298Y-101272223D01*
X105309436Y-101271433D01*
X105310635Y-101270701D01*
X105311896Y-101270028D01*
X105313219Y-101269414D01*
X105314603Y-101268858D01*
X105316048Y-101268361D01*
X105317555Y-101267922D01*
X105319124Y-101267541D01*
X105320754Y-101267219D01*
X105322446Y-101266956D01*
X105324199Y-101266751D01*
X105326014Y-101266605D01*
X105327890Y-101266517D01*
X105329828Y-101266488D01*
X105330739Y-101266513D01*
X105331938Y-101266587D01*
X105333426Y-101266711D01*
X105335203Y-101266884D01*
X105337268Y-101267106D01*
X105339621Y-101267378D01*
X105345194Y-101268071D01*
X105490393Y-101282666D01*
X105491998Y-101282978D01*
X105493550Y-101283344D01*
X105495047Y-101283765D01*
X105496491Y-101284240D01*
X105497880Y-101284770D01*
X105499216Y-101285354D01*
X105500497Y-101285993D01*
X105501725Y-101286686D01*
X105502898Y-101287434D01*
X105504017Y-101288236D01*
X105505083Y-101289092D01*
X105506094Y-101290004D01*
X105507051Y-101290969D01*
X105507955Y-101291989D01*
X105508804Y-101293064D01*
X105509599Y-101294193D01*
X105510342Y-101295350D01*
X105511037Y-101296518D01*
X105511684Y-101297699D01*
X105512283Y-101298893D01*
X105512834Y-101300098D01*
X105513337Y-101301316D01*
X105513792Y-101302547D01*
X105514199Y-101303789D01*
X105514559Y-101305044D01*
X105514870Y-101306311D01*
X105515134Y-101307590D01*
X105515350Y-101308882D01*
X105515517Y-101310186D01*
X105515637Y-101311502D01*
X105515709Y-101312831D01*
X105515733Y-101314172D01*
X105515700Y-101315693D01*
X105515602Y-101317184D01*
X105515437Y-101318645D01*
X105515207Y-101320077D01*
X105514912Y-101321478D01*
X105514550Y-101322849D01*
X105514123Y-101324190D01*
X105513631Y-101325501D01*
X105513072Y-101326783D01*
X105512448Y-101328034D01*
X105511758Y-101329255D01*
X105511002Y-101330446D01*
X105510181Y-101331608D01*
X105509294Y-101332739D01*
X105508341Y-101333840D01*
X105507323Y-101334911D01*
X105506253Y-101335930D01*
X105505147Y-101336883D01*
X105504004Y-101337770D01*
X105502824Y-101338591D01*
X105501608Y-101339347D01*
X105500355Y-101340037D01*
X105499065Y-101340661D01*
X105497739Y-101341219D01*
X105496376Y-101341712D01*
X105494977Y-101342139D01*
X105493541Y-101342501D01*
X105492068Y-101342796D01*
X105490559Y-101343026D01*
X105489013Y-101343190D01*
X105487431Y-101343289D01*
X105485811Y-101343322D01*
X105484663Y-101343310D01*
X105483542Y-101343274D01*
X105482449Y-101343214D01*
X105481383Y-101343129D01*
X105480346Y-101343021D01*
X105479336Y-101342889D01*
X105478354Y-101342733D01*
X105477400Y-101342553D01*
X105475520Y-101342166D01*
X105473739Y-101341773D01*
X105472057Y-101341374D01*
X105470473Y-101340970D01*
X105372138Y-101334835D01*
X105372138Y-101629841D01*
X105377921Y-101624922D01*
X105383745Y-101620154D01*
X105389612Y-101615536D01*
X105395520Y-101611068D01*
X105401471Y-101606750D01*
X105407463Y-101602582D01*
X105413498Y-101598564D01*
X105419575Y-101594696D01*
X105425694Y-101590978D01*
X105431854Y-101587411D01*
X105438057Y-101583993D01*
X105444302Y-101580725D01*
X105450589Y-101577608D01*
X105456919Y-101574640D01*
X105463290Y-101571822D01*
X105469703Y-101569155D01*
X105476116Y-101566643D01*
X105482679Y-101564294D01*
X105489391Y-101562106D01*
X105496254Y-101560081D01*
X105503268Y-101558218D01*
X105510431Y-101556516D01*
X105517744Y-101554977D01*
X105525207Y-101553600D01*
X105532821Y-101552385D01*
X105540584Y-101551332D01*
X105548498Y-101550440D01*
X105556562Y-101549711D01*
X105564775Y-101549144D01*
X105573139Y-101548739D01*
X105581653Y-101548496D01*
X105590317Y-101548415D01*
X105601274Y-101548577D01*
X105612057Y-101549063D01*
X105622666Y-101549873D01*
X105633100Y-101551008D01*
X105643361Y-101552466D01*
X105653447Y-101554248D01*
X105663360Y-101556355D01*
X105673098Y-101558785D01*
X105682662Y-101561540D01*
X105692052Y-101564618D01*
X105701268Y-101568021D01*
X105710309Y-101571748D01*
X105719177Y-101575798D01*
X105727870Y-101580173D01*
X105736390Y-101584872D01*
X105744735Y-101589895D01*
X105752780Y-101595111D01*
X105760592Y-101600579D01*
X105768169Y-101606298D01*
X105775512Y-101612270D01*
X105782621Y-101618494D01*
X105789496Y-101624970D01*
X105796137Y-101631699D01*
X105802544Y-101638679D01*
X105808717Y-101645911D01*
X105814656Y-101653396D01*
X105820361Y-101661132D01*
X105825832Y-101669121D01*
X105831069Y-101677362D01*
X105836072Y-101685854D01*
X105840841Y-101694599D01*
X105845376Y-101703596D01*
X105849655Y-101712698D01*
X105853658Y-101721950D01*
X105857385Y-101731351D01*
X105860835Y-101740903D01*
X105864010Y-101750605D01*
X105866909Y-101760457D01*
X105869531Y-101770460D01*
X105871878Y-101780612D01*
X105873948Y-101790914D01*
X105875743Y-101801366D01*
X105877261Y-101811969D01*
X105878503Y-101822721D01*
X105879469Y-101833624D01*
X105880160Y-101844676D01*
X105880574Y-101855879D01*
X105880712Y-101867231D01*
X105880710Y-101867336D01*
X105880574Y-101878770D01*
G37*
G36*
X106453134Y-101273552D02*
G01*
X106456319Y-101273768D01*
X106459449Y-101274128D01*
X106462525Y-101274632D01*
X106465547Y-101275281D01*
X106468515Y-101276073D01*
X106471429Y-101277009D01*
X106474289Y-101278089D01*
X106477095Y-101279313D01*
X106479847Y-101280681D01*
X106482545Y-101282193D01*
X106485189Y-101283850D01*
X106487779Y-101285650D01*
X106490315Y-101287594D01*
X106492796Y-101289683D01*
X106495224Y-101291915D01*
X106497456Y-101294252D01*
X106499545Y-101296655D01*
X106501489Y-101299125D01*
X106503289Y-101301661D01*
X106504945Y-101304262D01*
X106506457Y-101306930D01*
X106507826Y-101309664D01*
X106509050Y-101312464D01*
X106510130Y-101315330D01*
X106511066Y-101318262D01*
X106511858Y-101321260D01*
X106512506Y-101324325D01*
X106513011Y-101327455D01*
X106513371Y-101330652D01*
X106513587Y-101333914D01*
X106513659Y-101337243D01*
X106513587Y-101340478D01*
X106513371Y-101343654D01*
X106513011Y-101346769D01*
X106512506Y-101349824D01*
X106511858Y-101352819D01*
X106511066Y-101355754D01*
X106510130Y-101358629D01*
X106509050Y-101361444D01*
X106507826Y-101364198D01*
X106506457Y-101366893D01*
X106504945Y-101369528D01*
X106503289Y-101372102D01*
X106501489Y-101374617D01*
X106499545Y-101377071D01*
X106497456Y-101379465D01*
X106495224Y-101381800D01*
X106492887Y-101384032D01*
X106490484Y-101386120D01*
X106488014Y-101388064D01*
X106485479Y-101389864D01*
X106482877Y-101391521D01*
X106480209Y-101393033D01*
X106477475Y-101394401D01*
X106474675Y-101395625D01*
X106471809Y-101396705D01*
X106468877Y-101397642D01*
X106465879Y-101398434D01*
X106462814Y-101399082D01*
X106459684Y-101399586D01*
X106456487Y-101399946D01*
X106453225Y-101400162D01*
X106449896Y-101400234D01*
X106446571Y-101400162D01*
X106443319Y-101399946D01*
X106440138Y-101399586D01*
X106437029Y-101399082D01*
X106433993Y-101398434D01*
X106431028Y-101397642D01*
X106428135Y-101396705D01*
X106425315Y-101395625D01*
X106422566Y-101394401D01*
X106419889Y-101393033D01*
X106417284Y-101391521D01*
X106414751Y-101389864D01*
X106412290Y-101388064D01*
X106409901Y-101386120D01*
X106407584Y-101384032D01*
X106405339Y-101381800D01*
X106403107Y-101379465D01*
X106401019Y-101377071D01*
X106399075Y-101374617D01*
X106397275Y-101372102D01*
X106395618Y-101369528D01*
X106394106Y-101366893D01*
X106392738Y-101364198D01*
X106391514Y-101361444D01*
X106390434Y-101358629D01*
X106389497Y-101355754D01*
X106388705Y-101352819D01*
X106388057Y-101349824D01*
X106387553Y-101346769D01*
X106387193Y-101343654D01*
X106386977Y-101340478D01*
X106386905Y-101337243D01*
X106386977Y-101333916D01*
X106387193Y-101330654D01*
X106387553Y-101327458D01*
X106388057Y-101324329D01*
X106388705Y-101321265D01*
X106389497Y-101318267D01*
X106390434Y-101315335D01*
X106391514Y-101312469D01*
X106392738Y-101309669D01*
X106394106Y-101306935D01*
X106395618Y-101304267D01*
X106397275Y-101301664D01*
X106399075Y-101299128D01*
X106401019Y-101296658D01*
X106403107Y-101294253D01*
X106405339Y-101291915D01*
X106407674Y-101289683D01*
X106410068Y-101287594D01*
X106412522Y-101285650D01*
X106415037Y-101283850D01*
X106417611Y-101282193D01*
X106420246Y-101280681D01*
X106422941Y-101279313D01*
X106425695Y-101278089D01*
X106428510Y-101277009D01*
X106431385Y-101276073D01*
X106434320Y-101275281D01*
X106437315Y-101274632D01*
X106440370Y-101274128D01*
X106443486Y-101273768D01*
X106446661Y-101273552D01*
X106449896Y-101273480D01*
X106453134Y-101273552D01*
G37*
G36*
X106427591Y-101550058D02*
G01*
X106428944Y-101550094D01*
X106430176Y-101550154D01*
X106431288Y-101550238D01*
X106432279Y-101550346D01*
X106433149Y-101550478D01*
X106433899Y-101550634D01*
X106434229Y-101550721D01*
X106434529Y-101550815D01*
X106740290Y-101593065D01*
X106741802Y-101593293D01*
X106743266Y-101593580D01*
X106744682Y-101593926D01*
X106746051Y-101594332D01*
X106747371Y-101594797D01*
X106748643Y-101595321D01*
X106749867Y-101595904D01*
X106751044Y-101596547D01*
X106752172Y-101597248D01*
X106753252Y-101598010D01*
X106754284Y-101598830D01*
X106755268Y-101599710D01*
X106756204Y-101600649D01*
X106757092Y-101601647D01*
X106757932Y-101602705D01*
X106758724Y-101603822D01*
X106759467Y-101604885D01*
X106760162Y-101605974D01*
X106760809Y-101607086D01*
X106761408Y-101608224D01*
X106761959Y-101609386D01*
X106762463Y-101610573D01*
X106762918Y-101611785D01*
X106763325Y-101613021D01*
X106763685Y-101614282D01*
X106763996Y-101615568D01*
X106764260Y-101616878D01*
X106764476Y-101618213D01*
X106764644Y-101619573D01*
X106764764Y-101620957D01*
X106764835Y-101622366D01*
X106764859Y-101623799D01*
X106764827Y-101625420D01*
X106764728Y-101627016D01*
X106764564Y-101628589D01*
X106764334Y-101630137D01*
X106764038Y-101631662D01*
X106763677Y-101633162D01*
X106763249Y-101634639D01*
X106762757Y-101636091D01*
X106762198Y-101637520D01*
X106761574Y-101638924D01*
X106760884Y-101640304D01*
X106760128Y-101641660D01*
X106759307Y-101642993D01*
X106758419Y-101644301D01*
X106757467Y-101645585D01*
X106756448Y-101646845D01*
X106755372Y-101647959D01*
X106754248Y-101649001D01*
X106753075Y-101649972D01*
X106751854Y-101650870D01*
X106750584Y-101651697D01*
X106749265Y-101652452D01*
X106747898Y-101653135D01*
X106746482Y-101653746D01*
X106745017Y-101654285D01*
X106743504Y-101654753D01*
X106741942Y-101655148D01*
X106740332Y-101655472D01*
X106738672Y-101655723D01*
X106736965Y-101655903D01*
X106735208Y-101656011D01*
X106733403Y-101656047D01*
X106728060Y-101655279D01*
X106472234Y-101620706D01*
X106472234Y-102110078D01*
X106758022Y-102110078D01*
X106759915Y-102110114D01*
X106761755Y-102110222D01*
X106763541Y-102110401D01*
X106765272Y-102110653D01*
X106766950Y-102110977D01*
X106768574Y-102111372D01*
X106770143Y-102111839D01*
X106771659Y-102112379D01*
X106773120Y-102112990D01*
X106774528Y-102113673D01*
X106775881Y-102114428D01*
X106777181Y-102115255D01*
X106778426Y-102116153D01*
X106779618Y-102117124D01*
X106780755Y-102118166D01*
X106781839Y-102119281D01*
X106782857Y-102120347D01*
X106783810Y-102121444D01*
X106784697Y-102122572D01*
X106785518Y-102123731D01*
X106786274Y-102124920D01*
X106786964Y-102126139D01*
X106787588Y-102127390D01*
X106788146Y-102128671D01*
X106788639Y-102129982D01*
X106789066Y-102131324D01*
X106789428Y-102132697D01*
X106789723Y-102134100D01*
X106789953Y-102135535D01*
X106790118Y-102136999D01*
X106790216Y-102138494D01*
X106790249Y-102140020D01*
X106790213Y-102141641D01*
X106790105Y-102143237D01*
X106789926Y-102144810D01*
X106789674Y-102146358D01*
X106789350Y-102147883D01*
X106788955Y-102149383D01*
X106788488Y-102150860D01*
X106787948Y-102152312D01*
X106787337Y-102153740D01*
X106786654Y-102155144D01*
X106785899Y-102156525D01*
X106785073Y-102157881D01*
X106784174Y-102159213D01*
X106783204Y-102160521D01*
X106782161Y-102161805D01*
X106781047Y-102163065D01*
X106779867Y-102164274D01*
X106778626Y-102165405D01*
X106777325Y-102166458D01*
X106775963Y-102167433D01*
X106774542Y-102168330D01*
X106773060Y-102169149D01*
X106771518Y-102169890D01*
X106769915Y-102170553D01*
X106768252Y-102171138D01*
X106766529Y-102171645D01*
X106764746Y-102172074D01*
X106762902Y-102172425D01*
X106760998Y-102172698D01*
X106759033Y-102172893D01*
X106757009Y-102173010D01*
X106754924Y-102173049D01*
X106143364Y-102173095D01*
X106141564Y-102173059D01*
X106139811Y-102172951D01*
X106138107Y-102172771D01*
X106136451Y-102172519D01*
X106134842Y-102172196D01*
X106133282Y-102171800D01*
X106131770Y-102171333D01*
X106130305Y-102170794D01*
X106128889Y-102170183D01*
X106127521Y-102169500D01*
X106126200Y-102168745D01*
X106124928Y-102167918D01*
X106123704Y-102167019D01*
X106122527Y-102166049D01*
X106121399Y-102165006D01*
X106120319Y-102163892D01*
X106119300Y-102162726D01*
X106118348Y-102161530D01*
X106117460Y-102160304D01*
X106116639Y-102159048D01*
X106115884Y-102157761D01*
X106115194Y-102156444D01*
X106114569Y-102155097D01*
X106114011Y-102153719D01*
X106113518Y-102152312D01*
X106113091Y-102150873D01*
X106112730Y-102149405D01*
X106112434Y-102147906D01*
X106112204Y-102146377D01*
X106112040Y-102144818D01*
X106111941Y-102143228D01*
X106111908Y-102141608D01*
X106111941Y-102140084D01*
X106112040Y-102138584D01*
X106112204Y-102137107D01*
X106112434Y-102135655D01*
X106112730Y-102134227D01*
X106113091Y-102132822D01*
X106113518Y-102131442D01*
X106114011Y-102130086D01*
X106114569Y-102128753D01*
X106115194Y-102127445D01*
X106115884Y-102126160D01*
X106116639Y-102124899D01*
X106117460Y-102123663D01*
X106118348Y-102122450D01*
X106119300Y-102121262D01*
X106120319Y-102120097D01*
X106121310Y-102118888D01*
X106122355Y-102117757D01*
X106123454Y-102116704D01*
X106124606Y-102115729D01*
X106125812Y-102114832D01*
X106127071Y-102114013D01*
X106128383Y-102113272D01*
X106129749Y-102112609D01*
X106131169Y-102112024D01*
X106132642Y-102111517D01*
X106134168Y-102111088D01*
X106135748Y-102110737D01*
X106137381Y-102110464D01*
X106139068Y-102110269D01*
X106140808Y-102110152D01*
X106142602Y-102110113D01*
X106398421Y-102110113D01*
X106398421Y-101574645D01*
X106398452Y-101573225D01*
X106398542Y-101571847D01*
X106398693Y-101570511D01*
X106398904Y-101569218D01*
X106399175Y-101567966D01*
X106399507Y-101566756D01*
X106399899Y-101565589D01*
X106400351Y-101564463D01*
X106400863Y-101563379D01*
X106401436Y-101562338D01*
X106402069Y-101561338D01*
X106402763Y-101560381D01*
X106403516Y-101559466D01*
X106404330Y-101558593D01*
X106405205Y-101557761D01*
X106406140Y-101556972D01*
X106407122Y-101556134D01*
X106408140Y-101555349D01*
X106409194Y-101554618D01*
X106410283Y-101553942D01*
X106411407Y-101553320D01*
X106412567Y-101552752D01*
X106413762Y-101552237D01*
X106414993Y-101551778D01*
X106416260Y-101551372D01*
X106417561Y-101551020D01*
X106418899Y-101550722D01*
X106420271Y-101550479D01*
X106421680Y-101550289D01*
X106423123Y-101550154D01*
X106424602Y-101550073D01*
X106426117Y-101550046D01*
X106427591Y-101550058D01*
G37*
G36*
X107711410Y-102116218D02*
G01*
X107711278Y-102124692D01*
X107710884Y-102132446D01*
X107710588Y-102136053D01*
X107710227Y-102139480D01*
X107709800Y-102142727D01*
X107709307Y-102145794D01*
X107708749Y-102148682D01*
X107708124Y-102151389D01*
X107707434Y-102153916D01*
X107706679Y-102156263D01*
X107705857Y-102158430D01*
X107704970Y-102160418D01*
X107704018Y-102162225D01*
X107702999Y-102163853D01*
X107701924Y-102165341D01*
X107700799Y-102166733D01*
X107699626Y-102168029D01*
X107698405Y-102169229D01*
X107697135Y-102170333D01*
X107695816Y-102171341D01*
X107695138Y-102171809D01*
X107694449Y-102172253D01*
X107693747Y-102172673D01*
X107693033Y-102173069D01*
X107692306Y-102173441D01*
X107691568Y-102173789D01*
X107690817Y-102174113D01*
X107690055Y-102174413D01*
X107689280Y-102174689D01*
X107688493Y-102174941D01*
X107686882Y-102175374D01*
X107685223Y-102175710D01*
X107683515Y-102175950D01*
X107681759Y-102176094D01*
X107679954Y-102176142D01*
X107678436Y-102176123D01*
X107676953Y-102176069D01*
X107675507Y-102175978D01*
X107674097Y-102175851D01*
X107672722Y-102175687D01*
X107671384Y-102175488D01*
X107670081Y-102175251D01*
X107668815Y-102174979D01*
X107667584Y-102174670D01*
X107666390Y-102174325D01*
X107665231Y-102173943D01*
X107664108Y-102173525D01*
X107663021Y-102173071D01*
X107661970Y-102172581D01*
X107660955Y-102172054D01*
X107659976Y-102171491D01*
X107659453Y-102171187D01*
X107658936Y-102170859D01*
X107658425Y-102170505D01*
X107657920Y-102170126D01*
X107657421Y-102169721D01*
X107656927Y-102169291D01*
X107656439Y-102168836D01*
X107655957Y-102168355D01*
X107655481Y-102167849D01*
X107655011Y-102167318D01*
X107654088Y-102166179D01*
X107653188Y-102164939D01*
X107652312Y-102163598D01*
X107651459Y-102162155D01*
X107650630Y-102160611D01*
X107649824Y-102158965D01*
X107649041Y-102157219D01*
X107648281Y-102155370D01*
X107647545Y-102153421D01*
X107646833Y-102151370D01*
X107646143Y-102149218D01*
X107645496Y-102146934D01*
X107644891Y-102144500D01*
X107644327Y-102141915D01*
X107643805Y-102139181D01*
X107643325Y-102136297D01*
X107642887Y-102133263D01*
X107642135Y-102126744D01*
X107641551Y-102119625D01*
X107641134Y-102111906D01*
X107640883Y-102103587D01*
X107640800Y-102094667D01*
X107635737Y-102099697D01*
X107630537Y-102104606D01*
X107625199Y-102109396D01*
X107619722Y-102114065D01*
X107614108Y-102118615D01*
X107608355Y-102123044D01*
X107602465Y-102127354D01*
X107596436Y-102131543D01*
X107590269Y-102135612D01*
X107583964Y-102139561D01*
X107577521Y-102143390D01*
X107570940Y-102147099D01*
X107564221Y-102150688D01*
X107557364Y-102154157D01*
X107550368Y-102157506D01*
X107543235Y-102160735D01*
X107535988Y-102163805D01*
X107528650Y-102166677D01*
X107521223Y-102169351D01*
X107513706Y-102171826D01*
X107506098Y-102174104D01*
X107498401Y-102176184D01*
X107490613Y-102178065D01*
X107482735Y-102179749D01*
X107474768Y-102181234D01*
X107466710Y-102182522D01*
X107458562Y-102183611D01*
X107450325Y-102184502D01*
X107441997Y-102185195D01*
X107433579Y-102185690D01*
X107425071Y-102185988D01*
X107416474Y-102186087D01*
X107405523Y-102185928D01*
X107394758Y-102185450D01*
X107384179Y-102184655D01*
X107373787Y-102183542D01*
X107363580Y-102182110D01*
X107353560Y-102180361D01*
X107343726Y-102178293D01*
X107334078Y-102175907D01*
X107324616Y-102173203D01*
X107315340Y-102170181D01*
X107306250Y-102166841D01*
X107297347Y-102163183D01*
X107288629Y-102159206D01*
X107280098Y-102154912D01*
X107271753Y-102150299D01*
X107263594Y-102145369D01*
X107255551Y-102140156D01*
X107247748Y-102134697D01*
X107240185Y-102128992D01*
X107232862Y-102123041D01*
X107225779Y-102116844D01*
X107218937Y-102110401D01*
X107212335Y-102103712D01*
X107205973Y-102096776D01*
X107199851Y-102089595D01*
X107193969Y-102082168D01*
X107188327Y-102074494D01*
X107182925Y-102066575D01*
X107177764Y-102058409D01*
X107172843Y-102049998D01*
X107168162Y-102041340D01*
X107163721Y-102032436D01*
X107159535Y-102023329D01*
X107155618Y-102014059D01*
X107151972Y-102004627D01*
X107148595Y-101995033D01*
X107145489Y-101985277D01*
X107142653Y-101975359D01*
X107140087Y-101965278D01*
X107137791Y-101955036D01*
X107135766Y-101944632D01*
X107134010Y-101934065D01*
X107132525Y-101923337D01*
X107131309Y-101912446D01*
X107130364Y-101901393D01*
X107129689Y-101890179D01*
X107129284Y-101878802D01*
X107129150Y-101867328D01*
X107202777Y-101867328D01*
X107202873Y-101876115D01*
X107203161Y-101884806D01*
X107203642Y-101893400D01*
X107204314Y-101901899D01*
X107205178Y-101910302D01*
X107206235Y-101918609D01*
X107207484Y-101926820D01*
X107208924Y-101934934D01*
X107210557Y-101942953D01*
X107212382Y-101950876D01*
X107214399Y-101958702D01*
X107216608Y-101966433D01*
X107219010Y-101974067D01*
X107221603Y-101981605D01*
X107224388Y-101989048D01*
X107227366Y-101996394D01*
X107230531Y-102003506D01*
X107233883Y-102010439D01*
X107237421Y-102017191D01*
X107241145Y-102023763D01*
X107245055Y-102030155D01*
X107249151Y-102036367D01*
X107253434Y-102042399D01*
X107257902Y-102048251D01*
X107262557Y-102053923D01*
X107267398Y-102059415D01*
X107272425Y-102064726D01*
X107277638Y-102069858D01*
X107283037Y-102074810D01*
X107288622Y-102079582D01*
X107294394Y-102084173D01*
X107300351Y-102088585D01*
X107306482Y-102092772D01*
X107312775Y-102096688D01*
X107319230Y-102100335D01*
X107325846Y-102103711D01*
X107332625Y-102106817D01*
X107339566Y-102109653D01*
X107346670Y-102112219D01*
X107353935Y-102114515D01*
X107361362Y-102116541D01*
X107368952Y-102118297D01*
X107376703Y-102119782D01*
X107384617Y-102120998D01*
X107392692Y-102121943D01*
X107400930Y-102122618D01*
X107409330Y-102123023D01*
X107417892Y-102123158D01*
X107417882Y-102123159D01*
X107427030Y-102123042D01*
X107436033Y-102122691D01*
X107444893Y-102122106D01*
X107453608Y-102121287D01*
X107462179Y-102120233D01*
X107470606Y-102118946D01*
X107478889Y-102117424D01*
X107487027Y-102115669D01*
X107495022Y-102113679D01*
X107502872Y-102111455D01*
X107510579Y-102108997D01*
X107518141Y-102106305D01*
X107525559Y-102103379D01*
X107532833Y-102100219D01*
X107539963Y-102096825D01*
X107546949Y-102093197D01*
X107553694Y-102089368D01*
X107560296Y-102085370D01*
X107566754Y-102081205D01*
X107573068Y-102076871D01*
X107579238Y-102072370D01*
X107585264Y-102067700D01*
X107591146Y-102062863D01*
X107596884Y-102057857D01*
X107602478Y-102052683D01*
X107607928Y-102047342D01*
X107613235Y-102041832D01*
X107618397Y-102036154D01*
X107623415Y-102030308D01*
X107628290Y-102024294D01*
X107633020Y-102018112D01*
X107637607Y-102011762D01*
X107637607Y-101710609D01*
X107627499Y-101698608D01*
X107616960Y-101687382D01*
X107605988Y-101676929D01*
X107594585Y-101667251D01*
X107582749Y-101658347D01*
X107570481Y-101650218D01*
X107557780Y-101642862D01*
X107544648Y-101636281D01*
X107531084Y-101630474D01*
X107517087Y-101625442D01*
X107502658Y-101621183D01*
X107487798Y-101617699D01*
X107472505Y-101614990D01*
X107456780Y-101613054D01*
X107440623Y-101611893D01*
X107424033Y-101611505D01*
X107415280Y-101611640D01*
X107406688Y-101612046D01*
X107398258Y-101612721D01*
X107389990Y-101613666D01*
X107381885Y-101614882D01*
X107373941Y-101616367D01*
X107366159Y-101618123D01*
X107358540Y-101620149D01*
X107351083Y-101622444D01*
X107343787Y-101625010D01*
X107336654Y-101627846D01*
X107329683Y-101630953D01*
X107322874Y-101634329D01*
X107316227Y-101637975D01*
X107309742Y-101641892D01*
X107303419Y-101646078D01*
X107297273Y-101650493D01*
X107291318Y-101655093D01*
X107285556Y-101659880D01*
X107279986Y-101664853D01*
X107274608Y-101670011D01*
X107269422Y-101675356D01*
X107264428Y-101680887D01*
X107259626Y-101686603D01*
X107255017Y-101692506D01*
X107250599Y-101698594D01*
X107246374Y-101704869D01*
X107242341Y-101711329D01*
X107238499Y-101717976D01*
X107234850Y-101724808D01*
X107231393Y-101731826D01*
X107228129Y-101739031D01*
X107225059Y-101746375D01*
X107222187Y-101753808D01*
X107219513Y-101761332D01*
X107217037Y-101768946D01*
X107214760Y-101776649D01*
X107212680Y-101784443D01*
X107210798Y-101792327D01*
X107209115Y-101800300D01*
X107207630Y-101808364D01*
X107206342Y-101816517D01*
X107205253Y-101824761D01*
X107204362Y-101833094D01*
X107203668Y-101841518D01*
X107203173Y-101850031D01*
X107202876Y-101858634D01*
X107202777Y-101867328D01*
X107129150Y-101867328D01*
X107129149Y-101867263D01*
X107129287Y-101855910D01*
X107129701Y-101844708D01*
X107130391Y-101833656D01*
X107131357Y-101822753D01*
X107132599Y-101812001D01*
X107134118Y-101801399D01*
X107135912Y-101790947D01*
X107137982Y-101780644D01*
X107140329Y-101770492D01*
X107142951Y-101760490D01*
X107145850Y-101750638D01*
X107149024Y-101740936D01*
X107152475Y-101731384D01*
X107156202Y-101721982D01*
X107160204Y-101712730D01*
X107164483Y-101703628D01*
X107169020Y-101694630D01*
X107173797Y-101685885D01*
X107178815Y-101677392D01*
X107184072Y-101669151D01*
X107189569Y-101661163D01*
X107195307Y-101653426D01*
X107201285Y-101645942D01*
X107207503Y-101638709D01*
X107213961Y-101631729D01*
X107220659Y-101625001D01*
X107227598Y-101618525D01*
X107234776Y-101612301D01*
X107242195Y-101606329D01*
X107249853Y-101600609D01*
X107257752Y-101595141D01*
X107265891Y-101589926D01*
X107274144Y-101584903D01*
X107282576Y-101580204D01*
X107291189Y-101575829D01*
X107299981Y-101571779D01*
X107308954Y-101568052D01*
X107318107Y-101564649D01*
X107327440Y-101561571D01*
X107336953Y-101558816D01*
X107346646Y-101556386D01*
X107356519Y-101554280D01*
X107366572Y-101552497D01*
X107376806Y-101551039D01*
X107387219Y-101549905D01*
X107397813Y-101549095D01*
X107408587Y-101548609D01*
X107419541Y-101548447D01*
X107436730Y-101548771D01*
X107453342Y-101549743D01*
X107461433Y-101550472D01*
X107469379Y-101551363D01*
X107477182Y-101552416D01*
X107484840Y-101553631D01*
X107492355Y-101555009D01*
X107499725Y-101556548D01*
X107506952Y-101558249D01*
X107514034Y-101560113D01*
X107520972Y-101562138D01*
X107527767Y-101564325D01*
X107534417Y-101566675D01*
X107540923Y-101569186D01*
X107547243Y-101571854D01*
X107553527Y-101574671D01*
X107559775Y-101577639D01*
X107565986Y-101580756D01*
X107572162Y-101584024D01*
X107578302Y-101587442D01*
X107584406Y-101591009D01*
X107590474Y-101594727D01*
X107596506Y-101598595D01*
X107602503Y-101602613D01*
X107608463Y-101606781D01*
X107614387Y-101611099D01*
X107620276Y-101615567D01*
X107626128Y-101620186D01*
X107631944Y-101624954D01*
X107637725Y-101629872D01*
X107637725Y-101296453D01*
X107637756Y-101294610D01*
X107637848Y-101292825D01*
X107638002Y-101291099D01*
X107638217Y-101289431D01*
X107638494Y-101287822D01*
X107638832Y-101286271D01*
X107639232Y-101284779D01*
X107639693Y-101283345D01*
X107640216Y-101281970D01*
X107640801Y-101280653D01*
X107641447Y-101279395D01*
X107642154Y-101278195D01*
X107642923Y-101277054D01*
X107643753Y-101275972D01*
X107644645Y-101274948D01*
X107645599Y-101273982D01*
X107646614Y-101273075D01*
X107647690Y-101272227D01*
X107648828Y-101271437D01*
X107650028Y-101270705D01*
X107651289Y-101270032D01*
X107652612Y-101269418D01*
X107653996Y-101268862D01*
X107655441Y-101268364D01*
X107656948Y-101267925D01*
X107658517Y-101267545D01*
X107660147Y-101267223D01*
X107661839Y-101266960D01*
X107663592Y-101266755D01*
X107665407Y-101266609D01*
X107667283Y-101266521D01*
X107669221Y-101266492D01*
X107669191Y-101266510D01*
X107669160Y-101266528D01*
X107669099Y-101266565D01*
X107670010Y-101266590D01*
X107671210Y-101266664D01*
X107672698Y-101266788D01*
X107674474Y-101266961D01*
X107676539Y-101267184D01*
X107678893Y-101267456D01*
X107684466Y-101268148D01*
X107829664Y-101282743D01*
X107831270Y-101283055D01*
X107832822Y-101283421D01*
X107834319Y-101283842D01*
X107835763Y-101284317D01*
X107837152Y-101284847D01*
X107838487Y-101285431D01*
X107839769Y-101286070D01*
X107840996Y-101286763D01*
X107842170Y-101287511D01*
X107843289Y-101288313D01*
X107844354Y-101289170D01*
X107845366Y-101290081D01*
X107846323Y-101291046D01*
X107847226Y-101292067D01*
X107848075Y-101293141D01*
X107848870Y-101294270D01*
X107849613Y-101295427D01*
X107850308Y-101296596D01*
X107850955Y-101297777D01*
X107851554Y-101298970D01*
X107852105Y-101300176D01*
X107852609Y-101301394D01*
X107853064Y-101302624D01*
X107853471Y-101303866D01*
X107853831Y-101305121D01*
X107854143Y-101306388D01*
X107854406Y-101307668D01*
X107854622Y-101308959D01*
X107854790Y-101310263D01*
X107854910Y-101311580D01*
X107854981Y-101312908D01*
X107855005Y-101314249D01*
X107854973Y-101315770D01*
X107854874Y-101317261D01*
X107854710Y-101318723D01*
X107854480Y-101320154D01*
X107854184Y-101321555D01*
X107853823Y-101322926D01*
X107853395Y-101324267D01*
X107852903Y-101325579D01*
X107852344Y-101326860D01*
X107851720Y-101328111D01*
X107851030Y-101329332D01*
X107850274Y-101330524D01*
X107849453Y-101331685D01*
X107848565Y-101332816D01*
X107847613Y-101333917D01*
X107846594Y-101334989D01*
X107845524Y-101336007D01*
X107844418Y-101336960D01*
X107843275Y-101337847D01*
X107842096Y-101338668D01*
X107840879Y-101339424D01*
X107839627Y-101340114D01*
X107838337Y-101340738D01*
X107837011Y-101341297D01*
X107835648Y-101341789D01*
X107834249Y-101342216D01*
X107832812Y-101342578D01*
X107831340Y-101342873D01*
X107829830Y-101343103D01*
X107828285Y-101343268D01*
X107826702Y-101343366D01*
X107825083Y-101343399D01*
X107823934Y-101343387D01*
X107822813Y-101343351D01*
X107821720Y-101343291D01*
X107820655Y-101343207D01*
X107819617Y-101343099D01*
X107818608Y-101342966D01*
X107817626Y-101342810D01*
X107816672Y-101342630D01*
X107814792Y-101342243D01*
X107813011Y-101341851D01*
X107811329Y-101341452D01*
X107809745Y-101341047D01*
X107711410Y-101334912D01*
X107711410Y-101710609D01*
X107711410Y-102116218D01*
G37*
G36*
X108692404Y-102011782D02*
G01*
X108692215Y-102021550D01*
X108691648Y-102031072D01*
X108690703Y-102040348D01*
X108689379Y-102049378D01*
X108687678Y-102058162D01*
X108685598Y-102066700D01*
X108683141Y-102074992D01*
X108680305Y-102083037D01*
X108677091Y-102090837D01*
X108673500Y-102098390D01*
X108669530Y-102105697D01*
X108665181Y-102112759D01*
X108660455Y-102119574D01*
X108655351Y-102126143D01*
X108649868Y-102132465D01*
X108644008Y-102138542D01*
X108637811Y-102144217D01*
X108631320Y-102149525D01*
X108624535Y-102154468D01*
X108617456Y-102159045D01*
X108610083Y-102163255D01*
X108602416Y-102167099D01*
X108594454Y-102170577D01*
X108586199Y-102173689D01*
X108577649Y-102176435D01*
X108568805Y-102178815D01*
X108559667Y-102180829D01*
X108550235Y-102182477D01*
X108540508Y-102183758D01*
X108530488Y-102184673D01*
X108520173Y-102185223D01*
X108509565Y-102185406D01*
X108499625Y-102185295D01*
X108489781Y-102184961D01*
X108480034Y-102184406D01*
X108470382Y-102183629D01*
X108460827Y-102182629D01*
X108451368Y-102181408D01*
X108442005Y-102179964D01*
X108432738Y-102178298D01*
X108423567Y-102176410D01*
X108414492Y-102174300D01*
X108405513Y-102171968D01*
X108396631Y-102169414D01*
X108387844Y-102166638D01*
X108379154Y-102163640D01*
X108370559Y-102160419D01*
X108362061Y-102156977D01*
X108353634Y-102153369D01*
X108345447Y-102149653D01*
X108337501Y-102145830D01*
X108329794Y-102141898D01*
X108322328Y-102137859D01*
X108315102Y-102133711D01*
X108308115Y-102129456D01*
X108301369Y-102125092D01*
X108294863Y-102120621D01*
X108288597Y-102116041D01*
X108282571Y-102111354D01*
X108276785Y-102106558D01*
X108271240Y-102101655D01*
X108265934Y-102096644D01*
X108260868Y-102091524D01*
X108256043Y-102086297D01*
X108254823Y-102092977D01*
X108253466Y-102099380D01*
X108251970Y-102105508D01*
X108250336Y-102111359D01*
X108248563Y-102116934D01*
X108246652Y-102122234D01*
X108244603Y-102127257D01*
X108242415Y-102132004D01*
X108240089Y-102136475D01*
X108237625Y-102140670D01*
X108235023Y-102144589D01*
X108232282Y-102148232D01*
X108229403Y-102151599D01*
X108226385Y-102154690D01*
X108223230Y-102157505D01*
X108219936Y-102160044D01*
X108216527Y-102162276D01*
X108213022Y-102164364D01*
X108209422Y-102166308D01*
X108205725Y-102168108D01*
X108201932Y-102169765D01*
X108198043Y-102171277D01*
X108194058Y-102172645D01*
X108189977Y-102173869D01*
X108185799Y-102174949D01*
X108181526Y-102175886D01*
X108177156Y-102176678D01*
X108172691Y-102177326D01*
X108168129Y-102177830D01*
X108163472Y-102178190D01*
X108158718Y-102178406D01*
X108153868Y-102178478D01*
X108149558Y-102178421D01*
X108145273Y-102178250D01*
X108141011Y-102177965D01*
X108136773Y-102177566D01*
X108132560Y-102177053D01*
X108128371Y-102176426D01*
X108124205Y-102175685D01*
X108120064Y-102174830D01*
X108115947Y-102173860D01*
X108111854Y-102172777D01*
X108107784Y-102171580D01*
X108103739Y-102170269D01*
X108099718Y-102168843D01*
X108095721Y-102167304D01*
X108091748Y-102165651D01*
X108087799Y-102163883D01*
X108083796Y-102161920D01*
X108079853Y-102159874D01*
X108075970Y-102157743D01*
X108072146Y-102155528D01*
X108068383Y-102153230D01*
X108064680Y-102150847D01*
X108061037Y-102148381D01*
X108057454Y-102145830D01*
X108053932Y-102143196D01*
X108050469Y-102140477D01*
X108047066Y-102137675D01*
X108043723Y-102134789D01*
X108040441Y-102131818D01*
X108037218Y-102128764D01*
X108034055Y-102125626D01*
X108030953Y-102122404D01*
X108030018Y-102121424D01*
X108029144Y-102120415D01*
X108028329Y-102119377D01*
X108027576Y-102118309D01*
X108026882Y-102117212D01*
X108026249Y-102116085D01*
X108025676Y-102114929D01*
X108025164Y-102113743D01*
X108024712Y-102112528D01*
X108024320Y-102111283D01*
X108023988Y-102110009D01*
X108023717Y-102108706D01*
X108023506Y-102107373D01*
X108023355Y-102106011D01*
X108023265Y-102104619D01*
X108023235Y-102103198D01*
X108023267Y-102101671D01*
X108023366Y-102100161D01*
X108023530Y-102098670D01*
X108023760Y-102097197D01*
X108024056Y-102095741D01*
X108024417Y-102094304D01*
X108024844Y-102092884D01*
X108025337Y-102091483D01*
X108025896Y-102090099D01*
X108026520Y-102088733D01*
X108027210Y-102087385D01*
X108027966Y-102086055D01*
X108028787Y-102084743D01*
X108029674Y-102083449D01*
X108030627Y-102082173D01*
X108031645Y-102080914D01*
X108032709Y-102079705D01*
X108033797Y-102078575D01*
X108034910Y-102077522D01*
X108036048Y-102076547D01*
X108037210Y-102075650D01*
X108038397Y-102074831D01*
X108039609Y-102074090D01*
X108040845Y-102073427D01*
X108042106Y-102072842D01*
X108043392Y-102072334D01*
X108044702Y-102071905D01*
X108046037Y-102071554D01*
X108047397Y-102071281D01*
X108048781Y-102071086D01*
X108050190Y-102070969D01*
X108051624Y-102070930D01*
X108052865Y-102070966D01*
X108054095Y-102071074D01*
X108055313Y-102071254D01*
X108056519Y-102071506D01*
X108057714Y-102071829D01*
X108058896Y-102072225D01*
X108060066Y-102072692D01*
X108061224Y-102073231D01*
X108062370Y-102073842D01*
X108063504Y-102074525D01*
X108064626Y-102075280D01*
X108065737Y-102076107D01*
X108066835Y-102077005D01*
X108067921Y-102077976D01*
X108068996Y-102079018D01*
X108070058Y-102080132D01*
X108071727Y-102081856D01*
X108073467Y-102083567D01*
X108075280Y-102085266D01*
X108077164Y-102086953D01*
X108079121Y-102088628D01*
X108081149Y-102090291D01*
X108083250Y-102091941D01*
X108085422Y-102093580D01*
X108087667Y-102095207D01*
X108089983Y-102096821D01*
X108092371Y-102098424D01*
X108094832Y-102100014D01*
X108097364Y-102101593D01*
X108099968Y-102103159D01*
X108102644Y-102104713D01*
X108105393Y-102106255D01*
X108108169Y-102107651D01*
X108110928Y-102108957D01*
X108113668Y-102110173D01*
X108116390Y-102111299D01*
X108119094Y-102112334D01*
X108121780Y-102113280D01*
X108124448Y-102114135D01*
X108127097Y-102114901D01*
X108129729Y-102115576D01*
X108132343Y-102116162D01*
X108134938Y-102116657D01*
X108137515Y-102117062D01*
X108140075Y-102117377D01*
X108142616Y-102117602D01*
X108145139Y-102117737D01*
X108147644Y-102117783D01*
X108149918Y-102117747D01*
X108152133Y-102117639D01*
X108154287Y-102117459D01*
X108156381Y-102117207D01*
X108158416Y-102116884D01*
X108160390Y-102116489D01*
X108162304Y-102116021D01*
X108164159Y-102115482D01*
X108165953Y-102114871D01*
X108167687Y-102114188D01*
X108169362Y-102113433D01*
X108170976Y-102112607D01*
X108172531Y-102111708D01*
X108174025Y-102110737D01*
X108175460Y-102109695D01*
X108176834Y-102108581D01*
X108177496Y-102107940D01*
X108178137Y-102107267D01*
X108179355Y-102105820D01*
X108180490Y-102104242D01*
X108181540Y-102102532D01*
X108182506Y-102100689D01*
X108183389Y-102098715D01*
X108184187Y-102096608D01*
X108184901Y-102094369D01*
X108185531Y-102091998D01*
X108186077Y-102089495D01*
X108186540Y-102086860D01*
X108186918Y-102084092D01*
X108187212Y-102081193D01*
X108187422Y-102078161D01*
X108187548Y-102074998D01*
X108187590Y-102071702D01*
X108187590Y-101865025D01*
X108261414Y-101865025D01*
X108261418Y-102027896D01*
X108266697Y-102033300D01*
X108272162Y-102038566D01*
X108277813Y-102043694D01*
X108283650Y-102048685D01*
X108289673Y-102053537D01*
X108295882Y-102058251D01*
X108302277Y-102062827D01*
X108308858Y-102067266D01*
X108315626Y-102071566D01*
X108322579Y-102075728D01*
X108329718Y-102079752D01*
X108337043Y-102083639D01*
X108344554Y-102087387D01*
X108352251Y-102090997D01*
X108360134Y-102094470D01*
X108368203Y-102097804D01*
X108376285Y-102100874D01*
X108384397Y-102103746D01*
X108392539Y-102106420D01*
X108400710Y-102108895D01*
X108408912Y-102111173D01*
X108417144Y-102113253D01*
X108425406Y-102115134D01*
X108433697Y-102116818D01*
X108442019Y-102118303D01*
X108450370Y-102119590D01*
X108458752Y-102120680D01*
X108467163Y-102121571D01*
X108475605Y-102122264D01*
X108484076Y-102122759D01*
X108492578Y-102123056D01*
X108501109Y-102123156D01*
X108507654Y-102123053D01*
X108514037Y-102122747D01*
X108520258Y-102122237D01*
X108526317Y-102121523D01*
X108532214Y-102120604D01*
X108537948Y-102119482D01*
X108543521Y-102118155D01*
X108548932Y-102116625D01*
X108554181Y-102114890D01*
X108559267Y-102112951D01*
X108564192Y-102110808D01*
X108568954Y-102108461D01*
X108573555Y-102105910D01*
X108577993Y-102103155D01*
X108582270Y-102100196D01*
X108586384Y-102097032D01*
X108590198Y-102093549D01*
X108593766Y-102089819D01*
X108597088Y-102085843D01*
X108600163Y-102081621D01*
X108602993Y-102077153D01*
X108605577Y-102072439D01*
X108607914Y-102067479D01*
X108610006Y-102062272D01*
X108611851Y-102056819D01*
X108613451Y-102051120D01*
X108614804Y-102045175D01*
X108615912Y-102038984D01*
X108616773Y-102032547D01*
X108617388Y-102025864D01*
X108617757Y-102018934D01*
X108617880Y-102011759D01*
X108617736Y-102005138D01*
X108617304Y-101998722D01*
X108616583Y-101992510D01*
X108615575Y-101986502D01*
X108614278Y-101980698D01*
X108612694Y-101975098D01*
X108610821Y-101969702D01*
X108608660Y-101964510D01*
X108606211Y-101959523D01*
X108603474Y-101954739D01*
X108600449Y-101950159D01*
X108597135Y-101945784D01*
X108593534Y-101941612D01*
X108589645Y-101937645D01*
X108585467Y-101933882D01*
X108581001Y-101930323D01*
X108576293Y-101926931D01*
X108571386Y-101923672D01*
X108566281Y-101920545D01*
X108560978Y-101917550D01*
X108555478Y-101914687D01*
X108549779Y-101911957D01*
X108543882Y-101909358D01*
X108537787Y-101906891D01*
X108531494Y-101904556D01*
X108525003Y-101902354D01*
X108518313Y-101900283D01*
X108511426Y-101898345D01*
X108504341Y-101896538D01*
X108497058Y-101894864D01*
X108489577Y-101893321D01*
X108481898Y-101891910D01*
X108465163Y-101889017D01*
X108446460Y-101886099D01*
X108425789Y-101883157D01*
X108403150Y-101880192D01*
X108351966Y-101874190D01*
X108292909Y-101868093D01*
X108261414Y-101865025D01*
X108187590Y-101865025D01*
X108187590Y-101831994D01*
X108187902Y-101809067D01*
X108188839Y-101787148D01*
X108190399Y-101766237D01*
X108192584Y-101746335D01*
X108195394Y-101727441D01*
X108198828Y-101709555D01*
X108202886Y-101692678D01*
X108207568Y-101676808D01*
X108210186Y-101669144D01*
X108213043Y-101661707D01*
X108216140Y-101654499D01*
X108219478Y-101647519D01*
X108223055Y-101640767D01*
X108226873Y-101634243D01*
X108230930Y-101627947D01*
X108235227Y-101621879D01*
X108239765Y-101616039D01*
X108244542Y-101610428D01*
X108249560Y-101605044D01*
X108254817Y-101599889D01*
X108260315Y-101594962D01*
X108266053Y-101590263D01*
X108272030Y-101585792D01*
X108278248Y-101581550D01*
X108284641Y-101577550D01*
X108291333Y-101573809D01*
X108298326Y-101570325D01*
X108305619Y-101567100D01*
X108313211Y-101564132D01*
X108321104Y-101561423D01*
X108329297Y-101558972D01*
X108337789Y-101556778D01*
X108346582Y-101554843D01*
X108355675Y-101553166D01*
X108365068Y-101551747D01*
X108374761Y-101550585D01*
X108384754Y-101549682D01*
X108395047Y-101549037D01*
X108405640Y-101548650D01*
X108416533Y-101548521D01*
X108435846Y-101548845D01*
X108454608Y-101549817D01*
X108472817Y-101551437D01*
X108490475Y-101553706D01*
X108507580Y-101556622D01*
X108524134Y-101560187D01*
X108540135Y-101564400D01*
X108555585Y-101569261D01*
X108563066Y-101571916D01*
X108570337Y-101574698D01*
X108577398Y-101577605D01*
X108584248Y-101580639D01*
X108590889Y-101583799D01*
X108597320Y-101587085D01*
X108603541Y-101590497D01*
X108609552Y-101594035D01*
X108615353Y-101597700D01*
X108620944Y-101601490D01*
X108626325Y-101605406D01*
X108631497Y-101609449D01*
X108636458Y-101613617D01*
X108641209Y-101617912D01*
X108645750Y-101622333D01*
X108650082Y-101626880D01*
X108654175Y-101631525D01*
X108658004Y-101636243D01*
X108661569Y-101641033D01*
X108664870Y-101645894D01*
X108667906Y-101650828D01*
X108670679Y-101655833D01*
X108673188Y-101660911D01*
X108675432Y-101666060D01*
X108677413Y-101671282D01*
X108679129Y-101676576D01*
X108680582Y-101681941D01*
X108681770Y-101687379D01*
X108682695Y-101692888D01*
X108683355Y-101698470D01*
X108683751Y-101704123D01*
X108683883Y-101709848D01*
X108683838Y-101712885D01*
X108683703Y-101715849D01*
X108683478Y-101718742D01*
X108683162Y-101721563D01*
X108682757Y-101724311D01*
X108682262Y-101726988D01*
X108681676Y-101729592D01*
X108681001Y-101732125D01*
X108680236Y-101734586D01*
X108679380Y-101736974D01*
X108678434Y-101739291D01*
X108677399Y-101741536D01*
X108676273Y-101743709D01*
X108675057Y-101745809D01*
X108673751Y-101747838D01*
X108672355Y-101749795D01*
X108670780Y-101751656D01*
X108669126Y-101753396D01*
X108667395Y-101755017D01*
X108665586Y-101756518D01*
X108663698Y-101757898D01*
X108661733Y-101759159D01*
X108659689Y-101760299D01*
X108657567Y-101761320D01*
X108655368Y-101762220D01*
X108653090Y-101763001D01*
X108650734Y-101763661D01*
X108648300Y-101764201D01*
X108645787Y-101764621D01*
X108643197Y-101764921D01*
X108640529Y-101765101D01*
X108637782Y-101765161D01*
X108636165Y-101765132D01*
X108634577Y-101765044D01*
X108633019Y-101764898D01*
X108631492Y-101764693D01*
X108629994Y-101764430D01*
X108628527Y-101764108D01*
X108627089Y-101763728D01*
X108625682Y-101763289D01*
X108624304Y-101762791D01*
X108622957Y-101762235D01*
X108621639Y-101761621D01*
X108620352Y-101760948D01*
X108619094Y-101760216D01*
X108617867Y-101759426D01*
X108616669Y-101758578D01*
X108615502Y-101757671D01*
X108614364Y-101756705D01*
X108613257Y-101755681D01*
X108612180Y-101754598D01*
X108611132Y-101753457D01*
X108610115Y-101752258D01*
X108609128Y-101750999D01*
X108607243Y-101748307D01*
X108605478Y-101745381D01*
X108603834Y-101742221D01*
X108602309Y-101738827D01*
X108600905Y-101735199D01*
X108599590Y-101731340D01*
X108598335Y-101727252D01*
X108597141Y-101722937D01*
X108596006Y-101718393D01*
X108594932Y-101713622D01*
X108593917Y-101708622D01*
X108592068Y-101697939D01*
X108590459Y-101686344D01*
X108589090Y-101673836D01*
X108587961Y-101660417D01*
X108587072Y-101646085D01*
X108576904Y-101641644D01*
X108566761Y-101637539D01*
X108556642Y-101633770D01*
X108546547Y-101630337D01*
X108536476Y-101627240D01*
X108526429Y-101624478D01*
X108516406Y-101622052D01*
X108506407Y-101619963D01*
X108496108Y-101617991D01*
X108485569Y-101616283D01*
X108474789Y-101614837D01*
X108463770Y-101613655D01*
X108452511Y-101612735D01*
X108441011Y-101612078D01*
X108429272Y-101611684D01*
X108417293Y-101611552D01*
X108406738Y-101611738D01*
X108396586Y-101612296D01*
X108386836Y-101613227D01*
X108377487Y-101614529D01*
X108368541Y-101616204D01*
X108359998Y-101618251D01*
X108351856Y-101620669D01*
X108344117Y-101623460D01*
X108336779Y-101626624D01*
X108329844Y-101630159D01*
X108323311Y-101634066D01*
X108317180Y-101638346D01*
X108311452Y-101642997D01*
X108306125Y-101648021D01*
X108301201Y-101653417D01*
X108296679Y-101659185D01*
X108292400Y-101665305D01*
X108288397Y-101671754D01*
X108284670Y-101678534D01*
X108281220Y-101685643D01*
X108278045Y-101693083D01*
X108275146Y-101700852D01*
X108272524Y-101708952D01*
X108270177Y-101717382D01*
X108268107Y-101726141D01*
X108266312Y-101735231D01*
X108264794Y-101744651D01*
X108263552Y-101754401D01*
X108262585Y-101764481D01*
X108261895Y-101774891D01*
X108261481Y-101785631D01*
X108261343Y-101796701D01*
X108261418Y-101812018D01*
X108317501Y-101815877D01*
X108376944Y-101820376D01*
X108430050Y-101825461D01*
X108454226Y-101828223D01*
X108476817Y-101831132D01*
X108497824Y-101834187D01*
X108517246Y-101837389D01*
X108526375Y-101839130D01*
X108535323Y-101841086D01*
X108544092Y-101843259D01*
X108552680Y-101845648D01*
X108561088Y-101848253D01*
X108569317Y-101851074D01*
X108577365Y-101854111D01*
X108585234Y-101857364D01*
X108592922Y-101860833D01*
X108600431Y-101864518D01*
X108607759Y-101868420D01*
X108614908Y-101872537D01*
X108621876Y-101876871D01*
X108628665Y-101881420D01*
X108635273Y-101886186D01*
X108641702Y-101891168D01*
X108647842Y-101896410D01*
X108653585Y-101901959D01*
X108658933Y-101907814D01*
X108663884Y-101913975D01*
X108668439Y-101920442D01*
X108672598Y-101927215D01*
X108676361Y-101934295D01*
X108679728Y-101941680D01*
X108682699Y-101949371D01*
X108685274Y-101957369D01*
X108687453Y-101965672D01*
X108689235Y-101974282D01*
X108690621Y-101983198D01*
X108691612Y-101992420D01*
X108692206Y-102001948D01*
X108692404Y-102011759D01*
X108692404Y-102011782D01*
G37*
G36*
X109152667Y-101549025D02*
G01*
X109177887Y-101550601D01*
X109202122Y-101553227D01*
X109225374Y-101556903D01*
X109247641Y-101561629D01*
X109268924Y-101567406D01*
X109289222Y-101574233D01*
X109308536Y-101582111D01*
X109326866Y-101591039D01*
X109344212Y-101601017D01*
X109360573Y-101612046D01*
X109375950Y-101624125D01*
X109390342Y-101637254D01*
X109403751Y-101651433D01*
X109416175Y-101666663D01*
X109427614Y-101682943D01*
X109430682Y-101603041D01*
X109430959Y-101597831D01*
X109431403Y-101592957D01*
X109431689Y-101590647D01*
X109432016Y-101588420D01*
X109432386Y-101586277D01*
X109432798Y-101584219D01*
X109433252Y-101582244D01*
X109433748Y-101580353D01*
X109434286Y-101578546D01*
X109434866Y-101576824D01*
X109435489Y-101575185D01*
X109436153Y-101573630D01*
X109436860Y-101572160D01*
X109437609Y-101570773D01*
X109437954Y-101570111D01*
X109438322Y-101569471D01*
X109438713Y-101568851D01*
X109439126Y-101568252D01*
X109439562Y-101567674D01*
X109440020Y-101567118D01*
X109440501Y-101566582D01*
X109441005Y-101566067D01*
X109441532Y-101565574D01*
X109442081Y-101565101D01*
X109442652Y-101564649D01*
X109443247Y-101564219D01*
X109443864Y-101563809D01*
X109444504Y-101563420D01*
X109445166Y-101563053D01*
X109445851Y-101562706D01*
X109446559Y-101562381D01*
X109447289Y-101562076D01*
X109448042Y-101561793D01*
X109448818Y-101561530D01*
X109449616Y-101561288D01*
X109450437Y-101561068D01*
X109451281Y-101560868D01*
X109452147Y-101560690D01*
X109453036Y-101560532D01*
X109453947Y-101560396D01*
X109454881Y-101560280D01*
X109455838Y-101560186D01*
X109456818Y-101560112D01*
X109457820Y-101560060D01*
X109459892Y-101560018D01*
X109461857Y-101560053D01*
X109463891Y-101560160D01*
X109465995Y-101560338D01*
X109468169Y-101560587D01*
X109470413Y-101560907D01*
X109472727Y-101561298D01*
X109475111Y-101561760D01*
X109477565Y-101562294D01*
X109608936Y-101588416D01*
X109610262Y-101588725D01*
X109611552Y-101589082D01*
X109612807Y-101589488D01*
X109614025Y-101589942D01*
X109615208Y-101590444D01*
X109616354Y-101590995D01*
X109617464Y-101591595D01*
X109618539Y-101592243D01*
X109619577Y-101592939D01*
X109620579Y-101593684D01*
X109621545Y-101594478D01*
X109622475Y-101595319D01*
X109623369Y-101596210D01*
X109624228Y-101597149D01*
X109625050Y-101598136D01*
X109625836Y-101599172D01*
X109626579Y-101600148D01*
X109627274Y-101601148D01*
X109627921Y-101602172D01*
X109628520Y-101603218D01*
X109629071Y-101604289D01*
X109629574Y-101605382D01*
X109630030Y-101606499D01*
X109630437Y-101607640D01*
X109630796Y-101608803D01*
X109631108Y-101609991D01*
X109631372Y-101611201D01*
X109631587Y-101612435D01*
X109631755Y-101613693D01*
X109631875Y-101614974D01*
X109631947Y-101616278D01*
X109631971Y-101617606D01*
X109631940Y-101619130D01*
X109631850Y-101620631D01*
X109631699Y-101622107D01*
X109631488Y-101623559D01*
X109631217Y-101624988D01*
X109630885Y-101626392D01*
X109630494Y-101627772D01*
X109630041Y-101629129D01*
X109629529Y-101630461D01*
X109628956Y-101631770D01*
X109628323Y-101633055D01*
X109627629Y-101634315D01*
X109626876Y-101635552D01*
X109626062Y-101636765D01*
X109625187Y-101637953D01*
X109624253Y-101639118D01*
X109623177Y-101640232D01*
X109622052Y-101641275D01*
X109620880Y-101642245D01*
X109619658Y-101643144D01*
X109618388Y-101643970D01*
X109617069Y-101644725D01*
X109615702Y-101645408D01*
X109614286Y-101646019D01*
X109612821Y-101646559D01*
X109611308Y-101647026D01*
X109609746Y-101647421D01*
X109608136Y-101647745D01*
X109606477Y-101647997D01*
X109604769Y-101648176D01*
X109603013Y-101648284D01*
X109601208Y-101648320D01*
X109599722Y-101648308D01*
X109598332Y-101648272D01*
X109597038Y-101648212D01*
X109595839Y-101648128D01*
X109594737Y-101648020D01*
X109593730Y-101647888D01*
X109592820Y-101647732D01*
X109592005Y-101647552D01*
X109498280Y-101628346D01*
X109498280Y-102110036D01*
X109638869Y-102110036D01*
X109640763Y-102110072D01*
X109642603Y-102110180D01*
X109644389Y-102110359D01*
X109646121Y-102110611D01*
X109647798Y-102110934D01*
X109649422Y-102111330D01*
X109650992Y-102111797D01*
X109652507Y-102112336D01*
X109653969Y-102112947D01*
X109655376Y-102113630D01*
X109656730Y-102114385D01*
X109658029Y-102115212D01*
X109659275Y-102116110D01*
X109660466Y-102117081D01*
X109661603Y-102118123D01*
X109662687Y-102119238D01*
X109663705Y-102120400D01*
X109664658Y-102121587D01*
X109665545Y-102122798D01*
X109666367Y-102124033D01*
X109667122Y-102125293D01*
X109667812Y-102126577D01*
X109668437Y-102127885D01*
X109668995Y-102129217D01*
X109669488Y-102130574D01*
X109669915Y-102131955D01*
X109670277Y-102133360D01*
X109670572Y-102134789D01*
X109670802Y-102136243D01*
X109670967Y-102137721D01*
X109671065Y-102139223D01*
X109671098Y-102140750D01*
X109671062Y-102142370D01*
X109670954Y-102143967D01*
X109670774Y-102145539D01*
X109670523Y-102147088D01*
X109670199Y-102148612D01*
X109669804Y-102150113D01*
X109669336Y-102151589D01*
X109668797Y-102153041D01*
X109668186Y-102154470D01*
X109667503Y-102155874D01*
X109666748Y-102157254D01*
X109665921Y-102158610D01*
X109665022Y-102159942D01*
X109664052Y-102161250D01*
X109663009Y-102162534D01*
X109661895Y-102163794D01*
X109660715Y-102164909D01*
X109659474Y-102165951D01*
X109658173Y-102166922D01*
X109656811Y-102167821D01*
X109655390Y-102168647D01*
X109653908Y-102169402D01*
X109652366Y-102170085D01*
X109650763Y-102170697D01*
X109649100Y-102171236D01*
X109647377Y-102171703D01*
X109645594Y-102172099D01*
X109643750Y-102172422D01*
X109641846Y-102172674D01*
X109639882Y-102172854D01*
X109637858Y-102172961D01*
X109635773Y-102172997D01*
X109167142Y-102172997D01*
X109165342Y-102172961D01*
X109163590Y-102172854D01*
X109161885Y-102172674D01*
X109160229Y-102172422D01*
X109158621Y-102172099D01*
X109157060Y-102171703D01*
X109155548Y-102171236D01*
X109154084Y-102170697D01*
X109152668Y-102170085D01*
X109151299Y-102169402D01*
X109149979Y-102168647D01*
X109148707Y-102167821D01*
X109147482Y-102166922D01*
X109146306Y-102165951D01*
X109145178Y-102164909D01*
X109144098Y-102163794D01*
X109143079Y-102162537D01*
X109142126Y-102161262D01*
X109141239Y-102159969D01*
X109140418Y-102158658D01*
X109139662Y-102157328D01*
X109138972Y-102155981D01*
X109138348Y-102154615D01*
X109137789Y-102153232D01*
X109137297Y-102151830D01*
X109136870Y-102150410D01*
X109136508Y-102148972D01*
X109136213Y-102147516D01*
X109135983Y-102146042D01*
X109135818Y-102144550D01*
X109135720Y-102143039D01*
X109135687Y-102141511D01*
X109135720Y-102139893D01*
X109135818Y-102138306D01*
X109135983Y-102136748D01*
X109136213Y-102135220D01*
X109136508Y-102133723D01*
X109136870Y-102132255D01*
X109137297Y-102130817D01*
X109137789Y-102129410D01*
X109138348Y-102128032D01*
X109138972Y-102126684D01*
X109139662Y-102125366D01*
X109140418Y-102124079D01*
X109141239Y-102122821D01*
X109142126Y-102121593D01*
X109143079Y-102120395D01*
X109144098Y-102119227D01*
X109145089Y-102118113D01*
X109146134Y-102117071D01*
X109147233Y-102116100D01*
X109148385Y-102115202D01*
X109149590Y-102114375D01*
X109150849Y-102113620D01*
X109152162Y-102112937D01*
X109153528Y-102112326D01*
X109154947Y-102111787D01*
X109156420Y-102111320D01*
X109157946Y-102110924D01*
X109159526Y-102110601D01*
X109161160Y-102110349D01*
X109162847Y-102110169D01*
X109164587Y-102110061D01*
X109166381Y-102110025D01*
X109424511Y-102110025D01*
X109424511Y-101768925D01*
X109420480Y-101759466D01*
X109416072Y-101750295D01*
X109411285Y-101741412D01*
X109406120Y-101732817D01*
X109400577Y-101724510D01*
X109394656Y-101716492D01*
X109388357Y-101708761D01*
X109381680Y-101701319D01*
X109374624Y-101694165D01*
X109367191Y-101687298D01*
X109359380Y-101680720D01*
X109351190Y-101674430D01*
X109342623Y-101668428D01*
X109333677Y-101662714D01*
X109324353Y-101657289D01*
X109314652Y-101652151D01*
X109304668Y-101647220D01*
X109294497Y-101642608D01*
X109284141Y-101638313D01*
X109273599Y-101634337D01*
X109262870Y-101630679D01*
X109251956Y-101627338D01*
X109240855Y-101624316D01*
X109229569Y-101621612D01*
X109218096Y-101619227D01*
X109206437Y-101617159D01*
X109194593Y-101615409D01*
X109182562Y-101613978D01*
X109170345Y-101612864D01*
X109157942Y-101612069D01*
X109145353Y-101611592D01*
X109132578Y-101611433D01*
X109132608Y-101703696D01*
X109132566Y-101706064D01*
X109132440Y-101708366D01*
X109132230Y-101710601D01*
X109131935Y-101712771D01*
X109131557Y-101714875D01*
X109131095Y-101716912D01*
X109130549Y-101718884D01*
X109129919Y-101720789D01*
X109129205Y-101722629D01*
X109128406Y-101724403D01*
X109127524Y-101726110D01*
X109126558Y-101727752D01*
X109125507Y-101729327D01*
X109124373Y-101730837D01*
X109123155Y-101732280D01*
X109121852Y-101733658D01*
X109120492Y-101734867D01*
X109119103Y-101735998D01*
X109117683Y-101737051D01*
X109116234Y-101738026D01*
X109114754Y-101738923D01*
X109113245Y-101739742D01*
X109111705Y-101740483D01*
X109110136Y-101741146D01*
X109108536Y-101741731D01*
X109106907Y-101742238D01*
X109105247Y-101742667D01*
X109103558Y-101743018D01*
X109101838Y-101743291D01*
X109100089Y-101743486D01*
X109098310Y-101743603D01*
X109096501Y-101743642D01*
X109094598Y-101743600D01*
X109092731Y-101743474D01*
X109090900Y-101743264D01*
X109089106Y-101742970D01*
X109087347Y-101742591D01*
X109085624Y-101742129D01*
X109083938Y-101741583D01*
X109082287Y-101740953D01*
X109080672Y-101740239D01*
X109079094Y-101739441D01*
X109077551Y-101738558D01*
X109076045Y-101737592D01*
X109074574Y-101736542D01*
X109073140Y-101735407D01*
X109071741Y-101734189D01*
X109070379Y-101732886D01*
X109068982Y-101731409D01*
X109067677Y-101729860D01*
X109066461Y-101728239D01*
X109065335Y-101726546D01*
X109064299Y-101724782D01*
X109063353Y-101722945D01*
X109062498Y-101721036D01*
X109061732Y-101719055D01*
X109061057Y-101717003D01*
X109060472Y-101714878D01*
X109059976Y-101712681D01*
X109059571Y-101710413D01*
X109059256Y-101708072D01*
X109059031Y-101705660D01*
X109058896Y-101703175D01*
X109058850Y-101700619D01*
X109058850Y-101594601D01*
X109058911Y-101591765D01*
X109059091Y-101589019D01*
X109059391Y-101586364D01*
X109059811Y-101583798D01*
X109060351Y-101581322D01*
X109061011Y-101578936D01*
X109061792Y-101576641D01*
X109062692Y-101574435D01*
X109063713Y-101572319D01*
X109064853Y-101570294D01*
X109066114Y-101568358D01*
X109067494Y-101566512D01*
X109068995Y-101564756D01*
X109070616Y-101563090D01*
X109072356Y-101561514D01*
X109074217Y-101560028D01*
X109076222Y-101558632D01*
X109078395Y-101557326D01*
X109080736Y-101556111D01*
X109083245Y-101554985D01*
X109085922Y-101553949D01*
X109088767Y-101553003D01*
X109091780Y-101552148D01*
X109094962Y-101551382D01*
X109098311Y-101550707D01*
X109101828Y-101550121D01*
X109105514Y-101549626D01*
X109109367Y-101549221D01*
X109113389Y-101548905D01*
X109117579Y-101548680D01*
X109121936Y-101548545D01*
X109126462Y-101548500D01*
X109152667Y-101549025D01*
G37*
D11*
X91691734Y-98814760D02*
X91215544Y-98814760D01*
X91786972Y-99100475D02*
X91453639Y-98100475D01*
X91453639Y-98100475D02*
X91120306Y-99100475D01*
X90453639Y-98576665D02*
X90310782Y-98624284D01*
X90310782Y-98624284D02*
X90263163Y-98671903D01*
X90263163Y-98671903D02*
X90215544Y-98767141D01*
X90215544Y-98767141D02*
X90215544Y-98909998D01*
X90215544Y-98909998D02*
X90263163Y-99005236D01*
X90263163Y-99005236D02*
X90310782Y-99052856D01*
X90310782Y-99052856D02*
X90406020Y-99100475D01*
X90406020Y-99100475D02*
X90786972Y-99100475D01*
X90786972Y-99100475D02*
X90786972Y-98100475D01*
X90786972Y-98100475D02*
X90453639Y-98100475D01*
X90453639Y-98100475D02*
X90358401Y-98148094D01*
X90358401Y-98148094D02*
X90310782Y-98195713D01*
X90310782Y-98195713D02*
X90263163Y-98290951D01*
X90263163Y-98290951D02*
X90263163Y-98386189D01*
X90263163Y-98386189D02*
X90310782Y-98481427D01*
X90310782Y-98481427D02*
X90358401Y-98529046D01*
X90358401Y-98529046D02*
X90453639Y-98576665D01*
X90453639Y-98576665D02*
X90786972Y-98576665D01*
X89786972Y-98719522D02*
X89025068Y-98719522D01*
X88596496Y-99052856D02*
X88453639Y-99100475D01*
X88453639Y-99100475D02*
X88215544Y-99100475D01*
X88215544Y-99100475D02*
X88120306Y-99052856D01*
X88120306Y-99052856D02*
X88072687Y-99005236D01*
X88072687Y-99005236D02*
X88025068Y-98909998D01*
X88025068Y-98909998D02*
X88025068Y-98814760D01*
X88025068Y-98814760D02*
X88072687Y-98719522D01*
X88072687Y-98719522D02*
X88120306Y-98671903D01*
X88120306Y-98671903D02*
X88215544Y-98624284D01*
X88215544Y-98624284D02*
X88406020Y-98576665D01*
X88406020Y-98576665D02*
X88501258Y-98529046D01*
X88501258Y-98529046D02*
X88548877Y-98481427D01*
X88548877Y-98481427D02*
X88596496Y-98386189D01*
X88596496Y-98386189D02*
X88596496Y-98290951D01*
X88596496Y-98290951D02*
X88548877Y-98195713D01*
X88548877Y-98195713D02*
X88501258Y-98148094D01*
X88501258Y-98148094D02*
X88406020Y-98100475D01*
X88406020Y-98100475D02*
X88167925Y-98100475D01*
X88167925Y-98100475D02*
X88025068Y-98148094D01*
X87691734Y-98100475D02*
X87453639Y-99100475D01*
X87453639Y-99100475D02*
X87263163Y-98386189D01*
X87263163Y-98386189D02*
X87072687Y-99100475D01*
X87072687Y-99100475D02*
X86834592Y-98100475D01*
X85120306Y-99100475D02*
X85453639Y-98624284D01*
X85691734Y-99100475D02*
X85691734Y-98100475D01*
X85691734Y-98100475D02*
X85310782Y-98100475D01*
X85310782Y-98100475D02*
X85215544Y-98148094D01*
X85215544Y-98148094D02*
X85167925Y-98195713D01*
X85167925Y-98195713D02*
X85120306Y-98290951D01*
X85120306Y-98290951D02*
X85120306Y-98433808D01*
X85120306Y-98433808D02*
X85167925Y-98529046D01*
X85167925Y-98529046D02*
X85215544Y-98576665D01*
X85215544Y-98576665D02*
X85310782Y-98624284D01*
X85310782Y-98624284D02*
X85691734Y-98624284D01*
X84310782Y-99052856D02*
X84406020Y-99100475D01*
X84406020Y-99100475D02*
X84596496Y-99100475D01*
X84596496Y-99100475D02*
X84691734Y-99052856D01*
X84691734Y-99052856D02*
X84739353Y-98957617D01*
X84739353Y-98957617D02*
X84739353Y-98576665D01*
X84739353Y-98576665D02*
X84691734Y-98481427D01*
X84691734Y-98481427D02*
X84596496Y-98433808D01*
X84596496Y-98433808D02*
X84406020Y-98433808D01*
X84406020Y-98433808D02*
X84310782Y-98481427D01*
X84310782Y-98481427D02*
X84263163Y-98576665D01*
X84263163Y-98576665D02*
X84263163Y-98671903D01*
X84263163Y-98671903D02*
X84739353Y-98767141D01*
X83929829Y-98433808D02*
X83691734Y-99100475D01*
X83691734Y-99100475D02*
X83453639Y-98433808D01*
X82358400Y-98814760D02*
X81882210Y-98814760D01*
X82453638Y-99100475D02*
X82120305Y-98100475D01*
X82120305Y-98100475D02*
X81786972Y-99100475D01*
X91691734Y-99805657D02*
X91644115Y-99758038D01*
X91644115Y-99758038D02*
X91548877Y-99710419D01*
X91548877Y-99710419D02*
X91310782Y-99710419D01*
X91310782Y-99710419D02*
X91215544Y-99758038D01*
X91215544Y-99758038D02*
X91167925Y-99805657D01*
X91167925Y-99805657D02*
X91120306Y-99900895D01*
X91120306Y-99900895D02*
X91120306Y-99996133D01*
X91120306Y-99996133D02*
X91167925Y-100138990D01*
X91167925Y-100138990D02*
X91739353Y-100710419D01*
X91739353Y-100710419D02*
X91120306Y-100710419D01*
X90501258Y-99710419D02*
X90406020Y-99710419D01*
X90406020Y-99710419D02*
X90310782Y-99758038D01*
X90310782Y-99758038D02*
X90263163Y-99805657D01*
X90263163Y-99805657D02*
X90215544Y-99900895D01*
X90215544Y-99900895D02*
X90167925Y-100091371D01*
X90167925Y-100091371D02*
X90167925Y-100329466D01*
X90167925Y-100329466D02*
X90215544Y-100519942D01*
X90215544Y-100519942D02*
X90263163Y-100615180D01*
X90263163Y-100615180D02*
X90310782Y-100662800D01*
X90310782Y-100662800D02*
X90406020Y-100710419D01*
X90406020Y-100710419D02*
X90501258Y-100710419D01*
X90501258Y-100710419D02*
X90596496Y-100662800D01*
X90596496Y-100662800D02*
X90644115Y-100615180D01*
X90644115Y-100615180D02*
X90691734Y-100519942D01*
X90691734Y-100519942D02*
X90739353Y-100329466D01*
X90739353Y-100329466D02*
X90739353Y-100091371D01*
X90739353Y-100091371D02*
X90691734Y-99900895D01*
X90691734Y-99900895D02*
X90644115Y-99805657D01*
X90644115Y-99805657D02*
X90596496Y-99758038D01*
X90596496Y-99758038D02*
X90501258Y-99710419D01*
X89786972Y-99805657D02*
X89739353Y-99758038D01*
X89739353Y-99758038D02*
X89644115Y-99710419D01*
X89644115Y-99710419D02*
X89406020Y-99710419D01*
X89406020Y-99710419D02*
X89310782Y-99758038D01*
X89310782Y-99758038D02*
X89263163Y-99805657D01*
X89263163Y-99805657D02*
X89215544Y-99900895D01*
X89215544Y-99900895D02*
X89215544Y-99996133D01*
X89215544Y-99996133D02*
X89263163Y-100138990D01*
X89263163Y-100138990D02*
X89834591Y-100710419D01*
X89834591Y-100710419D02*
X89215544Y-100710419D01*
X88358401Y-99710419D02*
X88548877Y-99710419D01*
X88548877Y-99710419D02*
X88644115Y-99758038D01*
X88644115Y-99758038D02*
X88691734Y-99805657D01*
X88691734Y-99805657D02*
X88786972Y-99948514D01*
X88786972Y-99948514D02*
X88834591Y-100138990D01*
X88834591Y-100138990D02*
X88834591Y-100519942D01*
X88834591Y-100519942D02*
X88786972Y-100615180D01*
X88786972Y-100615180D02*
X88739353Y-100662800D01*
X88739353Y-100662800D02*
X88644115Y-100710419D01*
X88644115Y-100710419D02*
X88453639Y-100710419D01*
X88453639Y-100710419D02*
X88358401Y-100662800D01*
X88358401Y-100662800D02*
X88310782Y-100615180D01*
X88310782Y-100615180D02*
X88263163Y-100519942D01*
X88263163Y-100519942D02*
X88263163Y-100281847D01*
X88263163Y-100281847D02*
X88310782Y-100186609D01*
X88310782Y-100186609D02*
X88358401Y-100138990D01*
X88358401Y-100138990D02*
X88453639Y-100091371D01*
X88453639Y-100091371D02*
X88644115Y-100091371D01*
X88644115Y-100091371D02*
X88739353Y-100138990D01*
X88739353Y-100138990D02*
X88786972Y-100186609D01*
X88786972Y-100186609D02*
X88834591Y-100281847D01*
X87834591Y-100329466D02*
X87072687Y-100329466D01*
X86406020Y-99710419D02*
X86310782Y-99710419D01*
X86310782Y-99710419D02*
X86215544Y-99758038D01*
X86215544Y-99758038D02*
X86167925Y-99805657D01*
X86167925Y-99805657D02*
X86120306Y-99900895D01*
X86120306Y-99900895D02*
X86072687Y-100091371D01*
X86072687Y-100091371D02*
X86072687Y-100329466D01*
X86072687Y-100329466D02*
X86120306Y-100519942D01*
X86120306Y-100519942D02*
X86167925Y-100615180D01*
X86167925Y-100615180D02*
X86215544Y-100662800D01*
X86215544Y-100662800D02*
X86310782Y-100710419D01*
X86310782Y-100710419D02*
X86406020Y-100710419D01*
X86406020Y-100710419D02*
X86501258Y-100662800D01*
X86501258Y-100662800D02*
X86548877Y-100615180D01*
X86548877Y-100615180D02*
X86596496Y-100519942D01*
X86596496Y-100519942D02*
X86644115Y-100329466D01*
X86644115Y-100329466D02*
X86644115Y-100091371D01*
X86644115Y-100091371D02*
X86596496Y-99900895D01*
X86596496Y-99900895D02*
X86548877Y-99805657D01*
X86548877Y-99805657D02*
X86501258Y-99758038D01*
X86501258Y-99758038D02*
X86406020Y-99710419D01*
X85739353Y-99710419D02*
X85072687Y-99710419D01*
X85072687Y-99710419D02*
X85501258Y-100710419D01*
X84691734Y-100329466D02*
X83929830Y-100329466D01*
X83501258Y-99805657D02*
X83453639Y-99758038D01*
X83453639Y-99758038D02*
X83358401Y-99710419D01*
X83358401Y-99710419D02*
X83120306Y-99710419D01*
X83120306Y-99710419D02*
X83025068Y-99758038D01*
X83025068Y-99758038D02*
X82977449Y-99805657D01*
X82977449Y-99805657D02*
X82929830Y-99900895D01*
X82929830Y-99900895D02*
X82929830Y-99996133D01*
X82929830Y-99996133D02*
X82977449Y-100138990D01*
X82977449Y-100138990D02*
X83548877Y-100710419D01*
X83548877Y-100710419D02*
X82929830Y-100710419D01*
X82310782Y-99710419D02*
X82215544Y-99710419D01*
X82215544Y-99710419D02*
X82120306Y-99758038D01*
X82120306Y-99758038D02*
X82072687Y-99805657D01*
X82072687Y-99805657D02*
X82025068Y-99900895D01*
X82025068Y-99900895D02*
X81977449Y-100091371D01*
X81977449Y-100091371D02*
X81977449Y-100329466D01*
X81977449Y-100329466D02*
X82025068Y-100519942D01*
X82025068Y-100519942D02*
X82072687Y-100615180D01*
X82072687Y-100615180D02*
X82120306Y-100662800D01*
X82120306Y-100662800D02*
X82215544Y-100710419D01*
X82215544Y-100710419D02*
X82310782Y-100710419D01*
X82310782Y-100710419D02*
X82406020Y-100662800D01*
X82406020Y-100662800D02*
X82453639Y-100615180D01*
X82453639Y-100615180D02*
X82501258Y-100519942D01*
X82501258Y-100519942D02*
X82548877Y-100329466D01*
X82548877Y-100329466D02*
X82548877Y-100091371D01*
X82548877Y-100091371D02*
X82501258Y-99900895D01*
X82501258Y-99900895D02*
X82453639Y-99805657D01*
X82453639Y-99805657D02*
X82406020Y-99758038D01*
X82406020Y-99758038D02*
X82310782Y-99710419D01*
X57866360Y-95392419D02*
X57675884Y-95392419D01*
X57675884Y-95392419D02*
X57580646Y-95440038D01*
X57580646Y-95440038D02*
X57485408Y-95535276D01*
X57485408Y-95535276D02*
X57437789Y-95725752D01*
X57437789Y-95725752D02*
X57437789Y-96059085D01*
X57437789Y-96059085D02*
X57485408Y-96249561D01*
X57485408Y-96249561D02*
X57580646Y-96344800D01*
X57580646Y-96344800D02*
X57675884Y-96392419D01*
X57675884Y-96392419D02*
X57866360Y-96392419D01*
X57866360Y-96392419D02*
X57961598Y-96344800D01*
X57961598Y-96344800D02*
X58056836Y-96249561D01*
X58056836Y-96249561D02*
X58104455Y-96059085D01*
X58104455Y-96059085D02*
X58104455Y-95725752D01*
X58104455Y-95725752D02*
X58056836Y-95535276D01*
X58056836Y-95535276D02*
X57961598Y-95440038D01*
X57961598Y-95440038D02*
X57866360Y-95392419D01*
X57009217Y-95392419D02*
X57009217Y-96201942D01*
X57009217Y-96201942D02*
X56961598Y-96297180D01*
X56961598Y-96297180D02*
X56913979Y-96344800D01*
X56913979Y-96344800D02*
X56818741Y-96392419D01*
X56818741Y-96392419D02*
X56628265Y-96392419D01*
X56628265Y-96392419D02*
X56533027Y-96344800D01*
X56533027Y-96344800D02*
X56485408Y-96297180D01*
X56485408Y-96297180D02*
X56437789Y-96201942D01*
X56437789Y-96201942D02*
X56437789Y-95392419D01*
X56104455Y-95392419D02*
X55533027Y-95392419D01*
X55818741Y-96392419D02*
X55818741Y-95392419D01*
X95644687Y-95966419D02*
X95978020Y-95490228D01*
X96216115Y-95966419D02*
X96216115Y-94966419D01*
X96216115Y-94966419D02*
X95835163Y-94966419D01*
X95835163Y-94966419D02*
X95739925Y-95014038D01*
X95739925Y-95014038D02*
X95692306Y-95061657D01*
X95692306Y-95061657D02*
X95644687Y-95156895D01*
X95644687Y-95156895D02*
X95644687Y-95299752D01*
X95644687Y-95299752D02*
X95692306Y-95394990D01*
X95692306Y-95394990D02*
X95739925Y-95442609D01*
X95739925Y-95442609D02*
X95835163Y-95490228D01*
X95835163Y-95490228D02*
X96216115Y-95490228D01*
X95216115Y-95442609D02*
X94882782Y-95442609D01*
X94739925Y-95966419D02*
X95216115Y-95966419D01*
X95216115Y-95966419D02*
X95216115Y-94966419D01*
X95216115Y-94966419D02*
X94739925Y-94966419D01*
X93739925Y-95871180D02*
X93787544Y-95918800D01*
X93787544Y-95918800D02*
X93930401Y-95966419D01*
X93930401Y-95966419D02*
X94025639Y-95966419D01*
X94025639Y-95966419D02*
X94168496Y-95918800D01*
X94168496Y-95918800D02*
X94263734Y-95823561D01*
X94263734Y-95823561D02*
X94311353Y-95728323D01*
X94311353Y-95728323D02*
X94358972Y-95537847D01*
X94358972Y-95537847D02*
X94358972Y-95394990D01*
X94358972Y-95394990D02*
X94311353Y-95204514D01*
X94311353Y-95204514D02*
X94263734Y-95109276D01*
X94263734Y-95109276D02*
X94168496Y-95014038D01*
X94168496Y-95014038D02*
X94025639Y-94966419D01*
X94025639Y-94966419D02*
X93930401Y-94966419D01*
X93930401Y-94966419D02*
X93787544Y-95014038D01*
X93787544Y-95014038D02*
X93739925Y-95061657D01*
X93454210Y-94966419D02*
X93120877Y-95966419D01*
X93120877Y-95966419D02*
X92787544Y-94966419D01*
X107920074Y-95918800D02*
X107777217Y-95966419D01*
X107777217Y-95966419D02*
X107539122Y-95966419D01*
X107539122Y-95966419D02*
X107443884Y-95918800D01*
X107443884Y-95918800D02*
X107396265Y-95871180D01*
X107396265Y-95871180D02*
X107348646Y-95775942D01*
X107348646Y-95775942D02*
X107348646Y-95680704D01*
X107348646Y-95680704D02*
X107396265Y-95585466D01*
X107396265Y-95585466D02*
X107443884Y-95537847D01*
X107443884Y-95537847D02*
X107539122Y-95490228D01*
X107539122Y-95490228D02*
X107729598Y-95442609D01*
X107729598Y-95442609D02*
X107824836Y-95394990D01*
X107824836Y-95394990D02*
X107872455Y-95347371D01*
X107872455Y-95347371D02*
X107920074Y-95252133D01*
X107920074Y-95252133D02*
X107920074Y-95156895D01*
X107920074Y-95156895D02*
X107872455Y-95061657D01*
X107872455Y-95061657D02*
X107824836Y-95014038D01*
X107824836Y-95014038D02*
X107729598Y-94966419D01*
X107729598Y-94966419D02*
X107491503Y-94966419D01*
X107491503Y-94966419D02*
X107348646Y-95014038D01*
X106920074Y-95442609D02*
X106586741Y-95442609D01*
X106443884Y-95966419D02*
X106920074Y-95966419D01*
X106920074Y-95966419D02*
X106920074Y-94966419D01*
X106920074Y-94966419D02*
X106443884Y-94966419D01*
X106015312Y-95966419D02*
X106015312Y-94966419D01*
X106015312Y-94966419D02*
X105443884Y-95966419D01*
X105443884Y-95966419D02*
X105443884Y-94966419D01*
X104967693Y-95966419D02*
X104967693Y-94966419D01*
X104967693Y-94966419D02*
X104729598Y-94966419D01*
X104729598Y-94966419D02*
X104586741Y-95014038D01*
X104586741Y-95014038D02*
X104491503Y-95109276D01*
X104491503Y-95109276D02*
X104443884Y-95204514D01*
X104443884Y-95204514D02*
X104396265Y-95394990D01*
X104396265Y-95394990D02*
X104396265Y-95537847D01*
X104396265Y-95537847D02*
X104443884Y-95728323D01*
X104443884Y-95728323D02*
X104491503Y-95823561D01*
X104491503Y-95823561D02*
X104586741Y-95918800D01*
X104586741Y-95918800D02*
X104729598Y-95966419D01*
X104729598Y-95966419D02*
X104967693Y-95966419D01*
X143968115Y-96651419D02*
X143968115Y-95651419D01*
X143491925Y-96651419D02*
X143491925Y-95651419D01*
X143491925Y-95651419D02*
X142920497Y-96651419D01*
X142920497Y-96651419D02*
X142920497Y-95651419D01*
X132190609Y-115873884D02*
X132190609Y-116207217D01*
X132714419Y-116350074D02*
X132714419Y-115873884D01*
X132714419Y-115873884D02*
X131714419Y-115873884D01*
X131714419Y-115873884D02*
X131714419Y-116350074D01*
X131714419Y-116683408D02*
X132714419Y-117350074D01*
X131714419Y-117350074D02*
X132714419Y-116683408D01*
X132714419Y-117731027D02*
X131714419Y-117731027D01*
X131714419Y-117731027D02*
X131714419Y-118111979D01*
X131714419Y-118111979D02*
X131762038Y-118207217D01*
X131762038Y-118207217D02*
X131809657Y-118254836D01*
X131809657Y-118254836D02*
X131904895Y-118302455D01*
X131904895Y-118302455D02*
X132047752Y-118302455D01*
X132047752Y-118302455D02*
X132142990Y-118254836D01*
X132142990Y-118254836D02*
X132190609Y-118207217D01*
X132190609Y-118207217D02*
X132238228Y-118111979D01*
X132238228Y-118111979D02*
X132238228Y-117731027D01*
X78394734Y-95343300D02*
X78251877Y-95390919D01*
X78251877Y-95390919D02*
X78013782Y-95390919D01*
X78013782Y-95390919D02*
X77918544Y-95343300D01*
X77918544Y-95343300D02*
X77870925Y-95295680D01*
X77870925Y-95295680D02*
X77823306Y-95200442D01*
X77823306Y-95200442D02*
X77823306Y-95105204D01*
X77823306Y-95105204D02*
X77870925Y-95009966D01*
X77870925Y-95009966D02*
X77918544Y-94962347D01*
X77918544Y-94962347D02*
X78013782Y-94914728D01*
X78013782Y-94914728D02*
X78204258Y-94867109D01*
X78204258Y-94867109D02*
X78299496Y-94819490D01*
X78299496Y-94819490D02*
X78347115Y-94771871D01*
X78347115Y-94771871D02*
X78394734Y-94676633D01*
X78394734Y-94676633D02*
X78394734Y-94581395D01*
X78394734Y-94581395D02*
X78347115Y-94486157D01*
X78347115Y-94486157D02*
X78299496Y-94438538D01*
X78299496Y-94438538D02*
X78204258Y-94390919D01*
X78204258Y-94390919D02*
X77966163Y-94390919D01*
X77966163Y-94390919D02*
X77823306Y-94438538D01*
X77537591Y-94390919D02*
X76966163Y-94390919D01*
X77251877Y-95390919D02*
X77251877Y-94390919D01*
X76442353Y-94390919D02*
X76251877Y-94390919D01*
X76251877Y-94390919D02*
X76156639Y-94438538D01*
X76156639Y-94438538D02*
X76061401Y-94533776D01*
X76061401Y-94533776D02*
X76013782Y-94724252D01*
X76013782Y-94724252D02*
X76013782Y-95057585D01*
X76013782Y-95057585D02*
X76061401Y-95248061D01*
X76061401Y-95248061D02*
X76156639Y-95343300D01*
X76156639Y-95343300D02*
X76251877Y-95390919D01*
X76251877Y-95390919D02*
X76442353Y-95390919D01*
X76442353Y-95390919D02*
X76537591Y-95343300D01*
X76537591Y-95343300D02*
X76632829Y-95248061D01*
X76632829Y-95248061D02*
X76680448Y-95057585D01*
X76680448Y-95057585D02*
X76680448Y-94724252D01*
X76680448Y-94724252D02*
X76632829Y-94533776D01*
X76632829Y-94533776D02*
X76537591Y-94438538D01*
X76537591Y-94438538D02*
X76442353Y-94390919D01*
X75585210Y-95390919D02*
X75585210Y-94390919D01*
X75585210Y-94390919D02*
X75251877Y-95105204D01*
X75251877Y-95105204D02*
X74918544Y-94390919D01*
X74918544Y-94390919D02*
X74918544Y-95390919D01*
X74442353Y-95390919D02*
X74442353Y-94390919D01*
X74442353Y-94390919D02*
X74061401Y-94390919D01*
X74061401Y-94390919D02*
X73966163Y-94438538D01*
X73966163Y-94438538D02*
X73918544Y-94486157D01*
X73918544Y-94486157D02*
X73870925Y-94581395D01*
X73870925Y-94581395D02*
X73870925Y-94724252D01*
X73870925Y-94724252D02*
X73918544Y-94819490D01*
X73918544Y-94819490D02*
X73966163Y-94867109D01*
X73966163Y-94867109D02*
X74061401Y-94914728D01*
X74061401Y-94914728D02*
X74442353Y-94914728D01*
X73489972Y-95343300D02*
X73347115Y-95390919D01*
X73347115Y-95390919D02*
X73109020Y-95390919D01*
X73109020Y-95390919D02*
X73013782Y-95343300D01*
X73013782Y-95343300D02*
X72966163Y-95295680D01*
X72966163Y-95295680D02*
X72918544Y-95200442D01*
X72918544Y-95200442D02*
X72918544Y-95105204D01*
X72918544Y-95105204D02*
X72966163Y-95009966D01*
X72966163Y-95009966D02*
X73013782Y-94962347D01*
X73013782Y-94962347D02*
X73109020Y-94914728D01*
X73109020Y-94914728D02*
X73299496Y-94867109D01*
X73299496Y-94867109D02*
X73394734Y-94819490D01*
X73394734Y-94819490D02*
X73442353Y-94771871D01*
X73442353Y-94771871D02*
X73489972Y-94676633D01*
X73489972Y-94676633D02*
X73489972Y-94581395D01*
X73489972Y-94581395D02*
X73442353Y-94486157D01*
X73442353Y-94486157D02*
X73394734Y-94438538D01*
X73394734Y-94438538D02*
X73299496Y-94390919D01*
X73299496Y-94390919D02*
X73061401Y-94390919D01*
X73061401Y-94390919D02*
X72918544Y-94438538D01*
X72585210Y-94390919D02*
X72347115Y-95390919D01*
X72347115Y-95390919D02*
X72156639Y-94676633D01*
X72156639Y-94676633D02*
X71966163Y-95390919D01*
X71966163Y-95390919D02*
X71728068Y-94390919D01*
X148639884Y-98552533D02*
X149401789Y-98552533D01*
X149020836Y-98171580D02*
X149020836Y-98933485D01*
D12*
X123189904Y-113246819D02*
X123189904Y-114056342D01*
X123189904Y-114056342D02*
X123142285Y-114151580D01*
X123142285Y-114151580D02*
X123094666Y-114199200D01*
X123094666Y-114199200D02*
X122999428Y-114246819D01*
X122999428Y-114246819D02*
X122808952Y-114246819D01*
X122808952Y-114246819D02*
X122713714Y-114199200D01*
X122713714Y-114199200D02*
X122666095Y-114151580D01*
X122666095Y-114151580D02*
X122618476Y-114056342D01*
X122618476Y-114056342D02*
X122618476Y-113246819D01*
X121713714Y-113580152D02*
X121713714Y-114246819D01*
X121951809Y-113199200D02*
X122189904Y-113913485D01*
X122189904Y-113913485D02*
X121570857Y-113913485D01*
X110997904Y-113246819D02*
X110997904Y-114056342D01*
X110997904Y-114056342D02*
X110950285Y-114151580D01*
X110950285Y-114151580D02*
X110902666Y-114199200D01*
X110902666Y-114199200D02*
X110807428Y-114246819D01*
X110807428Y-114246819D02*
X110616952Y-114246819D01*
X110616952Y-114246819D02*
X110521714Y-114199200D01*
X110521714Y-114199200D02*
X110474095Y-114151580D01*
X110474095Y-114151580D02*
X110426476Y-114056342D01*
X110426476Y-114056342D02*
X110426476Y-113246819D01*
X110045523Y-113246819D02*
X109426476Y-113246819D01*
X109426476Y-113246819D02*
X109759809Y-113627771D01*
X109759809Y-113627771D02*
X109616952Y-113627771D01*
X109616952Y-113627771D02*
X109521714Y-113675390D01*
X109521714Y-113675390D02*
X109474095Y-113723009D01*
X109474095Y-113723009D02*
X109426476Y-113818247D01*
X109426476Y-113818247D02*
X109426476Y-114056342D01*
X109426476Y-114056342D02*
X109474095Y-114151580D01*
X109474095Y-114151580D02*
X109521714Y-114199200D01*
X109521714Y-114199200D02*
X109616952Y-114246819D01*
X109616952Y-114246819D02*
X109902666Y-114246819D01*
X109902666Y-114246819D02*
X109997904Y-114199200D01*
X109997904Y-114199200D02*
X110045523Y-114151580D01*
D13*
%TO.C,J1*%
X130538000Y-115214000D02*
X133458000Y-115214000D01*
X130538000Y-106314000D02*
X130538000Y-115214000D01*
X130538000Y-106274000D02*
X133458000Y-106274000D01*
X133458000Y-119964000D02*
X137588000Y-119964000D01*
X133458000Y-115214000D02*
X133458000Y-119964000D01*
X133458000Y-101524000D02*
X133458000Y-106274000D01*
X137588000Y-101524000D02*
X133458000Y-101524000D01*
X140288000Y-119964000D02*
X143888000Y-119964000D01*
X143888000Y-101524000D02*
X140288000Y-101524000D01*
X146688000Y-119964000D02*
X150288000Y-119964000D01*
X150288000Y-101524000D02*
X146688000Y-101524000D01*
X154308000Y-119964000D02*
X152988000Y-119964000D01*
X154308000Y-116564000D02*
X154308000Y-119964000D01*
X154308000Y-116564000D02*
X157938000Y-116564000D01*
X154308000Y-104924000D02*
X157938000Y-104924000D01*
X154308000Y-101524000D02*
X152988000Y-101524000D01*
X154308000Y-101524000D02*
X154308000Y-104924000D01*
X157938000Y-104924000D02*
X157938000Y-116564000D01*
%TO.C,J7*%
X67462000Y-97631000D02*
X67462000Y-94711000D01*
X58562000Y-97631000D02*
X67462000Y-97631000D01*
X58522000Y-97631000D02*
X58522000Y-94711000D01*
X72212000Y-94711000D02*
X72212000Y-90581000D01*
X67462000Y-94711000D02*
X72212000Y-94711000D01*
X53772000Y-94711000D02*
X58522000Y-94711000D01*
X53772000Y-90581000D02*
X53772000Y-94711000D01*
X72212000Y-87881000D02*
X72212000Y-84281000D01*
X53772000Y-84281000D02*
X53772000Y-87881000D01*
X72212000Y-81481000D02*
X72212000Y-77881000D01*
X53772000Y-77881000D02*
X53772000Y-81481000D01*
X72212000Y-73861000D02*
X72212000Y-75181000D01*
X68812000Y-73861000D02*
X72212000Y-73861000D01*
X68812000Y-73861000D02*
X68812000Y-70231000D01*
X57172000Y-73861000D02*
X57172000Y-70231000D01*
X53772000Y-73861000D02*
X53772000Y-75181000D01*
X53772000Y-73861000D02*
X57172000Y-73861000D01*
X57172000Y-70231000D02*
X68812000Y-70231000D01*
%TO.C,J6*%
X92341000Y-97554000D02*
X92341000Y-94634000D01*
X83441000Y-97554000D02*
X92341000Y-97554000D01*
X83401000Y-97554000D02*
X83401000Y-94634000D01*
X97091000Y-94634000D02*
X97091000Y-90504000D01*
X92341000Y-94634000D02*
X97091000Y-94634000D01*
X78651000Y-94634000D02*
X83401000Y-94634000D01*
X78651000Y-90504000D02*
X78651000Y-94634000D01*
X97091000Y-87804000D02*
X97091000Y-84204000D01*
X78651000Y-84204000D02*
X78651000Y-87804000D01*
X97091000Y-81404000D02*
X97091000Y-77804000D01*
X78651000Y-77804000D02*
X78651000Y-81404000D01*
X97091000Y-73784000D02*
X97091000Y-75104000D01*
X93691000Y-73784000D02*
X97091000Y-73784000D01*
X93691000Y-73784000D02*
X93691000Y-70154000D01*
X82051000Y-73784000D02*
X82051000Y-70154000D01*
X78651000Y-73784000D02*
X78651000Y-75104000D01*
X78651000Y-73784000D02*
X82051000Y-73784000D01*
X82051000Y-70154000D02*
X93691000Y-70154000D01*
%TO.C,J2*%
X142125000Y-97554000D02*
X142125000Y-94634000D01*
X133225000Y-97554000D02*
X142125000Y-97554000D01*
X133185000Y-97554000D02*
X133185000Y-94634000D01*
X146875000Y-94634000D02*
X146875000Y-90504000D01*
X142125000Y-94634000D02*
X146875000Y-94634000D01*
X128435000Y-94634000D02*
X133185000Y-94634000D01*
X128435000Y-90504000D02*
X128435000Y-94634000D01*
X146875000Y-87804000D02*
X146875000Y-84204000D01*
X128435000Y-84204000D02*
X128435000Y-87804000D01*
X146875000Y-81404000D02*
X146875000Y-77804000D01*
X128435000Y-77804000D02*
X128435000Y-81404000D01*
X146875000Y-73784000D02*
X146875000Y-75104000D01*
X143475000Y-73784000D02*
X146875000Y-73784000D01*
X143475000Y-73784000D02*
X143475000Y-70154000D01*
X131835000Y-73784000D02*
X131835000Y-70154000D01*
X128435000Y-73784000D02*
X128435000Y-75104000D01*
X128435000Y-73784000D02*
X131835000Y-73784000D01*
X131835000Y-70154000D02*
X143475000Y-70154000D01*
%TO.C,J4*%
X117233000Y-97554000D02*
X117233000Y-94634000D01*
X108333000Y-97554000D02*
X117233000Y-97554000D01*
X108293000Y-97554000D02*
X108293000Y-94634000D01*
X121983000Y-94634000D02*
X121983000Y-90504000D01*
X117233000Y-94634000D02*
X121983000Y-94634000D01*
X103543000Y-94634000D02*
X108293000Y-94634000D01*
X103543000Y-90504000D02*
X103543000Y-94634000D01*
X121983000Y-87804000D02*
X121983000Y-84204000D01*
X103543000Y-84204000D02*
X103543000Y-87804000D01*
X121983000Y-81404000D02*
X121983000Y-77804000D01*
X103543000Y-77804000D02*
X103543000Y-81404000D01*
X121983000Y-73784000D02*
X121983000Y-75104000D01*
X118583000Y-73784000D02*
X121983000Y-73784000D01*
X118583000Y-73784000D02*
X118583000Y-70154000D01*
X106943000Y-73784000D02*
X106943000Y-70154000D01*
X103543000Y-73784000D02*
X103543000Y-75104000D01*
X103543000Y-73784000D02*
X106943000Y-73784000D01*
X106943000Y-70154000D02*
X118583000Y-70154000D01*
%TO.C,J8*%
X149496000Y-98159000D02*
X150876000Y-98159000D01*
X149496000Y-96779000D02*
X149496000Y-98159000D01*
X149496000Y-95509000D02*
X149496000Y-92859000D01*
X149496000Y-95509000D02*
X152256000Y-95509000D01*
X149496000Y-92859000D02*
X152256000Y-92859000D01*
X152256000Y-95509000D02*
X152256000Y-92859000D01*
%TO.C,U4*%
X117318000Y-114718000D02*
X117318000Y-119338000D01*
X117318000Y-117958000D02*
X127538000Y-117958000D01*
X117318000Y-119338000D02*
X127538000Y-119338000D01*
X120578000Y-119338000D02*
X120578000Y-117958000D01*
X124278000Y-119338000D02*
X124278000Y-117958000D01*
X127538000Y-114718000D02*
X117318000Y-114718000D01*
X127538000Y-119338000D02*
X127538000Y-114718000D01*
%TO.C,U3*%
X105126000Y-114718000D02*
X105126000Y-119338000D01*
X105126000Y-117958000D02*
X115346000Y-117958000D01*
X105126000Y-119338000D02*
X115346000Y-119338000D01*
X108386000Y-119338000D02*
X108386000Y-117958000D01*
X112086000Y-119338000D02*
X112086000Y-117958000D01*
X115346000Y-114718000D02*
X105126000Y-114718000D01*
X115346000Y-119338000D02*
X115346000Y-114718000D01*
%TO.C,SW3*%
X79233500Y-95518500D02*
X79233500Y-100818500D01*
X74043500Y-98168500D02*
X71393500Y-98168500D01*
X74043500Y-95518500D02*
X79233500Y-95518500D01*
X74043500Y-95518500D02*
X74043500Y-98168500D01*
X72773500Y-95518500D02*
X71393500Y-95518500D01*
X71393500Y-100818500D02*
X79233500Y-100818500D01*
X71393500Y-98168500D02*
X71393500Y-100818500D01*
X71393500Y-95518500D02*
X71393500Y-96898500D01*
%TD*%
M02*
