M48
; DRILL file {KiCad 9.0.4} date 2026-07-20T16:00:54-0400
; FORMAT={-:-/ absolute / metric / decimal}
; #@! TF.CreationDate,2026-07-20T16:00:54-04:00
; #@! TF.GenerationSoftware,Kicad,Pcbnew,9.0.4
; #@! TF.FileFunction,Plated,1,4,PTH
FMAT,2
METRIC
; #@! TA.AperFunction,Plated,PTH,ViaDrill
T1C0.300
; #@! TA.AperFunction,Plated,PTH,ComponentDrill
T2C0.600
; #@! TA.AperFunction,Plated,PTH,ComponentDrill
T3C0.800
; #@! TA.AperFunction,Plated,PTH,ComponentDrill
T4C0.900
; #@! TA.AperFunction,Plated,PTH,ComponentDrill
T5C1.000
; #@! TA.AperFunction,Plated,PTH,ComponentDrill
T6C1.100
; #@! TA.AperFunction,Plated,PTH,ComponentDrill
T7C1.200
; #@! TA.AperFunction,Plated,PTH,ComponentDrill
T8C1.400
%
G90
G05
T1
X53.848Y-99.822
X77.978Y-92.71
X87.63Y-99.568
X97.282Y-102.87
X119.38Y-108.204
X120.65Y-94.488
X148.844Y-104.902
X152.146Y-110.744
T2
X124.347Y-110.134
X124.695Y-93.98
X126.347Y-110.134
X126.695Y-93.98
X144.065Y-106.977
X144.065Y-108.977
T3
X60.735Y-99.314
X65.815Y-99.314
X96.255Y-97.912
X96.255Y-105.532
X96.284Y-93.554
X96.926Y-114.605
X97.057Y-119.126
X98.795Y-97.912
X98.795Y-105.532
X101.335Y-97.912
X101.335Y-105.532
X101.364Y-93.554
X101.843Y-109.81
X102.006Y-114.605
X102.137Y-119.126
X103.875Y-97.912
X103.875Y-105.532
X105.174Y-93.554
X106.415Y-97.912
X106.415Y-105.532
X106.923Y-109.81
X107.736Y-119.634
X108.955Y-97.912
X108.955Y-105.532
X110.254Y-93.554
X111.212Y-109.81
X111.495Y-97.912
X111.495Y-105.532
X112.736Y-119.634
X115.559Y-99.292
X115.559Y-104.292
X116.292Y-109.81
X119.877Y-98.196
X119.877Y-105.816
X119.917Y-119.888
X122.417Y-98.196
X122.417Y-105.816
X124.957Y-98.196
X124.957Y-105.816
X124.997Y-119.888
X127.497Y-98.196
X127.497Y-105.816
X129.663Y-114.833
X129.83Y-118.516
X131.307Y-99.207
X131.307Y-104.207
X134.743Y-114.833
X134.83Y-118.516
T4
X59.755Y-84.103
X61.914Y-84.103
X64.073Y-84.103
X66.232Y-84.103
T5
X72.773Y-96.898
X72.773Y-99.438
X75.313Y-96.898
X75.313Y-99.438
X77.853Y-96.898
X77.853Y-99.438
X135.142Y-78.606
X137.642Y-78.606
X140.142Y-78.606
X150.876Y-94.239
X150.876Y-96.779
T6
X107.696Y-116.078
X110.236Y-116.078
X112.776Y-116.078
X119.888Y-116.078
X122.428Y-116.078
X124.968Y-116.078
T8
X54.877Y-76.531
X54.877Y-82.881
X54.877Y-89.231
X71.107Y-76.531
X71.107Y-82.881
X71.107Y-89.231
X79.756Y-76.454
X79.756Y-82.804
X79.756Y-89.154
X95.986Y-76.454
X95.986Y-82.804
X95.986Y-89.154
X104.648Y-76.454
X104.648Y-82.804
X104.648Y-89.154
X120.878Y-76.454
X120.878Y-82.804
X120.878Y-89.154
X129.54Y-76.454
X129.54Y-82.804
X129.54Y-89.154
X138.938Y-102.629
X138.938Y-118.859
X145.288Y-102.629
X145.288Y-118.859
X145.77Y-76.454
X145.77Y-82.804
X145.77Y-89.154
X151.638Y-102.629
X151.638Y-118.859
T6
X132.842Y-85.756G85X132.842Y-86.456
G05
X142.442Y-85.756G85X142.442Y-86.456
G05
T7
X84.822Y-78.772G85X86.122Y-78.772
G05
X84.822Y-83.172G85X86.122Y-83.172
G05
X84.822Y-87.572G85X86.122Y-87.572
G05
X89.522Y-78.772G85X90.822Y-78.772
G05
X89.522Y-83.172G85X90.822Y-83.172
G05
X89.522Y-87.572G85X90.822Y-87.572
G05
X109.586Y-78.544G85X110.886Y-78.544
G05
X109.586Y-82.944G85X110.886Y-82.944
G05
X109.586Y-87.344G85X110.886Y-87.344
G05
X114.286Y-78.544G85X115.586Y-78.544
G05
X114.286Y-82.944G85X115.586Y-82.944
G05
X114.286Y-87.344G85X115.586Y-87.344
G05
M30
